<svg xmlns="http://www.w3.org/2000/svg" viewBox="0 0 32 32" xml:space="preserve" enable-background="new 0 0 32 32">
    <path d="M25.233 7.762 8.954 6.491A2.985 2.985 0 0 0 6.001 4H4v2h2.001c.495 0 .91.355.988.844l1.729 10.952A3.302 3.302 0 0 0 7 20.719a3.28 3.28 0 0 0 3.187 3.272A2.962 2.962 0 0 0 10 25c0 1.654 1.346 3 3 3s3-1.346 3-3c0-.352-.072-.686-.184-1h4.369A2.943 2.943 0 0 0 20 25c0 1.654 1.346 3 3 3s3-1.346 3-3-1.346-3-3-3H10.281C9.575 22 9 21.425 9 20.651c0-.693.566-1.256 1.334-1.283l14.898-1.163A3.015 3.015 0 0 0 28 15.214v-4.461a3.015 3.015 0 0 0-2.767-2.991zM14 25a1 1 0 1 1-2 0 1 1 0 0 1 2 0zm10 0a1 1 0 1 1-2 0 1 1 0 0 1 2 0zm2-9.786c0 .519-.405.957-.923.997L10.67 17.337 9.278 8.522l15.8 1.234c.517.04.922.478.922.997v4.461z"/>
</svg>
