<svg xmlns="http://www.w3.org/2000/svg" viewBox="0 0 32 32" xml:space="preserve" enable-background="new 0 0 32 32">
    <path d="M27 8.669V7c0-1.654-1.346-3-3-3H8C6.346 4 5 5.346 5 7v1.669l-2.692 3.615v.332A3.538 3.538 0 0 0 5 16.041V28h22V16.04a3.537 3.537 0 0 0 2.692-3.425v-.332L27 8.669zM7 7c0-.551.448-1 1-1h16c.552 0 1 .449 1 1v1H7V7zm12 19v-6h2v6h-2zm4 0v-8h-6v8H7V15.944a3.528 3.528 0 0 0 1.385-.874c.644.665 1.542 1.083 2.538 1.083s1.895-.418 2.539-1.083c.644.665 1.542 1.083 2.538 1.083s1.895-.418 2.538-1.083c.644.665 1.542 1.083 2.539 1.083s1.895-.418 2.538-1.083c.381.394.856.69 1.385.874V26h-2zm3.154-11.846a1.54 1.54 0 0 1-1.539-1.539h-2a1.54 1.54 0 0 1-1.538 1.539 1.54 1.54 0 0 1-1.539-1.539h-2c0 .848-.69 1.539-1.538 1.539s-1.538-.69-1.538-1.539h-2a1.54 1.54 0 0 1-1.539 1.539 1.54 1.54 0 0 1-1.538-1.539h-2a1.54 1.54 0 0 1-1.539 1.539 1.542 1.542 0 0 1-1.51-1.245L6.502 10h18.996l2.166 2.909a1.542 1.542 0 0 1-1.51 1.245z"/>
    <path d="M9 24h6v-6H9v6zm2-4h2v2h-2v-2z"/>
</svg>
