<svg xmlns="http://www.w3.org/2000/svg" fill="none" viewBox="0 0 206 110"><g clip-path="url(#auto-a)"><mask id="auto-d" fill="var(--onyx-color-neutral-grayscale-white)"><path d="M0 4a4 4 0 0 1 4-4h99v110H4a4 4 0 0 1-4-4z"/></mask><path fill="var(--onyx-color-neutral-steel-1200)" d="M0 4a4 4 0 0 1 4-4h99v110H4a4 4 0 0 1-4-4z"/><g filter="url(#auto-b)"><mask id="auto-c" fill="var(--onyx-color-neutral-grayscale-white)"><path d="M0 26h46v84H0z"/></mask><path fill="var(--onyx-color-neutral-steel-1100)" d="M0 26h46v84H0z"/><path fill="var(--onyx-color-neutral-steel-900)" d="M46 26h-1v84h2V26z" mask="url(#auto-c)"/></g><path fill="var(--onyx-color-neutral-steel-1100)" stroke="var(--onyx-color-neutral-steel-900)" d="M.5.5h281v25H.5z"/><path fill="var(--onyx-color-onyx-500)" d="M10 12.5a2.5 2.5 0 0 1 2.5-2.5h35a2.5 2.5 0 0 1 0 5h-35a2.5 2.5 0 0 1-2.5-2.5"/><path fill="var(--onyx-color-neutral-steel-900)" d="M68 12.5a2.5 2.5 0 0 1 2.5-2.5h34a2.5 2.5 0 1 1 0 5h-34a2.5 2.5 0 0 1-2.5-2.5M59 43a7 7 0 0 1 7-7h54a7 7 0 1 1 0 14H66a7 7 0 0 1-7-7m0 19a2 2 0 0 1 2-2h85a2 2 0 1 1 0 4H61a2 2 0 0 1-2-2m0 10a2 2 0 0 1 2-2h120a2 2 0 1 1 0 4H61a2 2 0 0 1-2-2m0 10a2 2 0 0 1 2-2h95a2 2 0 1 1 0 4H61a2 2 0 0 1-2-2"/></g><path fill="var(--onyx-color-neutral-steel-900)" d="M-1 4a5 5 0 0 1 5-5h99v2H4a3 3 0 0 0-3 3zm104 107H4a5 5 0 0 1-5-5h2a3 3 0 0 0 3 3h99zm-99 0a5 5 0 0 1-5-5V4a5 5 0 0 1 5-5v2a3 3 0 0 0-3 3v102a3 3 0 0 0 3 3zM103 0v110z" mask="url(#auto-d)"/><g clip-path="url(#auto-e)"><mask id="auto-f" fill="var(--onyx-color-neutral-grayscale-white)"><path d="M103 0h99a4 4 0 0 1 4 4v102a4 4 0 0 1-4 4h-99z"/></mask><path fill="var(--onyx-color-neutral-steel-100)" d="M103 0h99a4 4 0 0 1 4 4v102a4 4 0 0 1-4 4h-99z"/><path fill="var(--onyx-color-neutral-grayscale-white)" stroke="var(--onyx-color-neutral-steel-300)" d="M.5.5h281v25H.5z"/><path fill="var(--onyx-color-neutral-steel-300)" d="M68 12.5a2.5 2.5 0 0 1 2.5-2.5h34a2.5 2.5 0 1 1 0 5h-34a2.5 2.5 0 0 1-2.5-2.5m48 0a2.5 2.5 0 0 1 2.5-2.5h33a2.5 2.5 0 1 1 0 5h-33a2.5 2.5 0 0 1-2.5-2.5m47 0a2.5 2.5 0 0 1 2.5-2.5h34a2.5 2.5 0 1 1 0 5h-34a2.5 2.5 0 0 1-2.5-2.5M59 43a7 7 0 0 1 7-7h54a7 7 0 1 1 0 14H66a7 7 0 0 1-7-7m0 19a2 2 0 0 1 2-2h85a2 2 0 1 1 0 4H61a2 2 0 0 1-2-2m0 10a2 2 0 0 1 2-2h120a2 2 0 1 1 0 4H61a2 2 0 0 1-2-2m0 10a2 2 0 0 1 2-2h95a2 2 0 1 1 0 4H61a2 2 0 0 1-2-2"/></g><path fill="var(--onyx-color-neutral-steel-300)" d="M103-1h99a5 5 0 0 1 5 5h-2a3 3 0 0 0-3-3h-99zm104 107a5 5 0 0 1-5 5h-99v-2h99a3 3 0 0 0 3-3zm-104 4V0zM202-1a5 5 0 0 1 5 5v102a5 5 0 0 1-5 5v-2a3 3 0 0 0 3-3V4a3 3 0 0 0-3-3z" mask="url(#auto-f)"/><defs><clipPath id="auto-a"><path fill="var(--onyx-color-neutral-grayscale-white)" d="M0 4a4 4 0 0 1 4-4h99v110H4a4 4 0 0 1-4-4z"/></clipPath><clipPath id="auto-e"><path fill="var(--onyx-color-neutral-grayscale-white)" d="M103 0h99a4 4 0 0 1 4 4v102a4 4 0 0 1-4 4h-99z"/></clipPath><filter id="auto-b" width="62" height="100" x="-6" y="18" color-interpolation-filters="sRGB" filterUnits="userSpaceOnUse"><feFlood flood-opacity="0" result="BackgroundImageFix"/><feColorMatrix in="SourceAlpha" result="hardAlpha" values="0 0 0 0 0 0 0 0 0 0 0 0 0 0 0 0 0 0 127 0"/><feOffset dx="2"/><feGaussianBlur stdDeviation="4"/><feComposite in2="hardAlpha" operator="out"/><feColorMatrix values="0 0 0 0 0 0 0 0 0 0 0 0 0 0 0 0 0 0 0.1 0"/><feBlend in2="BackgroundImageFix" result="effect1_dropShadow_16217_22720"/><feBlend in="SourceGraphic" in2="effect1_dropShadow_16217_22720" result="shape"/></filter></defs></svg>