<svg width="166" height="104" viewBox="0 0 166 104" fill="none" xmlns="http://www.w3.org/2000/svg">
<g clip-path="url(#clip0_4499_144781)">
<mask id="mask0_4499_144781" style="mask-type:alpha" maskUnits="userSpaceOnUse" x="0" y="0" width="83" height="104">
<rect width="83" height="104" fill="#D9D9D9"/>
</mask>
<g mask="url(#mask0_4499_144781)">
<path d="M0.5 4C0.5 2.06701 2.067 0.5 4 0.5H162C163.933 0.5 165.5 2.067 165.5 4V100C165.5 101.933 163.933 103.5 162 103.5H4C2.067 103.5 0.5 101.933 0.5 100V4Z" fill="white"/>
<path d="M0.5 4C0.5 2.06701 2.067 0.5 4 0.5H162C163.933 0.5 165.5 2.067 165.5 4V100C165.5 101.933 163.933 103.5 162 103.5H4C2.067 103.5 0.5 101.933 0.5 100V4Z" stroke="var(--onyx-color-neutral-steel-300)"/>
<g filter="url(#filter0_d_4499_144781)">
<g clip-path="url(#clip1_4499_144781)">
<mask id="path-5-inside-1_4499_144781" fill="white">
<path d="M16 16H166V36H16V16Z"/>
</mask>
<path d="M16 16H166V36H16V16Z" fill="white"/>
<path d="M166 35H16V37H166V35Z" fill="var(--onyx-color-neutral-steel-300)" mask="url(#path-5-inside-1_4499_144781)"/>
<rect x="28" y="24" width="40" height="4" fill="var(--onyx-color-base-primary-500)"/>
<rect x="77" y="24" width="40" height="4" fill="var(--onyx-color-neutral-steel-300)"/>
<mask id="path-9-inside-2_4499_144781" fill="white">
<path d="M16 36H44V104H16V36Z"/>
</mask>
<path d="M16 36H44V104H16V36Z" fill="white"/>
<path d="M43 36V104H45V36H43Z" fill="var(--onyx-color-neutral-steel-300)" mask="url(#path-9-inside-2_4499_144781)"/>
<rect width="122" height="68" transform="translate(44 36)" fill="var(--onyx-color-neutral-steel-100)"/>
<rect x="56" y="48" width="54" height="8" fill="var(--onyx-color-neutral-steel-600)"/>
<rect x="56" y="64" width="82" height="4" fill="var(--onyx-color-neutral-steel-500)"/>
<rect x="56" y="76" width="66" height="4" fill="var(--onyx-color-neutral-steel-500)"/>
<rect x="56" y="88" width="97" height="4" fill="var(--onyx-color-neutral-steel-500)"/>
</g>
<path d="M16.5 32C16.5 23.4396 23.4396 16.5 32 16.5H165.5V103.5H16.5V32Z" stroke="var(--onyx-color-neutral-steel-300)" shape-rendering="crispEdges"/>
</g>
</g>
<mask id="mask1_4499_144781" style="mask-type:alpha" maskUnits="userSpaceOnUse" x="83" y="0" width="83" height="104">
<path d="M83 0H166V100C166 102.209 164.209 104 162 104H83V0Z" fill="#D9D9D9"/>
</mask>
<g mask="url(#mask1_4499_144781)">
<path d="M0.5 4C0.5 2.06701 2.067 0.5 4 0.5H162C163.933 0.5 165.5 2.067 165.5 4V100C165.5 101.933 163.933 103.5 162 103.5H4C2.067 103.5 0.5 101.933 0.5 100V4Z" fill="var(--onyx-color-neutral-steel-1100)"/>
<path d="M0.5 4C0.5 2.06701 2.067 0.5 4 0.5H162C163.933 0.5 165.5 2.067 165.5 4V100C165.5 101.933 163.933 103.5 162 103.5H4C2.067 103.5 0.5 101.933 0.5 100V4Z" stroke="var(--onyx-color-neutral-steel-900)"/>
<g filter="url(#filter1_d_4499_144781)">
<g clip-path="url(#clip2_4499_144781)">
<mask id="path-19-inside-3_4499_144781" fill="white">
<path d="M16 16H166V36H16V16Z"/>
</mask>
<path d="M16 16H166V36H16V16Z" fill="var(--onyx-color-neutral-steel-1100)"/>
<path d="M166 35H16V37H166V35Z" fill="var(--onyx-color-neutral-steel-900)" mask="url(#path-19-inside-3_4499_144781)"/>
<rect x="77" y="24" width="40" height="4" fill="var(--onyx-color-neutral-steel-900)"/>
<rect x="126" y="24" width="40" height="4" fill="var(--onyx-color-neutral-steel-900)"/>
<rect width="122" height="68" transform="translate(44 36)" fill="var(--onyx-color-neutral-steel-1200)"/>
<rect x="56" y="48" width="54" height="8" fill="var(--onyx-color-neutral-steel-400)"/>
<rect x="56" y="64" width="82" height="4" fill="var(--onyx-color-neutral-steel-500)"/>
<rect x="56" y="76" width="66" height="4" fill="var(--onyx-color-neutral-steel-500)"/>
<rect x="56" y="88" width="97" height="4" fill="var(--onyx-color-neutral-steel-500)"/>
</g>
<path d="M16.5 32C16.5 23.4396 23.4396 16.5 32 16.5H165.5V103.5H16.5V32Z" stroke="var(--onyx-color-neutral-steel-900)" shape-rendering="crispEdges"/>
</g>
</g>
</g>
<defs>
<filter id="filter0_d_4499_144781" x="8" y="10" width="166" height="104" filterUnits="userSpaceOnUse" color-interpolation-filters="sRGB">
<feFlood flood-opacity="0" result="BackgroundImageFix"/>
<feColorMatrix in="SourceAlpha" type="matrix" values="0 0 0 0 0 0 0 0 0 0 0 0 0 0 0 0 0 0 127 0" result="hardAlpha"/>
<feOffset dy="2"/>
<feGaussianBlur stdDeviation="4"/>
<feComposite in2="hardAlpha" operator="out"/>
<feColorMatrix type="matrix" values="0 0 0 0 0 0 0 0 0 0 0 0 0 0 0 0 0 0 0.1 0"/>
<feBlend mode="normal" in2="BackgroundImageFix" result="effect1_dropShadow_4499_144781"/>
<feBlend mode="normal" in="SourceGraphic" in2="effect1_dropShadow_4499_144781" result="shape"/>
</filter>
<filter id="filter1_d_4499_144781" x="8" y="10" width="166" height="104" filterUnits="userSpaceOnUse" color-interpolation-filters="sRGB">
<feFlood flood-opacity="0" result="BackgroundImageFix"/>
<feColorMatrix in="SourceAlpha" type="matrix" values="0 0 0 0 0 0 0 0 0 0 0 0 0 0 0 0 0 0 127 0" result="hardAlpha"/>
<feOffset dy="2"/>
<feGaussianBlur stdDeviation="4"/>
<feComposite in2="hardAlpha" operator="out"/>
<feColorMatrix type="matrix" values="0 0 0 0 0 0 0 0 0 0 0 0 0 0 0 0 0 0 0.1 0"/>
<feBlend mode="normal" in2="BackgroundImageFix" result="effect1_dropShadow_4499_144781"/>
<feBlend mode="normal" in="SourceGraphic" in2="effect1_dropShadow_4499_144781" result="shape"/>
</filter>
<clipPath id="clip0_4499_144781">
<rect width="166" height="104" fill="white"/>
</clipPath>
<clipPath id="clip1_4499_144781">
<path d="M16 32C16 23.1634 23.1634 16 32 16H166V104H16V32Z" fill="white"/>
</clipPath>
<clipPath id="clip2_4499_144781">
<path d="M16 32C16 23.1634 23.1634 16 32 16H166V104H16V32Z" fill="white"/>
</clipPath>
</defs>
</svg>
