<svg xmlns="http://www.w3.org/2000/svg" fill="none" viewBox="0 0 206 110"><g clip-path="url(#light-a)"><path fill="var(--onyx-color-neutral-steel-100)" d="M0 4a4 4 0 0 1 4-4h198a4 4 0 0 1 4 4v102a4 4 0 0 1-4 4H4a4 4 0 0 1-4-4z"/><g filter="url(#light-b)"><mask id="light-c" fill="var(--onyx-color-neutral-grayscale-white)"><path d="M0 26h46v84H0z"/></mask><path fill="var(--onyx-color-neutral-grayscale-white)" d="M0 26h46v84H0z"/><path fill="var(--onyx-color-neutral-steel-300)" d="M46 26h-1v84h2V26z" mask="url(#light-c)"/></g><path fill="var(--onyx-color-neutral-grayscale-white)" stroke="var(--onyx-color-neutral-steel-300)" d="M.5.5h281v25H.5z"/><path fill="var(--onyx-color-onyx-500)" d="M10 12.5a2.5 2.5 0 0 1 2.5-2.5h35a2.5 2.5 0 0 1 0 5h-35a2.5 2.5 0 0 1-2.5-2.5"/><path fill="var(--onyx-color-neutral-steel-300)" d="M68 12.5a2.5 2.5 0 0 1 2.5-2.5h34a2.5 2.5 0 1 1 0 5h-34a2.5 2.5 0 0 1-2.5-2.5m48 0a2.5 2.5 0 0 1 2.5-2.5h33a2.5 2.5 0 1 1 0 5h-33a2.5 2.5 0 0 1-2.5-2.5m47 0a2.5 2.5 0 0 1 2.5-2.5h34a2.5 2.5 0 1 1 0 5h-34a2.5 2.5 0 0 1-2.5-2.5M59 43a7 7 0 0 1 7-7h54a7 7 0 1 1 0 14H66a7 7 0 0 1-7-7m0 19a2 2 0 0 1 2-2h85a2 2 0 1 1 0 4H61a2 2 0 0 1-2-2m0 10a2 2 0 0 1 2-2h120a2 2 0 1 1 0 4H61a2 2 0 0 1-2-2m0 10a2 2 0 0 1 2-2h95a2 2 0 1 1 0 4H61a2 2 0 0 1-2-2"/></g><path stroke="var(--onyx-color-neutral-steel-300)" d="M4 .5h198a3.5 3.5 0 0 1 3.5 3.5v102a3.5 3.5 0 0 1-3.5 3.5H4A3.5 3.5 0 0 1 .5 106V4A3.5 3.5 0 0 1 4 .5Z"/><defs><clipPath id="light-a"><path fill="var(--onyx-color-neutral-grayscale-white)" d="M0 4a4 4 0 0 1 4-4h198a4 4 0 0 1 4 4v102a4 4 0 0 1-4 4H4a4 4 0 0 1-4-4z"/></clipPath><filter id="light-b" width="62" height="100" x="-6" y="18" color-interpolation-filters="sRGB" filterUnits="userSpaceOnUse"><feFlood flood-opacity="0" result="BackgroundImageFix"/><feColorMatrix in="SourceAlpha" result="hardAlpha" values="0 0 0 0 0 0 0 0 0 0 0 0 0 0 0 0 0 0 127 0"/><feOffset dx="2"/><feGaussianBlur stdDeviation="4"/><feComposite in2="hardAlpha" operator="out"/><feColorMatrix values="0 0 0 0 0 0 0 0 0 0 0 0 0 0 0 0 0 0 0.1 0"/><feBlend in2="BackgroundImageFix" result="effect1_dropShadow_16217_22745"/><feBlend in="SourceGraphic" in2="effect1_dropShadow_16217_22745" result="shape"/></filter></defs></svg>