<svg xmlns="http://www.w3.org/2000/svg" viewBox="0 0 32 32" xml:space="preserve" enable-background="new 0 0 32 32">
    <path d="M16 2C8.28 2 2 8.28 2 16s6.28 14 14 14 14-6.28 14-14S23.72 2 16 2zm0 26C9.383 28 4 22.617 4 16S9.383 4 16 4s12 5.383 12 12-5.383 12-12 12z"/>
    <path d="M11 13c.552 0 1 .449 1 1h2c0-1.654-1.346-3-3-3s-3 1.346-3 3h2c0-.551.448-1 1-1zM21 11c-1.654 0-3 1.346-3 3h2a1.001 1.001 0 0 1 2 0h2c0-1.654-1.346-3-3-3zM16 19a7.022 7.022 0 0 0-6.056 3.499l1.73 1.002C12.567 21.958 14.225 21 16 21s3.433.958 4.325 2.501l1.73-1.002A7.019 7.019 0 0 0 16 19z"/>
</svg>
