<svg xmlns="http://www.w3.org/2000/svg" width="25" height="24"><g clip-path="url(#a)"><path fill-rule="evenodd" d="M5.29 18a.75.75 0 0 1-.75.75h-.75a.75.75 0 0 1-.75-.75v-5.25c0-1.24 1.01-2.25 2.25-2.25h15.906l-1.077-5.649c-.154-1.483-1.262-2.601-2.58-2.601H6.54c-1.317 0-2.425 1.118-2.57 2.538L3.169 9H1.54v1.5h.77a3.7 3.7 0 0 0-.77 2.25V18c0 1.24 1.01 2.25 2.25 2.25h.75c1.24 0 2.25-1.01 2.25-2.25h3v-1.5h-4.5zm.164-12.994c.072-.705.55-1.256 1.086-1.256h11c.537 0 1.015.551 1.096 1.319L19.384 9H4.695zM8.29 12.75h-3v1.5h3zm10.535 5.724 2.759 2.76-1.06 1.06-2.76-2.76a4.1 4.1 0 0 1-2.335.73 4.13 4.13 0 0 1-4.126-4.125 4.13 4.13 0 0 1 4.125-4.125 4.13 4.13 0 0 1 4.125 4.125c0 .866-.27 1.67-.729 2.335m-3.396-4.96a2.63 2.63 0 0 0-2.626 2.625 2.63 2.63 0 0 0 2.625 2.625 2.63 2.63 0 0 0 2.625-2.625 2.63 2.63 0 0 0-2.625-2.625" clip-rule="evenodd"/></g><defs><clipPath id="a"><path d="M.04 0h24v24h-24z"/></clipPath></defs></svg>