<svg xmlns="http://www.w3.org/2000/svg" width="25" height="24"><path fill-rule="evenodd" d="M4.54 18.75a.75.75 0 0 0 .75-.75v-1.5h5.25V18H6.79c0 1.24-1.01 2.25-2.25 2.25h-.75c-1.24 0-2.25-1.01-2.25-2.25v-5.25c0-.848.293-1.621.77-2.25h-.77V9h1.629l.801-4.212c.145-1.42 1.253-2.538 2.57-2.538h11c1.317 0 2.425 1.118 2.579 2.601l1.077 5.649H5.29c-1.24 0-2.25 1.01-2.25 2.25V18c0 .414.336.75.75.75zm2-15c-.537 0-1.014.551-1.086 1.255L4.695 9h14.689l-.748-3.931c-.081-.768-.56-1.319-1.096-1.319zm-1.25 9h3v1.5h-3zm12-.75a5.257 5.257 0 0 0-5.25 5.25 5.257 5.257 0 0 0 5.25 5.25 5.257 5.257 0 0 0 5.25-5.25A5.257 5.257 0 0 0 17.29 12m0 9a3.754 3.754 0 0 1-3.75-3.75 3.754 3.754 0 0 1 3.75-3.75 3.754 3.754 0 0 1 3.75 3.75A3.754 3.754 0 0 1 17.29 21m-1.42-4.605.897.885 1.853-1.854 1.061 1.06-2.907 2.909-1.958-1.932z" clip-rule="evenodd"/></svg>