<svg width="120" height="74" viewBox="0 0 120 74" fill="none" xmlns="http://www.w3.org/2000/svg">
<g clip-path="url(#clip0_19774_62198)">
<path d="M61.5601 59.2462L19.6098 70.0488C18.1868 70.4135 16.6772 70.1989 15.4122 69.452C14.1473 68.7051 13.2302 67.4869 12.8623 66.0648L0.176134 16.7975C-0.188576 15.3745 0.0260557 13.865 0.772942 12.6C1.51983 11.3351 2.73798 10.418 4.16014 10.0501L43.1881 0L53.1766 4.47172L65.5441 52.4985C65.9089 53.9216 65.6943 55.4312 64.9474 56.6962C64.2005 57.9612 62.9823 58.8782 61.5601 59.2462Z" fill="#C9D6E0"/>
<path d="M4.55703 11.5946C3.54427 11.8566 2.67679 12.5096 2.1449 13.4104C1.61302 14.3112 1.46017 15.3862 1.71987 16.3996L14.4068 65.667C14.6688 66.6797 15.3219 67.5472 16.2227 68.0791C17.1235 68.611 18.1984 68.7638 19.2118 68.5041L61.1621 57.7017C62.1749 57.4397 63.0424 56.7866 63.5743 55.8858C64.1062 54.985 64.259 53.91 63.9993 52.8967L51.8235 5.61361L43.0447 1.68359L4.55703 11.5946Z" fill="#FAFBFC"/>
<path d="M53.0699 4.72607L46.5775 6.39795C46.1035 6.51998 45.6005 6.44874 45.179 6.19989C44.7576 5.95104 44.4523 5.54498 44.3302 5.07102L43.0954 0.275817C43.09 0.254835 43.0907 0.232764 43.0973 0.212129C43.1038 0.191494 43.1161 0.173129 43.1326 0.159137C43.1492 0.145144 43.1693 0.136091 43.1907 0.13301C43.2122 0.129928 43.2341 0.132943 43.2539 0.141713L53.088 4.50897C53.1098 4.5187 53.1281 4.535 53.1403 4.5556C53.1525 4.57621 53.158 4.60009 53.156 4.62395C53.154 4.64781 53.1447 4.67045 53.1292 4.68875C53.1138 4.70705 53.093 4.72009 53.0699 4.72607Z" fill="#C9D6E0"/>
<path d="M49.6544 46.799L30.555 51.7177C30.3185 51.7772 30.0681 51.7406 29.8585 51.6161C29.6489 51.4915 29.4972 51.2891 29.4364 51.053C29.3756 50.8168 29.4107 50.5663 29.5341 50.356C29.6575 50.1457 29.859 49.9928 30.0948 49.9306L49.1942 45.0119C49.3118 44.9809 49.4344 44.9735 49.5549 44.99C49.6753 45.0066 49.7914 45.0468 49.8962 45.1083C50.0011 45.1698 50.0928 45.2515 50.166 45.3486C50.2393 45.4457 50.2926 45.5563 50.3229 45.6741C50.3532 45.7918 50.36 45.9144 50.3427 46.0348C50.3255 46.1552 50.2847 46.271 50.2225 46.3755C50.1604 46.4801 50.0782 46.5713 49.9807 46.644C49.8832 46.7167 49.7723 46.7693 49.6544 46.799Z" fill="#9DB3C4"/>
<path d="M54.1164 48.8657L31.3312 54.7333C31.2136 54.7643 31.091 54.7717 30.9705 54.7552C30.85 54.7386 30.734 54.6984 30.6291 54.6369C30.5242 54.5753 30.4326 54.4937 30.3593 54.3966C30.2861 54.2995 30.2328 54.1889 30.2025 54.0711C30.1722 53.9533 30.1654 53.8307 30.1826 53.7104C30.1999 53.59 30.2407 53.4742 30.3028 53.3696C30.365 53.2651 30.4471 53.1739 30.5447 53.1012C30.6422 53.0285 30.7531 52.9759 30.871 52.9462L53.6563 47.0786C53.8927 47.0192 54.1431 47.0557 54.3527 47.1803C54.5623 47.3048 54.7141 47.5073 54.7748 47.7434C54.8356 47.9795 54.8005 48.2301 54.6771 48.4404C54.5538 48.6507 54.3522 48.8036 54.1164 48.8657Z" fill="#9DB3C4"/>
<path d="M22.7598 57.6407C24.5609 57.6407 26.0211 56.1806 26.0211 54.3794C26.0211 52.5783 24.5609 51.1182 22.7598 51.1182C20.9587 51.1182 19.4985 52.5783 19.4985 54.3794C19.4985 56.1806 20.9587 57.6407 22.7598 57.6407Z" fill="#00C3CD"/>
<path d="M47.6232 38.2649L22.2571 44.7945C21.524 44.9823 20.7464 44.8717 20.0948 44.4868C19.4431 44.102 18.9708 43.4744 18.7813 42.7417L13.4657 22.0912C13.2781 21.3582 13.3888 20.5807 13.7736 19.9293C14.1585 19.2778 14.7859 18.8055 15.5185 18.6161L40.8844 12.0865C41.6175 11.8987 42.3951 12.0093 43.0467 12.3941C43.6984 12.779 44.1707 13.4066 44.3602 14.1392L49.6759 34.7897C49.8636 35.5227 49.7528 36.3002 49.368 36.9517C48.9832 37.6032 48.3557 38.0754 47.6232 38.2649Z" fill="#FAFBFC"/>
<path d="M47.6232 38.2649L22.2571 44.7945C21.524 44.9823 20.7464 44.8717 20.0948 44.4868C19.4431 44.102 18.9708 43.4744 18.7813 42.7417L13.4657 22.0912C13.2781 21.3582 13.3888 20.5807 13.7736 19.9293C14.1585 19.2778 14.7859 18.8055 15.5185 18.6161L40.8844 12.0865C41.6175 11.8987 42.3951 12.0093 43.0467 12.3941C43.6984 12.779 44.1707 13.4066 44.3602 14.1392L49.6759 34.7897C49.8636 35.5227 49.7528 36.3002 49.368 36.9517C48.9832 37.6032 48.3557 38.0754 47.6232 38.2649ZM15.6021 18.9407C14.9558 19.108 14.4022 19.5249 14.0628 20.0998C13.7234 20.6748 13.6259 21.3609 13.7916 22.0076L19.1074 42.6581C19.2747 43.3044 19.6916 43.858 20.2665 44.1974C20.8415 44.5368 21.5276 44.6343 22.1743 44.4686L47.5397 37.9396C48.1861 37.7723 48.7396 37.3554 49.079 36.7805C49.4184 36.2055 49.516 35.5195 49.3502 34.8727L44.0349 14.2222C43.8676 13.5759 43.4507 13.0223 42.8758 12.6829C42.3008 12.3435 41.6147 12.246 40.968 12.4117L15.6021 18.9407Z" fill="#9DB3C4"/>
<path d="M39.5977 19.0294L26.7962 22.3248C26.6843 22.356 26.5647 22.3436 26.4616 22.2901C26.3585 22.2365 26.2795 22.1459 26.2407 22.0364C26.2226 21.9791 26.2164 21.9188 26.2224 21.8591C26.2285 21.7994 26.2466 21.7416 26.2757 21.6891C26.3048 21.6366 26.3443 21.5906 26.3918 21.5539C26.4393 21.5172 26.4937 21.4906 26.5518 21.4756L39.5833 18.1211C40.1098 18.3879 39.9712 18.9334 39.5979 19.0295L39.5977 19.0294Z" fill="#C9D6E0"/>
<path d="M40.1753 21.2735L27.3738 24.5689C27.2619 24.6001 27.1423 24.5877 27.0392 24.5342C26.9361 24.4807 26.8572 24.39 26.8183 24.2805C26.8003 24.2233 26.7941 24.163 26.8001 24.1033C26.8061 24.0436 26.8242 23.9857 26.8533 23.9332C26.8824 23.8807 26.9219 23.8347 26.9694 23.798C27.0169 23.7613 27.0714 23.7347 27.1295 23.7197L40.1609 20.3652C40.6874 20.632 40.5488 21.1775 40.1755 21.2737L40.1753 21.2735Z" fill="#C9D6E0"/>
<path d="M24.9357 26.5603L21.0288 27.5657C20.9656 27.582 20.8998 27.5856 20.8352 27.5765C20.7706 27.5673 20.7085 27.5456 20.6523 27.5124C20.5961 27.4792 20.547 27.4353 20.5078 27.3831C20.4686 27.331 20.4401 27.2716 20.4238 27.2084L19.2369 22.5989C19.2206 22.5357 19.2169 22.4699 19.2261 22.4053C19.2352 22.3407 19.257 22.2785 19.2902 22.2224C19.3234 22.1662 19.3673 22.1171 19.4195 22.0779C19.4716 22.0387 19.531 22.0101 19.5942 21.9939L23.5011 20.9882C23.6287 20.9555 23.7641 20.9748 23.8775 21.0418C23.9909 21.1088 24.0731 21.218 24.1061 21.3455L25.293 25.9561C25.3093 26.0193 25.313 26.0851 25.3038 26.1497C25.2947 26.2143 25.2729 26.2765 25.2397 26.3326C25.2066 26.3888 25.1626 26.4379 25.1105 26.4771C25.0583 26.5163 24.9989 26.5449 24.9357 26.5611V26.5603Z" fill="#00C3CD"/>
<path d="M41.3219 25.8821L21.784 30.9114C21.6721 30.9426 21.5525 30.9302 21.4494 30.8767C21.3463 30.8231 21.2673 30.7325 21.2285 30.623C21.2104 30.5657 21.2042 30.5054 21.2102 30.4457C21.2162 30.386 21.2344 30.3281 21.2635 30.2757C21.2926 30.2232 21.3321 30.1772 21.3796 30.1405C21.4271 30.1038 21.4815 30.0772 21.5396 30.0622L41.3075 24.9736C41.834 25.2404 41.6952 25.7859 41.3219 25.8821Z" fill="#C9D6E0"/>
<path d="M41.9004 28.128L22.3621 33.1574C22.2502 33.1887 22.1306 33.1763 22.0275 33.1228C21.9244 33.0692 21.8455 32.9785 21.8066 32.8691C21.7886 32.8118 21.7823 32.7515 21.7884 32.6918C21.7944 32.6321 21.8125 32.5742 21.8416 32.5218C21.8707 32.4693 21.9102 32.4233 21.9577 32.3866C22.0052 32.3499 22.0597 32.3232 22.1178 32.3083L41.8856 27.2197C42.4121 27.4865 42.2735 28.032 41.9002 28.1282L41.9004 28.128Z" fill="#C9D6E0"/>
<path d="M42.4782 30.3733L22.9402 35.4026C22.8283 35.4338 22.7087 35.4214 22.6056 35.3679C22.5025 35.3143 22.4236 35.2237 22.3847 35.1142C22.3667 35.0569 22.3605 34.9966 22.3665 34.9369C22.3725 34.8772 22.3906 34.8194 22.4197 34.7669C22.4488 34.7144 22.4884 34.6684 22.5358 34.6317C22.5833 34.595 22.6378 34.5684 22.6959 34.5534L42.4636 29.4648C42.9901 29.7316 42.8515 30.2772 42.4782 30.3733Z" fill="#C9D6E0"/>
<path d="M43.0564 32.6184L23.5184 37.6477C23.4065 37.6789 23.2869 37.6665 23.1838 37.613C23.0807 37.5595 23.0017 37.4688 22.9629 37.3593C22.9448 37.3021 22.9386 37.2418 22.9446 37.182C22.9506 37.1223 22.9687 37.0645 22.9979 37.012C23.027 36.9595 23.0665 36.9135 23.114 36.8768C23.1614 36.8401 23.2159 36.8135 23.274 36.7985L43.0419 31.71C43.5682 31.9767 43.4298 32.5223 43.0564 32.6184Z" fill="#C9D6E0"/>
<path d="M43.6339 34.8635L24.096 39.8928C23.9841 39.924 23.8645 39.9116 23.7614 39.8581C23.6583 39.8046 23.5793 39.7139 23.5405 39.6044C23.5224 39.5472 23.5162 39.4869 23.5222 39.4272C23.5283 39.3674 23.5464 39.3096 23.5755 39.2571C23.6046 39.2046 23.6441 39.1586 23.6916 39.1219C23.7391 39.0852 23.7935 39.0586 23.8517 39.0436L43.6195 33.9551C44.1458 34.2218 44.0072 34.7674 43.6339 34.8635Z" fill="#C9D6E0"/>
<path d="M23.0003 55.5227C22.9293 55.5412 22.8543 55.536 22.7864 55.508L22.7823 55.5062L21.8939 55.1296C21.8527 55.1121 21.8154 55.0866 21.784 55.0547C21.7527 55.0228 21.728 54.985 21.7112 54.9435C21.6945 54.902 21.6861 54.8576 21.6865 54.8129C21.687 54.7682 21.6962 54.724 21.7137 54.6828C21.7312 54.6416 21.7566 54.6043 21.7886 54.573C21.8205 54.5416 21.8583 54.5169 21.8998 54.5002C21.9413 54.4835 21.9856 54.4751 22.0304 54.4755C22.0751 54.4759 22.1193 54.4851 22.1605 54.5026L22.7361 54.7474L23.4904 52.9729C23.5258 52.8898 23.5927 52.8241 23.6764 52.7903C23.7602 52.7566 23.8539 52.7574 23.937 52.7928L23.9325 52.8043L23.9371 52.7926C24.0202 52.828 24.0858 52.8949 24.1196 52.9787C24.1534 53.0624 24.1525 53.1562 24.1172 53.2393L23.2298 55.3258C23.2092 55.3739 23.1778 55.4166 23.138 55.4507C23.0983 55.4847 23.0512 55.5091 23.0005 55.5219L23.0003 55.5227Z" fill="#FAFBFC"/>
<path d="M102.739 72.2068L60.2158 63.9411C58.774 63.6592 57.5029 62.8168 56.6815 61.5988C55.86 60.3808 55.5552 58.8867 55.8341 57.4443L65.5414 7.50449C65.8233 6.06277 66.6656 4.79176 67.8835 3.97029C69.1014 3.14883 70.5953 2.844 72.0377 3.12268L111.598 10.8125L118.698 19.1419L109.235 67.8245C108.953 69.2663 108.111 70.5374 106.893 71.359C105.675 72.1806 104.181 72.4855 102.739 72.2068Z" fill="#9DB3C4"/>
<path d="M71.7336 4.68843C70.7065 4.48998 69.6426 4.70706 68.7753 5.29204C67.9081 5.87701 67.3082 6.78211 67.1075 7.80877L57.4002 57.7486C57.2017 58.7757 57.4188 59.8396 58.0038 60.7069C58.5887 61.5741 59.4938 62.1739 60.5205 62.3747L103.044 70.6404C104.071 70.8388 105.135 70.6217 106.002 70.0367C106.869 69.4518 107.469 68.5467 107.67 67.52L116.986 19.5919L110.747 12.2718L71.7336 4.68843Z" fill="#FAFBFC"/>
<path d="M103.163 25.868L83.8027 22.1047C83.5624 22.0581 83.3506 21.9178 83.2138 21.715C83.0769 21.5121 83.0263 21.2632 83.073 21.0229C83.1197 20.7827 83.2599 20.5709 83.4627 20.434C83.6656 20.2972 83.9146 20.2466 84.1548 20.2932L103.515 24.0566C103.756 24.1033 103.967 24.2435 104.104 24.4464C104.241 24.6492 104.292 24.8982 104.245 25.1384C104.198 25.3786 104.058 25.5904 103.855 25.7273C103.652 25.8641 103.403 25.9148 103.163 25.8681L103.163 25.868Z" fill="#00C3CD"/>
<path d="M106.305 29.6509L83.2089 25.1614C82.9687 25.1147 82.7569 24.9745 82.62 24.7716C82.4832 24.5687 82.4325 24.3198 82.4792 24.0796C82.5259 23.8394 82.6661 23.6275 82.869 23.4907C83.0719 23.3538 83.3208 23.3032 83.561 23.3499L106.657 27.8394C106.898 27.8861 107.109 28.0263 107.246 28.2292C107.383 28.432 107.434 28.681 107.387 28.9212C107.34 29.1614 107.2 29.3732 106.997 29.5101C106.794 29.6469 106.546 29.6976 106.305 29.6509Z" fill="#00C3CD"/>
<path d="M100.852 37.7546L81.4926 33.9915C81.2524 33.9448 81.0035 33.9954 80.8006 34.1323C80.5978 34.2691 80.4576 34.4809 80.4109 34.7211C80.3642 34.9613 80.4148 35.2102 80.5517 35.4131C80.6885 35.6159 80.9003 35.7561 81.1405 35.8028L100.5 39.566C100.739 39.6091 100.985 39.5565 101.185 39.4195C101.386 39.2825 101.524 39.0722 101.57 38.834C101.616 38.5959 101.567 38.3491 101.433 38.147C101.298 37.945 101.09 37.804 100.852 37.7546Z" fill="#9DB3C4"/>
<path d="M103.995 41.539L80.8986 37.0496C80.779 37.0247 80.6556 37.0238 80.5356 37.047C80.4157 37.0701 80.3015 37.1169 80.1997 37.1846C80.098 37.2522 80.0107 37.3394 79.9429 37.4411C79.8751 37.5428 79.8282 37.6569 79.8049 37.7768C79.7816 37.8968 79.7823 38.0202 79.8071 38.1398C79.8318 38.2595 79.8801 38.373 79.9491 38.4739C80.0181 38.5748 80.1064 38.6609 80.209 38.7273C80.3116 38.7938 80.4263 38.8392 80.5465 38.8609L103.642 43.3503C103.762 43.3752 103.885 43.3761 104.005 43.3529C104.125 43.3297 104.24 43.2829 104.341 43.2153C104.443 43.1476 104.53 43.0604 104.598 42.9587C104.666 42.8571 104.713 42.7429 104.736 42.623C104.759 42.503 104.759 42.3797 104.734 42.26C104.709 42.1403 104.661 42.0268 104.592 41.9259C104.523 41.8251 104.435 41.7389 104.332 41.6725C104.23 41.6061 104.115 41.5607 103.995 41.539Z" fill="#9DB3C4"/>
<path d="M97.8371 53.2664L78.477 49.5032C78.2367 49.4565 78.0249 49.3163 77.8881 49.1134C77.7512 48.9105 77.7006 48.6616 77.7473 48.4214C77.794 48.1812 77.9342 47.9693 78.1371 47.8325C78.3399 47.6956 78.5889 47.645 78.8291 47.6917L98.1897 51.455C98.4299 51.5017 98.6418 51.6419 98.7786 51.8448C98.9154 52.0477 98.9661 52.2966 98.9194 52.5368C98.8727 52.777 98.7325 52.9889 98.5296 53.1257C98.3267 53.2626 98.0778 53.3132 97.8376 53.2665L97.8371 53.2664Z" fill="#9DB3C4"/>
<path d="M100.979 57.0493L77.8827 52.5598C77.6425 52.5131 77.4307 52.3729 77.2938 52.17C77.157 51.9672 77.1063 51.7182 77.153 51.478C77.1997 51.2378 77.3399 51.026 77.5428 50.8891C77.7457 50.7523 77.9946 50.7016 78.2349 50.7483L101.331 55.2378C101.571 55.2845 101.783 55.4247 101.92 55.6276C102.057 55.8305 102.108 56.0794 102.061 56.3196C102.014 56.5598 101.874 56.7717 101.671 56.9085C101.468 57.0454 101.219 57.096 100.979 57.0493Z" fill="#9DB3C4"/>
<path d="M74.9973 24.3609C76.7654 24.7046 78.4773 23.5499 78.8209 21.7818C79.1646 20.0138 78.0099 18.3019 76.2419 17.9582C74.4738 17.6145 72.7619 18.7692 72.4182 20.5373C72.0746 22.3053 73.2293 24.0172 74.9973 24.3609Z" fill="#00C3CD"/>
<path d="M75.065 22.3192C74.993 22.3053 74.9274 22.2684 74.8782 22.214L74.8751 22.2106L74.2346 21.4887C74.1761 21.4209 74.1467 21.3328 74.1527 21.2434C74.1587 21.154 74.1997 21.0706 74.2667 21.0112C74.3338 20.9519 74.4216 20.9213 74.511 20.9261C74.6004 20.931 74.6844 20.9709 74.7446 21.0372L75.1595 21.5056L76.6028 20.2271C76.6363 20.1975 76.6753 20.1747 76.7176 20.1601C76.7598 20.1456 76.8046 20.1395 76.8492 20.1422C76.8939 20.1449 76.9375 20.1564 76.9777 20.176C77.0179 20.1956 77.0539 20.2229 77.0835 20.2564L77.0746 20.2646L77.0839 20.2562C77.1437 20.3238 77.1742 20.4124 77.1687 20.5026C77.1632 20.5927 77.1222 20.677 77.0546 20.7369L75.3564 22.24C75.3172 22.2746 75.2705 22.2997 75.22 22.3134C75.1695 22.327 75.1165 22.3289 75.0651 22.3187L75.065 22.3192Z" fill="#FAFBFC"/>
<path d="M76.4872 35.5449C76.4056 35.9654 76.242 36.3657 76.0058 36.723C75.7695 37.0802 75.4651 37.3874 75.1101 37.627C74.7551 37.8666 74.3563 38.034 73.9366 38.1194C73.5169 38.2049 73.0845 38.2069 72.664 38.1252C72.6364 38.1204 72.6091 38.114 72.5822 38.1059C71.9559 37.9674 71.3844 37.6473 70.9391 37.1856C70.4938 36.7239 70.1946 36.1411 70.0789 35.5102C69.9632 34.8793 70.0361 34.2283 70.2885 33.6386C70.5409 33.0489 70.9616 32.5468 71.498 32.195C72.0344 31.8433 72.6626 31.6575 73.304 31.661C73.9454 31.6645 74.5716 31.857 75.1041 32.2146C75.6366 32.5721 76.0519 33.0788 76.2979 33.6712C76.5439 34.2635 76.6098 34.9153 76.4872 35.5449Z" fill="#00C3CD"/>
<path d="M69.6716 51.7603C71.4397 52.104 73.1516 50.9493 73.4953 49.1813C73.8389 47.4132 72.6842 45.7013 70.9162 45.3576C69.1481 45.014 67.4362 46.1686 67.0926 47.9367C66.7489 49.7047 67.9036 51.4166 69.6716 51.7603Z" fill="#00C3CD"/>
<path d="M118.493 19.3258L111.912 18.0466C111.431 17.9532 111.007 17.6728 110.734 17.267C110.46 16.8612 110.359 16.3634 110.452 15.8829L111.397 11.0223C111.401 11.0011 111.411 10.9814 111.426 10.9656C111.441 10.9498 111.46 10.9384 111.481 10.9329C111.502 10.9274 111.524 10.9278 111.544 10.9343C111.565 10.9407 111.584 10.9529 111.598 10.9693L118.602 19.137C118.618 19.1552 118.627 19.1778 118.629 19.2016C118.632 19.2255 118.626 19.2494 118.614 19.2701C118.602 19.2908 118.584 19.3072 118.562 19.3171C118.54 19.327 118.516 19.3299 118.493 19.3253L118.493 19.3258Z" fill="#9DB3C4"/>
<path d="M79.4839 67.9247C79.2812 68.257 78.9549 68.4951 78.5767 68.5867C78.1985 68.6784 77.7994 68.616 77.4672 68.4134L60.3473 57.971C60.0151 57.7683 59.7769 57.442 59.6853 57.0638C59.5937 56.6856 59.656 56.2864 59.8587 55.9542C60.0613 55.622 60.3877 55.3839 60.7659 55.2922C61.1441 55.2006 61.5432 55.263 61.8755 55.4656L78.9952 65.9081C79.3274 66.1107 79.5655 66.437 79.6571 66.8152C79.7487 67.1934 79.6865 67.5925 79.4839 67.9247Z" fill="#516F85"/>
<path d="M62.3639 57.4837C61.155 59.4657 59.3855 61.0448 57.2792 62.0212C55.1728 62.9976 52.8243 63.3274 50.5305 62.969C48.2367 62.6106 46.1006 61.5801 44.3925 60.0078C42.6844 58.4354 41.4808 56.3919 40.9341 54.1356C40.3874 51.8792 40.522 49.5114 41.321 47.3316C42.12 45.1518 43.5474 43.2578 45.4227 41.8892C47.2981 40.5207 49.5372 39.7389 51.8568 39.6429C54.1765 39.5468 56.4725 40.1408 58.4546 41.3496C59.7707 42.1523 60.9158 43.2063 61.8245 44.4516C62.7332 45.6968 63.3878 47.1088 63.7508 48.607C64.1138 50.1052 64.1782 51.6602 63.9402 53.1833C63.7023 54.7063 63.1666 56.1676 62.3639 57.4837ZM44.8267 46.7859C43.92 48.2724 43.4745 49.9945 43.5465 51.7342C43.6185 53.474 44.2048 55.1533 45.2313 56.5598C46.2577 57.9664 47.6782 59.037 49.3131 59.6362C50.948 60.2354 52.7238 60.3364 54.4161 59.9264C56.1084 59.5163 57.6411 58.6136 58.8203 57.3325C59.9996 56.0514 60.7725 54.4494 61.0412 52.729C61.31 51.0086 61.0626 49.2472 60.3303 47.6674C59.5979 46.0876 58.4136 44.7605 56.927 43.8538C54.9336 42.638 52.5389 42.2639 50.2696 42.8138C48.0003 43.3636 46.0425 44.7924 44.8267 46.7859Z" fill="#516F85"/>
<path d="M49.2386 59.8843C54.0081 61.5266 59.2059 58.9914 60.8482 54.2219C62.4905 49.4524 59.9553 44.2546 55.1858 42.6123C50.4163 40.97 45.2185 43.5051 43.5762 48.2747C41.9339 53.0442 44.469 58.242 49.2386 59.8843Z" fill="#00C3CD"/>
</g>
<defs>
<clipPath id="clip0_19774_62198">
<rect width="120" height="73.2642" fill="white"/>
</clipPath>
</defs>
</svg>
