<svg xmlns="http://www.w3.org/2000/svg" xml:space="preserve" viewBox="0 0 32 32"><path d="m24.015 14.601-1.414 1.414L27 20.414l4.399-4.399-1.414-1.414L28 16.586v-.355c0-7.168-5.832-13-13-13s-13 5.832-13 13c0 7.167 5.832 13 13 13 4.028 0 7.764-1.822 10.247-4.999L23.671 23A10.94 10.94 0 0 1 15 27.23c-6.065 0-11-4.935-11-11s4.935-11 11-11 11 4.935 11 11v.355z"/><path d="M9.057 19.308V20.5h5.503v-1.408h-3.103l1.018-1.175q.813-.814 1.178-1.297.367-.485.539-.927.174-.44.173-.907.001-1.105-.691-1.695-.69-.59-1.969-.59a3 3 0 0 0-1.44.347 2.59 2.59 0 0 0-1.37 2.302h1.83q0-.53.26-.886a.8.8 0 0 1 .677-.354q.424 0 .645.265t.222.775q0 .628-.937 1.695zM20.303 20.5v-1.673h.802v-1.408h-.802v-4.805h-1.826v.017l-3.157 5.08.108 1.116h3.049V20.5zm-3.245-3.082 1.305-2.243.113-.184v2.427z"/></svg>