<svg xmlns="http://www.w3.org/2000/svg" viewBox="0 0 24 24"><path d="m18.011 10.95-1.06 1.061 3.299 3.3 3.3-3.3-1.061-1.06L21 12.44v-.267c0-5.376-4.374-9.75-9.75-9.75S1.5 6.797 1.5 12.173s4.374 9.75 9.75 9.75a9.7 9.7 0 0 0 7.685-3.749l-1.182-.924a8.2 8.2 0 0 1-6.503 3.172c-4.549 0-8.25-3.7-8.25-8.25 0-4.548 3.701-8.25 8.25-8.25s8.25 3.702 8.25 8.25v.267z"/><path d="M6.793 14.481v.894h4.127v-1.056H8.593l.763-.881q.61-.611.884-.973a3 3 0 0 0 .404-.695q.13-.33.13-.68 0-.829-.518-1.272-.518-.442-1.477-.442-.597 0-1.08.26a1.94 1.94 0 0 0-1.028 1.727h1.373q0-.399.195-.665t.507-.266q.318 0 .484.2.167.198.167.58 0 .472-.703 1.272z"/><path fill-rule="evenodd" d="M15.227 14.12v1.255h-1.37V14.12h-2.286l-.081-.837 2.368-3.81V9.46h1.37v3.604h.6v1.056zm-1.455-2.739-.979 1.682h1.064v-1.82z" clip-rule="evenodd"/></svg>