<svg xmlns="http://www.w3.org/2000/svg" viewBox="0 0 24 24"><path d="M20.648 13.605c-.383.307-.788.615-1.215.915.607.563 1.035 1.065 1.282 1.485.285.488.24.705.21.758-.023.052-.158.232-.72.33a8 8 0 0 1-.502.052l-1.77-3.412a21 21 0 0 0 2.317-1.748c.78-.69 1.41-1.387 1.793-2.047.375-.638.614-1.426.277-2.153s-1.095-1.043-1.823-1.17c-.757-.128-1.695-.098-2.722.06a20 20 0 0 0-2.295.503V5.865a2.247 2.247 0 0 0-.75-4.365H9.232a2.247 2.247 0 0 0-.75 4.365V9a69 69 0 0 1-.735 1.432 29 29 0 0 0-2.002 1.245 16 16 0 0 1-1.02-.825c-.72-.637-1.223-1.207-1.493-1.68-.285-.487-.24-.705-.21-.757.023-.052.158-.232.72-.33.533-.09 1.29-.083 2.243.067.315.046.645.113.99.18v-1.53a17 17 0 0 0-.765-.134c-1.028-.158-1.965-.188-2.723-.06-.727.127-1.485.442-1.822 1.17-.338.727-.098 1.507.277 2.152.383.668 1.013 1.358 1.793 2.047.232.203.487.413.75.623-.255.203-.495.398-.72.6-.78.69-1.41 1.388-1.793 2.048-.375.637-.615 1.425-.277 2.152s1.095 1.043 1.822 1.17c-.045.09-.097.188-.142.277l-.075.158c-.69 1.575.397 3.375 2.122 3.488h13.11c1.778-.128 2.88-2.04 2.048-3.653l-.142-.277h.022c.727-.128 1.485-.443 1.822-1.17.338-.728.098-1.508-.277-2.153-.307-.533-.78-1.088-1.357-1.642zm-2.655-5.453c.952-.142 1.71-.157 2.242-.067.563.097.69.27.72.33.023.053.075.27-.21.758-.27.464-.773 1.042-1.492 1.68a19 19 0 0 1-2.026 1.53L15.473 9v-.27c.915-.27 1.763-.465 2.52-.578M9.974 4.5h-.75a.75.75 0 0 1-.75-.75c0-.413.337-.75.75-.75h5.498c.412 0 .75.337.75.75 0 .412-.338.75-.75.75h-.75v3.128c-1.155.39-2.37.87-3.608 1.447-.135.06-.263.128-.39.188zM3.772 17.093c-.562-.098-.69-.27-.72-.33-.022-.053-.075-.27.21-.758.27-.465.773-1.042 1.493-1.68q.45-.395.99-.802c.097.067.195.135.292.194-.577 1.11-1.192 2.288-1.777 3.42a5 5 0 0 1-.495-.044zM18.36 21H5.602c-.75 0-1.237-.795-.892-1.462.803-1.538 1.747-3.353 2.61-5.018q.699.416 1.455.81l.787-1.283q-.81-.426-1.552-.862.472-.912.855-1.658a34 34 0 0 1 5.108-2.31v.15l.164.323 3.803 7.335a18 18 0 0 1-2.363-.532l-.337.547-.48.78c1.065.322 2.07.555 2.963.69.36.052.704.09 1.042.112l.48.923a1 1 0 0 1-.885 1.462zm-6.39-8.002 2.002 3.247-2.002 3.247-2.003-3.247z"/></svg>