<svg xmlns="http://www.w3.org/2000/svg" viewBox="0 0 24 24"><path d="m1.53 5.659 4.125-4.124 1.06 1.06L2.591 6.72zm3.383 11.314a8.25 8.25 0 0 1 11.31-11.31l1.087-1.088A9.75 9.75 0 0 0 3.825 18.06z"/><path d="m11.25 10.635 1.5-1.5V7.5h-1.5zm8.1-8.092-1.005-1.005-1.065 1.057L18.285 3.6z"/><path fill-rule="evenodd" d="M21.405 6.72 20.4 5.715l-.855.855A9.75 9.75 0 0 1 5.82 20.295l-1.763 1.762L3 21 19.343 4.658 20.407 3.6 21 3l1.058 1.058-.593.6.997.997zm-2.417 10.41a8.26 8.26 0 0 0-.508-9.495l-5.55 5.55 3.203 1.92-.765 1.29-3.533-2.115-4.95 4.95a8.257 8.257 0 0 0 12.103-2.1" clip-rule="evenodd"/></svg>