<svg xmlns="http://www.w3.org/2000/svg" viewBox="0 0 24 24"><path fill-rule="evenodd" d="m1.53 5.659 4.125-4.124 1.06 1.06L2.591 6.72zm3.382 11.314a8.25 8.25 0 0 1 11.31-11.31l1.088-1.088A9.75 9.75 0 0 0 3.825 18.06zm6.338-6.338 1.5-1.5V7.5h-1.5zm8.1-8.093-1.005-1.005-1.065 1.058L18.285 3.6zm2.055 4.178L20.4 5.715l-.855.855A9.75 9.75 0 0 1 5.82 20.295l-1.763 1.762L3 21l1.74-1.74 1.065-1.065 5.445-5.445 1.5-1.5 4.695-4.695L18.51 5.49l.832-.833L20.409 3.6 21 3l1.058 1.057-.593.6.997.998zm-2.417 10.41a8.26 8.26 0 0 0-.508-9.495l-5.55 5.55 3.203 1.92-.765 1.29-3.533-2.115-4.95 4.95a8.257 8.257 0 0 0 12.103-2.1" clip-rule="evenodd"/></svg>