<svg xmlns="http://www.w3.org/2000/svg" viewBox="0 0 24 24"><path d="m22.148 15.21-2.408-3.008-3 2.408.938 1.17 1.042-.833a6.74 6.74 0 0 1-5.955 6v-10.41h2.198v.75h1.5v-3h-1.5v.75h-2.198v-1.65a3 3 0 0 0 2.25-2.895 3 3 0 1 0-6 0 3 3 0 0 0 2.25 2.895v1.65H8.963v-.75h-1.5v3h1.5v-.75h2.302v10.41a6.74 6.74 0 0 1-5.947-5.977l1.005.802.937-1.17-3-2.407-2.407 3.007 1.17.938.802-1.005c.443 4.125 3.945 7.357 8.19 7.357s7.725-3.21 8.183-7.32l.78.975zM10.515 4.5c0-.825.675-1.5 1.5-1.5s1.5.675 1.5 1.5-.675 1.5-1.5 1.5-1.5-.675-1.5-1.5"/></svg>