<svg xmlns="http://www.w3.org/2000/svg" viewBox="0 0 24 24"><path fill-rule="evenodd" d="M7.505 1.5h8.99a3.76 3.76 0 0 1 3.755 3.755v13.49a3.76 3.76 0 0 1-3.754 3.755H7.505a3.76 3.76 0 0 1-3.755-3.755V5.255A3.76 3.76 0 0 1 7.505 1.5m10.573 18.828c.42-.42.656-.99.657-1.583V5.255a2.243 2.243 0 0 0-2.24-2.24h-8.99a2.24 2.24 0 0 0-2.24 2.24v13.49a2.243 2.243 0 0 0 2.24 2.24h8.99a2.24 2.24 0 0 0 1.583-.657m-6.827-1.583a.78.78 0 0 1 .217-.532.749.749 0 0 1 1.221.816.68.68 0 0 1-.404.405.7.7 0 0 1-.57 0 .9.9 0 0 1-.247-.157 1.1 1.1 0 0 1-.165-.248.8.8 0 0 1-.052-.284" clip-rule="evenodd"/></svg>