<svg xmlns="http://www.w3.org/2000/svg" xml:space="preserve" viewBox="0 0 32 32"><path d="M26.278 21.759c-.624-.182-1.207-.646-1.732-1.379a4.23 4.23 0 0 1-.807-2.54c0-.847.245-1.601.751-2.306.293-.409.784-.901 1.461-1.46l.776-.642-.646-.771q-.83-.989-1.708-1.592c-1.06-.71-2.277-1.069-3.621-1.069-.816 0-1.73.173-2.794.528-1.149.384-1.601.425-1.741.425-.059 0-.418-.019-1.714-.384-.255-.072-.479-.143-.684-.207C13.2 10.168 12.666 10 12 10c-1.978 0-3.91.934-5.172 2.501C5.615 14.021 5 15.987 5 18.345c0 2.469.758 5.006 2.249 7.534C8.866 28.652 10.559 30 12.424 30c.622 0 1.364-.181 2.257-.547.662-.261 1.231-.394 1.69-.394.47 0 1.083.132 1.825.395.974.34 1.741.505 2.346.505 1.589 0 3.068-1.039 4.523-3.179.871-1.292 1.506-2.557 1.888-3.759l.311-.978zm-2.869 3.899c-.714 1.05-1.79 2.301-2.867 2.301-.256 0-.755-.068-1.683-.393-1.956-.689-3.1-.688-4.925.031-.81.334-1.268.403-1.51.403-1.341 0-2.614-1.701-3.449-3.133C7.664 22.646 7 20.451 7 18.345c0-1.893.468-3.439 1.389-4.592C9.259 12.671 10.643 12 12 12c.359 0 .684.102 1.22.271.221.069.462.145.738.223 1.444.408 1.966.46 2.259.46.541 0 1.295-.168 2.375-.528.845-.283 1.571-.426 2.16-.426.954 0 1.774.239 2.499.725q.312.213.629.51c-.425.402-.76.777-1.016 1.135a5.85 5.85 0 0 0-1.125 3.471 6.24 6.24 0 0 0 1.18 3.703q.81 1.13 1.816 1.714c-.325.77-.769 1.575-1.326 2.4M17.795 7.421q1.137-1.087 1.661-2.359.525-1.272.525-2.342 0-.167-.017-.335A2 2 0 0 0 19.876 2q-3.13.686-4.495 2.543-1.347 1.857-1.382 4.4 1.242-.1 1.854-.284.963-.318 1.942-1.238"/></svg>