<svg xmlns="http://www.w3.org/2000/svg" viewBox="0 0 24 24"><path fill-rule="evenodd" d="M9 1.5h6a3.754 3.754 0 0 1 3.75 3.75v13.5A3.754 3.754 0 0 1 15 22.5H9a3.755 3.755 0 0 1-3.75-3.75V5.25A3.755 3.755 0 0 1 9 1.5m7.591 18.841a2.25 2.25 0 0 0 .659-1.591V5.25A2.25 2.25 0 0 0 15 3H9a2.25 2.25 0 0 0-2.25 2.25v13.5A2.25 2.25 0 0 0 9 21h6a2.25 2.25 0 0 0 1.591-.659M11.25 18.75a.78.78 0 0 1 .217-.532.75.75 0 0 1 1.223.817.68.68 0 0 1-.405.405.7.7 0 0 1-.57 0 .9.9 0 0 1-.248-.158 1.1 1.1 0 0 1-.165-.247.8.8 0 0 1-.052-.285" clip-rule="evenodd"/></svg>