<svg xmlns="http://www.w3.org/2000/svg" xml:space="preserve" viewBox="0 0 32 32"><path d="M20 2h-8C9.243 2 7 4.243 7 7v18c0 2.757 2.243 5 5 5h8c2.757 0 5-2.243 5-5V7c0-2.757-2.243-5-5-5m3 23c0 1.654-1.346 3-3 3h-8c-1.654 0-3-1.346-3-3V7c0-1.654 1.346-3 3-3h8c1.654 0 3 1.346 3 3z"/><path d="M15.29 24.29a1.05 1.05 0 0 0-.221 1.09c.061.12.131.229.221.33q.15.135.33.21c.18.075.25.08.38.08s.26-.03.38-.08.229-.12.33-.21q.135-.15.21-.33c.075-.18.08-.25.08-.38 0-.26-.11-.521-.29-.71-.37-.37-1.05-.37-1.42 0"/></svg>