<svg xmlns="http://www.w3.org/2000/svg" width="24" height="24"><path fill-rule="evenodd" d="M14.596 3.797a5.2 5.2 0 0 1-1.246 1.769 4 4 0 0 1-1.46.928 7.3 7.3 0 0 1-1.39.213 5.6 5.6 0 0 1 1.036-3.3A5.43 5.43 0 0 1 14.907 1.5a1.5 1.5 0 0 1 .082.54 4.6 4.6 0 0 1-.393 1.757m3.814 11.488c.304.48.762.845 1.299 1.034l.739.213-.233.734a11.2 11.2 0 0 1-1.416 2.819c-1.091 1.605-2.2 2.384-3.392 2.384a5.6 5.6 0 0 1-1.76-.375 4.3 4.3 0 0 0-1.369-.3c-.437.02-.866.121-1.267.296a4.6 4.6 0 0 1-1.693.41c-1.399 0-2.668-1.011-3.881-3.09a11.1 11.1 0 0 1-1.687-5.651 6.84 6.84 0 0 1 1.371-4.384A5.03 5.03 0 0 1 9 7.5a4.3 4.3 0 0 1 1.364.272l.05.015q.209.067.463.14a6.3 6.3 0 0 0 1.286.288 4.8 4.8 0 0 0 1.306-.319 6.7 6.7 0 0 1 2.095-.396 4.8 4.8 0 0 1 2.716.802c.479.338.91.74 1.28 1.194l.485.578-.582.482a6.4 6.4 0 0 0-1.096 1.095c-.37.5-.567 1.107-.563 1.729a3.17 3.17 0 0 0 .606 1.905m-3.004 5.684c.808 0 1.615-.937 2.15-1.725q.586-.854.996-1.803a4.4 4.4 0 0 1-1.362-1.285 4.68 4.68 0 0 1-.885-2.775 4.4 4.4 0 0 1 .844-2.604q.34-.462.762-.85a4 4 0 0 0-.472-.383A3.26 3.26 0 0 0 15.564 9c-.553.021-1.1.129-1.62.32-.57.22-1.171.353-1.781.396a6.6 6.6 0 0 1-1.694-.345c-.191-.054-.36-.107-.515-.156l-.039-.012A3 3 0 0 0 9 9a3.56 3.56 0 0 0-2.708 1.315 5.38 5.38 0 0 0-1.042 3.444 9.65 9.65 0 0 0 1.481 4.889c.627 1.075 1.581 2.35 2.587 2.35a3.2 3.2 0 0 0 1.133-.3 4.5 4.5 0 0 1 3.693-.024c.403.165.829.264 1.262.295" clip-rule="evenodd"/></svg>