<svg xmlns="http://www.w3.org/2000/svg" viewBox="0 0 24 24"><g clip-path="url(#a)"><path d="M18.75 3.742H5.25A3.763 3.763 0 0 0 1.492 7.5v9a3.763 3.763 0 0 0 3.758 3.758h13.5a3.763 3.763 0 0 0 3.758-3.758v-9a3.763 3.763 0 0 0-3.758-3.758M20.992 16.5a2.245 2.245 0 0 1-2.242 2.242H5.25A2.244 2.244 0 0 1 3.008 16.5v-9A2.244 2.244 0 0 1 5.25 5.258h13.5A2.244 2.244 0 0 1 20.992 7.5z"/><path d="M19.283 11.468a.785.785 0 0 0-1.065 0 .9.9 0 0 0-.158.247A.6.6 0 0 0 18 12c0 .053.008.098.015.15q.012.068.046.135.022.067.067.135c.023.037.06.075.09.113a.78.78 0 0 0 .532.217c.195 0 .39-.082.532-.217l.09-.113a.6.6 0 0 0 .068-.135.5.5 0 0 0 .045-.135c.008-.053.015-.098.015-.15a.8.8 0 0 0-.06-.285.9.9 0 0 0-.158-.248"/></g><defs><clipPath id="a"><path d="M0 0h24v24H0z"/></clipPath></defs></svg>