<svg xmlns="http://www.w3.org/2000/svg" viewBox="0 0 24 24"><path fill-rule="evenodd" d="m17.198 1.708-.811 1.739 1.359.634.811-1.738zm1.208 8.816c.026.488-.132.967-.44 1.346q.227.121.413.301a1.986 1.986 0 0 1 0 2.807l-3.27 3.27a6.8 6.8 0 0 1-2.6 1.618l-1.86.634-1.184 1.188a1.37 1.37 0 0 1-1.934 0L2.985 17.14a1.365 1.365 0 0 1-.084-1.83l-.79-.79a1.37 1.37 0 0 1 0-1.935L3.23 11.47l.425-4.679A2.093 2.093 0 0 1 5.748 4.88 1.98 1.98 0 0 1 7.6 6.169l2.67-2.67a2.033 2.033 0 0 1 2.808 0q.18.185.305.41a2.03 2.03 0 0 1 2.657.12 1.94 1.94 0 0 1 .512 1.9c.247.094.47.239.658.425a1.97 1.97 0 0 1 .195 2.57q.233.124.423.307c.347.344.553.805.578 1.293m-3.285-5.09a.5.5 0 0 0-.141-.342.494.494 0 0 0-.685-.001l-.352.352c.287.16.524.398.686.685l.35-.35a.5.5 0 0 0 .142-.344m-3.448-1.01a.5.5 0 0 0-.343.137L7.913 7.978c.254.215.45.491.57.802l.15-.15.436-.436 1.121-1.122 1.335-1.335.491-.49a.486.486 0 0 0 0-.686.5.5 0 0 0-.343-.138M6.09 6.521a.5.5 0 0 0-.343-.143.6.6 0 0 0-.596.552L5.03 8.24a2.08 2.08 0 0 1 1.2-.7v-.675a.5.5 0 0 0-.141-.342M4.102 14.09l.137-1.51-.974.974.687.686zm9.947 3.099 3.27-3.27v-.002a.486.486 0 0 0 0-.685.496.496 0 0 0-.686 0l-2.138 2.136-1.06-1.06 2.136-2.137 1.195-1.195a.485.485 0 0 0 0-.685.496.496 0 0 0-.686 0l-3.33 3.33-1.062-1.06.873-.872L16.147 8.1a.485.485 0 0 0 0-.685.496.496 0 0 0-.685 0l-1.13 1.13-3.33 3.33-1.06-1.061.873-.873 2.457-2.457a.485.485 0 0 0-.685-.687L10.354 9.03l-.662.66-2.587 2.588V9.484A.485.485 0 0 0 6.621 9a.6.6 0 0 0-.6.547l-.475 5.22-1.408 1.408 4.359 4.365 1.34-1.34 2.19-.75a5.3 5.3 0 0 0 2.022-1.261m4.024-12.337 1.809-1.81 1.06 1.061-1.809 1.81zm1.83 1.386 1.739-.812.634 1.36-1.738.81z" clip-rule="evenodd"/></svg>