<svg xmlns="http://www.w3.org/2000/svg" xml:space="preserve" viewBox="0 0 32 32"><path d="M23.954 15.826a2.617 2.617 0 0 0-.183-3.518 2.5 2.5 0 0 0-.564-.409 2.63 2.63 0 0 0-.26-3.427 2.5 2.5 0 0 0-.878-.566 2.7 2.7 0 0 0 .093-.661c0-.708-.275-1.372-.775-1.872-.937-.939-2.525-.984-3.543-.161a2.6 2.6 0 0 0-.407-.546c-1-.999-2.745-1-3.743 0l-3.56 3.56a2.64 2.64 0 0 0-2.47-1.721 2.79 2.79 0 0 0-2.792 2.549l-.567 6.238-1.489 1.49a1.8 1.8 0 0 0-.536 1.289c0 .487.19.946.535 1.291l1.052 1.052a1.82 1.82 0 0 0 .112 2.441l6.062 6.062c.355.355.822.533 1.289.533s.934-.178 1.289-.533l1.583-1.583 2.48-.846a9.1 9.1 0 0 0 3.465-2.157l4.36-4.36c.5-.5.775-1.165.775-1.872s-.275-1.372-.774-1.871a2.5 2.5 0 0 0-.554-.402m-3.981-9.037a.645.645 0 0 1 0 .914l-.468.468a2.6 2.6 0 0 0-.394-.52 2.6 2.6 0 0 0-.52-.394l.469-.469a.66.66 0 0 1 .913.001m-4.866-.708a.663.663 0 0 1 .915 0 .65.65 0 0 1 .001.914l-.655.655-1.781 1.78-1.495 1.495-.582.582-.205.205a2.65 2.65 0 0 0-.759-1.07zM7.663 8.506c.356 0 .646.29.646.646l-.001.897a2.77 2.77 0 0 0-1.604.933l.159-1.743a.8.8 0 0 1 .8-.733m-2.011 8.268-.183 2.013-.202.201-.915-.915zm17.44 1.784-4.36 4.36a7.1 7.1 0 0 1-2.695 1.679l-2.922.996-1.786 1.786-5.812-5.812 1.878-1.878.633-6.959a.797.797 0 0 1 .8-.73c.356 0 .646.29.646.646v3.726l3.449-3.45.882-.881 2.978-2.977a.647.647 0 0 1 .913.916l-3.276 3.276-1.164 1.164 1.414 1.414 4.439-4.439.001-.001 1.507-1.507a.66.66 0 0 1 .914 0 .645.645 0 0 1 0 .914l-4.782 4.783-1.164 1.164L17 18.162l4.44-4.441a.66.66 0 0 1 .915 0 .645.645 0 0 1 0 .914l-1.593 1.593-2.849 2.849 1.414 1.414 2.85-2.849a.66.66 0 0 1 .914.002c.122.121.189.283.189.456s-.066.336-.188.458"/><path d="M24.304 4.969h3.411v2h-3.411z" transform="rotate(-44.992 26.011 5.97)"/><path d="M22.017 2.859h2.558v2h-2.558z" transform="rotate(-64.989 23.296 3.86)"/><path d="M26.841 7.682h2.558v2h-2.558z" transform="rotate(-25.001 28.12 8.683)"/></svg>