<svg xmlns="http://www.w3.org/2000/svg" viewBox="0 0 24 24"><path d="M18.75 3.742H5.25A3.763 3.763 0 0 0 1.492 7.5v9a3.763 3.763 0 0 0 3.758 3.758h13.5a3.763 3.763 0 0 0 3.758-3.758v-9a3.763 3.763 0 0 0-3.758-3.758M20.992 16.5a2.245 2.245 0 0 1-2.242 2.242H5.25A2.244 2.244 0 0 1 3.008 16.5v-9A2.244 2.244 0 0 1 5.25 5.258h13.5A2.244 2.244 0 0 1 20.992 7.5z"/><path d="M19.282 11.467a.785.785 0 0 0-1.064 0 .9.9 0 0 0-.158.248A.6.6 0 0 0 18 12c0 .052.008.097.015.15q.012.067.046.135.022.068.067.135c.023.037.06.075.09.112a.78.78 0 0 0 .532.218c.195 0 .39-.083.532-.218l.09-.112a.6.6 0 0 0 .068-.135.5.5 0 0 0 .045-.135c.008-.053.015-.098.015-.15a.8.8 0 0 0-.06-.285.9.9 0 0 0-.158-.248"/></svg>