<svg xmlns="http://www.w3.org/2000/svg" viewBox="0 0 24 24"><path d="M12 1.5c1.657 0 3 1.511 3 3.375v.375h.929C17.9 5.25 19.5 6.929 19.5 9v9.75c0 2.071-1.599 3.75-3.571 3.75H8.07c-1.97 0-3.57-1.679-3.57-3.75V9c0-2.071 1.599-3.75 3.571-3.75H9v-.375C9 3.011 10.343 1.5 12 1.5M5.929 17.25v1.5c0 1.243.959 2.25 2.142 2.25h7.858c1.183 0 2.142-1.007 2.142-2.25v-1.5zM8.07 6.75C6.888 6.75 5.93 7.757 5.93 9v6.75h12.14V9c0-1.243-.959-2.25-2.142-2.25zM9 9a.75.75 0 0 1 .75.75v3a.75.75 0 0 1-1.5 0v-3A.75.75 0 0 1 9 9m6 0a.75.75 0 0 1 .75.75v3a.75.75 0 0 1-1.5 0v-3A.75.75 0 0 1 15 9m-3-6c-.92 0-1.667.84-1.667 1.875v.375h3.334v-.375C13.667 3.839 12.921 3 12 3"/></svg>