<svg xmlns="http://www.w3.org/2000/svg" viewBox="0 0 24 24"><path fill-rule="evenodd" d="M13.667 14.494a3 3 0 1 1-3.333-4.987 3 3 0 0 1 3.333 4.987m-.834-3.741a1.5 1.5 0 1 0-1.667 2.495 1.5 1.5 0 0 0 1.667-2.495" clip-rule="evenodd"/><path d="M6 10.5a.75.75 0 0 1 .75-.75h.75v-1.5h-.75A2.25 2.25 0 0 0 4.5 10.5v.75H6zm1.5 5.25h-.75A2.25 2.25 0 0 1 4.5 13.5v-.75H6v.75a.75.75 0 0 0 .75.75h.75zm12-2.25v-.75H18v.75a.75.75 0 0 1-.75.75h-.75v1.5h.75a2.25 2.25 0 0 0 2.25-2.25M18 11.25v-.75a.75.75 0 0 0-.75-.75h-.75v-1.5h.75a2.25 2.25 0 0 1 2.25 2.25v.75z"/><path fill-rule="evenodd" d="M1.5 18.75V5.25h21v13.5zm1.5-12v10.5h18V6.75z" clip-rule="evenodd"/></svg>