<svg width="100%" height="100%" viewBox="0 0 24 24" version="1.1" xmlns="http://www.w3.org/2000/svg" xmlns:xlink="http://www.w3.org/1999/xlink" xml:space="preserve" style="fill-rule:evenodd;clip-rule:evenodd;stroke-linejoin:round;stroke-miterlimit:2;"><path d="M10.382,10.929L7.042,7.596L4.794,9.843L3.73,8.787L7.041,5.476L10.382,8.809L14.682,4.509L12,4.509L12,3.011L17.243,3.011L17.243,8.255L15.745,8.255L15.745,5.565L10.382,10.929ZM8.255,20.989L3.76,20.989L3.76,11.25L8.255,11.25L8.255,20.989ZM6.757,12.749L5.258,12.749L5.258,19.491L6.757,19.491L6.757,12.749ZM9.753,20.989L14.247,20.989L14.247,13.499L9.753,13.499L9.753,20.989ZM11.251,14.996L12.749,14.996L12.749,19.491L11.251,19.491L11.251,14.996ZM15.745,20.989L15.745,9.753L20.24,9.753L20.24,20.989L15.745,20.989ZM17.243,19.491L18.742,19.491L18.742,11.251L17.243,11.251L17.243,19.491Z"/></svg>