<svg xmlns="http://www.w3.org/2000/svg" viewBox="0 0 24 24"><path fill-rule="evenodd" d="M20.228 18.569a24.4 24.4 0 0 1-.728-5.911V11.25c0-3.883-2.965-7.084-6.75-7.462V1.5h-1.5v2.288c-3.784.377-6.75 3.58-6.75 7.462v1.408c0 1.99-.244 3.98-.727 5.91l-.234.932h4.787c.349 1.71 1.863 3 3.674 3a3.756 3.756 0 0 0 3.674-3h4.787zM12 21c-.976 0-1.801-.63-2.112-1.5h4.224c-.31.87-1.135 1.5-2.112 1.5m0-3H5.443A26 26 0 0 0 6 12.658V11.25c0-3.308 2.692-6 6-6s6 2.692 6 6v1.408c0 1.795.188 3.587.557 5.342zm10.456-9.386a9.65 9.65 0 0 0-3.395-5.41l-.94 1.172a8.16 8.16 0 0 1 2.873 4.576 8.16 8.16 0 0 1 .02 3.636l1.464.325a9.65 9.65 0 0 0-.022-4.3M4.988 3.204l.94 1.172A8.16 8.16 0 0 0 3.054 8.95a8.2 8.2 0 0 0-.02 3.636l-1.464.324a9.7 9.7 0 0 1 .022-4.297 9.65 9.65 0 0 1 3.395-5.41" clip-rule="evenodd"/></svg>