<svg xmlns="http://www.w3.org/2000/svg" viewBox="0 0 24 24"><path d="M6 11.25v1.41a25 25 0 0 1-.232 3.457L3.915 17.97c.385-1.744.582-3.524.585-5.31v-1.41a7.516 7.516 0 0 1 6.75-7.462V1.5h1.5v2.288a7.47 7.47 0 0 1 3.825 1.522l-1.072 1.073A5.996 5.996 0 0 0 6 11.25"/><path fill-rule="evenodd" d="M19.5 12.66a24.6 24.6 0 0 0 .727 5.91l.233.93h-4.785a3.75 3.75 0 0 1-7.35 0h-1.71l-2.182 2.183-1.058-1.058 17.25-17.25 1.058 1.058-3.143 3.142a7.5 7.5 0 0 1 .96 3.675zm-8.793 7.924c.377.269.83.414 1.293.416a2.25 2.25 0 0 0 2.112-1.5H9.888c.155.437.44.816.819 1.084M8.115 18h10.44A26 26 0 0 1 18 12.66v-1.41c0-.885-.198-1.758-.578-2.557z" clip-rule="evenodd"/></svg>