<svg xmlns="http://www.w3.org/2000/svg" viewBox="0 0 24 24"><path d="M18.735 9.525h-5.947V8.43a2.33 2.33 0 0 0 1.537-2.183c0-.922-.727-3.945-2.325-3.945s-2.325 3.03-2.325 3.945c0 1.035.682 1.905 1.62 2.205v1.073h-6.03a2.25 2.25 0 0 0-2.25 2.25v6.96a2.25 2.25 0 0 0 2.25 2.25h13.47a2.25 2.25 0 0 0 2.25-2.25v-6.96a2.25 2.25 0 0 0-2.25-2.25m-6.742-5.67c.345.36.825 1.702.825 2.392a.823.823 0 0 1-.825.825.823.823 0 0 1-.825-.825c0-.69.48-2.032.825-2.392m-6.728 7.17h13.47c.413 0 .75.338.75.75v1.815c-.57.277-1.312.225-1.815-.172l-.338-.27c-1.087-.863-2.745-.878-3.855-.046l-.48.36c-.577.436-1.47.428-2.032-.014l-.338-.263c-1.132-.885-2.842-.893-3.982 0l-.202.157c-.548.428-1.358.443-1.928.083v-1.65c0-.412.338-.75.75-.75m13.47 8.452H5.265a.75.75 0 0 1-.75-.75V15.03c.96.277 2.04.12 2.85-.51l.203-.157c.6-.465 1.537-.465 2.13 0l.337.262c.563.443 1.252.66 1.95.66a3.13 3.13 0 0 0 1.913-.63l.48-.36c.57-.435 1.462-.428 2.017.023l.338.27c.764.607 1.807.795 2.744.57v3.57c0 .412-.337.75-.75.75z"/></svg>