<svg xmlns="http://www.w3.org/2000/svg" viewBox="0 0 32 32"><path d="M24.98 12.7h-7.93v-1.46a3.1 3.1 0 0 0 2.05-2.91c0-1.23-.97-5.26-3.1-5.26s-3.1 4.04-3.1 5.26c0 1.38.91 2.54 2.16 2.94v1.43H7.02c-1.65 0-3 1.34-3 3v9.28c0 1.65 1.34 3 3 3h17.96c1.65 0 3-1.34 3-3V15.7c0-1.65-1.34-3-3-3m-8.99-7.56c.46.48 1.1 2.27 1.1 3.19 0 .61-.49 1.1-1.1 1.1s-1.1-.49-1.1-1.1c0-.92.64-2.71 1.1-3.19M7.02 14.7h17.96c.55 0 1 .45 1 1v2.42c-.76.37-1.75.3-2.42-.23l-.45-.36c-1.45-1.15-3.66-1.17-5.14-.06l-.64.48c-.77.58-1.96.57-2.71-.02l-.45-.35c-1.51-1.18-3.79-1.19-5.31 0l-.27.21c-.73.57-1.81.59-2.57.11v-2.2c0-.55.45-1 1-1m17.96 11.27H7.02c-.55 0-1-.45-1-1v-4.93c1.28.37 2.72.16 3.8-.68l.27-.21c.8-.62 2.05-.62 2.84 0l.45.35c.75.59 1.67.88 2.6.88s1.81-.28 2.55-.84l.64-.48c.76-.58 1.95-.57 2.69.03l.45.36c1.02.81 2.41 1.06 3.66.76v4.76c0 .55-.45 1-1 1Z"/></svg>