<svg xmlns="http://www.w3.org/2000/svg" xml:space="preserve" viewBox="0 0 32 32"><path d="M29 11c-.552 0-1-.449-1-1V8.829c0-.801-.312-1.555-.879-2.122a3.006 3.006 0 0 0-4.242 0l-2.012 2.012-2.133-2.133-2.017 2.017a10.05 10.05 0 0 0-10.775 2.244c-3.917 3.918-3.917 10.292 0 14.21a10.02 10.02 0 0 0 7.105 2.938c2.572 0 5.146-.979 7.104-2.938a10.05 10.05 0 0 0 2.245-10.776l2.017-2.017-2.133-2.132 2.012-2.011A1 1 0 0 1 26 8.829V10c0 1.654 1.346 3 3 3h1v-2zm-8.692 3.489a8.045 8.045 0 0 1-1.569 9.154c-3.138 3.137-8.242 3.137-11.382 0-3.137-3.138-3.137-8.244 0-11.382a8.05 8.05 0 0 1 9.154-1.568l.638.307 1.585-1.585 2.852 2.851-1.585 1.585z"/></svg>