<svg xmlns="http://www.w3.org/2000/svg" viewBox="0 0 24 24"><g clip-path="url(#a)"><path d="M21.75 8.25A.75.75 0 0 1 21 7.5v-.878c0-.601-.234-1.166-.66-1.592a2.254 2.254 0 0 0-3.18 0l-1.51 1.51-1.6-1.6-1.512 1.512a7.53 7.53 0 0 0-8.082 1.683c-2.937 2.939-2.937 7.72 0 10.658a7.52 7.52 0 0 0 5.33 2.203 7.5 7.5 0 0 0 5.327-2.203 7.54 7.54 0 0 0 1.684-8.082l1.513-1.513-1.6-1.599 1.509-1.508a.75.75 0 0 1 1.281.53V7.5c0 1.24 1.01 2.25 2.25 2.25h.75v-1.5zm-6.519 2.617a6.03 6.03 0 0 1-1.177 6.865 6.044 6.044 0 0 1-8.536 0 6.044 6.044 0 0 1 0-8.536 6.04 6.04 0 0 1 6.865-1.176l.479.23 1.188-1.189L16.19 9.2 15 10.388z"/></g><defs><clipPath id="a"><path d="M0 0h24v24H0z"/></clipPath></defs></svg>