<svg width="100%" height="100%" viewBox="0 0 24 24" version="1.1" xmlns="http://www.w3.org/2000/svg" xmlns:xlink="http://www.w3.org/1999/xlink" xml:space="preserve" style="fill-rule:evenodd;clip-rule:evenodd;stroke-linejoin:round;stroke-miterlimit:2;"><path d="M16.5,6L7.5,6L7.5,7.5L16.5,7.5L16.5,6ZM12,9L7.5,9L7.5,10.5L12,10.5L12,9Z" style="fill-rule:nonzero;"/><path d="M20.25,11.82L20.25,3.75C20.246,2.517 19.233,1.504 18,1.5L6,1.5C4.767,1.504 3.754,2.517 3.75,3.75L3.75,19.875C3.753,21.314 4.936,22.497 6.375,22.5L16.5,22.5C19.808,22.5 22.5,19.808 22.5,16.5C22.5,14.68 21.671,12.956 20.25,11.82M20.933,15.75L19.477,15.75C19.41,14.64 19.207,13.56 18.855,12.675C19.957,13.353 20.715,14.474 20.933,15.75M12.068,17.25L13.523,17.25C13.59,18.36 13.793,19.44 14.145,20.325C13.043,19.647 12.286,18.525 12.068,17.25M12.068,15.75C12.286,14.475 13.043,13.353 14.145,12.675C13.8,13.56 13.59,14.64 13.523,15.75L12.068,15.75ZM16.5,12C16.98,12 17.813,13.41 17.97,15.75L15.038,15.75C15.195,13.41 16.028,12 16.508,12L16.5,12ZM6,3L18,3C18.413,3 18.75,3.337 18.75,3.75L18.75,10.943C18.036,10.65 17.272,10.499 16.5,10.5C13.193,10.5 10.5,13.193 10.5,16.5C10.5,16.755 10.523,17.003 10.553,17.25L6.375,17.25C5.97,17.25 5.595,17.348 5.25,17.512L5.25,3.75C5.25,3.337 5.588,3 6,3M6.375,21C6.374,21 6.374,21 6.373,21C5.757,21 5.25,20.493 5.25,19.877C5.25,19.876 5.25,19.876 5.25,19.875C5.25,19.253 5.753,18.75 6.375,18.75L10.943,18.75C11.295,19.62 11.85,20.385 12.547,21L6.375,21ZM15.022,17.25L17.962,17.25C17.805,19.59 16.972,21 16.492,21C16.012,21 15.18,19.59 15.022,17.25ZM18.855,20.325C19.2,19.44 19.41,18.36 19.477,17.25L20.933,17.25C20.715,18.526 19.957,19.647 18.855,20.325" style="fill-rule:nonzero;"/></svg>