<svg xmlns="http://www.w3.org/2000/svg" viewBox="0 0 24 24"><g clip-path="url(#a)"><path fill-rule="evenodd" d="M20.25 3.75v8.07a5.99 5.99 0 0 1 2.25 4.68c0 3.308-2.692 6-6 6H6.375a2.63 2.63 0 0 1-2.625-2.625V3.75A2.257 2.257 0 0 1 6 1.5h12a2.257 2.257 0 0 1 2.25 2.25m-.773 12h1.456a4.5 4.5 0 0 0-2.078-3.075c.352.885.555 1.965.622 3.075m-5.954 1.5h-1.455a4.5 4.5 0 0 0 2.077 3.075c-.352-.885-.555-1.965-.622-3.075m.622-4.575a4.5 4.5 0 0 0-2.077 3.075h1.455c.067-1.11.277-2.19.622-3.075m3.825 3.075c-.157-2.334-.986-3.743-1.466-3.75-.48.007-1.31 1.416-1.467 3.75zM18 3H6a.75.75 0 0 0-.75.75v13.763a2.6 2.6 0 0 1 1.125-.263h4.178a6 6 0 0 1-.053-.75c0-3.307 2.693-6 6-6a5.9 5.9 0 0 1 2.25.443V3.75A.75.75 0 0 0 18 3M5.25 19.875c0 .622.503 1.125 1.125 1.125h6.172a6 6 0 0 1-1.604-2.25H6.375c-.622 0-1.125.503-1.125 1.125m12.712-2.625h-2.939c.157 2.34.99 3.75 1.47 3.75s1.312-1.41 1.47-3.75m1.515 0c-.067 1.11-.277 2.19-.622 3.075a4.5 4.5 0 0 0 2.078-3.075zM16.5 6h-9v1.5h9zM12 9H7.5v1.5H12z" clip-rule="evenodd"/></g><defs><clipPath id="a"><path d="M0 0h24v24H0z"/></clipPath></defs></svg>