<svg xmlns="http://www.w3.org/2000/svg" viewBox="0 0 24 24"><path d="M16.5 21h3v1.5H5.625A2.63 2.63 0 0 1 3 19.875V3.75A2.257 2.257 0 0 1 5.25 1.5h12a2.257 2.257 0 0 1 2.25 2.25v5.145H18V3.75a.75.75 0 0 0-.75-.75h-12a.75.75 0 0 0-.75.75v13.763a2.6 2.6 0 0 1 1.125-.263H7.5v1.5H5.625a1.124 1.124 0 1 0 0 2.25H15v-1.5h1.5zm-.75-13.5V6h-9v1.5zm6.727 8.888a3 3 0 0 1-3 3 2.99 2.99 0 0 1-2.887-2.236h-1.725a2.99 2.99 0 0 1-2.888 2.235 3 3 0 0 1-3-3c0-.382.083-.75.21-1.094l.023-.06q-.002-.01.007-.03l1.455-3.473.015-.037a2.25 2.25 0 0 1 2.04-1.306c.976 0 1.8.63 2.115 1.5h1.77a2.243 2.243 0 0 1 4.156-.194l1.47 3.51c0 .007.007.014.007.03l.022.06c.136.345.21.705.21 1.095m-4.507-3.75v1.17c.443-.263.953-.42 1.508-.42.134 0 .255.022.382.037l-.457-1.088a.76.76 0 0 0-.683-.45.75.75 0 0 0-.75.75m-2.992 3.015h1.492v-2.258h-1.492zm-2.933-3.315-.457 1.087c.127-.015.255-.038.382-.038.555 0 1.065.158 1.507.42v-1.17a.75.75 0 0 0-.75-.75c-.3 0-.562.173-.682.45m1.425 4.05c0-.826-.675-1.5-1.5-1.5-.615 0-1.14.374-1.373.9l-.014.03a1.504 1.504 0 0 0 1.388 2.07c.824 0 1.499-.676 1.499-1.5m7.507 0c0-.203-.037-.39-.112-.57l-.015-.03a1.49 1.49 0 0 0-1.373-.9c-.825 0-1.5.675-1.5 1.5 0 .824.675 1.5 1.5 1.5s1.5-.676 1.5-1.5"/></svg>