<svg xmlns="http://www.w3.org/2000/svg" viewBox="0 0 24 24"><g clip-path="url(#a)"><path d="M9.742 16.418 6.21 12.893l1.065-1.065 2.467 2.467 6.218-6.217 1.057 1.057z"/><path d="M18.75 21H5.25A2.25 2.25 0 0 1 3 18.75V5.25A2.25 2.25 0 0 1 5.25 3h13.508a2.25 2.25 0 0 1 2.25 2.25v13.508a2.25 2.25 0 0 1-2.25 2.25zM5.25 4.5a.75.75 0 0 0-.75.75v13.508c0 .412.338.75.75.75h13.508c.412 0 .75-.338.75-.75V5.25a.75.75 0 0 0-.75-.75z"/></g><defs><clipPath id="a"><path d="M0 0h24v24H0z"/></clipPath></defs></svg>