<svg xmlns="http://www.w3.org/2000/svg" viewBox="0 0 24 24"><path d="M22.493 6.757h-6.825c.39-.3.727-.607.937-.855 1.058-1.267 1.065-3.007.03-3.87-1.043-.862-2.745-.532-3.803.735a8.7 8.7 0 0 0-.975 1.59c-.337-.705-.734-1.305-.974-1.59C9.825 1.5 8.123 1.17 7.08 2.032c-.525.435-.81 1.125-.772 1.883.03.697.315 1.402.802 1.987.21.248.54.555.938.855H1.515v4.485H3.03V22.5h18.008V11.242H22.5V6.757zm-1.5 2.985H14.22V8.257h6.772zm-7.005-6.015c.562-.675 1.342-.832 1.687-.54.345.285.337 1.08-.225 1.755-.645.78-2.212 1.635-2.685 1.635h-.023c-.082-.472.533-1.995 1.238-2.85zm-5.94-.54a.7.7 0 0 1 .442-.142c.375 0 .863.217 1.245.682.697.84 1.298 2.333 1.245 2.828-.533-.023-2.07-.84-2.707-1.613-.278-.33-.443-.727-.458-1.095 0-.172.015-.48.233-.667zM3.015 9.742V8.257H9.75v1.485zM4.53 21v-9.758h5.22V21zm6.72 0V8.257h1.47V21zm8.28 0h-5.31v-9.758h5.31z"/></svg>