<svg xmlns="http://www.w3.org/2000/svg" viewBox="0 0 24 24"><path d="m8.954 7.95-2.341 2.34 1.06 1.061 2.341-2.34zm-2.341 6.84 2.34-2.34 1.061 1.06-2.34 2.34z"/><path fill-rule="evenodd" d="M22.5 7.5a3 3 0 0 0-3-3h-15A2.99 2.99 0 0 0 3 10.083v7.167a2.25 2.25 0 0 0 2.25 2.25h13.5A2.25 2.25 0 0 0 21 17.25v-7.167A2.99 2.99 0 0 0 22.5 7.5M5.25 18a.75.75 0 0 1-.75-.75V9a1.5 1.5 0 0 1 0-3H12a1.5 1.5 0 0 1 0 3v8.25a.75.75 0 0 1-.75.75zM19.5 9h-3v1.5h3v6.75a.75.75 0 0 1-.75.75h-5.388c.089-.24.136-.494.138-.75v-7.166A2.953 2.953 0 0 0 14.583 6H19.5a1.5 1.5 0 0 1 0 3" clip-rule="evenodd"/></svg>