<svg xmlns="http://www.w3.org/2000/svg" xml:space="preserve" viewBox="0 0 32 32"><path d="M30 10c0-2.206-1.794-4-4-4H6a3.98 3.98 0 0 0-2.827 1.173A3.97 3.97 0 0 0 2 10c0 1.474.81 2.75 2 3.444V23c0 1.654 1.346 3 3 3h18c1.654 0 3-1.346 3-3v-9.556c1.19-.694 2-1.97 2-3.444M7 24a1 1 0 0 1-1-1V12c-1.103 0-2-.897-2-2 0-.533.208-1.035.587-1.413S5.468 8 6 8h10c1.103 0 2 .897 2 2 0 .533-.208 1.035-.587 1.413S16.532 12 16 12v11a1 1 0 0 1-1 1zm19-12h-4v2h4v9a1 1 0 0 1-1 1h-7.184c.112-.314.184-.648.184-1v-9.555c.296-.172.579-.37.827-.618A3.97 3.97 0 0 0 20 10c0-.732-.212-1.409-.556-2H26c1.103 0 2 .897 2 2s-.897 2-2 2"/><path d="m8.817 13.72 3.121-3.12 1.414 1.414-3.12 3.12zm0 6 3.121-3.12 1.414 1.413-3.12 3.122z"/></svg>