<svg xmlns="http://www.w3.org/2000/svg" viewBox="0 0 24 24"><g clip-path="url(#a)"><path d="M17.25 12.773h-3v-9A2.257 2.257 0 0 0 12 1.522a2.257 2.257 0 0 0-2.25 2.25v9h-3a2.257 2.257 0 0 0-2.25 2.25v7.5h15v-7.5a2.257 2.257 0 0 0-2.25-2.25m-6-9c0-.413.338-.75.75-.75s.75.337.75.75v9h-1.5zm-4.5 10.5h10.5c.413 0 .75.337.75.75v.727H6v-.727c0-.413.338-.75.75-.75m9 6.75v-2.25h-1.5v2.25h-1.5v-2.25h-1.5v2.25h-1.5v-2.25h-1.5v2.25H6V17.25h12v3.773z"/></g><defs><clipPath id="a"><path d="M0 0h24v24H0z"/></clipPath></defs></svg>