<svg xmlns="http://www.w3.org/2000/svg" viewBox="0 0 24 24"><path d="M20.071 11.795V4.5c0-.597-.225-1.169-.627-1.591a2.1 2.1 0 0 0-1.515-.659H3.643a2.1 2.1 0 0 0-1.515.659A2.3 2.3 0 0 0 1.5 4.5v12c0 .597.226 1.169.628 1.591a2.1 2.1 0 0 0 1.515.659h7.201a5.9 5.9 0 0 0 1.581 1.85c.645.493 1.38.84 2.16 1.016s1.586.18 2.367.01 1.519-.511 2.167-1a5.9 5.9 0 0 0 1.594-1.836 6.2 6.2 0 0 0 .749-2.357 6.3 6.3 0 0 0-.227-2.474 6.1 6.1 0 0 0-1.164-2.165M2.93 4.5a.77.77 0 0 1 .209-.53.7.7 0 0 1 .505-.22H17.93c.189 0 .37.079.505.22a.77.77 0 0 1 .209.53v.75H2.929zm7.33 12.75H3.643a.7.7 0 0 1-.505-.22.77.77 0 0 1-.21-.53V6.75h15.715v3.812a5.5 5.5 0 0 0-3.219-.807 5.54 5.54 0 0 0-3.102 1.208 6 6 0 0 0-1.94 2.815 6.27 6.27 0 0 0-.123 3.472m1.305-.75h1.387c.046 1.05.245 2.088.59 3.075a4.4 4.4 0 0 1-1.304-1.314 4.65 4.65 0 0 1-.673-1.761m1.388-1.5h-1.388a4.6 4.6 0 0 1 .673-1.761c.34-.53.786-.979 1.304-1.314A10.8 10.8 0 0 0 12.952 15m2.834 5.25c-.457 0-1.251-1.412-1.398-3.75h2.795c-.147 2.339-.94 3.75-1.397 3.75M14.388 15c.147-2.338.941-3.75 1.398-3.75s1.25 1.412 1.397 3.75zm3.643 4.575c.345-.987.544-2.024.59-3.075h1.386a4.6 4.6 0 0 1-.673 1.761 4.4 4.4 0 0 1-1.304 1.314M18.62 15a10.7 10.7 0 0 0-.59-3.075c.519.336.963.784 1.304 1.314.34.53.57 1.13.672 1.761z"/></svg>