<svg xmlns="http://www.w3.org/2000/svg" viewBox="0 0 24 24"><path d="m6.514 13.5 2.791 3.07-1.11 1.01-3.71-4.08 3.71-4.08 1.11 1.01zm9.291 4.08 3.71-4.08-3.71-4.08-1.11 1.01 2.791 3.07-2.791 3.07zm-5.501-.652 1.943-7.245 1.449.389-1.943 7.245z"/><path fill-rule="evenodd" d="M3.75 3h16.5a2.25 2.25 0 0 1 2.25 2.25v13.5A2.25 2.25 0 0 1 20.25 21H3.75a2.25 2.25 0 0 1-2.25-2.25V5.25A2.25 2.25 0 0 1 3.75 3m-.53 1.72a.75.75 0 0 0-.22.53V6h18v-.75a.75.75 0 0 0-.75-.75H3.75a.75.75 0 0 0-.53.22m17.56 14.56a.75.75 0 0 0 .22-.53V7.5H3v11.25a.75.75 0 0 0 .75.75h16.5a.75.75 0 0 0 .53-.22" clip-rule="evenodd"/></svg>