<svg xmlns="http://www.w3.org/2000/svg" viewBox="0 0 24 24"><path d="M20.25 3H3.75A2.257 2.257 0 0 0 1.5 5.25v13.5A2.257 2.257 0 0 0 3.75 21h16.5a2.257 2.257 0 0 0 2.25-2.25V5.25A2.257 2.257 0 0 0 20.25 3M3 5.25c0-.412.337-.75.75-.75h16.5c.413 0 .75.338.75.75V6H3zm18 13.5c0 .413-.337.75-.75.75H3.75a.75.75 0 0 1-.75-.75V7.5h18zm-13.53-3.6h1.688l.3 1.035h1.327l-1.89-5.535H7.733l-1.875 5.535h1.32zm.848-2.955.555 1.92H7.77zm4.507 2.108h.81c.308 0 .585-.046.832-.128q.372-.124.63-.36c.173-.157.3-.345.398-.562q.135-.325.135-.728c0-.27-.045-.525-.135-.75a1.6 1.6 0 0 0-.397-.593 1.8 1.8 0 0 0-.63-.39 2.4 2.4 0 0 0-.833-.142h-2.04v5.535h1.23zm0-2.626h.81a.74.74 0 0 1 .33.068c.09.045.172.113.225.188q.09.112.135.27.045.155.045.322a1 1 0 0 1-.045.293.6.6 0 0 1-.135.232.6.6 0 0 1-.225.157.9.9 0 0 1-.33.053h-.81v-1.598zm4.973 4.508h-1.23V10.65h1.23z"/></svg>