<svg xmlns="http://www.w3.org/2000/svg" viewBox="0 0 24 24"><path d="M20.25 3H3.75A2.257 2.257 0 0 0 1.5 5.25v13.5A2.257 2.257 0 0 0 3.75 21h16.5a2.257 2.257 0 0 0 2.25-2.25V5.25A2.257 2.257 0 0 0 20.25 3M3 5.25c0-.412.337-.75.75-.75h16.5c.413 0 .75.338.75.75V6H3zm18 13.5c0 .413-.337.75-.75.75H3.75a.75.75 0 0 1-.75-.75V7.5h18zM5.348 14.948l-.848-3.99h.96l.458 2.505.547-2.505h.817l.556 2.505.457-2.505h.953l-.848 3.99h-.998l-.532-2.273-.525 2.272zm10.26 0-.848-3.99h.96l.457 2.505.548-2.505h.817l.555 2.505.458-2.505h.953l-.848 3.99h-.997l-.533-2.273-.525 2.272zm-5.13 0-.848-3.99h.96l.457 2.505.548-2.505h.817l.555 2.505.458-2.505h.952l-.847 3.99h-.997L12 12.675l-.525 2.272z"/></svg>