<svg xmlns="http://www.w3.org/2000/svg" width="24" height="24"><g clip-path="url(#a)"><path d="M22.5 10.125c0-1.172-.645-2.282-1.823-3.206.2-.255.323-.571.323-.919V4.5c0-.827-.673-1.5-1.5-1.5h-15C3.673 3 3 3.673 3 4.5V6c0 .348.124.664.323.919C2.145 7.843 1.5 8.953 1.5 10.125c0 1.678 1.314 3.159 3.424 4.18l.255 4.557A2.25 2.25 0 0 0 7.427 21h9.147c1.2 0 2.188-.939 2.246-2.134l.257-4.56c2.11-1.022 3.424-2.502 3.424-4.181M6.044 7.5h11.913l-.327 5.815c-1.49.568-3.406.935-5.63.935s-4.14-.367-5.63-.935zM4.5 4.5h15V6h-15zM3 10.125c0-.787.551-1.577 1.561-2.263l.265 4.705C3.66 11.844 3 10.973 3 10.125m14.322 8.663a.75.75 0 0 1-.748.712H7.426a.75.75 0 0 1-.75-.717l-.216-3.862c1.6.524 3.489.829 5.539.829s3.939-.305 5.54-.829zm1.852-6.221.265-4.705C20.449 8.548 21 9.338 21 10.125c0 .848-.66 1.719-1.826 2.442"/></g><defs><clipPath id="a"><path d="M0 0h24v24H0z"/></clipPath></defs></svg>