<svg xmlns="http://www.w3.org/2000/svg" xml:space="preserve" viewBox="0 0 32 32"><path d="M30 13.5c0-1.563-.86-3.043-2.431-4.275.266-.34.431-.761.431-1.225V6c0-1.103-.897-2-2-2H6c-1.103 0-2 .897-2 2v2c0 .464.165.885.431 1.225C2.86 10.457 2 11.937 2 13.5c0 2.238 1.752 4.212 4.565 5.574l.341 6.075A2.997 2.997 0 0 0 9.902 28h12.195a2.994 2.994 0 0 0 2.995-2.845l.342-6.081C28.247 17.712 30 15.738 30 13.5M8.058 10h15.885l-.436 7.753C21.519 18.51 18.965 19 16 19s-5.519-.49-7.507-1.247zM6 6h20l.001 2H6zm-2 7.5c0-1.049.735-2.103 2.082-3.018l.353 6.274C4.879 15.792 4 14.63 4 13.5m19.096 11.55a1 1 0 0 1-.998.95H9.902a1 1 0 0 1-.999-.956l-.289-5.149C10.747 20.593 13.266 21 16 21s5.252-.407 7.386-1.105zm2.469-8.294.353-6.274C27.265 11.397 28 12.451 28 13.5c0 1.13-.88 2.292-2.435 3.256"/></svg>