<svg xmlns="http://www.w3.org/2000/svg" viewBox="0 0 24 24"><path d="M8.625 17.25a1.125 1.125 0 1 0 0-2.25 1.125 1.125 0 0 0 0 2.25m6.75 0a1.125 1.125 0 1 0 0-2.25 1.125 1.125 0 0 0 0 2.25"/><path fill-rule="evenodd" d="M19.5 6h.75c1.24 0 2.25 1.01 2.25 2.25v2.25H21V8.25a.75.75 0 0 0-.75-.75h-.75v12.75c0 1.24-1.01 2.25-2.25 2.25h-.75c-1.24 0-2.25-1.01-2.25-2.25h-4.5c0 1.24-1.01 2.25-2.25 2.25h-.75c-1.24 0-2.25-1.01-2.25-2.25V13.5h-.05V12h.05V7.5h-.75a.75.75 0 0 0-.75.75v2.25H1.5V8.25C1.5 7.01 2.51 6 3.75 6h.75v-.75C4.5 4.01 5.51 3 6.75 3h10.5c1.24 0 2.25 1.01 2.25 2.25zM6.75 4.5a.75.75 0 0 0-.75.75V6h12v-.75a.75.75 0 0 0-.75-.75zM17.25 21a.75.75 0 0 0 .75-.75V13.5H6v6.75c0 .414.336.75.75.75h.75a.75.75 0 0 0 .75-.75v-1.5h7.5v1.5c0 .414.336.75.75.75zM6 12h12V7.5H6z" clip-rule="evenodd"/></svg>