<svg xmlns="http://www.w3.org/2000/svg" viewBox="0 0 24 24"><path fill-rule="evenodd" d="M6.771 2.277h10.487a2.254 2.254 0 0 1 2.248 2.247v14.982a2.254 2.254 0 0 1-2.248 2.247H6.771a2.254 2.254 0 0 1-2.247-2.247V4.524a2.254 2.254 0 0 1 2.247-2.247m10.487 17.978a.75.75 0 0 0 .75-.75V4.526a.75.75 0 0 0-.75-.75H6.771a.75.75 0 0 0-.749.75v14.98c0 .413.337.75.75.75zM16.51 9.768H7.521V5.273h8.988zM15.011 6.77H9.02v1.5h5.992zM9.02 11.267h-1.5v1.498h1.498zm2.247 0h1.498v1.498h-1.498zM9.02 14.263h-1.5v1.498h1.498zm2.247 0h1.498v1.498h-1.498zm5.243-2.996h-1.498v1.498h1.498zm-1.498 2.996h1.498v4.494h-1.498zM9.02 17.258h-1.5v1.499h1.498zm2.247 0h1.498v1.499h-1.498z" clip-rule="evenodd"/></svg>