<svg xmlns="http://www.w3.org/2000/svg" viewBox="0 0 24 24"><path fill-rule="evenodd" d="M6.772 2.277h10.486a2.254 2.254 0 0 1 2.248 2.247v14.982a2.254 2.254 0 0 1-2.248 2.247H6.772a2.254 2.254 0 0 1-2.248-2.247V4.524a2.254 2.254 0 0 1 2.248-2.247m10.486 17.978c.412 0 .75-.337.75-.75V4.526a.75.75 0 0 0-.75-.75H6.772a.75.75 0 0 0-.75.75v14.98c0 .413.338.75.75.75zM16.51 9.768H7.521V5.273h8.988zm-1.498-2.996H9.02V8.27h5.992zM9.02 11.266h-1.5v1.498h1.498zm2.247 0h1.498v1.498h-1.498zM9.02 14.262h-1.5v1.498h1.498zm2.247 0h1.498v1.498h-1.498zm5.243-2.996h-1.498v1.498h1.498zm-1.498 2.996h1.498v4.495h-1.498zM9.02 17.258h-1.5v1.499h1.498zm2.247 0h1.498v1.499h-1.498z" clip-rule="evenodd"/></svg>