<svg width="100%" height="100%" viewBox="0 0 24 24" version="1.1" xmlns="http://www.w3.org/2000/svg" xmlns:xlink="http://www.w3.org/1999/xlink" xml:space="preserve" style="fill-rule:evenodd;clip-rule:evenodd;stroke-linejoin:round;stroke-miterlimit:2;"><path d="M6.772,2.277L17.258,2.277C18.49,2.28 19.502,3.292 19.506,4.524L19.506,19.506C19.502,20.738 18.49,21.75 17.258,21.753L6.772,21.753C5.54,21.75 4.528,20.738 4.524,19.506L4.524,4.524C4.528,3.292 5.54,2.28 6.772,2.277M17.258,20.255C17.67,20.255 18.008,19.918 18.008,19.505L18.008,4.526C18.008,4.115 17.669,3.776 17.258,3.776L6.772,3.776C6.361,3.776 6.022,4.115 6.022,4.526L6.022,19.506C6.022,19.919 6.36,20.256 6.772,20.256L17.258,20.255ZM16.51,9.768L7.521,9.768L7.521,5.273L16.509,5.273L16.51,9.768ZM15.012,6.772L9.02,6.772L9.02,8.27L15.012,8.27L15.012,6.772ZM9.02,11.266L7.52,11.266L7.52,12.764L9.018,12.764L9.02,11.266ZM11.267,11.266L12.765,11.266L12.765,12.764L11.267,12.764L11.267,11.266ZM9.02,14.262L7.52,14.262L7.52,15.76L9.018,15.76L9.02,14.262ZM11.267,14.262L12.765,14.262L12.765,15.76L11.267,15.76L11.267,14.262ZM16.51,11.266L15.012,11.266L15.012,12.764L16.51,12.764L16.51,11.266ZM15.012,14.262L16.51,14.262L16.51,18.757L15.012,18.757L15.012,14.262ZM9.02,17.258L7.52,17.258L7.52,18.757L9.018,18.757L9.02,17.258ZM11.267,17.258L12.765,17.258L12.765,18.757L11.267,18.757L11.267,17.258Z"/></svg>