<svg xmlns="http://www.w3.org/2000/svg" viewBox="0 0 24 24"><path fill-rule="evenodd" d="M16.51 9.768H7.52V5.273h8.99zm-1.5-2.998H9.02v1.5h5.992z" clip-rule="evenodd"/><path d="M9.019 11.266H7.52v1.498h1.498zm2.247 0h1.498v1.498h-1.498zm-2.247 2.996H7.52v1.498h1.498zm2.247 0h1.498v1.498h-1.498zm5.244-2.996h-1.5v1.498h1.498zm-1.499 2.996h1.498v4.494h-1.498zm-5.992 2.996H7.52v1.499h1.498zm2.247 0h1.498v1.499h-1.498z"/><path fill-rule="evenodd" d="M6.771 2.277h10.487a2.254 2.254 0 0 1 2.248 2.247v14.982a2.254 2.254 0 0 1-2.248 2.247H6.771a2.254 2.254 0 0 1-2.247-2.247V4.524a2.254 2.254 0 0 1 2.247-2.247m10.487 17.978a.75.75 0 0 0 .75-.75V4.526a.75.75 0 0 0-.75-.75H6.771a.75.75 0 0 0-.749.75v14.98c0 .413.337.75.75.75z" clip-rule="evenodd"/></svg>