<svg xmlns="http://www.w3.org/2000/svg" viewBox="0 0 24 24"><path fill-rule="evenodd" d="M3.75 8.25v10.5a.75.75 0 0 0 .75.75h6V21h-6a2.25 2.25 0 0 1-2.25-2.25V3h3V1.5h1.5V3h9V1.5h1.5V3h3v8.243h-1.5V8.25zm15-3.75h-15v2.25h15z" clip-rule="evenodd"/><path d="M8.25 11.25h-1.5v1.5h1.5zM6.75 15h1.5v1.5h-1.5zM12 11.25h-1.5v1.5H12zM15.75 15h1.5v1.94l1.28 1.28-1.06 1.06-1.72-1.72z"/><path fill-rule="evenodd" d="M16.5 12a5.25 5.25 0 1 0 5.25 5.25A5.257 5.257 0 0 0 16.5 12m0 9a3.75 3.75 0 1 1 0-7.5 3.75 3.75 0 0 1 0 7.5" clip-rule="evenodd"/></svg>