<svg xmlns="http://www.w3.org/2000/svg" width="24" height="24"><path fill-rule="evenodd" d="M3 18.75V8.25h15v2.25h1.5V3h-3V1.5H15V3H6V1.5H4.5V3h-3v15.75A2.25 2.25 0 0 0 3.75 21h7.5v-1.5h-7.5a.75.75 0 0 1-.75-.75M3 4.5h15v2.25H3zm3 6.75h1.5v1.5H6zM7.5 15H6v1.5h1.5zm2.25-3.75h1.5v1.5h-1.5zm10.784 5.25H22.5V18h-1.966c-.084.369-.231.72-.434 1.04l1.393 1.392-1.06 1.06L19.04 20.1c-.32.203-.671.35-1.04.434V22.5h-1.5v-1.966a3.3 3.3 0 0 1-1.04-.434l-1.392 1.393-1.06-1.06L14.4 19.04a3.3 3.3 0 0 1-.434-1.04H12v-1.5h1.966c.084-.369.231-.72.434-1.04l-1.393-1.392 1.06-1.06L15.46 14.4c.32-.203.671-.35 1.04-.434V12H18v1.966c.369.084.72.231 1.04.434l1.392-1.393 1.06 1.06L20.1 15.46c.203.32.35.671.434 1.04m-4.326 2.309a1.875 1.875 0 1 0 2.084-3.118 1.875 1.875 0 0 0-2.084 3.118" clip-rule="evenodd"/></svg>