<svg xmlns="http://www.w3.org/2000/svg" xml:space="preserve" viewBox="0 0 32 32"><path d="M30 24h-4v-4h-2v4h-4v2h4v4h2v-4h4zM15 10a6 6 0 1 0 0 12 6 6 0 0 0 0-12m0 10c-2.206 0-4-1.794-4-4s1.794-4 4-4 4 1.794 4 4-1.794 4-4 4M6 10h2v2H6z"/><path d="M4 21V11c0-1.654 1.346-3 3-3h16c1.654 0 3 1.346 3 3v6h2v-6c0-2.757-2.243-5-5-5h-3V5c0-1.654-1.346-3-3-3h-4c-1.654 0-3 1.346-3 3v1H7c-2.757 0-5 2.243-5 5v10c0 2.757 2.243 5 5 5h10v-2H7c-1.654 0-3-1.346-3-3m8-16c0-.551.448-1 1-1h4c.552 0 1 .449 1 1v1h-6z"/></svg>