<svg xmlns="http://www.w3.org/2000/svg" width="24" height="24"><path fill-rule="evenodd" d="M3 8.25v7.5A2.25 2.25 0 0 0 5.25 18h7.5v1.5h-7.5a3.755 3.755 0 0 1-3.75-3.75v-7.5A3.755 3.755 0 0 1 5.25 4.5H7.5v-.75A2.25 2.25 0 0 1 9.75 1.5h3A2.25 2.25 0 0 1 15 3.75v.75h2.25A3.754 3.754 0 0 1 21 8.25v4.5h-1.5v-4.5A2.25 2.25 0 0 0 17.25 6h-12A2.25 2.25 0 0 0 3 8.25m6.22-5.03a.75.75 0 0 0-.22.53v.75h4.5v-.75a.75.75 0 0 0-.75-.75h-3a.75.75 0 0 0-.53.22m-.47 5.038a4.5 4.5 0 1 1 5 7.484 4.5 4.5 0 0 1-5-7.484m.833 6.236a3 3 0 1 0 3.333-4.988 3 3 0 0 0-3.333 4.988M4.5 7.5H6V9H4.5zm15 7.5v3h3v1.5h-3v3H18v-3h-3V18h3v-3z" clip-rule="evenodd"/></svg>