<svg xmlns="http://www.w3.org/2000/svg" viewBox="0 0 24 24"><path fill-rule="evenodd" d="M3 17.25c.001.446.134.882.383 1.253v.007L2.31 19.575a3.7 3.7 0 0 1-.81-2.325V9a3.75 3.75 0 0 1 3.75-3.75H7.5V4.5a2.257 2.257 0 0 1 2.25-2.25h4.5A2.257 2.257 0 0 1 16.5 4.5v.885L15.135 6.75H5.25A2.257 2.257 0 0 0 3 9zM9.22 3.97A.75.75 0 0 0 9 4.5v.75h6V4.5a.75.75 0 0 0-.75-.75h-4.5a.75.75 0 0 0-.53.22m11.233 1.693 1.23-1.23-1.058-1.058-18 18 1.058 1.058 1.44-1.44A1 1 0 0 0 5.25 21h13.5a3.75 3.75 0 0 0 3.75-3.75V9a3.74 3.74 0 0 0-2.047-3.338m-5.625 5.624a3.37 3.37 0 0 1-4.665 4.666zM21 17.25a2.257 2.257 0 0 1-2.25 2.25H6.615l2.468-2.468a4.875 4.875 0 0 0 6.825-6.824l3.39-3.39A2.26 2.26 0 0 1 21 9z" clip-rule="evenodd"/><path d="M6.75 8.25H4.5v1.5h2.25zm5.378 1.508A1 1 0 0 0 12 9.75a3.38 3.38 0 0 0-3.375 3.375 1 1 0 0 0 .008.127L7.335 14.55a5 5 0 0 1-.21-1.425A4.875 4.875 0 0 1 12 8.25c.483 0 .963.071 1.425.21z"/></svg>