<svg xmlns="http://www.w3.org/2000/svg" xml:space="preserve" viewBox="0 0 32 32"><path d="M15 10a6 6 0 1 0 0 12 6 6 0 0 0 0-12m0 10c-2.206 0-4-1.794-4-4s1.794-4 4-4 4 1.794 4 4-1.794 4-4 4M6 10h2v2H6z"/><path d="M4 21V11c0-1.654 1.346-3 3-3h16c1.654 0 3 1.346 3 3v7h2v-7c0-2.757-2.243-5-5-5h-3V5c0-1.654-1.346-3-3-3h-4c-1.654 0-3 1.346-3 3v1H7c-2.757 0-5 2.243-5 5v10c0 2.757 2.243 5 5 5h11v-2H7c-1.654 0-3-1.346-3-3m8-16c0-.551.448-1 1-1h4c.552 0 1 .449 1 1v1h-6z"/><path d="m29.707 21.707-1.414-1.414L25 23.586l-3.293-3.293-1.414 1.414L23.586 25l-3.293 3.293 1.414 1.414L25 26.414l3.293 3.293 1.414-1.414L26.414 25z"/></svg>