<svg xmlns="http://www.w3.org/2000/svg" viewBox="0 0 24 24"><path fill-rule="evenodd" d="M16.5 5.25h2.25A3.754 3.754 0 0 1 22.5 9v8.25A3.754 3.754 0 0 1 18.75 21H5.25a3.755 3.755 0 0 1-3.75-3.75V9a3.755 3.755 0 0 1 3.75-3.75H7.5V4.5a2.255 2.255 0 0 1 2.25-2.25h4.5A2.255 2.255 0 0 1 16.5 4.5zM9.22 3.97A.75.75 0 0 0 9 4.5v.75h6V4.5a.75.75 0 0 0-.75-.75h-4.5a.75.75 0 0 0-.53.22m11.12 14.87a2.25 2.25 0 0 0 .66-1.59V9a2.25 2.25 0 0 0-2.25-2.25H5.25A2.25 2.25 0 0 0 3 9v8.25a2.25 2.25 0 0 0 2.25 2.25h13.5a2.25 2.25 0 0 0 1.591-.659M4.5 8.25h2.25v1.5H4.5zm7.5 0A4.875 4.875 0 1 0 12 18a4.875 4.875 0 0 0 0-9.75m0 8.25a3.374 3.374 0 1 1 0-6.749 3.374 3.374 0 0 1 0 6.749" clip-rule="evenodd"/></svg>