<svg xmlns="http://www.w3.org/2000/svg" xml:space="preserve" viewBox="0 0 32 32"><path d="M16 11a6.5 6.5 0 1 0 0 13 6.5 6.5 0 0 0 0-13m0 11c-2.481 0-4.5-2.019-4.5-4.5S13.519 13 16 13s4.5 2.019 4.5 4.5S18.481 22 16 22M6 11h3v2H6z"/><path d="M25 7h-3v-.997A3.006 3.006 0 0 0 18.997 3h-5.994A3.006 3.006 0 0 0 10 6.003V7H7c-2.757 0-5 2.243-5 5v11c0 2.757 2.243 5 5 5h18c2.757 0 5-2.243 5-5V12c0-2.757-2.243-5-5-5m-13-.997C12 5.45 12.45 5 13.003 5h5.994C19.55 5 20 5.45 20 6.003V7h-8zM28 23c0 1.654-1.346 3-3 3H7c-1.654 0-3-1.346-3-3V12c0-1.654 1.346-3 3-3h18c1.654 0 3 1.346 3 3z"/></svg>