<svg xmlns="http://www.w3.org/2000/svg" width="24" height="24"><path fill-rule="evenodd" d="M3 15.75v-7.5A2.25 2.25 0 0 1 5.25 6h12a2.25 2.25 0 0 1 2.25 2.25v5.25H21V8.25a3.755 3.755 0 0 0-3.75-3.75H15v-.75a2.25 2.25 0 0 0-2.25-2.25h-3A2.25 2.25 0 0 0 7.5 3.75v.75H5.25A3.755 3.755 0 0 0 1.5 8.25v7.5a3.754 3.754 0 0 0 3.75 3.75h8.25V18H5.25A2.25 2.25 0 0 1 3 15.75m6-12A.75.75 0 0 1 9.75 3h3a.75.75 0 0 1 .75.75v.75H9zm-.25 4.508a4.5 4.5 0 1 1 5 7.484 4.5 4.5 0 0 1-5-7.484m.833 6.236a3 3 0 1 0 3.333-4.988 3 3 0 0 0-3.333 4.988m11.637.726 1.06 1.06-2.47 2.47 2.47 2.47-1.06 1.06-2.47-2.47-2.47 2.47-1.06-1.06 2.47-2.47-2.47-2.47 1.06-1.06 2.47 2.47zM6 7.5H4.5V9H6z" clip-rule="evenodd"/></svg>