<svg xmlns="http://www.w3.org/2000/svg" xml:space="preserve" viewBox="0 0 32 32"><path d="M16 13c.06 0 .11 0 .17.01l1.73-1.73c-.6-.18-1.24-.28-1.9-.28a6.5 6.5 0 0 0-6.5 6.5c0 .66.1 1.3.28 1.9l1.73-1.73c-.01-.06-.01-.11-.01-.17 0-2.48 2.02-4.5 4.5-4.5M6 11h3v2H6zm21.27-3.45 1.64-1.64L27.5 4.5 25 7l-2 2-3.22 3.22-1.44 1.44-6.18 6.18-1.44 1.44-4.59 4.59-1.52 1.52L3.5 28.5l1.41 1.41 1.92-1.92c.06.01.11.01.17.01h18c2.76 0 5-2.24 5-5V12c0-1.94-1.11-3.63-2.73-4.45m-7.5 7.5c.46.7.73 1.55.73 2.45 0 2.48-2.02 4.5-4.5 4.5-.9 0-1.75-.27-2.45-.73zM28 23c0 1.65-1.35 3-3 3H8.82l3.29-3.29C13.19 23.52 14.54 24 16 24a6.5 6.5 0 0 0 6.5-6.5c0-1.46-.48-2.81-1.29-3.89l4.52-4.52C27.03 9.42 28 10.6 28 12z"/><path d="M4.51 24.67C4.19 24.19 4 23.61 4 23V12c0-1.65 1.35-3 3-3h13.18L22 7.18V6c0-1.65-1.35-3-3-3h-6c-1.65 0-3 1.35-3 3v1H7c-2.76 0-5 2.24-5 5v11c0 1.17.4 2.25 1.08 3.1l1.43-1.42zM12 6c0-.55.45-1 1-1h6c.55 0 1 .45 1 1v1h-8z"/></svg>