<svg xmlns="http://www.w3.org/2000/svg" viewBox="0 0 24 24"><path d="M6.945 10.05 6 9.795v6.623l.42.21C8.265 17.543 10.133 18 12 18s3.735-.457 5.587-1.372l.42-.203V9.78l-.96.277c-3.225.938-6.622.938-10.094 0zm9.555 5.43c-3.03 1.372-5.985 1.372-9 0v-3.742c3.075.697 6.09.697 9 .014z"/><path d="M12 3c-3.345 0-9 .63-9 3v11.378C3 19.733 7.635 21 12 21s9-1.267 9-3.622V6c0-2.37-5.655-3-9-3m0 1.5c4.448 0 7.185.96 7.493 1.5-.3.54-3.045 1.5-7.493 1.5-4.447 0-7.267-.99-7.5-1.463v-.014C4.732 5.49 7.485 4.5 12 4.5m0 15c-4.582 0-7.5-1.395-7.5-2.122V7.785C6.412 8.707 9.735 9 12 9s5.587-.293 7.5-1.215v9.593c0 .727-2.918 2.122-7.5 2.122"/></svg>