<svg xmlns="http://www.w3.org/2000/svg" viewBox="0 0 24 24"><path fill-rule="evenodd" d="M5.25 18a.75.75 0 0 1-.75.75h-.75A.75.75 0 0 1 3 18v-5.25c0-1.24 1.01-2.25 2.25-2.25h15.906l-1.077-5.649c-.154-1.483-1.262-2.601-2.58-2.601H6.5c-1.317 0-2.425 1.118-2.57 2.538L3.129 9H1.5v1.5h.77a3.7 3.7 0 0 0-.77 2.25V18c0 1.24 1.01 2.25 2.25 2.25h.75c1.24 0 2.25-1.01 2.25-2.25h3v-1.5h-4.5zm.163-12.994C5.486 4.3 5.964 3.75 6.5 3.75h11c.537 0 1.015.551 1.096 1.319L19.344 9H4.655z" clip-rule="evenodd"/><path d="M8.25 12.75h-3v1.5h3z"/><path fill-rule="evenodd" d="m18.785 18.474 2.759 2.76-1.06 1.06-2.76-2.76a4.1 4.1 0 0 1-2.335.73 4.13 4.13 0 0 1-4.125-4.125 4.13 4.13 0 0 1 4.125-4.125 4.13 4.13 0 0 1 4.125 4.125c0 .866-.27 1.67-.73 2.335m-3.396-4.96a2.63 2.63 0 0 0-2.625 2.625 2.63 2.63 0 0 0 2.625 2.625 2.63 2.63 0 0 0 2.625-2.625 2.63 2.63 0 0 0-2.625-2.625" clip-rule="evenodd"/></svg>