<svg xmlns="http://www.w3.org/2000/svg" xml:space="preserve" style="fill-rule:evenodd;clip-rule:evenodd;stroke-linejoin:round;stroke-miterlimit:2" viewBox="0 0 24 24"><path d="M5.728 17.728c0 .411-.339.75-.75.75h-.75a.754.754 0 0 1-.75-.75v-5.25c0-1.24 1.01-2.25 2.25-2.25h15.906l-1.077-5.649c-.154-1.483-1.262-2.601-2.58-2.601H6.978c-1.317 0-2.425 1.118-2.57 2.538l-.801 4.212H1.978v1.5h.77a3.7 3.7 0 0 0-.77 2.25v5.25c0 1.24 1.01 2.25 2.25 2.25h.75c1.24 0 2.25-1.01 2.25-2.25h3v-1.5h-4.5zm.164-12.994c.072-.705.55-1.256 1.086-1.256h11c.537 0 1.015.551 1.096 1.319l.748 3.931H5.133zm2.836 7.744h-3v1.5h3zm10.535 5.724 2.759 2.76-1.06 1.06-2.76-2.76a4.1 4.1 0 0 1-2.335.73c-2.262-.002-4.123-1.863-4.126-4.125.003-2.262 1.863-4.122 4.125-4.125 2.262.003 4.122 1.863 4.125 4.125 0 .866-.27 1.67-.729 2.335m-3.396-4.96a2.643 2.643 0 0 0-2.626 2.625 2.643 2.643 0 0 0 2.625 2.625 2.643 2.643 0 0 0 2.625-2.625 2.643 2.643 0 0 0-2.625-2.625"/></svg>