<svg xmlns="http://www.w3.org/2000/svg" xml:space="preserve" style="fill-rule:evenodd;clip-rule:evenodd;stroke-linejoin:round;stroke-miterlimit:2" viewBox="0 0 24 24"><path d="M4.5 18.375c.411 0 .75-.339.75-.75v-1.5h5.25v1.5H6.75c0 1.24-1.01 2.25-2.25 2.25h-.75c-1.24 0-2.25-1.01-2.25-2.25v-5.25c0-.848.293-1.621.77-2.25H1.5v-1.5h1.629l.801-4.212c.145-1.42 1.253-2.538 2.57-2.538h11c1.317 0 2.425 1.118 2.579 2.601l1.077 5.649H5.25c-1.24 0-2.25 1.01-2.25 2.25v5.25c0 .414.336.75.75.75zm2-15c-.537 0-1.014.551-1.086 1.255l-.759 3.995h14.689l-.748-3.931c-.081-.768-.56-1.319-1.096-1.319zm-1.25 9h3v1.5h-3zm12-.75c-2.879.004-5.246 2.371-5.25 5.25.004 2.879 2.371 5.246 5.25 5.25 2.879-.004 5.246-2.371 5.25-5.25-.004-2.879-2.371-5.246-5.25-5.25m0 9a3.77 3.77 0 0 1-3.75-3.75 3.77 3.77 0 0 1 3.75-3.75 3.77 3.77 0 0 1 3.75 3.75 3.77 3.77 0 0 1-3.75 3.75m-1.42-4.605.897.885 1.853-1.854 1.061 1.06-2.907 2.909-1.958-1.932z"/></svg>