<svg xmlns="http://www.w3.org/2000/svg" width="24" height="24"><path d="M20.487 17.567a2.23 2.23 0 0 0-1.863-1.06l-1.188-6.345A2.24 2.24 0 0 0 15.21 8.25h-.96V6.707c.415-.09.793-.324 1.069-.68.39-.502.525-1.178.363-1.807l-.32-1.25c-.221-.866-.964-1.47-1.805-1.47h-3.114c-.84 0-1.583.604-1.805 1.47l-.32 1.25a2.11 2.11 0 0 0 .363 1.808c.276.355.654.589 1.069.679V8.25h-.96c-1.12 0-2.057.804-2.222 1.887l-1.192 6.37a2.23 2.23 0 0 0-1.863 1.06 2.24 2.24 0 0 0-.098 2.19L4.787 22.5h14.427l1.371-2.744a2.24 2.24 0 0 0-.098-2.189M9.77 4.593l.32-1.25c.052-.202.197-.343.353-.343h3.114c.156 0 .3.141.352.343l.32 1.25a.6.6 0 0 1-.096.515c-.05.065-.135.142-.255.142h-3.756c-.12 0-.205-.077-.255-.141a.6.6 0 0 1-.097-.516m1.48 2.157h1.5v1.5h-1.5zm-3.203 3.638a.75.75 0 0 1 .743-.638h6.42c.375 0 .688.268.748.663l1.144 6.111a2.24 2.24 0 0 0-1.687 1.22l-.128.256H8.714l-.129-.256a2.24 2.24 0 0 0-1.686-1.22zm11.197 8.697L18.287 21H5.714l-.957-1.915a.74.74 0 0 1 .033-.73.74.74 0 0 1 .637-.355h1.145c.287 0 .544.159.672.415l.543 1.085h8.427l.543-1.085a.75.75 0 0 1 .67-.415h1.145a.74.74 0 0 1 .639.356.73.73 0 0 1 .033.73"/></svg>