<svg width="100%" height="100%" viewBox="0 0 24 24" version="1.1" xmlns="http://www.w3.org/2000/svg" xmlns:xlink="http://www.w3.org/1999/xlink" xml:space="preserve" style="fill-rule:evenodd;clip-rule:evenodd;stroke-linejoin:round;stroke-miterlimit:2;"><g transform="matrix(1,0,0,1,0.438,-0.272)"><path d="M5.29,18C5.29,18.411 4.951,18.75 4.54,18.75L3.79,18.75C3.379,18.75 3.04,18.411 3.04,18L3.04,12.75C3.04,11.51 4.05,10.5 5.29,10.5L21.196,10.5L20.119,4.851C19.965,3.368 18.857,2.25 17.539,2.25L6.54,2.25C5.223,2.25 4.115,3.368 3.97,4.788L3.169,9L1.54,9L1.54,10.5L2.31,10.5C1.813,11.145 1.542,11.936 1.54,12.75L1.54,18C1.54,19.24 2.55,20.25 3.79,20.25L4.54,20.25C5.78,20.25 6.79,19.24 6.79,18L9.79,18L9.79,16.5L5.29,16.5L5.29,18ZM5.454,5.006C5.526,4.301 6.004,3.75 6.54,3.75L17.54,3.75C18.077,3.75 18.555,4.301 18.636,5.069L19.384,9L4.695,9L5.454,5.006ZM8.29,12.75L5.29,12.75L5.29,14.25L8.29,14.25L8.29,12.75ZM18.825,18.474L21.584,21.234L20.524,22.294L17.764,19.534C17.078,20.009 16.263,20.264 15.429,20.264C13.167,20.262 11.306,18.401 11.303,16.139C11.306,13.877 13.166,12.017 15.428,12.014C17.69,12.017 19.55,13.877 19.553,16.139C19.553,17.005 19.283,17.809 18.824,18.474M15.428,13.514C13.989,13.516 12.805,14.7 12.802,16.139C12.805,17.578 13.988,18.761 15.427,18.764C16.866,18.761 18.049,17.578 18.052,16.139C18.049,14.7 16.866,13.517 15.427,13.514"/></g></svg>