<svg xmlns="http://www.w3.org/2000/svg" viewBox="0 0 24 24"><path d="M22.5 8.25h-1.665l-1.074-4.296a2.25 2.25 0 0 0-2.183-1.704H6.422a2.25 2.25 0 0 0-2.183 1.704L3.165 8.25H1.5v1.5h.77A3.7 3.7 0 0 0 1.5 12v4.5A2.25 2.25 0 0 0 3 18.612v1.638a1.494 1.494 0 0 0 1.484 1.5h1.532a1.494 1.494 0 0 0 1.484-1.5v-1.5h9v1.5a1.494 1.494 0 0 0 1.484 1.5h1.532A1.494 1.494 0 0 0 21 20.25v-1.638a2.25 2.25 0 0 0 1.5-2.112V12a3.7 3.7 0 0 0-.77-2.25h.77zm-1.5 6h-1.5v-.417a.75.75 0 0 1 .75-.75H21zm-.75-2.667a2.25 2.25 0 0 0-2.25 2.25v.417h-1.5v-.75a2.25 2.25 0 0 0-2.25-2.25h-4.5A2.25 2.25 0 0 0 7.5 13.5v.75H6v-.75a2.25 2.25 0 0 0-2.25-2.25h-.612a2.25 2.25 0 0 1 2.112-1.5h13.5a2.25 2.25 0 0 1 2.208 1.833zM15 14.25H9v-.75a.75.75 0 0 1 .75-.75h4.5a.75.75 0 0 1 .75.75zm-11.25-1.5a.75.75 0 0 1 .75.75v.75H3v-1.5zm1.943-8.431a.75.75 0 0 1 .729-.569h11.157a.75.75 0 0 1 .729.569l.982 3.931H4.71zm.323 15.931H4.5v-1.5h1.505zm11.984 0v-1.5h1.505l.01 1.5zm2.25-3H3.75A.75.75 0 0 1 3 16.5v-.75h18v.75a.75.75 0 0 1-.75.75"/></svg>