<svg width="100%" height="100%" viewBox="0 0 24 24" version="1.1" xmlns="http://www.w3.org/2000/svg" xmlns:xlink="http://www.w3.org/1999/xlink" xml:space="preserve" style="fill-rule:evenodd;clip-rule:evenodd;stroke-linejoin:round;stroke-miterlimit:2;"><g transform="matrix(1,0,0,1,-0.04,-0.375)"><path d="M4.54,18.75C4.951,18.75 5.29,18.411 5.29,18L5.29,16.5L10.54,16.5L10.54,18L6.79,18C6.79,19.24 5.78,20.25 4.54,20.25L3.79,20.25C2.55,20.25 1.54,19.24 1.54,18L1.54,12.75C1.54,11.902 1.833,11.129 2.31,10.5L1.54,10.5L1.54,9L3.169,9L3.97,4.788C4.115,3.368 5.223,2.25 6.54,2.25L17.54,2.25C18.857,2.25 19.965,3.368 20.119,4.851L21.196,10.5L5.29,10.5C4.05,10.5 3.04,11.51 3.04,12.75L3.04,18C3.04,18.414 3.376,18.75 3.79,18.75L4.54,18.75ZM6.54,3.75C6.003,3.75 5.526,4.301 5.454,5.005L4.695,9L19.384,9L18.636,5.069C18.555,4.301 18.076,3.75 17.54,3.75L6.54,3.75ZM5.29,12.75L8.29,12.75L8.29,14.25L5.29,14.25L5.29,12.75ZM17.29,12C14.411,12.004 12.044,14.371 12.04,17.25C12.044,20.129 14.411,22.496 17.29,22.5C20.169,22.496 22.536,20.129 22.54,17.25C22.536,14.371 20.169,12.004 17.29,12M17.29,21C15.234,20.998 13.542,19.306 13.54,17.25C13.542,15.194 15.234,13.502 17.29,13.5C19.346,13.502 21.038,15.194 21.04,17.25C21.038,19.306 19.346,20.998 17.29,21M15.87,16.395L16.767,17.28L18.62,15.426L19.681,16.486L16.774,19.395L14.816,17.463L15.87,16.395Z"/></g></svg>