<svg xmlns="http://www.w3.org/2000/svg" viewBox="0 0 24 24"><g clip-path="url(#a)"><path d="M21 13.463h1.5v5.287A2.257 2.257 0 0 1 20.25 21h-.75a2.257 2.257 0 0 1-2.25-2.25H6.75A2.257 2.257 0 0 1 4.5 21h-.75a2.257 2.257 0 0 1-2.25-2.25V13.5c0-.848.293-1.62.765-2.25H1.5v-1.5h1.628l.802-4.215C4.072 4.117 5.183 3 6.503 3h11.002c1.148 0 2.145.84 2.483 2.085l-1.448.39c-.157-.57-.578-.975-1.035-.975H6.503c-.54 0-1.013.555-1.088 1.253L4.657 9.75H9.75v1.5h-4.5A2.25 2.25 0 0 0 3 13.5v5.25c0 .413.337.75.75.75h.75c.412 0 .75-.337.75-.75v-1.5h13.5v1.5c0 .413.337.75.75.75h.75c.413 0 .75-.337.75-.75zM8.25 15v-1.5h-3V15zM22.5 9.75v1.5h-3V12a2.25 2.25 0 0 1-2.25 2.25h-4.5v-1.5h-1.5v-1.5h1.5v-1.5h-1.5v-1.5h1.5v-1.5h4.5A2.25 2.25 0 0 1 19.5 9v.75zM18 9a.75.75 0 0 0-.75-.75h-3v4.5h3c.413 0 .75-.338.75-.75V8.992z"/></g><defs><clipPath id="a"><path d="M0 0h24v24H0z"/></clipPath></defs></svg>