<svg xmlns="http://www.w3.org/2000/svg" viewBox="0 0 24 24"><path fill-rule="evenodd" d="M17.909 20.341A2.25 2.25 0 0 0 19.5 21h.75a2.25 2.25 0 0 0 2.25-2.25V13.5a3.7 3.7 0 0 0-.77-2.25h.77v-1.5h-1.63l-.79-4.149A2.74 2.74 0 0 0 17.5 3h-11a2.713 2.713 0 0 0-2.57 2.538l-.8 4.212H1.5v1.5h.77a3.7 3.7 0 0 0-.77 2.25v5.25A2.25 2.25 0 0 0 3.75 21h.75a2.25 2.25 0 0 0 2.25-2.25h10.5c0 .597.237 1.169.659 1.591m.841-1.591v-1.5H5.25v1.5a.75.75 0 0 1-.75.75h-.75a.75.75 0 0 1-.75-.75V13.5a2.25 2.25 0 0 1 2.25-2.25h13.5A2.25 2.25 0 0 1 21 13.5v5.25a.75.75 0 0 1-.75.75h-.75a.75.75 0 0 1-.75-.75m-14.095-9 .759-3.994a1.275 1.275 0 0 1 1.084-1.257h11c.537 0 1.014.552 1.096 1.319l.75 3.932zm.595 3.75V15h3v-1.5zm13.5 0h-3V15h3z" clip-rule="evenodd"/></svg>