<svg xmlns="http://www.w3.org/2000/svg" width="24" height="24"><g clip-path="url(#a)"><path fill-rule="evenodd" d="M9.015 3H20.25c1.24 0 2.25 1.01 2.25 2.25v13.5c0 1.24-1.01 2.25-2.25 2.25H3.75c-1.24 0-2.25-1.01-2.25-2.25v-6.994l5.694-7.832A2.28 2.28 0 0 1 9.015 3M4.5 19.5h15.75a.75.75 0 0 0 .75-.75v-6H3v6c0 .414.336.75.75.75zm4.201-8.25H21v-3H10.882zm-1.854 0 3.27-4.5H21v-1.5a.75.75 0 0 0-.75-.75H9.015a.77.77 0 0 0-.614.313L3.723 11.25zm9.653 3h3v1.5h-3z" clip-rule="evenodd"/></g><defs><clipPath id="a"><path d="M0 0h24v24H0z"/></clipPath></defs></svg>