<svg xmlns="http://www.w3.org/2000/svg" xml:space="preserve" viewBox="0 0 32 32"><path d="M30 11h-2.22l-1.432-5.728A2.995 2.995 0 0 0 23.438 3H8.562a2.996 2.996 0 0 0-2.91 2.272L4.22 11H2v2h1.026A4.95 4.95 0 0 0 2 16v6c0 1.302.839 2.402 2 2.816V27c0 1.103.888 2 1.979 2h2.043C9.112 29 10 28.103 10 27v-2h12v2c0 1.103.888 2 1.979 2h2.043c1.09 0 1.978-.897 1.978-2v-2.184A3 3 0 0 0 30 22v-6c0-1.13-.391-2.162-1.026-3H30zm-2 8h-2v-.556a1 1 0 0 1 1-1h1zm-1-3.556c-1.654 0-3 1.346-3 3V19h-2v-1c0-1.654-1.346-3-3-3h-6c-1.654 0-3 1.346-3 3v1H8v-1c0-1.654-1.346-3-3-3h-.816A3 3 0 0 1 7 13h18a3 3 0 0 1 2.944 2.444zM20 19h-8v-1a1 1 0 0 1 1-1h6a1 1 0 0 1 1 1zM5 17a1 1 0 0 1 1 1v1H4v-2zM7.591 5.758A1 1 0 0 1 8.562 5h14.877c.46 0 .858.312.971.758L25.72 11H6.28zM8.021 27H6v-2h2.007zM24 27v-2h2.007l.014 2zm3-4H5a1 1 0 0 1-1-1v-1h24v1a1 1 0 0 1-1 1"/></svg>