<svg xmlns="http://www.w3.org/2000/svg" viewBox="0 0 24 24"><path fill-rule="evenodd" d="M5.25 18a.75.75 0 0 1-.75.75h-.75A.75.75 0 0 1 3 18v-5.25c0-1.24 1.01-2.25 2.25-2.25h15.906l-1.077-5.649c-.154-1.483-1.262-2.601-2.58-2.601H6.5c-1.317 0-2.425 1.118-2.57 2.538L3.129 9H1.5v1.5h.77a3.7 3.7 0 0 0-.77 2.25V18c0 1.24 1.01 2.25 2.25 2.25h.75c1.24 0 2.25-1.01 2.25-2.25h3.75v-1.5H5.25zm.163-12.994C5.486 4.3 5.964 3.75 6.5 3.75h11c.537 0 1.015.551 1.096 1.319L19.344 9H4.655zM8.25 12.75h-3v1.5h3zm12.284 3.75H22.5V18h-1.966a3.3 3.3 0 0 1-.434 1.04l1.393 1.392-1.06 1.06L19.04 20.1a3.3 3.3 0 0 1-1.04.434V22.5h-1.5v-1.966a3.3 3.3 0 0 1-1.04-.434l-1.392 1.393-1.06-1.06L14.4 19.04a3.3 3.3 0 0 1-.434-1.04H12v-1.5h1.966c.085-.375.235-.724.434-1.04l-1.393-1.392 1.06-1.06L15.46 14.4a3.3 3.3 0 0 1 1.04-.434V12H18v1.966c.375.085.724.235 1.04.434l1.392-1.393 1.06 1.06L20.1 15.46c.2.316.349.665.434 1.04m-5.159.75c0 1.034.84 1.875 1.875 1.875 1.034 0 1.875-.84 1.875-1.875 0-1.034-.84-1.875-1.875-1.875-1.034 0-1.875.84-1.875 1.875" clip-rule="evenodd"/></svg>