<svg xmlns="http://www.w3.org/2000/svg" data-name="&amp;lt;Ebene&amp;gt;" viewBox="0 0 32 32"><path d="M28 17.95h2V25c0 1.65-1.35 3-3 3h-1c-1.65 0-3-1.35-3-3H9c0 1.65-1.35 3-3 3H5c-1.65 0-3-1.35-3-3v-7c0-1.13.39-2.16 1.02-3H2v-2h2.17l1.07-5.62C5.43 5.49 6.91 4 8.67 4h14.67c1.53 0 2.86 1.12 3.31 2.78l-1.93.52c-.21-.76-.77-1.3-1.38-1.3H8.67c-.72 0-1.35.74-1.45 1.67L6.21 13H13v2H7c-1.65 0-3 1.34-3 3v7c0 .55.45 1 1 1h1c.55 0 1-.45 1-1v-2h18v2c0 .55.45 1 1 1h1c.55 0 1-.45 1-1zM11 20v-2H7v2zm19-7v2h-4v1c0 1.65-1.34 3-3 3h-6v-2h-2v-2h2v-2h-2v-2h2V9h6c1.65 0 3 1.34 3 3v1zm-6-1c0-.55-.45-1-1-1h-4v6h4c.55 0 1-.45 1-1v-4.01Z" style="stroke-width:0"/></svg>