<svg xmlns="http://www.w3.org/2000/svg" width="24" height="24"><path fill-rule="evenodd" d="m6.716 4.868 12.209.954A2.26 2.26 0 0 1 21 8.065v3.346a2.26 2.26 0 0 1-2.075 2.243l-11.175.872a.99.99 0 0 0-1 .962.975.975 0 0 0 .96 1.012h9.54A2.25 2.25 0 1 1 15 18.75c.002-.256.05-.51.139-.75h-3.277c.089.24.136.494.138.75a2.25 2.25 0 0 1-4.5 0 2.2 2.2 0 0 1 .14-.754 2.475 2.475 0 0 1-1.1-4.646l-1.3-8.217A.75.75 0 0 0 4.5 4.5H3V3h1.5a2.24 2.24 0 0 1 2.215 1.868m3.658 14.299a.75.75 0 1 0-1.248-.834.75.75 0 0 0 1.248.834m7.5 0a.75.75 0 1 0-1.248-.834.75.75 0 0 0 1.248.834M19.3 11.92a.75.75 0 0 0 .199-.51V8.067a.75.75 0 0 0-.692-.75l-11.85-.925 1.044 6.61 10.806-.841a.75.75 0 0 0 .493-.24m-8.187-3.096 1.18 1.18 2.47-2.469 1.061 1.06-3.533 3.53-2.242-2.24z" clip-rule="evenodd"/></svg>