<svg xmlns="http://www.w3.org/2000/svg" viewBox="0 0 24 24"><path d="m18.925 5.822-12.21-.954A2.24 2.24 0 0 0 4.5 3H3v1.5h1.5a.75.75 0 0 1 .741.633l1.298 8.217a2.475 2.475 0 0 0 1.101 4.646 2.2 2.2 0 0 0-.14.754 2.25 2.25 0 1 0 4.5 0 2.2 2.2 0 0 0-.138-.75h3.277c-.09.24-.137.494-.139.75a2.25 2.25 0 1 0 2.25-2.25H7.71a.975.975 0 0 1-.96-1.012.99.99 0 0 1 1-.962l11.176-.872A2.26 2.26 0 0 0 21 11.41V8.065a2.26 2.26 0 0 0-2.075-2.243M10.5 18.75a.75.75 0 1 1-1.5 0 .75.75 0 0 1 1.5 0m7.5 0a.75.75 0 1 1-1.5 0 .75.75 0 0 1 1.5 0m1.5-7.34a.75.75 0 0 1-.692.75l-10.805.843-1.045-6.611 11.85.925a.75.75 0 0 1 .692.75z"/></svg>