<svg xmlns="http://www.w3.org/2000/svg" xml:space="preserve" viewBox="0 0 32 32"><path d="M25.233 7.762 8.954 6.491A2.985 2.985 0 0 0 6.001 4H4v2h2.001c.495 0 .91.355.988.844l1.729 10.952A3.3 3.3 0 0 0 7 20.719a3.28 3.28 0 0 0 3.187 3.272A3 3 0 0 0 10 25c0 1.654 1.346 3 3 3s3-1.346 3-3c0-.352-.072-.686-.184-1h4.369A3 3 0 0 0 20 25c0 1.654 1.346 3 3 3s3-1.346 3-3-1.346-3-3-3H10.281C9.575 22 9 21.425 9 20.651c0-.693.566-1.256 1.334-1.283l14.898-1.163A3.015 3.015 0 0 0 28 15.214v-4.461a3.015 3.015 0 0 0-2.767-2.991M14 25a1 1 0 1 1-2 0 1 1 0 0 1 2 0m10 0a1 1 0 1 1-2 0 1 1 0 0 1 2 0m2-9.786c0 .519-.405.957-.923.997L10.67 17.337 9.278 8.522l15.8 1.234c.517.04.922.478.922.997z"/><path d="m16.393 13.341-1.575-1.574-1.414 1.414 2.989 2.988 4.707-4.707-1.414-1.414z"/></svg>