<svg xmlns="http://www.w3.org/2000/svg" viewBox="0 0 24 24"><path d="M8.25 14.25h-1.5v1.5h1.5zm3 0v1.5h-1.5v-1.5zm3 0h-1.5v1.5h1.5zm-1.5-3h1.5v1.5h-1.5zm4.5 3h-1.5v1.5h1.5zm-1.5-3h1.5v1.5h-1.5zm-4.5 0h-4.5v1.5h4.5z"/><path fill-rule="evenodd" d="M21 2.25v4.5h-5.25v1.5h3A2.25 2.25 0 0 1 21 10.5v11.25H3V10.5a2.25 2.25 0 0 1 2.25-2.25h9v-1.5H9v-4.5zm-16.5 18h15v-1.5h-15zM19.28 9.97a.75.75 0 0 0-.53-.22H5.25a.75.75 0 0 0-.75.75v6.75h15V10.5a.75.75 0 0 0-.22-.53m.22-6.22h-9v1.5h9z" clip-rule="evenodd"/></svg>