<svg xmlns="http://www.w3.org/2000/svg" width="24" height="24"><path d="M15.375 1.5c-2.595 0-5.625.59-5.625 2.25v10.539a17 17 0 0 0-1.125-.039C6.03 14.25 3 14.84 3 16.5v3.75c0 1.66 3.03 2.25 5.625 2.25s5.625-.59 5.625-2.25v-3.041q.55.04 1.125.041C17.97 17.25 21 16.66 21 15V3.75c0-1.66-3.03-2.25-5.625-2.25M19.5 7.41c-.251.3-1.692.84-4.125.84s-3.874-.542-4.125-.84V5.374c1.328.45 2.724.661 4.125.627a12 12 0 0 0 4.125-.627zm0 3.75c-.251.3-1.692.84-4.125.84s-3.874-.541-4.125-.84V9.124c1.328.45 2.724.661 4.125.627a12 12 0 0 0 4.125-.627zM15.375 3c2.203 0 3.6.445 4.03.75-.43.305-1.828.75-4.03.75s-3.6-.445-4.03-.75c.43-.305 1.827-.75 4.03-.75m-6.75 12.75c2.203 0 3.6.445 4.03.75-.43.305-1.828.75-4.03.75s-3.6-.445-4.03-.75c.43-.305 1.827-.75 4.03-.75m0 5.25c-2.404 0-3.848-.53-4.125-.83v-2.046c1.328.448 2.724.66 4.125.626a12 12 0 0 0 4.125-.627v2.047c-.277.3-1.72.83-4.125.83M19.5 14.92c-.277.3-1.72.83-4.125.83a14 14 0 0 1-1.425-.075 4.56 4.56 0 0 0-2.7-1.206v-1.596c1.328.45 2.724.661 4.125.627a12 12 0 0 0 4.125-.627z"/></svg>