<svg width="100%" height="100%" viewBox="0 0 24 24" version="1.1" xmlns="http://www.w3.org/2000/svg" xmlns:xlink="http://www.w3.org/1999/xlink" xml:space="preserve" style="fill-rule:evenodd;clip-rule:evenodd;stroke-linejoin:round;stroke-miterlimit:2;"><path d="M21.533,20.468L18.773,17.708C19.595,16.518 19.729,14.979 19.125,13.665C19.365,12.885 19.5,12.075 19.5,11.25C19.498,6.725 15.775,3.002 11.25,3L11.25,1.477L10.44,1.537C5.723,1.897 1.898,5.73 1.538,10.44L1.478,11.25L3,11.25C3,15.803 6.698,19.5 11.25,19.5C12.074,19.501 12.894,19.374 13.68,19.125C14.215,19.366 14.796,19.492 15.383,19.492C16.245,19.492 17.055,19.222 17.715,18.765L20.475,21.525L21.533,20.468ZM9.75,3.142L9.75,9.75L3.135,9.75C3.735,6.412 6.405,3.735 9.75,3.142M4.492,11.25L11.25,11.25L11.25,4.5C14.97,4.5 18,7.53 18,11.25C18,11.551 17.978,11.849 17.933,12.143C17.206,11.566 16.304,11.251 15.375,11.25C13.113,11.253 11.253,13.113 11.25,15.375C11.25,16.343 11.588,17.227 12.15,17.933C11.85,17.97 11.55,18 11.242,18C7.522,18 4.492,14.97 4.492,11.25ZM12.758,15.375C12.761,13.936 13.944,12.753 15.383,12.75C16.822,12.753 18.005,13.936 18.008,15.375C18.005,16.814 16.822,17.997 15.383,18C13.944,17.997 12.761,16.814 12.758,15.375" style="fill-rule:nonzero;"/></svg>