<svg xmlns="http://www.w3.org/2000/svg" xml:space="preserve" style="fill-rule:evenodd;clip-rule:evenodd;stroke-linejoin:round;stroke-miterlimit:2" viewBox="0 0 24 24"><path d="m21.533 20.468-2.76-2.76a4.1 4.1 0 0 0 .352-4.043c.24-.78.375-1.59.375-2.415-.002-4.525-3.725-8.248-8.25-8.25V1.477l-.81.06c-4.717.36-8.542 4.193-8.902 8.903l-.06.81H3c0 4.553 3.698 8.25 8.25 8.25a8 8 0 0 0 2.43-.375 4.15 4.15 0 0 0 1.703.367c.862 0 1.672-.27 2.332-.727l2.76 2.76zM9.75 3.142V9.75H3.135c.6-3.338 3.27-6.015 6.615-6.608M4.492 11.25h6.758V4.5c3.72 0 6.75 3.03 6.75 6.75q0 .452-.067.893a4.12 4.12 0 0 0-2.558-.893c-2.262.003-4.122 1.863-4.125 4.125 0 .968.338 1.852.9 2.558-.3.037-.6.067-.908.067-3.72 0-6.75-3.03-6.75-6.75m8.266 4.125a2.643 2.643 0 0 1 2.625-2.625 2.643 2.643 0 0 1 2.625 2.625A2.643 2.643 0 0 1 15.383 18a2.643 2.643 0 0 1-2.625-2.625" style="fill-rule:nonzero"/></svg>