<svg xmlns="http://www.w3.org/2000/svg" viewBox="0 0 24 24"><g clip-path="url(#a)"><path d="M9.593 16.785a2.093 2.093 0 1 0-.002-4.187 2.093 2.093 0 0 0 .002 4.187m0-2.677a.594.594 0 1 1-.003 1.187.594.594 0 0 1 .002-1.187m7.703.202a.75.75 0 1 0 0-1.5.75.75 0 0 0 0 1.5m-12.322-.39a.75.75 0 1 0 0-1.5.75.75 0 0 0 0 1.5m9.39 2.603a.75.75 0 1 0 0-1.5.75.75 0 0 0 0 1.5"/><path d="m21.953 14.258.547-.15V9.75h-.008l-9.39-3.772-.337.262a1.415 1.415 0 0 1-2.28-.915l-.06-.42-.63-.255a3.73 3.73 0 0 0-4.252.96L1.508 9.75v7.628c0 1.17 1.012 2.122 2.25 2.122h16.5c1.237 0 2.25-.952 2.25-2.122v-.968l-.548-.15a1.04 1.04 0 0 1-.765-.997c0-.465.315-.878.765-.998zM6.638 6.623a2.26 2.26 0 0 1 2.46-.638 2.903 2.903 0 0 0 4.207 1.68l5.175 2.078H3.593l3.045-3.128zM21 13.035a2.55 2.55 0 0 0-1.32 2.22 2.53 2.53 0 0 0 1.305 2.213c-.052.3-.367.532-.742.532H3.75c-.412 0-.75-.277-.75-.622V11.25h18z"/></g><defs><clipPath id="a"><path d="M0 0h24v24H0z"/></clipPath></defs></svg>