<svg xmlns="http://www.w3.org/2000/svg" viewBox="0 0 24 24"><g clip-path="url(#a)"><path d="M18 10.568V1.5H6v9.068c-.435.157-.75.57-.75 1.057v2.835c0 .36.173.697.465.915.06.045.135.082.203.113V22.5h12.165v-7.095c.045-.022.097-.037.142-.067.33-.21.525-.563.525-.953v-2.752c0-.488-.315-.9-.75-1.058zM6.75 13.965V12h10.5v1.822c-.983-.367-1.928-.472-2.812-.307-.683.127-1.186.33-1.59.495-.353.143-.608.248-.848.248-.18 0-.338-.083-.623-.248-.405-.225-.96-.54-1.792-.547h-.053c-.127 0-.3 0-.622.045-.69.082-1.418.24-2.16.457M16.5 10.5h-3.75v-3h3.75zm0-4.5h-3.75V3h3.75zm-9-3h3.75v3H7.5zm3.75 4.5v3H7.5v-3zM7.418 21v-5.655c.577-.158 1.14-.285 1.68-.353.254-.03.367-.037.472-.037.45 0 .727.158 1.08.352.367.203.78.435 1.358.435.532 0 .96-.172 1.41-.352.375-.15.765-.308 1.305-.405.57-.105 1.2-.037 1.874.195V21H7.419"/></g><defs><clipPath id="a"><path d="M0 0h24v24H0z"/></clipPath></defs></svg>