<svg xmlns="http://www.w3.org/2000/svg" viewBox="0 0 24 24"><path d="M12 1.5C6.203 1.5 1.5 6.203 1.5 12S6.203 22.5 12 22.5 22.5 17.797 22.5 12 17.797 1.5 12 1.5M12 3c4.965 0 9 4.035 9 9a8.97 8.97 0 0 1-2.13 5.813l-1.387-1.388c.33-.398.51-.9.502-1.425v-2.265a2.2 2.2 0 0 0-.127-.735h.892v-1.5h-1.71l-.765-2.227a2.25 2.25 0 0 0-2.13-1.523h-4.29c-.562 0-1.08.202-1.485.563L6.188 5.13A8.97 8.97 0 0 1 12 3m4.26 9.203a.75.75 0 0 1 .225.532v2.273a.6.6 0 0 1-.082.337L13.058 12h2.835c.142.03.262.105.367.203M11.985 10.5h-.428L9.436 8.377a.77.77 0 0 1 .42-.127h4.29c.315 0 .6.203.705.51l.593 1.725zm-2.542 0H8.55l.232-.66zM8.25 12.015l2.7-.008 1.493 1.493H9V15a.746.746 0 1 1-1.492 0L7.5 12.765c0-.413.338-.75.75-.75M12 21c-4.965 0-9-4.035-9-9 0-2.213.803-4.245 2.13-5.812l2.468 2.467L6.96 10.5H5.25V12h.893a2 2 0 0 0-.143.765l.008 2.242A2.245 2.245 0 1 0 10.5 15h2.999a2.252 2.252 0 0 0 2.655 2.213l1.657 1.658A8.97 8.97 0 0 1 12 21"/></svg>