<svg xmlns="http://www.w3.org/2000/svg" xml:space="preserve" viewBox="0 0 32 32"><path d="M16 2C8.268 2 2 8.268 2 16s6.268 14 14 14 14-6.268 14-14S23.732 2 16 2m0 26C9.383 28 4 22.617 4 16S9.383 4 16 4s12 5.383 12 12-5.383 12-12 12"/><path d="m22.715 14-1.019-2.973A3 3 0 0 0 18.857 9h-5.715a3 3 0 0 0-2.838 2.027L9.285 14H7v2h1.19c-.116.321-.19.663-.189 1.024l.006 2.981a3.004 3.004 0 0 0 3 2.995 3 3 0 0 0 2.998-2.998l3.99-.002c0 1.654 1.346 3 3 3 .8 0 1.552-.312 2.117-.878a2.97 2.97 0 0 0 .872-2.118l-.006-3.029a3 3 0 0 0-.177-.975H25v-2zm-10.518-2.324a1 1 0 0 1 .946-.676h5.715c.427 0 .807.271.945.676l.791 2.307-4.616.017H11.4zm9.498 9.033a.98.98 0 0 1-.7.291 1 1 0 0 1-1-1v-2h-7.99v2.002a.998.998 0 0 1-1.998 0l-.006-2.982a1 1 0 0 1 .996-1.001L15.986 16h5.091a.96.96 0 0 1 .606.272c.189.188.294.44.295.707l.006 3.029a.98.98 0 0 1-.289.701"/></svg>