<svg xmlns="http://www.w3.org/2000/svg" viewBox="0 0 24 24"><path fill-rule="evenodd" d="m16.272 8.27.764 2.23h1.714V12h-.9c.082.233.133.477.133.731l.005 2.272c.002.6-.231 1.164-.654 1.588a2.23 2.23 0 0 1-1.588.659c-1.24 0-2.25-1.01-2.25-2.25l-2.992.002a2.25 2.25 0 0 1-2.249 2.248 2.253 2.253 0 0 1-2.25-2.246l-.004-2.236c-.001-.27.054-.527.141-.768H5.25v-1.5h1.714l.764-2.23a2.25 2.25 0 0 1 2.129-1.52h4.286c.961 0 1.816.61 2.129 1.52m-6.415-.02a.75.75 0 0 0-.71.507L8.55 10.5h3.433l3.462-.013-.593-1.73a.75.75 0 0 0-.709-.507zm5.89 7.5a.74.74 0 0 0 .524-.218.73.73 0 0 0 .217-.526l-.005-2.272c0-.2-.079-.389-.22-.53a.72.72 0 0 0-.455-.204H11.99l-3.742.014a.75.75 0 0 0-.747.751l.004 2.236a.75.75 0 0 0 1.499 0V13.5h5.992V15c0 .414.336.75.75.75" clip-rule="evenodd"/><path fill-rule="evenodd" d="M1.5 12C1.5 6.201 6.201 1.5 12 1.5S22.5 6.201 22.5 12 17.799 22.5 12 22.5 1.5 17.799 1.5 12M3 12c0 4.963 4.037 9 9 9s9-4.037 9-9-4.037-9-9-9-9 4.037-9 9" clip-rule="evenodd"/></svg>