<svg xmlns="http://www.w3.org/2000/svg" viewBox="0 0 24 24"><path fill-rule="evenodd" d="M4.673 17.213A8.9 8.9 0 0 1 3 12c0-4.965 4.035-9 9-9a8.9 8.9 0 0 1 5.212 1.673l1.08-1.08A10.47 10.47 0 0 0 12 1.5C6.203 1.5 1.5 6.203 1.5 12c0 2.363.78 4.538 2.093 6.293zM20.408 5.706l1.274-1.274-1.057-1.058-1.2 1.2L18.36 5.64l-5.61 5.61-1.5 1.5-5.61 5.61-1.065 1.065-1.2 1.2 1.058 1.058 1.274-1.276A10.47 10.47 0 0 0 12 22.5c5.797 0 10.5-4.703 10.5-10.5 0-2.363-.78-4.537-2.093-6.292M12 21a8.9 8.9 0 0 1-5.212-1.672l6.577-6.578H18v-1.5h-3.135l4.463-4.462A8.9 8.9 0 0 1 21 12c0 4.965-4.035 9-9 9m-1.365-9.75-1.5 1.5H6v-1.5z" clip-rule="evenodd"/></svg>