<svg xmlns="http://www.w3.org/2000/svg" xml:space="preserve" viewBox="0 0 32 32"><path d="M6.23 22.95A11.85 11.85 0 0 1 4 16C4 9.38 9.38 4 16 4c2.59 0 4.99.82 6.95 2.23l1.44-1.44A13.95 13.95 0 0 0 16 2C8.27 2 2 8.27 2 16c0 3.15 1.04 6.05 2.79 8.39zM27.21 7.61l1.7-1.7L27.5 4.5l-1.6 1.6-1.42 1.42L17 15l-2 2-7.48 7.48L6.1 25.9l-1.6 1.6 1.41 1.41 1.7-1.7C9.95 28.96 12.85 30 16 30c7.73 0 14-6.27 14-14 0-3.15-1.04-6.05-2.79-8.39M16 28c-2.59 0-4.99-.82-6.95-2.23L17.82 17H24v-2h-4.18l5.95-5.95C27.18 11.01 28 13.41 28 16c0 6.62-5.38 12-12 12"/><path d="m12.18 17 2-2H8v2z"/></svg>