<svg xmlns="http://www.w3.org/2000/svg" viewBox="0 0 24 24"><path fill-rule="evenodd" d="M6.167 3.27A10.5 10.5 0 0 1 12 1.5 10.51 10.51 0 0 1 22.5 12 10.5 10.5 0 1 1 6.167 3.27M7 19.483A9 9 0 0 0 12 21a9.01 9.01 0 0 0 9-9 9 9 0 1 0-14 7.483m8.704-8.876a2.6 2.6 0 0 1-.451 1.043 2.61 2.61 0 0 1-1.003 4.812V18h-1.5v-1.5h-1.5V18h-1.5v-1.5H7.5V15H9V9H7.5V7.5h2.25V6h1.5v1.5h1.5V6h1.5v1.763a2.6 2.6 0 0 1 1.454 2.844M13.125 9H10.5v2.25h2.625a1.125 1.125 0 1 0 0-2.25M10.5 15h3.375a1.125 1.125 0 1 0 0-2.25H10.5z" clip-rule="evenodd"/></svg>