<svg xmlns="http://www.w3.org/2000/svg" width="24" height="24"><path fill-rule="evenodd" d="M3.75 5.25V19.8a1.204 1.204 0 0 0 1.2 1.2h7.8v1.5h-7.8a2.705 2.705 0 0 1-2.7-2.7V3.75h4.525a2.6 2.6 0 0 1 .75-1.5 2.7 2.7 0 0 1 1.866-.761 2.634 2.634 0 0 1 2.584 2.261H16.5v6.75H15V5.25h-1.5v3H5.25v-3zm4.5-1.136V5.25h-1.5v1.5H12v-1.5h-1.5V4.114a1.125 1.125 0 0 0-1.117-1.125h-.008A1.125 1.125 0 0 0 8.25 4.114m4.5 7.136v-1.5h-4.5v1.5zm-2.25 1.5v1.5H8.25v-1.5zm-3.75-3h-1.5v1.5h1.5zm-1.5 3h1.5v1.5h-1.5zm13.521 5.71 2.76 2.76-1.061 1.06-2.76-2.759a4.134 4.134 0 1 1 1.061-1.06m-5.579-3.793a2.625 2.625 0 1 0 4.366 2.917 2.625 2.625 0 0 0-4.366-2.917" clip-rule="evenodd"/></svg>