<svg xmlns="http://www.w3.org/2000/svg" width="24" height="24"><path fill-rule="evenodd" d="M5.25 5.25v14.547c0 .663.54 1.203 1.203 1.203h7.797v1.5H6.453a2.705 2.705 0 0 1-2.703-2.703V3.75h4.525a2.6 2.6 0 0 1 .75-1.498c.498-.496 1.18-.752 1.866-.763a2.634 2.634 0 0 1 2.584 2.261H18v9.75h-1.5V5.25H15v3H6.75v-3zm4.5-1.136V5.25h-1.5v1.5h5.25v-1.5H12V4.114c0-.617-.502-1.121-1.118-1.125h-.008c-.299 0-.58.116-.793.327a1.12 1.12 0 0 0-.331.798m0 5.636H15v1.5H9.75zm5.25 3H9.75v1.5H15zm-8.25-3h1.5v1.5h-1.5zm1.5 3h-1.5v1.5h1.5zM18 18h3v1.5h-3v3h-1.5v-3h-3V18h3v-3H18z" clip-rule="evenodd"/></svg>