<svg xmlns="http://www.w3.org/2000/svg" xml:space="preserve" viewBox="0 0 32 32"><path d="M5 26.396V7h2v4h11V7h2v7h2V5h-6.033a3.51 3.51 0 0 0-3.446-3.015c-.923.015-1.823.356-2.488 1.017a3.47 3.47 0 0 0-1 1.998H3v21.396A3.607 3.607 0 0 0 6.604 30H11v-2H6.604C5.72 28 5 27.28 5 26.396M11 7V5.485c0-.402.157-.78.442-1.064a1.5 1.5 0 0 1 1.057-.436h.01A1.504 1.504 0 0 1 14 5.485V7h2v2H9V7z"/><path d="M11 13h7v2h-7zm0 4h3v2h-3zm-4-4h2v2H7zm0 4h2v2H7zm21.13-2.113a3.02 3.02 0 0 0-4.26 0l-7.827 7.827c-.434.435-.78.938-1.029 1.493l-2.018 4.491 1.322 1.322 4.491-2.018a5 5 0 0 0 1.494-1.03l7.827-7.826a3.015 3.015 0 0 0 0-4.259m-1.414 2.845-7.825 7.825a3 3 0 0 1-.9.621l-2.092.939.939-2.092c.15-.335.359-.638.62-.899l7.826-7.825c.197-.198.457-.296.716-.296.26 0 .519.099.716.296a1.016 1.016 0 0 1 0 1.431"/></svg>