<svg xmlns="http://www.w3.org/2000/svg" xml:space="preserve" viewBox="0 0 32 32"><path d="M5 26.396V7h2v4h11V7h2v4h2V5h-6.033a3.51 3.51 0 0 0-3.446-3.015c-.923.015-1.823.356-2.488 1.017a3.47 3.47 0 0 0-1 1.998H3v21.396A3.607 3.607 0 0 0 6.604 30H15v-2H6.604C5.72 28 5 27.28 5 26.396M11 7V5.485c0-.402.157-.78.442-1.064a1.5 1.5 0 0 1 1.057-.436h.01A1.504 1.504 0 0 1 14 5.485V7h2v2H9V7z"/><path d="M11 13h6v2h-6zm0 4h3v2h-3zm-4-4h2v2H7zm0 4h2v2H7zm20 1.184V17c0-2.206-1.794-4-4-4s-4 1.794-4 4v1.184A3 3 0 0 0 17 21v6c0 1.654 1.346 3 3 3h6c1.654 0 3-1.346 3-3v-6a3 3 0 0 0-2-2.816M21 17c0-1.103.897-2 2-2s2 .897 2 2v1h-4zm6 10a1 1 0 0 1-1 1h-6a1 1 0 0 1-1-1v-6a1 1 0 0 1 1-1h6a1 1 0 0 1 1 1z"/><circle cx="23" cy="24" r="2"/></svg>