<svg xmlns="http://www.w3.org/2000/svg" viewBox="0 0 24 24"><path fill-rule="evenodd" d="M3.75 19.8V5.25h1.5v3h8.25v-3H15v5.25h1.5V3.75h-4.525a2.635 2.635 0 0 0-2.584-2.261 2.7 2.7 0 0 0-1.866.761 2.6 2.6 0 0 0-.75 1.5H2.25V19.8a2.705 2.705 0 0 0 2.7 2.7h6.3V21h-6.3a1.205 1.205 0 0 1-1.2-1.2m4.5-14.55V4.114a1.125 1.125 0 0 1 1.125-1.125h.008A1.125 1.125 0 0 1 10.5 4.114V5.25H12v1.5H6.75v-1.5zm0 4.5h5.25v1.5H8.25zm2.25 4.5v-1.5H8.25v1.5zm-5.25-4.5h1.5v1.5h-1.5zm1.5 3h-1.5v1.5h1.5zm10.5-.75a5.25 5.25 0 1 0 5.25 5.25A5.257 5.257 0 0 0 17.25 12m0 9a3.75 3.75 0 1 1 0-7.5 3.75 3.75 0 0 1 0 7.5m-1.425-4.605.9.885 1.853-1.854 1.062 1.06-2.907 2.909-1.958-1.932z" clip-rule="evenodd"/></svg>