<svg xmlns="http://www.w3.org/2000/svg" viewBox="0 0 24 24"><path fill-rule="evenodd" d="M3.75 19.8V5.25h1.5v3h8.25v-3H15v4.5h1.5v-6h-4.525a2.635 2.635 0 0 0-2.584-2.261 2.7 2.7 0 0 0-1.866.761 2.6 2.6 0 0 0-.75 1.5H2.25V19.8a2.705 2.705 0 0 0 2.7 2.7h7.8V21h-7.8a1.205 1.205 0 0 1-1.2-1.2m4.5-14.55V4.114a1.125 1.125 0 0 1 1.125-1.125h.008A1.125 1.125 0 0 1 10.5 4.114V5.25H12v1.5H6.75v-1.5zm0 4.5h5.25v1.5H8.25zm2.25 4.5v-1.5H8.25v1.5zm-5.25-4.5h1.5v1.5h-1.5zm1.5 3h-1.5v1.5h1.5zm15.173.155a25 25 0 0 1-4.338-1.485l-.335-.17-.335.168a25 25 0 0 1-4.338 1.484l-.577.14v.592c0 7.725 4.895 8.794 5.1 8.835l.15.031.15-.03c.209-.041 5.1-1.11 5.1-8.834v-.593zm-4.673 8.052c-.685-.22-3.545-1.454-3.74-6.744a25.5 25.5 0 0 0 3.74-1.29c1.211.526 2.462.957 3.74 1.29-.195 5.3-3.042 6.524-3.74 6.744m-2.463-4.271 1.05-1.068 1.02 1.003 2.051-2.052 1.06 1.06-3.105 3.105z" clip-rule="evenodd"/></svg>