<svg xmlns="http://www.w3.org/2000/svg" width="24" height="24"><path fill-rule="evenodd" d="M14.908 3.75a3.01 3.01 0 0 0-2.893-2.261 3.07 3.07 0 0 0-2.13.873c-.387.382-.66.862-.793 1.388H4.5v16.5a2.3 2.3 0 0 0 2.338 2.25h10.324a2.3 2.3 0 0 0 2.338-2.25V3.75zM9.75 5.25l.75-.011v-.75a1.5 1.5 0 0 1 1.5-1.5h.008A1.506 1.506 0 0 1 13.5 4.5v.75H15v1.5H9v-1.5zm8.25 15a.8.8 0 0 1-.838.75H6.838A.8.8 0 0 1 6 20.25v-15h1.5v3h9v-3H18zm-1.5-9v1.5h-6v-1.5zm0 4.5v-1.5h-6v1.5zm-9-4.5H9v1.5H7.5zm1.5 3H7.5v1.5H9z" clip-rule="evenodd"/></svg>