<svg xmlns="http://www.w3.org/2000/svg" viewBox="0 0 24 24"><path fill-rule="evenodd" d="M3.75 19.8V5.25h1.5v3h8.25v-3H15v3h1.5v-4.5h-4.525a2.635 2.635 0 0 0-2.584-2.261 2.7 2.7 0 0 0-1.866.761 2.6 2.6 0 0 0-.75 1.5H2.25V19.8a2.705 2.705 0 0 0 2.7 2.7h6.3V21h-6.3a1.205 1.205 0 0 1-1.2-1.2m4.5-14.55V4.114a1.125 1.125 0 0 1 1.125-1.125h.008A1.125 1.125 0 0 1 10.5 4.114V5.25H12v1.5H6.75v-1.5z" clip-rule="evenodd"/><path d="M12.75 9.75v1.5h-4.5v-1.5zm-2.25 4.5v-1.5H8.25v1.5zm-5.25-4.5h1.5v1.5h-1.5zm1.5 3h-1.5v1.5h1.5zm11.333 4.003a1.5 1.5 0 1 0-1.667 2.495 1.5 1.5 0 0 0 1.667-2.495"/><path fill-rule="evenodd" d="M20.25 13.638v-.888a3 3 0 0 0-6 0v.888a2.25 2.25 0 0 0-1.5 2.112v4.5A2.25 2.25 0 0 0 15 22.5h4.5a2.25 2.25 0 0 0 2.25-2.25v-4.5a2.25 2.25 0 0 0-1.5-2.112m-4.5-.888a1.5 1.5 0 1 1 3 0v.75h-3zm4.5 7.5a.75.75 0 0 1-.75.75H15a.75.75 0 0 1-.75-.75v-4.5A.75.75 0 0 1 15 15h4.5a.75.75 0 0 1 .75.75z" clip-rule="evenodd"/></svg>