<svg xmlns="http://www.w3.org/2000/svg" viewBox="0 0 24 24"><path fill-rule="evenodd" d="M3.75 5.25V19.8a1.204 1.204 0 0 0 1.2 1.2h3.3v1.5h-3.3a2.705 2.705 0 0 1-2.7-2.7V3.75h4.525a2.6 2.6 0 0 1 .75-1.5 2.7 2.7 0 0 1 1.866-.761 2.634 2.634 0 0 1 2.584 2.261H16.5v6.75H15V5.25h-1.5v3H5.25v-3zm4.5-1.136V5.25h-1.5v1.5H12v-1.5h-1.5V4.114a1.125 1.125 0 0 0-1.117-1.125h-.008A1.125 1.125 0 0 0 8.25 4.114" clip-rule="evenodd"/><path d="M13.5 9.75H8.25v1.5h5.25zm-3 3v1.5H8.25v-1.5zm-3.75-3h-1.5v1.5h1.5zm-1.5 3h1.5v1.5h-1.5z"/><path fill-rule="evenodd" d="M19.5 10.505c.599 0 1.173.238 1.598.66a2.26 2.26 0 0 1 0 3.193l-5.87 5.87a3.8 3.8 0 0 1-1.121.772l-3.365 1.517-.992-.992 1.51-3.37a3.8 3.8 0 0 1 .772-1.12l5.87-5.87c.425-.422 1-.66 1.598-.66m-5.332 8.663 5.869-5.869a.761.761 0 0 0-.537-1.296.76.76 0 0 0-.537.222l-5.87 5.869a2.3 2.3 0 0 0-.464.675l-.705 1.569 1.57-.704c.25-.113.48-.271.674-.466" clip-rule="evenodd"/></svg>