<svg xmlns="http://www.w3.org/2000/svg" width="24" height="24"><g clip-path="url(#a)"><path fill-rule="evenodd" d="M10.125 3C6.197 3 3 6.197 3 10.125s3.197 7.125 7.125 7.125h.375v1.5h-.375c-4.756 0-8.625-3.87-8.625-8.625C1.5 5.369 5.37 1.5 10.125 1.5c4.756 0 8.625 3.87 8.625 8.625v.11a5 5 0 0 1 0 .299l-1.5-.068a3 3 0 0 0 .002-.18v-.031l-.002-.13C17.25 6.197 14.053 3 10.125 3M9 11.25v-6h1.5v4.5h3v1.5zm3 6A5.257 5.257 0 0 1 17.25 12a5.257 5.257 0 0 1 5.25 5.25 5.257 5.257 0 0 1-5.25 5.25A5.257 5.257 0 0 1 12 17.25m1.5 0A3.754 3.754 0 0 0 17.25 21 3.754 3.754 0 0 0 21 17.25a3.754 3.754 0 0 0-3.75-3.75 3.754 3.754 0 0 0-3.75 3.75m3.227.03-.898-.885-1.053 1.068 1.958 1.932 2.907-2.908-1.061-1.061z" clip-rule="evenodd"/></g><defs><clipPath id="a"><path d="M0 0h24v24H0z"/></clipPath></defs></svg>