<svg xmlns="http://www.w3.org/2000/svg" viewBox="0 0 24 24"><path fill-rule="evenodd" d="M3 10.875a7.875 7.875 0 0 1 15.57-1.689l1.464-.32a9.374 9.374 0 1 0-10.47 11.293l.208-1.485A7.906 7.906 0 0 1 3 10.875M9.75 5.25V12H15v-1.5h-3.75V5.25zm10.5 5.255c.599 0 1.173.238 1.598.66a2.26 2.26 0 0 1 0 3.193l-5.87 5.87a3.8 3.8 0 0 1-1.121.772l-3.365 1.517-.992-.992 1.51-3.37a3.8 3.8 0 0 1 .772-1.12l5.87-5.87c.425-.422 1-.66 1.598-.66m-5.332 8.663 5.869-5.869a.76.76 0 0 0-1.074-1.074l-5.87 5.869a2.3 2.3 0 0 0-.464.675l-.705 1.569 1.57-.704c.25-.113.48-.271.674-.466" clip-rule="evenodd"/></svg>