<svg xmlns="http://www.w3.org/2000/svg" viewBox="0 0 24 24"><path d="M20.25 15.75c-.975 0-1.8.63-2.115 1.5H16.5V15h.3c2.73 0 4.95-2.355 4.95-5.25S19.575 4.5 16.808 4.5a5.86 5.86 0 0 0-5.108-3 5.865 5.865 0 0 0-5.775 4.853A4.36 4.36 0 0 0 2.25 10.65C2.25 13.05 4.2 15 6.6 15h.9v2.25H5.865a2.24 2.24 0 0 0-2.115-1.5A2.257 2.257 0 0 0 1.5 18a2.257 2.257 0 0 0 2.25 2.25c.975 0 1.8-.63 2.115-1.5H9V15h2.25v3.135a2.24 2.24 0 0 0-1.5 2.115A2.257 2.257 0 0 0 12 22.5a2.257 2.257 0 0 0 2.25-2.25c0-.975-.63-1.8-1.5-2.115V15H15v3.75h3.135c.307.87 1.132 1.5 2.115 1.5A2.257 2.257 0 0 0 22.5 18a2.257 2.257 0 0 0-2.25-2.25m-16.5 3A.75.75 0 0 1 3 18c0-.413.337-.75.75-.75.412 0 .75.337.75.75s-.338.75-.75.75M12 21a.75.75 0 0 1-.75-.75c0-.413.338-.75.75-.75s.75.337.75.75-.338.75-.75.75m-4.5-7.5h-.9a2.854 2.854 0 0 1-2.85-2.85A2.854 2.854 0 0 1 6.6 7.8h.705l.038-.705A4.36 4.36 0 0 1 11.692 3a4.37 4.37 0 0 1 3.967 2.565l.21.457.502-.014h.428c1.935 0 3.45 1.65 3.45 3.75s-1.545 3.75-3.45 3.75H7.5zm12.75 5.25a.75.75 0 0 1-.75-.75c0-.413.337-.75.75-.75s.75.337.75.75-.337.75-.75.75"/></svg>