<svg xmlns="http://www.w3.org/2000/svg" xml:space="preserve" viewBox="0 0 32 32"><path d="M23.919 13.106c-1.186-2.066-3.341-3.41-5.731-3.595C17.063 7.372 14.851 6 12.43 6a6.544 6.544 0 0 0-6.42 5.281A4.91 4.91 0 0 0 2 16.1c0 2.398 1.735 4.391 4.014 4.81.142 2.83 2.5 5.09 5.386 5.09h12.466C27.248 26 30 23.107 30 19.553c0-3.597-2.667-6.418-6.081-6.447M6.295 18.934A2.9 2.9 0 0 1 4 16.1c0-1.599 1.301-2.9 2.9-2.9h.943l.055-.941A4.54 4.54 0 0 1 12.43 8c1.372 0 2.649.638 3.497 1.682-2.75.661-4.906 2.874-5.42 5.676a5.4 5.4 0 0 0-4.212 3.576M23.866 24H11.4C9.525 24 8 22.494 8 20.643s1.525-3.358 3.4-3.358h.943l.055-.941c.161-2.73 2.46-4.869 5.235-4.869a5.24 5.24 0 0 1 4.77 3.056l.28.608.668-.023c.067-.002.454-.009.515-.009 2.318 0 4.134 1.954 4.134 4.447C28 22.005 26.146 24 23.866 24"/></svg>