<svg xmlns="http://www.w3.org/2000/svg" xml:space="preserve" viewBox="0 0 32 32"><path d="M22.934 10.667h-.042a8.38 8.38 0 0 0-7.325-4.333 8.384 8.384 0 0 0-8.268 6.999A6.21 6.21 0 0 0 2 19.467c0 3.419 2.781 6.2 6.2 6.2h14.733c3.896 0 7.066-3.364 7.066-7.5.001-4.206-3.103-7.5-7.065-7.5m0 13H8.2c-2.316 0-4.2-1.884-4.2-4.2s1.884-4.2 4.2-4.2h.943l.055-.942c.195-3.359 2.992-5.991 6.368-5.991a6.38 6.38 0 0 1 5.803 3.755l.275.611.669-.022c.069-.002.549-.011.62-.011 2.841 0 5.066 2.416 5.066 5.5.001 3.032-2.271 5.5-5.065 5.5"/></svg>