<svg xmlns="http://www.w3.org/2000/svg" viewBox="0 0 32 32"><path d="M8.2 21.67H13v2H8.2c-3.42 0-6.2-2.78-6.2-6.2 0-3.11 2.31-5.7 5.3-6.13.65-3.99 4.13-7.01 8.27-7.01 3.06 0 5.86 1.68 7.32 4.34h.04c2.66 0 4.98 1.45 6.22 3.88l-1.78.91c-.89-1.74-2.54-2.78-4.43-2.78h-1.3l-.27-.58a6.38 6.38 0 0 0-5.8-3.76c-3.38 0-6.18 2.63-6.37 6l-.05.94H8.2a4.2 4.2 0 1 0 0 8.4ZM26.39 20H29v2h-2.61c-.11.5-.31.97-.58 1.39l1.85 1.85-1.41 1.41-1.85-1.85a4.5 4.5 0 0 1-1.39.58v2.61h-2v-2.61c-.5-.11-.97-.31-1.39-.58l-1.85 1.85-1.41-1.41 1.85-1.85a4.5 4.5 0 0 1-.58-1.39h-2.61v-2h2.61c.11-.5.31-.97.58-1.39l-1.85-1.85 1.41-1.41 1.85 1.85c.42-.27.89-.47 1.39-.58v-2.61h2v2.61c.5.11.97.31 1.39.58l1.85-1.85 1.41 1.41-1.85 1.85c.27.42.46.89.58 1.39m-1.89 1a2.5 2.5 0 0 0-5 0 2.5 2.5 0 0 0 5 0"/></svg>