<svg xmlns="http://www.w3.org/2000/svg" xml:space="preserve" viewBox="0 0 32 32"><path d="M17 23.184V21h5.4c3.639 0 6.6-3.141 6.6-7 0-3.923-2.896-6.997-6.594-7a7.81 7.81 0 0 0-6.807-4 7.816 7.816 0 0 0-7.698 6.469A5.81 5.81 0 0 0 3 15.2C3 18.398 5.602 21 8.8 21H15v2.184A3 3 0 0 0 13.184 25H4v2h9.184c.414 1.161 1.514 2 2.816 2s2.402-.839 2.816-2H28v-2h-9.184A3 3 0 0 0 17 23.184M5 15.2c0-2.096 1.705-3.8 3.8-3.8h.943l.055-.942C9.977 7.397 12.524 5 15.6 5a5.81 5.81 0 0 1 5.286 3.421l.276.611.67-.023L22.4 9c2.579 0 4.6 2.196 4.6 5 0 2.757-2.063 5-4.6 5H8.8A3.805 3.805 0 0 1 5 15.2M16 27a1 1 0 1 1 0-2 1 1 0 0 1 0 2"/></svg>