<svg xmlns="http://www.w3.org/2000/svg" width="24" height="24"><g clip-path="url(#a)"><path fill-rule="evenodd" d="M22.5 11.25v2.245a3.73 3.73 0 0 1-1.099 2.657 3.76 3.76 0 0 1-3.17 1.05L14.43 21h-3.18v-3.181l.568-.569H6.15c-2.564 0-4.65-2.052-4.65-4.575 0-2.298 1.73-4.205 3.975-4.527C5.971 5.213 8.575 3 11.678 3c2.29 0 4.393 1.236 5.488 3.188h.032c2.822 0 5.06 2.189 5.28 5.062zM3 12.675c0 1.696 1.413 3.075 3.15 3.075h7.168l1.73-1.73a3.75 3.75 0 0 1 1.79-3.75 3.72 3.72 0 0 1 3.863.022l.034.024.03.021c-.523-1.557-1.896-2.65-3.567-2.65l-.969.007-.2-.437C15.26 5.582 13.552 4.5 11.677 4.5c-2.537 0-4.636 1.93-4.78 4.393l-.04.707H6.15C4.413 9.6 3 10.98 3 12.675m15.175 2.988c.792.21 1.6-.006 2.166-.572a2.254 2.254 0 0 0-.433-3.526 2.24 2.24 0 0 0-2.293-.013c-.886.539-1.29 1.529-1.027 2.522l.11.418-3.948 3.947V19.5h1.06l3.948-3.947zm.045-1.633a.75.75 0 1 1 1.058-1.06.75.75 0 0 1-1.058 1.06" clip-rule="evenodd"/></g><defs><clipPath id="a"><path d="M0 0h24v24H0z"/></clipPath></defs></svg>