<svg xmlns="http://www.w3.org/2000/svg" viewBox="0 0 24 24"><path d="M3.78 10.673a3.56 3.56 0 0 0-.773 2.49 3.56 3.56 0 0 0 3.555 3.3h3.18v1.5h-3.18a5.05 5.05 0 0 1-3.45-1.358 5.1 5.1 0 0 1-1.605-3.338 5.08 5.08 0 0 1 1.103-3.54 5.03 5.03 0 0 1 2.692-1.732A6.54 6.54 0 0 1 7.02 4.95a6.54 6.54 0 0 1 3.548-1.845 6.56 6.56 0 0 1 3.96.555 6.57 6.57 0 0 1 2.692 2.385q.966.09 1.83.472a5.8 5.8 0 0 1 3.067 3.255l-1.402.525a4.4 4.4 0 0 0-.892-1.432 4.3 4.3 0 0 0-1.373-.975 4.3 4.3 0 0 0-1.65-.368h-.435l-.24-.39a5.03 5.03 0 0 0-2.242-2.122 5.06 5.06 0 0 0-3.06-.428 5.05 5.05 0 0 0-2.746 1.425 5.03 5.03 0 0 0-1.41 2.745l-.09.54-.54.083a3.6 3.6 0 0 0-2.265 1.297zm18.585 1.612v1.147c0 7.808-5.137 8.926-5.355 8.963l-.285.06-.285-.06c-.218-.045-5.355-1.14-5.355-8.962v-1.14l1.11-.263c.255-.06 2.453-.607 3.878-1.327l.645-.323.652.322c1.425.713 3.63 1.26 3.87 1.32l.54.128.578.135zm-1.5 1.185c-.48-.12-2.625-.668-4.14-1.418-1.515.75-3.66 1.306-4.14 1.418.015 6.472 3.885 7.402 4.14 7.455.292-.06 4.125-1.012 4.14-7.455m-1.215 1.178h-1.5c0 .697-.412 2.257-1.35 2.662l.6 1.373c1.838-.803 2.25-3.248 2.25-4.043z"/></svg>