<svg xmlns="http://www.w3.org/2000/svg" width="24" height="24"><g clip-path="url(#a)"><path d="M3 13.103a3.15 3.15 0 0 1 3.15-3.15h.712l.038-.706c.143-2.52 2.242-4.5 4.778-4.5a4.78 4.78 0 0 1 4.35 2.82l.202.443h.975c1.418-.008 2.663.772 3.323 2.078l1.335-.683c-.93-1.823-2.67-2.91-4.665-2.91h-.03a6.28 6.28 0 0 0-5.49-3.255 6.28 6.28 0 0 0-6.203 5.257c-2.242.33-3.975 2.265-3.975 4.598a4.654 4.654 0 0 0 4.65 4.65h3.6v-1.5h-3.6A3.15 3.15 0 0 1 3 13.095z"/><path d="m19.35 13.958 1.395-1.396-1.058-1.057-1.395 1.395a3.4 3.4 0 0 0-1.042-.435V10.5h-1.5v1.965c-.375.082-.72.232-1.043.435l-1.395-1.395-1.057 1.057 1.395 1.396A3.4 3.4 0 0 0 13.215 15H11.25v1.5h1.965c.082.375.232.72.435 1.043l-1.395 1.395 1.057 1.057 1.396-1.395c.315.202.667.345 1.042.435V21h1.5v-1.965a3.3 3.3 0 0 0 1.043-.435l1.395 1.395 1.057-1.058-1.395-1.395c.202-.315.345-.667.435-1.042h1.965V15h-1.965a3.3 3.3 0 0 0-.435-1.043m-2.85 3.667a1.876 1.876 0 1 1 .001-3.751 1.876 1.876 0 0 1-.001 3.751"/></g><defs><clipPath id="a"><path d="M0 0h24v24H0z"/></clipPath></defs></svg>