<svg xmlns="http://www.w3.org/2000/svg" viewBox="0 0 24 24"><path fill-rule="evenodd" d="m8.317 13.64.833-1.246a5.13 5.13 0 1 1 5.7 0l.835 1.246a6.63 6.63 0 1 0-7.368 0M12 18.415c1.23 0 2.057-.511 2.057-1.275v-6.05a.64.64 0 0 1 .232-.45 3.403 3.403 0 1 0-4.57.007.63.63 0 0 1 .225.445v6.054c0 .76.825 1.271 2.056 1.271m-1.845-10.77a1.906 1.906 0 1 1 3.588 1.247c-.107.24-.264.455-.46.63a2.1 2.1 0 0 0-.726 1.565v5.758a3 3 0 0 1-1.113 0v-5.76a2.1 2.1 0 0 0-.719-1.561 1.89 1.89 0 0 1-.57-1.879m5.642 7.654-1.062 1.059c.258.236.414.564.434.913 0 .993-1.482 1.863-3.17 1.863s-3.17-.87-3.17-1.863c.02-.35.176-.677.435-.913L8.202 15.3c-.345.341-.6.76-.745 1.223h-1.99v1.5h1.979c.168.522.474.988.885 1.35l-1.29 1.29L8.1 21.724l1.537-1.537a6 6 0 0 0 1.61.405V22.5h1.5v-1.908a6 6 0 0 0 1.61-.405l1.537 1.537 1.06-1.06-1.289-1.29c.412-.362.717-.828.885-1.35h1.979v-1.5H16.54a2.94 2.94 0 0 0-.745-1.224" clip-rule="evenodd"/></svg>