<svg xmlns="http://www.w3.org/2000/svg" viewBox="0 0 24 24"><path fill-rule="evenodd" d="m4.2 14.222-.904 1.196A4.47 4.47 0 0 1 1.5 11.836 4.58 4.58 0 0 1 5.475 7.35a6.24 6.24 0 0 1 6.2-5.1 6.32 6.32 0 0 1 5.488 3.156h.038A5.336 5.336 0 0 1 22.5 10.89a5.63 5.63 0 0 1-1.631 3.953l-1.06-1.06A4.1 4.1 0 0 0 21 10.888a3.85 3.85 0 0 0-4.031-3.98l-.234.005-.496.016-.21-.45a4.79 4.79 0 0 0-4.354-2.73 4.715 4.715 0 0 0-4.776 4.344l-.043.705H6.15A3.1 3.1 0 0 0 3 11.836a2.98 2.98 0 0 0 1.2 2.386m8.55 2.01 1.374-1.36 1.054 1.063L12 19.085l-3.178-3.147 1.054-1.066 1.374 1.36v-5.064h1.5zm6-2.094V19.2l1.374-1.361 1.055 1.066L18 22.055l-3.178-3.149 1.054-1.066 1.374 1.36v-5.062zm-12 5.062v-5.062h-1.5V19.2l-1.374-1.358-1.054 1.066L6 22.055l3.178-3.15-1.054-1.066z" clip-rule="evenodd"/></svg>