<svg xmlns="http://www.w3.org/2000/svg" xml:space="preserve" viewBox="0 0 32 32"><path d="M18.832 19.829 17 21.643V14.89h-2v6.753l-1.832-1.814-1.406 1.422L16 25.447l4.238-4.196zM25 25.603V18.85h-2v6.753l-1.832-1.814-1.406 1.422L24 29.407l4.238-4.196-1.406-1.422zm-16 0V18.85H7v6.753l-1.832-1.814-1.406 1.422L8 29.407l4.238-4.196-1.406-1.422z"/><path d="m4.395 20.557 1.209-1.594C4.585 18.189 4 17.029 4 15.781c0-2.232 1.884-4.049 4.2-4.049h.942l.056-.94C9.393 7.544 12.189 5 15.566 5c2.501 0 4.78 1.429 5.807 3.64l.279.6.661-.022c.071-.002.55-.01.62-.01 2.841 0 5.066 2.333 5.066 5.311a5.48 5.48 0 0 1-1.589 3.856l1.414 1.414A7.5 7.5 0 0 0 30 14.519c0-4.1-3.104-7.311-7.066-7.311h-.05C21.419 4.632 18.616 3 15.566 3 11.439 3 7.97 5.92 7.303 9.795 4.308 10.22 2 12.743 2 15.781c0 1.879.873 3.62 2.395 4.776"/></svg>