<svg xmlns="http://www.w3.org/2000/svg" viewBox="0 0 24 24"><path d="M22.478 10.38c0-3.157-2.326-5.625-5.303-5.625h-.03a6.29 6.29 0 0 0-5.497-3.247 6.29 6.29 0 0 0-6.203 5.25c-2.242.33-3.975 2.265-3.975 4.597 0 2.513 2.003 4.553 4.493 4.643v6.465h9.014v-2.97h2.985v-3.548c2.566-.405 4.508-2.76 4.508-5.557zm-8.986 10.583H7.478v-9h6.015zm2.978-2.97h-1.485v-7.53h-4.537v-1.47h6.022zm1.5-3.593V7.485H8.948v2.97H5.963v4.028a3.146 3.146 0 0 1-2.993-3.135c0-1.68 1.402-3.135 3.128-3.15l.727.052.045-.757A4.78 4.78 0 0 1 11.648 3a4.77 4.77 0 0 1 4.35 2.82l.202.458.503-.015.465-.008c2.13 0 3.802 1.815 3.802 4.125 0 1.973-1.282 3.623-3.008 4.02zm-5.962 1.365H8.993v-1.5h3.015zm-3 1.5h3.015v1.5H9.008z"/></svg>