<svg xmlns="http://www.w3.org/2000/svg" viewBox="0 0 24 24"><g clip-path="url(#a)"><path d="M12.75 17.388V15.75h4.05c2.73 0 4.95-2.356 4.95-5.25 0-2.942-2.172-5.248-4.945-5.25a5.86 5.86 0 0 0-5.106-3 5.86 5.86 0 0 0-5.773 4.852A4.36 4.36 0 0 0 2.25 11.4a4.355 4.355 0 0 0 4.35 4.35h4.65v1.638a2.25 2.25 0 0 0-1.362 1.362H3v1.5h6.888c.31.87 1.136 1.5 2.112 1.5s1.802-.63 2.112-1.5H21v-1.5h-6.888a2.25 2.25 0 0 0-1.362-1.362m-9-5.988A2.853 2.853 0 0 1 6.6 8.55h.707l.041-.707A4.357 4.357 0 0 1 11.7 3.75a4.36 4.36 0 0 1 3.965 2.566l.207.458.502-.017c.052-.002.377-.007.426-.007 1.934 0 3.45 1.647 3.45 3.75 0 2.068-1.547 3.75-3.45 3.75H6.6a2.854 2.854 0 0 1-2.85-2.85M12 20.25a.75.75 0 1 1 0-1.5.75.75 0 0 1 0 1.5"/></g><defs><clipPath id="a"><path d="M0 0h24v24H0z"/></clipPath></defs></svg>