<svg xmlns="http://www.w3.org/2000/svg" xml:space="preserve" viewBox="0 0 32 32"><path d="M22.934 8.283h-.045A8.4 8.4 0 0 0 15.566 4C11.434 4 7.962 6.975 7.3 10.918 4.307 11.351 2 13.91 2 16.993c0 3.386 2.781 6.141 6.2 6.141H15V28h2v-4.866h5.934c3.896 0 7.066-3.331 7.066-7.425 0-4.164-3.104-7.426-7.066-7.426m0 12.851H17v-5.85l2.654 2.45 1.357-1.469L16 11.639l-5.012 4.626 1.357 1.469L15 15.284v5.85H8.2c-2.316 0-4.2-1.857-4.2-4.141s1.884-4.14 4.2-4.14h.943l.055-.941C9.394 8.597 12.19 6 15.566 6c2.498 0 4.776 1.456 5.804 3.709l.277.606.666-.022c.069-.002.549-.011.62-.011 2.841 0 5.066 2.383 5.066 5.425.001 2.993-2.271 5.427-5.065 5.427"/></svg>