<svg xmlns="http://www.w3.org/2000/svg" width="24" height="24"><path fill-rule="evenodd" d="M21 11.25v.888a2.25 2.25 0 0 1 1.5 2.112v4.5A2.25 2.25 0 0 1 20.25 21h-4.5a2.25 2.25 0 0 1-2.25-2.25v-1.125H6.353A4.79 4.79 0 0 1 1.52 13.39a4.6 4.6 0 0 1 1.2-3.553 4.67 4.67 0 0 1 3.157-1.5 5.944 5.944 0 0 1 11.789-.053q.166-.027.334-.034a3 3 0 0 1 3 3m-1.5.75v-.75a1.5 1.5 0 1 0-3 0V12zM4.132 15.336a3.28 3.28 0 0 0 2.221.789H13.5V14.25a2.25 2.25 0 0 1 1.5-2.112v-.888a2.99 2.99 0 0 1 1.214-2.396 4.445 4.445 0 0 0-8.883.225v.75H6.15a3.16 3.16 0 0 0-2.987 2.142 3.1 3.1 0 0 0-.15 1.29 3.28 3.28 0 0 0 1.119 2.075M20.78 19.28a.75.75 0 0 0 .22-.53v-4.5a.75.75 0 0 0-.75-.75h-4.5a.75.75 0 0 0-.75.75v4.5a.75.75 0 0 0 .75.75h4.5a.75.75 0 0 0 .53-.22m-1.947-4.027a1.5 1.5 0 1 0-1.667 2.495 1.5 1.5 0 0 0 1.667-2.495" clip-rule="evenodd"/></svg>