<svg xmlns="http://www.w3.org/2000/svg" width="24" height="24"><g clip-path="url(#a)"><path d="M17.94 9.83a5.44 5.44 0 0 0-4.299-2.697C12.797 5.53 11.138 4.5 9.323 4.5a4.91 4.91 0 0 0-4.815 3.96A3.68 3.68 0 0 0 1.5 12.076a3.676 3.676 0 0 0 3.01 3.608c.107 2.122 1.876 3.817 4.04 3.817h9.35c2.536 0 4.6-2.17 4.6-4.835 0-2.698-2-4.814-4.56-4.835M4.72 14.2A2.18 2.18 0 0 1 3 12.076c0-1.2.976-2.175 2.175-2.175h.707l.042-.706A3.403 3.403 0 0 1 9.322 6c1.03 0 1.987.479 2.623 1.261-2.062.496-3.68 2.156-4.065 4.257A4.05 4.05 0 0 0 4.721 14.2M17.9 18H8.55C7.144 18 6 16.87 6 15.482s1.144-2.518 2.55-2.518h.707l.042-.706c.12-2.047 1.845-3.652 3.926-3.652 1.54 0 2.944.9 3.577 2.292l.21.456.501-.017c.05-.002.34-.007.386-.007 1.739 0 3.101 1.466 3.101 3.335C21 16.505 19.61 18 17.9 18"/></g><defs><clipPath id="a"><path d="M0 0h24v24H0z"/></clipPath></defs></svg>