<svg xmlns="http://www.w3.org/2000/svg" xml:space="preserve" viewBox="0 0 32 32"><path d="M24.024 4.162C21.934 2.748 19.434 2 16.795 2 9.071 2 2.787 8.284 2.787 16.007c0 1.377.199 2.737.592 4.042a14.15 14.15 0 0 0 6.584 8.19l.488-.873-.387.929a13.9 13.9 0 0 0 6.662 1.706c.758 0 1.515-.063 2.263-.19a13 13 0 0 0 2.264-.605 16.9 16.9 0 0 0 4.473-2.466c.838-.647 2.397-1.853 2.084-3.571-.216-1.178-1.302-1.97-2.654-1.977a12 12 0 0 0-1.056.07c-.821.082-1.667.079-2.092-.283-.267-.228-.419-.549-.389-.818.04-.348.341-.765.826-1.144.617-.481 1.327-.868 2.08-1.276 1.232-.67 2.507-1.362 3.49-2.552h.001a5.2 5.2 0 0 0 1.139-2.481c.567-3.359-2.279-6.616-5.131-8.546m3.159 8.212a3.2 3.2 0 0 1-.709 1.541c-.736.892-1.789 1.463-2.903 2.069-.791.43-1.608.874-2.355 1.458-.65.508-1.453 1.353-1.582 2.495-.106.938.295 1.896 1.075 2.562.639.546 1.471.823 2.475.825.371 0 .741-.034 1.111-.07.293-.029.585-.059.881-.062.285.003.629.124.668.336.095.521-.839 1.242-1.34 1.629a14.9 14.9 0 0 1-3.943 2.173c-.618.229-1.259.4-1.905.51-1.287.22-2.602.217-3.911-.007a12 12 0 0 1-3.804-1.339 12.13 12.13 0 0 1-5.646-7.021 12 12 0 0 1-.507-3.465C4.787 9.386 10.174 4 16.795 4c2.237 0 4.351.629 6.108 1.818 2.407 1.628 4.662 4.286 4.28 6.556"/><path d="M18.529 6.336a2.737 2.737 0 0 0-2.734 2.734 2.74 2.74 0 0 0 2.734 2.734 2.737 2.737 0 0 0 2.733-2.734 2.736 2.736 0 0 0-2.733-2.734m0 3.468a.734.734 0 1 1 .001-1.469.734.734 0 0 1-.001 1.469m-6.937 3.735a2.737 2.737 0 0 0 2.734-2.734c0-1.507-1.227-2.734-2.734-2.734s-2.734 1.227-2.734 2.734a2.736 2.736 0 0 0 2.734 2.734m0-3.469a.734.734 0 1 1-.001 1.469.734.734 0 0 1 .001-1.469m-1.909 4.937a2.737 2.737 0 0 0-2.734 2.735c0 1.507 1.227 2.733 2.734 2.733s2.734-1.227 2.734-2.733a2.74 2.74 0 0 0-2.734-2.735m0 3.469a.734.734 0 1 1 0-1.469.734.734 0 0 1 0 1.469m5.179 1.8c-1.508 0-2.734 1.227-2.734 2.734s1.227 2.734 2.734 2.734 2.734-1.227 2.734-2.734-1.226-2.734-2.734-2.734m0 3.469a.734.734 0 1 1 .001-1.469.734.734 0 0 1-.001 1.469"/></svg>