<svg xmlns="http://www.w3.org/2000/svg" viewBox="0 0 24 24"><path fill-rule="evenodd" d="M13.897 4.752a2.05 2.05 0 1 0-.002 4.101 2.05 2.05 0 0 0 .002-4.101m0 2.601a.55.55 0 1 1 .387-.163.55.55 0 0 1-.387.16zM9.833 9.809a2.05 2.05 0 1 1-2.278-3.41 2.05 2.05 0 0 1 2.278 3.41M9 7.645a.55.55 0 1 0-.612.916A.55.55 0 0 0 9 7.645m-1.738 3.61a2.05 2.05 0 1 0 0 4.1 2.05 2.05 0 0 0 0-4.1m0 2.602a.55.55 0 1 1 0-1.101.55.55 0 0 1 0 1.101m2.746 1.697a2.051 2.051 0 1 1 2.283 3.408 2.051 2.051 0 0 1-2.283-3.408m.833 2.162a.55.55 0 1 0 .611-.916.55.55 0 0 0-.611.916" clip-rule="evenodd"/><path fill-rule="evenodd" d="M18.018 3.122A9.63 9.63 0 0 0 12.6 1.5a10.506 10.506 0 0 0-5.128 19.68l.366-.655-.29.696a10.4 10.4 0 0 0 4.996 1.279q.856 0 1.698-.142a9.6 9.6 0 0 0 1.698-.45 12.7 12.7 0 0 0 3.354-1.85c.629-.485 1.8-1.39 1.563-2.678a1.92 1.92 0 0 0-1.99-1.483 8 8 0 0 0-.734.047l-.058.005a2.3 2.3 0 0 1-1.57-.212.75.75 0 0 1-.29-.613 1.47 1.47 0 0 1 .619-.858 11 11 0 0 1 1.56-.957 8.3 8.3 0 0 0 2.617-1.914 3.9 3.9 0 0 0 .854-1.861c.426-2.522-1.708-4.965-3.847-6.412m2.37 6.159c-.07.426-.254.825-.533 1.155a7.1 7.1 0 0 1-2.175 1.552q-.929.473-1.766 1.094a2.9 2.9 0 0 0-1.186 1.874 2.22 2.22 0 0 0 .804 1.919 2.78 2.78 0 0 0 1.856.619c.278 0 .556-.026.833-.053l.026-.002c.21-.021.421-.042.635-.044.222-.003.472.093.5.252.072.39-.627.93-1.003 1.22l-.001.002c-.897.69-1.895 1.24-2.957 1.63q-.697.256-1.43.382a8.7 8.7 0 0 1-2.932-.006c-1-.17-1.964-.51-2.85-1.004A9.007 9.007 0 0 1 12.599 3a8.13 8.13 0 0 1 4.576 1.364c1.807 1.22 3.499 3.211 3.212 4.917" clip-rule="evenodd"/></svg>