<svg xmlns="http://www.w3.org/2000/svg" viewBox="0 0 24 24"><path fill-rule="evenodd" d="m11.25 4.404 5.244-3.04 5.244 3.04v5.394l-5.244 3.04-5.243-3.04zm5.244 2.165 3.004-1.738-3.004-1.737-3.003 1.737zm-3.745-.434v2.801l2.996 1.738V7.873zm4.494 4.532 2.997-1.738V6.127l-2.997 1.738zm1.499 6.03V12.74h1.498v3.948a2.05 2.05 0 0 1-2.045 2.045h-4.81l.375 2.247h1.236v1.498h-7.49V20.98h1.236l.374-2.247H4.307a2.05 2.05 0 0 1-2.045-2.045V8.801c0-1.123.914-2.044 2.045-2.044h5.446v1.498H4.307a.55.55 0 0 0-.547.546v7.896c0 .3.247.546.547.546h13.888a.55.55 0 0 0 .546-.546m-8.48 4.292h1.978l-.375-2.247h-1.228z" clip-rule="evenodd"/></svg>