<svg xmlns="http://www.w3.org/2000/svg" viewBox="0 0 24 24"><path fill-rule="evenodd" d="M20.25 5.625c0 .867-.27 1.671-.729 2.335l2.76 2.76-1.061 1.06-2.76-2.759a4.1 4.1 0 0 1-2.335.729A4.13 4.13 0 0 1 12 5.625 4.13 4.13 0 0 1 16.125 1.5a4.13 4.13 0 0 1 4.125 4.125M16.125 3A2.63 2.63 0 0 0 13.5 5.625a2.63 2.63 0 0 0 2.625 2.625 2.63 2.63 0 0 0 2.625-2.625A2.63 2.63 0 0 0 16.125 3" clip-rule="evenodd"/><path fill-rule="evenodd" d="M18.2 17.25a.55.55 0 0 0 .55-.55v-3.95h1.5v3.95c0 1.13-.92 2.05-2.05 2.05h-4.814l.375 2.25H15v1.5H7.5V21h1.239l.375-2.25H4.3c-1.13 0-2.05-.92-2.05-2.05V8.8c0-1.13.92-2.05 2.05-2.05h6.2v1.5H4.3a.55.55 0 0 0-.55.55v7.9c0 .303.247.55.55.55zM10.26 21h1.98l-.376-2.25h-1.229z" clip-rule="evenodd"/></svg>