<svg xmlns="http://www.w3.org/2000/svg" viewBox="0 0 24 24"><g clip-path="url(#a)"><path fill-rule="evenodd" d="M5.25 18h1.5v-3H12v4.5H2.25V18h1.5V1.5H15v2.25h5.25v4.5h-1.5v-3H15v3h-1.5V3H5.25zm5.25-1.5H8.25V18h2.25zM8.25 5.25h-1.5v1.5h1.5zm0 3h-1.5v1.5h1.5zm-1.5 3h1.5v1.5h-1.5zm5.25-6h-1.5v1.5H12zm-1.5 3H12v1.5h-1.5zm1.5 3h-1.5v1.5H12zm9 2.388v-.888c0-1.655-1.346-3-3-3s-3 1.345-3 3v.888c-.87.31-1.5 1.136-1.5 2.112v4.5c0 1.24 1.01 2.25 2.25 2.25h4.5c1.24 0 2.25-1.01 2.25-2.25v-4.5c0-.976-.63-1.802-1.5-2.112m-4.5-.888c0-.827.673-1.5 1.5-1.5s1.5.673 1.5 1.5v.75h-3zm4.5 7.5a.75.75 0 0 1-.75.75h-4.5a.75.75 0 0 1-.75-.75v-4.5a.75.75 0 0 1 .75-.75h4.5a.75.75 0 0 1 .75.75zM19.5 18a1.5 1.5 0 1 1-3 0 1.5 1.5 0 0 1 3 0" clip-rule="evenodd"/></g><defs><clipPath id="a"><path d="M0 0h24v24H0z"/></clipPath></defs></svg>