<svg xmlns="http://www.w3.org/2000/svg" viewBox="0 0 24 24"><path d="M18.75 14.145v2.55a.55.55 0 0 1-.547.547H4.298a.55.55 0 0 1-.548-.547V8.797c0-.3.248-.547.548-.547h5.445v-1.5H4.297A2.045 2.045 0 0 0 2.25 8.797v7.898c0 1.132.915 2.047 2.048 2.047h4.815L8.738 21H7.5v1.5H15V21h-1.238l-.375-2.258h4.816a2.045 2.045 0 0 0 2.047-2.047v-2.55zM10.26 21l.375-2.25h1.23L12.24 21zm6.24-7.125-.15-.03c-.21-.045-5.1-1.11-5.1-8.835v-.593l.578-.135s2.64-.637 4.342-1.485l.337-.165.338.165c1.703.848 4.313 1.478 4.343 1.485l.577.135v.593c0 7.725-4.898 8.797-5.1 8.835l-.15.03zm-3.742-8.288c.195 5.295 3.037 6.518 3.742 6.743.698-.218 3.547-1.44 3.742-6.743-.84-.225-2.437-.69-3.742-1.29-1.305.6-2.895 1.065-3.742 1.29m4.492 5.558h-1.5v-1.5h1.5zm0-2.985h-1.5V5.145h1.5z"/></svg>