<svg xmlns="http://www.w3.org/2000/svg" xml:space="preserve" viewBox="0 0 32 32"><path d="M25 20.267a.734.734 0 0 1-.733.733H5.733A.734.734 0 0 1 5 20.267V9.733C5 9.329 5.329 9 5.733 9H18V7H5.733A2.737 2.737 0 0 0 3 9.733v10.533A2.74 2.74 0 0 0 5.733 23h6.419l-.5 3H10v2h10v-2h-1.652l-.5-3h6.419A2.737 2.737 0 0 0 27 20.267V16h-2zM16.319 26H13.68l.5-3h1.639z"/><path d="m29.707 5.707-1.414-1.414L25 7.586l-3.293-3.293-1.414 1.414L23.586 9l-3.293 3.293 1.414 1.414L25 10.414l3.293 3.293 1.414-1.414L26.414 9z"/></svg>