<svg xmlns="http://www.w3.org/2000/svg" xml:space="preserve" viewBox="0 0 32 32"><path d="M25 22.267a.734.734 0 0 1-.733.733H5.733A.734.734 0 0 1 5 22.267V11.733c0-.404.329-.733.733-.733H14V9H5.733A2.737 2.737 0 0 0 3 11.733v10.533A2.74 2.74 0 0 0 5.733 25h6.419l-.5 3H10v2h10v-2h-1.652l-.5-3h6.419A2.737 2.737 0 0 0 27 22.267V18h-2zM16.319 28H13.68l.5-3h1.639z"/><path d="M23 2c-3.859 0-7 3.14-7 7s3.141 7 7 7 7-3.14 7-7-3.141-7-7-7m0 12c-2.757 0-5-2.243-5-5s2.243-5 5-5 5 2.243 5 5-2.243 5-5 5"/><path d="M20 8h6v2h-6z"/></svg>