<svg xmlns="http://www.w3.org/2000/svg" xml:space="preserve" viewBox="0 0 32 32"><path d="M27 7.184V6c0-2.206-1.794-4-4-4s-4 1.794-4 4v1.184A3 3 0 0 0 17 10v6c0 1.654 1.346 3 3 3h6c1.654 0 3-1.346 3-3v-6a3 3 0 0 0-2-2.816M21 6c0-1.103.897-2 2-2s2 .897 2 2v1h-4zm6 10c0 .551-.448 1-1 1h-6c-.552 0-1-.449-1-1v-6c0-.551.448-1 1-1h6c.552 0 1 .449 1 1z"/><circle cx="23" cy="13" r="2"/><path d="M25 22.267a.734.734 0 0 1-.733.733H5.733A.734.734 0 0 1 5 22.267V11.733c0-.404.329-.733.733-.733H15V9H5.733A2.737 2.737 0 0 0 3 11.733v10.533A2.74 2.74 0 0 0 5.733 25h6.419l-.5 3H10v2h10v-2h-1.652l-.5-3h6.419A2.737 2.737 0 0 0 27 22.267V21h-2zM16.319 28H13.68l.5-3h1.639z"/></svg>