<svg xmlns="http://www.w3.org/2000/svg" viewBox="0 0 24 24"><path d="M17.47 4.72a.75.75 0 1 0 1.058 1.06.75.75 0 0 0-1.058-1.06"/><path fill-rule="evenodd" d="M19.95 2.042a3.77 3.77 0 0 1 1.775 2.778 3.73 3.73 0 0 1-4.245 4.131l-3.799 3.799H10.5V9.568l3.798-3.798a3.75 3.75 0 0 1 1.79-3.75 3.72 3.72 0 0 1 3.863.022m-2.524 5.371a2.23 2.23 0 0 0 2.165-.572 2.254 2.254 0 0 0-.433-3.526 2.24 2.24 0 0 0-2.293-.013c-.886.539-1.29 1.529-1.027 2.522l.11.417L12 10.19v1.061h1.06l3.948-3.947z" clip-rule="evenodd"/><path fill-rule="evenodd" d="M18.75 16.7a.55.55 0 0 1-.55.55H4.3a.55.55 0 0 1-.55-.55V8.8a.55.55 0 0 1 .55-.55h5.45v-1.5H4.3c-1.13 0-2.05.92-2.05 2.05v7.9c0 1.13.92 2.05 2.05 2.05h4.814L8.739 21H7.5v1.5H15V21h-1.239l-.375-2.25H18.2c1.13 0 2.05-.92 2.05-2.05v-6.2h-1.5zM12.24 21h-1.98l.375-2.25h1.23z" clip-rule="evenodd"/></svg>