<svg xmlns="http://www.w3.org/2000/svg" viewBox="0 0 24 24"><path fill-rule="evenodd" d="M10.5 7.5c0-3.308 2.692-6 6-6s6 2.692 6 6-2.692 6-6 6-6-2.692-6-6m8.976-.75h1.457a4.5 4.5 0 0 0-2.076-3.076c.347.888.555 1.965.619 3.076m-4.444 1.5c.155 2.339.989 3.75 1.468 3.75.48 0 1.313-1.412 1.468-3.75zM16.5 3c-.48 0-1.313 1.412-1.468 3.75h2.936C17.813 4.412 16.979 3 16.5 3m-2.975 3.75c.064-1.11.272-2.188.618-3.076a4.5 4.5 0 0 0-2.075 3.076zm-.001 1.5h-1.456c.22 1.3.995 2.409 2.076 3.076-.348-.888-.556-1.965-.62-3.076m5.952 0c-.064 1.11-.273 2.188-.62 3.076a4.5 4.5 0 0 0 2.076-3.076z" clip-rule="evenodd"/><path fill-rule="evenodd" d="M18.2 17.25a.55.55 0 0 0 .55-.55v-2.45h1.5v2.45c0 1.13-.92 2.05-2.05 2.05h-4.814l.375 2.25H15v1.5H7.5V21h1.239l.375-2.25H4.3c-1.13 0-2.05-.92-2.05-2.05V8.8c0-1.13.92-2.05 2.05-2.05H9v1.5H4.3a.55.55 0 0 0-.55.55v7.9c0 .303.247.55.55.55zM10.26 21h1.98l-.376-2.25h-1.229z" clip-rule="evenodd"/></svg>