<svg xmlns="http://www.w3.org/2000/svg" width="24" height="24"><path fill-rule="evenodd" d="M6.75 15H12v3h.72v1.5H2.25V18h1.5V1.5H15v2.25h5.25V9h-1.5V5.25H15V9h-1.5V3H5.25v15h1.5zm1.5 1.5V18h2.25v-1.5zm0-11.25h-1.5v1.5h1.5zm9.375 5.25a4.125 4.125 0 0 0-4.125 4.125c0 4.125 4.125 7.875 4.125 7.875s4.125-3.75 4.125-7.875a4.125 4.125 0 0 0-4.125-4.125m0 9.817C16.549 19.057 15 16.856 15 14.625a2.625 2.625 0 0 1 5.25 0c0 2.23-1.55 4.433-2.625 5.692m0-6.817a1.125 1.125 0 1 1 0 2.25 1.125 1.125 0 0 1 0-2.25M6.75 8.25h1.5v1.5h-1.5zm1.5 3h-1.5v1.5h1.5zm2.25-6H12v1.5h-1.5zm1.5 3h-1.5v1.5H12zm-1.5 3H12v1.5h-1.5z" clip-rule="evenodd"/></svg>