<svg xmlns="http://www.w3.org/2000/svg" viewBox="0 0 24 24"><path fill-rule="evenodd" d="M15 8.389V3.934l6.75-1.929V9.75c0 1.24-1.01 2.25-2.25 2.25s-2.25-1.01-2.25-2.25S18.26 7.5 19.5 7.5c.264 0 .515.054.75.138V3.994L16.5 5.065V10.5c0 1.24-1.01 2.25-2.25 2.25S12 11.74 12 10.5s1.01-2.25 2.25-2.25c.264 0 .515.054.75.139M13.5 10.5a.75.75 0 1 0 1.502-.002.75.75 0 0 0-1.502.002m5.25-.75a.75.75 0 1 0 1.502-.002.75.75 0 0 0-1.502.002" clip-rule="evenodd"/><path fill-rule="evenodd" d="M18.2 17.25a.55.55 0 0 0 .55-.55v-3.2h1.5v3.2c0 1.13-.92 2.05-2.05 2.05h-4.814l.375 2.25H15v1.5H7.5V21h1.239l.375-2.25H4.3c-1.13 0-2.05-.92-2.05-2.05V8.8c0-1.13.92-2.05 2.05-2.05h6.95v1.5H4.3a.55.55 0 0 0-.55.55v7.9c0 .303.247.55.55.55zM10.26 21h1.98l-.376-2.25h-1.229z" clip-rule="evenodd"/></svg>