<svg xmlns="http://www.w3.org/2000/svg" viewBox="0 0 24 24"><path d="M17.25 8.25a1.5 1.5 0 1 1 0 3 1.5 1.5 0 0 1 0-3"/><path fill-rule="evenodd" d="M20.25 5.388V4.5a3 3 0 0 0-6 0v.888a2.25 2.25 0 0 0-1.5 2.112V12A2.25 2.25 0 0 0 15 14.25h4.5A2.25 2.25 0 0 0 21.75 12V7.5a2.25 2.25 0 0 0-1.5-2.112m-4.5-.888a1.5 1.5 0 1 1 3 0v.75h-3zm4.5 7.5a.75.75 0 0 1-.75.75H15a.75.75 0 0 1-.75-.75V7.5a.75.75 0 0 1 .75-.75h4.5a.75.75 0 0 1 .75.75z" clip-rule="evenodd"/><path fill-rule="evenodd" d="M18.589 17.089a.55.55 0 0 0 .161-.389v-.95h1.5v.95a2.053 2.053 0 0 1-2.05 2.05h-4.814l.375 2.25H15v1.5H7.5V21h1.239l.375-2.25H4.3a2.054 2.054 0 0 1-2.05-2.05V8.8A2.053 2.053 0 0 1 4.3 6.75h6.95v1.5H4.3a.55.55 0 0 0-.55.55v7.9a.55.55 0 0 0 .55.55h13.9a.55.55 0 0 0 .389-.161M10.26 21h1.98l-.376-2.25h-1.229z" clip-rule="evenodd"/></svg>