<svg xmlns="http://www.w3.org/2000/svg" viewBox="0 0 24 24"><g clip-path="url(#a)"><path fill-rule="evenodd" d="M17.915 2.928c.88-.88 2.315-.88 3.195 0a2.26 2.26 0 0 1 0 3.194l-5.87 5.87a3.7 3.7 0 0 1-1.12.772l-3.369 1.514-.991-.992 1.513-3.368c.188-.418.447-.795.772-1.12zm-3.735 8.004 5.87-5.87a.758.758 0 1 0-1.074-1.072l-5.87 5.87a2.2 2.2 0 0 0-.465.674l-.704 1.568 1.569-.704a2.3 2.3 0 0 0 .674-.466m4.02 6.318a.55.55 0 0 0 .55-.55v-6.2h1.5v6.2c0 1.13-.92 2.05-2.05 2.05h-4.814l.375 2.25H15v1.5H7.5V21h1.239l.375-2.25H4.3c-1.13 0-2.05-.92-2.05-2.05V8.8c0-1.13.92-2.05 2.05-2.05h6.95v1.5H4.3a.55.55 0 0 0-.55.55v7.9c0 .303.247.55.55.55zM10.26 21h1.98l-.376-2.25h-1.229z" clip-rule="evenodd"/></g><defs><clipPath id="a"><path d="M0 0h24v24H0z"/></clipPath></defs></svg>