<svg xmlns="http://www.w3.org/2000/svg" viewBox="0 0 24 24"><path fill-rule="evenodd" d="M20.25 1.5V3h1.5v7.5c0 1.24-1.01 2.25-2.25 2.25h-6.075c-1.24 0-2.25-1.01-2.25-2.25V3h1.575V1.5h1.5V3h4.5V1.5zm0 4.5V4.5h-7.575V6zm-6.825 5.25H19.5a.75.75 0 0 0 .75-.75v-3h-7.575v3c0 .413.336.75.75.75" clip-rule="evenodd"/><path fill-rule="evenodd" d="M18.2 17.25a.55.55 0 0 0 .55-.55v-2.45h1.5v2.45c0 1.13-.92 2.05-2.05 2.05h-4.814l.375 2.25H15v1.5H7.5V21h1.239l.375-2.25H4.3c-1.13 0-2.05-.92-2.05-2.05V8.8c0-1.13.92-2.05 2.05-2.05h5.45v1.5H4.3a.55.55 0 0 0-.55.55v7.9c0 .303.247.55.55.55zM10.26 21h1.98l-.376-2.25h-1.229z" clip-rule="evenodd"/></svg>