<svg xmlns="http://www.w3.org/2000/svg" xml:space="preserve" viewBox="0 0 32 32"><path d="M25 22.267a.734.734 0 0 1-.733.733H5.733A.734.734 0 0 1 5 22.267V11.733c0-.404.329-.733.733-.733H12V9H5.733A2.737 2.737 0 0 0 3 11.733v10.533A2.74 2.74 0 0 0 5.733 25h6.419l-.5 3H10v2h10v-2h-1.652l-.5-3h6.419A2.737 2.737 0 0 0 27 22.267V19h-2zM16.319 28H13.68l.5-3h1.639z"/><path d="M22 2c-4.411 0-8 3.589-8 8s3.589 8 8 8 8-3.589 8-8-3.589-8-8-8m5.91 7h-1.942c-.086-1.481-.363-2.917-.826-4.102A6 6 0 0 1 27.91 9M22 16c-.639 0-1.751-1.882-1.957-5h3.914c-.206 3.118-1.318 5-1.957 5m-1.957-7c.206-3.118 1.318-5 1.957-5s1.751 1.882 1.957 5zm-1.185-4.102c-.462 1.185-.739 2.621-.825 4.102H16.09a6 6 0 0 1 2.768-4.102M16.09 11h1.942c.086 1.481.363 2.917.826 4.102A6 6 0 0 1 16.09 11m9.052 4.102c.462-1.185.74-2.621.826-4.102h1.942a6 6 0 0 1-2.768 4.102"/></svg>