<svg xmlns="http://www.w3.org/2000/svg" viewBox="0 0 24 24"><path d="M16.514 3.763v1.5h1.5v-1.5zm0 6v-3h1.5v3z"/><path fill-rule="evenodd" d="M12.014 6.763a5.256 5.256 0 0 1 5.25-5.25 5.256 5.256 0 0 1 5.25 5.25 5.256 5.256 0 0 1-5.25 5.25 5.256 5.256 0 0 1-5.25-5.25m1.5 0a3.754 3.754 0 0 0 3.75 3.75 3.755 3.755 0 0 0 3.75-3.75 3.754 3.754 0 0 0-3.75-3.75 3.754 3.754 0 0 0-3.75 3.75" clip-rule="evenodd"/><path fill-rule="evenodd" d="M18.2 17.25a.55.55 0 0 0 .55-.55v-3.2h1.5v3.2c0 1.13-.92 2.05-2.05 2.05h-4.814l.375 2.25H15v1.5H7.5V21h1.239l.375-2.25H4.3c-1.13 0-2.05-.92-2.05-2.05V8.8c0-1.13.92-2.05 2.05-2.05h6.2v1.5H4.3a.55.55 0 0 0-.55.55v7.9c0 .303.247.55.55.55zM10.26 21h1.98l-.376-2.25h-1.229z" clip-rule="evenodd"/></svg>