<svg xmlns="http://www.w3.org/2000/svg" viewBox="0 0 24 24"><path fill-rule="evenodd" d="M11.25 10.5h1.276l3.974 3.741V1.514L12.51 5.25h-1.26c-.827 0-1.5.757-1.5 1.688v1.875c0 .93.673 1.687 1.5 1.687m0-3.562c0-.048.008-.088.013-.12.009-.042.013-.068-.01-.068h1.851L15 4.974v5.795L13.12 9h-.296l-1.51.017c-.019-.016-.064-.09-.064-.204z" clip-rule="evenodd"/><path fill-rule="evenodd" d="M18.75 16.7a.55.55 0 0 1-.55.55H4.3a.55.55 0 0 1-.55-.55V8.8a.55.55 0 0 1 .55-.55h3.95v-1.5H4.3c-1.13 0-2.05.92-2.05 2.05v7.9c0 1.13.92 2.05 2.05 2.05h4.814L8.739 21H7.5v1.5H15V21h-1.239l-.375-2.25H18.2c1.13 0 2.05-.92 2.05-2.05v-3.2h-1.5zM12.24 21h-1.98l.375-2.25h1.23z" clip-rule="evenodd"/><path d="M18.008 5.25v-1.5a4.13 4.13 0 0 1 4.125 4.125A4.13 4.13 0 0 1 18.008 12v-1.5a2.63 2.63 0 0 0 2.625-2.625 2.63 2.63 0 0 0-2.625-2.625"/></svg>