<svg xmlns="http://www.w3.org/2000/svg" xml:space="preserve" viewBox="0 0 32 32"><path d="M25 22.267a.734.734 0 0 1-.733.733H5.733A.734.734 0 0 1 5 22.267V11.733c0-.404.329-.733.733-.733H16V9H5.733A2.737 2.737 0 0 0 3 11.733v10.533A2.74 2.74 0 0 0 5.733 25h6.419l-.5 3H10v2h10v-2h-1.652l-.5-3h6.419A2.737 2.737 0 0 0 27 22.267V20h-2zM16.319 28H13.68l.5-3h1.639zm6.699-19.982a3 3 0 1 0 0-6 3 3 0 0 0 0 6m0-4c.551 0 1 .449 1 1s-.449 1-1 1-1-.449-1-1a1 1 0 0 1 1-1"/><path d="M24.018 9.018h-2c-2.757 0-5 2.243-5 5v4h12v-4c0-2.757-2.244-5-5-5m3 7h-8v-2c0-1.654 1.346-3 3-3h2c1.654 0 3 1.346 3 3z"/></svg>