<svg xmlns="http://www.w3.org/2000/svg" width="24" height="24"><g clip-path="url(#a)"><path fill-rule="evenodd" d="M17.264 6.013a2.25 2.25 0 1 0 0-4.5 2.25 2.25 0 0 0 0 4.5m0-3c.413 0 .75.337.75.75a.751.751 0 1 1-.75-.75M18.75 16.7a.55.55 0 0 1-.55.55H4.3a.55.55 0 0 1-.55-.55V8.8a.55.55 0 0 1 .55-.55H12v-1.5H4.3c-1.13 0-2.05.92-2.05 2.05v7.9c0 1.13.92 2.05 2.05 2.05h4.814L8.739 21H7.5v1.5H15V21h-1.239l-.375-2.25H18.2c1.13 0 2.05-.92 2.05-2.05V15h-1.5zM12.24 21h-1.98l.375-2.25h1.23zm4.274-14.237h1.5a3.755 3.755 0 0 1 3.75 3.75v3h-9v-3a3.754 3.754 0 0 1 3.75-3.75m-2.25 5.25h6v-1.5c0-1.24-1.01-2.25-2.25-2.25h-1.5a2.253 2.253 0 0 0-2.25 2.25z" clip-rule="evenodd"/></g><defs><clipPath id="a"><path d="M0 0h24v24H0z"/></clipPath></defs></svg>