<svg xmlns="http://www.w3.org/2000/svg" xml:space="preserve" viewBox="0 0 32 32"><path d="M25 22.267a.734.734 0 0 1-.733.733H5.733A.734.734 0 0 1 5 22.267V11.733c0-.404.329-.733.733-.733H14V9H5.733A2.737 2.737 0 0 0 3 11.733v10.533A2.74 2.74 0 0 0 5.733 25h6.419l-.5 3H10v2h10v-2h-1.652l-.5-3h6.419A2.737 2.737 0 0 0 27 22.267V17h-2zM16.319 28H13.68l.5-3h1.639z"/><path d="M26.028 10.614A5.46 5.46 0 0 0 27 7.5C27 4.467 24.532 2 21.5 2S16 4.467 16 7.5s2.468 5.5 5.5 5.5a5.46 5.46 0 0 0 3.114-.972l3.679 3.679 1.414-1.414zM18 7.5C18 5.57 19.57 4 21.5 4S25 5.57 25 7.5 23.43 11 21.5 11 18 9.43 18 7.5"/></svg>