<svg xmlns="http://www.w3.org/2000/svg" viewBox="0 0 24 24"><g clip-path="url(#a)"><path fill-rule="evenodd" d="M17.25 1.5A5.256 5.256 0 0 0 12 6.75 5.256 5.256 0 0 0 17.25 12a5.256 5.256 0 0 0 5.25-5.25 5.256 5.256 0 0 0-5.25-5.25m0 9a3.754 3.754 0 0 1-3.75-3.75A3.754 3.754 0 0 1 17.25 3 3.754 3.754 0 0 1 21 6.75a3.754 3.754 0 0 1-3.75 3.75m1.5 6.2a.55.55 0 0 1-.55.55H4.3a.55.55 0 0 1-.55-.55V8.8a.55.55 0 0 1 .55-.55h6.2v-1.5H4.3c-1.13 0-2.05.92-2.05 2.05v7.9c0 1.13.92 2.05 2.05 2.05h4.814L8.739 21H7.5v1.5H15V21h-1.239l-.375-2.25H18.2c1.13 0 2.05-.92 2.05-2.05v-3.2h-1.5zM12.24 21h-1.98l.375-2.25h1.23zM15 6h4.5v1.5H15z" clip-rule="evenodd"/></g><defs><clipPath id="a"><path d="M0 0h24v24H0z"/></clipPath></defs></svg>