<svg xmlns="http://www.w3.org/2000/svg" xml:space="preserve" viewBox="0 0 32 32"><path d="M25 22.267a.734.734 0 0 1-.733.733H5.733A.734.734 0 0 1 5 22.267V11.733c0-.404.329-.733.733-.733H17V9H5.733A2.737 2.737 0 0 0 3 11.733v10.533A2.74 2.74 0 0 0 5.733 25h6.419l-.5 3H10v2h10v-2h-1.652l-.5-3h6.419A2.737 2.737 0 0 0 27 22.267V18h-2zM16.319 28H13.68l.5-3h1.639z"/><path d="M27.953 7.688 24 2.417l-3.953 5.27c-1.191 1.589-1.383 3.698-.498 5.503.847 1.728 2.476 2.778 4.354 2.809L24 16h.094c1.882-.031 3.511-1.081 4.357-2.809.885-1.806.694-3.914-.498-5.503M23.939 14c-1.115-.018-2.086-.649-2.595-1.689-.552-1.126-.437-2.438.302-3.423L24 5.75l2.354 3.137c.738.984.854 2.296.302 3.423-.509 1.04-1.479 1.671-2.598 1.689"/></svg>