<svg xmlns="http://www.w3.org/2000/svg" width="24" height="24"><g clip-path="url(#a)"><path fill-rule="evenodd" d="m21.22 3.22 1.06 1.06-2.47 2.47 2.47 2.47-1.06 1.06-2.47-2.47-2.47 2.47-1.06-1.06 2.47-2.47-2.47-2.47 1.06-1.06 2.47 2.47zM18.2 15.75a.55.55 0 0 0 .55-.55V12h1.5v3.2c0 1.13-.92 2.05-2.05 2.05h-4.814l.375 2.25H15V21H7.5v-1.5h1.239l.375-2.25H4.3c-1.13 0-2.05-.92-2.05-2.05V7.3c0-1.13.92-2.05 2.05-2.05h9.2v1.5H4.3a.55.55 0 0 0-.55.55v7.9c0 .303.247.55.55.55zm-7.94 3.75h1.98l-.376-2.25h-1.229z" clip-rule="evenodd"/></g><defs><clipPath id="a"><path d="M0 0h24v24H0z"/></clipPath></defs></svg>