<svg xmlns="http://www.w3.org/2000/svg" viewBox="0 0 24 24"><g clip-path="url(#a)"><path fill-rule="evenodd" d="M19.784 6h1.966v1.5h-1.966a3.4 3.4 0 0 1-.434 1.04l1.393 1.392-1.06 1.06L18.29 9.6a3.4 3.4 0 0 1-1.04.434V12h-1.5v-1.966a3.3 3.3 0 0 1-1.04-.434l-1.392 1.393-1.06-1.06L13.65 8.54a3.4 3.4 0 0 1-.434-1.04H11.25V6h1.966a3.3 3.3 0 0 1 .434-1.04l-1.393-1.392 1.06-1.06L14.71 3.9a3.4 3.4 0 0 1 1.04-.434V1.5h1.5v1.966a3.3 3.3 0 0 1 1.04.434l1.392-1.393 1.06 1.06L19.35 4.96c.199.316.349.665.434 1.04m-5.159.75c0 1.034.84 1.875 1.875 1.875a1.877 1.877 0 0 0 1.875-1.875c0-1.033-.84-1.875-1.875-1.875a1.877 1.877 0 0 0-1.875 1.875m3.575 10.5a.55.55 0 0 0 .55-.55v-3.95h1.5v3.95c0 1.13-.92 2.05-2.05 2.05h-4.814l.375 2.25H15v1.5H7.5V21h1.239l.375-2.25H4.3c-1.13 0-2.05-.92-2.05-2.05V8.8c0-1.13.92-2.05 2.05-2.05h5.45v1.5H4.3a.55.55 0 0 0-.55.55v7.9c0 .303.247.55.55.55zM10.26 21h1.98l-.376-2.25h-1.229z" clip-rule="evenodd"/></g><defs><clipPath id="a"><path d="M0 0h24v24H0z"/></clipPath></defs></svg>