<svg xmlns="http://www.w3.org/2000/svg" viewBox="0 0 24 24"><path d="M18.75 12.75v3.945a.55.55 0 0 1-.547.547H4.298a.55.55 0 0 1-.548-.547V8.797c0-.3.248-.547.548-.547h5.445v-1.5H4.297A2.045 2.045 0 0 0 2.25 8.797v7.898c0 1.133.915 2.047 2.048 2.047h4.815L8.738 21H7.5v1.5H15V21h-1.238l-.375-2.258h4.816a2.045 2.045 0 0 0 2.047-2.047V12.75zM10.26 21l.375-2.25h1.23L12.24 21zM20.835 6.615c-1.62-.683-2.738-1.8-3.42-3.42L16.74 1.59l-.615 1.627c-.578 1.545-1.695 2.663-3.412 3.398l-1.508.652 1.515.623c1.62.667 2.737 1.785 3.412 3.413l.638 1.53.637-1.53c.683-1.62 1.8-2.738 3.42-3.42l1.515-.638-1.514-.638zm-1.762.637a7.4 7.4 0 0 0-2.296 2.295 7.2 7.2 0 0 0-2.295-2.295 7.2 7.2 0 0 0 2.31-2.265 7.5 7.5 0 0 0 2.28 2.273z"/></svg>