<svg xmlns="http://www.w3.org/2000/svg" width="24" height="24"><g clip-path="url(#a)"><path fill-rule="evenodd" d="m18 1.813 2.965 3.953a3.95 3.95 0 0 1 .373 4.127c-.634 1.296-1.856 2.084-3.268 2.107h-.143c-1.408-.024-2.63-.812-3.265-2.108a3.95 3.95 0 0 1 .373-4.127zm-1.992 7.42c.382.78 1.11 1.253 1.946 1.267h.09c.839-.014 1.566-.488 1.948-1.268a2.46 2.46 0 0 0-.227-2.567L18 4.312l-1.765 2.354a2.46 2.46 0 0 0-.227 2.567M18.2 17.25a.55.55 0 0 0 .55-.55v-3.2h1.5v3.2c0 1.13-.92 2.05-2.05 2.05h-4.814l.375 2.25H15v1.5H7.5V21h1.239l.375-2.25H4.3c-1.13 0-2.05-.92-2.05-2.05V8.8c0-1.13.92-2.05 2.05-2.05h8.45v1.5H4.3a.55.55 0 0 0-.55.55v7.9c0 .303.247.55.55.55zM10.26 21h1.98l-.376-2.25h-1.229z" clip-rule="evenodd"/></g><defs><clipPath id="a"><path d="M0 0h24v24H0z"/></clipPath></defs></svg>