<svg xmlns="http://www.w3.org/2000/svg" viewBox="0 0 24 24"><g clip-path="url(#a)"><path fill-rule="evenodd" d="M17.1 2.25c1.127 0 2.166.578 2.769 1.508 1.492.114 2.631 1.387 2.631 2.992 0 1.655-1.278 3-2.85 3h-4.972c-1.383 0-2.555-1.02-2.668-2.324a2.56 2.56 0 0 1 .66-1.949 2.57 2.57 0 0 1 1.228-.742A3.31 3.31 0 0 1 17.1 2.25m-2.423 6h4.973c.744 0 1.35-.673 1.35-1.5 0-.855-.58-1.5-1.35-1.5l-.699.02-.21-.457a1.803 1.803 0 0 0-3.442.63l-.042.707h-.707c-.298 0-.572.121-.775.341-.2.22-.297.505-.27.805.045.526.571.954 1.172.954M18.2 16.5a.55.55 0 0 0 .55-.55v-4.7h1.5v4.7c0 1.13-.92 2.05-2.05 2.05h-4.814l.375 2.25H15v1.5H7.5v-1.5h1.239L9.114 18H4.3c-1.13 0-2.05-.92-2.05-2.05v-7.9C2.25 6.92 3.17 6 4.3 6h6.2v1.5H4.3a.55.55 0 0 0-.55.55v7.9c0 .303.247.55.55.55zm-7.94 3.75h1.98L11.863 18h-1.229z" clip-rule="evenodd"/></g><defs><clipPath id="a"><path d="M0 0h24v24H0z"/></clipPath></defs></svg>