<svg xmlns="http://www.w3.org/2000/svg" xml:space="preserve" viewBox="0 0 32 32"><path d="M25 22.267a.734.734 0 0 1-.733.733H5.733A.734.734 0 0 1 5 22.267V11.733c0-.404.329-.733.733-.733H11V9H5.733A2.737 2.737 0 0 0 3 11.733v10.533A2.74 2.74 0 0 0 5.733 25h6.419l-.5 3H10v2h10v-2h-1.652l-.5-3h6.419A2.737 2.737 0 0 0 27 22.267V18h-2zM16.319 28H13.68l.5-3h1.639z"/><path d="M15 14h1.701L22 18.988V2.019L16.681 7H15c-1.103 0-2 1.009-2 2.25v2.5c0 1.241.897 2.25 2 2.25m0-4.75c0-.151.058-.249.003-.25h2.469L20 6.632v7.727L17.494 12h-.396l-2.012.023c-.026-.022-.086-.12-.086-.273zM24.01 5v2c1.93 0 3.5 1.57 3.5 3.5s-1.57 3.5-3.5 3.5v2c3.032 0 5.5-2.467 5.5-5.5S27.042 5 24.01 5"/></svg>