<svg xmlns="http://www.w3.org/2000/svg" width="24" height="24"><g clip-path="url(#a)"><path fill-rule="evenodd" d="M8.25 18v-1.5h1.5V15h-3v3h-1.5V3h8.25v7.5H15V5.25h3.75v5.25h1.5V3.75H15V1.5H3.75V18h-1.5v1.5h7.68V18zM6.75 5.25h1.5v1.5h-1.5zm0 3h1.5v1.5h-1.5zm1.5 3h-1.5v1.5h1.5zm2.25-6H12v1.5h-1.5zm1.5 3h-1.5v1.5H12zm-1.5 3H12v1.5h-1.5zm9.284 5.25h1.966V18h-1.966a3.3 3.3 0 0 1-.434 1.04l1.393 1.392-1.06 1.06L18.29 20.1a3.3 3.3 0 0 1-1.04.434V22.5h-1.5v-1.966a3.3 3.3 0 0 1-1.04-.434l-1.392 1.393-1.06-1.06 1.392-1.393a3.3 3.3 0 0 1-.434-1.04H11.25v-1.5h1.966a3.3 3.3 0 0 1 .434-1.04l-1.393-1.392 1.06-1.06L14.71 14.4a3.3 3.3 0 0 1 1.04-.434V12h1.5v1.966a3.3 3.3 0 0 1 1.04.434l1.392-1.393 1.06 1.06-1.392 1.393c.2.316.349.665.434 1.04m-5.159.75c0 1.034.84 1.875 1.875 1.875 1.034 0 1.875-.84 1.875-1.875 0-1.034-.84-1.875-1.875-1.875-1.034 0-1.875.84-1.875 1.875" clip-rule="evenodd"/></g><defs><clipPath id="a"><path d="M0 0h24v24H0z"/></clipPath></defs></svg>