<svg xmlns="http://www.w3.org/2000/svg" xml:space="preserve" viewBox="0 0 32 32"><path d="M25 22.267a.734.734 0 0 1-.733.733H5.733A.734.734 0 0 1 5 22.267V11.733c0-.404.329-.733.733-.733H13V9H5.733A2.737 2.737 0 0 0 3 11.733v10.533A2.74 2.74 0 0 0 5.733 25h6.419l-.5 3H10v2h10v-2h-1.652l-.5-3h6.419A2.737 2.737 0 0 0 27 22.267V19h-2zM16.319 28H13.68l.5-3h1.639z"/><path d="M27 4V2h-2v2h-6V2h-2v2h-2.1v10c0 1.654 1.346 3 3 3H26c1.654 0 3-1.346 3-3V4zm0 2v2H16.9V6zm-1 9h-8.1c-.552 0-1-.449-1-1v-4H27v4c0 .551-.448 1-1 1"/></svg>