<svg xmlns="http://www.w3.org/2000/svg" xml:space="preserve" viewBox="0 0 32 32"><path d="M25 22.267a.734.734 0 0 1-.733.733H5.733A.734.734 0 0 1 5 22.267V11.733c0-.404.329-.733.733-.733H14V9H5.733A2.737 2.737 0 0 0 3 11.733v10.533A2.74 2.74 0 0 0 5.733 25h6.419l-.5 3H10v2h10v-2h-1.652l-.5-3h6.419A2.737 2.737 0 0 0 27 22.267V18h-2zM16.319 28H13.68l.5-3h1.639z"/><path d="M29.231 4.206c-.034-.008-3.518-.846-5.784-1.979L23 2.003l-.447.224c-2.267 1.133-5.75 1.971-5.784 1.979L16 4.389v.79c0 10.301 6.526 11.725 6.804 11.78l.196.04.196-.04C23.474 16.903 30 15.48 30 5.179v-.79zm-6.23 10.737c-.94-.298-4.729-1.935-4.987-8.992C19.138 5.65 21.26 5.031 23 4.23c1.74.8 3.862 1.419 4.986 1.721-.259 7.068-4.056 8.699-4.985 8.992"/><path d="m21.116 7.825-1.404 1.424 2.768 2.731 4.141-4.141-1.414-1.414-2.736 2.736z"/></svg>