<svg xmlns="http://www.w3.org/2000/svg" xml:space="preserve" viewBox="0 0 32 32"><path d="M25 22.267a.734.734 0 0 1-.733.733H5.733A.734.734 0 0 1 5 22.267V11.733c0-.404.329-.733.733-.733H15V9H5.733A2.737 2.737 0 0 0 3 11.733v10.533A2.74 2.74 0 0 0 5.733 25h6.419l-.5 3H10v2h10v-2h-1.652l-.5-3h6.419A2.737 2.737 0 0 0 27 22.267V14h-2zM16.319 28H13.68l.5-3h1.639z"/><path d="M28.147 3.904a3.02 3.02 0 0 0-4.26 0l-7.827 7.827a5 5 0 0 0-1.029 1.493l-2.018 4.491 1.322 1.322 4.492-2.018a5 5 0 0 0 1.493-1.03l7.826-7.826a3.014 3.014 0 0 0 .001-4.259M26.733 6.75l-7.826 7.826q-.393.393-.899.621l-2.092.939.939-2.091a3 3 0 0 1 .62-.899l7.826-7.826c.197-.198.457-.296.716-.296a1.011 1.011 0 0 1 .716 1.726"/></svg>