<svg xmlns="http://www.w3.org/2000/svg" width="24" height="24"><g clip-path="url(#a)"><path fill-rule="evenodd" d="M18.54 12a2.17 2.17 0 0 1-1.957 1.25A2.16 2.16 0 0 1 14.628 12h-3.256l.234-.931c.261-1.047.394-2.125.394-3.203v-.782a4.5 4.5 0 0 1 3.75-4.433V1.5h1.5v1.15A4.504 4.504 0 0 1 21 7.084v.782c0 1.08.133 2.156.394 3.203l.234.932zM13.5 7.083v.782c0 .884-.08 1.767-.238 2.635h6.476a14.7 14.7 0 0 1-.238-2.635v-.782c0-1.655-1.346-3-3-3-1.655 0-3 1.345-3 3m4.7 10.167a.55.55 0 0 0 .55-.55v-3.2h1.5v3.2c0 1.13-.92 2.05-2.05 2.05h-4.814l.375 2.25H15v1.5H7.5V21h1.239l.375-2.25H4.3c-1.13 0-2.05-.92-2.05-2.05V8.8c0-1.13.92-2.05 2.05-2.05h6.2v1.5H4.3a.55.55 0 0 0-.55.55v7.9c0 .303.247.55.55.55zM10.26 21h1.98l-.376-2.25h-1.229z" clip-rule="evenodd"/></g><defs><clipPath id="a"><path d="M0 0h24v24H0z"/></clipPath></defs></svg>