<svg xmlns="http://www.w3.org/2000/svg" xml:space="preserve" viewBox="0 0 32 32"><path d="M24 22.267a.734.734 0 0 1-.733.733H4.733A.734.734 0 0 1 4 22.267V11.733c0-.404.329-.733.733-.733H10V9H4.733A2.737 2.737 0 0 0 2 11.733v10.533A2.74 2.74 0 0 0 4.733 25h6.419l-.5 3H9v2h10v-2h-1.652l-.5-3h6.419A2.737 2.737 0 0 0 26 22.267V18h-2zM15.319 28H12.68l.5-3h1.639z"/><path d="M27 2H15c-1.654 0-3 1.346-3 3v14.767L18.277 16H27c1.654 0 3-1.346 3-3V5c0-1.654-1.346-3-3-3m1 11c0 .551-.448 1-1 1h-9.277L14 16.234V5c0-.551.448-1 1-1h12c.552 0 1 .449 1 1z"/><path d="M16 6h10v2H16zm0 4h7v2h-7z"/></svg>