<svg xmlns="http://www.w3.org/2000/svg" viewBox="0 0 24 24"><path d="M11.417 9.177a1.05 1.05 0 1 1 1.166 1.746 1.05 1.05 0 0 1-1.166-1.746"/><path fill-rule="evenodd" d="M12 6a7.6 7.6 0 0 0-4.372 1.406L3.75 10.125l3.878 2.719a7.5 7.5 0 0 0 8.744 0l3.878-2.719-3.878-2.719A7.6 7.6 0 0 0 12 6m-2.625 4.125a2.625 2.625 0 1 1 5.25 0 2.625 2.625 0 0 1-5.25 0m-3.012 0 1.686-1.182a4.1 4.1 0 0 0 0 2.364zm9.588-1.182 1.686 1.182-1.686 1.182a4.1 4.1 0 0 0 0-2.364" clip-rule="evenodd"/><path fill-rule="evenodd" d="M20.25 3H3.75A2.25 2.25 0 0 0 1.5 5.25V15a2.25 2.25 0 0 0 2.25 2.25h6.114l-.375 2.25H8.25V21h7.5v-1.5h-1.239l-.375-2.25h6.114A2.25 2.25 0 0 0 22.5 15V5.25A2.25 2.25 0 0 0 20.25 3m-7.26 16.5h-1.98l.375-2.25h1.23zM21 15a.75.75 0 0 1-.75.75H3.75A.75.75 0 0 1 3 15V5.25a.75.75 0 0 1 .75-.75h16.5a.75.75 0 0 1 .75.75z" clip-rule="evenodd"/></svg>