<svg xmlns="http://www.w3.org/2000/svg" xml:space="preserve" viewBox="0 0 32 32"><path d="M25 21.267a.734.734 0 0 1-.733.733H5.733A.734.734 0 0 1 5 21.267V10.733c0-.404.329-.733.733-.733H14V8H5.733A2.737 2.737 0 0 0 3 10.733v10.533A2.74 2.74 0 0 0 5.733 24h6.419l-.5 3H10v2h10v-2h-1.652l-.5-3h6.419A2.737 2.737 0 0 0 27 21.267V15h-2zM16.319 27H13.68l.5-3h1.639z"/><path d="M26.492 5.011A4.41 4.41 0 0 0 22.8 3a4.41 4.41 0 0 0-4.27 3.314 3.4 3.4 0 0 0-1.637.989 3.4 3.4 0 0 0-.88 2.598C16.164 11.639 17.727 13 19.57 13h6.63c2.096 0 3.8-1.794 3.8-4 0-2.14-1.519-3.837-3.508-3.989M26.2 11h-6.63c-.802 0-1.503-.57-1.564-1.272-.035-.4.094-.781.361-1.073A1.4 1.4 0 0 1 19.4 8.2h.943l.055-.942a2.404 2.404 0 0 1 4.59-.841l.28.61L26.2 7c1.027 0 1.8.86 1.8 2 0 1.103-.808 2-1.8 2"/></svg>