<svg xmlns="http://www.w3.org/2000/svg" viewBox="0 0 24 24"><g clip-path="url(#a)"><path fill-rule="evenodd" d="M17.625 13.5s4.125-3.75 4.125-7.875a4.125 4.125 0 1 0-8.25 0c0 4.125 4.125 7.875 4.125 7.875m0-10.5a2.63 2.63 0 0 1 2.625 2.625c0 2.23-1.55 4.432-2.625 5.693C16.549 10.057 15 7.855 15 5.625A2.63 2.63 0 0 1 17.625 3m1.125 13.7a.55.55 0 0 1-.55.55H4.3a.55.55 0 0 1-.55-.55V8.8a.55.55 0 0 1 .55-.55H12v-1.5H4.3c-1.13 0-2.05.92-2.05 2.05v7.9c0 1.13.92 2.05 2.05 2.05h4.814L8.739 21H7.5v1.5H15V21h-1.239l-.375-2.25H18.2c1.13 0 2.05-.92 2.05-2.05v-2.45h-1.5zM12.24 21h-1.98l.375-2.25h1.23zm6.51-15.375a1.125 1.125 0 1 1-2.25 0 1.125 1.125 0 0 1 2.25 0" clip-rule="evenodd"/></g><defs><clipPath id="a"><path d="M0 0h24v24H0z"/></clipPath></defs></svg>