<svg xmlns="http://www.w3.org/2000/svg" viewBox="0 0 24 24"><g clip-path="url(#a)"><path fill-rule="evenodd" d="M17.264 1.526a5.24 5.24 0 0 0-5.237 5.237A5.24 5.24 0 0 0 17.264 12 5.24 5.24 0 0 0 22.5 6.763a5.243 5.243 0 0 0-5.236-5.237m0 8.974a3.74 3.74 0 0 1-3.737-3.737 3.74 3.74 0 0 1 3.737-3.736A3.74 3.74 0 0 1 21 6.763a3.74 3.74 0 0 1-3.736 3.737m1.486 6.2a.55.55 0 0 1-.55.55H4.3a.55.55 0 0 1-.55-.55V8.8a.55.55 0 0 1 .55-.55h6.2v-1.5H4.3c-1.13 0-2.05.92-2.05 2.05v7.9c0 1.13.92 2.05 2.05 2.05h4.814L8.739 21H7.5v1.5H15V21h-1.239l-.375-2.25H18.2c1.13 0 2.05-.92 2.05-2.05v-3.2h-1.5zM12.24 21h-1.98l.375-2.25h1.23zM16.5 4.5H18v1.953l1.28 1.28-1.06 1.06-1.72-1.719z" clip-rule="evenodd"/></g><defs><clipPath id="a"><path d="M0 0h24v24H0z"/></clipPath></defs></svg>