<svg xmlns="http://www.w3.org/2000/svg" width="24" height="24"><g clip-path="url(#a)"><path fill-rule="evenodd" d="M19.5 1.5H12c-1.24 0-2.25 1.01-2.25 2.25v3H4.3c-1.13 0-2.05.92-2.05 2.05v7.9c0 1.13.92 2.05 2.05 2.05h4.814L8.739 21H7.5v1.5H15V21h-1.239l-.375-2.25H18.2c1.13 0 2.05-.92 2.05-2.05v-4.088c.87-.31 1.5-1.136 1.5-2.112V3.75c0-1.24-1.01-2.25-2.25-2.25M12.24 21h-1.98l.375-2.25h1.23zm5.96-3.75H4.3a.55.55 0 0 1-.55-.55V8.8a.55.55 0 0 1 .55-.55h5.45v2.25c0 1.24 1.01 2.25 2.25 2.25h6.75v3.95a.55.55 0 0 1-.55.55m2.05-6.75a.75.75 0 0 1-.75.75H12a.75.75 0 0 1-.75-.75V3.75A.75.75 0 0 1 12 3h7.5a.75.75 0 0 1 .75.75zm-.75-6.75H18v1.5h1.5zm-6.75 3.375A2.63 2.63 0 0 1 15.375 4.5 2.63 2.63 0 0 1 18 7.125a2.63 2.63 0 0 1-2.625 2.625 2.63 2.63 0 0 1-2.625-2.625m1.5 0c0 .62.505 1.125 1.125 1.125S16.5 7.745 16.5 7.125 15.995 6 15.375 6s-1.125.505-1.125 1.125" clip-rule="evenodd"/></g><defs><clipPath id="a"><path d="M0 0h24v24H0z"/></clipPath></defs></svg>