<svg xmlns="http://www.w3.org/2000/svg" width="24" height="24"><path fill-rule="evenodd" d="M11.25 1.5h9a2.25 2.25 0 0 1 2.25 2.25v6A2.25 2.25 0 0 1 20.25 12h-6.542L9 14.825V3.75a2.25 2.25 0 0 1 2.25-2.25m9.53 8.78a.75.75 0 0 0 .22-.53v-6a.75.75 0 0 0-.75-.75h-9a.75.75 0 0 0-.75.75v8.426l2.792-1.676h6.958a.75.75 0 0 0 .53-.22m-2.94 6.81a.55.55 0 0 0 .16-.39v-3.2h1.5v3.2a2.053 2.053 0 0 1-2.05 2.05h-4.814l.375 2.25h1.239v1.5h-7.5V21h1.239l.375-2.25H3.55A2.054 2.054 0 0 1 1.5 16.7V8.8a2.053 2.053 0 0 1 2.05-2.05H7.5v1.5H3.55A.55.55 0 0 0 3 8.8v7.9a.55.55 0 0 0 .55.55h13.9a.55.55 0 0 0 .389-.161M9.51 21h1.98l-.376-2.25H9.885zM12 4.5h7.5V6H12zm5.25 3H12V9h5.25z" clip-rule="evenodd"/></svg>