<svg xmlns="http://www.w3.org/2000/svg" viewBox="0 0 24 24"><g clip-path="url(#a)"><path fill-rule="evenodd" d="M21.923 3.155c-.025-.006-2.638-.635-4.338-1.485l-.335-.168-.335.168c-1.7.85-4.313 1.479-4.338 1.485L12 3.292v.592c0 7.726 4.895 8.794 5.103 8.835l.147.03.147-.03c.209-.042 5.103-1.109 5.103-8.835v-.592zm-4.672 8.052c-.705-.223-3.547-1.451-3.74-6.744.843-.225 2.434-.69 3.739-1.29 1.305.6 2.896 1.064 3.74 1.29-.195 5.301-3.042 6.525-3.74 6.744m1.5 5.493a.55.55 0 0 1-.55.55H4.3a.55.55 0 0 1-.55-.55V8.8a.55.55 0 0 1 .55-.55h6.2v-1.5H4.3c-1.13 0-2.05.92-2.05 2.05v7.9c0 1.13.92 2.05 2.05 2.05h4.814L8.739 21H7.5v1.5H15V21h-1.239l-.375-2.25H18.2c1.13 0 2.05-.92 2.05-2.05v-3.2h-1.5zM12.24 21h-1.98l.375-2.25h1.23zm2.544-14.063 1.053-1.068 1.016 1.002 2.052-2.052 1.06 1.06-3.105 3.106z" clip-rule="evenodd"/></g><defs><clipPath id="a"><path d="M0 0h24v24H0z"/></clipPath></defs></svg>