<svg width="100%" height="100%" viewBox="0 0 24 24" version="1.1" xmlns="http://www.w3.org/2000/svg" xmlns:xlink="http://www.w3.org/1999/xlink" xml:space="preserve" style="fill-rule:evenodd;clip-rule:evenodd;stroke-linejoin:round;stroke-miterlimit:2;"><g transform="matrix(1,0,0,1,-0.04,0.079)"><path d="M11.291,4.404L16.534,1.364L21.778,4.404L21.778,9.798L16.534,12.838L11.291,9.798L11.291,4.404ZM16.534,6.569L19.538,4.831L16.534,3.094L13.531,4.831L16.534,6.569ZM12.789,6.135L12.789,8.936L15.785,10.674L15.785,7.873L12.789,6.135ZM17.284,10.667L20.28,8.929L20.28,6.127L17.283,7.865L17.284,10.667ZM18.782,16.697L18.782,12.74L20.28,12.74L20.28,16.688C20.277,17.809 19.356,18.73 18.235,18.733L13.425,18.733L13.8,20.98L15.036,20.98L15.036,22.478L7.546,22.478L7.546,20.98L8.782,20.98L9.156,18.733L4.347,18.733C3.226,18.73 2.305,17.809 2.302,16.688L2.302,8.801C2.302,7.678 3.216,6.757 4.347,6.757L9.793,6.757L9.793,8.255L4.347,8.255C4.048,8.257 3.803,8.501 3.8,8.8L3.8,16.696C3.8,16.996 4.048,17.242 4.347,17.242L18.235,17.242C18.534,17.24 18.78,16.995 18.782,16.696M10.302,20.988L12.28,20.988L11.905,18.741L10.677,18.741L10.302,20.988Z"/></g></svg>