<svg xmlns="http://www.w3.org/2000/svg" viewBox="0 0 24 24"><g clip-path="url(#a)"><path d="M21.743 9.9c-.075-.218-1.838-5.415-5.198-5.415h-9.09c-3.36 0-5.122 5.197-5.205 5.445-.18.615-1.68 6.09.135 8.505.563.742 1.388 1.14 2.4 1.14 1.275 0 2.273-.937 3.24-1.845.878-.825 1.71-1.613 2.602-1.613h2.76c.886 0 1.718.78 2.603 1.613.967.907 1.965 1.845 3.24 1.845 1.005 0 1.837-.398 2.4-1.14 1.815-2.407.308-7.882.128-8.535zm-1.328 7.635c-.277.367-.66.54-1.2.54-.675 0-1.425-.697-2.212-1.44-1.005-.945-2.145-2.018-3.63-2.018h-2.76c-1.485 0-2.625 1.073-3.63 2.018-.788.742-1.53 1.44-2.213 1.44-.54 0-.922-.172-1.2-.54-1.162-1.537-.315-5.707.105-7.155.405-1.223 1.883-4.388 3.773-4.388h9.09c1.89 0 3.367 3.173 3.764 4.358.428 1.478 1.268 5.648.113 7.185"/><path d="M9 8.25H7.5v1.5H6v1.5h1.5v1.5H9v-1.5h1.5v-1.5H9zm6.743 1.125a.75.75 0 1 0 0-1.5.75.75 0 0 0 0 1.5m1.86 1.868a.75.75 0 1 0 0-1.5.75.75 0 0 0 0 1.5m-3.705.037a.75.75 0 1 0 0-1.5.75.75 0 0 0 0 1.5m1.845 1.845a.75.75 0 1 0 0-1.5.75.75 0 0 0 0 1.5"/></g><defs><clipPath id="a"><path d="M0 0h24v24H0z"/></clipPath></defs></svg>