<svg xmlns="http://www.w3.org/2000/svg" viewBox="0 0 24 24"><path d="M12 22.5C6.21 22.5 1.5 17.79 1.5 12S6.21 1.5 12 1.5c.217 0 .428.015.645.03l.923.067-.143.818c-.075.42-.098.982.195 1.313.285.315.833.36 1.238.337l.96-.053-.188.946c-.278 1.38-.053 2.52.623 3.194.757.758 1.92.796 2.752.69l.765-.097.075.765c.045.488.195.825.435.998.337.247.87.187 1.26.09l.87-.218.067.997c.015.203.03.413.03.623 0 5.79-4.71 10.5-10.5 10.5zM11.873 3C6.968 3.067 3 7.08 3 12s4.035 9 9 9a8.97 8.97 0 0 0 9-8.82c-.788.015-1.29-.225-1.62-.473-.307-.232-.682-.637-.885-1.327-1.365.037-2.49-.36-3.3-1.17-.877-.878-1.275-2.175-1.155-3.69-.78-.127-1.26-.48-1.537-.787-.293-.33-.608-.87-.623-1.725zm-3.12 9A2.75 2.75 0 0 0 6 14.752a2.75 2.75 0 0 0 2.752 2.753 2.75 2.75 0 0 0 2.753-2.752A2.75 2.75 0 0 0 8.752 12m-.81-5.25c-.72 0-1.298.585-1.298 1.297 0 .713.585 1.298 1.298 1.298.712 0 1.297-.585 1.297-1.298 0-.712-.585-1.297-1.298-1.297m8.842 6.428c-.982 0-1.785.794-1.785 1.784s.795 1.785 1.785 1.785a1.78 1.78 0 0 0 1.785-1.784 1.78 1.78 0 0 0-1.785-1.785m-3.66-3a.914.914 0 0 0-.915.914c0 .51.405.915.915.915a.91.91 0 0 0 .915-.915.91.91 0 0 0-.915-.915m-.36 7.5a.914.914 0 0 0-.915.915c0 .51.405.915.915.915a.91.91 0 0 0 .915-.915.91.91 0 0 0-.915-.916"/></svg>