<svg xmlns="http://www.w3.org/2000/svg" xml:space="preserve" viewBox="0 0 32 32"><path d="M15.668 2.004c-3.739.088-7.219 1.628-9.8 4.334s-3.953 6.255-3.864 9.994 1.628 7.219 4.334 9.8A13.9 13.9 0 0 0 15.99 30q.171 0 .342-.004a13.9 13.9 0 0 0 9.8-4.334 13.9 13.9 0 0 0 3.864-9.994 13.9 13.9 0 0 0-4.334-9.8c-2.706-2.58-6.271-3.971-9.994-3.864m12.328 13.711a11.92 11.92 0 0 1-3.312 8.566 11.92 11.92 0 0 1-8.399 3.715c-3.216.093-6.247-1.1-8.566-3.312a11.92 11.92 0 0 1-3.715-8.4 11.92 11.92 0 0 1 3.312-8.566A11.92 11.92 0 0 1 16.008 4c3.097 0 6.024 1.171 8.273 3.316a11.9 11.9 0 0 1 3.715 8.399"/><path d="M21.635 11h-1.819A1.817 1.817 0 0 0 18 12.816V15h-4v-2.184A1.817 1.817 0 0 0 12.185 11h-1.819A3.37 3.37 0 0 0 7 14.365v4.003c0 1.406 1.052 2.6 2.446 2.777 2.17.276 4.375.416 6.554.416s4.384-.14 6.554-.416A2.805 2.805 0 0 0 25 18.368v-4.003A3.37 3.37 0 0 0 21.635 11M23 18.368c0 .401-.3.742-.698.793-2.088.266-4.208.4-6.302.4s-4.214-.135-6.302-.4A.8.8 0 0 1 9 18.368v-4.003C9 13.612 9.612 13 10.365 13H12v4h8v-4h1.635c.753 0 1.365.612 1.365 1.365z"/></svg>