<svg xmlns="http://www.w3.org/2000/svg" viewBox="0 0 24 24"><path fill-rule="evenodd" d="M14.862 8.25h1.364a2.527 2.527 0 0 1 2.524 2.526v3a2.1 2.1 0 0 1-1.834 2.083A39 39 0 0 1 12 16.17a39 39 0 0 1-4.915-.314 2.1 2.1 0 0 1-1.835-2.083v-3A2.527 2.527 0 0 1 7.775 8.25h1.364A1.363 1.363 0 0 1 10.5 9.612v1.638h3V9.612a1.363 1.363 0 0 1 1.362-1.362m2.238 5.922a.6.6 0 0 0 .15-.396v-3.002a1.024 1.024 0 0 0-1.024-1.024H15v3H9v-3H7.774a1.024 1.024 0 0 0-1.024 1.026v3a.6.6 0 0 0 .525.595 37.5 37.5 0 0 0 9.45 0 .6.6 0 0 0 .375-.198" clip-rule="evenodd"/><path fill-rule="evenodd" d="M5.96 3.407A10.5 10.5 0 0 1 11.752 1.5a10.4 10.4 0 0 1 7.496 2.904A10.5 10.5 0 0 1 12.249 22.5h-.257a10.43 10.43 0 0 1-7.238-2.904A10.5 10.5 0 0 1 5.96 3.407m13.643 13.415A9 9 0 0 0 12.006 3h-.22A9 9 0 0 0 5.79 18.513a9 9 0 0 0 13.814-1.69" clip-rule="evenodd"/></svg>