<svg xmlns="http://www.w3.org/2000/svg" xml:space="preserve" viewBox="0 0 32 32"><path d="M17 12h-2c-1.654 0-3 1.346-3 3v2c0 1.654 1.346 3 3 3h2c1.654 0 3-1.346 3-3v-2c0-1.654-1.346-3-3-3m1 5a1 1 0 0 1-1 1h-2a1 1 0 0 1-1-1v-2c0-.551.448-1 1-1h2c.552 0 1 .449 1 1z"/><path d="M29 11V9h-3c0-1.654-1.346-3-3-3V3h-2v3h-2V3h-2v3h-2V3h-2v3h-2V3H9v3C7.346 6 6 7.346 6 9H3v2h3v2H3v2h3v2H3v2h3v2H3v2h3c0 1.654 1.346 3 3 3v3h2v-3h2v3h2v-3h2v3h2v-3h2v3h2v-3c1.654 0 3-1.346 3-3h3v-2h-3v-2h3v-2h-3v-2h3v-2h-3v-2zm-5 12a1 1 0 0 1-1 1H9a1 1 0 0 1-1-1V9c0-.551.448-1 1-1h14c.552 0 1 .449 1 1z"/></svg>