<svg xmlns="http://www.w3.org/2000/svg" width="24" height="24"><path fill-rule="evenodd" d="M21.75 6.75v1.5H19.5v1.5h2.25v1.5H19.5v1.5h2.25v1.5H19.5v1.5h2.25v1.5H19.5a2.25 2.25 0 0 1-2.25 2.25v2.25h-1.5V19.5h-1.5v2.25h-1.5V19.5h-1.5v2.25h-1.5V19.5h-1.5v2.25h-1.5V19.5a2.25 2.25 0 0 1-2.25-2.25H2.25v-1.5H4.5v-1.5H2.25v-1.5H4.5v-1.5H2.25v-1.5H4.5v-1.5H2.25v-1.5H4.5A2.25 2.25 0 0 1 6.75 4.5V2.25h1.5V4.5h1.5V2.25h1.5V4.5h1.5V2.25h1.5V4.5h1.5V2.25h1.5V4.5a2.25 2.25 0 0 1 2.25 2.25zm-3.97 11.03a.75.75 0 0 0 .22-.53V6.75a.75.75 0 0 0-.75-.75H6.75a.75.75 0 0 0-.75.75v10.5a.75.75 0 0 0 .75.75h10.5a.75.75 0 0 0 .53-.22M11.25 9h1.5A2.25 2.25 0 0 1 15 11.25v1.5A2.25 2.25 0 0 1 12.75 15h-1.5A2.25 2.25 0 0 1 9 12.75v-1.5A2.25 2.25 0 0 1 11.25 9m2.03 4.28a.75.75 0 0 0 .22-.53v-1.5a.75.75 0 0 0-.75-.75h-1.5a.75.75 0 0 0-.75.75v1.5a.75.75 0 0 0 .75.75h1.5a.75.75 0 0 0 .53-.22" clip-rule="evenodd"/></svg>