<svg xmlns="http://www.w3.org/2000/svg" viewBox="0 0 24 24"><g clip-path="url(#a)"><path d="M18 6h4.215l-2.25-4.5H1.5V6h2.25v12.75A2.257 2.257 0 0 0 1.5 21v1.5H12V21a2.25 2.25 0 0 0-2.25-2.25H9V6h7.5v1.5h-3.75V15h9V7.5H18zM5.25 16.26l2.168 2.49H5.25zm.173-2.093L7.5 12.144v4.417zm-.173-1.92V8.093l2.145 2.063zm4.5 8.003c.412 0 .75.337.75.75H3c0-.413.337-.75.75-.75zM7.5 8.175 5.25 6.007H7.5v2.175zM9 4.5H3V3h16.035l.75 1.5zm11.25 9h-6V9h6z"/><path d="M18.75 10.5h-3V12h3z"/></g><defs><clipPath id="a"><path d="M0 0h24v24H0z"/></clipPath></defs></svg>