<svg xmlns="http://www.w3.org/2000/svg" viewBox="0 0 24 24"><path d="M3 3v4.5a2.25 2.25 0 0 0 2.25 2.25h.808a5.21 5.21 0 0 0 3.692 4.275v1.547a.75.75 0 0 1-.415.675l-1.342.675a2.24 2.24 0 0 0-1.243 2.005V21h10.5v-2.073a2.24 2.24 0 0 0-1.244-2.013l-1.341-.675a.74.74 0 0 1-.415-.666v-1.548a5.21 5.21 0 0 0 3.692-4.275h.808A2.25 2.25 0 0 0 21 7.5V3zm1.5 4.5v-3H6v3.75h-.75a.75.75 0 0 1-.75-.75m8.863 5.195a3.3 3.3 0 0 1-.613.055v2.823a2.24 2.24 0 0 0 1.243 2.013l1.342.675a.74.74 0 0 1 .415.67v.569h-7.5v-.573a.75.75 0 0 1 .415-.675l1.342-.675a2.24 2.24 0 0 0 1.243-2.004V12.75q-.316 0-.628-.058A3.725 3.725 0 0 1 7.5 9V4.5h9V9a3.73 3.73 0 0 1-3.137 3.695M19.5 7.5a.75.75 0 0 1-.75.75H18V4.5h1.5z"/></svg>