<svg xmlns="http://www.w3.org/2000/svg" width="24" height="24"><path d="M20.227 4.5c-.242-2.057-4.371-3-8.227-3-3.975 0-8.25.998-8.25 3.188v14.625c0 2.19 4.275 3.187 8.25 3.187s8.25-.997 8.25-3.187V4.5zM12 3c4.384 0 6.75 1.2 6.75 1.688 0 .487-2.366 1.687-6.75 1.687s-6.75-1.2-6.75-1.687S7.616 3 12 3m0 18c-4.384 0-6.75-1.2-6.75-1.687v-2.941c1.596.85 4.232 1.253 6.75 1.253s5.154-.402 6.75-1.253v2.94C18.75 19.8 16.384 21 12 21m0-4.875c-4.384 0-6.75-1.2-6.75-1.687v-2.941c1.596.851 4.232 1.253 6.75 1.253s5.154-.402 6.75-1.253v2.94c0 .488-2.366 1.688-6.75 1.688m0-4.875c-4.384 0-6.75-1.2-6.75-1.687V6.622c1.596.85 4.232 1.253 6.75 1.253s5.154-.402 6.75-1.253v2.94c0 .488-2.366 1.688-6.75 1.688"/></svg>