<svg xmlns="http://www.w3.org/2000/svg" xml:space="preserve" viewBox="0 0 32 32"><path d="M26.969 6C26.647 3.257 21.141 2 16 2 10.702 2 5 3.33 5 6.25v19.5C5 28.67 10.702 30 16 30s11-1.33 11-4.25V6zM16 4c5.846 0 9 1.597 9 2.25S21.846 8.5 16 8.5 7 6.903 7 6.25 10.154 4 16 4m0 24c-5.846 0-9-1.597-9-2.25v-3.921c2.128 1.134 5.643 1.671 9 1.671s6.872-.536 9-1.671v3.921c0 .653-3.154 2.25-9 2.25m0-6.5c-5.846 0-9-1.597-9-2.25v-3.921C9.128 16.464 12.643 17 16 17s6.872-.536 9-1.671v3.921c0 .653-3.154 2.25-9 2.25m0-6.5c-5.846 0-9-1.597-9-2.25V8.829c2.128 1.134 5.643 1.671 9 1.671s6.872-.536 9-1.671v3.921c0 .653-3.154 2.25-9 2.25"/></svg>