<svg xmlns="http://www.w3.org/2000/svg" xml:space="preserve" viewBox="0 0 32 32"><path d="M13.729 6a5 5 0 0 0-3.271 1.218l-7.619 6.587-.039.036c-.593.571-.918 1.337-.918 2.159s.325 1.589.957 2.195l7.619 6.586A5 5 0 0 0 13.729 26H30V6zM28 24H13.729a3 3 0 0 1-1.962-.731l-7.58-6.55A1 1 0 0 1 3.882 16c0-.266.103-.515.289-.703l7.596-6.567A3 3 0 0 1 13.729 8H28z"/><path d="M15.707 20.707 19 17.414l3.293 3.293 1.414-1.414L20.414 16l3.293-3.293-1.414-1.414L19 14.586l-3.293-3.293-1.414 1.414L17.586 16l-3.293 3.293z"/></svg>