<svg xmlns="http://www.w3.org/2000/svg" viewBox="0 0 24 24"><path d="m14.25 13.06-2.47 2.47-1.06-1.06L13.19 12l-2.47-2.47 1.06-1.06 2.47 2.47 2.47-2.47 1.06 1.06L15.31 12l2.47 2.47-1.06 1.06z"/><path fill-rule="evenodd" d="M7.844 5.414a3.76 3.76 0 0 1 2.453-.914H22.5v15H10.297a3.75 3.75 0 0 1-2.454-.914l-5.714-4.94a2.25 2.25 0 0 1-.029-3.265l.03-.027zM10.297 18H21V6H10.297a2.25 2.25 0 0 0-1.469.55l-5.7 4.925a.75.75 0 0 0 .012 1.064l5.685 4.913a2.25 2.25 0 0 0 1.472.548" clip-rule="evenodd"/></svg>