<svg xmlns="http://www.w3.org/2000/svg" xml:space="preserve" viewBox="0 0 32 32"><path d="M28.949 8.293 24 3.343l-4.949 4.95 1.414 1.414L23 7.172v5.884a6.96 6.96 0 0 1-3.869 6.261L17.764 20A5 5 0 0 0 16 21.483 5 5 0 0 0 14.236 20l-1.367-.684a6 6 0 0 1-.342-.184l-.994 1.736q.217.123.441.236l1.367.684A2.99 2.99 0 0 1 15 24.472V29h2v-4.528c0-1.143.636-2.171 1.658-2.683l1.367-.684A8.95 8.95 0 0 0 25 13.056V7.172l2.535 2.536zM7.867 3.406l-4.949 4.95L4.332 9.77 7 7.102V11h2V7.367l2.402 2.403 1.414-1.414zM7 13.056a9.03 9.03 0 0 0 2.877 6.597l1.361-1.465A7.05 7.05 0 0 1 9 13z"/></svg>