<svg xmlns="http://www.w3.org/2000/svg" viewBox="0 0 24 24"><path fill-rule="evenodd" d="M21.712 6.22 18 2.507 14.288 6.22l1.06 1.06 1.902-1.9v4.413a5.22 5.22 0 0 1-2.902 4.696L13.323 15A3.75 3.75 0 0 0 12 16.112 3.75 3.75 0 0 0 10.677 15l-1.025-.513a5 5 0 0 1-.257-.138l-.745 1.302q.164.092.33.177l1.026.513a2.24 2.24 0 0 1 1.244 2.013v3.396h1.5v-3.396a2.24 2.24 0 0 1 1.243-2.012l1.026-.513a6.71 6.71 0 0 0 3.731-6.037V5.379l1.901 1.902zM5.9 2.554 2.188 6.267l1.061 1.06L5.25 5.325V8.25h1.5V5.525l1.8 1.8 1.06-1.06zm-.086 9.937a6.8 6.8 0 0 1-.564-2.699l1.5-.042a5.3 5.3 0 0 0 1.678 3.893l-1.02 1.099a6.8 6.8 0 0 1-1.594-2.25" clip-rule="evenodd"/></svg>