<svg xmlns="http://www.w3.org/2000/svg" width="24" height="24"><g clip-path="url(#a)"><path fill-rule="evenodd" d="M16.5 1.5h2.25a3.754 3.754 0 0 1 3.75 3.75v9c0 2.586-1.462 4.889-3.75 6.028V22.5H16.5c-.976 0-1.802-.63-2.112-1.5H12v1.5H9.75c-.976 0-1.801-.63-2.112-1.5H5.25a3.754 3.754 0 0 1-3.75-3.75v-.75h2.58a.745.745 0 0 0 .727-.562l.367-1.492a5.254 5.254 0 0 1 5.05-3.976l1.732-.015a6.68 6.68 0 0 1 4.388 1.562l.412.345c.356.297.723.16.828.11a.74.74 0 0 0 .431-.685L18 9.751A.75.75 0 0 0 17.25 9H15c-1.24 0-2.25-1.01-2.25-2.25v-1.5A3.754 3.754 0 0 1 16.5 1.5m2.25 17.045A5.22 5.22 0 0 0 21 14.25v-9C21 4.01 19.99 3 18.75 3H16.5c-1.24 0-2.25 1.01-2.25 2.25v1.5c0 .413.336.75.75.75h2.25a2.25 2.25 0 0 1 2.25 2.242l.015 2.033c.005.89-.49 1.675-1.291 2.054-.81.38-1.74.26-2.429-.316l-.413-.345a5.24 5.24 0 0 0-3.356-1.213h-.055l-1.734.015a3.75 3.75 0 0 0-3.607 2.839l-.367 1.488A2.24 2.24 0 0 1 4.081 18h-.953c.31.873 1.144 1.5 2.122 1.5H7.5V18H9v2.25c0 .414.336.75.75.75h.75v-4.5H12v3h2.25V18h1.5v2.25c0 .414.336.75.75.75h.75v-4.5h1.5zM16.5 4.5H18V6h-1.5z" clip-rule="evenodd"/></g><defs><clipPath id="a"><path d="M0 0h24v24H0z"/></clipPath></defs></svg>