<svg xmlns="http://www.w3.org/2000/svg" width="24" height="24"><path fill-rule="evenodd" d="m20.356 7.587-3.844-3.912A2.26 2.26 0 0 0 14.906 3H3v18h18V9.164a2.24 2.24 0 0 0-.644-1.577M7.5 4.5h5.25v1.069a.43.43 0 0 1-.43.431H7.93a.43.43 0 0 1-.43-.43zm12 15h-15v-15H6v1.07A1.933 1.933 0 0 0 7.93 7.5h4.39a1.934 1.934 0 0 0 1.93-1.931V4.5h.656a.75.75 0 0 1 .535.225l3.844 3.914a.75.75 0 0 1 .215.525zM12 9a3 3 0 1 0 0 6 3 3 0 0 0 0-6m0 4.5a1.5 1.5 0 1 1 0-3 1.5 1.5 0 0 1 0 3m-.75 3H6V18h5.25z" clip-rule="evenodd"/></svg>