<svg width="100%" height="100%" viewBox="0 0 24 24" version="1.1" xmlns="http://www.w3.org/2000/svg" xmlns:xlink="http://www.w3.org/1999/xlink" xml:space="preserve" style="fill-rule:evenodd;clip-rule:evenodd;stroke-linejoin:round;stroke-miterlimit:2;"><g transform="matrix(1,0,0,1,-0.0399911,-0.374994)"><path d="M12.843,8.25L18.79,8.25C20.846,8.252 22.538,9.944 22.54,12L22.54,15C22.538,17.056 20.846,18.748 18.79,18.75L14.214,18.75C13.855,20.487 12.314,21.746 10.54,21.75L6.79,21.75L6.79,19.5C6.79,18.91 7.023,18.377 7.396,17.975C5.178,16.813 3.785,14.504 3.79,12L3.79,9.053C3.791,8.804 3.667,8.571 3.46,8.433L2.539,7.815C1.913,7.401 1.537,6.697 1.54,5.947L1.54,3L3.918,3C4.517,2.999 5.091,3.237 5.513,3.662L6.04,4.189L6.567,3.662C6.989,3.237 7.564,2.998 8.163,3L10.54,3L10.54,5.948C10.54,6.703 10.165,7.403 9.536,7.818L8.626,8.43C8.416,8.567 8.289,8.802 8.29,9.053L8.29,9.75C8.29,10.163 8.626,10.5 9.04,10.5L9.738,10.5C9.988,10.5 10.22,10.376 10.357,10.17L10.975,9.249C11.389,8.624 12.092,8.247 12.842,8.25M10.539,20.25C11.779,20.25 12.789,19.24 12.789,18L12.789,15.75L12.039,15.75C11.628,15.75 11.289,16.089 11.289,16.5C11.289,17.74 10.279,18.75 9.039,18.75C8.628,18.75 8.289,19.089 8.289,19.5L8.289,20.25L10.539,20.25ZM9.789,16.5C9.789,15.26 10.799,14.25 12.039,14.25L16.539,14.25C16.95,14.25 17.289,13.911 17.289,13.5C17.289,12.26 18.299,11.25 19.539,11.25L20.901,11.25C20.585,10.356 19.737,9.754 18.789,9.75L12.842,9.75C12.593,9.749 12.36,9.873 12.222,10.08L11.604,11.001C11.19,11.626 10.488,12.002 9.738,12L9.04,12C7.8,12 6.79,10.99 6.79,9.75L6.79,9.053C6.79,8.296 7.165,7.597 7.794,7.182L8.704,6.57C8.914,6.433 9.041,6.198 9.04,5.947L9.04,4.5L8.163,4.5C7.962,4.5 7.769,4.58 7.628,4.723L6.04,6.31L4.452,4.723C4.311,4.58 4.119,4.5 3.918,4.5L3.04,4.5L3.04,5.947C3.04,6.199 3.164,6.43 3.37,6.567L4.291,7.185C4.915,7.598 5.29,8.297 5.29,9.053L5.29,12C5.283,14.463 7.017,16.612 9.425,17.128C9.648,16.997 9.787,16.758 9.79,16.5M16.54,15.75L14.29,15.75L14.29,17.25L18.79,17.25C20.03,17.25 21.04,16.24 21.04,15L21.04,12.75L19.54,12.75C19.129,12.75 18.79,13.089 18.79,13.5C18.79,14.74 17.78,15.75 16.54,15.75M14.29,11.25L15.79,11.25L15.79,12.75L14.29,12.75L14.29,11.25Z"/></g></svg>