<svg xmlns="http://www.w3.org/2000/svg" width="25" height="24"><path fill-rule="evenodd" d="M12.843 8.25h5.947A3.754 3.754 0 0 1 22.54 12v3a3.754 3.754 0 0 1-3.75 3.75h-4.576a3.76 3.76 0 0 1-3.674 3H6.79V19.5c0-.59.233-1.123.606-1.525A6.73 6.73 0 0 1 3.79 12V9.053a.74.74 0 0 0-.33-.62l-.921-.618a2.23 2.23 0 0 1-.999-1.868V3h2.378a2.24 2.24 0 0 1 1.595.662l.527.527.527-.527A2.24 2.24 0 0 1 8.163 3h2.377v2.948c0 .755-.375 1.455-1.004 1.87l-.91.612a.74.74 0 0 0-.336.623v.697c0 .413.336.75.75.75h.698c.25 0 .482-.124.619-.33l.618-.921a2.23 2.23 0 0 1 1.867-.999m-2.303 12c1.24 0 2.25-1.01 2.25-2.25v-2.25h-.75a.75.75 0 0 0-.75.75c0 1.24-1.01 2.25-2.25 2.25a.75.75 0 0 0-.75.75v.75zm-.75-3.75c0-1.24 1.01-2.25 2.25-2.25h4.5a.75.75 0 0 0 .75-.75c0-1.24 1.01-2.25 2.25-2.25h1.362a2.25 2.25 0 0 0-2.112-1.5h-5.947a.74.74 0 0 0-.62.33l-.618.921A2.23 2.23 0 0 1 9.738 12H9.04c-1.24 0-2.25-1.01-2.25-2.25v-.697c0-.757.375-1.456 1.004-1.871l.91-.612a.74.74 0 0 0 .336-.623V4.5h-.877a.75.75 0 0 0-.535.223L6.04 6.31 4.452 4.723a.75.75 0 0 0-.534-.223H3.04v1.447c0 .252.124.483.33.62l.921.618c.624.413.999 1.112.999 1.868V12a5.23 5.23 0 0 0 4.135 5.128.74.74 0 0 0 .365-.628m6.75-.75h-2.25v1.5h4.5c1.24 0 2.25-1.01 2.25-2.25v-2.25h-1.5a.75.75 0 0 0-.75.75c0 1.24-1.01 2.25-2.25 2.25m-2.25-4.5h1.5v1.5h-1.5z" clip-rule="evenodd"/></svg>