<svg xmlns="http://www.w3.org/2000/svg" width="24" height="24"><g clip-path="url(#a)"><path fill-rule="evenodd" d="M18.75 12.18v2.896c1.71.348 3 1.863 3 3.674V21H18a2.24 2.24 0 0 1-1.5-.575A2.24 2.24 0 0 1 15 21h-3.75v-2.25c0-.109.007-.211.014-.32l.001-.02a3.76 3.76 0 0 1 2.93-3.322c-.171-.83-.723-1.54-1.482-2.305a5 5 0 0 0-.525-.455l-2.164 3.74-.648-.374a3.72 3.72 0 0 1-1.748-2.278 3.7 3.7 0 0 1 .07-2.166H4.5a2.2 2.2 0 0 1-1.594-.67A2.2 2.2 0 0 1 2.25 9c0-1.24 1.01-2.25 2.25-2.25h.076c.348-1.71 1.863-3 3.674-3h2.295c.601 0 1.221.069 1.84.206a7.8 7.8 0 0 1 1.823.659l.517-.517a3.764 3.764 0 0 1 5.305 0l.53.53-3.062 3.062a8.74 8.74 0 0 1 1.252 4.49M16.6 6.468l1.748-1.748a2.27 2.27 0 0 0-2.564.44l-.282.281q.597.463 1.098 1.027M18 19.5h2.25v-.75c0-1.24-1.01-2.25-2.25-2.25h-.75v-4.32a7.2 7.2 0 0 0-1.322-4.154 6.7 6.7 0 0 0-1.977-1.842 6.4 6.4 0 0 0-1.89-.765 7 7 0 0 0-1.516-.17H8.25A2.255 2.255 0 0 0 6 7.5v.75H4.5a.75.75 0 0 0-.75.75c0 .201.077.386.215.521.15.153.335.23.535.23h5.697l-.889 1.569a2.23 2.23 0 0 0-.23 1.71c.087.33.246.63.462.881l2.11-3.648.643.352a6.6 6.6 0 0 1 1.482 1.11c1.058 1.066 2.027 2.293 1.975 4.048l-.022.728H15q-.092.001-.185.01l-.032.002a2.24 2.24 0 0 0-2.022 2.005l-.002.032q-.008.1-.009.2v.75H15a.75.75 0 0 0 .75-.75V18h1.5v.75c0 .415.336.75.75.75M7.5 8.25v-1.5H9v1.5z" clip-rule="evenodd"/></g><defs><clipPath id="a"><path d="M0 0h24v24H0z"/></clipPath></defs></svg>