<svg xmlns="http://www.w3.org/2000/svg" viewBox="0 0 24 24"><path d="M21 12.75v.84c0 .338-.337.615-.75.615h-.352l-.098-.277a1.63 1.63 0 0 0-.87-.968 1.8 1.8 0 0 0-1.418-.03l-1.762.675V9.75c0-1.238-.953-2.25-2.115-2.25H10.5V6H9v1.5H3.66c-1.17 0-2.115 1.012-2.115 2.25v9c0 1.238.953 2.25 2.115 2.25h8.647l3.893 1.635 4.913-4.913-.706-2.032c1.163-.075 2.093-.982 2.093-2.1V12H21zm-17.955 6v-9c0-.412.278-.75.615-.75h9.975c.338 0 .615.338.615.75v4.403l-2.16-2.16a1.7 1.7 0 0 0-1.32-.488c-.473.03-.922.232-1.267.577a1.93 1.93 0 0 0-.578 1.275c-.03.503.15.983.488 1.32l2.894 2.896c-.397.18-.735.494-.952.915a1.9 1.9 0 0 0-.203 1.005H3.66c-.337 0-.615-.338-.615-.75zm12.81 2.115-3.113-1.312s-.067-.038-.09-.098c-.03-.075-.014-.18.03-.277.09-.18.27-.278.413-.278.037 0 .067 0 .098.015l.675.285 1.087-1.095-4.492-4.492a.2.2 0 0 1-.053-.173c0-.105.06-.21.143-.3a.5.5 0 0 1 .3-.143c.052 0 .12 0 .172.053l2.865 2.865 4.148-1.597c.09-.038.18-.038.247 0a.16.16 0 0 1 .09.097l1.005 2.91-3.532 3.533zM21 6.75h1.5v3H21zm1.5-3.135V4.5H21v-.885c0-.338-.337-.615-.75-.615h-.75V1.5h.75c1.238 0 2.25.953 2.25 2.115M17.25 3h-2.925V1.5h2.925zM10.5 4.5H9v-.885C9 2.445 10.012 1.5 11.25 1.5H12V3h-.75c-.412 0-.75.277-.75.615z"/></svg>