<svg xmlns="http://www.w3.org/2000/svg" viewBox="0 0 24 24"><path d="M21.21 2.79a.7.7 0 0 1 .892.292.703.703 0 0 1-.195.923L17.55 7.192l.315.548a2.12 2.12 0 0 1-.772 2.895l-2.775 1.605c.54 1.38 0 2.985-1.32 3.75l-1.02.585-1.298-2.243-1.223.705c.428.87.458 1.928-.06 2.865 1.118 1.995-.3 4.59-2.715 4.59H5.257v-1.845c0-.435-.172-.855-.48-1.162L3.502 18.21a6.87 6.87 0 0 1-2.01-4.853 10.97 10.97 0 0 1 5.483-9.495l.27-.157a7.18 7.18 0 0 1 8.857 1.335l5.1-2.25zm-5.37 4.245A5.773 5.773 0 0 0 7.957 4.92l-.27.157A9.55 9.55 0 0 0 2.91 13.35a5.47 5.47 0 0 0 1.597 3.855l1.275 1.275c.57.57.893 1.35.893 2.16v.435h.015c1.41 0 2.197-1.635 1.32-2.738l-.353-.442.353-.443c.877-1.102.097-2.737-1.32-2.737h-.015v1.432h-1.41v-2.842H6.69c.727 0 1.365.232 1.867.622l1.425-.825-.705-1.222 1.223-.705 1.988 3.45a1.63 1.63 0 0 0 .405-2.115l-.473-.818 2.91-1.68h-.367c-.825 0-1.62-.33-2.205-.915l.997-.997c.322.322.75.502 1.207.502h1.756a.8.8 0 0 0-.068-.165zm-4.695-.308a.938.938 0 1 1 0 1.876.938.938 0 0 1 0-1.876"/></svg>