<svg xmlns="http://www.w3.org/2000/svg" viewBox="0 0 24 24"><path fill-rule="evenodd" d="M12 9a3.75 3.75 0 1 0 0-7.5A3.75 3.75 0 0 0 12 9m0-6a2.25 2.25 0 1 1 0 4.5A2.25 2.25 0 0 1 12 3m0 10.5a4.5 4.5 0 1 0 0 9 4.5 4.5 0 0 0 0-9m3 4.5a2.96 2.96 0 0 1-.425 1.514l-1.131-1.13q.053-.188.056-.384a1.5 1.5 0 0 0-.75-1.292v-1.601A3 3 0 0 1 15 18m-3.75-2.893v1.6A1.49 1.49 0 0 0 10.5 18q.002.196.056.384l-1.131 1.131a2.967 2.967 0 0 1 1.825-4.408m-.764 5.468 1.13-1.131q.189.053.384.056.196-.003.384-.055l1.131 1.13a2.91 2.91 0 0 1-3.03 0" clip-rule="evenodd"/><path d="M9.75 10.5h4.5a5.257 5.257 0 0 1 5.25 5.25v3.75H18v-3.75A3.754 3.754 0 0 0 14.25 12h-4.5A3.755 3.755 0 0 0 6 15.75v3.75H4.5v-3.75a5.257 5.257 0 0 1 5.25-5.25"/></svg>