<svg xmlns="http://www.w3.org/2000/svg" viewBox="0 0 24 24"><path d="M17.25 7.5h-1.638A2.25 2.25 0 0 0 13.5 6h-.75v-.75C12.75 4.01 13.76 3 15 3V1.5a3.754 3.754 0 0 0-3.75 3.75V6h-.75c-.976 0-1.802.63-2.112 1.5H6.75C5.51 7.5 4.5 8.51 4.5 9.75v9C4.5 19.99 5.51 21 6.75 21h1.638c.31.87 1.136 1.5 2.112 1.5h3c.976 0 1.802-.63 2.112-1.5h1.638c1.24 0 2.25-1.01 2.25-2.25v-9c0-1.24-1.01-2.25-2.25-2.25M6 15.75v-3h12v3zm4.5-8.25h3a.75.75 0 0 1 .75.75v3h-4.5v-3a.75.75 0 0 1 .75-.75M6 9.75A.75.75 0 0 1 6.75 9h1.5v2.25H6zm0 9v-1.5h2.25v2.25h-1.5a.75.75 0 0 1-.75-.75M13.5 21h-3a.75.75 0 0 1-.75-.75v-3h4.5v3a.75.75 0 0 1-.75.75m4.5-2.25a.75.75 0 0 1-.75.75h-1.5v-2.25H18zm-2.25-7.5V9h1.5a.75.75 0 0 1 .75.75v1.5z"/></svg>