<svg xmlns="http://www.w3.org/2000/svg" xml:space="preserve" viewBox="0 0 32 32"><path d="M23 10h-2.184A3 3 0 0 0 18 8h-1V7c0-1.654 1.346-3 3-3V2c-2.757 0-5 2.243-5 5v1h-1a3 3 0 0 0-2.816 2H9c-1.654 0-3 1.346-3 3v12c0 1.654 1.346 3 3 3h2.184A3 3 0 0 0 14 30h4a3 3 0 0 0 2.816-2H23c1.654 0 3-1.346 3-3V13c0-1.654-1.346-3-3-3M8 21v-4h16v4zm6-11h4c.552 0 1 .449 1 1v4h-6v-4c0-.551.448-1 1-1m-6 3c0-.551.448-1 1-1h2v3H8zm0 12v-2h3v3H9a1 1 0 0 1-1-1m10 3h-4a1 1 0 0 1-1-1v-4h6v4a1 1 0 0 1-1 1m6-3a1 1 0 0 1-1 1h-2v-3h3zm-3-10v-3h2c.552 0 1 .449 1 1v2z"/></svg>