<svg xmlns="http://www.w3.org/2000/svg" xml:space="preserve" viewBox="0 0 32 32"><path d="M14.036 3.058a9.04 9.04 0 0 0-7.033 2.231A9.02 9.02 0 0 0 4 12v3h2v-3c0-1.99.852-3.893 2.336-5.22 1.505-1.346 3.45-1.963 5.478-1.735 3.165.355 5.744 2.906 6.132 6.064.251 2.046-.355 4.012-1.709 5.536-.798.898-1.237 2.116-1.237 3.429v1.153c0 3.094-2.391 5.682-5.33 5.77-1.472.046-2.923-.505-4-1.55S6 23 6 21.5H4c0 2.046.809 3.958 2.277 5.383a7.44 7.44 0 0 0 5.453 2.114c4.008-.12 7.27-3.605 7.27-7.77v-1.153c0-.823.26-1.569.732-2.101a9.03 9.03 0 0 0 2.197-7.107c-.497-4.067-3.818-7.351-7.893-7.808"/><path d="M11.5 20H7.866v2H11.5c1.93 0 3.5-1.57 3.5-3.5a3.504 3.504 0 0 0-5-3.162V12c0-1.654 1.346-3 3-3s3 1.346 3 3h2c0-2.757-2.243-5-5-5s-5 2.243-5 5v6.5h2c0-.827.673-1.5 1.5-1.5s1.5.673 1.5 1.5-.673 1.5-1.5 1.5M24.389 6.86l-1.641 1.144C23.567 9.179 24 10.562 24 12s-.433 2.821-1.252 3.997l1.641 1.143C25.443 15.627 26 13.85 26 12s-.557-3.627-1.611-5.14"/><path d="m27.212 3.955-1.57 1.238C27.185 7.149 28 9.503 28 12s-.815 4.851-2.358 6.808l1.57 1.238A12.87 12.87 0 0 0 30 12c0-2.951-.964-5.733-2.788-8.045"/></svg>