<svg xmlns="http://www.w3.org/2000/svg" width="24" height="24"><path fill-rule="evenodd" d="M7.715 2.563a6.75 6.75 0 0 1 2.812-.27l-.003.001a6.75 6.75 0 0 1 4.275 11.186 2.36 2.36 0 0 0-.549 1.576v.864a5.775 5.775 0 0 1-5.451 5.83h-.174A5.625 5.625 0 0 1 3 16.125h1.5a4.125 4.125 0 0 0 4.252 4.125 4.263 4.263 0 0 0 3.998-4.33v-.864a3.85 3.85 0 0 1 .928-2.572A5.25 5.25 0 1 0 4.5 9v2.25H3V9a6.75 6.75 0 0 1 4.715-6.437M5.9 15h2.725A1.125 1.125 0 1 0 7.5 13.875H6V9a3.75 3.75 0 1 1 7.5 0H12a2.25 2.25 0 1 0-4.5 0v2.504A2.625 2.625 0 1 1 8.625 16.5H5.9zm12.392-9.855L17.06 6a5.25 5.25 0 0 1 0 5.995l1.23.857a6.75 6.75 0 0 0 0-7.71zm.94-1.25 1.177-.929a9.75 9.75 0 0 1 0 12.069l-1.177-.929a8.254 8.254 0 0 0 0-10.211" clip-rule="evenodd"/></svg>