<svg xmlns="http://www.w3.org/2000/svg" xml:space="preserve" viewBox="0 0 32 32"><circle cx="24.5" cy="19.5" r="1.5"/><path d="M26.997 14.604 27 14.5C27 7.607 21.393 2 14.5 2S2 7.607 2 14.5 7.607 27 14.5 27c2.227 0 4.38-.583 6.282-1.691C22.389 28.078 24.5 30 24.5 30S30 25 30 19.5a5.49 5.49 0 0 0-3.003-4.896M24.5 14a5.48 5.48 0 0 0-3.364 1.155l-1.872-.393a.77.77 0 0 1-.441-.552l-.421-2.104c-.068-.343.104-.689.492-.882L23.22 8.66a10.43 10.43 0 0 1 1.755 5.364A5 5 0 0 0 24.5 14M4 14.5c0-1.228.223-2.402.612-3.498l5.639-.626a.763.763 0 0 1 .848.656l.583 4.084-1.483 1.979a2.78 2.78 0 0 0 .257 3.621l2.155 1.528c.18.126.293.314.321.532a.77.77 0 0 1-.177.597l-1.052 1.237C7.269 23.382 4 19.32 4 14.5M14.5 25c-.163 0-.322-.017-.483-.024l.261-.308a2.77 2.77 0 0 0-.519-4.061l-1.937-1.358a.77.77 0 0 1-.024-.954l1.981-2.642-.7-4.904a2.76 2.76 0 0 0-3.049-2.361l-4.381.487C7.514 5.95 10.78 4 14.5 4c2.903 0 5.534 1.185 7.437 3.096l-3.989 2.368a2.77 2.77 0 0 0-1.507 3.035l.421 2.104a2.78 2.78 0 0 0 1.774 2.062l1.025.219A5.5 5.5 0 0 0 19 19.5c0 1.395.355 2.756.883 4.013A10.45 10.45 0 0 1 14.5 25m10 2.09c-1.435-1.681-3.5-4.617-3.5-7.59 0-1.93 1.57-3.5 3.5-3.5s3.5 1.57 3.5 3.5c0 2.973-2.066 5.91-3.5 7.59"/></svg>