<svg xmlns="http://www.w3.org/2000/svg" viewBox="0 0 24 24"><path d="M12 1.5A10.5 10.5 0 1 0 22.5 12 10.51 10.51 0 0 0 12 1.5M21 12a8.9 8.9 0 0 1-.805 3.7l-1.72-2.867-2.466-.517a.75.75 0 0 1-.439-.543l-.357-1.783a.78.78 0 0 1 .462-.851l3.746-2.22A8.94 8.94 0 0 1 21 12M3 12a8.9 8.9 0 0 1 .546-3.056l4.84-.538a.757.757 0 0 1 .825.64l.5 3.502-1.282 1.71a2.26 2.26 0 0 0 .209 2.942l1.814 1.285a.75.75 0 0 1 .142 1.1l-.932 1.095A9.005 9.005 0 0 1 3 12m9 9c-.207 0-.409-.017-.612-.03l.35-.412a2.25 2.25 0 0 0-.423-3.3L9.665 16.1a.754.754 0 0 1-.033-.941l1.656-2.207-.588-4.118a2.24 2.24 0 0 0-2.475-1.918L4.31 7.35a8.97 8.97 0 0 1 14.15-1.604l-3.494 2.073a2.25 2.25 0 0 0-1.223 2.465l.357 1.783a2.26 2.26 0 0 0 1.442 1.675l1.985.423 1.814 3.024A8.99 8.99 0 0 1 12 21"/></svg>