<svg xmlns="http://www.w3.org/2000/svg" width="24" height="24"><path fill-rule="evenodd" d="M20.25 10.875v.075a4.12 4.12 0 0 1 2.25 3.675c0 4.125-4.125 7.875-4.125 7.875a16.5 16.5 0 0 1-2.788-3.518 9.37 9.37 0 1 1 4.663-8.107m-4.398.491a4.1 4.1 0 0 1 2.88-.848 7.8 7.8 0 0 0-1.317-4.023l-3.244 1.926a.605.605 0 0 0-.37.662l.316 1.575a.58.58 0 0 0 .331.414zM3.46 8.25A7.8 7.8 0 0 0 3 10.875a7.88 7.88 0 0 0 5.775 7.583l.792-.926a.57.57 0 0 0 .133-.45.57.57 0 0 0-.24-.399l-1.617-1.146a2.09 2.09 0 0 1-.193-2.716l1.112-1.485-.438-3.063a.57.57 0 0 0-.636-.492zm7.187 10.49q.113.009.23.01a7.84 7.84 0 0 0 4.036-1.115 7.8 7.8 0 0 1-.662-3.01 4.1 4.1 0 0 1 .496-1.964l-.769-.165a2.09 2.09 0 0 1-1.33-1.546l-.316-1.575a2.08 2.08 0 0 1 1.13-2.277l2.992-1.773A7.857 7.857 0 0 0 4.237 6.656l3.286-.365a2.07 2.07 0 0 1 2.286 1.774l.525 3.675-1.484 1.98a.58.58 0 0 0 .018.716l1.452 1.018a2.08 2.08 0 0 1 .39 3.046l-.196.231zm5.104-4.115c0 2.23 1.549 4.432 2.625 5.692C19.451 19.057 21 16.856 21 14.625a2.625 2.625 0 0 0-5.25 0M19 13.69a1.125 1.125 0 1 0-1.25 1.87A1.125 1.125 0 0 0 19 13.69" clip-rule="evenodd"/></svg>