<svg xmlns="http://www.w3.org/2000/svg" viewBox="0 0 24 24"><path fill-rule="evenodd" d="M18.038 2.963c.795 0 1.558.315 2.122.877a3.006 3.006 0 0 1 0 4.245l-4.98 4.98L14.115 12l3.06-3.06-2.115-2.115L12 9.885 10.935 8.82l4.98-4.98a3 3 0 0 1 2.123-.877m.202 4.92.863-.863a1.5 1.5 0 1 0-2.123-2.122l-.863.862zm-7.297 3.06 2.114 2.114 1.066 1.066 5.752 5.752-1.058 1.058-5.752-5.753-3.083 3.082-.225.158-5.745 2.557-.99-.99 2.558-5.744.157-.226 3.083-3.082-5.753-5.752 1.058-1.058 5.752 5.753zm-2.371 6.362L6.697 15.43 5.19 18.81zm-.936-3.055 2.114 2.113L12 14.115 9.886 12z" clip-rule="evenodd"/></svg>