<svg xmlns="http://www.w3.org/2000/svg" viewBox="0 0 24 24"><path d="M16.634 16.5H5.7a9 9 0 0 1-.161-.29 9 9 0 0 1-.52-1.21H18a3 3 0 0 0 0-6H5.025q.215-.619.515-1.2a9 9 0 0 1 .162-.292h10.935a5.24 5.24 0 0 0 4.033-1.89l.6-.716-.505-.484A10.5 10.5 0 0 0 4.211 7.1 10.6 10.6 0 0 0 3 12h1.5a9 9 0 0 1 .14-1.5H18a1.5 1.5 0 1 1 0 3H4.638a9 9 0 0 1-.138-1.492H3a10.494 10.494 0 0 0 10.5 10.5 10.44 10.44 0 0 0 7.26-2.919l.503-.483-.6-.719a5.24 5.24 0 0 0-4.029-1.887M13.5 3a8.94 8.94 0 0 1 5.674 2.017 3.73 3.73 0 0 1-2.54.991H6.782A9 9 0 0 1 13.5 3m0 18.01A8.98 8.98 0 0 1 6.782 18h9.852a3.74 3.74 0 0 1 2.541.99 8.94 8.94 0 0 1-5.675 2.02"/></svg>