<svg xmlns="http://www.w3.org/2000/svg" viewBox="0 0 24 24"><path d="M8.78 9.97a.75.75 0 0 0-1.28.53H6a2.25 2.25 0 1 1 4.5 0H9a.75.75 0 0 0-.22-.53m6.97-1.72a2.25 2.25 0 0 0-2.25 2.25H15a.75.75 0 1 1 1.5 0H18a2.25 2.25 0 0 0-2.25-2.25m-6.371 6.707c.797-.46 1.7-.705 2.621-.707a5.27 5.27 0 0 1 4.541 2.625l-1.297.75a3.743 3.743 0 0 0-6.488 0l-1.298-.75a5.27 5.27 0 0 1 1.92-1.918"/><path fill-rule="evenodd" d="M6.167 3.27A10.5 10.5 0 0 1 12 1.5 10.51 10.51 0 0 1 22.5 12 10.5 10.5 0 1 1 6.167 3.27M7 19.483A9 9 0 0 0 12 21a9.01 9.01 0 0 0 9-9 9 9 0 1 0-14 7.483" clip-rule="evenodd"/></svg>