<svg xmlns="http://www.w3.org/2000/svg" viewBox="0 0 24 24"><path fill-rule="evenodd" d="M15.484 16.842a5.346 5.346 0 0 1-7.071 0A5.35 5.35 0 0 1 6.646 13.5H17.25a5.35 5.35 0 0 1-1.767 3.342m-1.74-.61A3.84 3.84 0 0 0 15.123 15H8.775a3.84 3.84 0 0 0 4.969 1.232" clip-rule="evenodd"/><path d="M8.25 7.5h1.5v3h-1.5zm7.5 0h-1.5v3h1.5z"/><path fill-rule="evenodd" d="M6.167 3.27A10.5 10.5 0 0 1 12 1.5 10.51 10.51 0 0 1 22.5 12 10.5 10.5 0 1 1 6.167 3.27M7 19.483A9 9 0 0 0 12 21a9.01 9.01 0 0 0 9-9 9 9 0 1 0-14 7.483" clip-rule="evenodd"/></svg>