<svg xmlns="http://www.w3.org/2000/svg" viewBox="0 0 24 24"><path fill-rule="evenodd" d="M12.749 1.513H11.25v5.244h1.498zm2.337 15.835-2.652-1.94a.74.74 0 0 0-.884 0l-2.65 1.94.352-3.265a.74.74 0 0 0-.442-.765l-3.004-1.325 3.004-1.326c.3-.135.48-.442.442-.764L8.9 6.637l2.651 1.94a.74.74 0 0 0 .884 0l2.652-1.94-.352 3.266a.734.734 0 0 0 .442.764l3.004 1.326-3.004 1.325a.75.75 0 0 0-.442.765zm-3.094-3.58c.427 0 .862.127 1.236.374A2.25 2.25 0 0 1 14.464 12a2.24 2.24 0 0 1-1.236-2.142 2.25 2.25 0 0 1-2.472 0A2.25 2.25 0 0 1 9.52 12a2.24 2.24 0 0 1 1.236 2.142 2.26 2.26 0 0 1 1.236-.374M2.544 7.407l.749-1.297 4.54 2.621-.748 1.298zm4.54 6.569-4.542 2.62.75 1.298 4.54-2.62zm4.167 3.268h1.498v5.243H11.25zm5.666-3.272-.75 1.298 4.542 2.622.749-1.298zm-.752-5.238 4.541-2.62.75 1.297-4.542 2.62zM7.88 5.611a.75.75 0 1 0 0-1.499.75.75 0 0 0 0 1.499M4.51 12a.75.75 0 1 1-1.499 0 .75.75 0 0 1 1.498 0m3.37 7.88a.75.75 0 1 0 0-1.499.75.75 0 0 0 0 1.498m8.989-.75a.75.75 0 1 1-1.498 0 .75.75 0 0 1 1.498 0m3.37-6.382a.75.75 0 1 0 0-1.498.75.75 0 0 0 0 1.498m-3.37-7.888a.75.75 0 1 1-1.498 0 .75.75 0 0 1 1.498 0" clip-rule="evenodd"/></svg>