<svg xmlns="http://www.w3.org/2000/svg" viewBox="0 0 24 24"><path fill-rule="evenodd" d="m19.875 19.875-1.057 1.061-3.593-3.593A8.4 8.4 0 0 1 12 18a8.87 8.87 0 0 1-5.565-2.046L1.5 12l4.65-3.727-3.086-3.087 1.061-1.061zM3.9 12l2.43 1.95v-.006a5.9 5.9 0 0 1 0-3.894zm5.925 3.944a4.49 4.49 0 0 0 4.11.112l-1.478-1.478q-.226.044-.457.047a2.598 2.598 0 0 1-2.58-3.082l-1.477-1.478a4.49 4.49 0 0 0 1.882 5.879m.24-8.001a4.49 4.49 0 0 1 5.992 5.992l1.793 1.792L22.5 12l-4.935-3.954A8.87 8.87 0 0 0 12 6c-1.106.005-2.2.23-3.219.66zm7.606 2.107L20.1 12l-2.43 1.95c.44-1.26.44-2.633 0-3.894z" clip-rule="evenodd"/><path d="M14.625 12A2.625 2.625 0 0 0 12 9.375a2.6 2.6 0 0 0-.457.046l3.036 3.037a3 3 0 0 0 .046-.458"/></svg>