<svg xmlns="http://www.w3.org/2000/svg" viewBox="0 0 24 24"><path d="M20.565 15.105a.75.75 0 0 1-1.02-.308l-1.507-2.85a10.4 10.4 0 0 1-2.925 1.426l.57 2.985a.75.75 0 0 1-.743.892.746.746 0 0 1-.735-.608l-.555-2.924c-.533.082-1.072.142-1.62.142-.547 0-1.072-.053-1.605-.135l-.465 2.903a.75.75 0 0 1-.743.63q-.054.002-.12-.008a.75.75 0 0 1-.622-.855l.48-3.008a10.5 10.5 0 0 1-2.97-1.447l-1.56 2.978a.76.76 0 0 1-.667.405.8.8 0 0 1-.345-.083.747.747 0 0 1-.315-1.013l1.71-3.27a10.5 10.5 0 0 1-1.59-1.934.75.75 0 0 1 .224-1.035.745.745 0 0 1 1.035.232 8.92 8.92 0 0 0 7.546 4.147 8.92 8.92 0 0 0 7.544-4.147.75.75 0 0 1 1.035-.232c.353.225.45.69.226 1.035a10.7 10.7 0 0 1-1.628 1.972c.015.023.03.03.045.053l1.613 3.06a.747.747 0 0 1-.316 1.012z"/></svg>