<svg xmlns="http://www.w3.org/2000/svg" xml:space="preserve" viewBox="0 0 32 32"><path d="M13.42 10.591A5.95 5.95 0 0 1 16 10c3.308 0 6 2.692 6 6 0 .925-.216 1.797-.591 2.58l2.389 2.389L30 16l-6.58-5.272C21.15 8.909 18.575 8 16 8c-1.45 0-2.897.3-4.292.88zm10.141 2.813L26.801 16l-3.241 2.596c.281-.815.44-1.686.44-2.596s-.159-1.781-.439-2.596"/><path d="M19.5 16a3.5 3.5 0 0 0-3.5-3.5 3.4 3.4 0 0 0-.61.062l4.049 4.049c.035-.2.061-.402.061-.611m.741 4.241-1.766-1.766-1.415-1.415-2.12-2.12-1.415-1.415-1.766-1.766-1.917-1.917L5.5 5.5 4.086 6.914l4.116 4.116L2 16l6.58 5.272C10.85 23.091 13.425 24 16 24a11.2 11.2 0 0 0 4.295-.876l4.791 4.791L26.5 26.5l-4.342-4.342zM8.439 18.596 5.199 16l3.241-2.596C8.159 14.219 8 15.09 8 16s.159 1.781.439 2.596M16 22c-3.308 0-6-2.692-6-6 0-.925.216-1.797.591-2.58l1.97 1.97a3.5 3.5 0 0 0-.061.61 3.5 3.5 0 0 0 3.5 3.5c.209 0 .411-.026.61-.062l1.97 1.97A5.9 5.9 0 0 1 16 22"/></svg>