<svg xmlns="http://www.w3.org/2000/svg" viewBox="0 0 24 24"><path fill-rule="evenodd" d="M12.75 1.5h-1.5v3h1.5zm4.72 4.72 2.25-2.25 1.06 1.06-2.25 2.25zM3.22 5.03l1.06-1.06 2.25 2.25-1.06 1.06zm14.25 12.75 1.06-1.06 2.25 2.25-1.06 1.06zm-12-1.062-2.25 2.25 1.06 1.06 2.25-2.25zm7.28 2.779v3h-1.5v-3zM12 18c2.035-.023 4-.746 5.565-2.046L22.5 12l-4.935-3.954A8.87 8.87 0 0 0 12 6c-2.035.023-4 .746-5.565 2.046L1.5 12l4.935 3.954A8.87 8.87 0 0 0 12 18m4.5-6a4.5 4.5 0 1 1-9 0 4.5 4.5 0 0 1 9 0m1.17 1.95a5.92 5.92 0 0 0 0-3.894L20.1 12zm-11.34-3.9a5.93 5.93 0 0 0 0 3.894L3.9 12zm7.128 4.133a2.625 2.625 0 1 1-2.917-4.366 2.625 2.625 0 0 1 2.917 4.366m-.833-3.118a1.125 1.125 0 1 0-1.25 1.87 1.125 1.125 0 0 0 1.25-1.87" clip-rule="evenodd"/></svg>