<svg xmlns="http://www.w3.org/2000/svg" width="24" height="24"><path fill-rule="evenodd" d="M12 6c2.035.023 4 .746 5.565 2.046L22.5 12l-4.935 3.954A8.87 8.87 0 0 1 12 18a8.87 8.87 0 0 1-5.565-2.046L1.5 12l4.935-3.954A8.87 8.87 0 0 1 12 6M8.258 9.5a4.5 4.5 0 1 0 7.484 5 4.5 4.5 0 0 0-7.484-5M20.1 12l-2.43-1.95v.006c.44 1.26.44 2.633 0 3.894zM6.33 13.944a5.93 5.93 0 0 1 0-3.894L3.9 12zm4.212-4.127a2.625 2.625 0 1 1 2.916 4.366 2.625 2.625 0 0 1-2.916-4.366m.833 3.118a1.125 1.125 0 1 0 1.25-1.87 1.125 1.125 0 0 0-1.25 1.87" clip-rule="evenodd"/></svg>