<svg xmlns="http://www.w3.org/2000/svg" width="24" height="24"><path fill-rule="evenodd" d="M4.5 3C3.673 3 3 3.673 3 4.5v3.75H1.5V4.5c0-1.654 1.346-3 3-3h3.75V3zm11.25-1.5h3.75c1.654 0 3 1.346 3 3v3.75H21V4.5c0-.827-.673-1.5-1.5-1.5h-3.75zm-3 10.5V8.25h-1.5V12a.75.75 0 0 1-.75.75h-.75v1.5h.75c1.24 0 2.25-1.01 2.25-2.25m-6-3.75h1.5v3h-1.5zm10.5 0h-1.5v3h1.5zM19.5 21c.827 0 1.5-.673 1.5-1.5v-3.75h1.5v3.75c0 1.654-1.346 3-3 3h-3.75V21zM3 19.5v-3.75H1.5v3.75c0 1.654 1.346 3 3 3h3.75V21H4.5c-.827 0-1.5-.673-1.5-1.5m9-2.25c.44 0 1.973-.093 3.233-1.294l1.034 1.088c-1.618 1.54-3.523 1.706-4.267 1.706-2.234 0-3.729-1.194-4.268-1.708l1.035-1.085c.408.389 1.54 1.293 3.233 1.293" clip-rule="evenodd"/></svg>