<svg xmlns="http://www.w3.org/2000/svg" width="24" height="24"><path fill-rule="evenodd" d="M14.25 8.25h4.5A2.25 2.25 0 0 1 21 10.5v11.56l-3.31-3.31H12a2.25 2.25 0 0 1-2.25-2.25v-3.75H6.31L3 16.06V4.5a2.25 2.25 0 0 1 2.25-2.25H12a2.25 2.25 0 0 1 2.25 2.25zM4.5 12.44l1.19-1.19h4.06v-.75A2.25 2.25 0 0 1 12 8.25h.75V4.5a.75.75 0 0 0-.75-.75H5.25a.75.75 0 0 0-.75.75zm13.81 4.81 1.19 1.19V10.5a.75.75 0 0 0-.75-.75H12a.75.75 0 0 0-.75.75v6a.75.75 0 0 0 .75.75zm-7.06-12H6v1.5h5.25zm3.181 9.128c.272.13.568.196.869.195a2 2 0 0 0 1.659-.88l1.242.841a3.5 3.5 0 0 1-5.638.225l1.172-.936c.187.235.425.425.696.555M6 8.25h2.25v1.5H6z" clip-rule="evenodd"/></svg>