<svg xmlns="http://www.w3.org/2000/svg" xml:space="preserve" viewBox="0 0 32 32"><path d="M16 10c2.206 0 4-1.794 4-4s-1.794-4-4-4-4 1.794-4 4 1.794 4 4 4m0-6c1.103 0 2 .897 2 2s-.897 2-2 2-2-.897-2-2 .897-2 2-2m4.01 9.876a74 74 0 0 0 8.156-.89l-.332-1.973a71.9 71.9 0 0 1-23.669 0l-.33 1.973a74 74 0 0 0 8.165.891c.004.7.009 1.398 0 2.11a120 120 0 0 1-.991 13.884l1.982.258c.352-2.693.602-5.411.772-8.129h4.482c.17 2.718.421 5.437.773 8.13L21 29.87a119 119 0 0 1-.991-13.883c-.008-.712-.003-1.411.001-2.111M13.877 20A121 121 0 0 0 14 16.013c.009-.694.003-1.373 0-2.055.667.018 1.334.042 2 .042.669 0 1.34-.024 2.01-.042-.003.682-.009 1.361 0 2.054.017 1.326.061 2.656.122 3.988z"/></svg>