<svg xmlns="http://www.w3.org/2000/svg" width="24" height="24"><g clip-path="url(#a)"><path fill-rule="evenodd" d="M15 4.5c0 1.654-1.345 3-3 3-1.654 0-3-1.346-3-3s1.346-3 3-3c1.655 0 3 1.346 3 3m-1.5 0a1.501 1.501 0 0 0-3 0 1.501 1.501 0 0 0 3 0m7.625 5.24a55 55 0 0 1-6.117.667v.112a85 85 0 0 0-.001 1.471c.043 3.462.293 6.966.743 10.413l-1.486.195a91 91 0 0 1-.58-6.098h-3.361a91 91 0 0 1-.58 6.097l-1.486-.194c.45-3.448.699-6.952.743-10.413.007-.498.004-.987 0-1.477v-.105a55 55 0 0 1-6.124-.668l.248-1.48c5.85.982 11.905.98 17.752 0zM10.5 12.01a91 91 0 0 1-.092 2.99h3.191a91 91 0 0 1-.091-2.991q-.007-.648-.001-1.285v-.255l-.3.008c-.403.011-.805.023-1.207.023-.4 0-.8-.011-1.2-.023l-.3-.008.002.255q.005.637-.002 1.286" clip-rule="evenodd"/></g><defs><clipPath id="a"><path d="M0 0h24v24H0z"/></clipPath></defs></svg>