<svg xmlns="http://www.w3.org/2000/svg" viewBox="0 0 24 24"><g clip-path="url(#a)"><path fill-rule="evenodd" d="M15 4.5c0 1.654-1.345 3-3 3s-3-1.346-3-3 1.345-3 3-3 3 1.346 3 3m-1.5 0c0-.827-.673-1.5-1.5-1.5s-1.5.673-1.5 1.5S11.173 6 12 6s1.5-.673 1.5-1.5m7.625 5.24a55 55 0 0 1-6.117.667l-.001.112c-.003.488-.006.975 0 1.471.043 3.462.292 6.966.743 10.413l-1.486.195a91 91 0 0 1-.58-6.098h-3.362a91 91 0 0 1-.579 6.097l-1.486-.194c.449-3.448.699-6.952.743-10.413.006-.498.003-.987 0-1.477v-.105a55 55 0 0 1-6.124-.668l.248-1.48c5.85.982 11.904.98 17.752 0zM10.5 12.01a91 91 0 0 1-.092 2.99h3.191a91 91 0 0 1-.091-2.991c-.006-.433-.004-.859-.002-1.285l.002-.255-.302.008c-.402.011-.804.023-1.206.023-.4 0-.8-.011-1.2-.023l-.3-.008.001.255c.002.426.005.852-.001 1.286" clip-rule="evenodd"/></g><defs><clipPath id="a"><path d="M0 0h24v24H0z"/></clipPath></defs></svg>