<svg xmlns="http://www.w3.org/2000/svg" viewBox="0 0 24 24"><path fill-rule="evenodd" d="M16.28 20.03a.75.75 0 0 0 .22-.53v-.75H18v.75a2.25 2.25 0 0 1-2.25 2.25H5.25A2.25 2.25 0 0 1 3 19.5V7.95l5.434-5.7H18v8.25h-1.5V3.75H9.75V9H4.5v10.5a.75.75 0 0 0 .75.75h10.5a.75.75 0 0 0 .53-.22M8.25 4.617 5.501 7.5H8.25z" clip-rule="evenodd"/><path fill-rule="evenodd" d="M13.956 12c.336-.004.67.058.981.184.29.118.552.294.77.519.219.23.39.5.503.797.122.325.183.67.18 1.016v.22a2.8 2.8 0 0 1-.18 1.02 2.26 2.26 0 0 1-1.269 1.309 2.5 2.5 0 0 1-.97.185h-1.706V12zm.851 3.886c.219-.343.321-.747.293-1.152l-.001-.002v-.225a1.88 1.88 0 0 0-.293-1.146 1 1 0 0 0-.85-.386h-.426v3.298h.441a.98.98 0 0 0 .836-.387" clip-rule="evenodd"/><path d="M21 12.975V12h-3.512v5.25h1.262v-2.092h2.041v-.975H18.75v-1.208z"/><path fill-rule="evenodd" d="M9.1 12c.29-.004.577.04.851.132.237.08.455.207.643.372.173.157.311.35.403.565.096.225.144.467.141.711a1.65 1.65 0 0 1-.14.693 1.5 1.5 0 0 1-.404.531c-.19.156-.408.273-.643.343a2.8 2.8 0 0 1-.85.121h-.83v1.782H7.004V12zm.575 2.294a.6.6 0 0 0 .136-.225.9.9 0 0 0 .043-.283q0-.157-.043-.309a.7.7 0 0 0-.136-.257.65.65 0 0 0-.235-.178.8.8 0 0 0-.34-.067h-.83v1.517h.83a1 1 0 0 0 .34-.052.6.6 0 0 0 .235-.146" clip-rule="evenodd"/></svg>