<svg xmlns="http://www.w3.org/2000/svg" width="24" height="24"><path fill-rule="evenodd" d="M4.5 19.5V9h5.25V3.75h6.75v4.5H18v-6H8.434L3 7.95V19.5a2.25 2.25 0 0 0 2.25 2.25h5.25v-1.5H5.25a.75.75 0 0 1-.75-.75m1.001-12L8.25 4.617V7.5zM19.5 13.638v-.888a3 3 0 0 0-6 0v.888A2.25 2.25 0 0 0 12 15.75v4.5a2.25 2.25 0 0 0 2.25 2.25h4.5A2.25 2.25 0 0 0 21 20.25v-4.5a2.25 2.25 0 0 0-1.5-2.112M15 12.75a1.5 1.5 0 1 1 3 0v.75h-3zm4.5 7.5a.75.75 0 0 1-.75.75h-4.5a.75.75 0 0 1-.75-.75v-4.5a.75.75 0 0 1 .75-.75h4.5a.75.75 0 0 1 .75.75zm-2.167-3.497a1.5 1.5 0 1 0-1.667 2.495 1.5 1.5 0 0 0 1.667-2.495M6 11.25h5.25v1.5H6zm3.75 3H6v1.5h3.75z" clip-rule="evenodd"/></svg>