<svg xmlns="http://www.w3.org/2000/svg" viewBox="0 0 32 32"><path d="M22 26c0 .55-.45 1-1 1H7c-.55 0-1-.45-1-1V12h7V5h9v9h2V3H11.25L4 10.6V26c0 1.65 1.35 3 3 3h14c1.65 0 3-1.35 3-3v-1h-2zM7.34 10 11 6.16V10zm10.51 7.64q-.06.12-.06.27c0 .1.03.2.09.28s.14.16.25.24.24.14.4.21c.16.06.33.13.53.19.37.12.69.25.98.39s.53.31.73.49.35.39.45.62q.15.345.15.78c0 .31-.06.59-.18.83s-.29.45-.52.61c-.22.16-.49.29-.81.38a4.3 4.3 0 0 1-1.76.07c-.24-.04-.46-.1-.67-.18s-.41-.19-.6-.31c-.19-.13-.35-.27-.48-.45s-.24-.37-.32-.59-.12-.47-.12-.74h1.67c0 .2.03.37.08.51q.075.21.24.33c.1.09.23.15.38.18.15.04.32.06.52.06.16 0 .29-.02.41-.06.11-.04.21-.09.28-.15s.13-.13.16-.22c.03-.08.05-.17.05-.26 0-.11-.01-.21-.05-.29a.6.6 0 0 0-.18-.25c-.09-.08-.21-.15-.37-.23q-.24-.12-.63-.24c-.3-.1-.6-.22-.88-.34q-.42-.195-.75-.45c-.22-.17-.39-.38-.52-.61s-.2-.5-.2-.81.07-.57.2-.81.32-.44.56-.61q.36-.255.84-.39c.33-.09.68-.14 1.06-.14s.72.05 1.04.15.59.25.82.43c.23.19.41.41.53.68.13.26.19.56.19.89H19.7q0-.195-.06-.36a.75.75 0 0 0-.48-.46c-.12-.04-.26-.07-.42-.07s-.3.02-.42.06q-.18.06-.3.15c-.12.09-.14.14-.18.22Zm-7.19 1.72v.37c0 .36.02.66.06.92.04.25.11.46.21.62.09.16.22.28.37.35s.34.11.56.11c.37 0 .66-.09.85-.26.2-.18.3-.45.31-.84h1.61c-.02.35-.09.67-.23.96s-.32.54-.56.75-.53.37-.86.49c-.33.11-.71.17-1.13.17-.45 0-.85-.08-1.2-.23s-.65-.37-.9-.65-.43-.62-.56-1.03c-.13-.4-.19-.86-.19-1.37v-.36c0-.5.07-.96.2-1.37.13-.4.33-.75.57-1.03.25-.28.55-.5.89-.65.35-.15.74-.23 1.16-.23s.82.06 1.16.18.62.29.86.51c.23.22.42.47.55.77s.21.62.24.97h-1.62c0-.19-.03-.35-.08-.5-.05-.14-.11-.27-.21-.36s-.22-.17-.36-.22c-.15-.05-.33-.07-.55-.07-.2 0-.37.04-.52.11s-.27.19-.37.35-.17.37-.22.62-.07.56-.07.92Zm18.47-3.32-2.33 6.92h-1.83l-2.31-6.92h1.85l1.37 5.04 1.38-5.04h1.86Z"/></svg>