<svg xmlns="http://www.w3.org/2000/svg" viewBox="0 0 24 24"><path fill-rule="evenodd" d="M16.28 20.03a.75.75 0 0 0 .22-.53v-.75H18v.75a2.25 2.25 0 0 1-2.25 2.25H5.25A2.25 2.25 0 0 1 3 19.5V7.95l5.434-5.7H18v8.25h-1.5V3.75H9.75V9H4.5v10.5a.75.75 0 0 0 .75.75h10.5a.75.75 0 0 0 .53-.22M8.25 4.617 5.501 7.5H8.25z" clip-rule="evenodd"/><path d="M19.349 16.285a.94.94 0 0 0 .648-.199.84.84 0 0 0 .238-.634h1.226c-.008.252-.067.5-.171.73a1.7 1.7 0 0 1-.429.569 2 2 0 0 1-.655.368 2.6 2.6 0 0 1-.856.131 2.3 2.3 0 0 1-.913-.172 1.84 1.84 0 0 1-.68-.493 2.15 2.15 0 0 1-.425-.783 3.5 3.5 0 0 1-.145-1.036v-.277a3.3 3.3 0 0 1 .15-1.036 2.25 2.25 0 0 1 .435-.784c.187-.213.419-.383.679-.496.28-.118.58-.177.884-.173.3-.006.597.04.881.133a1.78 1.78 0 0 1 1.068.967c.104.232.166.48.186.734h-1.227a1.5 1.5 0 0 0-.057-.375.66.66 0 0 0-.16-.274.7.7 0 0 0-.277-.164 1.3 1.3 0 0 0-.414-.057.9.9 0 0 0-.397.085.7.7 0 0 0-.28.266 1.4 1.4 0 0 0-.167.472q-.06.346-.055.696v.284q-.003.349.05.695.035.25.156.472a.66.66 0 0 0 .28.268c.134.06.28.088.427.083"/><path fill-rule="evenodd" d="M9.45 12.184A2.5 2.5 0 0 0 8.468 12H6.776v5.25h1.705c.333.004.662-.06.97-.184a2.26 2.26 0 0 0 1.27-1.31c.122-.325.184-.671.18-1.02v-.22a2.8 2.8 0 0 0-.177-1.016 2.4 2.4 0 0 0-.503-.797 2.25 2.25 0 0 0-.772-.52m.163 2.55c.028.405-.074.809-.293 1.152a.98.98 0 0 1-.836.387h-.441v-3.298h.425a1 1 0 0 1 .851.386c.219.34.321.743.293 1.146zm3.483-2.558a2.42 2.42 0 0 1 1.805 0c.27.113.513.284.71.502.205.231.363.501.464.794.115.338.171.693.166 1.05v.207a3.1 3.1 0 0 1-.165 1.053c-.1.293-.256.563-.461.794a2 2 0 0 1-.705.5 2.3 2.3 0 0 1-.9.174 2.3 2.3 0 0 1-.908-.174 2 2 0 0 1-.71-.5 2.3 2.3 0 0 1-.46-.793 3.2 3.2 0 0 1-.165-1.054v-.207a3.2 3.2 0 0 1 .162-1.05 2.3 2.3 0 0 1 .46-.794 2 2 0 0 1 .707-.502m1.636 3.712c.19-.355.277-.755.253-1.157v-.213a2.15 2.15 0 0 0-.255-1.157.88.88 0 0 0-1.466 0 2.23 2.23 0 0 0-.244 1.157v.214c-.023.4.063.8.249 1.155a.82.82 0 0 0 .74.403.81.81 0 0 0 .723-.402" clip-rule="evenodd"/></svg>