<svg xmlns="http://www.w3.org/2000/svg" width="24" height="24"><path fill-rule="evenodd" d="M4.5 9v10.5a.75.75 0 0 0 .75.75h5.25v1.5H5.25A2.25 2.25 0 0 1 3 19.5V7.95l5.434-5.7H18v8.25h-1.5V3.75H9.75V9zm3.75-4.383L5.501 7.5H8.25zm3 6.633H6v1.5h5.25zm-5.25 3h3.75v1.5H6zm13.784 2.25h1.966V18h-1.966c-.084.369-.231.72-.434 1.04l1.393 1.392-1.06 1.06L18.29 20.1c-.32.203-.671.35-1.04.434V22.5h-1.5v-1.966a3.3 3.3 0 0 1-1.04-.434l-1.392 1.393-1.06-1.06 1.392-1.393a3.3 3.3 0 0 1-.434-1.04H11.25v-1.5h1.966c.084-.369.231-.72.434-1.04l-1.393-1.392 1.06-1.06L14.71 14.4c.32-.203.671-.35 1.04-.434V12h1.5v1.966c.369.084.72.231 1.04.434l1.392-1.393 1.06 1.06-1.392 1.393c.203.32.35.671.434 1.04m-4.326 2.309a1.875 1.875 0 1 0 2.084-3.118 1.875 1.875 0 0 0-2.084 3.118" clip-rule="evenodd"/></svg>