<svg xmlns="http://www.w3.org/2000/svg" viewBox="0 0 24 24"><path d="M18 10.5V2.25H8.438L3 7.95V19.5a2.257 2.257 0 0 0 2.25 2.25h10.5A2.257 2.257 0 0 0 18 19.5v-.75h-1.5v.75c0 .413-.337.75-.75.75H5.25a.75.75 0 0 1-.75-.75V9h5.25V3.75h6.75v6.75zm-12.495-3L8.25 4.62V7.5z"/><path d="M11.903 16.043h1.882v.832H10.83v-4.477h1.08v3.645zm4.987-.39a.5.5 0 0 0-.03-.188.5.5 0 0 0-.113-.158.8.8 0 0 0-.232-.142 4 4 0 0 0-.398-.15 6 6 0 0 1-.555-.218 2 2 0 0 1-.472-.285 1.4 1.4 0 0 1-.33-.382 1.03 1.03 0 0 1-.127-.51c0-.195.045-.36.127-.51a1.14 1.14 0 0 1 .353-.383q.227-.156.532-.247a2.4 2.4 0 0 1 .668-.082q.36-.002.652.097.292.102.518.27.213.18.337.428.122.249.12.555h-1.05a.7.7 0 0 0-.038-.225.46.46 0 0 0-.3-.293.7.7 0 0 0-.262-.045.7.7 0 0 0-.262.037.45.45 0 0 0-.188.098.5.5 0 0 0-.113.143.5.5 0 0 0-.037.172c0 .068.023.127.053.18s.09.105.157.15q.099.067.255.135c.098.037.21.082.33.12.233.075.435.157.623.247.18.09.337.195.457.308a1.14 1.14 0 0 1 .383.885q0 .291-.113.525-.114.224-.33.383c-.142.104-.307.18-.51.24a2.6 2.6 0 0 1-1.103.044 2 2 0 0 1-.795-.307 1.2 1.2 0 0 1-.3-.285 1.5 1.5 0 0 1-.202-.375 1.3 1.3 0 0 1-.075-.465h1.058a.8.8 0 0 0 .052.322c.037.09.082.158.15.21a.6.6 0 0 0 .24.113c.098.022.203.037.33.037a.8.8 0 0 0 .255-.037.5.5 0 0 0 .172-.09.3.3 0 0 0 .098-.135c.015-.053.03-.105.03-.165zm-8.895-1.77.735-1.485h1.23l-1.253 2.22 1.283 2.257H8.745l-.75-1.515-.75 1.515H6l1.282-2.258-1.245-2.22h1.23l.735 1.486zm12.51 0 .735-1.485h1.23l-1.252 2.22 1.282 2.257h-1.245l-.75-1.515-.75 1.515H18.51l1.282-2.258-1.245-2.22h1.23l.735 1.486z"/></svg>