<svg xmlns="http://www.w3.org/2000/svg" width="24" height="24"><path fill-rule="evenodd" d="M4.5 19.5V9h5.25V3.75h6.75v6H18v-7.5H8.434L3 7.95V19.5a2.25 2.25 0 0 0 2.25 2.25H12v-1.5H5.25a.75.75 0 0 1-.75-.75m1.001-12L8.25 4.617V7.5zm4.999 3.75v1.5H6v-1.5zm-1.5 3H6v1.5h3zm12.923-1.345a25 25 0 0 1-4.338-1.485l-.335-.17-.335.168a25 25 0 0 1-4.338 1.484l-.577.14v.592c0 7.725 4.895 8.794 5.1 8.835l.15.031.15-.03c.209-.041 5.1-1.11 5.1-8.834v-.593zm-4.673 8.052c-.685-.22-3.545-1.454-3.74-6.744a25.5 25.5 0 0 0 3.74-1.29c1.211.526 2.462.957 3.74 1.29-.195 5.3-3.042 6.524-3.74 6.744m-2.463-4.271 1.05-1.068 1.02 1.003 2.051-2.052 1.06 1.06-3.105 3.105z" clip-rule="evenodd"/></svg>