<svg xmlns="http://www.w3.org/2000/svg" width="24" height="24"><path fill-rule="evenodd" d="M16.28 20.03a.75.75 0 0 0 .22-.53v-.75H18v.75a2.25 2.25 0 0 1-2.25 2.25H5.25A2.25 2.25 0 0 1 3 19.5V7.95l5.434-5.7H18v8.25h-1.5V3.75H9.75V9H4.5v10.5a.75.75 0 0 0 .75.75h10.5a.75.75 0 0 0 .53-.22M8.25 4.617 5.501 7.5H8.25zm4.547 12.633V12h1.265v4.275h2.204v.975zm7.872-2.475a2.3 2.3 0 0 0-.538-.361 5.4 5.4 0 0 0-.726-.288 5 5 0 0 1-.392-.142 1.6 1.6 0 0 1-.295-.155.7.7 0 0 1-.186-.176.36.36 0 0 1-.066-.209.45.45 0 0 1 .181-.363.6.6 0 0 1 .225-.112q.151-.043.31-.04a.9.9 0 0 1 .31.048q.126.046.225.135.091.089.133.207.045.129.044.265h1.228a1.46 1.46 0 0 0-.536-1.154 1.8 1.8 0 0 0-.605-.32 2.5 2.5 0 0 0-.774-.11 3 3 0 0 0-.785.101c-.222.06-.433.158-.623.288a1.35 1.35 0 0 0-.41.45 1.29 1.29 0 0 0 0 1.2c.098.174.23.327.387.45q.256.203.554.334.318.143.65.253.237.075.465.179.149.066.275.17.09.073.131.182.035.105.034.216a.5.5 0 0 1-.037.193.4.4 0 0 1-.118.16.6.6 0 0 1-.205.109 1 1 0 0 1-.3.04 1.6 1.6 0 0 1-.384-.04.7.7 0 0 1-.283-.135.6.6 0 0 1-.175-.247 1 1 0 0 1-.06-.375h-1.237a1.7 1.7 0 0 0 .086.548q.081.239.235.439.151.194.355.331.208.14.442.23.241.093.497.135.26.042.524.043.396.003.778-.095c.216-.054.42-.148.6-.277a1.26 1.26 0 0 0 .383-.45 1.35 1.35 0 0 0 .135-.614 1.35 1.35 0 0 0-.45-1.038zm-11.323.697-.884 1.778H7.005l1.504-2.648L7.046 12h1.441l.855 1.745L10.2 12h1.45l-1.467 2.602 1.507 2.648h-1.46z" clip-rule="evenodd"/></svg>