<svg xmlns="http://www.w3.org/2000/svg" viewBox="0 0 24 24"><path fill-rule="evenodd" d="M4.5 9v10.5a.75.75 0 0 0 .75.75h3v1.5h-3A2.25 2.25 0 0 1 3 19.5V7.95l5.434-5.7H18v7.491h-1.5V3.75H9.75V9zm3.75-4.383L5.501 7.5H8.25z" clip-rule="evenodd"/><path d="M14.25 11.25H6v1.5h8.25zm-3.75 3v1.5H6v-1.5z"/><path fill-rule="evenodd" d="M19.5 10.505c.599 0 1.173.238 1.598.66a2.26 2.26 0 0 1 0 3.193l-5.87 5.87a3.8 3.8 0 0 1-1.121.772l-3.365 1.517-.992-.992 1.51-3.37a3.8 3.8 0 0 1 .772-1.12l5.87-5.87c.425-.422 1-.66 1.598-.66m-5.332 8.663 5.869-5.869a.761.761 0 0 0-.537-1.296.76.76 0 0 0-.537.222l-5.87 5.869a2.3 2.3 0 0 0-.464.675l-.705 1.569 1.57-.704c.25-.113.48-.271.674-.466" clip-rule="evenodd"/></svg>