<svg xmlns="http://www.w3.org/2000/svg" viewBox="0 0 24 24"><path d="M18 10.5V2.25H8.438L3 7.95V19.5a2.257 2.257 0 0 0 2.25 2.25h10.5A2.257 2.257 0 0 0 18 19.5v-.75h-1.5v.75c0 .413-.337.75-.75.75H5.25a.75.75 0 0 1-.75-.75V9h5.25V3.75h6.75v6.75zm-12.495-3L8.25 4.62V7.5z"/><path d="M14.775 15.848a.5.5 0 0 0-.037-.218.44.44 0 0 0-.136-.187 1.3 1.3 0 0 0-.277-.173q-.18-.09-.473-.18a9 9 0 0 1-.66-.255 3 3 0 0 1-.562-.338 1.5 1.5 0 0 1-.39-.457 1.2 1.2 0 0 1-.15-.607c0-.233.053-.428.15-.608q.149-.268.42-.457.27-.192.63-.293c.248-.067.51-.105.795-.105s.54.037.78.112.442.188.615.323c.172.143.307.308.397.51.09.203.143.42.143.668h-1.245a.8.8 0 0 0-.045-.27.56.56 0 0 0-.36-.346 1 1 0 0 0-.315-.052 1 1 0 0 0-.315.045.8.8 0 0 0-.225.112.45.45 0 0 0-.18.367c0 .076.022.151.067.211q.067.09.188.18c.082.06.18.105.3.158.12.045.247.097.397.142.278.09.518.188.736.292.217.105.397.233.547.368s.262.293.338.465q.112.258.112.585 0 .35-.135.622a1.2 1.2 0 0 1-.39.458 1.9 1.9 0 0 1-.607.285 3.2 3.2 0 0 1-1.32.053 2.6 2.6 0 0 1-.503-.136 2.6 2.6 0 0 1-.45-.232 1.4 1.4 0 0 1-.36-.338 1.8 1.8 0 0 1-.24-.442 1.6 1.6 0 0 1-.09-.555h1.252c0 .15.023.277.06.383a.5.5 0 0 0 .18.247.6.6 0 0 0 .286.135q.166.045.39.045c.12 0 .217-.015.307-.045a.5.5 0 0 0 .33-.277.6.6 0 0 0 .037-.195zm-3.795-.368a1.9 1.9 0 0 1-.173.72 1.7 1.7 0 0 1-.42.563q-.271.234-.645.367a2.7 2.7 0 0 1-.847.128q-.506-.002-.9-.173a1.9 1.9 0 0 1-.675-.488 2.1 2.1 0 0 1-.42-.772 3.3 3.3 0 0 1-.143-1.027v-.278c0-.375.053-.72.15-1.027.098-.3.248-.563.428-.773s.412-.375.667-.488a2.2 2.2 0 0 1 .87-.172c.316 0 .616.045.87.135a1.77 1.77 0 0 1 1.058.96q.146.336.18.728H9.765c0-.143-.023-.263-.06-.375a.64.64 0 0 0-.158-.27.8.8 0 0 0-.277-.165 1.3 1.3 0 0 0-.412-.053q-.223.002-.39.082a.66.66 0 0 0-.278.263c-.075.12-.127.277-.165.465s-.053.42-.053.69v.277c0 .27.015.495.045.69q.045.283.158.466c.067.12.165.21.277.262a1 1 0 0 0 .42.082c.278 0 .495-.067.638-.195.15-.135.225-.337.232-.63h1.208zm8.438.338 1.035-3.78h1.395l-1.748 5.19h-1.373l-1.732-5.19h1.387l1.028 3.78z"/></svg>