<svg xmlns="http://www.w3.org/2000/svg" viewBox="0 0 24 24"><path fill-rule="evenodd" d="M4.5 19.5V9h5.25V3.75h6.75v6.75H18V2.25H8.434L3 7.95V19.5a2.25 2.25 0 0 0 2.25 2.25h5.25v-1.5H5.25a.75.75 0 0 1-.75-.75m1.001-12L8.25 4.617V7.5z" clip-rule="evenodd"/><path d="M6 11.25h5.25v1.5H6zm3.75 3H6v1.5h3.75zm6.014.764h1.5v1.936l1.28 1.283-1.06 1.06-1.72-1.719z"/><path fill-rule="evenodd" d="M16.514 12.014a5.25 5.25 0 1 0 5.25 5.25 5.257 5.257 0 0 0-5.25-5.25m0 9a3.75 3.75 0 1 1 0-7.5 3.75 3.75 0 0 1 0 7.5" clip-rule="evenodd"/></svg>