<svg xmlns="http://www.w3.org/2000/svg" xml:space="preserve" viewBox="0 0 32 32"><path d="M22 26a1 1 0 0 1-1 1H7a1 1 0 0 1-1-1V12h7V5h9v9h2V3H11.245L4 10.6V26c0 1.654 1.346 3 3 3h14c1.654 0 3-1.346 3-3v-1h-2zM7.335 10 11 6.156V10z"/><path d="M13.268 16.176A3.4 3.4 0 0 0 12.134 16H9.34v7h1.687v-2.376h1.107q.63 0 1.134-.161.505-.16.857-.457.35-.295.538-.709.188-.413.188-.923 0-.515-.188-.949a2.2 2.2 0 0 0-.538-.753 2.5 2.5 0 0 0-.857-.496m-.187 2.583a.76.76 0 0 1-.181.298.8.8 0 0 1-.313.195 1.3 1.3 0 0 1-.453.069h-1.107v-2.019h1.107q.263 0 .453.089.19.088.313.238c.123.15.142.213.181.343q.057.196.057.412 0 .203-.057.375m7.187-2.583A3.4 3.4 0 0 0 19.134 16H16.34v7h1.687v-2.376h1.107q.63 0 1.134-.161.505-.16.857-.457.35-.295.538-.709.188-.413.188-.923 0-.515-.188-.949a2.2 2.2 0 0 0-.538-.753 2.5 2.5 0 0 0-.857-.496m-.187 2.583a.76.76 0 0 1-.181.298.8.8 0 0 1-.313.195 1.3 1.3 0 0 1-.453.069h-1.107v-2.019h1.107q.263 0 .453.089.19.088.313.238c.123.15.142.213.181.343q.057.196.057.412 0 .203-.057.375M23 16v1.302h2.063V23h1.688v-5.698h2.101V16z"/></svg>