<svg xmlns="http://www.w3.org/2000/svg" viewBox="0 0 24 24"><path fill-rule="evenodd" d="m4.5 7.95 5.434-5.7H19.5V19.5a2.25 2.25 0 0 1-2.25 2.25H6.75A2.25 2.25 0 0 1 4.5 19.5zm5.25-.45V4.617L7.001 7.5zm8.03 12.53a.75.75 0 0 0 .22-.53V3.75h-3v1.5h-1.5v-1.5h-2.25V9H6v10.5a.75.75 0 0 0 .75.75h10.5a.75.75 0 0 0 .53-.22M15 6.75h-1.5v1.5H15zm-1.5 3H15v1.5h-1.5zm-.841 3.659A2.25 2.25 0 0 1 16.5 15v.75a2.25 2.25 0 0 1-4.5 0V15c0-.597.237-1.169.659-1.591m2.121 2.871a.75.75 0 0 0 .22-.53V15a.75.75 0 1 0-1.5 0v.75a.75.75 0 0 0 1.28.53" clip-rule="evenodd"/></svg>