<svg xmlns="http://www.w3.org/2000/svg" width="24" height="24"><path fill-rule="evenodd" d="M4.5 19.5V9h5.25V3.75h6.75V9H18V2.25H8.434L3 7.95V19.5a2.25 2.25 0 0 0 2.25 2.25h5.25v-1.5H5.25a.75.75 0 0 1-.75-.75m1.001-12L8.25 4.617V7.5zM6 11.25h5.25v1.5H6zm3.75 3H6v1.5h3.75zm4.5-1.5a2.25 2.25 0 1 0 4.5 0 2.25 2.25 0 0 0-4.5 0m3 0a.75.75 0 1 1-1.5 0 .75.75 0 0 1 1.5 0m-4.15 4.1a3.75 3.75 0 0 1 2.65-1.1h1.5A3.754 3.754 0 0 1 21 19.5v3h-9v-3a3.75 3.75 0 0 1 1.1-2.65m1.059 1.059A2.25 2.25 0 0 0 13.5 19.5V21h6v-1.5a2.25 2.25 0 0 0-2.25-2.25h-1.5a2.25 2.25 0 0 0-1.591.659" clip-rule="evenodd"/></svg>