<svg xmlns="http://www.w3.org/2000/svg" width="24" height="24"><path fill-rule="evenodd" d="M4.5 19.5V9h5.25V3.75h6.75v6H18v-7.5H8.434L3 7.95V19.5a2.25 2.25 0 0 0 2.25 2.25H9v-1.5H5.25a.75.75 0 0 1-.75-.75m1.001-12L8.25 4.617V7.5zM6 11.25h6.75v1.5H6zm5.25 3H6v1.5h5.25zm6.22.22a.75.75 0 1 0 1.062 1.061.75.75 0 0 0-1.062-1.061m3.687-1.491c.307.48.502 1.025.568 1.591a3.734 3.734 0 0 1-4.245 4.132L13.681 22.5H10.5v-3.181l3.798-3.796a3.74 3.74 0 0 1 6.859-2.544m-2.572 4.19a2.25 2.25 0 1 0-1.936-3.974 2.24 2.24 0 0 0-.811 2.379l.11.418L12 19.939V21h1.06l3.948-3.947.417.11c.38.105.78.107 1.16.007" clip-rule="evenodd"/></svg>