<svg xmlns="http://www.w3.org/2000/svg" xml:space="preserve" viewBox="0 0 32 32"><path d="M6 26V12h7V5h9v8h2V3H11.245L4 10.6V26c0 1.654 1.346 3 3 3h5v-2H7a1 1 0 0 1-1-1m1.335-16L11 6.156V10z"/><path d="M8 15h9v2H8zm0 4h7v2H8zm15.293.293a.999.999 0 1 0 1.414 1.414.999.999 0 1 0-1.414-1.414"/><path d="M28.967 19.427c-.175-1.525-1.037-2.875-2.366-3.703a4.96 4.96 0 0 0-5.151-.03c-1.756 1.066-2.669 3.021-2.386 5L14 25.758V30h4.242l5.065-5.064a5.01 5.01 0 0 0 4.228-1.4 4.98 4.98 0 0 0 1.432-4.109m-2.846 2.694c-.754.756-1.832 1.042-2.888.763l-.556-.146L17.414 28H16v-1.414l5.264-5.264-.147-.557c-.351-1.324.188-2.645 1.37-3.362a2.98 2.98 0 0 1 3.057.018c.82.511 1.33 1.305 1.438 2.234a3 3 0 0 1-.861 2.466"/></svg>