<svg xmlns="http://www.w3.org/2000/svg" viewBox="0 0 24 24"><path fill-rule="evenodd" d="M4.5 9v10.5a.75.75 0 0 0 .75.75h5.25v1.5H5.25A2.25 2.25 0 0 1 3 19.5V7.95l5.434-5.7H18v8.25h-1.5V3.75H9.75V9zm3.75-4.383L5.501 7.5H8.25zm3 6.633H6v1.5h5.25zm-5.25 3h3.75v1.5H6zm7.583-1.365A5.25 5.25 0 0 1 16.5 12a5.257 5.257 0 0 1 5.25 5.25 5.25 5.25 0 1 1-8.167-4.365m5.154 1.373A3.7 3.7 0 0 0 16.5 13.5a3.754 3.754 0 0 0-3.75 3.75c.004.658.183 1.303.519 1.869zm-4.474 5.984c.643.49 1.429.755 2.237.758a3.754 3.754 0 0 0 3.75-3.75 3.7 3.7 0 0 0-.519-1.869z" clip-rule="evenodd"/></svg>