<svg xmlns="http://www.w3.org/2000/svg" xml:space="preserve" viewBox="0 0 32 32"><path d="M6 26V12h7V5h9v9h2V3H11.245L4 10.6V26c0 1.654 1.346 3 3 3h7v-2H7a1 1 0 0 1-1-1m1.335-16L11 6.156V10z"/><path d="M8 15h7v2H8zm0 4h5v2H8zm21 5v-2h-2.621a4.4 4.4 0 0 0-.579-1.386l1.857-1.857-1.414-1.414-1.857 1.857A4.4 4.4 0 0 0 23 18.621V16h-2v2.621c-.5.114-.965.313-1.386.579l-1.857-1.857-1.414 1.414 1.857 1.857A4.4 4.4 0 0 0 17.621 22H15v2h2.621c.114.5.313.965.579 1.386l-1.857 1.857 1.414 1.414 1.857-1.857c.421.266.887.465 1.386.579V30h2v-2.621c.5-.114.965-.313 1.386-.579l1.857 1.857 1.414-1.414-1.857-1.857c.266-.421.465-.887.579-1.386zm-7 1.5c-1.379 0-2.5-1.121-2.5-2.5s1.121-2.5 2.5-2.5 2.5 1.121 2.5 2.5-1.121 2.5-2.5 2.5"/></svg>