<svg xmlns="http://www.w3.org/2000/svg" width="24" height="24"><path fill-rule="evenodd" d="M16.28 20.03a.75.75 0 0 0 .22-.53v-.75H18v.75a2.25 2.25 0 0 1-2.25 2.25H5.25A2.25 2.25 0 0 1 3 19.5V7.95l5.434-5.7H18v8.25h-1.5V3.75H9.75V9H4.5v10.5a.75.75 0 0 0 .75.75h10.5a.75.75 0 0 0 .53-.22M8.25 4.617 5.501 7.5H8.25zM9.1 12c.29-.004.577.04.851.132.237.08.455.207.643.372.173.157.311.35.403.565.096.225.144.467.141.711a1.65 1.65 0 0 1-.14.693 1.5 1.5 0 0 1-.404.531c-.19.156-.408.273-.643.343a2.8 2.8 0 0 1-.85.121h-.83v1.782H7.004V12zm.575 2.294a.6.6 0 0 0 .136-.225.9.9 0 0 0 .043-.283q0-.157-.043-.309a.7.7 0 0 0-.136-.257.65.65 0 0 0-.235-.178.8.8 0 0 0-.34-.067h-.83v1.517h.83a1 1 0 0 0 .34-.052.6.6 0 0 0 .235-.146m5.526-2.162a2.6 2.6 0 0 0-.85-.132h-2.096v5.25h1.265v-1.782h.83q.435.005.851-.12c.235-.071.453-.188.643-.344a1.5 1.5 0 0 0 .403-.531 1.65 1.65 0 0 0 .141-.693 1.8 1.8 0 0 0-.14-.711 1.6 1.6 0 0 0-.404-.565 1.9 1.9 0 0 0-.643-.372m-.14 1.937a.6.6 0 0 1-.136.225.6.6 0 0 1-.235.146 1 1 0 0 1-.34.052h-.83v-1.517h.83a.8.8 0 0 1 .34.067q.138.062.235.178a.7.7 0 0 1 .136.257q.043.151.043.31a.9.9 0 0 1-.043.282m2.189-1.094V12h4.388v.975h-1.575v4.275h-1.266v-4.275z" clip-rule="evenodd"/></svg>