<svg xmlns="http://www.w3.org/2000/svg" xml:space="preserve" style="fill-rule:evenodd;clip-rule:evenodd;stroke-linejoin:round;stroke-miterlimit:2" viewBox="0 0 33 33"><path d="M13.02 27.02h-6c-.55 0-1-.45-1-1v-14.6l6.098-6.4h9.902v7h2v-9H11.262l-7.242 7.6v15.4c0 1.65 1.35 3 3 3h6z"/><path d="M8.02 21.02h3v-2h-3zm0-4h5v-2h-5zm3-13v6h-5.8v2h7.8v-8zm11 10c-4.415 0-8 3.585-8 8s3.585 8 8 8 8-3.585 8-8-3.585-8-8-8m0 2c3.311 0 6 2.689 6 6s-2.689 6-6 6-6-2.689-6-6 2.689-6 6-6"/><path d="M22.02 14.02c-.763 0-1.515.377-2.149 1.145-1.064 1.288-1.851 3.867-1.851 6.855s.787 5.567 1.851 6.855c.634.768 1.386 1.145 2.149 1.145s1.515-.377 2.149-1.145c1.064-1.288 1.851-3.867 1.851-6.855s-.787-5.567-1.851-6.855c-.634-.768-1.386-1.145-2.149-1.145m0 2c.119 0 .227.063.334.147.211.163.398.409.574.709.677 1.159 1.092 3.035 1.092 5.144s-.415 3.985-1.092 5.144c-.176.3-.363.546-.574.709-.107.084-.215.147-.334.147s-.227-.063-.334-.147c-.211-.163-.398-.409-.574-.709-.677-1.159-1.092-3.035-1.092-5.144s.415-3.985 1.092-5.144c.176-.3.363-.546.574-.709.107-.084.215-.147.334-.147"/><path d="M15.02 23.02h14v-2h-14z"/></svg>