<svg xmlns="http://www.w3.org/2000/svg" width="24" height="24"><g clip-path="url(#a)"><path fill-rule="evenodd" d="M16.5 9V3.75H9.75V9H4.5v10.5c0 .413.338.75.75.75h4.5v1.5h-4.5A2.257 2.257 0 0 1 3 19.5V7.95l5.438-5.7H18V9zM8.25 4.62 5.505 7.5H8.25zM6 11.25h3.75v1.5H6zm2.25 3H6v1.5h2.25zm2.25 2.25c0-3.307 2.693-6 6-6s6 2.693 6 6-2.692 6-6 6-6-2.692-6-6m8.978-.75h1.454a4.5 4.5 0 0 0-2.077-3.075c.352.885.555 1.965.622 3.075M16.496 21c-.48-.007-1.309-1.416-1.466-3.75h2.932c-.157 2.334-.985 3.743-1.466 3.75m.004-9c-.48 0-1.312 1.41-1.47 3.75h2.94c-.157-2.34-.99-3.75-1.47-3.75m-2.977 3.75c.067-1.11.277-2.19.622-3.075a4.5 4.5 0 0 0-2.077 3.075zm0 1.5h-1.455a4.5 4.5 0 0 0 2.077 3.075c-.352-.885-.555-1.965-.622-3.075m5.954 0c-.067 1.11-.277 2.19-.622 3.075a4.5 4.5 0 0 0 2.078-3.075z" clip-rule="evenodd"/></g><defs><clipPath id="a"><path d="M0 0h24v24H0z"/></clipPath></defs></svg>