<svg xmlns="http://www.w3.org/2000/svg" viewBox="0 0 32 32"><path d="M22 26c0 .55-.45 1-1 1H7c-.55 0-1-.45-1-1V12h7V5h9v9h2V3H11.25L4 10.6V26c0 1.65 1.35 3 3 3h14c1.65 0 3-1.35 3-3v-1h-2zM7.34 10 11 6.16V10zm6.71 9.38c.11-.16.19-.34.25-.55q.09-.315.09-.72c0-.34-.06-.65-.18-.91s-.3-.48-.53-.66-.51-.31-.83-.4c-.33-.09-.69-.14-1.09-.14H9.01v6.98h1.68v-2.46h.91l1.23 2.46h1.8v-.07l-1.46-2.81c.18-.09.35-.19.5-.31s.28-.25.39-.41Zm-1.59-.41c-.16.17-.4.25-.72.25h-1.06V17.3h1.06c.32 0 .56.09.72.26s.24.41.24.71-.08.53-.24.7m5.6 4.02v-5.68H16v-1.3h5.84v1.3h-2.1v5.68zm7.17-5.68v1.61h2.71v1.29h-2.71v2.78h-1.68v-6.98h4.67v1.3z"/></svg>