<svg xmlns="http://www.w3.org/2000/svg" viewBox="0 0 32 32"><path d="M4 10.6V26c0 1.65 1.35 3 3 3h14c1.65 0 3-1.35 3-3v-1h-2v1c0 .55-.45 1-1 1H7c-.55 0-1-.45-1-1V12h7V5h9v9h2V3H11.25zm3.34-.6L11 6.16V10zm8.54 6.53v4.86h2.51v1.11h-3.94v-5.97h1.44Zm5.17 1.42c-.03.07-.05.15-.05.23 0 .09.03.17.07.24s.12.14.21.2.2.12.34.18c.13.05.28.11.44.16.31.1.58.21.83.33.24.12.45.26.61.41a1.53 1.53 0 0 1 .51 1.18c0 .26-.05.49-.15.7-.1.2-.25.37-.44.51s-.41.24-.68.32c-.27.07-.56.11-.88.11-.2 0-.4-.02-.59-.05a2.6 2.6 0 0 1-1.06-.41c-.16-.11-.29-.23-.4-.38s-.2-.31-.27-.5-.1-.39-.1-.62h1.41c0 .17.02.31.07.43s.11.21.2.28.19.12.32.15.27.05.44.05c.13 0 .25-.02.34-.05s.17-.07.23-.12a.4.4 0 0 0 .13-.18c.03-.07.04-.14.04-.22a.7.7 0 0 0-.04-.25.7.7 0 0 0-.15-.21c-.07-.07-.18-.13-.31-.19s-.31-.13-.53-.2c-.26-.09-.5-.18-.74-.29s-.45-.23-.63-.38-.33-.32-.44-.51c-.11-.2-.17-.42-.17-.68s.06-.48.17-.68.27-.37.47-.51.44-.25.71-.33.57-.11.89-.11.61.04.87.13.49.21.69.36q.285.24.45.57c.11.22.16.47.16.74h-1.4c0-.11-.02-.21-.05-.3a.61.61 0 0 0-.4-.39c-.1-.04-.22-.06-.35-.06s-.25.01-.35.05c-.1.03-.19.07-.25.13-.07.05-.12.12-.15.19ZM8.01 22.5l1.71-3.01-1.66-2.96H9.7l.98 1.98.98-1.98h1.64l-1.67 2.96 1.71 3.01h-1.66l-1-2.02-1 2.02H8.02Zm22 0h-1.66l-1-2.02-1 2.02h-1.66l1.71-3.01-1.66-2.96h1.64l.98 1.98.98-1.98h1.64l-1.67 2.96 1.71 3.01Z"/></svg>