<svg xmlns="http://www.w3.org/2000/svg" viewBox="0 0 24 24"><path fill-rule="evenodd" d="M3.75 9v10.5a.75.75 0 0 0 .75.75H12v1.5H4.5a2.25 2.25 0 0 1-2.25-2.25V7.95l5.434-5.7h9.566v8.25h-1.5V3.75H9V9zM7.5 4.617 4.751 7.5H7.5z" clip-rule="evenodd"/><path d="M10.5 11.25H5.25v1.5h5.25zm-5.25 3H9v1.5H5.25z"/><path fill-rule="evenodd" d="m18.785 18.474 2.759 2.76-1.06 1.06-2.76-2.76a4.134 4.134 0 1 1 1.06-1.06m-5.58-3.794a2.625 2.625 0 1 0 4.367 2.917 2.625 2.625 0 0 0-4.366-2.917" clip-rule="evenodd"/></svg>