<svg xmlns="http://www.w3.org/2000/svg" viewBox="0 0 24 24"><path fill-rule="evenodd" d="M9.75 3.75V9H4.5v10.5a.75.75 0 0 0 .75.75H9v1.5H5.25A2.25 2.25 0 0 1 3 19.5V7.95l5.434-5.7H18v9h-1.5v-7.5zm-1.5.867L5.501 7.5H8.25zm5.25 13.521v-4.454l6.75-1.928V19.5A2.25 2.25 0 1 1 18 17.25c.256.003.51.05.75.138v-3.644L15 14.817v5.434A2.25 2.25 0 1 1 12.75 18c.256.003.51.05.75.138m-1.167 2.736a.75.75 0 1 0 .834-1.248.75.75 0 0 0-.834 1.248m5.25-.75a.75.75 0 1 0 .834-1.248.75.75 0 0 0-.834 1.248" clip-rule="evenodd"/></svg>