<svg xmlns="http://www.w3.org/2000/svg" xml:space="preserve" viewBox="0 0 32 32"><path d="M22 26a1 1 0 0 1-1 1H7a1 1 0 0 1-1-1V12h7V5h9v9h2V3H11.245L4 10.6V26c0 1.654 1.346 3 3 3h14c1.654 0 3-1.346 3-3v-1h-2zM7.335 10 11 6.156V10z"/><path d="M19.916 16.245A3.4 3.4 0 0 0 18.608 16h-2.254v7h2.274q.702 0 1.293-.246a3 3 0 0 0 1.692-1.745q.24-.616.24-1.36v-.294q0-.74-.24-1.358a3.2 3.2 0 0 0-.671-1.063 3 3 0 0 0-1.026-.689m.217 3.404q0 1.02-.39 1.536-.389.517-1.115.517h-.588v-4.4h.567q.746 0 1.135.515.39.514.39 1.528zM28 17.302V16h-4.682v7h1.686v-2.789h2.722v-1.298h-2.722v-1.611zm-14.732-1.126A3.4 3.4 0 0 0 12.134 16H9.34v7h1.687v-2.376h1.107q.63 0 1.134-.161.505-.16.857-.457.35-.295.538-.709.188-.413.188-.923 0-.515-.188-.949a2.2 2.2 0 0 0-.538-.753 2.5 2.5 0 0 0-.857-.496m-.187 2.583a.76.76 0 0 1-.181.298.8.8 0 0 1-.313.195 1.3 1.3 0 0 1-.453.069h-1.107v-2.019h1.107q.263 0 .453.089.19.088.313.238c.123.15.142.213.181.343q.057.196.057.412 0 .203-.057.375"/></svg>