<svg xmlns="http://www.w3.org/2000/svg" xml:space="preserve" viewBox="0 0 32 32"><path d="M22 26a1 1 0 0 1-1 1H7a1 1 0 0 1-1-1V12h7V5h9v9h2V3H11.245L4 10.6V26c0 1.654 1.346 3 3 3h14c1.654 0 3-1.346 3-3v-1h-2zM7.335 10 11 6.156V10z"/><path d="M17.063 16v7h4.625v-1.298h-2.939V16zm10.496 3.701a3 3 0 0 0-.717-.482 7 7 0 0 0-.969-.384 7 7 0 0 1-.522-.189 2.2 2.2 0 0 1-.394-.207.9.9 0 0 1-.248-.234.47.47 0 0 1-.087-.278q0-.14.061-.264a.65.65 0 0 1 .18-.221.9.9 0 0 1 .297-.149q.179-.055.412-.054a1.2 1.2 0 0 1 .414.065q.175.067.295.18c.12.113.139.169.178.276q.059.162.059.353h1.637q0-.482-.189-.873a1.94 1.94 0 0 0-.526-.666 2.4 2.4 0 0 0-.806-.426A3.4 3.4 0 0 0 25.61 16q-.566 0-1.047.135-.48.137-.831.384a1.8 1.8 0 0 0-.547.601q-.198.354-.197.794 0 .458.195.802.194.344.516.601.323.258.739.445t.866.337q.383.127.62.239.238.112.367.227a.6.6 0 0 1 .175.242q.045.13.045.288 0 .135-.049.258a.54.54 0 0 1-.157.213.8.8 0 0 1-.274.145 1.3 1.3 0 0 1-.4.054 2.2 2.2 0 0 1-.512-.054.9.9 0 0 1-.377-.18.8.8 0 0 1-.234-.329 1.4 1.4 0 0 1-.079-.503h-1.648q0 .403.115.731.114.328.313.585a1.6 1.6 0 0 0 .473.442 3 3 0 0 0 .59.307q.315.12.662.179.35.056.699.057.57 0 1.037-.126.465-.127.795-.37t.511-.601.179-.818q0-.43-.152-.772a1.9 1.9 0 0 0-.444-.612M11.283 23l1.178-2.37L13.639 23h1.947l-2.009-3.53L15.534 16h-1.929l-1.144 2.327L11.316 16H9.394l1.951 3.47L9.34 23z"/></svg>