<svg xmlns="http://www.w3.org/2000/svg" xml:space="preserve" viewBox="0 0 32 32"><path d="M22 26a1 1 0 0 1-1 1H7a1 1 0 0 1-1-1V12h7V5h9v9h2V3H11.245L4 10.6V26c0 1.654 1.346 3 3 3h14c1.654 0 3-1.346 3-3v-1h-2zM7.335 10 11 6.156V10z"/><path d="M26.663 21.448q-.299.267-.865.266a1.3 1.3 0 0 1-.568-.112.87.87 0 0 1-.374-.357 1.9 1.9 0 0 1-.209-.629 6 6 0 0 1-.065-.927v-.378q0-.542.073-.929.072-.386.222-.629c.15-.243.225-.28.374-.355q.225-.112.529-.112.327 0 .552.075.224.075.369.219c.145.144.167.218.213.365q.067.22.077.505h1.636a3 3 0 0 0-.248-.978 2.4 2.4 0 0 0-.556-.777 2.5 2.5 0 0 0-.868-.512A3.5 3.5 0 0 0 25.78 16q-.65 0-1.179.231a2.55 2.55 0 0 0-.905.661 3 3 0 0 0-.58 1.045 4.4 4.4 0 0 0-.203 1.382v.369q0 .768.194 1.382.193.616.566 1.043.372.429.907.657.536.23 1.218.23.631 0 1.141-.175.51-.176.874-.491.364-.316.571-.758.206-.441.228-.974H26.98q-.017.579-.317.846m-14.065-5.203A3.4 3.4 0 0 0 11.29 16H9.036v7h2.274q.702 0 1.293-.246a3 3 0 0 0 1.692-1.745q.24-.616.24-1.36v-.294q0-.74-.24-1.358a3.2 3.2 0 0 0-.671-1.063 3 3 0 0 0-1.026-.689m.217 3.404q0 1.02-.39 1.536-.389.517-1.115.517h-.588v-4.4h.567q.746 0 1.135.515.39.514.39 1.528zm7.05-3.416A3 3 0 0 0 18.667 16q-.66 0-1.208.233a2.7 2.7 0 0 0-.943.67q-.394.435-.613 1.058a4.2 4.2 0 0 0-.217 1.403v.276q0 .782.22 1.405.22.622.615 1.058.396.434.946.666.55.231 1.21.232.65 0 1.196-.232.544-.232.94-.666.395-.436.615-1.058a4.2 4.2 0 0 0 .22-1.405v-.276q0-.781-.222-1.403a3.1 3.1 0 0 0-.619-1.058 2.65 2.65 0 0 0-.942-.67m.112 3.407q0 1.006-.337 1.543a1.07 1.07 0 0 1-.963.536q-.655 0-.988-.538-.332-.539-.332-1.54v-.285q0-1.015.325-1.543.325-.526.985-.526.633 0 .971.526.339.526.339 1.543z"/></svg>