<svg xmlns="http://www.w3.org/2000/svg" viewBox="0 0 24 24"><g clip-path="url(#a)"><path d="M18 10.5V2.25H8.438L3 7.95V19.5a2.257 2.257 0 0 0 2.25 2.25h10.5A2.257 2.257 0 0 0 18 19.5v-.75h-1.5v.75c0 .413-.337.75-.75.75H5.25a.75.75 0 0 1-.75-.75V9h5.25V3.75h6.75v6.75zm-12.495-3L8.25 4.62V7.5z"/><path d="M8.685 15.39h-.683v1.845h-1.26V12h2.063c.3 0 .577.03.817.105.248.067.45.165.623.3q.261.203.398.495c.09.195.134.428.134.682q0 .304-.067.54a1.4 1.4 0 0 1-.187.413 1.3 1.3 0 0 1-.293.307 2 2 0 0 1-.375.233l1.095 2.108v.052H9.6l-.923-1.845zm-.683-.975h.795q.36.002.54-.187c.12-.128.18-.3.18-.525q0-.34-.18-.533c-.12-.127-.3-.195-.54-.195h-.795zm8.378-1.44h-1.575v4.26h-1.26v-4.26H12V12h4.38zm4.575 2.175h-2.032v2.085h-1.26V12h3.502v.975h-2.242v1.207h2.032z"/></g><defs><clipPath id="a"><path d="M0 0h24v24H0z"/></clipPath></defs></svg>