<svg xmlns="http://www.w3.org/2000/svg" width="24" height="24"><path fill-rule="evenodd" d="M13.796 3.188a8.8 8.8 0 0 1 3.216 1.398 9.2 9.2 0 0 1 2.441 2.516l1.255-.825a10.8 10.8 0 0 0-2.837-2.923 10.5 10.5 0 0 0-1.789-1 10.2 10.2 0 0 0-5.595-.744l.225 1.484a8.8 8.8 0 0 1 3.084.094m8.491 6.954a11 11 0 0 0-.611-2.025l-1.388.57A9.7 9.7 0 0 1 21 12.315a14.3 14.3 0 0 1-.238 2.64 13 13 0 0 1-.67 2.367 13 13 0 0 1-1.041 2.1 13.5 13.5 0 0 1-1.352 1.832l1.125.99a15 15 0 0 0 1.505-2.038c.221-.36.435-.75.627-1.132.192-.383.375-.796.534-1.21s.307-.851.429-1.282a15 15 0 0 0 .514-2.78c.043-.49.066-.992.066-1.49 0-.729-.07-1.456-.212-2.17M3.902 8.208l-.11.225-1.115.636-.854-1.234.837-.503a10.8 10.8 0 0 1 2.57-3.29q.555-.478 1.17-.876.613-.398 1.275-.707l.633 1.36A9.2 9.2 0 0 0 6.21 5.175a9.3 9.3 0 0 0-2.308 3.033M18.6 16.23l-1.415-.497A10.1 10.1 0 0 1 15 19.288l1.091 1.028q.405-.431.765-.895a11.3 11.3 0 0 0 1.743-3.191m.645-3.915q0 .691-.075 1.38l-1.494-.17q.067-.605.067-1.213 0-.606-.118-1.2a6 6 0 0 0-.87-2.134 5.9 5.9 0 0 0-1.56-1.612 5.6 5.6 0 0 0-2.05-.893l.312-1.468a7.1 7.1 0 0 1 2.598 1.13 7.4 7.4 0 0 1 1.956 2.02 7.54 7.54 0 0 1 1.234 4.16m-15.191-.14q.14-.11.284-.208.146-.1.3-.191l.013-.008q.146-.087.297-.166a6 6 0 0 1 .657-.291q.168-.063.342-.114l.397-.119.111-.399a6.1 6.1 0 0 1 .79-1.725 5.9 5.9 0 0 1 1.26-1.372q.366-.288.773-.516a5.6 5.6 0 0 1 1.756-.625l-.26-1.478a7.1 7.1 0 0 0-3.202 1.443 7.5 7.5 0 0 0-1.575 1.716 8 8 0 0 0-.578 1.028q-.165.36-.293.736l-.046.017a7 7 0 0 0-.826.366 8 8 0 0 0-.77.461 7 7 0 0 0-1.02.85l1.065 1.056q.125-.125.255-.24.113-.1.233-.192zm4.119 1.786c-.128.063-.26.12-.385.17l-.055.022q-.15.061-.282.103l-.025.007q-.14.044-.229.068-.082.025-.167.042a2.44 2.44 0 0 0-1.378.815 2.6 2.6 0 0 0-.43.697q-.083.195-.135.399l-1.454-.366q.08-.317.207-.618.127-.298.3-.572a4.1 4.1 0 0 1 1.369-1.35 4 4 0 0 1 1.245-.477l.033-.01c.072-.02.127-.036.192-.058a6 6 0 0 0 .255-.094q.136-.052.279-.123.13-.062.25-.14.093-.06.174-.135a.3.3 0 0 0 .06-.075q-.007-.391.07-.773.08-.395.232-.768A4.15 4.15 0 0 1 9.743 8.92a4 4 0 0 1 1.435-.624 4 4 0 0 1 1.62 0 3.95 3.95 0 0 1 1.438.623l-.855 1.232a2.5 2.5 0 0 0-.891-.386 2.5 2.5 0 0 0-1.003 0 2.5 2.5 0 0 0-1.255.7 2.64 2.64 0 0 0-.692 1.32 2.7 2.7 0 0 0-.052.53c0 .224-.055.444-.16.643q-.136.255-.344.456a2.7 2.7 0 0 1-.401.315 4 4 0 0 1-.41.232m7.601.3a8.7 8.7 0 0 0 .216-1.946q0-.416-.08-.825a4 4 0 0 0-.235-.765l-1.389.568c.133.325.2.672.2 1.022a7.2 7.2 0 0 1-.178 1.609c-.108.472-.27.93-.483 1.364q-.301.614-.724 1.153a7.4 7.4 0 0 1-.905.959 8.5 8.5 0 0 1-1.026.778 9.4 9.4 0 0 1-2.127 1.025 8 8 0 0 1-.932.259l.312 1.467a10 10 0 0 0 1.104-.306 11.3 11.3 0 0 0 2.453-1.185 10 10 0 0 0 1.212-.913q.598-.53 1.093-1.158a8 8 0 0 0 .89-1.42 7.7 7.7 0 0 0 .599-1.687m-5.632 2.42a8 8 0 0 1-.909.472 9 9 0 0 1-.783.302 7 7 0 0 1-.562.162c-.15.037-.238.053-.238.053l-.278-1.475.01-.002a6 6 0 0 0 .588-.163 7 7 0 0 0 1.382-.629q.381-.23.714-.525.34-.298.6-.67c.177-.256.315-.537.41-.834a3.5 3.5 0 0 0 .157-1.055h1.5a5 5 0 0 1-.225 1.51 4.7 4.7 0 0 1-.6 1.228q-.361.522-.836.942-.434.383-.93.684" clip-rule="evenodd"/></svg>