<svg xmlns="http://www.w3.org/2000/svg" xml:space="preserve" viewBox="0 0 32 32"><path d="M29.716 13.523a14.7 14.7 0 0 0-.815-2.702l-1.85.759A12.7 12.7 0 0 1 28 16.42a19 19 0 0 1-.317 3.521 17.6 17.6 0 0 1-1.532 4.602 17.8 17.8 0 0 1-2.552 3.797l1.502 1.32a20 20 0 0 0 2.006-2.717 19.4 19.4 0 0 0 2.543-6.638c.115-.624.203-1.263.262-1.898.058-.655.088-1.323.088-1.987 0-.976-.096-1.95-.284-2.897M18.394 4.251c.77.163 1.526.405 2.249.721.714.312 1.399.696 2.04 1.143a12.3 12.3 0 0 1 3.255 3.355l1.672-1.098a14.4 14.4 0 0 0-3.782-3.899 14 14 0 0 0-2.384-1.335 13.7 13.7 0 0 0-2.637-.845 13.7 13.7 0 0 0-4.823-.146l.295 1.979a11.7 11.7 0 0 1 4.115.125M5.057 11.244l.146-.302c.248-.519.534-1.024.85-1.5a12.2 12.2 0 0 1 5.025-4.351l-.844-1.813a14 14 0 0 0-3.26 2.112 14.3 14.3 0 0 0-2.591 2.948q-.458.692-.836 1.438l-1.116.671 1.139 1.645zM24.795 21.64l-1.887-.662a13 13 0 0 1-1.225 2.56 13.4 13.4 0 0 1-1.682 2.184l1.455 1.371a16 16 0 0 0 1.02-1.193c.327-.423.633-.863.907-1.308a15 15 0 0 0 1.412-2.952m.765-3.38c.066-.6.101-1.219.101-1.84 0-.673-.066-1.344-.195-1.994A10.06 10.06 0 0 0 22.837 9.4a9.6 9.6 0 0 0-3.074-2.141 9.4 9.4 0 0 0-1.819-.585l-.417 1.956c.49.104.972.259 1.433.461.453.198.891.444 1.301.73a7.8 7.8 0 0 1 2.08 2.15 8 8 0 0 1 1.162 2.845c.104.523.157 1.062.157 1.604 0 .547-.03 1.092-.089 1.617zM5.405 16.234a7.7 7.7 0 0 1 2.521-1.305l.529-.158.148-.532a8.1 8.1 0 0 1 1.054-2.306 8 8 0 0 1 1.68-1.829c.328-.259.675-.49 1.03-.688a7.4 7.4 0 0 1 2.341-.834l-.346-1.97a9.5 9.5 0 0 0-4.266 1.923 10 10 0 0 0-2.103 2.288c-.289.436-.548.899-.768 1.377q-.22.483-.39.982l-.062.022a9 9 0 0 0-1.101.488 9.5 9.5 0 0 0-1.958 1.348q-.219.195-.426.404l1.42 1.408q.166-.167.339-.321.177-.154.358-.297m4.979 2.608a7 7 0 0 0 .513-.227c.188-.092.376-.196.547-.31.196-.127.378-.269.534-.42q.289-.28.46-.608c.142-.273.213-.562.213-.857a3.6 3.6 0 0 1 .265-1.362 3.5 3.5 0 0 1 1.216-1.524 3.22 3.22 0 0 1 2.517-.514q.32.068.623.2.294.127.565.315l1.141-1.643a5.2 5.2 0 0 0-1.918-.83 5.3 5.3 0 0 0-2.16 0 5.3 5.3 0 0 0-2.699 1.5 5.6 5.6 0 0 0-1.136 1.739 5.7 5.7 0 0 0-.308 1.024c-.07.359-.106.727-.094 1.031a.4.4 0 0 1-.08.097 1.6 1.6 0 0 1-.233.18 3 3 0 0 1-.333.187 5 5 0 0 1-.371.164 8 8 0 0 1-.341.125c-.099.032-.182.057-.298.091a5.2 5.2 0 0 0-2.363 1.137q-.322.268-.616.609c-.19.221-.361.454-.506.691a5.5 5.5 0 0 0-.672 1.587l1.939.488q.068-.272.179-.532.106-.255.255-.493a3.5 3.5 0 0 1 .709-.822q.206-.173.436-.312a3.2 3.2 0 0 1 1.012-.389 6 6 0 0 0 .561-.16c.13-.045.282-.099.443-.162m10.648.172c.191-.829.288-1.702.288-2.594q0-.553-.107-1.099a5.7 5.7 0 0 0-.308-1.021l-1.852.758a3.6 3.6 0 0 1 .266 1.362c0 .741-.08 1.462-.237 2.145a8.4 8.4 0 0 1-.644 1.819 8.7 8.7 0 0 1-.965 1.537 10 10 0 0 1-1.211 1.282c-.417.37-.878.72-1.369 1.037a13 13 0 0 1-2.83 1.366c-.419.143-.837.259-1.243.345l.416 1.957a13 13 0 0 0 1.472-.409 15 15 0 0 0 1.61-.654 14 14 0 0 0 1.66-.925 13 13 0 0 0 1.611-1.222c.54-.479 1.03-.999 1.458-1.544.463-.593.862-1.229 1.186-1.892.35-.708.619-1.464.799-2.248"/><path d="M12.311 22.871a10 10 0 0 0 1.211-.63c.453-.275.87-.582 1.241-.912a7 7 0 0 0 1.114-1.255c.35-.509.621-1.061.805-1.639a6.6 6.6 0 0 0 .303-2.012h-2c0 .498-.07.971-.209 1.407-.124.39-.308.764-.547 1.112a5 5 0 0 1-.796.893c-.28.25-.6.484-.951.698a9 9 0 0 1-.978.508 9 9 0 0 1-1.472.507c-.109.027-.178.041-.191.044l.355 1.968s.118-.021.318-.071c.181-.044.44-.114.749-.216.306-.101.665-.233 1.048-.402"/></svg>