<svg xmlns="http://www.w3.org/2000/svg" viewBox="0 0 24 24"><path d="M19.283 13.5c-.368-2.752-2.22-4.59-3.878-6.225-1.402-1.387-2.617-2.587-2.595-4.012l.022-1.568-1.237.968c-3.57 2.79-2.722 4.942-2.16 6.375.15.39.292.757.292 1.02 0 .502-.457.907-1.012.907s-1.02-.405-1.02-.907V8.265L6.42 9.525c-.607.6-1.44 2.243-1.695 3.983H1.5v9h21v-9h-3.218zM21 17.25h-5.25V15H21zM6.833 11.64a2.55 2.55 0 0 0 1.882.818c1.387 0 2.512-1.08 2.512-2.408 0-.547-.202-1.065-.397-1.56-.435-1.117-.855-2.19.72-3.787.48 1.357 1.612 2.475 2.797 3.645 1.5 1.485 3.038 3.007 3.413 5.16H6.24c.12-.698.345-1.35.585-1.86zM14.25 15v2.25H3V15zM3 18.75h6V21H3zM10.5 21v-2.25H21V21z"/></svg>