<svg xmlns="http://www.w3.org/2000/svg" width="24" height="24"><path d="M17.119 12.526 16.42 19.5h6.159l-.699-6.973a2.23 2.23 0 0 0-1.631-1.935V10.5c0-4.135-3.364-7.5-7.5-7.5H12V1.5H7.5V3h-3v1.5h3v.514c-1.77.844-3 2.647-3 4.736V22.5H15V9.75a5.25 5.25 0 0 0-3-4.736V4.5h.75c3.308 0 6 2.692 6 6v.092a2.235 2.235 0 0 0-1.631 1.934M6 21v-1.5h7.5V21zm7.5-11.25V18H6V9.75A3.754 3.754 0 0 1 9.75 6a3.754 3.754 0 0 1 3.75 3.75M9.75 4.5a5 5 0 0 0-.75.06V3h1.5v1.56a5 5 0 0 0-.75-.06M20.921 18H18.08l.532-5.325a.747.747 0 0 1 .746-.675h.285c.387 0 .707.29.746.675z"/></svg>