<svg xmlns="http://www.w3.org/2000/svg" viewBox="0 0 24 24"><path d="M21.015 7.507v4.5h1.5v-9h-6.75a3.76 3.76 0 0 0-3.675 3H1.515v13.5H10.5v-1.5H3.015v-10.5zm-5.25-3h5.25v1.5h-7.373a2.26 2.26 0 0 1 2.123-1.5M22.523 18v-1.5h-1.965a3.3 3.3 0 0 0-.436-1.043l1.395-1.395-1.057-1.057-1.395 1.395a3.4 3.4 0 0 0-1.043-.435V12h-1.5v1.965c-.374.082-.72.232-1.042.435l-1.395-1.395-1.058 1.057 1.396 1.395a3.4 3.4 0 0 0-.435 1.043h-1.965V18h1.965c.082.375.232.72.434 1.042l-1.395 1.395 1.058 1.058L15.48 20.1a3.4 3.4 0 0 0 1.043.435V22.5h1.5v-1.965c.375-.083.72-.233 1.042-.435l1.395 1.395 1.057-1.058-1.395-1.395c.203-.315.346-.667.436-1.042zm-5.25 1.125a1.876 1.876 0 1 1 0-3.751 1.876 1.876 0 0 1 0 3.75"/></svg>