<svg xmlns="http://www.w3.org/2000/svg" viewBox="0 0 24 24"><path fill-rule="evenodd" d="M14.61 5.894 15.75 12v4.037a2.993 2.993 0 1 1-5.143 2.713H7.394A2.994 2.994 0 0 1 1.5 18c.002-.724.27-1.422.75-1.963V10.5h3V3h5.648C12.9 3 14.36 4.136 14.61 5.894M10.898 4.5H6.75v6h.128a2.24 2.24 0 0 1 1.595.66l.615.615a.75.75 0 0 0 .535.225h4.614L13.13 6.14a2.036 2.036 0 0 0-2.233-1.64m-7.23 14.747a1.5 1.5 0 1 0 1.666-2.495 1.5 1.5 0 0 0-1.666 2.495m3.727-1.997h3.213A3 3 0 0 1 13.5 15q.383.005.75.107V13.5H9.623a2.24 2.24 0 0 1-1.596-.66l-.615-.615A.75.75 0 0 0 6.878 12H3.75v3.107q.367-.102.75-.107a3 3 0 0 1 2.894 2.25m5.273 1.997a1.5 1.5 0 1 0 1.667-2.495 1.5 1.5 0 0 0-1.667 2.495" clip-rule="evenodd"/><path d="M18.75 3v13.5h3.75V18h-5.25V3z"/></svg>