<svg xmlns="http://www.w3.org/2000/svg" viewBox="0 0 24 24"><path d="M9 10.5a1.5 1.5 0 1 1-3 0 1.5 1.5 0 0 1 3 0"/><path fill-rule="evenodd" d="M6.75 3h13.5c1.24 0 2.25 1.01 2.25 2.25V15c0 1.24-1.01 2.25-2.25 2.25h-.75v1.5A2.25 2.25 0 0 1 17.25 21H3.75a2.25 2.25 0 0 1-2.25-2.25V8.25A2.25 2.25 0 0 1 3.75 6h.75v-.75C4.5 4.01 5.51 3 6.75 3m10.5 4.5H3.75a.75.75 0 0 0-.75.75v6.32l2.268-2.113 2.607 2.608L13.5 9.44l4.5 4.5V8.25a.75.75 0 0 0-.75-.75m-13.5 12h13.5c.413 0 .75-.337.75-.75v-2.69l-4.5-4.5-4.565 4.565.595.595-1.06 1.06-3.238-3.238L3 16.62v2.13c0 .413.337.75.75.75m16.5-3.75A.75.75 0 0 0 21 15V5.25a.75.75 0 0 0-.75-.75H6.75a.75.75 0 0 0-.75.75V6h11.25a2.25 2.25 0 0 1 2.25 2.25v7.5z" clip-rule="evenodd"/></svg>