<svg xmlns="http://www.w3.org/2000/svg" viewBox="0 0 24 24"><g clip-path="url(#a)"><path fill-rule="evenodd" d="M6.15 15.75H12l-.007.008v1.5h-5.85c-2.565 0-4.65-2.055-4.65-4.575 0-2.303 1.732-4.208 3.975-4.53.495-2.933 3.097-5.145 6.202-5.145 2.46 0 4.703 1.425 5.715 3.63l-1.365.622c-.765-1.68-2.475-2.76-4.35-2.76-2.535 0-4.635 1.935-4.777 4.395l-.038.705H6.15C4.41 9.6 3 10.98 3 12.675s1.41 3.075 3.15 3.075m14.1-7.5a2.257 2.257 0 0 1 2.25 2.25c0 .983-.63 1.808-1.5 2.115v.135c0 2.07-1.68 3.75-3.75 3.75-1.035 0-1.898.713-2.16 1.665.825.33 1.41 1.14 1.41 2.085a2.257 2.257 0 0 1-2.25 2.25A2.257 2.257 0 0 1 12 20.25c0-.982.63-1.807 1.5-2.115v-5.527a2.26 2.26 0 0 1-1.5-2.115 2.257 2.257 0 0 1 2.25-2.25 2.257 2.257 0 0 1 2.25 2.25c0 .982-.63 1.807-1.5 2.115v3.142c.63-.472 1.41-.75 2.25-.75a2.257 2.257 0 0 0 2.25-2.25v-.135A2.26 2.26 0 0 1 18 10.5a2.257 2.257 0 0 1 2.25-2.25M15 10.5a.75.75 0 0 0-.75-.75.75.75 0 0 0-.75.75c0 .413.338.75.75.75s.75-.337.75-.75m-1.5 9.75c0 .413.338.75.75.75s.75-.337.75-.75a.75.75 0 0 0-.75-.75.75.75 0 0 0-.75.75m6-9.75c0 .413.337.75.75.75s.75-.337.75-.75a.75.75 0 0 0-.75-.75.75.75 0 0 0-.75.75" clip-rule="evenodd"/></g><defs><clipPath id="a"><path d="M0 0h24v24H0z"/></clipPath></defs></svg>