<svg xmlns="http://www.w3.org/2000/svg" viewBox="0 0 24 24"><path d="M17.25 4.5h-.75V6h.75a2.25 2.25 0 0 1 2.25 2.25v5.446a4.12 4.12 0 0 0-5.82.574 2.22 2.22 0 0 0-3.36 0 4.12 4.12 0 0 0-5.82-.574V8.25A2.25 2.25 0 0 1 6.75 6h.75V4.5h-.75A3.755 3.755 0 0 0 3 8.25v8.25h.019a4.125 4.125 0 1 0 8.231.375V15.75a.75.75 0 1 1 1.5 0v1.125a4.125 4.125 0 0 0 8.25 0V8.25a3.755 3.755 0 0 0-3.75-3.75m-10.125 15a2.625 2.625 0 1 1 0-5.25 2.625 2.625 0 0 1 0 5.25m9.75 0a2.625 2.625 0 1 1 0-5.25 2.625 2.625 0 0 1 0 5.25"/></svg>