<svg xmlns="http://www.w3.org/2000/svg" viewBox="0 0 24 24"><g clip-path="url(#a)"><path d="M20.25 18c-.33 0-.645.075-.93.21l-1.485-1.485a7.42 7.42 0 0 0 1.665-4.703 7.5 7.5 0 0 0-1.71-4.754l1.493-1.493c.292.143.615.225.967.225a2.257 2.257 0 0 0 2.25-2.25 2.257 2.257 0 0 0-2.25-2.25A2.257 2.257 0 0 0 18 3.75c0 .345.083.668.225.968l-1.5 1.5a7.46 7.46 0 0 0-4.702-1.673 7.53 7.53 0 0 0-4.755 1.71L5.76 4.747c.15-.3.24-.63.24-.99a2.257 2.257 0 0 0-2.25-2.25 2.257 2.257 0 0 0-2.25 2.25 2.257 2.257 0 0 0 2.25 2.25c.338 0 .653-.082.938-.21L6.21 7.32a7.446 7.446 0 0 0 0 9.405l-1.5 1.5A2.2 2.2 0 0 0 3.743 18a2.257 2.257 0 0 0-2.25 2.25 2.257 2.257 0 0 0 2.25 2.25 2.257 2.257 0 0 0 2.25-2.25c0-.345-.083-.668-.225-.968L7.26 17.79a7.45 7.45 0 0 0 4.755 1.71 7.45 7.45 0 0 0 4.755-1.71l1.463 1.463c-.15.3-.248.637-.248.997a2.257 2.257 0 0 0 2.25 2.25 2.257 2.257 0 0 0 2.25-2.25 2.257 2.257 0 0 0-2.25-2.25zM6.038 12.023c0-.848.18-1.658.502-2.386.51.24 1.095.45 1.725.608a15 15 0 0 0 0 3.548 10 10 0 0 0-1.732.607 6 6 0 0 1-.495-2.377m11.962 0c0 .84-.18 1.642-.495 2.377a10 10 0 0 0-1.732-.607 15 15 0 0 0 0-3.548 10 10 0 0 0 1.725-.615c.322.735.502 1.537.502 2.393m-8.332 0q.002-.787.082-1.485c.728.104 1.493.165 2.273.165s1.545-.06 2.272-.165a13.2 13.2 0 0 1 0 2.962 17 17 0 0 0-2.28-.158c-.795 0-1.545.06-2.272.165q-.081-.697-.083-1.484zM15.51 8.76a9 9 0 0 0-.72-2.032c.75.397 1.41.945 1.928 1.612q-.542.248-1.208.428zm-1.47.3a15 15 0 0 1-2.025.143c-.697 0-1.38-.053-2.025-.143.465-1.92 1.335-3.023 2.025-3.023s1.553 1.103 2.025 3.016zm-5.512-.293A8 8 0 0 1 7.32 8.34a6 6 0 0 1 1.928-1.612c-.3.585-.54 1.274-.72 2.04m0 6.503c.18.765.42 1.455.72 2.047a5.95 5.95 0 0 1-1.935-1.62c.36-.164.772-.3 1.215-.42zm1.47-.293q.968-.135 2.025-.135c.705 0 1.38.053 2.025.135-.465 1.92-1.343 3.023-2.025 3.023-.683 0-1.553-1.102-2.025-3.023m5.52.293c.442.12.855.263 1.215.42a6 6 0 0 1-1.935 1.62c.3-.585.54-1.275.72-2.047zM20.25 3c.413 0 .75.337.75.75 0 .412-.337.75-.75.75a.75.75 0 0 1-.75-.75c0-.413.338-.75.75-.75M3.75 4.5A.75.75 0 0 1 3 3.75c0-.413.338-.75.75-.75.413 0 .75.337.75.75 0 .412-.337.75-.75.75m0 16.5a.75.75 0 0 1-.75-.75c0-.413.338-.75.75-.75.413 0 .75.337.75.75s-.337.75-.75.75m16.5 0a.75.75 0 0 1-.75-.75c0-.413.338-.75.75-.75.413 0 .75.337.75.75s-.337.75-.75.75"/></g><defs><clipPath id="a"><path d="M0 0h24v24H0z"/></clipPath></defs></svg>