<svg xmlns="http://www.w3.org/2000/svg" viewBox="0 0 24 24"><g clip-path="url(#a)"><path fill-rule="evenodd" d="M17.588 2.423c1.694.847 4.334 1.485 4.334 1.485l-.015.03.578.135v.592c0 7.725-4.89 8.79-5.1 8.835l-.15.023h-.023l.01.127q.011.127.013.255a7.9 7.9 0 0 1-3.045 6.218c-.21.15-.39.277-.585.405a6 6 0 0 1-.63.367 4.5 4.5 0 0 1-.652.3h-.016c-.007.008-.022.008-.022.008-.165.075-.375.15-.592.21a3 3 0 0 1-.293.082h-.008c-.014.008-.022.008-.037.008h-.015c-.105.03-.195.052-.285.067h-.015c-.142.03-.292.06-.442.083q-.162.023-.304.039l-.109.013a2 2 0 0 1-.39.03c-.127.015-.27.015-.42.015-4.088 0-7.455-3.135-7.837-7.125H1.5v-1.5h.038C1.92 9.135 5.288 6 9.375 6a8 8 0 0 1 2.745.51A16 16 0 0 1 12 4.635v-.592l.578-.135.033-.009c.31-.078 2.705-.682 4.302-1.476l.337-.165zm-1.883 10.702-.045-.27v-.007c-1.088-.653-2.498-1.965-3.21-4.553a7 7 0 0 0-.78-.36c.63 1.35.99 3.24 1.065 5.19zm-8.19 1.5c.143 3.51 1.245 5.625 1.86 5.625.623 0 1.717-2.115 1.86-5.625zM9.375 7.5c-.623 0-1.718 2.115-1.86 5.625h3.72C11.092 9.615 9.998 7.5 9.375 7.5m-3.36 5.625c.075-1.95.435-3.847 1.073-5.19H7.08a6.37 6.37 0 0 0-4.035 5.19zm0 1.5H3.053a6.37 6.37 0 0 0 4.035 5.19c-.638-1.342-.998-3.24-1.073-5.19m7.02 4.455a3 3 0 0 0 .24-.165l-.008.008.085-.068c.129-.104.256-.205.373-.322a6.4 6.4 0 0 0 1.973-3.908h-2.963c-.075 1.95-.435 3.848-1.072 5.198l.044-.02.045-.018c.188-.075.368-.157.548-.247q.064-.034.12-.07.04-.027.082-.05a6 6 0 0 0 .3-.173zm.473-13.867c.195 5.287 3.037 6.517 3.742 6.742.698-.217 3.547-1.44 3.742-6.742-.847-.225-2.437-.69-3.742-1.29-1.305.6-2.902 1.065-3.742 1.29m1.275 2.474 1.057-1.072 1.012 1.005 2.055-2.055 1.058 1.065-3.105 3.105z" clip-rule="evenodd"/></g><defs><clipPath id="a"><path d="M0 0h24v24H0z"/></clipPath></defs></svg>