<svg xmlns="http://www.w3.org/2000/svg" xml:space="preserve" viewBox="0 0 32 32"><path d="M16 2C8.28 2 2 8.28 2 16s6.28 14 14 14 14-6.28 14-14S23.72 2 16 2m0 26c-1.707 0-3.55-2.576-4.446-6.665A29 29 0 0 1 16 21c1.544 0 3.044.118 4.446.335C19.55 25.424 17.707 28 16 28m0-9c-1.654 0-3.267.132-4.784.371a26.4 26.4 0 0 1 0-6.746 30.6 30.6 0 0 0 9.568-.001 26.4 26.4 0 0 1 0 6.746A31 31 0 0 0 16 19m0-15c1.706 0 3.546 2.571 4.443 6.652a28.8 28.8 0 0 1-8.888.008C12.452 6.575 14.293 4 16 4m6.747 8.244c1.525-.366 2.897-.857 4.046-1.454A11.9 11.9 0 0 1 28 16c0 1.863-.439 3.621-1.2 5.196-1.149-.59-2.523-1.078-4.053-1.44a28 28 0 0 0 0-7.512m3.027-3.18c-.951.482-2.098.885-3.373 1.199-.481-2.194-1.234-4.069-2.178-5.48a12.03 12.03 0 0 1 5.551 4.281M11.776 4.782c-.944 1.412-1.697 3.288-2.179 5.483-1.271-.312-2.415-.715-3.371-1.202a12.04 12.04 0 0 1 5.55-4.281m-6.567 6.003c1.148.596 2.519 1.087 4.045 1.453a28 28 0 0 0-.001 7.515c-1.531.363-2.904.85-4.054 1.441A11.9 11.9 0 0 1 4 16c0-1.871.443-3.635 1.209-5.215m1.002 12.133c.959-.483 2.107-.883 3.384-1.193.481 2.2 1.235 4.079 2.181 5.493a12.05 12.05 0 0 1-5.565-4.3m14.013 4.3c.945-1.413 1.699-3.292 2.181-5.492 1.277.31 2.424.71 3.383 1.193a12.05 12.05 0 0 1-5.564 4.299"/></svg>