<svg xmlns="http://www.w3.org/2000/svg" width="24" height="24"><g clip-path="url(#a)"><path d="M21 19.5h-6.888a2.25 2.25 0 0 0-1.362-1.362v-1.676c3.785-.378 6.75-3.58 6.75-7.462 0-4.135-3.364-7.5-7.5-7.5-4.135 0-7.5 3.364-7.5 7.5 0 3.882 2.965 7.084 6.75 7.462v1.676A2.25 2.25 0 0 0 9.888 19.5H3V21h6.888c.31.87 1.136 1.5 2.112 1.5s1.802-.63 2.112-1.5H21zM9.968 11.966a15 15 0 0 1 2.032-.14c.704 0 1.385.052 2.033.14C13.563 13.892 12.688 15 12 15s-1.563-1.108-2.033-3.034M6 9c0-.853.181-1.663.503-2.398a9.7 9.7 0 0 0 1.736.614 15.3 15.3 0 0 0 0 3.563 10 10 0 0 0-1.74.608A6 6 0 0 1 6 9m3.634 0c0-.529.031-1.024.082-1.492.732.104 1.498.165 2.284.165.789 0 1.555-.06 2.284-.165a14 14 0 0 1 .001 2.978 16.4 16.4 0 0 0-4.57.004c-.05-.467-.08-.962-.08-1.49M12 3c.687 0 1.562 1.106 2.031 3.03-.648.09-1.33.143-2.031.143-.704 0-1.386-.051-2.032-.14C10.438 4.107 11.312 3 12 3m6 6c0 .848-.178 1.653-.497 2.384a9.6 9.6 0 0 0-1.741-.61 15.3 15.3 0 0 0 0-3.554 9.6 9.6 0 0 0 1.734-.62c.322.736.504 1.547.504 2.4m-3.222 5.313c.3-.59.544-1.286.726-2.057q.674.179 1.224.425a6 6 0 0 1-1.95 1.632m1.942-9.005q-.546.245-1.218.426a9.3 9.3 0 0 0-.724-2.048 6.05 6.05 0 0 1 1.942 1.622M9.222 3.687c-.3.59-.543 1.283-.724 2.052a8 8 0 0 1-1.22-.429 6 6 0 0 1 1.944-1.623m-1.95 8.994a8 8 0 0 1 1.223-.425c.183.77.426 1.466.726 2.057a6 6 0 0 1-1.949-1.632M12 21a.75.75 0 1 1 0-1.5.75.75 0 0 1 0 1.5"/></g><defs><clipPath id="a"><path d="M0 0h24v24H0z"/></clipPath></defs></svg>