<svg xmlns="http://www.w3.org/2000/svg" width="24" height="24"><path fill-rule="evenodd" d="M21 12v.888A2.25 2.25 0 0 1 22.5 15v4.5a2.25 2.25 0 0 1-2.25 2.25h-4.5a2.25 2.25 0 0 1-2.25-2.25v-2.67a7.875 7.875 0 1 1 3.68-7.702q.4-.121.82-.128a3 3 0 0 1 3 3m-1.5.75V12a1.5 1.5 0 0 0-3 0v.75zm-7.842 3.325a6.3 6.3 0 0 0 1.842-1.101 2.25 2.25 0 0 1 1.5-2.086V12a3 3 0 0 1 .225-1.125h-2.49a14 14 0 0 1-1.077 5.2m-.424-5.2H7.515c.141 3.508 1.24 5.625 1.86 5.625.618 0 1.719-2.117 1.86-5.625m.001-1.5c-.141-3.508-1.241-5.625-1.86-5.625s-1.72 2.117-1.86 5.625zm1.5 0h2.967a6.39 6.39 0 0 0-4.037-5.193 14 14 0 0 1 1.07 5.193m-6.72 0a14 14 0 0 1 1.071-5.193 6.39 6.39 0 0 0-4.038 5.193zm0 1.5H3.047a6.39 6.39 0 0 0 4.037 5.193 14 14 0 0 1-1.07-5.193M20.78 20.03a.75.75 0 0 0 .22-.53V15a.75.75 0 0 0-.75-.75h-4.5A.75.75 0 0 0 15 15v4.5a.75.75 0 0 0 .75.75h4.5a.75.75 0 0 0 .53-.22m-1.947-4.027a1.5 1.5 0 1 0-1.667 2.495 1.5 1.5 0 0 0 1.667-2.495" clip-rule="evenodd"/></svg>