<svg xmlns="http://www.w3.org/2000/svg" viewBox="0 0 24 24"><path d="M12 1.5A10.5 10.5 0 1 0 22.5 12 10.51 10.51 0 0 0 12 1.5M12 21c-1.28 0-2.662-1.932-3.335-4.999a22.3 22.3 0 0 1 6.67 0C14.662 19.068 13.28 21 12 21m0-6.75c-1.201 0-2.401.093-3.588.278a19.8 19.8 0 0 1 0-5.06 23 23 0 0 0 7.176 0 19.8 19.8 0 0 1 0 5.06A23 23 0 0 0 12 14.25M12 3c1.28 0 2.66 1.928 3.332 4.989a21.6 21.6 0 0 1-6.666.006C9.34 4.931 10.72 3 12 3m5.06 6.183a13.4 13.4 0 0 0 3.035-1.09A8.89 8.89 0 0 1 20.1 15.9a13.5 13.5 0 0 0-3.04-1.08 21 21 0 0 0 0-5.637m2.27-2.385c-.806.394-1.655.695-2.53.9a12.1 12.1 0 0 0-1.633-4.11 9 9 0 0 1 4.164 3.21M8.83 3.587A12.2 12.2 0 0 0 7.2 7.699a11.8 11.8 0 0 1-2.528-.9 9.03 9.03 0 0 1 4.16-3.213zm-4.925 4.5c.964.483 1.983.85 3.034 1.09a21 21 0 0 0 0 5.636A13.5 13.5 0 0 0 3.9 15.895a8.89 8.89 0 0 1 .008-7.806zm.75 9.1a12 12 0 0 1 2.545-.893 12.1 12.1 0 0 0 1.636 4.12 9.04 9.04 0 0 1-4.178-3.226zm10.51 3.224a12.2 12.2 0 0 0 1.636-4.119 12 12 0 0 1 2.537.895 9.04 9.04 0 0 1-4.17 3.226z"/></svg>