<svg xmlns="http://www.w3.org/2000/svg" xml:space="preserve" style="fill-rule:evenodd;clip-rule:evenodd;stroke-linejoin:round;stroke-miterlimit:2" viewBox="0 0 24 24"><path d="M8.25 17.25h-4.5V6.008h4.5zm-3-1.5h1.5V7.508h-1.5zm14.273 1.958c.457-.668.727-1.47.727-2.333 0-.127-.008-.255-.023-.375V4.508h-4.5v6.765a4.3 4.3 0 0 0-1.5.442V8.258h-4.5v8.992h2.716a4.13 4.13 0 0 0 3.667 2.25c.863 0 1.672-.27 2.332-.727l2.76 2.76 1.058-1.058-2.76-2.76zm-.788-11.7v6.18a4.1 4.1 0 0 0-1.492-.773v-5.4h1.492zm-7.492 9.742V9.758h1.5v3.292a4.1 4.1 0 0 0-.735 2.325c0 .127.007.255.022.375zM16.124 18a2.643 2.643 0 0 1-2.625-2.625 2.643 2.643 0 0 1 2.625-2.625 2.643 2.643 0 0 1 2.625 2.625A2.64 2.64 0 0 1 16.125 18" style="fill-rule:nonzero"/></svg>