<svg xmlns="http://www.w3.org/2000/svg" width="24" height="24"><g clip-path="url(#a)"><path d="M8.25 17.25h-4.5V6.007h4.5zm-3-1.5h1.5V7.507h-1.5zm14.273 1.957c.457-.667.727-1.47.727-2.332q0-.194-.023-.375V4.507h-4.5v6.765a4.3 4.3 0 0 0-1.5.443V8.257h-4.5v8.993h2.716a4.12 4.12 0 0 0 3.667 2.25 4.1 4.1 0 0 0 2.332-.728l2.76 2.76 1.058-1.057-2.76-2.76zm-.788-11.7v6.18a4.05 4.05 0 0 0-1.492-.772v-5.4h1.492zm-7.492 9.743V9.757h1.5v3.293a4.1 4.1 0 0 0-.735 2.325c0 .127.007.255.022.375h-.788M16.124 18a2.63 2.63 0 0 1-2.625-2.625 2.63 2.63 0 0 1 2.625-2.625 2.63 2.63 0 0 1 2.625 2.625A2.63 2.63 0 0 1 16.125 18"/></g><defs><clipPath id="a"><path d="M0 0h24v24H0z"/></clipPath></defs></svg>