<svg xmlns="http://www.w3.org/2000/svg" viewBox="0 0 24 24"><path d="M11.25 15h1.5v3h-1.5zm0 5.25h1.5v-1.5h-1.5zm11.265-5.61v3.69a2.25 2.25 0 0 1-2.25 2.25h-.817a2.24 2.24 0 0 1-2.213 1.905H6.683c-1.17 0-2.13-.907-2.228-2.055h-.66c-1.237 0-2.25-.997-2.25-2.227v-3.63a3.71 3.71 0 0 1 2.505-3.495l2.01-.698-.45-.9a3.82 3.82 0 0 1 .983-4.643l3.03-2.482a3.73 3.73 0 0 1 4.747.015l2.985 2.475a3.79 3.79 0 0 1 .968 4.627l-.436.878 2.138.758a3.76 3.76 0 0 1 2.505 3.54zm-7.507-1.913 1.972-3.93q.088-.18.142-.36a13 13 0 0 0-.937-.45 4.26 4.26 0 0 1-4.23 3.773A4.243 4.243 0 0 1 7.74 8.04c-.39.157-.705.3-.937.412q.054.18.142.36l1.965 3.923H15zM9.21 7.567a2.757 2.757 0 0 0 2.752 2.693 2.77 2.77 0 0 0 2.753-2.753c-2.085-.517-4.027-.307-5.505.068zm-2.242-.84c1.972-.817 5.827-1.875 9.96-.067a2.3 2.3 0 0 0-.54-.668l-2.986-2.475a2.24 2.24 0 0 0-2.842-.007L7.53 5.992c-.247.203-.435.45-.57.728zm-.285 6h.555l-.495-.997-2.198.765c-.892.315-1.5 1.148-1.5 2.078v3.63c0 .405.338.727.75.727h.638v-3.96a2.25 2.25 0 0 1 2.25-2.25zm11.302 2.25a.75.75 0 0 0-.75-.75H6.683a.75.75 0 0 0-.75.75v5.265c0 .413.337.75.75.75h10.552c.413 0 .75-.337.75-.75zm3.03-.337c0-.953-.6-1.808-1.5-2.123l-2.317-.817-.518 1.035h.555a2.25 2.25 0 0 1 2.25 2.25v4.102h.78c.412 0 .75-.337.75-.75z"/></svg>