<svg xmlns="http://www.w3.org/2000/svg" viewBox="0 0 24 24"><g clip-path="url(#a)"><path fill-rule="evenodd" d="M16.184 11.25h-.111c-1.284-.022-2.385-.732-2.956-1.899a3.55 3.55 0 0 1 .338-3.703l2.67-3.56 2.67 3.559a3.55 3.55 0 0 1 .338 3.703c-.571 1.168-1.671 1.878-2.942 1.9zm-.059-6.662-1.47 1.96a2.05 2.05 0 0 0-.19 2.144c.319.652.924 1.047 1.621 1.059h.085c.694-.014 1.297-.41 1.614-1.06a2.05 2.05 0 0 0-.19-2.143zm1.363 8.5a3.945 3.945 0 0 1 4.663 1.047l.482.575-5.669 4.752a3.73 3.73 0 0 1-2.105.864l-4.23.564a3.76 3.76 0 0 1-1.888-.235l-2.653-1.062a2.24 2.24 0 0 1-1.588.657h-3V10.5h3c.976 0 1.801.63 2.112 1.5H9.75a3.75 3.75 0 0 1 3.664 2.964zM3 18.75h1.5a.75.75 0 0 0 .75-.75v-5.25A.75.75 0 0 0 4.5 12H3zm11.7.084a2.28 2.28 0 0 0 1.3-.523l4.429-3.711a2.44 2.44 0 0 0-2.313-.15l-4.452 2.05H9V15h2.862a2.25 2.25 0 0 0-2.112-1.5h-3v4.742l2.549 1.02c.357.143.747.19 1.133.14z" clip-rule="evenodd"/></g><defs><clipPath id="a"><path d="M0 0h24v24H0z"/></clipPath></defs></svg>