<svg xmlns="http://www.w3.org/2000/svg" viewBox="0 0 24 24"><path fill-rule="evenodd" d="M11.308 8.995Q11.279 9 11.25 9a2.996 2.996 0 1 1 2.896-3.74q.025 0 .048-.005l.056-.005a2.995 2.995 0 1 1-2.896 3.741zm4.19.088a1.5 1.5 0 1 0-2.496-1.666 1.5 1.5 0 0 0 2.495 1.666m-3.306-4.25A1.5 1.5 0 1 0 11.25 7.5l.053-.004q.029-.005.056-.005a3 3 0 0 1 1.357-1.805 1.5 1.5 0 0 0-.524-.852m7.804 7.989c.843.19 1.6.65 2.155 1.311l.482.576-5.669 4.752a3.73 3.73 0 0 1-2.105.864l-4.23.564a3.75 3.75 0 0 1-1.888-.235l-2.653-1.062a2.24 2.24 0 0 1-1.588.657h-3V10.5h3A2.25 2.25 0 0 1 6.612 12H9.75a3.75 3.75 0 0 1 3.664 2.96l4.074-1.876a3.95 3.95 0 0 1 2.508-.261M3 18.75h1.5a.75.75 0 0 0 .75-.75v-5.25A.75.75 0 0 0 4.5 12H3zm11.7.086a2.28 2.28 0 0 0 1.3-.525l4.429-3.71a2.44 2.44 0 0 0-2.313-.15L13.664 16.5H9V15h2.862a2.25 2.25 0 0 0-2.112-1.5h-3v4.742l2.549 1.022c.359.143.75.192 1.133.14z" clip-rule="evenodd"/></svg>