<svg xmlns="http://www.w3.org/2000/svg" xml:space="preserve" viewBox="0 0 32 32"><path d="M29.534 18.846a5.26 5.26 0 0 0-6.217-1.396l-5.432 2.502A5.005 5.005 0 0 0 13 16H8.816A3 3 0 0 0 6 14H2v13h4c.825 0 1.574-.335 2.117-.876l3.538 1.416a5 5 0 0 0 2.517.313l5.64-.752a5 5 0 0 0 2.807-1.152l7.558-6.336zM6 25H4v-9h2c.552 0 1 .449 1 1v7a1 1 0 0 1-1 1m15.333-.585a3.04 3.04 0 0 1-1.734.697l-5.69.758a3 3 0 0 1-1.511-.188L9 24.323V18h4c1.302 0 2.402.839 2.816 2H12v2h6.219l5.935-2.733a3.25 3.25 0 0 1 3.084.199zM15 12c.047 0 .092-.01.138-.012C15.581 13.715 17.137 15 19 15c2.206 0 4-1.794 4-4s-1.794-4-4-4c-.047 0-.091.012-.138.014C18.42 5.286 16.864 4 15 4c-2.206 0-4 1.794-4 4s1.794 4 4 4m6-1c0 1.103-.897 2-2 2s-2-.897-2-2 .897-2 2-2 2 .897 2 2m-6-5c.959 0 1.761.679 1.954 1.581a4 4 0 0 0-1.808 2.407c-.049.003-.097.012-.146.012-1.103 0-2-.897-2-2s.897-2 2-2"/></svg>