<svg xmlns="http://www.w3.org/2000/svg" viewBox="0 0 32 32"><path d="M26 8c-1.05 0-1.98.55-2.51 1.37l-5.81-2.18a3 3 0 0 0-3.36.89l-.47.57-5.25.87C8.08 8.62 7.12 8 6.01 8H2v17h4c1.59 0 2.88-1.24 2.98-2.8l.99.74c.87.66 1.93 1.01 3.01 1.01.32 0 .65-.03.97-.1l2.63-.54c.59-.11 1.13-.39 1.56-.82l1.26-1.26c.58.69 1.41 1.09 2.28 1.09.45 0 .89-.12 1.31-.32 0 1.65 1.35 3 3 3h4V8h-4ZM7 22c0 .55-.45 1-1 1H4V10h2c.55 0 1 .45 1 1zm9.73-.92c-.14.14-.31.23-.52.27l-2.65.54c-.84.17-1.71-.03-2.39-.55L9 19.72v-8.24l2.89-.48-1 1.2c-.35.42-.51.95-.45 1.49s.32 1.02.75 1.36l.8.63c1.14.9 2.75.85 3.83-.09l2.46 3.94zM23 19.73l-.83.46c-.47.26-1.05.11-1.34-.34l-4.66-7.45-1.63 1.63c-.36.36-.93.39-1.33.08l-.8-.63 3.43-4.12c.27-.33.72-.45 1.12-.3l6.02 2.26v8.41ZM28 23h-2c-.55 0-1-.45-1-1V11c0-.55.45-1 1-1h2z"/></svg>