<svg xmlns="http://www.w3.org/2000/svg" viewBox="0 0 24 24"><g clip-path="url(#a)"><path d="M19.5 6c-.788 0-1.485.412-1.883 1.027L13.26 5.393a2.25 2.25 0 0 0-2.52.667l-.353.428-3.937.652A2.25 2.25 0 0 0 4.508 6H1.5v12.75h3a2.24 2.24 0 0 0 2.235-2.1l.742.555a3.74 3.74 0 0 0 2.258.758c.24 0 .488-.023.728-.076l1.972-.404a2.2 2.2 0 0 0 1.17-.616l.945-.945a2.24 2.24 0 0 0 1.71.818c.337 0 .667-.09.982-.24a2.257 2.257 0 0 0 2.25 2.25h3V6h-3zM5.25 16.5c0 .413-.338.75-.75.75H3V7.5h1.5c.412 0 .75.338.75.75zm7.297-.69a.73.73 0 0 1-.39.202l-1.987.406a2.22 2.22 0 0 1-1.793-.413L6.75 14.79V8.61l2.168-.36-.75.9a1.48 1.48 0 0 0-.338 1.117c.045.406.24.766.563 1.02l.6.473a2.25 2.25 0 0 0 2.872-.067l1.845 2.955zm3.083-.923L12.135 9.3l-1.223 1.223a.756.756 0 0 1-.997.06l-.6-.473 2.573-3.09a.75.75 0 0 1 .84-.225l4.515 1.695v6.307l-.623.345a.755.755 0 0 1-1.005-.255zM21 17.25h-1.5a.75.75 0 0 1-.75-.75V8.25c0-.412.337-.75.75-.75H21z"/></g><defs><clipPath id="a"><path d="M0 0h24v24H0z"/></clipPath></defs></svg>