<svg xmlns="http://www.w3.org/2000/svg" xml:space="preserve" viewBox="0 0 32 32"><path d="M26.956 12.128C26.509 6.47 21.771 2 16 2S5.491 6.47 5.044 12.128A3.99 3.99 0 0 0 2 16v4a4 4 0 0 0 4 4h2a2 2 0 0 0 2-2v-8a2 2 0 0 0-2-2h-.941C7.558 7.507 11.375 4 16 4s8.442 3.507 8.941 8H24a2 2 0 0 0-2 2v8a2 2 0 0 0 2 2v1a1 1 0 0 1-1 1h-3.184A3 3 0 0 0 17 24h-2c-1.654 0-3 1.346-3 3s1.346 3 3 3h2a3 3 0 0 0 2.816-2H23c1.654 0 3-1.346 3-3v-1a4 4 0 0 0 4-4v-4a3.99 3.99 0 0 0-3.044-3.872M8 22H6c-1.103 0-2-.897-2-2v-4c0-1.103.897-2 2-2h2zm9 6h-2a1 1 0 0 1 0-2h2a1 1 0 0 1 0 2m11-8c0 1.103-.897 2-2 2h-2v-8h2c1.103 0 2 .897 2 2z"/></svg>