<svg xmlns="http://www.w3.org/2000/svg" viewBox="0 0 24 24"><path d="M20.217 9.096C19.882 4.853 16.328 1.5 12 1.5S4.118 4.853 3.783 9.096A2.994 2.994 0 0 0 1.5 12v3a3 3 0 0 0 3 3H6a1.5 1.5 0 0 0 1.5-1.5v-6A1.5 1.5 0 0 0 6 9h-.706C5.67 5.63 8.531 3 12 3s6.331 2.63 6.706 6H18a1.5 1.5 0 0 0-1.5 1.5v6A1.5 1.5 0 0 0 18 18v.75a.75.75 0 0 1-.75.75h-2.388A2.25 2.25 0 0 0 12.75 18h-1.5C10.01 18 9 19.01 9 20.25s1.01 2.25 2.25 2.25h1.5c.976 0 1.802-.63 2.112-1.5h2.388c1.24 0 2.25-1.01 2.25-2.25V18a3 3 0 0 0 3-3v-3a2.994 2.994 0 0 0-2.283-2.904M6 16.5H4.5c-.827 0-1.5-.673-1.5-1.5v-3c0-.827.673-1.5 1.5-1.5H6zm6.75 4.5h-1.5a.75.75 0 0 1 0-1.5h1.5a.75.75 0 0 1 0 1.5M21 15c0 .827-.673 1.5-1.5 1.5H18v-6h1.5c.827 0 1.5.673 1.5 1.5z"/></svg>