<svg xmlns="http://www.w3.org/2000/svg" xml:space="preserve" viewBox="0 0 32 32"><path d="M22 4a7 7 0 0 0-6 3.397A7 7 0 0 0 10 4c-3.859 0-7 3.081-7 6.867 0 8.501 11.935 16.622 12.442 16.963l.558.375.558-.375C17.065 27.488 29 19.368 29 10.867 29 7.081 25.859 4 22 4M10 6c2.71 0 5 2.29 5 5h2c0-2.71 2.29-5 5-5 2.757 0 5 2.183 5 4.867 0 1.727-.627 3.47-1.576 5.133h-7.486l-.814 1.222-2.21-4.42L12.782 16H6.576C5.627 14.336 5 12.593 5 10.867 5 8.183 7.243 6 10 6m6 19.774c-1.443-1.049-5.372-4.073-8.12-7.774h5.973l.813-1.221 2.21 4.419L19.009 18h5.111c-2.748 3.701-6.677 6.726-8.12 7.774"/></svg>