<svg xmlns="http://www.w3.org/2000/svg" width="24" height="24"><path d="M16.5 3A5.25 5.25 0 0 0 12 5.55a5.25 5.25 0 0 0-9.75 2.602c0 6.375 8.951 12.467 9.332 12.723l.418.275.418-.281c.38-.253 9.332-6.343 9.332-12.719A5.207 5.207 0 0 0 16.5 3m-9 1.5a3.8 3.8 0 0 1 3.75 3.75h1.5A3.8 3.8 0 0 1 16.5 4.5a3.705 3.705 0 0 1 3.75 3.65A7.9 7.9 0 0 1 19.068 12h-5.615l-.61.916-1.658-3.315L9.587 12H4.932A7.9 7.9 0 0 1 3.75 8.15 3.705 3.705 0 0 1 7.5 4.5M12 19.33a30.3 30.3 0 0 1-6.09-5.83h4.48l.61-.916 1.657 3.314 1.6-2.398h3.833A30.2 30.2 0 0 1 12 19.33"/></svg>