<svg xmlns="http://www.w3.org/2000/svg" viewBox="0 0 24 24"><path d="M13.125 14.548a1.125 1.125 0 1 1-2.25 0 1.125 1.125 0 0 1 2.25 0"/><path fill-rule="evenodd" d="M15 10.58V8.75a3 3 0 1 0-6 0v1.83a1.78 1.78 0 0 0-1.447 1.74v4.447c0 .983.795 1.778 1.777 1.778h5.34c.983 0 1.778-.795 1.778-1.778V12.32c0-.87-.623-1.59-1.448-1.74m-3-3.33c.825 0 1.5.675 1.5 1.5v1.8h-3v-1.8c0-.825.675-1.5 1.5-1.5m2.948 9.525c0 .15-.128.277-.278.277H9.33a.28.28 0 0 1-.277-.277v-4.447c0-.15.127-.278.277-.278h5.34c.15 0 .278.127.278.277z" clip-rule="evenodd"/><path fill-rule="evenodd" d="M20.475 5.645 12 1.46 3.525 5.645 1.44 15.02l5.85 7.53h9.413l5.85-7.53-2.085-9.375zM8.033 21.05 3.06 14.66l1.778-7.98L12 3.14l7.163 3.54 1.777 7.98-4.973 6.39z" clip-rule="evenodd"/></svg>