<svg xmlns="http://www.w3.org/2000/svg" viewBox="0 0 24 24"><path d="M20.408 5.693 11.984 1.53l-8.43 4.163-2.077 9.322 5.82 7.485h9.36l5.82-7.485L20.4 5.693zM15.93 21H8.033l-4.935-6.352L4.86 6.713l7.117-3.518 7.118 3.518 1.763 7.935L15.922 21zm-5.992-9.817v3.667c0 .488.36 1.072 2.054 1.072 1.695 0 2.055-.585 2.055-1.072v-3.668c0-.21.143-.375.233-.45a3.377 3.377 0 0 0-.172-5.167c-.818-.645-1.883-.885-2.918-.645a3.37 3.37 0 0 0-2.497 2.475 3.4 3.4 0 0 0 1.02 3.353c.082.075.225.232.225.442zm.21-3.443a1.88 1.88 0 0 1 1.38-1.365 1.88 1.88 0 0 1 1.65.36c.457.368.72.908.72 1.493 0 .532-.218 1.027-.623 1.395-.457.412-.713.96-.72 1.53v3.232a5.5 5.5 0 0 1-1.11 0v-3.232c-.008-.578-.263-1.118-.72-1.53-.525-.473-.735-1.178-.57-1.883zm6.39 6.293h1.642v1.5h-1.628c-.157.502-.457.96-.884 1.35l1.065 1.065-1.058 1.057-1.312-1.312a6 6 0 0 1-1.613.404v1.726h-1.5v-1.726a6 6 0 0 1-1.612-.405l-1.29 1.29-1.058-1.057 1.043-1.043a3.1 3.1 0 0 1-.885-1.35h-1.65v-1.5h1.665a2.9 2.9 0 0 1 .742-1.222l1.065 1.057c-.195.195-.435.518-.435.915 0 .99 1.477 1.86 3.172 1.86s3.173-.87 3.173-1.86c0-.397-.24-.712-.435-.915l1.065-1.057c.367.367.607.787.742 1.223zm-9.203-2.31a6.6 6.6 0 0 1-1.312-3.96V7.62l1.5.023v.112c0 1.11.352 2.175 1.012 3.06l-1.2.9zm8.093-.856a5.06 5.06 0 0 0 1.005-3.044v-.12l1.5-.045v.165c0 1.432-.45 2.797-1.298 3.944l-1.208-.892z"/></svg>