<svg xmlns="http://www.w3.org/2000/svg" viewBox="0 0 24 24"><g clip-path="url(#a)"><path fill-rule="evenodd" d="M7.29 22.5h9.42l5.85-7.53-2.085-9.375L12 1.41 3.525 5.595 1.44 14.97zm8.677-1.5H8.032L3.06 14.61l1.777-7.98L12 3.09l7.162 3.54 1.778 7.98zM8.4 16.747h6.81c1.957 0 3.547-1.695 3.547-3.75s-1.485-3.667-3.405-3.75a4.15 4.15 0 0 0-3.547-2.002 4.165 4.165 0 0 0-4.065 3.27 3.16 3.16 0 0 0-2.49 3.082 3.15 3.15 0 0 0 3.15 3.15m-1.65-3.15c0-.907.742-1.65 1.65-1.65h.705l.037-.705a2.66 2.66 0 0 1 2.655-2.49c1.043 0 1.988.608 2.415 1.56l.21.458.78-.023c1.148 0 2.048 1.013 2.048 2.25s-.915 2.25-2.048 2.25H8.4c-.908 0-1.65-.742-1.65-1.65" clip-rule="evenodd"/></g><defs><clipPath id="a"><path d="M0 0h24v24H0z"/></clipPath></defs></svg>