<svg xmlns="http://www.w3.org/2000/svg" viewBox="0 0 32 32"><path d="M27.3 7.46 16 1.88 4.7 7.46l-2.78 12.5L9.72 30h12.55l7.8-10.04-2.78-12.5ZM21.3 28H10.71l-6.63-8.52L6.45 8.84 16 4.12l9.55 4.72 2.37 10.64L21.29 28Zm.81-14.43v-.74c0-1.81-1.48-3.29-3.29-3.29-.2 0-.4.02-.59.06a4.86 4.86 0 0 0-2.99-1.03c-2.4 0-4.41 1.72-4.86 3.99-.89.13-1.72.57-2.34 1.24-.75.81-1.12 1.92-1.03 3.03.18 2.02 1.99 3.61 4.11 3.61H14v.03c0 1.39 1.13 2.53 2.53 2.53h4.58c1.39 0 2.53-1.13 2.53-2.53v-4.58c0-1.04-.63-1.93-1.53-2.32m-2-.74v.53h-2.58v-.53c0-.71.58-1.29 1.29-1.29s1.29.58 1.29 1.29m-8.99 5.61c-1.09 0-2.02-.79-2.11-1.79-.05-.56.13-1.09.51-1.5s.89-.64 1.45-.64h1.33v-1a2.95 2.95 0 0 1 3.99-2.76c-.46.57-.75 1.28-.75 2.07v.74c-.9.39-1.53 1.28-1.53 2.32v2.55h-2.88Zm10.52 2.03c0 .29-.24.53-.53.53h-4.58c-.29 0-.53-.24-.53-.53v-4.58c0-.29.24-.53.53-.53h4.58c.29 0 .53.24.53.53zM20 18.14a1.14 1.14 0 1 1-2.279.001A1.14 1.14 0 0 1 20 18.14" style="stroke-width:0"/></svg>