<svg xmlns="http://www.w3.org/2000/svg" viewBox="0 0 32 32"><path d="M20.27 22.33H11.2a4.2 4.2 0 0 1-4.2-4.2c0-2.01 1.42-3.7 3.32-4.11.54-2.5 2.78-4.36 5.42-4.36 1.95 0 3.74 1.03 4.73 2.67 2.56.11 4.54 2.26 4.54 5s-2.12 5-4.73 5Zm-9.07-6.4c-1.21 0-2.2.99-2.2 2.2s.99 2.2 2.2 2.2h9.07c1.51 0 2.73-1.35 2.73-3s-1.2-3-2.73-3l-1.04.03-.28-.61a3.52 3.52 0 0 0-3.22-2.08c-1.87 0-3.43 1.46-3.54 3.32l-.05.94zM22.27 30H9.72l-7.8-10.04L4.7 7.46 16 1.88l11.3 5.58 2.78 12.5L22.28 30ZM10.7 28h10.59l6.63-8.52-2.37-10.64L16 4.12 6.45 8.84 4.08 19.48 10.71 28Z" style="stroke-width:0"/></svg>