<svg xmlns="http://www.w3.org/2000/svg" viewBox="0 0 32 32"><path d="M27.3 7.46 16 1.88 4.7 7.46l-2.78 12.5L9.72 30h12.55l7.8-10.04-2.78-12.5ZM21.3 28H10.71l-6.63-8.52L6.45 8.84 16 4.12l9.55 4.72 2.37 10.64L21.29 28ZM20 14.04V11.6c0-2.21-1.79-4-4-4s-4 1.79-4 4v2.44a2.37 2.37 0 0 0-1.93 2.32v5.93c0 1.31 1.06 2.37 2.37 2.37h7.12c1.31 0 2.37-1.06 2.37-2.37v-5.93c0-1.16-.83-2.12-1.93-2.32M16 9.6c1.1 0 2 .9 2 2V14h-4v-2.4c0-1.1.9-2 2-2m3.93 12.7c0 .2-.17.37-.37.37h-7.12c-.2 0-.37-.17-.37-.37v-5.93c0-.2.17-.37.37-.37h7.12c.2 0 .37.17.37.37zm-2.43-2.97c0 .83-.67 1.5-1.5 1.5s-1.5-.67-1.5-1.5.67-1.5 1.5-1.5 1.5.67 1.5 1.5" style="stroke-width:0"/></svg>