<svg xmlns="http://www.w3.org/2000/svg" viewBox="0 0 24 24"><g clip-path="url(#a)"><path fill-rule="evenodd" d="M21.06 12.84v.885c.87.315 1.5 1.14 1.5 2.115v4.5a2.257 2.257 0 0 1-2.25 2.25h-4.5c-.982 0-1.808-.63-2.115-1.5H6.938L1.5 14.092l1.943-8.707L11.31 1.5l7.867 3.893 1.26 5.64c.383.502.623 1.125.623 1.807M7.98 14.28h6.21c.232-.247.533-.435.863-.555v-.885c0-.69.24-1.32.637-1.83-.338-.473-.848-.765-1.432-.765H13.5l-.203-.442A2.41 2.41 0 0 0 11.115 8.4c-1.26 0-2.31.99-2.385 2.25l-.045.705H7.98c-.39 0-.758.15-1.043.428-.27.277-.42.645-.42 1.035 0 .802.653 1.462 1.463 1.462m10.08-2.94c-.825 0-1.5.675-1.5 1.5v.75h3v-.75c0-.825-.675-1.5-1.5-1.5M4.748 6.413 3.12 13.724h.007l4.553 5.858h5.888v-3.81h-5.58a2.964 2.964 0 0 1-2.1-5.055c.405-.405.9-.675 1.44-.796a3.904 3.904 0 0 1 3.795-3.03c1.357 0 2.61.713 3.315 1.853.974.045 1.86.548 2.444 1.328.36-.158.758-.24 1.178-.24.203 0 .405.022.593.06l-.78-3.48-6.563-3.24zM20.31 21.09c.413 0 .75-.337.75-.75v-4.5a.75.75 0 0 0-.75-.75h-4.5a.75.75 0 0 0-.75.75v4.5c0 .413.338.75.75.75zm-.75-3a1.5 1.5 0 1 1-3 0 1.5 1.5 0 0 1 3 0" clip-rule="evenodd"/></g><defs><clipPath id="a"><path d="M0 0h24v24H0z"/></clipPath></defs></svg>