<svg xmlns="http://www.w3.org/2000/svg" width="24" height="24"><g clip-path="url(#a)"><path fill-rule="evenodd" d="M20.475 5.645 12 1.46 3.525 5.645 1.44 15.02l5.85 7.53h9.412l5.85-7.53-2.085-9.375zM8.032 21.05 3.06 14.66l1.777-7.98L12 3.14l7.162 3.54 1.778 7.98-4.973 6.39zm8.55-10.3v-.555a2.474 2.474 0 0 0-2.467-2.468q-.227 0-.443.045A3.64 3.64 0 0 0 11.43 7c-1.8 0-3.307 1.29-3.645 2.992a3 3 0 0 0-1.755.93 3 3 0 0 0-.772 2.273c.135 1.515 1.492 2.707 3.082 2.707h2.16v.023a1.9 1.9 0 0 0 1.898 1.898h3.435a1.9 1.9 0 0 0 1.897-1.898V12.49c0-.78-.473-1.447-1.148-1.74m-1.5-.555v.397h-1.934v-.397a.97.97 0 0 1 .967-.968.97.97 0 0 1 .967.968M8.34 14.403c-.817 0-1.515-.593-1.582-1.343-.038-.42.097-.818.382-1.125s.668-.48 1.088-.48h.997v-.75a2.212 2.212 0 0 1 2.992-2.07c-.344.428-.562.96-.562 1.553v.554a1.9 1.9 0 0 0-1.147 1.74v1.913h-2.16zm7.89 1.522a.4.4 0 0 1-.398.398h-3.434a.4.4 0 0 1-.398-.398V12.49a.4.4 0 0 1 .398-.398h3.435a.4.4 0 0 1 .397.398zm-2.94-2.105a.855.855 0 1 1 1.71 0 .855.855 0 0 1-1.71 0" clip-rule="evenodd"/></g><defs><clipPath id="a"><path d="M0 0h24v24H0z"/></clipPath></defs></svg>