<svg xmlns="http://www.w3.org/2000/svg" viewBox="0 0 24 24"><path fill-rule="evenodd" d="m5.25 6.642 5.956-3.417 6.044 3.432V9h1.5V7.51l1.13.642.74-1.304-9.418-5.355L1.875 6.85l.75 1.3 1.125-.646V19.5h9V18h-7.5zM17.625 13.5a1.125 1.125 0 1 1 0 2.25 1.125 1.125 0 0 1 0-2.25m-2.917-1.792a4.125 4.125 0 0 1 7.042 2.917c0 4.125-4.125 7.875-4.125 7.875S13.5 18.75 13.5 14.625c0-1.094.435-2.143 1.208-2.917M15 14.625c0 2.23 1.549 4.432 2.625 5.692 1.076-1.26 2.625-3.462 2.625-5.692a2.625 2.625 0 0 0-5.25 0" clip-rule="evenodd"/></svg>