<svg xmlns="http://www.w3.org/2000/svg" viewBox="0 0 24 24"><g clip-path="url(#a)"><path d="M18 8.55c0-.675-.225-1.305-.645-1.823C16.957 3.728 14.7 1.5 12 1.5S7.043 3.735 6.645 6.728A2.85 2.85 0 0 0 6 8.55c0 1.17.69 2.175 1.68 2.61l3.608 10.823a.75.75 0 0 0 .712.51.76.76 0 0 0 .713-.51L16.32 11.16A2.85 2.85 0 0 0 18 8.55m-6 10.83-2.677-8.032q.303-.055.585-.188c.562.533 1.312.84 2.092.84s1.53-.307 2.092-.84q.282.122.585.188l-.72 2.16H12v1.5h1.463L12 19.388zm3.21-9.48c-.36 0-.63-.158-.795-.3l-.645-.532-.457.705A1.57 1.57 0 0 1 12 10.5a1.57 1.57 0 0 1-1.312-.727l-.458-.705-.645.532c-.165.135-.435.3-.795.3-.712 0-1.29-.607-1.29-1.35 0-.368.143-.713.397-.968l.188-.187.022-.27C8.334 4.778 10.006 3 12 3s3.668 1.77 3.893 4.125l.022.27.188.188c.255.255.397.6.397.967 0 .742-.578 1.35-1.29 1.35"/></g><defs><clipPath id="a"><path d="M0 0h24v24H0z"/></clipPath></defs></svg>