<svg xmlns="http://www.w3.org/2000/svg" viewBox="0 0 24 24"><path d="m14.74 9.199 1.02 1.101L12 13.771 8.241 10.3l1.018-1.1 1.991 1.838V6h1.5v5.037z"/><path fill-rule="evenodd" d="M5.25 2.25h13.5A2.25 2.25 0 0 1 21 4.5v15a2.25 2.25 0 0 1-2.25 2.25H5.25A2.25 2.25 0 0 1 3 19.5v-15a2.25 2.25 0 0 1 2.25-2.25m13.5 1.5H5.25a.75.75 0 0 0-.75.75V15h5.25v1.505a.75.75 0 0 0 .75.75h3a.75.75 0 0 0 .75-.75V15h5.25V4.5a.75.75 0 0 0-.75-.75m-13.5 16.5h13.5a.75.75 0 0 0 .75-.745v-3h-3.75a2.25 2.25 0 0 1-2.25 2.25h-3a2.25 2.25 0 0 1-2.25-2.25V16.5H4.5v3a.75.75 0 0 0 .75.75" clip-rule="evenodd"/></svg>