<svg xmlns="http://www.w3.org/2000/svg" width="24" height="24"><path fill-rule="evenodd" d="M5.25 2.25h13.5A2.25 2.25 0 0 1 21 4.5v15a2.25 2.25 0 0 1-2.25 2.25H5.25A2.25 2.25 0 0 1 3 19.5v-15a2.25 2.25 0 0 1 2.25-2.25m13.5 1.5H5.25a.75.75 0 0 0-.75.75V15h5.25v1.505a.75.75 0 0 0 .75.75h3a.75.75 0 0 0 .75-.75V15h5.25V4.5a.75.75 0 0 0-.75-.75m-13.5 16.5h13.5a.75.75 0 0 0 .75-.745v-3h-3.75a2.25 2.25 0 0 1-2.25 2.25h-3a2.25 2.25 0 0 1-2.25-2.25V16.5H4.5v3a.75.75 0 0 0 .75.75m6-6.75V8.463l-1.99 1.838L8.24 9.2 12 5.729l3.759 3.47-1.018 1.102-1.991-1.838V13.5z" clip-rule="evenodd"/></svg>