<svg xmlns="http://www.w3.org/2000/svg" xml:space="preserve" viewBox="0 0 32 32"><circle cx="21.5" cy="10.5" r="1.5"/><path d="M29.231 17.206c-.019-.005-1.154-.278-2.545-.721 2.096-3.133 1.762-7.422-.998-10.171a8 8 0 0 0-5.692-2.365h-.007a8 8 0 0 0-5.706 2.363 8.1 8.1 0 0 0-2.078 7.797L4 22.305V28h6v-3h3v-3h2.694l.561-.561c1.196 7.345 6.304 8.471 6.548 8.52l.197.039.196-.039c.278-.056 6.804-1.48 6.804-11.78v-.79zM14.866 20H11v3H8v3H6v-2.865l8.494-8.485-.213-.596a6.09 6.09 0 0 1 1.416-6.327 6.03 6.03 0 0 1 4.292-1.777h.005a6 6 0 0 1 4.28 1.779c2.201 2.193 2.325 5.672.419 8.05a17 17 0 0 1-1.246-.551L23 15.003l-.447.224c-2.267 1.133-5.75 1.97-5.784 1.979L16 17.39v.789c0 .233.02.437.026.661zm8.135 7.943c-.913-.293-4.727-1.939-4.987-8.992 1.125-.302 3.246-.921 4.986-1.721 1.74.8 3.862 1.419 4.986 1.721-.259 7.067-4.056 8.698-4.985 8.992"/><path d="m21.116 20.824-1.404 1.424 2.768 2.731 4.141-4.14-1.414-1.414-2.736 2.736z"/></svg>