<svg xmlns="http://www.w3.org/2000/svg" width="24" height="24"><path fill-rule="evenodd" d="M19.705 11.601a6.048 6.048 0 0 0-9.741-6.87 6.08 6.08 0 0 0-1.56 5.85L2.25 16.734V21h4.5v-2.25H9V16.5h2.025l.252-.252a5.25 5.25 0 1 0 8.43-4.65zM10.402 15H7.5v2.25H5.25v2.25h-1.5v-2.146l6.368-6.369-.159-.45a4.547 4.547 0 0 1 7.5-4.746 4.52 4.52 0 0 1 .931 5.065 5.23 5.23 0 0 0-6.742 2.899zm6.098 4.5a3.75 3.75 0 1 1 0-7.5 3.75 3.75 0 0 1 0 7.5m-.375-12.75a1.125 1.125 0 1 1 0 2.25 1.125 1.125 0 0 1 0-2.25m-1.05 8.145.9.885 1.853-1.854 1.062 1.06-2.908 2.909-1.957-1.932z" clip-rule="evenodd"/></svg>