<svg xmlns="http://www.w3.org/2000/svg" viewBox="0 0 24 24"><path d="M17.288 7.845a1.12 1.12 0 0 1-1.118 1.117 1.12 1.12 0 0 1-1.118-1.117 1.12 1.12 0 0 1 1.118-1.118 1.12 1.12 0 0 1 1.117 1.118m-6.42 3.142-.158-.45a4.57 4.57 0 0 1 1.065-4.747 4.556 4.556 0 0 1 6.435 0 4.52 4.52 0 0 1 1.335 3.217h1.5c0-1.612-.63-3.135-1.77-4.275a6.06 6.06 0 0 0-8.557 0c-1.53 1.523-2.115 3.773-1.56 5.85l-6.15 6.15V21h4.5v-2.25h2.25v-3h-1.5v1.5h-2.25v2.25h-1.5v-2.145l6.367-6.368zm10.897 4.763a5.256 5.256 0 0 1-5.25 5.25 5.256 5.256 0 0 1-5.25-5.25 5.256 5.256 0 0 1 5.25-5.25 5.256 5.256 0 0 1 5.25 5.25m-1.5 0c0-2.07-1.68-3.75-3.75-3.75s-3.75 1.68-3.75 3.75 1.68 3.75 3.75 3.75 3.75-1.68 3.75-3.75m-3-2.25h-1.5v2.557l1.718 1.718 1.057-1.058-1.282-1.282v-1.943z"/></svg>