<svg xmlns="http://www.w3.org/2000/svg" width="24" height="24"><path fill-rule="evenodd" d="m21.923 12.904-.01-.002a31 31 0 0 1-1.898-.538c1.572-2.35 1.321-5.567-.749-7.629a6 6 0 0 0-4.269-1.773h-.005a6 6 0 0 0-4.28 1.772 6.08 6.08 0 0 0-1.558 5.848L3 16.729v4.27h4.5v-2.25h2.25V16.5h2.02l.421-.42c.897 5.509 4.728 6.353 4.911 6.39l.148.03.147-.03c.209-.042 5.103-1.11 5.103-8.835v-.592zM11.15 15h-2.9v2.25H6v2.25H4.5v-2.15l6.37-6.364-.16-.447a4.57 4.57 0 0 1 1.063-4.745 4.52 4.52 0 0 1 3.219-1.333h.003a4.5 4.5 0 0 1 3.21 1.335c1.651 1.644 1.744 4.254.315 6.037-.326-.13-.645-.268-.935-.413l-.335-.169-.335.168c-1.646.822-4.145 1.437-4.328 1.482l-.01.002-.577.138v.592c0 .103.005.198.01.294q.006.099.01.202zm6.1 5.957c-.684-.22-3.544-1.454-3.74-6.744.844-.226 2.435-.69 3.74-1.29 1.305.6 2.896 1.064 3.74 1.29-.195 5.3-3.042 6.524-3.74 6.744M16.126 9a1.125 1.125 0 1 0 0-2.25 1.125 1.125 0 0 0 0 2.25m-1.341 7.686 1.053-1.068 1.016 1.003 2.052-2.052 1.06 1.06-3.105 3.105z" clip-rule="evenodd"/></svg>