<svg xmlns="http://www.w3.org/2000/svg" xml:space="preserve" viewBox="0 0 32 32"><circle cx="21.5" cy="10.5" r="1.5"/><path d="m22 17.966-3.707 3.707 1.414 1.414L22 20.794l2.293 2.293 1.414-1.414z"/><path d="M26.273 15.468a8.025 8.025 0 0 0-1.581-9.159c-3.143-3.144-8.261-3.146-11.407 0-2.035 2.035-2.818 5.035-2.079 7.798L3.002 22.31v5.692H9V25h3v-3h2.697l.336-.336C15.369 25.213 18.365 28 22 28c3.859 0 7-3.141 7-7 0-2.25-1.072-4.25-2.727-5.532M13.869 20H10v3H7v3.002H5.002v-2.864l8.491-8.491-.212-.596a6.1 6.1 0 0 1 1.417-6.329 6.073 6.073 0 0 1 8.579 0 6.03 6.03 0 0 1 1.241 6.754A7 7 0 0 0 22 14c-2.918 0-5.423 1.797-6.472 4.341zM22 26c-2.757 0-5-2.243-5-5s2.243-5 5-5 5 2.243 5 5-2.243 5-5 5"/></svg>