<svg xmlns="http://www.w3.org/2000/svg" viewBox="0 0 24 24"><path d="M16.125 6.75a1.125 1.125 0 1 1 0 2.25 1.125 1.125 0 0 1 0-2.25m.375 6.725-2.78 2.78 1.06 1.06 1.72-1.72 1.72 1.72 1.06-1.06z"/><path fill-rule="evenodd" d="M20.09 7.472a6.05 6.05 0 0 1-.385 4.129l.002-.003a5.25 5.25 0 1 1-8.43 4.65l-.252.252H9v2.25H6.75V21h-4.5v-4.267l6.155-6.151a6.08 6.08 0 0 1 1.559-5.85 6.048 6.048 0 0 1 10.127 2.74M7.5 15h2.902l1.246-1.247a5.23 5.23 0 0 1 6.742-2.899 4.52 4.52 0 0 0-.93-5.065 4.546 4.546 0 0 0-7.5 4.746l.158.45-6.368 6.369V19.5h1.5v-2.25H7.5zm6.917 3.868a3.75 3.75 0 1 0 4.166-6.235 3.75 3.75 0 0 0-4.166 6.235" clip-rule="evenodd"/></svg>