<svg xmlns="http://www.w3.org/2000/svg" viewBox="0 0 24 24"><path d="M16.733 7.493a.937.937 0 0 1 0-1.328.937.937 0 0 1 1.327 0 .937.937 0 0 1 0 1.328.937.937 0 0 1-1.327 0m3.112 7.35-.705.944.953 1.335-.96 1.32 1.012 1.418-2.753 2.753-2.647-2.648v-.878c-.143.053-.285.12-.435.166v3.352h-4.5v-3.352c-.42-.136-.825-.3-1.215-.503l-2.37 2.37-3.18-3.18 2.37-2.37a7 7 0 0 1-.503-1.215H1.56v-4.5h3.352c.128-.42.3-.825.503-1.215l-2.37-2.37 3.18-3.18 2.37 2.37a7 7 0 0 1 1.215-.502V1.613h4.5v2.49a5.17 5.17 0 0 1 3.082-1.02 5.19 5.19 0 0 1 5.183 5.182 5.2 5.2 0 0 1-2.535 4.448v1.935zM12.495 9.9a2.256 2.256 0 0 0-2.512 1.358 2.257 2.257 0 0 0 2.962 2.925 2.22 2.22 0 0 0 1.207-1.223c.075-.18.113-.375.143-.562a5.2 5.2 0 0 1-1.793-2.49zm2.25 7.545v-2.73a3.75 3.75 0 0 1-2.685 1.148q-.711.002-1.41-.278a3.76 3.76 0 0 1-2.062-4.89 3.74 3.74 0 0 1 3.63-2.317c0-.038-.008-.083-.008-.12 0-.878.217-1.703.607-2.423V3.113h-1.5v3.022l-.585.135a5.8 5.8 0 0 0-1.852.773l-.51.322-2.137-2.137-1.058 1.057 2.138 2.138-.316.51c-.36.577-.622 1.2-.772 1.852l-.135.585H3.068v1.5H6.09l.135.585a5.8 5.8 0 0 0 .773 1.852l.314.503-2.137 2.138 1.058 1.065 2.137-2.138.51.323c.577.36 1.2.622 1.852.772l.586.135v3.023h1.5v-3.023l.585-.135c.472-.105.915-.293 1.35-.51zm2.543.997.96-1.32-.96-1.35 1.26-1.694v-2.295l.427-.203a3.69 3.69 0 0 0 2.107-3.322A3.684 3.684 0 0 0 17.4 4.575a3.684 3.684 0 0 0-3.682 3.683c0 1.41.825 2.715 2.107 3.322l.428.203v7.56L17.4 20.49l.795-.795-.9-1.26zm1.987-4.11h-.022l.105.075z"/></svg>