<svg xmlns="http://www.w3.org/2000/svg" viewBox="0 0 24 24"><path d="M1.5 3v15h8.25v-1.5H3V5.558l6.375 6.374a3.73 3.73 0 0 0 2.655 1.095c1.005 0 1.943-.39 2.655-1.102L21 5.557V9.72h1.5V3zm12.12 7.875c-.847.848-2.332.848-3.18 0L4.058 4.5h15.885l-6.33 6.375zm7.073.93a3.72 3.72 0 0 0-3.863-.022c-1.312.802-2.002 2.265-1.785 3.75l-3.795 3.795v3.18h3.18l3.803-3.803a3.74 3.74 0 0 0 3.172-1.05 3.73 3.73 0 0 0 1.072-3.083c-.127-1.147-.78-2.16-1.777-2.782zm-.353 4.8a2.23 2.23 0 0 1-2.168.57l-.42-.113-3.944 3.945H12.75v-1.065l3.945-3.944-.113-.42a2.226 2.226 0 0 1 1.028-2.52 2.23 2.23 0 0 1 2.295.014c.615.383.997.976 1.08 1.68a2.22 2.22 0 0 1-.645 1.845zm-1.065-2.123a.747.747 0 1 1-1.055 1.058.747.747 0 0 1 1.055-1.057"/></svg>