<svg xmlns="http://www.w3.org/2000/svg" viewBox="0 0 24 24"><path d="M16.515 21a5.256 5.256 0 0 1-5.25-5.25 5.256 5.256 0 0 1 5.25-5.25 5.256 5.256 0 0 1 5.25 5.25 5.256 5.256 0 0 1-5.25 5.25m0-9c-2.07 0-3.75 1.68-3.75 3.75s1.68 3.75 3.75 3.75 3.75-1.68 3.75-3.75-1.68-3.75-3.75-3.75M7.5 21H3v-4.268l6.15-6.15a6.08 6.08 0 0 1 1.56-5.85 6 6 0 0 1 4.275-1.77c1.613 0 3.135.63 4.275 1.77a6 6 0 0 1 1.77 4.275h-1.5a4.52 4.52 0 0 0-1.335-3.217 4.556 4.556 0 0 0-6.435 0 4.59 4.59 0 0 0-1.065 4.747l.157.45-6.367 6.368V19.5h1.5v-2.25h2.25V15h1.5v3.75h-2.25V21zm9.983-3.218-1.718-1.717v-2.558h1.5v1.943l1.282 1.282-1.057 1.058zM16.125 9A1.123 1.123 0 0 1 15 7.875c0-.623.502-1.125 1.125-1.125a1.124 1.124 0 1 1 0 2.25m0-1.5a.37.37 0 0 0-.375.375c0 .21.165.375.375.375s.375-.165.375-.375a.37.37 0 0 0-.375-.375"/></svg>