<svg xmlns="http://www.w3.org/2000/svg" width="24" height="24"><path fill-rule="evenodd" d="M17.306 3.42c.734.304 1.4.75 1.962 1.312v.002a6.05 6.05 0 0 1 0 8.555 6.08 6.08 0 0 1-5.843 1.561l-1.65 1.65H9.75v2.25H7.5V21H3v-4.267l6.154-6.151a6.08 6.08 0 0 1 1.559-5.85 6.05 6.05 0 0 1 6.593-1.312M15.99 13.44a4.57 4.57 0 0 0 2.218-1.215l.001-.001a4.55 4.55 0 0 0 0-6.435 4.546 4.546 0 0 0-7.5 4.746l.16.45L4.5 17.354V19.5H6v-2.25h2.25V15h2.902l1.864-1.869.45.158a4.57 4.57 0 0 0 2.524.15m.76-6.5a1.125 1.125 0 1 0-1.25 1.87 1.125 1.125 0 0 0 1.25-1.87" clip-rule="evenodd"/></svg>