<svg xmlns="http://www.w3.org/2000/svg" xml:space="preserve" viewBox="0 0 32 32"><circle cx="21.5" cy="10.5" r="1.5"/><path d="M25.691 6.309a8 8 0 0 0-5.703-2.363 8 8 0 0 0-5.704 2.363c-2.035 2.035-2.818 5.035-2.079 7.798L4.002 22.31v5.692H10V25h3v-3h2.697l2.204-2.203c2.761.734 5.757-.048 7.79-2.081a8 8 0 0 0 2.362-5.704 8 8 0 0 0-2.362-5.703m-1.414 9.993a6.09 6.09 0 0 1-6.322 1.419l-.596-.211-2.49 2.49H11v3H8v3.002H6.002v-2.864l8.491-8.491-.212-.596a6.09 6.09 0 0 1 1.417-6.329 6.073 6.073 0 0 1 8.579 0 6.03 6.03 0 0 1 1.776 4.29 6.02 6.02 0 0 1-1.776 4.29"/></svg>