<svg xmlns="http://www.w3.org/2000/svg" xml:space="preserve" viewBox="0 0 32 32"><path d="M27 14H16.967l.02-3.007a1 1 0 0 1 .999-.993H19c1.654 0 3-1.346 3-3V4h-2v3c0 .551-.448 1-1 1h-1.014a3.006 3.006 0 0 0-2.999 2.98l-.02 3.02H5c-1.654 0-3 1.346-3 3v8c0 1.654 1.346 3 3 3h22c1.654 0 3-1.346 3-3v-8c0-1.654-1.346-3-3-3m1 11a1 1 0 0 1-1 1H5a1 1 0 0 1-1-1v-8c0-.551.448-1 1-1h22c.552 0 1 .449 1 1z"/><path d="M11 22h10v2H11zm-4 0h2v2H7zm0-4h2v2H7zm4 0h2v2h-2zm4 0h2v2h-2zm4 0h2v2h-2zm4 0h2v2h-2zm0 4h2v2h-2z"/></svg>