<svg xmlns="http://www.w3.org/2000/svg" width="24" height="24"><g clip-path="url(#a)"><path fill-rule="evenodd" d="M20.25 10.5h-7.525l.015-2.255a.75.75 0 0 1 .75-.745h.76c1.24 0 2.25-1.01 2.25-2.25V3H15v2.25a.75.75 0 0 1-.75.75h-.76a2.254 2.254 0 0 0-2.25 2.235l-.015 2.265H3.75c-1.24 0-2.25 1.01-2.25 2.25v6C1.5 19.99 2.51 21 3.75 21h16.5c1.24 0 2.25-1.01 2.25-2.25v-6c0-1.24-1.01-2.25-2.25-2.25m.75 8.25a.75.75 0 0 1-.75.75H3.75a.75.75 0 0 1-.75-.75v-6a.75.75 0 0 1 .75-.75h16.5a.75.75 0 0 1 .75.75zm-5.25-2.25h-7.5V18h7.5zm-10.5 0h1.5V18h-1.5zm1.5-3h-1.5V15h1.5zm1.5 0h1.5V15h-1.5zm4.5 0h-1.5V15h1.5zm1.5 1.5v-1.5h1.5V15zm4.5-1.5h-1.5V15h1.5zm-1.5 3h1.5V18h-1.5z" clip-rule="evenodd"/></g><defs><clipPath id="a"><path d="M0 0h24v24H0z"/></clipPath></defs></svg>