<svg xmlns="http://www.w3.org/2000/svg" viewBox="0 0 24 24"><path fill-rule="evenodd" d="M19.5 2.25h-15c-1.24 0-2.25 1.01-2.25 2.25v15c0 1.24 1.01 2.25 2.25 2.25h15c1.24 0 2.25-1.01 2.25-2.25v-15c0-1.24-1.01-2.25-2.25-2.25m.75 17.25a.75.75 0 0 1-.75.75h-15a.75.75 0 0 1-.75-.75v-15a.75.75 0 0 1 .75-.75h15a.75.75 0 0 1 .75.75zM9.588 9.75l-1.132 1.648-.44.667V9.75H6.75V15h1.266v-1.384l.519-.57L9.653 15h1.5L9.38 12.073l1.774-2.323zm3.548 0 1.173 3.653 1.167-3.653h1.666V15h-1.269v-1.226l.123-2.509L14.726 15h-.837l-1.272-3.739.122 2.513V15h-1.266V9.75z" clip-rule="evenodd"/></svg>