<svg xmlns="http://www.w3.org/2000/svg" viewBox="0 0 24 24"><path d="M21.863 12.893s-2.64-.638-4.335-1.485l-.338-.165-.338.165c-.675.337-1.5.637-2.242.885a2.6 2.6 0 0 0-.172-.773l3.734-2.978q.473.732.765 1.576l1.418-.488a8.8 8.8 0 0 0-1.005-2.025l1.545-1.23-.937-1.17-1.545 1.237a8.85 8.85 0 0 0-5.655-2.73V1.74h-1.5v1.98c-2.22.187-4.2 1.2-5.648 2.73L4.057 5.212l-.937 1.17L4.665 7.62a8.77 8.77 0 0 0-1.485 4.898c0 .42.037.824.097 1.222l-1.934.442.337 1.463 1.928-.442a8.86 8.86 0 0 0 3.855 4.86l-.878 1.807 1.35.66.87-1.8a8.8 8.8 0 0 0 3.203.607v-1.5a7.4 7.4 0 0 1-2.543-.465l2.085-4.282q.227.045.465.045h.008c.592 6.353 4.837 7.29 5.032 7.327l.15.03.15-.03c.21-.044 5.1-1.11 5.1-8.834v-.593l-.577-.135zm-9.923.134v.593a1.127 1.127 0 0 1-1.065-1.125c0-.6.51-1.132 1.133-1.132.622 0 1.132.51 1.132 1.132 0 .083-.023.165-.038.24-.352.098-.57.15-.577.15l-.578.135zm5.295-5.655-3.727 2.978a2.7 2.7 0 0 0-.75-.353V5.22a7.33 7.33 0 0 1 4.477 2.152m-5.977-2.16v4.785c-.27.083-.525.196-.75.353L6.78 7.38a7.28 7.28 0 0 1 4.478-2.16zm-6.578 7.29c0-1.455.435-2.812 1.17-3.952l3.728 2.97a2.7 2.7 0 0 0-.18.81L4.74 13.395a7 7 0 0 1-.06-.893m3.435 6.203a7.36 7.36 0 0 1-3.045-3.847l4.657-1.065c.128.225.285.434.473.615l-2.085 4.29zm9.075 2.243c-.683-.218-3.548-1.456-3.743-6.743.84-.225 2.438-.69 3.743-1.29 1.305.6 2.895 1.065 3.742 1.29-.194 5.303-3.044 6.525-3.742 6.743m-.398-4.335 2.055-2.056 1.058 1.058L16.8 18.72l-2.078-2.047 1.05-1.065 1.013 1.005z"/></svg>