<svg xmlns="http://www.w3.org/2000/svg" viewBox="0 0 24 24"><path d="M12 15.135a2.636 2.636 0 0 0 2.633-2.632c0-.345-.075-.675-.195-.983l3.72-2.962c.097.15.202.292.292.457q.158.293.293.608l1.38-.593a8 8 0 0 0-.353-.727c-.128-.24-.285-.458-.427-.675l1.56-1.245-.938-1.17L18.42 6.45a8.77 8.77 0 0 0-5.655-2.707V1.748h-1.5v1.98c-2.22.187-4.2 1.2-5.648 2.73L4.065 5.22l-.938 1.17 1.545 1.238a8.77 8.77 0 0 0-1.485 4.897c0 .42.038.825.098 1.223l-1.935.442.337 1.463 1.928-.443a8.86 8.86 0 0 0 3.855 4.86l-.878 1.808 1.35.66.87-1.8a8.8 8.8 0 0 0 3.203.607v-1.5a7.4 7.4 0 0 1-2.543-.465l2.085-4.282q.227.045.466.045zm0-1.5c-.623 0-1.133-.51-1.133-1.132 0-.623.51-1.133 1.133-1.133s1.133.51 1.133 1.133c0 .622-.51 1.132-1.133 1.132m5.227-6.255L13.5 10.358a2.7 2.7 0 0 0-.75-.353v-4.77a7.3 7.3 0 0 1 4.477 2.145M11.25 5.22v4.785c-.27.083-.525.195-.75.353l-3.728-2.97a7.28 7.28 0 0 1 4.478-2.16zm-6.578 7.29c0-1.455.435-2.812 1.17-3.952l3.728 2.97a2.7 2.7 0 0 0-.18.81l-4.658 1.065a7 7 0 0 1-.06-.893m3.435 6.203a7.36 7.36 0 0 1-3.045-3.848L9.72 13.8c.127.225.285.435.473.615l-2.086 4.29zM21 14.16v-.78a2.854 2.854 0 0 0-2.85-2.85h-.3A2.854 2.854 0 0 0 15 13.38v.78c-.87.3-1.5 1.088-1.5 2.018v4.2c0 1.185 1.012 2.152 2.25 2.152h4.5c1.238 0 2.25-.967 2.25-2.152v-4.2c0-.93-.63-1.718-1.5-2.018m-4.5-.78c0-.742.608-1.35 1.35-1.35h.3c.742 0 1.35.608 1.35 1.35v.653h-3zm4.5 6.998c0 .36-.337.652-.75.652h-4.5c-.412 0-.75-.292-.75-.652v-4.2c0-.36.338-.653.75-.653h4.5c.413 0 .75.293.75.653zm-1.5-2.1c0 .825-.675 1.5-1.5 1.5s-1.5-.675-1.5-1.5.675-1.5 1.5-1.5 1.5.675 1.5 1.5"/></svg>