<svg xmlns="http://www.w3.org/2000/svg" viewBox="0 0 32 32"><path d="M16 20.18c1.93 0 3.51-1.57 3.51-3.51 0-.46-.1-.9-.26-1.31l4.96-3.95c.13.2.27.39.39.61l1.76-.95c-.17-.32-.38-.61-.57-.9l2.08-1.66-1.25-1.56-2.06 1.65a11.7 11.7 0 0 0-7.54-3.61V2.33h-2v2.64c-2.96.25-5.6 1.6-7.53 3.64L5.42 6.96 4.17 8.52l2.06 1.65a11.7 11.7 0 0 0-1.98 6.53c0 .56.05 1.1.13 1.63l-2.58.59.45 1.95 2.57-.59c.88 2.73 2.73 5.03 5.14 6.48l-1.17 2.41 1.8.88 1.16-2.4c1.33.52 2.76.81 4.27.81v-2c-1.19 0-2.33-.23-3.39-.62l2.78-5.71c.2.04.41.06.62.06Zm0-2c-.83 0-1.51-.68-1.51-1.51s.68-1.51 1.51-1.51 1.51.68 1.51 1.51-.68 1.51-1.51 1.51m6.97-8.34L18 13.81c-.3-.21-.64-.36-1-.47V6.98c2.28.23 4.39 1.25 5.97 2.86M15 6.96v6.38c-.36.11-.7.26-1 .47L9.03 9.85A9.7 9.7 0 0 1 15 6.97Zm-8.77 9.72c0-1.94.58-3.75 1.56-5.27l4.97 3.96c-.14.34-.21.7-.24 1.08l-6.21 1.42c-.05-.39-.08-.78-.08-1.19m4.58 8.27a9.8 9.8 0 0 1-4.06-5.13l6.21-1.42c.17.3.38.58.63.82l-2.78 5.72ZM28 18.88v-1.04c0-2.1-1.71-3.8-3.8-3.8h-.4c-2.09 0-3.8 1.7-3.8 3.8v1.04c-1.16.4-2 1.45-2 2.69v5.6c0 1.58 1.35 2.87 3 2.87h6c1.65 0 3-1.29 3-2.87v-5.6c0-1.24-.84-2.29-2-2.69m-6-1.04c0-.99.81-1.8 1.8-1.8h.4c.99 0 1.8.81 1.8 1.8v.87h-4zm6 9.33c0 .48-.45.87-1 .87h-6c-.55 0-1-.39-1-.87v-5.6c0-.48.45-.87 1-.87h6c.55 0 1 .39 1 .87zm-2-2.8c0 1.1-.9 2-2 2s-2-.9-2-2 .9-2 2-2 2 .9 2 2"/></svg>