<svg xmlns="http://www.w3.org/2000/svg" viewBox="0 0 24 24"><path d="m22.667 14.169-1.934-.444a8.62 8.62 0 0 0-1.392-6.119l1.547-1.231-.938-1.172-1.55 1.239a8.8 8.8 0 0 0-5.65-2.729v-1.98h-1.5v1.98A8.8 8.8 0 0 0 5.6 6.44L4.05 5.202l-.938 1.173 1.547 1.234a8.62 8.62 0 0 0-1.392 6.116l-1.934.442.334 1.461 1.926-.44a8.86 8.86 0 0 0 3.858 4.865l-.878 1.806 1.35.657.874-1.8a8.7 8.7 0 0 0 6.34.024l.86 1.788 1.35-.65-.862-1.79a8.86 8.86 0 0 0 3.919-4.9l1.927.439zm-3.339-1.667a7 7 0 0 1-.059.89l-4.657-1.064a2.6 2.6 0 0 0-.177-.809l3.725-2.97a7.3 7.3 0 0 1 1.168 3.953m-8.457 0a1.13 1.13 0 1 1 2.259.002 1.13 1.13 0 0 1-2.26-.002m6.356-5.126L13.5 10.35a2.6 2.6 0 0 0-.75-.353V5.213a7.3 7.3 0 0 1 4.477 2.163M11.25 5.213v4.782c-.267.077-.52.196-.75.353L6.773 7.376a7.3 7.3 0 0 1 4.477-2.163m-6.578 7.29c0-1.403.405-2.776 1.168-3.953l3.725 2.97a2.6 2.6 0 0 0-.177.81L4.73 13.393a7 7 0 0 1-.06-.89m.394 2.351 4.656-1.062q.193.343.476.616l-2.087 4.294a7.36 7.36 0 0 1-3.045-3.848M12 19.83a7.3 7.3 0 0 1-2.545-.465l2.082-4.28c.289.06.587.062.877.005l2.07 4.297A7.3 7.3 0 0 1 12 19.83m3.834-1.094-2.07-4.297a2.6 2.6 0 0 0 .514-.647l4.656 1.062a7.36 7.36 0 0 1-3.1 3.882"/></svg>