<svg xmlns="http://www.w3.org/2000/svg" viewBox="0 0 32 32"><path d="M29.15 17.19s-3.52-.85-5.78-1.98l-.45-.22-.45.22c-.9.45-2 .85-2.99 1.18-.03-.36-.1-.71-.23-1.03l4.98-3.97q.63.975 1.02 2.1l1.89-.65c-.33-.97-.79-1.87-1.34-2.7l2.06-1.64-1.25-1.56-2.06 1.65a11.8 11.8 0 0 0-7.54-3.64V2.32h-2v2.64c-2.96.25-5.6 1.6-7.53 3.64L5.41 6.95 4.16 8.51l2.06 1.65a11.7 11.7 0 0 0-1.98 6.53c0 .56.05 1.1.13 1.63l-2.58.59.45 1.95 2.57-.59c.88 2.73 2.73 5.03 5.14 6.48l-1.17 2.41 1.8.88 1.16-2.4c1.33.52 2.76.81 4.27.81v-2c-1.19 0-2.33-.23-3.39-.62l2.78-5.71c.2.04.41.06.62.06h.01c.79 8.47 6.45 9.72 6.71 9.77l.2.04.2-.04c.28-.06 6.8-1.48 6.8-11.78v-.79l-.77-.18Zm-13.23.18v.79c-.79-.04-1.42-.7-1.42-1.5s.68-1.51 1.51-1.51 1.51.68 1.51 1.51c0 .11-.03.22-.05.32-.47.13-.76.2-.77.2l-.77.18Zm7.06-7.54-4.97 3.97c-.3-.21-.64-.36-1-.47V6.96c2.3.24 4.4 1.27 5.97 2.87m-7.97-2.88v6.38c-.36.11-.7.26-1 .47L9.04 9.84a9.7 9.7 0 0 1 5.97-2.88Zm-8.77 9.72c0-1.94.58-3.75 1.56-5.27l4.97 3.96c-.14.34-.21.7-.24 1.08l-6.21 1.42c-.05-.39-.08-.78-.08-1.19m4.58 8.27a9.8 9.8 0 0 1-4.06-5.13l6.21-1.42c.17.3.38.58.63.82l-2.78 5.72Zm12.1 2.99c-.91-.29-4.73-1.94-4.99-8.99 1.12-.3 3.25-.92 4.99-1.72 1.74.8 3.86 1.42 4.99 1.72-.26 7.07-4.06 8.7-4.99 8.99m-.53-5.78 2.74-2.74 1.41 1.41-4.14 4.14-2.77-2.73 1.4-1.42 1.35 1.34Z"/></svg>