<svg xmlns="http://www.w3.org/2000/svg" viewBox="0 0 24 24"><g clip-path="url(#a)"><path d="m21.218 16.718-2.468 2.474V12h-1.5v7.192l-2.467-2.474-1.065 1.064L18 22.059l4.282-4.276z"/><path d="m15.413 13.455-2.708 1.373a1.52 1.52 0 0 1-1.402 0L4.598 11.43c-.06-.03-.09-.127-.09-.202s.03-.173.09-.203l2.37-1.207 3.652 1.852c.443.225.915.338 1.388.338s.945-.113 1.387-.338l3.653-1.852 2.37 1.207.682-1.335-1.395-.705 1.388-.705c.562-.285.915-.877.915-1.545s-.353-1.26-.915-1.545l-6.503-3.3a3.45 3.45 0 0 0-3.157 0L3.915 5.183C3.353 5.468 3 6.06 3 6.728s.353 1.26.915 1.545l1.388.705-1.395.705c-.563.285-.915.877-.915 1.545s.352 1.26.907 1.545l6.705 3.397a3 3 0 0 0 2.768 0l2.707-1.372-.675-1.335zM4.59 6.93c-.067-.037-.09-.135-.09-.202 0-.068.023-.173.09-.203l6.503-3.3c.285-.142.592-.217.9-.217.307 0 .615.075.9.217l6.502 3.3c.068.038.09.135.09.203 0 .067-.022.172-.09.202l-6.697 3.398c-.45.225-.968.225-1.41 0z"/></g><defs><clipPath id="a"><path d="M0 0h24v24H0z"/></clipPath></defs></svg>