<svg xmlns="http://www.w3.org/2000/svg" viewBox="0 0 24 24"><g clip-path="url(#a)"><path d="m18 1.942-4.283 4.275 1.066 1.065 2.467-2.475V12h1.5V4.807l2.468 2.475 1.064-1.065z"/><path d="m20.085 15.682-1.395-.705 1.387-.705-.675-1.335-6.697 3.398c-.45.225-.967.225-1.41 0l-6.697-3.398c-.068-.037-.09-.135-.09-.202 0-.068.022-.173.09-.203l6.502-3.3a1.97 1.97 0 0 1 1.808 0l2.625 1.328.675-1.335-2.625-1.328a3.45 3.45 0 0 0-3.158 0l-6.503 3.3c-.562.285-.915.878-.915 1.545 0 .668.353 1.26.915 1.545l1.388.705-1.395.705c-.562.285-.915.878-.915 1.545 0 .668.353 1.26.908 1.545l6.705 3.398a3 3 0 0 0 2.768 0l6.704-3.398c.563-.285.915-.877.915-1.545s-.352-1.26-.907-1.545zm-.683 1.748-6.705 3.397a1.54 1.54 0 0 1-1.402 0L4.59 17.43c-.06-.03-.09-.128-.09-.203s.03-.172.09-.202l2.37-1.208 3.653 1.853a3.05 3.05 0 0 0 1.387.337c.473 0 .945-.112 1.387-.337l3.653-1.853 2.37 1.208c.06.03.09.127.09.202s-.03.173-.09.203z"/></g><defs><clipPath id="a"><path d="M0 0h24v24H0z"/></clipPath></defs></svg>