<svg width="100%" height="100%" viewBox="0 0 24 24" version="1.1" xmlns="http://www.w3.org/2000/svg" xmlns:xlink="http://www.w3.org/1999/xlink" xml:space="preserve" style="fill-rule:evenodd;clip-rule:evenodd;stroke-linejoin:round;stroke-miterlimit:2;"><path d="M21.218,16.718L18.75,19.192L18.75,12L17.25,12L17.25,19.192L14.783,16.718L13.718,17.782L18,22.059L22.282,17.783L21.218,16.718Z" style="fill-rule:nonzero;"/><path d="M15.413,13.455L12.705,14.828C12.266,15.056 11.742,15.056 11.303,14.828L4.597,11.43C4.537,11.4 4.507,11.303 4.507,11.227C4.507,11.152 4.537,11.055 4.597,11.025L6.967,9.818L10.62,11.67C11.063,11.895 11.535,12.008 12.008,12.008C12.481,12.008 12.953,11.895 13.395,11.67L17.048,9.818L19.418,11.025L20.1,9.69L18.705,8.985L20.093,8.28C20.655,7.995 21.008,7.403 21.008,6.735C21.008,6.067 20.655,5.475 20.093,5.19L13.59,1.89C12.6,1.38 11.422,1.38 10.432,1.89L3.915,5.183C3.352,5.468 3,6.06 3,6.728C3,7.396 3.352,7.988 3.915,8.273L5.302,8.978L3.907,9.683C3.345,9.968 2.992,10.56 2.992,11.227C2.992,11.895 3.345,12.487 3.9,12.773L10.605,16.17C11.472,16.621 12.506,16.621 13.373,16.17L16.08,14.797L15.405,13.462L15.413,13.455ZM4.59,6.93C4.522,6.893 4.5,6.795 4.5,6.728C4.5,6.66 4.522,6.555 4.59,6.525L11.092,3.225C11.377,3.083 11.685,3.008 11.992,3.008C12.299,3.008 12.607,3.083 12.892,3.225L19.395,6.525C19.462,6.563 19.485,6.66 19.485,6.728C19.485,6.795 19.462,6.9 19.395,6.93L12.698,10.328C12.248,10.553 11.73,10.553 11.288,10.328L4.59,6.93Z" style="fill-rule:nonzero;"/></svg>