<svg xmlns="http://www.w3.org/2000/svg" xml:space="preserve" viewBox="0 0 32 32"><path d="M2 15h3v2H2zm25 0h3v2h-3zM15 3h2v3h-2zM4.293 5.707l1.414-1.414 3 3-1.414 1.415zm19 1.586 3-3 1.414 1.414-3 3zm-1.299 2.993a9.04 9.04 0 0 0-7.038-2.227c-4.052.458-7.366 3.723-7.881 7.763-.447 3.509 1.118 6.866 4.084 8.761.519.331.841.97.841 1.667V29h8v-2.791c0-.68.322-1.293.862-1.64A8.97 8.97 0 0 0 25 17a9.02 9.02 0 0 0-3.006-6.714M18 27h-4v-.75a4.2 4.2 0 0 0-.194-1.25h4.383A4 4 0 0 0 18 26.209zm1.781-4.113c-.054.035-.102.076-.154.113h-7.252c-.047-.033-.09-.071-.139-.103-2.309-1.475-3.525-4.088-3.177-6.822.399-3.138 2.974-5.673 6.121-6.029 2.025-.229 3.974.385 5.48 1.731A7 7 0 0 1 23 17a6.98 6.98 0 0 1-3.219 5.887"/><path d="M11 17h2c0-1.654 1.346-3 3-3v-2c-2.757 0-5 2.243-5 5"/></svg>