<svg xmlns="http://www.w3.org/2000/svg" viewBox="0 0 24 24"><g clip-path="url(#a)"><path fill-rule="evenodd" d="M11.25 2.25h1.5V4.5h-1.5zm-7.5 9H1.5v1.5h2.25zm18.75 0h-2.25v1.5h2.25zM4.28 3.22 3.22 4.28l2.25 2.25 1.06-1.06zm13.19 2.25 2.25-2.25 1.06 1.06-2.25 2.25zm-.974 2.245a6.78 6.78 0 0 0-5.279-1.67c-3.039.343-5.524 2.792-5.91 5.822-.336 2.631.838 5.149 3.062 6.57.39.248.631.728.631 1.25v2.063h6v-2.093c0-.51.242-.97.646-1.23a6.72 6.72 0 0 0 3.104-5.677c0-1.92-.822-3.755-2.254-5.035M13.5 20.25h-3v-.562c0-.328-.053-.641-.146-.938h3.288a3 3 0 0 0-.142.907zm1.266-3.034-.046.034H9.281q-.023-.015-.044-.034-.03-.023-.06-.043c-1.732-1.106-2.644-3.066-2.383-5.117.3-2.353 2.23-4.254 4.591-4.521a5.2 5.2 0 0 1 4.11 1.298 5.26 5.26 0 0 1 1.755 3.917 5.23 5.23 0 0 1-2.414 4.415zM9.75 12.75h-1.5A3.754 3.754 0 0 1 12 9v1.5c-1.24 0-2.25 1.01-2.25 2.25" clip-rule="evenodd"/></g><defs><clipPath id="a"><path d="M0 0h24v24H0z"/></clipPath></defs></svg>