<svg xmlns="http://www.w3.org/2000/svg" viewBox="0 0 24 24"><g clip-path="url(#a)"><path fill-rule="evenodd" d="M17.223 4.367c-1.468-1.425-3.394-2.166-5.453-2.113-4.023.12-7.284 3.495-7.27 7.524a7.45 7.45 0 0 0 2.924 5.906c.517.398.826 1.048.826 1.737V19.5h7.5v-2.079c0-.69.323-1.34.886-1.783A7.45 7.45 0 0 0 19.5 9.75a7.44 7.44 0 0 0-2.277-5.383M14.25 18h-4.5v-.579q-.001-.451-.106-.88h4.713q-.106.429-.107.88zm1.458-3.541a4 4 0 0 0-.594.58H8.899a3.5 3.5 0 0 0-.559-.544A5.95 5.95 0 0 1 6 9.772C5.989 6.55 8.597 3.85 11.815 3.753a5.97 5.97 0 0 1 4.362 1.69A5.95 5.95 0 0 1 18 9.75a5.96 5.96 0 0 1-2.292 4.709m.042 8.041V21h-7.5v1.5zM9 9.75H7.5c0-2.482 2.018-4.5 4.5-4.5v1.5c-1.654 0-3 1.345-3 3" clip-rule="evenodd"/></g><defs><clipPath id="a"><path d="M0 0h24v24H0z"/></clipPath></defs></svg>