<svg xmlns="http://www.w3.org/2000/svg" viewBox="0 0 24 24"><path d="M16.5 5.25v1.5h1.94l-3.59 3.59a3.74 3.74 0 0 0-2.1-1.265V4.114l1.291 1.291 1.061-1.06L12 1.243 8.898 4.345l1.06 1.06 1.292-1.291v4.961a3.74 3.74 0 0 0-2.1 1.265L5.56 6.75H7.5v-1.5H3v4.5h1.5V7.81l3.911 3.912c-.102.333-.156.68-.161 1.028a3.76 3.76 0 0 0 3 3.675v1.714A2.25 2.25 0 0 0 9.888 19.5H4.5V21h5.388a2.236 2.236 0 0 0 4.224 0H19.5v-1.5h-5.388a2.25 2.25 0 0 0-1.362-1.362v-1.713a3.76 3.76 0 0 0 3-3.675 3.7 3.7 0 0 0-.161-1.028L19.5 7.81v1.94H21v-4.5zM12 21a.75.75 0 1 1 0-1.5.75.75 0 0 1 0 1.5m0-6a2.25 2.25 0 1 1 0-4.5 2.25 2.25 0 0 1 0 4.5"/></svg>