<svg xmlns="http://www.w3.org/2000/svg" width="24" height="24"><g clip-path="url(#a)"><path d="M15 6H9c-4.132 0-7.5 2.985-7.5 6.66 0 2.948 2.693 5.34 6 5.34h9c3.308 0 6-2.4 6-5.34C22.5 8.992 19.133 6 15 6m1.5 10.5h-9c-2.482 0-4.5-1.725-4.5-3.84 0-2.603 2.25-4.748 5.168-5.1l-1.98 3.428 1.297.75 2.445-4.23h2.385l-2.01 3.48 1.297.75 2.445-4.23h.945c.465 0 .923.052 1.358.135l-1.928 3.345 1.298.75 2.092-3.623c1.89.87 3.18 2.58 3.18 4.553 0 2.122-2.017 3.84-4.5 3.84z"/></g><defs><clipPath id="a"><path d="M0 0h24v24H0z"/></clipPath></defs></svg>