<svg xmlns="http://www.w3.org/2000/svg" xml:space="preserve" viewBox="0 0 32 32"><path d="M7.962 11.64a4.375 4.375 0 1 0 8.75 0 4.375 4.375 0 0 0-8.75 0m6.75 0c0 1.31-1.065 2.375-2.375 2.375S9.962 12.95 9.962 11.64s1.065-2.375 2.375-2.375 2.375 1.065 2.375 2.375"/><path d="M12.472 27.108c-1.999-2.04-7.76-8.512-7.76-15.335 0-4.278 3.48-7.759 7.759-7.759a7.8 7.8 0 0 1 7.006 4.411l1.805-.863a9.82 9.82 0 0 0-8.811-5.548c-5.381 0-9.759 4.378-9.759 9.759 0 9.105 8.715 17.137 9.086 17.475l.673.611.673-.611c.308-.28 7.568-6.955 8.883-15.033l-1.975-.321c-.978 6.009-5.789 11.388-7.58 13.214"/><path d="M30 10h-4V6h-2v4h-4v2h4v4h2v-4h4z"/></svg>