<svg xmlns="http://www.w3.org/2000/svg" viewBox="0 0 24 24"><path fill-rule="evenodd" d="M9.354 20.331c-1.5-1.53-5.82-6.384-5.82-11.501a5.822 5.822 0 0 1 11.074-2.511l1.353-.648A7.322 7.322 0 0 0 2.034 8.83c0 6.825 6.536 12.853 6.814 13.106l.505.458.505-.458c.23-.21 5.676-5.216 6.662-11.275l-1.481-.24c-.734 4.504-4.342 8.54-5.685 9.91M5.97 8.73a3.281 3.281 0 1 0 6.563 0 3.281 3.281 0 0 0-6.563 0m5.063 0a1.78 1.78 0 1 1-3.561 0 1.78 1.78 0 0 1 3.56 0M22.5 7.5H15V9h7.5z" clip-rule="evenodd"/></svg>