<svg xmlns="http://www.w3.org/2000/svg" xml:space="preserve" viewBox="0 0 32 32"><path d="M12.386 5.986a3.5 3.5 0 0 0-.006 7h.006a3.5 3.5 0 0 0 .006-7zm1.5 3.503a1.5 1.5 0 1 1-1.5-1.503h.003a1.5 1.5 0 0 1 1.497 1.503m6.122 2.509.004-2 10 .02-.005 2z"/><path d="M18.868 17.849c-.804-1.681-2.506-2.856-4.49-2.859l-4-.006h-.009a4.97 4.97 0 0 0-3.53 1.458 5 5 0 0 0-.855 1.184c-.761-1.851-1.272-3.834-1.272-5.852 0-4.278 3.48-7.759 7.759-7.759a7.8 7.8 0 0 1 7.006 4.411l1.805-.863a9.82 9.82 0 0 0-8.811-5.548c-5.381 0-9.759 4.378-9.759 9.759 0 9.105 8.715 17.137 9.086 17.475l.673.611.673-.611c.308-.28 7.568-6.955 8.883-15.033l-1.975-.321c-.222 1.362-.647 2.689-1.184 3.954m-6.396 9.259c-1.095-1.117-3.316-3.57-5.103-6.676l.001-.454a2.98 2.98 0 0 1 .882-2.121 3 3 0 0 1 2.118-.875h.005l4 .006a2.97 2.97 0 0 1 2.12.883c.565.567.876 1.321.875 2.122l-.002.797c-1.749 2.937-3.843 5.245-4.896 6.318"/></svg>