<svg xmlns="http://www.w3.org/2000/svg" xml:space="preserve" style="fill-rule:evenodd;clip-rule:evenodd;stroke-linejoin:round;stroke-miterlimit:2" viewBox="0 0 24 24"><path d="M7.157 14.202c-.816-1.7-1.393-3.58-1.393-5.483.004-3.13 2.578-5.704 5.708-5.708a5.67 5.67 0 0 1 4.57 2.307l1.07-1.07a7.17 7.17 0 0 0-5.64-2.735h-.002c-3.952 0-7.204 3.252-7.204 7.204v.003c0 2.337.757 4.607 1.775 6.6zm7.079-7.078a2.975 2.975 0 0 0-2.764-1.866h-.001a3.01 3.01 0 0 0-2.995 2.995v.002c0 1.25.771 2.33 1.865 2.764l1.273-1.274a1.51 1.51 0 0 1-1.64-1.49c0-.824.674-1.498 1.498-1.498a1.5 1.5 0 0 1 1.491 1.64zm5.85-3.738 1.056 1.056-2.651 2.652c.123.533.186 1.078.187 1.625 0 7.214-7.206 13.768-7.206 13.768s-1.97-1.79-3.843-4.532L3.914 21.67l-1.056-1.056zM11.472 20.36c1.873-2.015 5.708-6.742 5.708-11.64a4 4 0 0 0-.008-.308l-8.464 8.464a28 28 0 0 0 2.764 3.484"/></svg>