<svg width="100%" height="100%" viewBox="0 0 24 24" version="1.1" xmlns="http://www.w3.org/2000/svg" xmlns:xlink="http://www.w3.org/1999/xlink" xml:space="preserve" style="fill-rule:evenodd;clip-rule:evenodd;stroke-linejoin:round;stroke-miterlimit:2;"><g transform="matrix(1,0,0,1,-0.648,3.33546e-06)"><path d="M7.805,14.202C6.989,12.502 6.412,10.622 6.412,8.719C6.416,5.589 8.99,3.015 12.12,3.011C13.922,3.009 15.621,3.867 16.69,5.318L17.76,4.248C16.401,2.519 14.319,1.51 12.12,1.513L12.118,1.513C8.166,1.513 4.914,4.765 4.914,8.717L4.914,8.72C4.914,11.057 5.671,13.327 6.689,15.32L7.805,14.202ZM14.884,7.124C14.433,5.997 13.334,5.255 12.12,5.258L12.119,5.258C10.476,5.258 9.124,6.61 9.124,8.253L9.124,8.255C9.124,9.505 9.895,10.585 10.989,11.019L12.262,9.745C12.218,9.752 12.171,9.754 12.12,9.753C11.299,9.75 10.625,9.076 10.622,8.255C10.622,7.431 11.296,6.757 12.12,6.757C12.944,6.757 13.618,7.431 13.618,8.255C13.619,8.306 13.617,8.353 13.611,8.397L14.884,7.124ZM20.734,3.386L21.79,4.442L19.139,7.094C19.262,7.627 19.325,8.172 19.326,8.719C19.326,15.933 12.12,22.487 12.12,22.487C12.12,22.487 10.15,20.697 8.277,17.955L4.562,21.67L3.506,20.614L20.734,3.386ZM12.12,20.36C13.993,18.345 17.828,13.618 17.828,8.72C17.829,8.613 17.827,8.511 17.82,8.412L9.356,16.876C10.184,18.109 11.108,19.274 12.12,20.36"/></g></svg>