<svg xmlns="http://www.w3.org/2000/svg" viewBox="0 0 24 24"><path fill-rule="evenodd" d="M10.333 9.506a3 3 0 1 1 3.334 4.988 3 3 0 0 1-3.334-4.988m.834 3.741a1.5 1.5 0 1 0 1.667-2.495 1.5 1.5 0 0 0-1.667 2.495" clip-rule="evenodd"/><path fill-rule="evenodd" d="M20.962 11.25H22.5v1.5h-1.538a9.005 9.005 0 0 1-8.212 8.212V22.5h-1.5v-1.538a9.005 9.005 0 0 1-8.212-8.212H1.5v-1.5h1.538a9.005 9.005 0 0 1 8.212-8.212V1.5h1.5v1.538a9.005 9.005 0 0 1 8.212 8.212M12.75 18v1.462a7.51 7.51 0 0 0 6.712-6.712H18v-1.5h1.462a7.51 7.51 0 0 0-6.712-6.712V6h-1.5V4.538a7.51 7.51 0 0 0-6.712 6.712H6v1.5H4.538a7.51 7.51 0 0 0 6.712 6.712V18z" clip-rule="evenodd"/></svg>