<svg xmlns="http://www.w3.org/2000/svg" viewBox="0 0 24 24"><path fill-rule="evenodd" d="M12.777 11.828c.596.38 1.072.92 1.374 1.559.413-.949.711-1.943.888-2.962l1.481.237c-.986 6.059-6.431 11.065-6.662 11.275l-.505.458-.505-.458c-.278-.254-6.814-6.282-6.814-13.107A7.322 7.322 0 0 1 15.96 5.672l-1.353.647A5.822 5.822 0 0 0 3.534 8.83c.03 1.512.353 3.002.954 4.39a3.65 3.65 0 0 1 3.289-1.982h.006l3 .005a3.74 3.74 0 0 1 1.994.585m-7.251 3.496a26 26 0 0 0 3.825 5.007h.003a26.2 26.2 0 0 0 3.672-4.743v-.6a2.25 2.25 0 0 0-2.246-2.25l-3-.005h-.004a2.25 2.25 0 0 0-2.25 2.25z" clip-rule="evenodd"/><path fill-rule="evenodd" d="M9.29 4.49a2.625 2.625 0 1 0-.005 5.25h.004a2.625 2.625 0 0 0 .005-5.25zm1.124 2.627a1.125 1.125 0 1 1-2.249-.005 1.125 1.125 0 0 1 2.25.005" clip-rule="evenodd"/><path d="m15.006 8.998.003-1.5 7.5.016-.003 1.5z"/></svg>