<svg xmlns="http://www.w3.org/2000/svg" viewBox="0 0 24 24"><path fill-rule="evenodd" d="M12.777 11.828c.596.38 1.072.92 1.374 1.559.413-.949.711-1.943.888-2.962l1.481.237c-.986 6.059-6.43 11.065-6.662 11.275l-.505.458-.504-.458c-.279-.254-6.815-6.282-6.815-13.107a7.322 7.322 0 0 1 13.928-3.158l-1.354.647A5.822 5.822 0 0 0 3.534 8.83c.03 1.512.354 3.002.954 4.39a3.65 3.65 0 0 1 3.289-1.982h.007l3 .005a3.74 3.74 0 0 1 1.993.585m-7.25 3.496a26 26 0 0 0 3.824 5.007h.003a26.2 26.2 0 0 0 3.672-4.743v-.6a2.25 2.25 0 0 0-2.246-2.25l-3-.005h-.004a2.25 2.25 0 0 0-2.25 2.25zM9.29 4.489a2.625 2.625 0 1 0-.005 5.25h.005a2.625 2.625 0 0 0 .004-5.25zm1.125 2.628a1.125 1.125 0 1 1-2.251-.005 1.125 1.125 0 0 1 2.25.005m0 0v-.003zm4.591 1.881.003-1.5 7.5.016-.003 1.5z" clip-rule="evenodd"/></svg>