<svg xmlns="http://www.w3.org/2000/svg" width="25" height="24"><path fill-rule="evenodd" d="M7.805 14.202c-.816-1.7-1.393-3.58-1.393-5.483a5.716 5.716 0 0 1 5.708-5.708 5.67 5.67 0 0 1 4.57 2.307l1.07-1.07a7.16 7.16 0 0 0-5.64-2.735A7.204 7.204 0 0 0 4.914 8.72c0 2.337.757 4.607 1.775 6.6zm7.079-7.078a2.97 2.97 0 0 0-2.764-1.866 2.995 2.995 0 0 0-2.996 2.997c0 1.25.771 2.33 1.865 2.764l1.273-1.274q-.066.01-.142.008a1.503 1.503 0 0 1-1.498-1.498c0-.824.674-1.498 1.498-1.498s1.498.674 1.498 1.498q.002.076-.007.142zm5.85-3.738 1.056 1.056-2.651 2.652a7.3 7.3 0 0 1 .187 1.625c0 7.214-7.206 13.768-7.206 13.768s-1.97-1.79-3.843-4.532L4.562 21.67l-1.056-1.056 3.94-3.94 1.093-1.093 8.907-8.907 1.138-1.138zM12.12 20.36c1.873-2.015 5.708-6.742 5.708-11.64q.002-.16-.008-.308l-8.464 8.464a28 28 0 0 0 2.764 3.484" clip-rule="evenodd"/></svg>