<svg xmlns="http://www.w3.org/2000/svg" viewBox="0 0 24 24"><g clip-path="url(#a)"><path fill-rule="evenodd" d="M19.95 11.793a3.77 3.77 0 0 1 1.775 2.777 3.733 3.733 0 0 1-4.245 4.132L13.681 22.5H10.5V21h-6c-1.24 0-2.25-1.01-2.25-2.25V10.5c0-1.24 1.01-2.25 2.25-2.25h.75V5.625A4.13 4.13 0 0 1 9.375 1.5 4.13 4.13 0 0 1 13.5 5.625V8.25h.75c1.24 0 2.25 1.01 2.25 2.25v1.058a3.72 3.72 0 0 1 3.45.235M9.376 3A2.63 2.63 0 0 0 6.75 5.625V8.25H12V5.625A2.63 2.63 0 0 0 9.375 3M3.75 18.75c0 .414.336.75.75.75h6v-.181l3.797-3.8A3.72 3.72 0 0 1 15 12.77V10.5a.75.75 0 0 0-.75-.75H4.5a.75.75 0 0 0-.75.75zm13.675-1.587a2.22 2.22 0 0 0 2.166-.572 2.255 2.255 0 0 0-.433-3.525 2.24 2.24 0 0 0-2.293-.014c-.886.538-1.29 1.529-1.027 2.522l.11.418L12 19.939V21h1.06l3.948-3.947zM12 14.625a2.625 2.625 0 1 0-5.25 0 2.625 2.625 0 0 0 5.25 0M9.375 15.75c-.62 0-1.125-.505-1.125-1.125S8.755 13.5 9.375 13.5s1.125.505 1.125 1.125-.505 1.125-1.125 1.125m8.095-1.28a.75.75 0 1 0 1.058 1.06.75.75 0 0 0-1.058-1.06" clip-rule="evenodd"/></g><defs><clipPath id="a"><path d="M0 0h24v24H0z"/></clipPath></defs></svg>