<svg xmlns="http://www.w3.org/2000/svg" viewBox="0 0 24 24"><path fill-rule="evenodd" d="M16.5 6v3a3 3 0 0 1 3 3v7.5a3 3 0 0 1-3 3h-9a3 3 0 0 1-3-3V12a3 3 0 0 1 3-3V6a4.5 4.5 0 0 1 9 0M9.879 3.879A3 3 0 0 0 9 6v3h6V6a3 3 0 0 0-5.121-2.121M17.56 20.56A1.5 1.5 0 0 0 18 19.5V12a1.5 1.5 0 0 0-1.5-1.5h-9A1.5 1.5 0 0 0 6 12v7.5A1.5 1.5 0 0 0 7.5 21h9a1.5 1.5 0 0 0 1.06-.44m-7.228-7.305a3 3 0 1 1 3.333 4.987 3 3 0 0 1-3.333-4.987m.834 3.741a1.5 1.5 0 1 0 1.667-2.495 1.5 1.5 0 0 0-1.667 2.495" clip-rule="evenodd"/></svg>