<svg xmlns="http://www.w3.org/2000/svg" xml:space="preserve" viewBox="0 0 32 32"><path d="M16 19.5a3.5 3.5 0 1 0-7 0 3.5 3.5 0 0 0 7 0M12.5 21c-.827 0-1.5-.673-1.5-1.5s.673-1.5 1.5-1.5 1.5.673 1.5 1.5-.673 1.5-1.5 1.5m10.793-1.707a.999.999 0 1 0 1.414 1.414.999.999 0 1 0-1.414-1.414"/><path d="M28.967 19.427c-.175-1.525-1.037-2.875-2.366-3.703A4.96 4.96 0 0 0 22 15.411V14c0-1.654-1.346-3-3-3h-1V7.5C18 4.467 15.532 2 12.5 2S7 4.467 7 7.5V11H6c-1.654 0-3 1.346-3 3v11c0 1.654 1.346 3 3 3h8v2h4.242l5.065-5.064a5.01 5.01 0 0 0 4.228-1.4 4.98 4.98 0 0 0 1.432-4.109M9 7.5C9 5.57 10.57 4 12.5 4S16 5.57 16 7.5V11H9zM6 26a1 1 0 0 1-1-1V14c0-.551.448-1 1-1h13c.552 0 1 .449 1 1v3.027a4.96 4.96 0 0 0-.937 3.666L14 25.758V26zm20.121-3.879c-.754.756-1.832 1.042-2.888.763l-.556-.146L17.414 28H16v-1.414l5.264-5.264-.147-.557c-.351-1.324.188-2.645 1.37-3.362a2.98 2.98 0 0 1 3.057.018c.82.511 1.33 1.305 1.438 2.234a3 3 0 0 1-.861 2.466"/></svg>