<svg xmlns="http://www.w3.org/2000/svg" viewBox="0 0 24 24"><path d="M22.448 3.6c0-.57-.218-1.102-.608-1.507a2.06 2.06 0 0 0-1.492-.638h-10.8c-1.155.008-2.093.968-2.1 2.145v1.605H8.94V3.6c0-.352.278-.637.608-.637h10.8v-.008c.157 0 .3.06.412.18.12.12.188.285.188.465v16.717c.007.353-.263.645-.593.645H9.548c-.33 0-.6-.285-.6-.637v-1.613H7.44v1.613c.008 1.178.953 2.13 2.108 2.13h10.807c1.155 0 2.1-.96 2.1-2.145V3.6z"/><path d="m10.605 15.818 1.057 1.057 4.905-4.905-4.905-4.905-1.057 1.065 3.098 3.09H1.635v1.5h12.068z"/></svg>