<svg xmlns="http://www.w3.org/2000/svg" viewBox="0 0 24 24"><path fill-rule="evenodd" d="M7.29 2.604A10.4 10.4 0 0 1 12 1.5a10.5 10.5 0 1 1-8.4 16.805l1.2-.9A8.93 8.93 0 0 0 12 21 9 9 0 1 0 4.787 6.617l-1.2-.9A10.4 10.4 0 0 1 7.29 2.604m3.74 14.426-1.06-1.06 3.22-3.22H1.5v-1.5h11.69L9.97 8.03l1.06-1.06L16.06 12z" clip-rule="evenodd"/></svg>.285-.6-.638v-1.613H7.47v1.613c.008 1.177.952 2.13 2.108 2.13H20.37c1.155 0 2.1-.96 2.1-2.145V3.63z"/><path d="M4.41 12.735h12.06v-1.5H4.41l3.09-3.09L6.443 7.08l-4.905 4.905 4.905 4.905L7.5 15.832z"/></g><defs><clipPath id="a"><path d="M0 0h24v24H0z"/></clipPath></defs></svg>