<svg xmlns="http://www.w3.org/2000/svg" viewBox="0 0 24 24"><path d="M7.29 2.604A10.4 10.4 0 0 1 12 1.5a10.5 10.5 0 1 1-8.4 16.805l1.2-.9A8.93 8.93 0 0 0 12 21 9 9 0 1 0 4.787 6.617l-1.2-.9A10.4 10.4 0 0 1 7.29 2.604"/><path d="m11.03 17.03-1.06-1.06 3.22-3.22H1.5v-1.5h11.69L9.97 8.03l1.06-1.06L16.06 12z"/></svg>.33 0-.607.285-.607.637v1.605H7.477V3.63c.008-1.177.945-2.137 2.1-2.145h10.786a2.06 2.06 0 0 1 1.492.638"/><path d="M16.47 12.735H4.41l3.09 3.098-1.058 1.057-4.905-4.905L6.442 7.08 7.5 8.145l-3.09 3.09h12.06z"/></svg>