<svg xmlns="http://www.w3.org/2000/svg1" viewBox="0 0 24 24"><path d="M21.855 2.123c.39.404.607.937.607 1.507h.008v16.71c0 1.185-.945 2.145-2.1 2.145H9.577c-1.155 0-2.1-.953-2.107-2.13v-1.613h1.507v1.613c0 .352.27.637.6.637H20.37c.337 0 .6-.292.592-.645V3.63a.65.65 0 0 0-.187-.465.55.55 0 0 0-.412-.18v.008H9.577c-.33 0-.607.285-.607.637v1.605H7.477V3.63c.008-1.177.945-2.137 2.1-2.145h10.786a2.06 2.06 0 0 1 1.492.638"/><path d="M16.47 12.735H4.41l3.09 3.098-1.058 1.057-4.905-4.905L6.442 7.08 7.5 8.145l-3.09 3.09h12.06z"/></svg>