<svg xmlns="http://www.w3.org/2000/svg" viewBox="0 0 24 24"><path d="M9 10.5H7.5V18H9zm2.25 0h1.5V18h-1.5zm5.25 0H15V18h1.5z"/><path fill-rule="evenodd" d="M15 7.5h2.25a2.25 2.25 0 0 1 2.25 2.25v9A2.25 2.25 0 0 1 17.25 21h-.75v1.5H15V21H9v1.5H7.5V21h-.75a2.25 2.25 0 0 1-2.25-2.25v-9A2.25 2.25 0 0 1 6.75 7.5H9V3H7.5V1.5h9V3H15zM13.5 3h-3v4.5h3zm4.28 16.28a.75.75 0 0 0 .22-.53v-9a.75.75 0 0 0-.75-.75H6.75a.75.75 0 0 0-.75.75v9a.75.75 0 0 0 .75.75h10.5a.75.75 0 0 0 .53-.22" clip-rule="evenodd"/></svg>