<svg width="100%" height="100%" viewBox="0 0 24 24" version="1.1" xmlns="http://www.w3.org/2000/svg" xmlns:xlink="http://www.w3.org/1999/xlink" xml:space="preserve" style="fill-rule:evenodd;clip-rule:evenodd;stroke-linejoin:round;stroke-miterlimit:2;"><path d="M21,3L15,3L15,12C15,13.646 13.646,15 12,15C10.354,15 9,13.646 9,12L9,3L3,3L3,12C3,16.965 7.035,21 12,21C16.965,21 21,16.965 21,12L21,3ZM19.5,4.5L19.5,6.75L16.5,6.75L16.5,4.5L19.5,4.5ZM7.5,4.5L7.5,6.75L4.5,6.75L4.5,4.5L7.5,4.5ZM12,19.5C7.868,19.5 4.5,16.133 4.5,12L4.5,8.25L7.5,8.25L7.5,12C7.5,14.483 9.518,16.5 12,16.5C14.482,16.5 16.5,14.483 16.5,12L16.5,8.25L19.5,8.25L19.5,12C19.5,16.133 16.133,19.5 12,19.5" style="fill-rule:nonzero;"/></svg>