<svg xmlns="http://www.w3.org/2000/svg" xml:space="preserve" viewBox="0 0 32 32"><path d="M13 11h6v2h-6zm0 4h6v2h-6z"/><path d="M24 8.586V7h-1.586l-2.879-2.878c-.943-.945-2.199-1.465-3.535-1.465s-2.592.521-3.535 1.465L9.586 7H8v1.586l-4 4V30h24V12.586zM25.586 13 24 14.586v-3.172zM10 9h12v7.586l-3.879 3.879a3 3 0 0 1-4.242 0L10 16.586zm3.879-3.464c1.133-1.134 3.109-1.134 4.242 0L19.586 7h-7.171zM8 14.586 6.414 13 8 11.414zM6 28V15.414l6.465 6.465c.975.975 2.255 1.462 3.535 1.462s2.561-.487 3.535-1.462L26 15.414V28z"/></svg>