<svg xmlns="http://www.w3.org/2000/svg" viewBox="0 0 24 24"><path d="m8.558 3.668 2.212 2.347h-1.5v1.493c-.015 2.28-.847 4.222-2.25 5.602.728-1.89.87-3.907.87-5.595v-1.5H6.285zM8.573 1.5 2.73 7.515h3.653c0 4.238-1.095 7.665-4.92 9.293 5.46-.105 9.27-4.095 9.292-9.293h3.487zm13.935 9.06H11.685a10 10 0 0 1-.473 1.5h8.73l-3.802 3.81c-.27.263-.615.397-.96.397s-.69-.134-.96-.397l-3.248-3.255c-.217.48-.464.945-.75 1.38l2.94 2.932a2.85 2.85 0 0 0 2.018.833 2.85 2.85 0 0 0 2.018-.833l3.81-3.802v6.383H9.353V15.15c-.45.532-.953 1.02-1.5 1.455v4.403h14.655z"/></svg>