<svg xmlns="http://www.w3.org/2000/svg" width="24" height="24"><path fill-rule="evenodd" d="M18 5.25v1.19l3 3V22.5H3V9.44l3-3V5.25h1.19l2.159-2.159a3.75 3.75 0 0 1 5.302 0l2.16 2.159zm0 5.69 1.19-1.19L18 8.56zm-1.5 1.5V6.75h-9v5.69l2.91 2.909a2.25 2.25 0 0 0 3.18 0zM12 3.514c-.593 0-1.162.229-1.59.638L9.31 5.25h5.379l-1.1-1.098A2.3 2.3 0 0 0 12 3.514M4.81 9.75 6 10.94V8.56zm-.31 1.81V21h15v-9.44l-4.849 4.85a3.75 3.75 0 0 1-5.302 0zm5.25-3.31h4.5v1.5h-4.5zm0 4.5v-1.5h4.5v1.5z" clip-rule="evenodd"/></svg>