<svg xmlns="http://www.w3.org/2000/svg" viewBox="0 0 24 24"><path fill-rule="evenodd" d="M14.25 5.836 9.75 4.71v9.77l1.008.376-.527 1.405-1.245-.467L1.5 18.29V5.46l7.47-2.49 6.04 1.509 7.49-1.664V10.5H21V4.685l-5.25 1.166V9.75h-1.5zM3 16.209l5.25-1.75V4.792L3 6.541z" clip-rule="evenodd"/><path d="M16.514 12.763v1.5h1.5v-1.5zm0 6V15.75h1.5v3.013z"/><path fill-rule="evenodd" d="M12.014 15.763a5.257 5.257 0 0 1 5.25-5.25 5.257 5.257 0 0 1 5.25 5.25 5.257 5.257 0 0 1-5.25 5.25 5.257 5.257 0 0 1-5.25-5.25m1.5 0a3.754 3.754 0 0 0 3.75 3.75 3.755 3.755 0 0 0 3.75-3.75 3.754 3.754 0 0 0-3.75-3.75 3.754 3.754 0 0 0-3.75 3.75" clip-rule="evenodd"/></svg>