<svg xmlns="http://www.w3.org/2000/svg" xml:space="preserve" style="fill-rule:evenodd;clip-rule:evenodd;stroke-linejoin:round;stroke-miterlimit:2" viewBox="0 0 24 24"><path d="M13.498 7.51a3.765 3.765 0 0 1 3.746-3.746h5.243v3.738c0 1.184-.562 2.3-1.498 2.996v2.997c0 1.108-.27 2.187-.787 3.153.51.652.787 1.453.787 2.285v1.303H10.502c-3.715 0-6.742-3.026-6.742-6.741v-1.438a.76.76 0 0 0-.337-.63l-.921-.622a2.22 2.22 0 0 1-.989-1.857V5.255H3.88c.6 0 1.161.232 1.588.66l.532.53.524-.524c.427-.427.997-.66 1.596-.66h2.374v3.694c0 .744-.371 1.442-.988 1.858l-.922.622a.73.73 0 0 0-.33.569h2.997a.76.76 0 0 0 .6-.3l1.497-2a.74.74 0 0 0 .15-.449zm6.367 1.94a2.23 2.23 0 0 0 1.124-1.94V5.24h-3.745a2.264 2.264 0 0 0-2.248 2.247v1.745c0 .502-.157.967-.457 1.356l-1.49 1.993a2.28 2.28 0 0 1-1.798.899H8.202a1.45 1.45 0 0 1-1.445-1.386 2.24 2.24 0 0 1 1.003-1.925l.914-.614a.73.73 0 0 0 .33-.615V6.746h-.877a.77.77 0 0 0-.539.224L6 8.558 4.412 6.97a.74.74 0 0 0-.532-.217h-.876v2.195c0 .247.127.48.33.614l.92.622c.622.42.997 1.116.997 1.873v1.438c.004 2.875 2.368 5.239 5.243 5.243h4.495L13.64 16.94l1.199-.898 2.022 2.696h2.615a2.28 2.28 0 0 0-.712-1.446A2.5 2.5 0 0 0 18.39 17l-.824-.487a3.78 3.78 0 0 1-1.82-3.213v-.554h1.498v.554c0 .786.419 1.52 1.093 1.932l.697.413c.3-.667.457-1.394.457-2.143V9.667zm-3.37-2.69h1.497v1.499h-1.498z"/></svg>