<svg xmlns="http://www.w3.org/2000/svg" viewBox="0 0 24 24"><path d="M16.5 7.5H18V9h-1.5z"/><path fill-rule="evenodd" d="M13.5 8.25a3.754 3.754 0 0 1 3.75-3.75h5.25v3.75a3.76 3.76 0 0 1-1.5 2.998v3.002c0 1.11-.27 2.19-.785 3.159.505.651.785 1.457.785 2.286V21H10.5a6.757 6.757 0 0 1-6.75-6.75v-1.44a.76.76 0 0 0-.336-.63l-.922-.62A2.24 2.24 0 0 1 1.5 9.698V6h2.378c.602 0 1.167.234 1.593.66L6 7.19l.527-.528A2.25 2.25 0 0 1 8.126 6H10.5v3.698c0 .749-.37 1.445-.993 1.862l-.922.62a.74.74 0 0 0-.333.57h2.998a.76.76 0 0 0 .603-.304l1.496-1.998a.73.73 0 0 0 .151-.45zm6.377 1.945A2.25 2.25 0 0 0 21 8.25V6h-3.75C16.01 6 15 7.01 15 8.25v1.748c0 .499-.158.968-.456 1.356L13.05 13.35c-.43.566-1.101.9-1.8.9H8.198c-.778 0-1.428-.623-1.447-1.389a2.23 2.23 0 0 1 1.003-1.929l.918-.617A.75.75 0 0 0 9 9.699V7.5h-.874a.75.75 0 0 0-.538.223L6 9.31 4.41 7.72a.75.75 0 0 0-.533-.22H3v2.198a.74.74 0 0 0 .33.617l.921.62c.625.42.999 1.122.999 1.876v1.439a5.257 5.257 0 0 0 5.25 5.25H15l-1.35-1.8 1.2-.9 2.025 2.7h2.617a2.24 2.24 0 0 0-.71-1.445l-.007-.006a2.4 2.4 0 0 0-.377-.291l-.823-.485a3.79 3.79 0 0 1-1.825-3.218V13.5h1.5v.555c0 .78.42 1.522 1.095 1.931l.694.41c.301-.67.461-1.4.461-2.146v-3.84z" clip-rule="evenodd"/></svg>