<svg width="100%" height="100%" viewBox="0 0 24 24" version="1.1" xmlns="http://www.w3.org/2000/svg" xmlns:xlink="http://www.w3.org/1999/xlink" xml:space="preserve" style="fill-rule:evenodd;clip-rule:evenodd;stroke-linejoin:round;stroke-miterlimit:2;"><g transform="matrix(1,0,0,1,9.00407e-06,-0.745)"><path d="M13.498,8.255C13.499,6.2 15.189,4.51 17.244,4.509L22.487,4.509L22.487,8.247C22.487,9.431 21.925,10.547 20.989,11.243L20.989,14.24C20.989,15.348 20.719,16.427 20.202,17.393C20.712,18.045 20.989,18.846 20.989,19.678L20.989,20.981L10.502,20.981C6.787,20.981 3.76,17.955 3.76,14.24L3.76,12.802C3.76,12.549 3.633,12.313 3.423,12.172L2.502,11.55C1.882,11.137 1.51,10.438 1.513,9.693L1.513,6L3.88,6C4.48,6 5.041,6.232 5.468,6.66L6,7.19L6.524,6.666C6.951,6.239 7.521,6.006 8.12,6.006L10.494,6.006L10.494,9.7C10.494,10.444 10.123,11.142 9.506,11.558L8.584,12.18C8.39,12.306 8.267,12.518 8.254,12.749L11.251,12.749C11.487,12.747 11.708,12.636 11.851,12.449L13.348,10.449C13.446,10.32 13.499,10.162 13.498,10L13.498,8.255ZM19.865,10.195C20.56,9.798 20.99,9.056 20.989,8.255L20.989,5.985L17.244,5.985C16.012,5.988 15,7 14.996,8.232L14.996,9.977C14.996,10.479 14.839,10.944 14.539,11.333L13.049,13.326C12.622,13.888 11.957,14.22 11.251,14.225L8.202,14.225C7.431,14.226 6.788,13.609 6.757,12.839C6.737,12.068 7.117,11.34 7.76,10.914L8.674,10.3C8.881,10.164 9.005,9.932 9.004,9.685L9.004,7.491L8.127,7.491C7.925,7.492 7.731,7.573 7.588,7.715L6,9.303L4.412,7.715C4.271,7.574 4.079,7.496 3.88,7.498L3.004,7.498L3.004,9.693C3.004,9.94 3.131,10.173 3.334,10.307L4.254,10.929C4.876,11.349 5.251,12.045 5.251,12.802L5.251,14.24C5.255,17.115 7.619,19.479 10.494,19.483L14.989,19.483L13.64,17.685L14.839,16.787L16.861,19.483L19.476,19.483C19.423,18.931 19.169,18.416 18.764,18.037C18.649,17.928 18.524,17.83 18.39,17.745L17.566,17.258C16.443,16.577 15.753,15.358 15.746,14.045L15.746,13.491L17.244,13.491L17.244,14.045C17.244,14.831 17.663,15.565 18.337,15.977L19.034,16.39C19.334,15.723 19.491,14.996 19.491,14.247L19.491,10.412L19.865,10.195ZM16.495,7.505L17.992,7.505L17.992,9.004L16.494,9.004L16.495,7.505Z"/></g></svg>