<svg xmlns="http://www.w3.org/2000/svg" viewBox="0 0 24 24"><path fill-rule="evenodd" d="M19.575 5.25H21a2.25 2.25 0 0 1 2.25 2.25v.568a2.98 2.98 0 0 1-.879 2.122l-2.137 2.137a8.24 8.24 0 0 1-16.467 0L1.629 10.19A2.98 2.98 0 0 1 .75 8.068V7.5A2.25 2.25 0 0 1 3 5.25h1.425l4.487-.9c2.038-.41 4.138-.41 6.176 0zM2.25 7.5v.568a1.5 1.5 0 0 0 .44 1.061l1.06 1.06V6.75H3a.75.75 0 0 0-.75.75m4.98 9.27A6.76 6.76 0 0 0 12 18.75 6.757 6.757 0 0 0 18.75 12V6.615l-3.956-.791a14.2 14.2 0 0 0-5.588 0l-3.956.791V12a6.76 6.76 0 0 0 1.98 4.77m14.406-8.128a1.5 1.5 0 0 0 .114-.574V7.5a.75.75 0 0 0-.75-.75h-.75v3.44l1.06-1.061c.14-.139.251-.304.326-.487M7.5 7.5h9V9h-9zm9 3h-9V12h9zm-9.155 4.493.212-1.485a31.4 31.4 0 0 0 8.886 0l.212 1.485a33 33 0 0 1-9.31 0" clip-rule="evenodd"/></svg>