<svg xmlns="http://www.w3.org/2000/svg" viewBox="0 0 24 24"><path d="M3.75 8.25v-1.5h1.94L2.47 3.53l1.06-1.06 3.22 3.22V3.75h1.5v4.5zm16.5-1.5h-1.94l3.22-3.22-1.06-1.06-3.22 3.22V3.75h-1.5v4.5h4.5z"/><path fill-rule="evenodd" d="M12 7.875a4.125 4.125 0 1 0 0 8.25 4.125 4.125 0 0 0 0-8.25m0 6.75a2.625 2.625 0 1 1 0-5.25 2.625 2.625 0 0 1 0 5.25" clip-rule="evenodd"/><path d="M3.75 17.25h1.94l-3.22 3.22 1.06 1.06 3.22-3.22v1.94h1.5v-4.5h-4.5zm16.5-1.5v1.5h-1.94l3.22 3.22-1.06 1.06-3.22-3.22v1.94h-1.5v-4.5z"/></svg>