<svg xmlns="http://www.w3.org/2000/svg" xml:space="preserve" viewBox="0 0 32 32"><path d="M12.459 8H8c-3.309 0-6 2.691-6 6a6 6 0 0 0 3 5.188V25c0 1.654 1.346 3 3 3s3-1.346 3-3v-5h1.46a7 7 0 0 1 2.6.501L24 24.076V3.923l-8.94 3.576A7 7 0 0 1 12.459 8M8 10h1v8H8c-2.206 0-4-1.794-4-4s1.794-4 4-4m1 15a1 1 0 0 1-2 0v-5h2zM22 6.877v14.246l-6.198-2.479A9 9 0 0 0 12.46 18H11v-8h1.459a9 9 0 0 0 3.343-.644zM26 13h4v2h-4zm.042-4.957 2.5-2.5 1.415 1.414-2.5 2.5zm0 11.914 1.415-1.414 2.5 2.5-1.414 1.414z"/></svg>