<svg xmlns="http://www.w3.org/2000/svg" width="24" height="24"><path fill-rule="evenodd" d="M6 6h3.344a5.2 5.2 0 0 0 1.95-.375L18 2.942v15.115l-6.705-2.682A5.2 5.2 0 0 0 9.345 15H8.25v3.75a2.25 2.25 0 0 1-4.5 0v-4.359A4.496 4.496 0 0 1 6 6m.75 1.5H6a3 3 0 1 0 0 6h.75zm-.22 11.78a.75.75 0 0 0 .22-.53V15h-1.5v3.75a.75.75 0 0 0 1.28.53m5.32-5.297 4.65 1.86V5.157l-4.65 1.859a6.7 6.7 0 0 1-2.506.483H8.25v6h1.095a6.7 6.7 0 0 1 2.505.483M22.5 9.75h-3v1.5h3zm-1.093-5.593L19.53 6.032l1.061 1.06 1.875-1.874zm-1.876 10.81 1.061-1.06 1.875 1.875-1.06 1.061z" clip-rule="evenodd"/></svg>