<svg xmlns="http://www.w3.org/2000/svg" viewBox="0 0 24 24"><path d="M9 7.5H7.5v3.75H9zm7.5 0H15v3.75h1.5zm-5.25 0h1.5v3.75h-1.5z"/><path fill-rule="evenodd" d="M22.5 8.25h-1.125a1.125 1.125 0 0 0 0 2.25H22.5v9.75h-21V10.5h1.125a1.125 1.125 0 1 0 0-2.25H1.5V5.727A1.98 1.98 0 0 1 3.478 3.75h17.044A1.98 1.98 0 0 1 22.5 5.727zm-3.75 10.5H21V15H3v3.75h2.25V16.5h1.5v2.25h1.5V16.5h1.5v2.25h1.5V16.5h1.5v2.25h1.5V16.5h1.5v2.25h1.5V16.5h1.5zM21 13.5v-1.526a2.625 2.625 0 0 1 0-5.197v-1.05a.48.48 0 0 0-.477-.477H3.478A.48.48 0 0 0 3 5.727v1.05a2.625 2.625 0 0 1 0 5.196V13.5z" clip-rule="evenodd"/></svg>