<svg xmlns="http://www.w3.org/2000/svg" width="24" height="24"><path d="M20.24 13.993V10a2.6 2.6 0 0 0 1.783-1.828c.18-.674.09-1.378-.263-1.985a2.627 2.627 0 0 0-3.58-.958c-.09.052-.165.112-.247.172l-3.416-1.933a2.7 2.7 0 0 0-.255-.651 2.62 2.62 0 0 0-3.573-.96 2.6 2.6 0 0 0-1.213 1.581L6.068 5.393a2.622 2.622 0 0 0-4.09 1.424c-.18.674-.09 1.378.262 1.985.344.599.899 1.01 1.52 1.19v3.993c-.194.06-.382.127-.561.232a2.62 2.62 0 0 0 1.31 4.891c.442 0 .892-.112 1.304-.351.09-.053.165-.113.24-.173l3.415 1.933c.06.225.135.442.255.652a2.63 2.63 0 0 0 2.27 1.31c.449 0 .899-.12 1.303-.352a2.6 2.6 0 0 0 1.213-1.58l3.409-1.948a2.63 2.63 0 0 0 1.565.517c.442 0 .892-.112 1.304-.352a2.627 2.627 0 0 0 .958-3.58 2.6 2.6 0 0 0-1.52-1.191zm-5.978 4.561a2.6 2.6 0 0 0-1.513-1.19v-2.48a2.95 2.95 0 0 0 1.244-.667l2.943 1.768c-.09.457-.067.944.098 1.4l-2.622 1.499c-.045-.112-.082-.217-.15-.322zm-4.666.308L6.959 17.37c.15-.42.195-.877.12-1.326l3.198-1.603c.292.202.622.352.974.442v2.48a3 3 0 0 0-.562.232 2.56 2.56 0 0 0-1.093 1.265M5.82 9.76c.203-.12.382-.27.547-.434l2.817 1.693c-.105.307-.18.629-.18.974 0 .457.112.876.292 1.265l-2.884 1.439a2.6 2.6 0 0 0-1.153-.712V9.993c.194-.06.382-.135.561-.24zm3.918-4.33a2.6 2.6 0 0 0 1.513 1.192v2.487c-.472.12-.891.352-1.243.666L7.064 8.008a2.55 2.55 0 0 0-.098-1.401l2.622-1.498c.045.112.083.217.15.322m4.667-.306 2.636 1.49c-.022.068-.06.135-.075.203a2.7 2.7 0 0 0-.045 1.123l-3.206 1.603a2.9 2.9 0 0 0-.966-.442v-2.48c.187-.06.382-.134.562-.239.517-.3.884-.749 1.094-1.266zM12 13.49a1.503 1.503 0 0 1-1.498-1.498c0-.824.674-1.499 1.498-1.499s1.498.675 1.498 1.499c0 .823-.674 1.498-1.498 1.498m6.18.726c-.21.12-.382.27-.54.435l-2.816-1.693c.105-.307.172-.63.172-.966 0-.457-.112-.884-.292-1.266l2.884-1.439c.322.345.72.585 1.154.712v3.993a2.6 2.6 0 0 0-.562.232zm1.31-7.85a1.125 1.125 0 0 1 1.087 1.408 1.1 1.1 0 0 1-.525.682 1.116 1.116 0 0 1-1.528-.412 1.13 1.13 0 0 1-.112-.854c.075-.292.262-.532.524-.682.173-.104.367-.15.562-.15zm-8.044-3.22a1.113 1.113 0 0 1 1.116 1.925 1.124 1.124 0 0 1-1.528-.405 1.124 1.124 0 0 1 .404-1.528zM3.543 8.044a1.13 1.13 0 0 1-.112-.854c.075-.292.262-.532.524-.682a1.125 1.125 0 0 1 1.648 1.258 1.1 1.1 0 0 1-.524.683 1.116 1.116 0 0 1-1.528-.412zm1.528 9.408a1.12 1.12 0 0 1-1.528-.412 1.12 1.12 0 0 1 .412-1.528 1.116 1.116 0 0 1 1.528.412 1.117 1.117 0 0 1-.412 1.528m7.49 3.371a1.12 1.12 0 0 1-.846.112 1.1 1.1 0 0 1-.674-.517 1.124 1.124 0 0 1 .405-1.528 1.104 1.104 0 0 1 1.52.412 1.124 1.124 0 0 1-.404 1.528zm7.491-3.37a1.12 1.12 0 0 1-1.528-.413 1.12 1.12 0 0 1 .412-1.528 1.116 1.116 0 0 1 1.529.412 1.117 1.117 0 0 1-.413 1.528"/></svg>