<svg xmlns="http://www.w3.org/2000/svg" xml:space="preserve" style="fill-rule:evenodd;clip-rule:evenodd;stroke-linejoin:round;stroke-miterlimit:2" viewBox="0 0 24 24"><path d="M20.24 13.993V10a2.6 2.6 0 0 0 1.783-1.828c.18-.674.09-1.378-.263-1.985a2.64 2.64 0 0 0-3.58-.959c-.09.053-.165.113-.247.173l-3.416-1.933a2.7 2.7 0 0 0-.255-.652 2.63 2.63 0 0 0-3.573-.958 2.6 2.6 0 0 0-1.213 1.58L6.067 5.393a2.62 2.62 0 0 0-4.09 1.423A2.603 2.603 0 0 0 3.76 9.992v3.993c-.194.06-.382.127-.561.232a2.62 2.62 0 0 0-1.313 2.271 2.63 2.63 0 0 0 2.62 2.62h.003c.442 0 .892-.112 1.304-.351q.126-.078.24-.173l3.415 1.933c.06.225.135.442.255.652a2.63 2.63 0 0 0 2.27 1.31c.449 0 .898-.12 1.303-.352a2.6 2.6 0 0 0 1.213-1.58l3.409-1.948a2.63 2.63 0 0 0 1.565.517c.442 0 .892-.112 1.303-.352a2.64 2.64 0 0 0 .96-3.58 2.6 2.6 0 0 0-1.521-1.191zm-5.978 4.561a2.6 2.6 0 0 0-1.513-1.19v-2.48a2.95 2.95 0 0 0 1.243-.667l2.944 1.768c-.09.457-.067.944.098 1.4l-2.622 1.499c-.045-.113-.082-.217-.15-.322zm-4.667.307-2.636-1.49c.15-.42.195-.877.12-1.326l3.198-1.603c.292.202.622.352.974.442v2.48a3 3 0 0 0-.562.232c-.517.3-.884.749-1.094 1.265m-3.775-9.1c.202-.12.382-.27.547-.435l2.817 1.693c-.105.307-.18.629-.18.973 0 .457.112.877.292 1.266l-2.884 1.439a2.6 2.6 0 0 0-1.154-.712V9.993c.195-.06.382-.135.562-.24zm3.918-4.33a2.6 2.6 0 0 0 1.513 1.19V9.11c-.472.12-.891.352-1.243.666L7.064 8.007a2.55 2.55 0 0 0-.098-1.4l2.622-1.498c.045.112.082.217.15.322m4.667-.307 2.636 1.49c-.022.068-.06.135-.075.202-.094.367-.109.75-.045 1.124l-3.206 1.603a2.9 2.9 0 0 0-.966-.442v-2.48c.187-.06.382-.134.562-.239.517-.3.884-.749 1.094-1.266zM12 13.49a1.507 1.507 0 0 1-1.498-1.498c0-.825.674-1.499 1.498-1.499s1.498.675 1.498 1.499c0 .823-.674 1.498-1.498 1.498m6.18.726c-.21.12-.382.27-.54.435l-2.816-1.693c.105-.307.172-.63.172-.966 0-.457-.112-.884-.292-1.266l2.884-1.439c.322.345.72.585 1.154.712v3.992c-.195.06-.382.128-.562.233zm1.31-7.85a1.13 1.13 0 0 1 1.087 1.408 1.1 1.1 0 0 1-.525.682 1.117 1.117 0 0 1-1.528-.412 1.13 1.13 0 0 1 .412-1.536c.173-.105.367-.15.562-.15zm-8.044-3.22c.163-.088.345-.135.531-.135.61 0 1.113.503 1.113 1.113 0 .386-.2.744-.528.947a1.13 1.13 0 0 1-1.528-.405 1.13 1.13 0 0 1 .404-1.528zM3.543 8.044a1.13 1.13 0 0 1 .412-1.536c.17-.101.364-.153.562-.15a1.13 1.13 0 0 1 1.086 1.409 1.1 1.1 0 0 1-.524.681 1.117 1.117 0 0 1-1.528-.412zm1.528 9.408a1.125 1.125 0 0 1-1.528-.412 1.12 1.12 0 0 1 .971-1.678c.4 0 .771.215.969.562.306.532.12 1.222-.412 1.528m7.49 3.371a1.116 1.116 0 0 1-1.52-.405 1.13 1.13 0 0 1 .405-1.528 1.105 1.105 0 0 1 1.52.412 1.13 1.13 0 0 1-.404 1.528zm7.491-3.37a1.126 1.126 0 0 1-1.528-.413 1.12 1.12 0 0 1 .971-1.678c.4 0 .771.215.969.562.306.532.12 1.222-.412 1.528" style="fill-rule:nonzero"/></svg>