<svg xmlns="http://www.w3.org/2000/svg" width="24" height="24"><path fill-rule="evenodd" d="M19.948 3.302a1.03 1.03 0 0 0-.73-.302h-8.437A1.033 1.033 0 0 0 9.75 4.031V11.7l1.822-1.011.34-.189h7.307a1.033 1.033 0 0 0 1.031-1.031V4.03c0-.273-.11-.535-.302-.729M10.78 1.5h8.438a2.53 2.53 0 0 1 2.531 2.531V9.47a2.53 2.53 0 0 1-2.53 2.53H12.3l-4.05 2.25V4.031A2.53 2.53 0 0 1 10.781 1.5m.094 21h-5.25a3.45 3.45 0 0 1-3.375-3.51V7.26a3.45 3.45 0 0 1 3.375-3.51H6.75v1.5H5.625A1.95 1.95 0 0 0 3.75 7.26v11.73A1.95 1.95 0 0 0 5.625 21h5.25a1.95 1.95 0 0 0 1.875-2.01V13.5h1.5v5.49a3.45 3.45 0 0 1-3.375 3.51m-2.625-3a.8.8 0 0 1-.285-.06.9.9 0 0 1-.247-.158.74.74 0 0 1-.218-.532.75.75 0 1 1 1.5 0 .74.74 0 0 1-.75.75m3-15h7.5V6h-7.5zm5.25 3h-5.25V9h5.25z" clip-rule="evenodd"/></svg>