<svg xmlns="http://www.w3.org/2000/svg" xml:space="preserve" viewBox="0 0 32 32"><path d="M14.5 30h-7C5.019 30 3 27.9 3 25.32V9.68C3 7.1 5.019 5 7.5 5H9v2H7.5C6.121 7 5 8.202 5 9.68v15.64C5 26.798 6.121 28 7.5 28h7c1.379 0 2.5-1.202 2.5-2.68V18h2v7.32C19 27.9 16.981 30 14.5 30"/><path d="M11 26c-.13 0-.26-.03-.38-.08s-.23-.12-.33-.21A1 1 0 0 1 10 25c0-.26.109-.521.29-.71.37-.37 1.05-.37 1.42 0 .18.189.29.45.29.71a.994.994 0 0 1-1 1M25.625 4C26.383 4 27 4.617 27 5.375v7.25c0 .758-.617 1.375-1.375 1.375h-9.743l-.453.252L13 15.601V5.375C13 4.617 13.617 4 14.375 4zm0-2h-11.25A3.375 3.375 0 0 0 11 5.375V19l5.4-3h9.225A3.375 3.375 0 0 0 29 12.625v-7.25A3.375 3.375 0 0 0 25.625 2"/><path d="M15 6h10v2H15zm0 4h7v2h-7z"/></svg>