<svg xmlns="http://www.w3.org/2000/svg" viewBox="0 0 24 24"><path fill-rule="evenodd" d="M17.25 4.756v5.047a6 6 0 1 1-6.554 4.454l-3.584.006-4.862 2.725V4.755A2.51 2.51 0 0 1 4.76 2.25h9.984a2.51 2.51 0 0 1 2.506 2.506M19.476 15h1.457a4.5 4.5 0 0 0-2.076-3.075c.362.987.571 2.024.619 3.075m-4.444 1.5c.155 2.339.989 3.75 1.468 3.75.48 0 1.313-1.412 1.468-3.75zm-2.258-3.261A4.5 4.5 0 0 0 12.068 15h1.456a10.3 10.3 0 0 1 .62-3.075 4.5 4.5 0 0 0-1.37 1.314M16.5 11.25c-.48 0-1.313 1.412-1.468 3.75h2.936c-.155-2.338-.989-3.75-1.468-3.75M3.75 14.427l2.97-1.663 4.588-.008a6 6 0 0 1 4.442-2.954V4.756a1.007 1.007 0 0 0-1.006-1.006H4.76a1.01 1.01 0 0 0-1.01 1.006zm9.774 2.073h-1.456a4.5 4.5 0 0 0 2.076 3.075 10.3 10.3 0 0 1-.62-3.075m5.952 0a10.3 10.3 0 0 1-.62 3.075 4.5 4.5 0 0 0 2.076-3.075zM6 6h7.5v1.5H6zm0 3h5.25v1.5H6z" clip-rule="evenodd"/></svg>