<svg xmlns="http://www.w3.org/2000/svg" xml:space="preserve" viewBox="0 0 32 32"><path d="M8 8h10v2H8zm0 4h7v2H8z"/><path d="M23.001 13.07 23 6.341A3.345 3.345 0 0 0 19.659 3H6.346a3.346 3.346 0 0 0-3.342 3.34L3 22.65l6.482-3.633 4.779-.008A8 8 0 0 0 14 21c0 4.411 3.589 8 8 8s8-3.589 8-8c0-4.071-3.06-7.435-6.999-7.93M27.91 20h-1.942c-.086-1.481-.363-2.917-.826-4.102A6 6 0 0 1 27.91 20M22 27c-.639 0-1.751-1.882-1.957-5h3.914c-.206 3.118-1.318 5-1.957 5m-5.91-7a6 6 0 0 1 2.768-4.102c-.462 1.185-.74 2.621-.826 4.102zm3.953 0c.206-3.118 1.318-5 1.957-5s1.751 1.882 1.957 5zM8.959 17.018 5 19.236l.004-12.895A1.344 1.344 0 0 1 6.346 5h13.313C20.398 5 21 5.602 21 6.341l.001 6.728a8 8 0 0 0-5.923 3.939zM16.09 22h1.942c.086 1.481.363 2.917.826 4.102A6 6 0 0 1 16.09 22m9.052 4.102c.462-1.185.74-2.621.826-4.102h1.942a6 6 0 0 1-2.768 4.102"/></svg>