<svg xmlns="http://www.w3.org/2000/svg" width="24" height="24"><path fill-rule="evenodd" d="M10.5 4.5v6.885L9.105 12.78A3 3 0 0 1 9 12V4.5a3 3 0 1 1 6 0v2.385l-1.5 1.5V4.5a1.5 1.5 0 1 0-3 0M12 17.25a5.2 5.2 0 0 1-2.498-.63l1.718-1.725q.382.105.78.105a3 3 0 0 0 3-3v-.885l5.933-5.932-1.058-1.058L15 9l-1.5 1.5-2.557 2.557-1.065 1.066-1.59 1.59L7.23 16.77l-3.105 3.105 1.058 1.058 3.225-3.226a6.65 6.65 0 0 0 2.842.998V22.5h1.5v-3.795a6.756 6.756 0 0 0 6-6.705h-1.5A5.256 5.256 0 0 1 12 17.25m-4.62-2.745A5.3 5.3 0 0 1 6.75 12h-1.5a6.7 6.7 0 0 0 1.043 3.592z" clip-rule="evenodd"/></svg>