<svg xmlns="http://www.w3.org/2000/svg" viewBox="0 0 24 24"><path fill-rule="evenodd" d="M15 12c0 1.655-1.345 3-3 3s-3-1.345-3-3V4.5c0-1.654 1.345-3 3-3s3 1.346 3 3zm-3-9c-.827 0-1.5.673-1.5 1.5V12c0 .827.673 1.5 1.5 1.5s1.5-.673 1.5-1.5V4.5c0-.827-.673-1.5-1.5-1.5" clip-rule="evenodd"/><path d="M7.458 14.624A5.27 5.27 0 0 0 12 17.25a5.27 5.27 0 0 0 4.542-2.626l1.297.752A6.77 6.77 0 0 1 12.75 18.7v3.8h-1.5v-3.8a6.77 6.77 0 0 1-5.09-3.324zM20.53 2.142l-1.219.874A8.93 8.93 0 0 1 21 8.25a8.93 8.93 0 0 1-1.689 5.233l1.219.875A10.4 10.4 0 0 0 22.5 8.25a10.42 10.42 0 0 0-1.97-6.108m-17.06 0 1.219.874A8.93 8.93 0 0 0 3 8.25a8.92 8.92 0 0 0 1.689 5.233l-1.219.875A10.4 10.4 0 0 1 1.5 8.25c0-2.199.681-4.311 1.97-6.108"/><path d="m18.398 4.35-1.28.782A6 6 0 0 1 18 8.25a6 6 0 0 1-.882 3.118l1.28.781A7.5 7.5 0 0 0 19.5 8.25a7.5 7.5 0 0 0-1.102-3.9m-11.516.782A6 6 0 0 0 6 8.25a6 6 0 0 0 .882 3.118l-1.28.781A7.5 7.5 0 0 1 4.5 8.25c0-1.371.381-2.719 1.102-3.9z"/></svg>