<svg xmlns="http://www.w3.org/2000/svg" xml:space="preserve" viewBox="0 0 32 32"><path d="M7 16H5c-1.654 0-3 1.346-3 3v4c0 1.654 1.346 3 3 3h2c1.654 0 3-1.346 3-3v-4c0-1.654-1.346-3-3-3m1 7a1 1 0 0 1-1 1H5a1 1 0 0 1-1-1v-4a1 1 0 0 1 1-1h2a1 1 0 0 1 1 1zm9-12h-2c-1.654 0-3 1.346-3 3v9c0 1.654 1.346 3 3 3h2c1.654 0 3-1.346 3-3v-9c0-1.654-1.346-3-3-3m1 12a1 1 0 0 1-1 1h-2a1 1 0 0 1-1-1v-9c0-.551.448-1 1-1h2c.552 0 1 .449 1 1zm9-17h-2c-1.654 0-3 1.346-3 3v14c0 1.654 1.346 3 3 3h2c1.654 0 3-1.346 3-3V9c0-1.654-1.346-3-3-3m1 17a1 1 0 0 1-1 1h-2a1 1 0 0 1-1-1V9c0-.551.448-1 1-1h2c.552 0 1 .449 1 1z"/></svg>