<svg xmlns="http://www.w3.org/2000/svg" width="24" height="24"><path fill-rule="evenodd" d="M18.75 4.5h1.5c1.24 0 2.25 1.01 2.25 2.25v10.5c0 1.24-1.01 2.25-2.25 2.25h-1.5c-1.24 0-2.25-1.01-2.25-2.25V6.75c0-1.24 1.01-2.25 2.25-2.25m1.5 13.5a.75.75 0 0 0 .75-.75V6.75a.75.75 0 0 0-.75-.75h-1.5a.75.75 0 0 0-.75.75v10.5c0 .414.336.75.75.75zm-7.5-9.75h-1.5C10.01 8.25 9 9.26 9 10.5v6.75c0 1.24 1.01 2.25 2.25 2.25h1.5c1.24 0 2.25-1.01 2.25-2.25V10.5c0-1.24-1.01-2.25-2.25-2.25m.75 9a.75.75 0 0 1-.75.75h-1.5a.75.75 0 0 1-.75-.75V10.5a.75.75 0 0 1 .75-.75h1.5a.75.75 0 0 1 .75.75zM5.25 12h-1.5c-1.24 0-2.25 1.01-2.25 2.25v3c0 1.24 1.01 2.25 2.25 2.25h1.5c1.24 0 2.25-1.01 2.25-2.25v-3C7.5 13.01 6.49 12 5.25 12M6 17.25a.75.75 0 0 1-.75.75h-1.5a.75.75 0 0 1-.75-.75v-3a.75.75 0 0 1 .75-.75h1.5a.75.75 0 0 1 .75.75z" clip-rule="evenodd"/></svg>