<svg xmlns="http://www.w3.org/2000/svg" width="24" height="24"><path d="M19.5 13.306a6.5 6.5 0 0 0-.075-.927 6 6 0 0 0-.137-.688C18.11 6.605 12 1.5 12 1.5S5.89 6.606 4.712 11.69a6 6 0 0 0-.09.4q-.026.144-.047.289a6.4 6.4 0 0 0-.075.927c0 3.6 2.96 6.56 6.75 6.91V22.5h1.5v-2.285c3.79-.348 6.75-3.308 6.75-6.91m-6.75 5.4v-3.389l2.78-2.775-1.06-1.062-1.72 1.72V9.75h-1.5v3.436l-1.72-1.717-1.06 1.062 2.78 2.774v3.398C8.295 18.366 6 16.078 6 13.303a5 5 0 0 1 .06-.72c.01-.075.025-.155.035-.215.02-.103.044-.205.075-.343.786-3.375 4.15-6.906 5.83-8.5 1.68 1.597 5.046 5.136 5.836 8.541a5 5 0 0 1 .106.528q.054.354.058.713c0 2.77-2.295 5.059-5.25 5.396z"/></svg>