<svg xmlns="http://www.w3.org/2000/svg" width="24" height="24"><path d="M20.18 15.476a8 8 0 0 1-2.045.27c-4.337 0-7.865-3.529-7.865-7.866a7.83 7.83 0 0 1 1.146-4.09 8.2 8.2 0 0 1 1.206-1.513c-.158 0-.315-.015-.48-.015a10 10 0 0 0-1.58.128c-4.824.756-8.532 4.95-8.532 9.985 0 5.573 4.54 10.112 10.112 10.112 4.03 0 7.521-2.375 9.139-5.79a9.8 9.8 0 0 0 .69-1.955 7.7 7.7 0 0 1-1.791.734m-8.038 5.513c-4.749 0-8.614-3.865-8.614-8.614 0-3.843 2.525-7.102 6.008-8.21a9.4 9.4 0 0 0-.764 3.715c0 5.161 4.202 9.364 9.363 9.364.39 0 .779-.023 1.153-.068a8.6 8.6 0 0 1-7.146 3.813"/></svg>