<svg xmlns="http://www.w3.org/2000/svg" width="24" height="24"><g clip-path="url(#a)"><path fill-rule="evenodd" d="M4.5 9c0-4.135 3.364-7.5 7.5-7.5s7.5 3.364 7.5 7.5v6c0 4.136-3.364 7.5-7.5 7.5-4.135 0-7.5-3.364-7.5-7.5zM12 21c3.308 0 6-2.692 6-6V9c0-3.308-2.692-6-6-6S6 5.692 6 9v6c0 3.308 2.692 6 6 6M9.75 7.5c0-1.24 1.01-2.25 2.25-2.25s2.25 1.01 2.25 2.25V9c0 1.24-1.01 2.25-2.25 2.25S9.75 10.24 9.75 9zM12 9.75a.75.75 0 0 0 .75-.75V7.5a.75.75 0 0 0-1.5 0V9c0 .413.336.75.75.75" clip-rule="evenodd"/></g><defs><clipPath id="a"><path d="M0 0h24v24H0z"/></clipPath></defs></svg>