<svg xmlns="http://www.w3.org/2000/svg" viewBox="0 0 24 24"><path fill-rule="evenodd" d="m13.664 2.189 8.147 8.148a2.35 2.35 0 0 1 0 3.327l-8.147 8.147a2.35 2.35 0 0 1-3.328 0L2.19 13.664a2.35 2.35 0 0 1 0-3.328l8.147-8.147a2.357 2.357 0 0 1 3.328 0M12.6 20.75l8.15-8.15v.005a.85.85 0 0 0 0-1.205l-8.145-8.15a.854.854 0 0 0-1.205 0l-8.15 8.146a.85.85 0 0 0 0 1.204l8.145 8.15a.854.854 0 0 0 1.205 0m2.09-10.25-1.72-1.72 1.06-1.06 3.53 3.53-3.53 3.53-1.06-1.06L14.69 12H9v3H7.5v-4.5z" clip-rule="evenodd"/></svg>