<svg xmlns="http://www.w3.org/2000/svg" viewBox="0 0 24 24"><path fill-rule="evenodd" d="m13.664 2.188 8.147 8.15a2.353 2.353 0 0 1 0 3.325l-8.147 8.148a2.35 2.35 0 0 1-3.328 0L2.19 13.663a2.35 2.35 0 0 1 0-3.327l8.147-8.148a2.357 2.357 0 0 1 3.328 0M12.6 20.75l8.15-8.15v.004a.85.85 0 0 0 0-1.204l-8.145-8.15a.854.854 0 0 0-1.205 0l-8.15 8.145a.85.85 0 0 0 0 1.205l8.145 8.15a.853.853 0 0 0 1.205 0m2.09-10.25-1.72-1.72 1.06-1.06 3.53 3.53-3.53 3.53-1.06-1.06L14.69 12H9v3H7.5v-4.5z" clip-rule="evenodd"/></svg>