<svg xmlns="http://www.w3.org/2000/svg" xml:space="preserve" viewBox="0 0 32 32"><path d="M29.081 13.783 18.218 2.918a3.14 3.14 0 0 0-4.436 0L2.919 13.782C2.326 14.375 2 15.162 2 16s.326 1.626.919 2.218l10.863 10.863c.593.593 1.38.919 2.218.919s1.625-.326 2.218-.919l10.863-10.863c.593-.592.919-1.38.919-2.218s-.326-1.625-.919-2.217m-1.414 3.021L16.804 27.667a1.14 1.14 0 0 1-1.607 0L4.333 16.803C4.118 16.589 4 16.303 4 16s.118-.588.333-.803L15.196 4.333a1.14 1.14 0 0 1 1.607 0l10.863 10.865a1.13 1.13 0 0 1 .001 1.606"/><path d="M17.293 11.707 19.586 14H10v6h2v-4h7.586l-2.293 2.293 1.414 1.414L23.414 15l-4.707-4.707z"/></svg>