<svg xmlns="http://www.w3.org/2000/svg" viewBox="0 0 24 24"><path d="M19.47 8.303h-5.887v5.887h5.887zm-1.5 4.38h-2.887V9.795h2.887zM3 2.992V1.5H1.5v21H3v-3.157h3.12v1.65h11.677v-1.65h4.665V2.992zm17.963 14.85h-4.666v1.65H7.62v-1.65H3v-2.88h3.218l1.545 1.62h2.662a1.322 1.322 0 0 0 2.407-.75 1.322 1.322 0 0 0-2.407-.75H8.408l-1.545-1.62H3v-1.478h4.418c.24.322.622.54 1.057.54.728 0 1.32-.593 1.32-1.32s-.592-1.32-1.32-1.32c-.465 0-.877.248-1.11.607H3.008V9.03h3.487L8.04 7.41h2.393a1.322 1.322 0 0 0 2.407-.75 1.322 1.322 0 0 0-2.408-.75H7.395L5.85 7.53H3.008V4.5H20.97v13.35z"/></svg>