<svg xmlns="http://www.w3.org/2000/svg" viewBox="0 0 24 24"><path d="m12.75 16.94 1.72-1.72 1.06 1.06L12 19.81l-3.53-3.53 1.06-1.06 1.72 1.72V7.06L9.53 8.78 8.47 7.72 12 4.19l3.53 3.53-1.06 1.06-1.72-1.72z"/><path fill-rule="evenodd" d="M1.5 12C1.5 6.21 6.21 1.5 12 1.5S22.5 6.21 22.5 12 17.79 22.5 12 22.5 1.5 17.79 1.5 12m1.538.75C3.422 17.363 7.29 21 12 21s8.578-3.637 8.962-8.25H16.81l1.72 1.72-1.061 1.06L13.94 12l3.53-3.53 1.06 1.06-1.72 1.72h4.152C20.578 6.638 16.71 3 12 3s-8.578 3.638-8.962 8.25H7.19L5.47 9.53l1.06-1.06L10.06 12l-3.53 3.53-1.06-1.06 1.72-1.72z" clip-rule="evenodd"/></svg>