<svg xmlns="http://www.w3.org/2000/svg" width="24" height="24"><path d="M22.5 12.75v-1.5h-9.75v-1.5h1.5A2.25 2.25 0 0 0 16.5 7.5V5.25A2.25 2.25 0 0 0 14.25 3h-4.5A2.25 2.25 0 0 0 7.5 5.25V7.5a2.25 2.25 0 0 0 2.25 2.25h1.5v1.5H1.5v1.5h3.75v1.5h-1.5A2.25 2.25 0 0 0 1.5 16.5v2.25A2.25 2.25 0 0 0 3.75 21h4.5a2.25 2.25 0 0 0 2.25-2.25V16.5a2.25 2.25 0 0 0-2.25-2.25h-1.5v-1.5h10.5v1.5h-1.5a2.25 2.25 0 0 0-2.25 2.25v2.25A2.25 2.25 0 0 0 15.75 21h4.5a2.25 2.25 0 0 0 2.25-2.25V16.5a2.25 2.25 0 0 0-2.25-2.25h-1.5v-1.5zM9.75 8.25A.75.75 0 0 1 9 7.5V5.25a.75.75 0 0 1 .75-.75h4.5a.75.75 0 0 1 .75.75V7.5a.75.75 0 0 1-.75.75zM9 16.5v2.25a.75.75 0 0 1-.75.75h-4.5a.75.75 0 0 1-.75-.75V16.5a.75.75 0 0 1 .75-.75h4.5a.75.75 0 0 1 .75.75m12 0v2.25a.75.75 0 0 1-.75.75h-4.5a.75.75 0 0 1-.75-.75V16.5a.75.75 0 0 1 .75-.75h4.5a.75.75 0 0 1 .75.75"/></svg>