<svg xmlns="http://www.w3.org/2000/svg" viewBox="0 0 24 24"><g clip-path="url(#a)"><path d="m5.106 6.167 1.06-1.061 2.122 2.121-1.06 1.06zm-.001 11.667 2.122-2.122 1.06 1.06-2.121 2.122zm10.608-1.06 1.06-1.061 2.122 2.121-1.061 1.061zM21 11.25h-3v1.5h3zm-5.287-4.023 2.12-2.121 1.062 1.06-2.122 2.122zM1.5 11.25H6v1.5H1.5zM11.25 18h1.5v4.5h-1.5z"/><path d="M22.5 11.25H18v1.5h4.5z"/><path d="M18 11.25h4.5v1.5H18zM11.25 1.5h1.5V6h-1.5z"/></g><defs><clipPath id="a"><path d="M0 0h24v24H0z"/></clipPath></defs></svg>