<svg xmlns="http://www.w3.org/2000/svg" viewBox="0 0 24 24"><path fill-rule="evenodd" d="M22.5 16.5h-1.125a1.125 1.125 0 1 0 0 2.25H22.5v1.5a2.25 2.25 0 0 1-2.25 2.25H9.75a2.25 2.25 0 0 1-2.25-2.25H3.75A2.25 2.25 0 0 1 1.5 18V6h3V1.5h15v10.909h.75a2.25 2.25 0 0 1 2.25 2.25zM3 7.5V18a.75.75 0 1 0 1.5 0V7.5zm2.862 11.25h2.763a1.125 1.125 0 1 0 0-2.25H7.5v-1.841a2.25 2.25 0 0 1 2.25-2.25H18V3H6v15c-.002.256-.05.51-.138.75M21 20.25v-.026a2.625 2.625 0 0 1 0-5.198v-.367a.75.75 0 0 0-.75-.75H9.75a.75.75 0 0 0-.75.75v.367a2.625 2.625 0 0 1 0 5.198v.026a.75.75 0 0 0 .75.75h10.5a.75.75 0 0 0 .75-.75M12 4.5H7.5v6H12zM10.5 9H9V6h1.5zm3-3.75h3v1.5h-3zm3 3h-3v1.5h3zm.196 6.477-4.393 4.393 1.06 1.061 4.394-4.393zm-3.078.682a.92.92 0 1 1-1.53 1.022.92.92 0 0 1 1.53-1.022m3.53 2.66a.92.92 0 1 0 0 1.84.92.92 0 0 0 0-1.84" clip-rule="evenodd"/></svg>