<svg xmlns="http://www.w3.org/2000/svg" viewBox="0 0 24 24"><path d="M12.143 9.698 9.84 12l2.303 2.303-1.058 1.057-3.368-3.367 3.368-3.368 1.057 1.058zm6.884 5.67L22.396 12l-3.367-3.367L17.97 9.69l2.303 2.303-2.303 2.302 1.058 1.057zm-4.372.397 2.063-7.11-1.44-.42-2.063 7.11zm3.502 4.508c0 .412-.277.75-.614.75H5.093c-.338 0-.615-.338-.615-.75V18.75h.75v-1.5h-.75v-1.56h.75v-1.5h-.75v-1.425h.75v-1.5h-.75v-1.59h.75v-1.5h-.75V6.75h.75v-1.5h-.75V3.765c0-.412.277-.75.615-.75h12.45c.337 0 .614.338.614.75V6h1.5V3.765c0-1.237-.952-2.25-2.114-2.25H5.093c-1.163 0-2.115 1.005-2.115 2.25V5.25H1.5v1.5h1.478v1.425H1.5v1.5h1.478v1.59H1.5v1.5h1.478v1.425H1.5v1.5h1.478v1.56H1.5v1.5h1.478v1.523c0 1.237.944 2.25 2.115 2.25h12.45c1.162 0 2.114-1.006 2.114-2.25V18h-1.5z"/></svg>