<svg xmlns="http://www.w3.org/2000/svg" width="24" height="24"><path fill-rule="evenodd" d="M3.75 19.82V4.5h12v5.25h1.5V3H15V1.5h-1.5V3H12V1.5h-1.5V3H9V1.5H7.5V3H6V1.5H4.5V3H2.25v16.82a2.684 2.684 0 0 0 2.68 2.68h3.32V21H4.93a1.18 1.18 0 0 1-1.18-1.18M6 10.5h7.5V12H6zm7.5-3H6V9h7.5zm-7.5 6h3.75V15H6zm13.5-2.995c.599 0 1.173.238 1.598.66a2.26 2.26 0 0 1 0 3.193l-5.87 5.87a3.8 3.8 0 0 1-1.121.772l-3.365 1.517-.992-.992 1.51-3.37a3.8 3.8 0 0 1 .772-1.12l5.87-5.87c.425-.422 1-.66 1.598-.66m-5.332 8.663 5.869-5.869a.76.76 0 0 0-1.074-1.074l-5.87 5.869a2.3 2.3 0 0 0-.464.675l-.705 1.569 1.57-.704c.25-.113.48-.271.674-.466" clip-rule="evenodd"/></svg>