<svg xmlns="http://www.w3.org/2000/svg" viewBox="0 0 24 24"><path fill-rule="evenodd" d="M11.264 1.5h1.486C13.99 1.5 15 2.51 15 3.75v9c0 1.24-1.01 2.25-2.25 2.25h-1.498a2.23 2.23 0 0 1-1.592-.66 2.24 2.24 0 0 1-.659-1.593l.013-9a2.253 2.253 0 0 1 2.25-2.247m1.486 12a.75.75 0 0 0 .75-.75v-9a.75.75 0 0 0-.75-.75h-1.486a.75.75 0 0 0-.75.75l-.012 9a.747.747 0 0 0 .75.75zm-3.742 5.993a3 3 0 0 1 2.996-2.993A3 3 0 0 1 15 19.496v.008a3 3 0 0 1-2.996 2.996 2.98 2.98 0 0 1-2.122-.881 2.98 2.98 0 0 1-.874-2.126M12.004 21c.825 0 1.496-.671 1.496-1.496v-.008c0-.825-.671-1.496-1.496-1.496-.823 0-1.493.669-1.496 1.49A1.495 1.495 0 0 0 12.004 21" clip-rule="evenodd"/></svg>