<svg xmlns="http://www.w3.org/2000/svg" viewBox="0 0 24 24"><path d="M21 5.25H8.258v-1.5H21zm0 13.5H8.258v1.5H21zm0-7.5H8.258v1.5H21zM5.948 2.115l-1.163-.623-2.25 1.5.833 1.245 1.087-.72V7.56h1.5V2.115zm.382 9.683c.263-.3.413-.683.413-1.103 0-.968-.833-1.748-1.86-1.748s-1.86.788-1.86 1.748v.352h1.5v-.352c0-.12.15-.248.36-.248s.36.136.36.278a.12.12 0 0 1-.038.082L3.03 13.284v1.77h3.653v-1.5H4.785L6.33 11.79zM4.103 14.19l2.842 6.443c0-.503-.127-.915-.36-1.245.263-.338.405-.78.405-1.313 0-1.035-.885-1.875-1.965-1.875s-1.965.84-1.965 1.875h1.5c0-.203.218-.375.465-.375s.465.172.465.375c0 .435-.112.51-.465.533h-.39v1.5h.293c.495.022.525.21.525.524 0 .203-.218.375-.465.375s-.465-.172-.465-.375h-1.5c0 1.035.885 1.875 1.965 1.875s1.965-.84 1.965-1.867z"/></svg>