<svg xmlns="http://www.w3.org/2000/svg" viewBox="0 0 24 24"><path d="M18.479 7.682C17.559 4.13 14.34 1.5 10.5 1.5a8.25 8.25 0 0 0-8.25 8.25 8.23 8.23 0 0 0 3.271 6.568C6.442 19.87 9.66 22.5 13.5 22.5a8.25 8.25 0 0 0 8.25-8.25 8.23 8.23 0 0 0-3.271-6.568M6.75 14.25c0-.592.084-1.164.228-1.711l3.94 3.94c-.139.008-.277.021-.418.021a6.7 6.7 0 0 1-3.64-1.075 7 7 0 0 1-.11-1.175m5.94 1.879-5.113-5.112a6.8 6.8 0 0 1 1.005-1.375l5.697 5.698a6.7 6.7 0 0 1-1.59.789m2.729-1.771L9.72 8.66a6.7 6.7 0 0 1 1.59-.789l5.112 5.112a6.8 6.8 0 0 1-1.004 1.375M17.25 9.75a6.7 6.7 0 0 1-.228 1.711l-3.94-3.94c.139-.008.277-.021.418-.021 1.341 0 2.589.397 3.64 1.075.068.382.11.774.11 1.175m-13.5 0A6.757 6.757 0 0 1 10.5 3a6.76 6.76 0 0 1 5.94 3.55A8.2 8.2 0 0 0 13.5 6c-4.472 0-8.104 3.56-8.237 8A6.7 6.7 0 0 1 3.75 9.75M13.5 21a6.76 6.76 0 0 1-5.94-3.55 8.2 8.2 0 0 0 2.94.55c4.472 0 8.105-3.56 8.237-8a6.7 6.7 0 0 1 1.513 4.25A6.757 6.757 0 0 1 13.5 21"/></svg>