<svg xmlns="http://www.w3.org/2000/svg" xml:space="preserve" viewBox="0 0 32 32"><path d="M16 14c3.309 0 6-2.691 6-6s-2.691-6-6-6-6 2.691-6 6 2.691 6 6 6m0-10c2.206 0 4 1.794 4 4s-1.794 4-4 4-4-1.794-4-4 1.794-4 4-4"/><path d="m21.361 13.707-.526.682A40.5 40.5 0 0 1 16 19.6a40.5 40.5 0 0 1-4.835-5.211l-.526-.682-7.14 3.985.71.919c3.105 4.019 6.893 7.462 11.255 10.232l.536.342.536-.341c4.362-2.771 8.149-6.214 11.255-10.232l.71-.919zM16 26.81a42 42 0 0 1-9.484-8.511l3.602-2.01a43 43 0 0 0 5.227 5.403l.655.57.656-.57a43 43 0 0 0 5.227-5.403l3.602 2.01A42 42 0 0 1 16 26.81"/></svg>