<svg xmlns="http://www.w3.org/2000/svg" width="24" height="24"><path fill-rule="evenodd" d="M16.5 6c0 2.482-2.018 4.5-4.5 4.5A4.505 4.505 0 0 1 7.5 6c0-2.482 2.018-4.5 4.5-4.5s4.5 2.018 4.5 4.5M15 6c0-1.654-1.345-3-3-3S9 4.346 9 6s1.345 3 3 3 3-1.346 3-3m.626 4.792.395-.512 5.355 2.99-.533.689a33 33 0 0 1-8.441 7.674l-.402.256-.402-.257a32.9 32.9 0 0 1-8.441-7.674l-.533-.689L7.98 10.28l.395.512A30.4 30.4 0 0 0 12 14.7a30.4 30.4 0 0 0 3.626-3.908M4.887 13.724A31.5 31.5 0 0 0 12 20.108a31.5 31.5 0 0 0 7.114-6.384l-2.702-1.507a32 32 0 0 1-3.92 4.052l-.492.428-.491-.428a32 32 0 0 1-3.92-4.052z" clip-rule="evenodd"/></svg>