<svg xmlns="http://www.w3.org/2000/svg" xml:space="preserve" viewBox="0 0 32 32"><path d="M25 20h-1v-1.996A3.01 3.01 0 0 0 20.996 15H17v-3h1c1.654 0 3-1.346 3-3V7c0-1.654-1.346-3-3-3h-4c-1.654 0-3 1.346-3 3v2c0 1.654 1.346 3 3 3h1v3h-3.996A3.01 3.01 0 0 0 8 18.004V20H7c-1.654 0-3 1.346-3 3v2c0 1.654 1.346 3 3 3h4c1.654 0 3-1.346 3-3v-2c0-1.654-1.346-3-3-3h-1v-1.996c0-.554.45-1.004 1.004-1.004h9.992c.554 0 1.004.45 1.004 1.004V20h-1c-1.654 0-3 1.346-3 3v2c0 1.654 1.346 3 3 3h4c1.654 0 3-1.346 3-3v-2c0-1.654-1.346-3-3-3M13 9V7c0-.551.448-1 1-1h4c.552 0 1 .449 1 1v2c0 .551-.448 1-1 1h-4c-.552 0-1-.449-1-1m-1 14v2a1 1 0 0 1-1 1H7a1 1 0 0 1-1-1v-2a1 1 0 0 1 1-1h4a1 1 0 0 1 1 1m14 2a1 1 0 0 1-1 1h-4a1 1 0 0 1-1-1v-2a1 1 0 0 1 1-1h4a1 1 0 0 1 1 1z"/></svg>