<svg xmlns="http://www.w3.org/2000/svg" width="24" height="24"><path fill-rule="evenodd" d="M3.75 3h16.5a2.25 2.25 0 0 1 2.25 2.25v13.5A2.25 2.25 0 0 1 20.25 21H3.75a2.25 2.25 0 0 1-2.25-2.25V5.25A2.25 2.25 0 0 1 3.75 3m17.03 16.28a.75.75 0 0 0 .22-.53V5.25a.75.75 0 0 0-.75-.75H3.75a.75.75 0 0 0-.75.75v13.5a.75.75 0 0 0 .75.75h16.5a.75.75 0 0 0 .53-.22m-2.03-8.98v2.45a1.5 1.5 0 0 1 1.5 1.5v1.5a1.5 1.5 0 0 1-1.5 1.5h-1.5a1.5 1.5 0 0 1-1.5-1.5v-1.5a1.5 1.5 0 0 1 1.5-1.5V10.3a.573.573 0 0 0-.593-.55H14.25a1.5 1.5 0 0 1-1.5 1.5v1.5a1.5 1.5 0 0 1 1.5 1.5v1.5a1.5 1.5 0 0 1-1.5 1.5h-1.5a1.5 1.5 0 0 1-1.5-1.5v-1.5a1.5 1.5 0 0 1 1.5-1.5v-1.5a1.5 1.5 0 0 1-1.5-1.5H7.343a.573.573 0 0 0-.593.55v2.45a1.5 1.5 0 0 1 1.5 1.5v1.5a1.5 1.5 0 0 1-1.5 1.5h-1.5a1.5 1.5 0 0 1-1.5-1.5v-1.5a1.5 1.5 0 0 1 1.5-1.5V10.3a2.074 2.074 0 0 1 2.093-2.05H9.75a1.5 1.5 0 0 1 1.5-1.5h1.5a1.5 1.5 0 0 1 1.5 1.5h2.407a2.074 2.074 0 0 1 2.093 2.05m-13.5 5.45h1.5v-1.5h-1.5zm6 0h1.5v-1.5h-1.5zm0-7.5v1.5h1.5v-1.5zm6 6v1.5h1.5v-1.5z" clip-rule="evenodd"/></svg>