<svg xmlns="http://www.w3.org/2000/svg" width="24" height="24"><path d="M18.75 15H18v-1.5a2.256 2.256 0 0 0-2.25-2.25h-3V9h.75a2.25 2.25 0 0 0 2.25-2.25v-1.5A2.25 2.25 0 0 0 13.5 3h-3a2.25 2.25 0 0 0-2.25 2.25v1.5A2.25 2.25 0 0 0 10.5 9h.75v2.25h-3A2.256 2.256 0 0 0 6 13.5V15h-.75A2.25 2.25 0 0 0 3 17.25v1.5A2.25 2.25 0 0 0 5.25 21h3a2.25 2.25 0 0 0 2.25-2.25v-1.5A2.25 2.25 0 0 0 8.25 15H7.5v-1.5a.75.75 0 0 1 .75-.75h7.5a.75.75 0 0 1 .75.75V15h-.75a2.25 2.25 0 0 0-2.25 2.25v1.5A2.25 2.25 0 0 0 15.75 21h3A2.25 2.25 0 0 0 21 18.75v-1.5A2.25 2.25 0 0 0 18.75 15m-9-8.25v-1.5a.75.75 0 0 1 .75-.75h3a.75.75 0 0 1 .75.75v1.5a.75.75 0 0 1-.75.75h-3a.75.75 0 0 1-.75-.75M9 17.25v1.5a.75.75 0 0 1-.75.75h-3a.75.75 0 0 1-.75-.75v-1.5a.75.75 0 0 1 .75-.75h3a.75.75 0 0 1 .75.75m10.5 1.5a.75.75 0 0 1-.75.75h-3a.75.75 0 0 1-.75-.75v-1.5a.75.75 0 0 1 .75-.75h3a.75.75 0 0 1 .75.75z"/></svg>