<svg xmlns="http://www.w3.org/2000/svg" viewBox="0 0 24 24"><path fill-rule="evenodd" d="M11.121 9.095A3.6 3.6 0 0 0 9.934 8.2a3.7 3.7 0 0 0-1.585-.331 3.66 3.66 0 0 0-1.585.332c-.455.21-.86.515-1.188.894-.33.387-.583.833-.745 1.314a5.04 5.04 0 0 0 0 3.192c.162.482.415.928.745 1.315.328.378.733.681 1.188.889a3.7 3.7 0 0 0 1.585.326 3.7 3.7 0 0 0 1.585-.326c.455-.208.86-.511 1.187-.889a4 4 0 0 0 .745-1.315 4.9 4.9 0 0 0 .26-1.601 4.8 4.8 0 0 0-.26-1.59 4 4 0 0 0-.745-1.315m-.514 4.01a3.1 3.1 0 0 1-.425.966c-.19.283-.446.516-.745.68a2.2 2.2 0 0 1-1.088.254 2.2 2.2 0 0 1-1.088-.255 2.14 2.14 0 0 1-.746-.678 3 3 0 0 1-.424-.967 4.46 4.46 0 0 1 0-2.21 3.1 3.1 0 0 1 .424-.966c.191-.283.447-.516.746-.68a2.2 2.2 0 0 1 1.088-.254c.378-.01.753.078 1.088.254.299.164.554.397.745.68.196.295.34.622.425.966a4.5 4.5 0 0 1 0 2.21" clip-rule="evenodd"/><path d="M18.681 12.459q.191.266.287.58.095.305.095.624c.011.394-.082.785-.271 1.132a2.3 2.3 0 0 1-.713.768 3.1 3.1 0 0 1-1.005.436 4.8 4.8 0 0 1-1.148.138 4.7 4.7 0 0 1-1.27-.166 3 3 0 0 1-1.038-.508 2.5 2.5 0 0 1-.707-.878 2.9 2.9 0 0 1-.276-1.265h1.381c-.008.266.045.53.155.772.098.208.245.389.43.525.19.14.406.242.635.3q.384.098.779.094c.261.006.522-.03.773-.105.188-.057.364-.149.519-.27a1 1 0 0 0 .287-.381q.088-.21.088-.437a.94.94 0 0 0-.204-.668 1.2 1.2 0 0 0-.45-.304 10 10 0 0 0-.975-.293 43 43 0 0 1-1.375-.359 3 3 0 0 1-.845-.348 2 2 0 0 1-.536-.48 1.7 1.7 0 0 1-.282-.564 2.3 2.3 0 0 1-.082-.607c-.01-.36.076-.716.248-1.033.163-.287.387-.534.657-.724.282-.195.596-.34.928-.425a4.2 4.2 0 0 1 2.215.023c.347.098.673.26.96.48a2.28 2.28 0 0 1 .9 1.875h-1.38a1.33 1.33 0 0 0-.52-1.077A2.07 2.07 0 0 0 15.76 9q-.251 0-.498.046-.246.047-.465.166a1 1 0 0 0-.348.315.86.86 0 0 0-.137.497.85.85 0 0 0 .259.657c.196.17.428.294.68.359l.348.094q.303.083.678.182l.735.193q.36.094.513.138c.242.073.47.185.675.331.185.134.348.296.481.481"/><path fill-rule="evenodd" d="M12 1.5a10.5 10.5 0 1 0 0 21 10.5 10.5 0 0 0 0-21M12 21a9 9 0 1 1 9-9 9.01 9.01 0 0 1-9 9" clip-rule="evenodd"/></svg>