<svg xmlns="http://www.w3.org/2000/svg" xml:space="preserve" viewBox="0 0 32 32"><path d="M16 2C8.268 2 2 8.268 2 16s6.268 14 14 14 14-6.268 14-14S23.732 2 16 2m0 26C9.383 28 4 22.617 4 16S9.383 4 16 4s12 5.383 12 12-5.383 12-12 12"/><path d="M14.828 12.127q-.649-.75-1.583-1.193-.936-.442-2.113-.442-1.179 0-2.113.442a4.7 4.7 0 0 0-1.584 1.193 5.3 5.3 0 0 0-.994 1.752A6.4 6.4 0 0 0 6.095 16q0 1.133.346 2.135a5.3 5.3 0 0 0 .994 1.753q.649.75 1.584 1.185.934.435 2.113.435 1.177 0 2.113-.435a4.7 4.7 0 0 0 1.583-1.185 5.3 5.3 0 0 0 .994-1.753q.346-1.002.346-2.135 0-1.119-.346-2.121a5.3 5.3 0 0 0-.994-1.752m-.685 5.346a4.1 4.1 0 0 1-.567 1.289q-.384.567-.994.905-.611.34-1.45.339c-.839-.001-1.044-.112-1.451-.339a2.85 2.85 0 0 1-.994-.905 4.1 4.1 0 0 1-.566-1.289 5.9 5.9 0 0 1-.001-2.946 4.1 4.1 0 0 1 .566-1.289q.384-.567.994-.906.611-.338 1.451-.338c.84 0 1.043.113 1.45.338q.61.339.994.906.383.567.567 1.289a6 6 0 0 1 .001 2.946m11.148-.088q-.125-.413-.383-.773a2.3 2.3 0 0 0-.641-.641 3.1 3.1 0 0 0-.898-.442 34 34 0 0 0-.685-.184 267 267 0 0 1-2.348-.625q-.56-.162-.906-.479-.345-.316-.346-.876 0-.398.184-.663t.464-.419c.28-.154.393-.177.619-.221q.338-.066.662-.066.958 0 1.576.419c.618.419.643.759.692 1.436h1.841q0-.825-.324-1.451t-.876-1.053c-.552-.427-.795-.499-1.281-.641a5.5 5.5 0 0 0-1.554-.214q-.708 0-1.399.184a3.9 3.9 0 0 0-1.237.567 3 3 0 0 0-.876.965q-.331.582-.331 1.377 0 .412.11.81c.11.398.199.516.375.751q.265.354.715.641t1.127.464a82 82 0 0 0 1.833.478q.744.185 1.304.391.324.118.596.405c.272.287.272.488.272.891q0 .295-.117.582a1.3 1.3 0 0 1-.383.508 2.1 2.1 0 0 1-.692.361q-.428.14-1.031.14-.56 0-1.038-.125-.479-.125-.847-.397c-.368-.272-.437-.415-.574-.7q-.207-.427-.206-1.03h-1.841q.015.971.368 1.687.353.714.942 1.17.59.457 1.384.678c.794.221 1.095.221 1.694.221q.78 0 1.531-.184a4.1 4.1 0 0 0 1.34-.582q.59-.397.95-1.023t.361-1.51a2.8 2.8 0 0 0-.126-.827"/></svg>