<svg xmlns="http://www.w3.org/2000/svg" viewBox="0 0 24 24"><path fill-rule="evenodd" d="M15.745 7.506h-7.49a2.254 2.254 0 0 0-2.248 2.247v5.992a2.254 2.254 0 0 0 2.248 2.248h7.49a2.254 2.254 0 0 0 2.248-2.248V9.753a2.254 2.254 0 0 0-2.248-2.247m-8.24 2.247c0-.412.338-.75.75-.75h7.49c.412 0 .75.338.75.75V12h-8.99zm8.24 6.741h-7.49a.75.75 0 0 1-.75-.749v-2.247h8.99v2.247a.75.75 0 0 1-.75.75" clip-rule="evenodd"/><path d="M8.255 5.258a.75.75 0 1 1-1.498 0 .75.75 0 0 1 1.498 0M12 6.007a.75.75 0 1 0 0-1.498.75.75 0 0 0 0 1.498m5.243-.749a.749.749 0 1 1-1.498 0 .749.749 0 0 1 1.498 0"/><path fill-rule="evenodd" d="M18.742 1.513H5.258A2.254 2.254 0 0 0 3.011 3.76v14.982a2.254 2.254 0 0 0 2.247 2.247h.75v1.498h1.498v-1.498h8.988v1.498h1.499v-1.498h.749a2.254 2.254 0 0 0 2.247-2.248V3.761a2.254 2.254 0 0 0-2.247-2.248m.749 17.229a.75.75 0 0 1-.75.749H5.259a.75.75 0 0 1-.749-.75V3.761c0-.413.337-.75.75-.75h13.483c.412 0 .749.337.749.75z" clip-rule="evenodd"/></svg>