<svg xmlns="http://www.w3.org/2000/svg" xml:space="preserve" style="fill-rule:evenodd;clip-rule:evenodd;stroke-linejoin:round;stroke-miterlimit:2" viewBox="0 0 24 24"><path d="M18.742 1.513H5.258A2.265 2.265 0 0 0 3.011 3.76v14.982a2.265 2.265 0 0 0 2.247 2.247h.75v1.498h1.498v-1.498h8.988v1.498h1.499v-1.498h.749a2.265 2.265 0 0 0 2.247-2.247V3.76a2.265 2.265 0 0 0-2.247-2.247m.749 17.229a.754.754 0 0 1-.75.749H5.259a.754.754 0 0 1-.749-.75V3.762c0-.413.337-.75.75-.75h13.483c.412 0 .749.337.749.75zM15.745 7.506h-7.49a2.264 2.264 0 0 0-2.248 2.247v5.992a2.264 2.264 0 0 0 2.248 2.248h7.49a2.264 2.264 0 0 0 2.248-2.248V9.753a2.264 2.264 0 0 0-2.248-2.247m-8.24 2.247c0-.412.338-.75.75-.75h7.49c.412 0 .75.338.75.75V12h-8.99zm8.24 6.741h-7.49a.754.754 0 0 1-.75-.749v-2.247h8.99v2.247c0 .412-.338.75-.75.75M8.255 5.258l.001.039c0 .411-.339.75-.75.75a.754.754 0 0 1-.75-.75l.001-.039a.753.753 0 0 1 .749-.711c.397 0 .729.315.749.711m3.745.75.027.001c.412 0 .75-.339.75-.75a.753.753 0 0 0-.75-.75H12a.753.753 0 0 0-.711.749c0 .397.315.729.711.749m5.243-.75a.75.75 0 0 1-.749.749.75.75 0 0 1-.749-.749c0-.411.338-.749.749-.749s.749.338.749.749"/></svg>