<svg xmlns="http://www.w3.org/2000/svg" viewBox="0 0 24 24"><path d="M16.095 14.04c.285-.742.188-1.575-.277-2.407-.345-.608-1.223-1.403-1.71-1.74l-3.788-2.67c-.562-.398-.787-.975-.607-1.56.165-.525.727-1.14 1.815-1.155 1.447 0 2.624.945 2.624 2.107h1.5c0-1.987-1.852-3.607-4.192-3.607-1.522.022-2.775.892-3.187 2.212-.375 1.215.075 2.453 1.177 3.225l.158.113c-1.643.997-1.815 2.077-1.83 3.045-.008 1.005.585 1.995 1.59 2.647l4.29 2.768c.54.352.757.817.622 1.32-.157.562-.795 1.14-1.86 1.17h-.06c-1.417 0-2.58-.855-2.595-1.92l-1.5.03c.03 1.89 1.86 3.397 4.102 3.397h.09c1.59-.037 2.91-.945 3.278-2.257.323-1.14-.157-2.28-1.252-2.985l-.06-.038c.854-.45 1.417-1.012 1.68-1.68zm-1.395-.547c-.187.472-.802.9-1.792 1.245l-2.715-1.755c-.57-.368-.915-.885-.908-1.365 0-.615.023-1.313 1.703-2.093l2.257 1.59c.42.3 1.088.938 1.275 1.26q.37.653.188 1.125z"/></svg>