<svg xmlns="http://www.w3.org/2000/svg" viewBox="0 0 24 24"><path d="M4.5 18.75V5.25a.75.75 0 0 1 .75-.75h13.5a.75.75 0 0 1 .75.75v7.5H21v-7.5A2.25 2.25 0 0 0 18.75 3H5.25A2.25 2.25 0 0 0 3 5.25v13.5A2.25 2.25 0 0 0 5.25 21h10.5v-1.5H5.25a.75.75 0 0 1-.75-.75"/><path fill-rule="evenodd" d="M12.844 6.75H8.827v10.5h1.823v-3.894h2.175a4.26 4.26 0 0 0 2.837-.859 2.98 2.98 0 0 0 1.014-2.404 3.09 3.09 0 0 0-1.035-2.426 4.06 4.06 0 0 0-2.797-.917m1.485 4.676a2.16 2.16 0 0 1-1.485.458H10.65V8.223h2.243a2 2 0 0 1 1.425.524 1.8 1.8 0 0 1 .52 1.36 1.69 1.69 0 0 1-.513 1.32z" clip-rule="evenodd"/><path d="m20.197 14.528-1.09 2.722h2.25l-1.91 4.778-1.394-.556 1.09-2.722h-2.25l1.91-4.778z"/></svg>