<svg xmlns="http://www.w3.org/2000/svg" viewBox="0 0 24 24"><path fill-rule="evenodd" d="M18.75 3H5.25a1 1 0 0 0-.128.007L6.616 4.5H18.75a.75.75 0 0 1 .75.75v12.135l1.492 1.492A1 1 0 0 0 21 18.75V5.25A2.257 2.257 0 0 0 18.75 3m-4.92 8.715 1.193 1.192q.346-.162.637-.412a2.97 2.97 0 0 0 1.012-2.4 3.1 3.1 0 0 0-1.035-2.43 4.07 4.07 0 0 0-2.79-.915H8.866l1.47 1.47h2.557c.528-.02 1.043.17 1.433.525a1.8 1.8 0 0 1 .518 1.357 1.7 1.7 0 0 1-.51 1.328 1.4 1.4 0 0 1-.503.285m-.495 1.62 5.947 5.947 1.058 1.058.285.285-1.058 1.057-.69-.69a1 1 0 0 1-.127.008H5.25A2.257 2.257 0 0 1 3 18.75V5.25a1 1 0 0 1 .008-.128l-.69-.69 1.057-1.057.285.285 1.058 1.057 4.11 4.11 1.822 1.823 1.237 1.237zM4.72 19.28c.14.14.331.22.53.22h12.135l-6.143-6.143h-.592v3.893H8.828v-6.308L4.5 6.615V18.75c0 .199.079.39.22.53" clip-rule="evenodd"/></svg>