<svg xmlns="http://www.w3.org/2000/svg" width="24" height="24"><path fill-rule="evenodd" d="M5.25 3h13.5A2.25 2.25 0 0 1 21 5.25v13.5A2.25 2.25 0 0 1 18.75 21H5.25A2.25 2.25 0 0 1 3 18.75V5.25A2.25 2.25 0 0 1 5.25 3m14.03 16.28a.75.75 0 0 0 .22-.53V5.25a.75.75 0 0 0-.75-.75H5.25a.75.75 0 0 0-.75.75v13.5a.75.75 0 0 0 .75.75h13.5a.75.75 0 0 0 .53-.22M8.827 6.75h4.017a4.06 4.06 0 0 1 2.797.917 3.09 3.09 0 0 1 1.035 2.426 2.98 2.98 0 0 1-1.014 2.404 4.26 4.26 0 0 1-2.837.859H10.65v3.894H8.827zm4.017 5.134a2.16 2.16 0 0 0 1.485-.458h-.004a1.69 1.69 0 0 0 .513-1.32 1.8 1.8 0 0 0-.52-1.36 2 2 0 0 0-1.425-.524H10.65v3.662z" clip-rule="evenodd"/></svg>