<svg xmlns="http://www.w3.org/2000/svg" viewBox="0 0 24 24"><path fill-rule="evenodd" d="M4.5 18.75V5.25a.75.75 0 0 1 .75-.75h13.5a.75.75 0 0 1 .75.75v6.5H21v-6.5A2.25 2.25 0 0 0 18.75 3H5.25A2.25 2.25 0 0 0 3 5.25v13.5A2.25 2.25 0 0 0 5.25 21h6.5v-1.5h-6.5a.75.75 0 0 1-.75-.75m7.344-12.002H7.827v10.5H9.65v-3.894h2.175a4.26 4.26 0 0 0 2.837-.859 2.98 2.98 0 0 0 1.014-2.404 3.09 3.09 0 0 0-1.035-2.426 4.06 4.06 0 0 0-2.797-.917m1.485 4.676a2.16 2.16 0 0 1-1.485.459H9.65V8.22h2.243a2 2 0 0 1 1.425.525 1.8 1.8 0 0 1 .52 1.359 1.69 1.69 0 0 1-.513 1.32zm7.442 8.035 2.76 2.76-1.061 1.06-2.76-2.76a4.134 4.134 0 1 1 1.061-1.06m-5.579-3.794a2.625 2.625 0 1 0 4.365 2.917 2.625 2.625 0 0 0-4.365-2.917" clip-rule="evenodd"/></svg>