<svg xmlns="http://www.w3.org/2000/svg" xml:space="preserve" viewBox="0 0 32 32"><path d="M6 25V7c0-.551.448-1 1-1h18c.552 0 1 .449 1 1v10h2V7c0-1.654-1.346-3-3-3H7C5.346 4 4 5.346 4 7v18c0 1.654 1.346 3 3 3h14v-2H7a1 1 0 0 1-1-1"/><path d="M17.125 9h-5.356v14h2.433v-5.192h2.894q2.434 0 3.783-1.145 1.353-1.146 1.352-3.206 0-2.011-1.38-3.234T17.125 9m1.98 6.235q-.683.61-1.98.611h-2.923v-4.884h2.991q1.21.02 1.903.697.694.678.693 1.812-.002 1.154-.684 1.764M25.477 23l1.452-3.629-1.858-.742L22.523 25h3l-1.452 3.629 1.858.742L28.477 23z"/></svg>