<svg xmlns="http://www.w3.org/2000/svg" xml:space="preserve" viewBox="0 0 32 32"><path d="m18.44 15.62 1.59 1.59c.31-.15.6-.33.85-.55.9-.76 1.35-1.83 1.35-3.2q0-2.01-1.38-3.24C19.93 9.41 18.69 9 17.13 9h-5.31l1.96 1.96h3.41c.81.01 1.44.25 1.91.7.46.45.69 1.05.69 1.81 0 .77-.23 1.36-.68 1.77-.19.16-.41.3-.67.38"/><path d="M25 4H7c-.06 0-.12 0-.17.01L8.82 6H25c.55 0 1 .45 1 1v16.18l1.99 1.99c.01-.05.01-.11.01-.17V7c0-1.65-1.35-3-3-3m.71 21.71-7.93-7.93-1.93-1.93-1.65-1.65-2.43-2.43-5.48-5.48-1.41-1.41-.38-.38-1.41 1.41.92.92C4 6.88 4 6.94 4 7v18c0 1.65 1.35 3 3 3h18c.06 0 .12 0 .17-.01l.92.92 1.41-1.41-.38-.38zM7 26c-.55 0-1-.45-1-1V8.82l5.77 5.77V23h2.43v-5.19h.79L23.18 26z"/></svg>