<svg xmlns="http://www.w3.org/2000/svg" xml:space="preserve" viewBox="0 0 32 32"><path d="M24 20H8c-1.654 0-3 1.346-3 3v4c0 1.654 1.346 3 3 3h16c1.654 0 3-1.346 3-3v-4c0-1.654-1.346-3-3-3m1 7a1 1 0 0 1-1 1H8a1 1 0 0 1-1-1v-4a1 1 0 0 1 1-1h16a1 1 0 0 1 1 1z"/><circle cx="10" cy="25" r="1"/><circle cx="14" cy="25" r="1"/><circle cx="18" cy="25" r="1"/><circle cx="22" cy="25" r="1"/><path d="M13.2 18h5.6a2.87 2.87 0 0 0 2.867-2.867v-5.6c0-1.228-.78-2.269-1.867-2.677V5.8C19.8 3.705 18.096 2 16 2s-3.8 1.705-3.8 3.8v1.057a2.86 2.86 0 0 0-1.867 2.677v5.6A2.87 2.87 0 0 0 13.2 18m6.467-2.867A.87.87 0 0 1 18.8 16h-5.6a.867.867 0 0 1-.867-.867v-5.6c0-.478.389-.867.867-.867h5.6c.479 0 .867.389.867.867zM14.2 5.8c0-.992.808-1.8 1.8-1.8s1.8.808 1.8 1.8v.867h-3.6z"/><path d="M16 10.467a1.867 1.867 0 1 0 0 3.734 1.867 1.867 0 0 0 0-3.734"/></svg>