<svg xmlns="http://www.w3.org/2000/svg" width="24" height="24"><path fill-rule="evenodd" d="M14.083 8.368a3.75 3.75 0 1 1-4.166-6.236 3.75 3.75 0 0 1 4.166 6.236m-.833-4.989a2.25 2.25 0 1 0-2.5 3.741 2.25 2.25 0 0 0 2.5-3.74m5.225 7.596 1.06 1.06-.881.881c.548.844.842 1.828.846 2.834v6.75h-15v-6.75a5.257 5.257 0 0 1 5.25-5.25h4.5c.093 0 .19.01.287.021q.072.009.146.015l1.676-1.676 1.06 1.06L6.34 21h2.11zM13.219 12H9.75A3.755 3.755 0 0 0 6 15.75v3.47zM18 21v-5.25a3.75 3.75 0 0 0-.439-1.74L10.571 21z" clip-rule="evenodd"/></svg>