<svg xmlns="http://www.w3.org/2000/svg" width="24" height="24"><path fill-rule="evenodd" d="M14.1 13.5c1.186 0 2.15-.964 2.15-2.15v-4.2c0-.921-.585-1.702-1.4-2.008V4.35A2.853 2.853 0 0 0 12 1.5a2.853 2.853 0 0 0-2.85 2.85v.793a2.15 2.15 0 0 0-1.4 2.008v4.2c0 1.185.964 2.149 2.15 2.149zm.65-2.15a.65.65 0 0 1-.65.65H9.9a.65.65 0 0 1-.65-.65v-4.2a.65.65 0 0 1 .65-.65h4.2c.36 0 .65.291.65.65zm-4.1-7c0-.744.606-1.35 1.35-1.35s1.35.606 1.35 1.35V5h-2.7zM18 15H6c-1.24 0-2.25 1.01-2.25 2.25v3c0 1.24 1.01 2.25 2.25 2.25h12c1.24 0 2.25-1.01 2.25-2.25v-3c0-1.24-1.01-2.25-2.25-2.25m.75 5.25A.75.75 0 0 1 18 21H6a.75.75 0 0 1-.75-.75v-3A.75.75 0 0 1 6 16.5h12a.75.75 0 0 1 .75.75zM7.5 19.5a.75.75 0 1 0 0-1.5.75.75 0 0 0 0 1.5m3.75-.75a.75.75 0 1 1-1.5 0 .75.75 0 0 1 1.5 0m2.25.75a.75.75 0 1 0 0-1.5.75.75 0 0 0 0 1.5m3.75-.75a.75.75 0 1 1-1.5 0 .75.75 0 0 1 1.5 0m-6.65-9.5a1.4 1.4 0 1 1 2.8 0 1.4 1.4 0 0 1-2.8 0" clip-rule="evenodd"/></svg>