<svg xmlns="http://www.w3.org/2000/svg" xml:space="preserve" viewBox="0 0 32 32"><path d="M27 9H5c-1.654 0-3 1.346-3 3v5c0 1.654 1.346 3 3 3h10v-2H5a1 1 0 0 1-1-1v-5c0-.551.448-1 1-1h22c.552 0 1 .449 1 1v2h2v-2c0-1.654-1.346-3-3-3"/><circle cx="8.5" cy="14.5" r="1.5"/><circle cx="13.5" cy="14.5" r="1.5"/><path d="M27 18.184V17c0-2.206-1.794-4-4-4s-4 1.794-4 4v1.184A3 3 0 0 0 17 21v6c0 1.654 1.346 3 3 3h6c1.654 0 3-1.346 3-3v-6a3 3 0 0 0-2-2.816M21 17c0-1.103.897-2 2-2s2 .897 2 2v1h-4zm6 10a1 1 0 0 1-1 1h-6a1 1 0 0 1-1-1v-6a1 1 0 0 1 1-1h6a1 1 0 0 1 1 1z"/><circle cx="23" cy="24" r="2"/></svg>