<svg xmlns="http://www.w3.org/2000/svg" viewBox="0 0 24 24"><path d="M12.75 2.25A9.76 9.76 0 0 0 3 12v.742l-1.608-1.608-1.06 1.061 3.418 3.419 3.419-3.419-1.061-1.06L4.5 12.743V12a8.25 8.25 0 1 1 1.747 5.077L5.065 18A9.75 9.75 0 1 0 12.75 2.25"/><path d="M13.583 12.253a1.5 1.5 0 1 0-1.667 2.495 1.5 1.5 0 0 0 1.667-2.495"/><path fill-rule="evenodd" d="M12.75 5.25a3 3 0 0 0-3 3v.889a2.25 2.25 0 0 0-1.5 2.111v4.5A2.254 2.254 0 0 0 10.5 18H15a2.254 2.254 0 0 0 2.25-2.25v-4.5a2.25 2.25 0 0 0-1.5-2.113V8.25a3 3 0 0 0-3-3m-1.5 3a1.5 1.5 0 0 1 3 0V9h-3zm4.5 7.5a.75.75 0 0 1-.75.75h-4.5a.75.75 0 0 1-.75-.75v-4.5a.75.75 0 0 1 .75-.75H15a.75.75 0 0 1 .75.75z" clip-rule="evenodd"/></svg>