<svg xmlns="http://www.w3.org/2000/svg" width="24" height="24"><path fill-rule="evenodd" d="M20.25 6.75H3.75C2.51 6.75 1.5 7.76 1.5 9v3.75C1.5 13.99 2.51 15 3.75 15h7.5v-1.5h-7.5a.75.75 0 0 1-.75-.75V9a.75.75 0 0 1 .75-.75h16.5A.75.75 0 0 1 21 9v1.5h1.5V9c0-1.24-1.01-2.25-2.25-2.25M6.375 12a1.125 1.125 0 1 0 0-2.25 1.125 1.125 0 0 0 0 2.25m4.875-1.125a1.125 1.125 0 1 1-2.25 0 1.125 1.125 0 0 1 2.25 0m9 2.763v-.888c0-1.655-1.346-3-3-3-1.655 0-3 1.345-3 3v.888c-.87.31-1.5 1.136-1.5 2.112v4.5c0 1.24 1.01 2.25 2.25 2.25h4.5c1.24 0 2.25-1.01 2.25-2.25v-4.5c0-.976-.63-1.802-1.5-2.112m-4.5-.888c0-.827.673-1.5 1.5-1.5s1.5.673 1.5 1.5v.75h-3zm4.5 7.5a.75.75 0 0 1-.75.75H15a.75.75 0 0 1-.75-.75v-4.5A.75.75 0 0 1 15 15h4.5a.75.75 0 0 1 .75.75zM18.75 18a1.5 1.5 0 1 1-3 0 1.5 1.5 0 0 1 3 0" clip-rule="evenodd"/></svg>