<svg xmlns="http://www.w3.org/2000/svg" width="24" height="24"><g clip-path="url(#a)"><path d="M19.128 8.869a5 5 0 0 0-.459-.469 5.7 5.7 0 0 0-1.288-4.113 5.64 5.64 0 0 0-4.349-2.037H5.663l-2.01 17.245h4.07l-.263 2.247h5.593l.668-4.934h1.692a4.824 4.824 0 0 0 4.758-3.97c.054-.296.08-.58.08-.868 0-1.12-.397-2.219-1.123-3.101m-7.07 3.2H8.734l-.802 5.926H5.337L7 3.75h6.033c1.238 0 2.404.546 3.195 1.496.622.75.965 1.697.965 2.664 0 .255-.023.495-.07.741a4.144 4.144 0 0 1-4.087 3.418l-.975-.002zm6.637.503a3.33 3.33 0 0 1-3.282 2.736H12.41l-.668 4.935H9.145l.087-.747h.01l.802-5.927h2.015v-.002l.973.002c1.685 0 3.27-.743 4.35-2.039a5.7 5.7 0 0 0 .827-1.36 3.35 3.35 0 0 1 .541 1.8c0 .198-.018.395-.055.602"/></g><defs><clipPath id="a"><path d="M0 0h24v24H0z"/></clipPath></defs></svg>