<svg xmlns="http://www.w3.org/2000/svg" xml:space="preserve" viewBox="0 0 32 32"><path d="M25.504 11.825a7 7 0 0 0-.612-.625q.03-.32.03-.655c0-1.754-.62-3.468-1.748-4.829A7.53 7.53 0 0 0 17.376 3H7.551L4.87 25.993h5.426l-.349 2.997h7.457l.89-6.58h2.256a6.43 6.43 0 0 0 6.345-5.293A6.5 6.5 0 0 0 27 15.96a6.52 6.52 0 0 0-1.496-4.135m-9.426 4.266h-4.434l-1.07 7.902H7.116L9.332 5h8.044a5.53 5.53 0 0 1 4.26 1.995 5.58 5.58 0 0 1 1.286 3.551c0 .341-.03.661-.094.989a5.526 5.526 0 0 1-5.45 4.557l-1.298-.003m8.846.674a4.436 4.436 0 0 1-4.376 3.648h-4.004l-.89 6.58h-3.463l.116-.997h.013l1.07-7.902h2.686v-.003l1.298.003c2.247 0 4.36-.99 5.799-2.718a7.6 7.6 0 0 0 1.104-1.815c.46.721.721 1.551.721 2.401 0 .264-.024.527-.074.803"/></svg>