<svg xmlns="http://www.w3.org/2000/svg" viewBox="0 0 32 32"><path d="M28.39 22.8c-.13-.62-.66-.9-1.12-1.14-.18-.1-.4-.21-.51-.31-.08-.07-.2-.27-.3-.42-.09-.14-.19-.28-.29-.42.01-.6-.04-1.18-.1-1.71-.27-2.24-1.43-4.11-2.37-5.61-.53-.85-1.08-1.73-1.11-2.2-.29-4.25-1.01-5.41-1.45-6.11l-.06-.1c-1.12-1.83-3.41-2.79-5.09-2.79s-3.97.96-5.09 2.79l-.06.1c-.44.7-1.17 1.86-1.45 6.11-.03.47-.58 1.35-1.11 2.2-.94 1.5-2.1 3.37-2.37 5.61-.06.55-.12 1.14-.1 1.75-.1.13-.18.26-.27.39-.1.16-.23.36-.31.42-.1.09-.33.21-.51.31-.46.25-.99.52-1.12 1.14-.29 1.33.83 2.71 1.91 3.9.11.12.2.22.25.29.92 1.86 2.59 3.02 4.17 3.02.41 0 .82-.08 1.2-.24.68-.29 1.21-.83 1.55-1.53 1.12.41 2.3.65 3.32.65s2.17-.24 3.31-.64c.34.7.87 1.24 1.54 1.52.38.16.79.24 1.2.24 1.58 0 3.25-1.15 4.17-3.02.06-.07.15-.17.25-.29 1.07-1.19 2.19-2.57 1.91-3.9ZM9.97 14.24c.72-1.16 1.34-2.16 1.41-3.12.25-3.75.83-4.68 1.15-5.18l.07-.12c.76-1.25 2.47-1.83 3.39-1.83s2.62.58 3.39 1.83l.07.11c.31.5.9 1.43 1.15 5.18.06.96.69 1.96 1.41 3.12.88 1.4 1.87 3 2.08 4.79.03.26.05.5.06.73-.13.02-.27.05-.39.08-.21.04-.47.1-.58.09-.22 0-.42-.08-.61-.15s-.46-.16-.75-.14c-.8-2.7-3.1-4.64-5.82-4.64s-5.01 1.93-5.82 4.63c-.28 0-.53.08-.72.14-.2.07-.4.14-.62.15-.14 0-.37-.05-.58-.09-.14-.03-.28-.06-.42-.08.01-.23.03-.46.06-.72.21-1.79 1.2-3.39 2.08-4.79Zm.98 13.01c-.13.33-.33.56-.59.67-.76.32-2.11-.37-2.83-1.87-.1-.2-.24-.37-.54-.69-.94-1.05-1.29-1.61-1.39-1.91.02 0 .04-.02.06-.03.28-.15.62-.33.91-.59.26-.23.45-.52.62-.78l.74-.25c.3.06.63.12.95.12.43-.01.78-.11 1.05-.2.2.33.38 1.03.54 2.09.07.47.12.76.23 1 .41.86.51 1.76.25 2.43Zm2.12-1.02c-.03-.74-.2-1.49-.54-2.2-.03-.11-.05-.29-.09-.51-.1-.68-.24-1.54-.56-2.3l.02-.2-.12-.02.12.02c.29-2.29 2.05-4.02 4.08-4.02 2.15 0 3.91 1.88 4.09 4.3-.29.74-.43 1.57-.52 2.23-.03.22-.06.4-.06.44a5.9 5.9 0 0 0-.57 2.3c-1.19.45-2.27.63-2.93.63-.7 0-1.79-.19-2.93-.66ZM25 25.37c-.29.33-.44.49-.54.69-.72 1.5-2.07 2.19-2.83 1.87-.27-.11-.47-.34-.59-.67-.25-.66-.16-1.57.26-2.43.12-.24.16-.53.23-1 .16-1.06.34-1.76.54-2.09.27.09.62.19 1.05.2.3 0 .63-.06.93-.11l.77.26c.17.26.35.54.61.77.29.26.63.44.91.59.02 0 .04.02.06.03-.11.3-.45.86-1.39 1.91Zm-9.11-12.11h.13c1.08 0 2.03-1.01 2.9-2.11l.1-.12c.34-.42.41-.95.19-1.44-.5-1.09-2.44-1.59-3.37-1.61-1.05-.06-2.47.45-3 1.37-.29.51-.28 1.08.02 1.57.01.02 1.47 2.22 3.04 2.34Zm-.1-3.28c.41 0 .91.15 1.26.3-.7.83-.99.96-1 .98-.27-.04-.86-.61-1.24-1.06.25-.12.63-.22.99-.22Z"/></svg>