<svg xmlns="http://www.w3.org/2000/svg" width="24" height="24"><g clip-path="url(#a)"><path d="M21.293 17.1c-.098-.465-.495-.675-.84-.855-.136-.075-.3-.158-.383-.233-.06-.052-.15-.202-.225-.315a8 8 0 0 0-.217-.315 10 10 0 0 0-.076-1.282c-.202-1.68-1.072-3.083-1.777-4.208-.397-.637-.81-1.297-.832-1.65-.218-3.187-.758-4.057-1.088-4.582l-.045-.075c-.84-1.373-2.558-2.093-3.818-2.093s-2.977.72-3.817 2.093l-.045.075c-.33.525-.878 1.395-1.088 4.582-.022.353-.434 1.013-.832 1.65-.705 1.125-1.575 2.528-1.777 4.208-.045.412-.09.855-.075 1.312-.075.098-.135.195-.203.293-.075.12-.173.27-.233.315-.075.067-.247.157-.382.232-.345.188-.743.39-.84.855-.218.998.622 2.033 1.433 2.925.082.09.15.165.187.218.69 1.395 1.943 2.265 3.127 2.265.308 0 .615-.06.9-.18.51-.218.908-.623 1.163-1.148.84.308 1.725.488 2.49.488s1.627-.18 2.483-.48c.255.525.652.93 1.154 1.14.285.12.593.18.9.18 1.186 0 2.438-.863 3.128-2.265.045-.053.113-.128.188-.218.802-.892 1.642-1.927 1.432-2.925zM7.478 10.68c.54-.87 1.005-1.62 1.057-2.34.188-2.813.623-3.51.863-3.885l.052-.09c.57-.938 1.853-1.373 2.543-1.373s1.964.435 2.542 1.373l.053.082c.232.375.675 1.073.862 3.885.045.72.518 1.47 1.058 2.34.66 1.05 1.402 2.25 1.56 3.593q.033.29.044.547a3 3 0 0 0-.292.06c-.157.03-.352.075-.435.068-.165 0-.315-.06-.458-.113a1.4 1.4 0 0 0-.562-.105c-.6-2.025-2.325-3.48-4.365-3.48s-3.758 1.448-4.365 3.473c-.21 0-.397.06-.54.105-.15.052-.3.105-.465.112-.105 0-.277-.037-.435-.067a5 5 0 0 0-.315-.06c.008-.173.022-.345.045-.54.157-1.343.9-2.543 1.56-3.593zm.735 9.757c-.098.248-.248.42-.443.503-.57.24-1.582-.278-2.122-1.403-.075-.15-.18-.277-.405-.517-.706-.788-.968-1.208-1.043-1.433.015 0 .03-.015.045-.022.21-.113.465-.248.683-.443.194-.172.337-.39.465-.585l.555-.187c.224.045.472.09.712.09a2.7 2.7 0 0 0 .787-.15q.225.372.406 1.567c.052.353.09.57.172.75.307.645.383 1.32.188 1.823zm1.59-.765a4.2 4.2 0 0 0-.405-1.65c-.023-.082-.038-.217-.068-.382-.075-.51-.18-1.155-.42-1.725l.015-.15c.217-1.718 1.537-3.015 3.06-3.015 1.613 0 2.933 1.41 3.068 3.225-.218.555-.323 1.177-.39 1.672-.023.165-.046.3-.046.33a4.4 4.4 0 0 0-.427 1.725c-.893.338-1.702.473-2.197.473-.526 0-1.343-.143-2.198-.495zm8.947-.645c-.218.248-.33.368-.405.518-.54 1.125-1.552 1.642-2.122 1.402-.203-.082-.353-.255-.443-.502-.187-.495-.12-1.178.195-1.823.09-.18.12-.397.173-.75q.18-1.195.404-1.567c.203.067.465.142.788.15.225 0 .473-.045.698-.083l.577.195c.128.195.263.405.458.578.217.195.472.33.682.442.015 0 .03.015.045.023-.082.225-.338.645-1.043 1.432zm-6.832-9.082h.097c.81 0 1.522-.758 2.175-1.583l.075-.09c.255-.315.307-.712.143-1.08-.375-.817-1.83-1.192-2.528-1.207-.788-.045-1.853.337-2.25 1.027-.218.383-.21.81.015 1.178.008.015 1.103 1.665 2.28 1.755zm-.075-2.46c.307 0 .682.112.944.225-.525.622-.742.72-.75.735-.202-.03-.645-.458-.93-.795.188-.09.473-.165.743-.165z"/></g><defs><clipPath id="a"><path d="M0 0h24v24H0z"/></clipPath></defs></svg>