<svg xmlns="http://www.w3.org/2000/svg" viewBox="0 0 24 24"><path d="m9.428 7.971 1.394.558-1.09 2.721h2.25l-1.91 4.778-1.394-.556 1.09-2.722h-2.25z"/><path fill-rule="evenodd" d="m16.72 4.28 1.06-1.06 3.97 3.97v8.56a2.25 2.25 0 0 1-4.5 0v-3a.75.75 0 0 0-.75-.75h-.75v7.5h1.5V21h-15v-1.5h1.5V5.25A2.25 2.25 0 0 1 6 3h7.5a2.25 2.25 0 0 1 2.25 2.25v5.25h.75a2.25 2.25 0 0 1 2.25 2.25v3a.75.75 0 1 0 1.5 0V7.81l-.75-.75-.97.97-1.06-1.06.97-.97zm-11.47.97V19.5h9V5.25a.75.75 0 0 0-.75-.75H6a.75.75 0 0 0-.75.75" clip-rule="evenodd"/></svg>