<svg xmlns="http://www.w3.org/2000/svg" viewBox="0 0 24 24"><path fill-rule="evenodd" d="m16.72 4.28 1.06-1.06 3.97 3.97v8.56a2.25 2.25 0 0 1-4.5 0v-3a.75.75 0 0 0-.75-.75h-.75v7.5h1.5V21h-15v-1.5h1.5V5.25A2.25 2.25 0 0 1 6 3h7.5a2.25 2.25 0 0 1 2.25 2.25v5.25h.75a2.25 2.25 0 0 1 2.25 2.25v3a.75.75 0 1 0 1.5 0V7.81l-.75-.75-.97.97-1.06-1.06.97-.97zm-11.47.97V19.5h9V5.25a.75.75 0 0 0-.75-.75H6a.75.75 0 0 0-.75.75m2.127 5.525L9.75 7.608l2.373 3.165a3.15 3.15 0 0 1 .3 3.29 2.92 2.92 0 0 1-2.617 1.686h-.099a2.93 2.93 0 0 1-2.63-1.686 3.15 3.15 0 0 1 .3-3.29m3.179 3.236c.226-.149.406-.36.52-.606a1.66 1.66 0 0 0-.153-1.73L9.75 10.11l-1.175 1.565a1.66 1.66 0 0 0-.15 1.73 1.45 1.45 0 0 0 1.294.845l.031.75v-.75h.043a1.45 1.45 0 0 0 .763-.239" clip-rule="evenodd"/></svg>