<svg xmlns="http://www.w3.org/2000/svg" viewBox="0 0 24 24"><path fill-rule="evenodd" d="M18.792 5.197a7.46 7.46 0 0 0-6.956-2.007l.33 1.46a5.987 5.987 0 0 1 7.166 7.18l1.463.332a7.47 7.47 0 0 0-2.003-6.965m-1.253 8.588a2.25 2.25 0 0 0-3.182 0l-2.006 2.006A12.8 12.8 0 0 1 8.21 11.65l2.006-2.007a2.25 2.25 0 0 0 0-3.182l-2.04-2.04a2.304 2.304 0 0 0-3.182 0L3.339 6.074a3.63 3.63 0 0 0-1.07 2.944 14.32 14.32 0 0 0 12.715 12.714q.18.018.362.018a3.64 3.64 0 0 0 2.575-1.085l1.659-1.659a2.25 2.25 0 0 0 0-3.181zm.98 4.161-1.659 1.66a2.13 2.13 0 0 1-1.725.634A12.81 12.81 0 0 1 3.761 8.865 2.16 2.16 0 0 1 4.4 7.136l1.654-1.654a.75.75 0 0 1 1.06 0l2.04 2.04a.75.75 0 0 1 0 1.062L6.337 11.4l.278.496a14.3 14.3 0 0 0 5.49 5.49l.495.277 2.818-2.813a.77.77 0 0 1 1.06 0l2.041 2.04a.75.75 0 0 1 0 1.06zm-.608-8.28a4.5 4.5 0 0 1-.306 2.634l-1.374-.6a2.988 2.988 0 0 0-3.93-3.949l-.6-1.376a4.49 4.49 0 0 1 6.21 3.291" clip-rule="evenodd"/></svg>