<svg xmlns="http://www.w3.org/2000/svg" viewBox="0 0 24 24"><path d="m20.325 15.075-2.037-2.04a2.25 2.25 0 0 0-3.181 0L13.1 15.041A12.8 12.8 0 0 1 8.96 10.9l2.006-2.007a2.25 2.25 0 0 0 0-3.182l-2.04-2.04a2.303 2.303 0 0 0-3.181 0L4.089 5.325A3.63 3.63 0 0 0 3.02 8.27a14.32 14.32 0 0 0 12.715 12.713q.18.018.362.018a3.64 3.64 0 0 0 2.575-1.085l1.659-1.659a2.25 2.25 0 0 0 0-3.181zm-1.06 2.12-1.655 1.66a2.13 2.13 0 0 1-1.725.635A12.81 12.81 0 0 1 4.511 8.115a2.17 2.17 0 0 1 .639-1.73l1.654-1.654a.75.75 0 0 1 1.06 0l2.04 2.042a.75.75 0 0 1 0 1.06L7.087 10.65l.278.496a14.3 14.3 0 0 0 5.49 5.49l.495.277 2.818-2.813a.77.77 0 0 1 1.06 0l2.041 2.04a.747.747 0 0 1 0 1.06z"/></svg>