<svg xmlns="http://www.w3.org/2000/svg" viewBox="0 0 24 24"><path fill-rule="evenodd" d="M18.75 3h-12A2.25 2.25 0 0 0 4.5 5.25V7.5H3V9h1.5v2.25H3v1.5h1.5V15H3v1.5h1.5v2.25A2.25 2.25 0 0 0 6.75 21h12A2.25 2.25 0 0 0 21 18.75V5.25A2.25 2.25 0 0 0 18.75 3m.75 15.75a.75.75 0 0 1-.75.75h-12a.75.75 0 0 1-.75-.75V16.5h1.5V15H6v-2.25h1.5v-1.5H6V9h1.5V7.5H6V5.25a.75.75 0 0 1 .75-.75h12a.75.75 0 0 1 .75.75zm-6-8.25a2.25 2.25 0 1 0 0-4.5 2.25 2.25 0 0 0 0 4.5m0-3a.75.75 0 1 1 0 1.5.75.75 0 0 1 0-1.5m-3.4 4.85a3.75 3.75 0 0 1 2.65-1.1h1.5A3.754 3.754 0 0 1 18 15v3H9v-3a3.75 3.75 0 0 1 1.1-2.65m.4 2.65v1.5h6V15a2.25 2.25 0 0 0-2.25-2.25h-1.5A2.25 2.25 0 0 0 10.5 15" clip-rule="evenodd"/></svg>