<svg xmlns="http://www.w3.org/2000/svg" xml:space="preserve" viewBox="0 0 32 32"><path d="M9.599 19.573c-1.949-2.466-3.244-5.471-3.584-8.755-.086-.824.232-1.686.851-2.304l2.206-2.206a1 1 0 0 1 .706-.292c.267 0 .518.104.707.293l2.721 2.721c.39.39.39 1.024 0 1.415l-3.758 3.757.37.661c.53.946 1.145 1.834 1.822 2.67l1.417-1.417a17 17 0 0 1-1.112-1.582l2.675-2.675a3.003 3.003 0 0 0 0-4.243l-2.721-2.721c-1.134-1.135-3.112-1.132-4.242 0L5.452 7.099c-1.056 1.055-1.576 2.486-1.428 3.926.389 3.752 1.89 7.181 4.152 9.971zm17.506.528-2.721-2.721a3 3 0 0 0-4.242 0l-2.675 2.675a17 17 0 0 1-1.583-1.112l12.03-12.029L26.5 5.5 14.386 17.614l-1.414 1.414-2.052 2.052-1.412 1.412L5.5 26.5l1.414 1.414 4.09-4.09c2.791 2.263 6.222 3.765 9.975 4.153q.242.025.482.024c1.271 0 2.5-.513 3.433-1.446l2.212-2.212c.566-.566.879-1.32.879-2.122a2.98 2.98 0 0 0-.88-2.12m-1.414 2.827-2.211 2.213c-.624.623-1.467.933-2.296.846-3.285-.339-6.291-1.634-8.758-3.585l2.042-2.042a19 19 0 0 0 2.671 1.822l.66.37 3.758-3.758a1.025 1.025 0 0 1 1.414 0l2.721 2.721a1 1 0 0 1-.001 1.413"/></svg>