<svg xmlns="http://www.w3.org/2000/svg" xml:space="preserve" viewBox="0 0 32 32"><path d="M23.385 18.38a3 3 0 0 0-4.242 0l-2.675 2.675a17.05 17.05 0 0 1-5.522-5.522l2.675-2.675a3.003 3.003 0 0 0 0-4.243L10.9 5.894c-1.134-1.134-3.112-1.132-4.242 0L4.452 8.099c-1.056 1.055-1.576 2.486-1.428 3.926.922 8.903 8.053 16.032 16.955 16.952q.242.025.482.024c1.271 0 2.5-.513 3.433-1.446l2.212-2.212c.566-.566.879-1.32.879-2.122a2.98 2.98 0 0 0-.88-2.12zm1.306 5.548-2.211 2.213c-.623.623-1.464.934-2.296.846-7.966-.822-14.346-7.201-15.17-15.167-.086-.825.232-1.687.852-2.305l2.206-2.206a1 1 0 0 1 .706-.293c.267 0 .518.104.707.293l2.721 2.721c.39.39.39 1.024 0 1.415l-3.758 3.757.37.661a19.06 19.06 0 0 0 7.32 7.32l.66.37 3.758-3.758a1.025 1.025 0 0 1 1.414 0l2.721 2.721a1 1 0 0 1 0 1.412"/><path d="M18.667 5v2h4.919l-6.293 6.293 1.414 1.414L25 8.414v4.003h2V5z"/></svg>