<svg xmlns="http://www.w3.org/2000/svg" xml:space="preserve" viewBox="0 0 32 32"><path d="M25 4H9C7.346 4 6 5.346 6 7v3H4v2h2v3H4v2h2v3H4v2h2v3c0 1.654 1.346 3 3 3h16c1.654 0 3-1.346 3-3V7c0-1.654-1.346-3-3-3m1 21a1 1 0 0 1-1 1H9a1 1 0 0 1-1-1v-3h2v-2H8v-3h2v-2H8v-3h2v-2H8V7c0-.551.448-1 1-1h16c.552 0 1 .449 1 1z"/><path d="M18 14a3 3 0 1 0 0-6 3 3 0 0 0 0 6m0-4c.551 0 1 .449 1 1s-.449 1-1 1-1-.449-1-1 .449-1 1-1m1 5h-2c-2.757 0-5 2.243-5 5v4h12v-4c0-2.757-2.243-5-5-5m3 7h-8v-2c0-1.654 1.346-3 3-3h2c1.654 0 3 1.346 3 3z"/></svg>