<svg xmlns="http://www.w3.org/2000/svg" viewBox="0 0 24 24"><path d="M11.25 15.69c0-.195.082-.39.217-.525.278-.285.78-.285 1.065 0a.755.755 0 0 1 0 1.058.9.9 0 0 1-.247.165.8.8 0 0 1-.285.052.7.7 0 0 1-.285-.053.74.74 0 0 1-.465-.697"/><path fill-rule="evenodd" d="M9.75 4.5h4.5c1.24 0 2.25 1.01 2.25 2.25v10.5c0 1.24-1.01 2.25-2.25 2.25h-4.5c-1.24 0-2.25-1.01-2.25-2.25V6.75c0-1.24 1.01-2.25 2.25-2.25m4.5 13.5a.75.75 0 0 0 .75-.75V6.75a.75.75 0 0 0-.75-.75h-4.5a.75.75 0 0 0-.75.75v10.5c0 .414.336.75.75.75z" clip-rule="evenodd"/><path d="m3.225 6.3-1.2.9 1.86 2.48L1.565 12l2.32 2.32-1.86 2.48 1.2.9 2.64-3.52L3.685 12l2.18-2.18zm16.89 3.38 2.32 2.32-2.32 2.32 1.86 2.48-1.2.9-2.64-3.52 2.18-2.18-2.18-2.18 2.64-3.52 1.2.9z"/></svg>