<svg xmlns="http://www.w3.org/2000/svg" width="24" height="24"><path fill-rule="evenodd" d="M16.06 9h3.69v1.5H13.5V4.94H15v3l4.72-4.72 1.06 1.06zm-.112 4.126a2.25 2.25 0 0 1 1.59.659l2.042 2.04a2.25 2.25 0 0 1 0 3.182l-1.66 1.66a3.64 3.64 0 0 1-2.936 1.066A14.32 14.32 0 0 1 2.268 9.019 3.63 3.63 0 0 1 3.34 6.075L4.994 4.42a2.304 2.304 0 0 1 3.181 0l2.04 2.041a2.25 2.25 0 0 1 0 3.182L8.21 11.65a12.8 12.8 0 0 0 4.141 4.141l2.006-2.006a2.25 2.25 0 0 1 1.591-.659m.912 6.48 1.658-1.66v.004a.747.747 0 0 0 0-1.06l-2.04-2.04a.77.77 0 0 0-1.06 0l-2.82 2.813-.494-.277a14.3 14.3 0 0 1-5.49-5.49l-.278-.496 2.819-2.816a.75.75 0 0 0 0-1.062l-2.041-2.04a.75.75 0 0 0-1.06 0L4.4 7.136a2.16 2.16 0 0 0-.64 1.729A12.81 12.81 0 0 0 15.136 20.24a2.13 2.13 0 0 0 1.725-.634" clip-rule="evenodd"/></svg>