<svg xmlns="http://www.w3.org/2000/svg" viewBox="0 0 24 24"><path d="M4.512 8.114A12.7 12.7 0 0 0 7.2 14.68l-1.068 1.07a14.2 14.2 0 0 1-3.11-7.48 3.63 3.63 0 0 1 1.072-2.945l1.65-1.65a2.303 2.303 0 0 1 3.181 0l2.04 2.035a2.25 2.25 0 0 1 0 3.183l-2.006 2.006q.383.616.834 1.187L8.73 13.147a14.3 14.3 0 0 1-1.366-2.002l-.278-.496 2.819-2.816a.75.75 0 0 0 0-1.061L7.864 4.73a.75.75 0 0 0-1.06 0L5.15 6.388a2.16 2.16 0 0 0-.638 1.726"/><path fill-rule="evenodd" d="m18.288 13.035 2.037 2.04h.002a2.25 2.25 0 0 1 0 3.182l-1.66 1.66a3.64 3.64 0 0 1-2.936 1.066 14.2 14.2 0 0 1-7.481-3.115l-3.064 3.068-1.061-1.061 15.75-15.75 1.06 1.06-9.022 9.022q.57.45 1.187.834l2.007-2.006a2.25 2.25 0 0 1 3.181 0m-.678 5.82 1.655-1.66h.004a.746.746 0 0 0 0-1.06l-2.04-2.041a.77.77 0 0 0-1.061 0l-2.819 2.819-.495-.278a14.3 14.3 0 0 1-2.003-1.367L9.319 16.8a12.7 12.7 0 0 0 6.566 2.69 2.13 2.13 0 0 0 1.725-.634" clip-rule="evenodd"/></svg>