<svg xmlns="http://www.w3.org/2000/svg" viewBox="0 0 32 32"><path d="M30 7.87v7.65h-2V7.87C28 6.84 27.2 6 26.21 6H5.79C4.8 6 4 6.84 4 7.87v10.72l4-4 4 4 9-9 2.9 2.9-1.41 1.41-1.48-1.48-7.59 7.59 1.29 1.29-1.41 1.41-5.29-5.29-4 4v2.72c0 1.03.8 1.87 1.79 1.87h8.21v2H5.79C3.7 28.01 2 26.27 2 24.14V7.87C2 5.74 3.7 4 5.79 4h20.43c2.09 0 3.79 1.74 3.79 3.87ZM12 8c1.65 0 3 1.35 3 3s-1.35 3-3 3-3-1.35-3-3 1.35-3 3-3m0 2c-.55 0-1 .45-1 1s.45 1 1 1 1-.45 1-1-.45-1-1-1m15.38 12H30v2h-2.62c-.11.5-.31.96-.58 1.39l1.86 1.86-1.41 1.41-1.86-1.86a4.5 4.5 0 0 1-1.39.58V30h-2v-2.62c-.5-.11-.96-.31-1.39-.58l-1.86 1.86-1.41-1.41 1.86-1.86a4.5 4.5 0 0 1-.58-1.39H16v-2h2.62c.11-.5.31-.96.58-1.39l-1.86-1.86 1.41-1.41 1.86 1.86a4.5 4.5 0 0 1 1.39-.58V16h2v2.62c.5.11.96.31 1.39.58l1.86-1.86 1.41 1.41-1.86 1.86c.27.42.46.89.58 1.39m-1.88 1a2.5 2.5 0 0 0-5 0 2.5 2.5 0 0 0 5 0"/></svg>