<svg xmlns="http://www.w3.org/2000/svg" viewBox="0 0 24 24"><path d="M22.5 5.903V12H21V5.903c0-.773-.6-1.403-1.343-1.403H4.343C3.6 4.5 3 5.13 3 5.902v8.04l3-3 3 3 6.75-6.75 3.532 3.533-1.057 1.058-2.468-2.468-5.692 5.693 1.718 1.717-1.058 1.057-4.717-4.717-3 3v2.04c0 .773.6 1.402 1.342 1.402h9.158v1.5H4.343c-1.568 0-2.843-1.305-2.843-2.902V5.903C1.5 4.305 2.775 3 4.343 3h15.322c1.568 0 2.843 1.305 2.843 2.903zM9 6a2.257 2.257 0 0 1 2.25 2.25A2.257 2.257 0 0 1 9 10.5a2.257 2.257 0 0 1-2.25-2.25A2.257 2.257 0 0 1 9 6m0 1.5a.75.75 0 0 0-.75.75c0 .412.338.75.75.75s.75-.338.75-.75A.75.75 0 0 0 9 7.5m10.5 6H18v3h-3V18h3v3h1.5v-3h3v-1.5h-3z"/></svg>