<svg xmlns="http://www.w3.org/2000/svg" viewBox="0 0 24 24"><g clip-path="url(#a)"><path d="M19.658 3H4.342C2.775 3 1.5 4.305 1.5 5.903v12.195C1.5 19.695 2.775 21 4.343 21H10.5v-1.5H4.343C3.6 19.5 3 18.87 3 18.098v-2.04l3-3 3.967 3.967 1.058-1.057-.968-.968 5.693-5.693 1.11 1.11 1.058-1.057-2.175-2.175-6.75 6.75-3-3-3 3V5.902c0-.772.6-1.402 1.342-1.402h15.322C20.4 4.5 21 5.13 21 5.902v5.738h1.5V5.902C22.5 4.306 21.225 3 19.657 3"/><path d="M6.75 8.25A2.257 2.257 0 0 0 9 10.5a2.257 2.257 0 0 0 2.25-2.25A2.257 2.257 0 0 0 9 6a2.257 2.257 0 0 0-2.25 2.25m3 0c0 .412-.338.75-.75.75a.75.75 0 0 1-.75-.75c0-.412.338-.75.75-.75s.75.338.75.75m10.35 7.208 1.395-1.396-1.058-1.057-1.395 1.395A3.4 3.4 0 0 0 18 13.965V12h-1.5v1.965c-.375.082-.72.232-1.043.435l-1.395-1.395-1.057 1.057 1.395 1.396a3.4 3.4 0 0 0-.435 1.042H12V18h1.965c.082.375.232.72.435 1.043l-1.395 1.395 1.057 1.057 1.396-1.395c.315.202.667.345 1.042.435V22.5H18v-1.965a3.3 3.3 0 0 0 1.043-.435l1.395 1.395 1.057-1.058-1.395-1.395c.202-.315.345-.667.435-1.042H22.5v-1.5h-1.965a3.3 3.3 0 0 0-.435-1.043m-2.85 3.667a1.876 1.876 0 1 1 .001-3.751 1.876 1.876 0 0 1-.001 3.751"/></g><defs><clipPath id="a"><path d="M0 0h24v24H0z"/></clipPath></defs></svg>