<svg xmlns="http://www.w3.org/2000/svg" viewBox="0 0 24 24"><path fill-rule="evenodd" d="M3.75 3.75h16.5A2.25 2.25 0 0 1 22.5 6v12.75A2.25 2.25 0 0 1 20.25 21H3.75a2.25 2.25 0 0 1-2.25-2.25V6a2.25 2.25 0 0 1 2.25-2.25m16.5 1.5H3.75A.75.75 0 0 0 3 6v8.69l3-3 3 3 6.75-6.75L21 13.19V6a.75.75 0 0 0-.75-.75M3.75 19.5h16.5a.75.75 0 0 0 .75-.75v-3.44l-5.25-5.25-5.69 5.69.97.97-1.06 1.06L6 13.81l-3 3v1.94a.75.75 0 0 0 .75.75m6.5-8.63a2.25 2.25 0 1 1-2.5-3.741 2.25 2.25 0 0 1 2.5 3.742m-.833-2.494a.75.75 0 1 0-.834 1.248.75.75 0 0 0 .834-1.248" clip-rule="evenodd"/></svg>