<svg xmlns="http://www.w3.org/2000/svg" viewBox="0 0 32 32"><path d="m27.27 9.68-4.95-4.95c-.97-.98-2.56-.97-3.53 0l-.71.71c-.83.82-.96 2.08-.39 3.03l-3.91 2.49 1.44 1.44 3.85-2.43 3.3 3.3-2.44 3.84 1.45 1.45 2.58-4.06a2.47 2.47 0 0 0 2.6-.58l.71-.7c.47-.47.73-1.1.73-1.77s-.26-1.3-.73-1.77m-1.41 2.12-.71.71a.52.52 0 0 1-.69.02l-4.97-4.97a.513.513 0 0 1 0-.71l.71-.7c.1-.1.22-.15.35-.15s.26.05.36.14l4.95 4.95c.12.13.14.28.14.36s-.02.23-.14.35m-5.57 8.49-8.24-8.24-1.4-1.4L5.5 5.5 4.09 6.91l4.85 4.85-2.53 2.52 4.95 4.95-7.07 7.07 1.41 1.41 7.07-7.07 4.96 4.95 2.52-2.52 4.84 4.84 1.41-1.41-5.16-5.16zm-2.56 2.47-8.49-8.48 1.11-1.11 8.49 8.49z"/></svg>