<svg xmlns="http://www.w3.org/2000/svg" width="24" height="24"><g clip-path="url(#a)"><path d="M20.453 7.26 16.74 3.547a1.87 1.87 0 0 0-2.647 0l-.533.533a1.86 1.86 0 0 0-.293 2.272L10.336 8.22l1.08 1.08 2.888-1.823 2.474 2.475-1.83 2.88 1.088 1.088 1.935-3.045a1.85 1.85 0 0 0 1.95-.435l.532-.525c.353-.353.548-.825.548-1.328 0-.502-.195-.975-.547-1.327m-1.058 1.59-.532.532a.39.39 0 0 1-.518.015L14.618 5.67a.385.385 0 0 1 0-.533l.532-.525a.36.36 0 0 1 .262-.112c.098 0 .195.037.27.105l3.713 3.712a.4.4 0 0 1 .105.27c0 .06-.015.173-.105.263m-4.177 6.368-6.18-6.18-1.05-1.05-3.863-3.863-1.057 1.057L6.704 8.82l-1.897 1.89 3.712 3.712-5.302 5.303 1.057 1.057 5.303-5.302 3.72 3.712 1.89-1.89 3.63 3.63 1.057-1.057-3.87-3.87zm-1.92 1.852L6.93 10.71l.833-.833 6.367 6.368z"/></g><defs><clipPath id="a"><path d="M0 0h24v24H0z"/></clipPath></defs></svg>