<svg xmlns="http://www.w3.org/2000/svg" width="24" height="24"><path d="m20.453 7.26-3.712-3.713a1.874 1.874 0 0 0-2.652 0l-.53.53a1.876 1.876 0 0 0-.284 2.273L9.954 8.456a2.245 2.245 0 0 0-3.023.13l-2.121 2.12 3.712 3.713-5.303 5.306 1.06 1.057 5.304-5.302 3.711 3.712 2.121-2.121a2.225 2.225 0 0 0 .349-2.716l2.205-3.48q.305.11.629.114a1.87 1.87 0 0 0 1.326-.548l.53-.53a1.875 1.875 0 0 0 0-2.651m-6.098 8.75-1.06 1.061-6.365-6.364 1.06-1.06a.75.75 0 0 1 1.061 0l1.031 1.03 4.275 4.275a.74.74 0 0 1-.002 1.059m.367-2.814-2.674-2.674-.99-.99 3.247-2.058 1.187 1.188L16.78 9.95zm4.67-4.346-.53.53a.38.38 0 0 1-.529 0L14.62 5.669a.38.38 0 0 1 0-.53l.53-.53a.38.38 0 0 1 .531 0l3.712 3.713a.375.375 0 0 1 0 .53z"/></svg>