<svg xmlns="http://www.w3.org/2000/svg" width="24" height="24"><path d="M22.5 16.858V13.6a2.26 2.26 0 0 0-1.092-1.93L15 7.826V4.627a3.066 3.066 0 0 0-2.84-3.123 2.97 2.97 0 0 0-2.225.82A3 3 0 0 0 9 4.5v3.326L2.592 11.67A2.26 2.26 0 0 0 1.5 13.6v3.258l7.5-3v3.081l-2.25 2.25v3.265L12 21.03l5.25 1.425V19.19L15 16.94v-3.081zm-6.75 2.953v.681L12 19.473l-3.75 1.02v-.682l2.25-2.25v-5.919l-7.5 3V13.6a.75.75 0 0 1 .364-.643L10.5 8.675V4.5a1.5 1.5 0 0 1 .468-1.088A1.5 1.5 0 0 1 12.081 3 1.59 1.59 0 0 1 13.5 4.628v4.05l7.136 4.281a.75.75 0 0 1 .364.643v1.043l-7.5-3v5.919z"/></svg>