<svg xmlns="http://www.w3.org/2000/svg" width="24" height="24"><path fill-rule="evenodd" d="M20.25 4.5H3.75A2.25 2.25 0 0 0 1.5 6.75v10.5a2.25 2.25 0 0 0 2.25 2.25h16.5a2.25 2.25 0 0 0 2.25-2.25V6.75a2.25 2.25 0 0 0-2.25-2.25M21 17.25a.75.75 0 0 1-.75.75H3.75a.75.75 0 0 1-.75-.75V6.75A.75.75 0 0 1 3.75 6h16.5a.75.75 0 0 1 .75.75zM5.625 7.5a1.125 1.125 0 1 1 0 2.25 1.125 1.125 0 0 1 0-2.25M19 7.69a1.125 1.125 0 1 0-1.25 1.87A1.125 1.125 0 0 0 19 7.69M5.625 14.25a1.125 1.125 0 1 1 0 2.25 1.125 1.125 0 0 1 0-2.25M19 14.44a1.125 1.125 0 1 0-1.25 1.87A1.125 1.125 0 0 0 19 14.44" clip-rule="evenodd"/></svg>