<svg xmlns="http://www.w3.org/2000/svg" viewBox="0 0 24 24"><path d="M19.303 9.375 13.4 6.112 7.48 2.753A3 3 0 0 0 3 5.363v13.275a3.01 3.01 0 0 0 3 3.004 3 3 0 0 0 1.48-.394l5.915-3.355 5.909-3.268a3 3 0 0 0-.001-5.25m-4.285-.655-1.757 2.108-4.855-5.825 4.262 2.418zM4.5 18.638V5.363a1.48 1.48 0 0 1 .745-1.296q.151-.084.317-.133L12.284 12l-6.722 8.066a1.6 1.6 0 0 1-.317-.132 1.49 1.49 0 0 1-.745-1.296m8.162-2.055-4.255 2.413 4.853-5.824 1.757 2.108zm5.915-3.27-2.222 1.228-2.118-2.54 2.118-2.542 2.221 1.229a1.5 1.5 0 0 1 0 2.625"/></svg>