<svg xmlns="http://www.w3.org/2000/svg" xml:space="preserve" viewBox="0 0 32 32"><path d="m25.737 12.5-7.869-4.351-7.894-4.478c-1.253-.711-2.744-.701-3.988.023S4 5.711 4 7.15v17.7c0 1.439.743 2.731 1.987 3.457.629.366 1.32.549 2.013.549.677 0 1.354-.176 1.974-.526l7.886-4.473 7.878-4.356a3.95 3.95 0 0 0 2.063-3.5 3.95 3.95 0 0 0-2.064-3.501m-5.713-.874-2.343 2.811-6.473-7.767 5.683 3.224zM6 24.85V7.15c0-.72.371-1.366.993-1.728a2 2 0 0 1 .423-.177L16.378 16 7.416 26.755a2 2 0 0 1-.422-.177A1.98 1.98 0 0 1 6 24.85m10.882-2.739-5.673 3.217 6.471-7.766 2.343 2.811zm7.887-4.361-2.962 1.638L18.983 16l2.823-3.388 2.962 1.638A1.98 1.98 0 0 1 25.8 16a1.97 1.97 0 0 1-1.031 1.75"/></svg>