<svg xmlns="http://www.w3.org/2000/svg" viewBox="0 0 24 24"><path d="M16.5 6H15v1.5h1.5z"/><path fill-rule="evenodd" d="m20.943 10.071 1.23.858a6 6 0 0 1-2.673 2.126v4.195a5.257 5.257 0 0 1-5.25 5.25h-3V18h3a.75.75 0 0 0 .75-.75v-4.189a6 6 0 0 1-1.884-1.218 5.984 5.984 0 0 1-10-3.15A6.3 6.3 0 0 1 3.008 7.5H3q0-.036.004-.07l.003-.033q0-.038.004-.077.004-.048.005-.096.009-.24.039-.478.008-.065.02-.129l.006-.04a6 6 0 0 1 .343-1.27q.07-.175.15-.342l.017-.036a6 6 0 0 1 .102-.212q.067-.126.142-.247l.018-.031.038-.063q.06-.106.127-.208.046-.066.094-.13a5 5 0 0 0 .122-.168c.045-.063.088-.125.138-.185q.106-.124.219-.24l.182-.194q.128-.124.263-.24l.03-.026.033-.029q.064-.058.13-.114.15-.118.308-.229.093-.068.19-.132a6 6 0 0 1 .539-.313q.152-.081.308-.15l.1-.041.207-.083a5 5 0 0 1 .261-.095q.162-.052.329-.094l.078-.021q.094-.027.189-.048a6 6 0 0 1 .408-.068l.084-.014q.061-.011.129-.019Q8.679 1.5 9 1.5h5.25a5.256 5.256 0 0 1 5.25 5.25v4.638a4.5 4.5 0 0 0 1.443-1.317m-15.142.607a4.47 4.47 0 0 0 2.264 1.226 4.44 4.44 0 0 0 4.109-1.24 6 6 0 0 1-.675-1.447l1.437-.427a4.4 4.4 0 0 0 .932 1.658l.011.012q.107.126.223.242a4 4 0 0 0 .402.347q.056.045.114.088a5 5 0 0 0 .487.304q.052.032.108.062.211.104.433.186l.081.032q.076.033.155.059c.442.144.903.218 1.368.22q.378-.004.75-.07V6.75A3.755 3.755 0 0 0 14.25 3h-1.291c.464.406.863.88 1.184 1.408l-1.285.774a4.47 4.47 0 0 0-4.337-2.155q-.049.005-.097.014l-.06.01a5 5 0 0 0-.309.052q-.068.015-.136.034l-.061.017a5 5 0 0 0-.25.07q-.103.035-.202.074l-.015.006-.02.007a3 3 0 0 0-.189.078 4.7 4.7 0 0 0-1.086.685l-.045.04-.016.014q-.105.09-.204.186l-.048.052-.034.037a4.5 4.5 0 0 0-.425.518q-.032.04-.06.082-.053.08-.1.163l-.024.04-.021.036a4 4 0 0 0-.1.175q-.039.074-.073.15l-.014.03a4 4 0 0 0-.171.418 4 4 0 0 0-.1.326l-.014.055-.017.064a4 4 0 0 0-.074.375l-.005.026q-.006.034-.01.07-.025.195-.032.391l-.002.038-.003.065q-.01.496.084.983a4.47 4.47 0 0 0 1.213 2.27m11.1 9.222A3.75 3.75 0 0 0 18 17.25v-3.799q-.374.049-.75.049a6 6 0 0 1-.75-.062v3.812a2.25 2.25 0 0 1-2.25 2.25h-1.5V21h1.5a3.75 3.75 0 0 0 2.65-1.1" clip-rule="evenodd"/></svg>