<svg xmlns="http://www.w3.org/2000/svg" xml:space="preserve" viewBox="0 0 32 32"><path d="m29.565 14.572-1.641-1.144a6 6 0 0 1-1.925 1.756V9c0-3.86-3.141-7-7-7h-7q-.433.001-.855.047c-.095.01-.189.03-.283.043a8 8 0 0 0-.545.091c-.12.026-.238.061-.356.092a8 8 0 0 0-.438.125c-.133.043-.263.094-.393.144a7.3 7.3 0 0 0-1.08.511q-.212.12-.417.254-.13.085-.255.176a8 8 0 0 0-.409.306q-.111.093-.218.19c-.133.116-.266.23-.391.355-.054.054-.102.112-.155.167-.128.135-.26.266-.379.411-.098.12-.182.248-.273.372-.066.091-.137.179-.2.273-.078.117-.147.239-.219.36q-.112.183-.214.371-.083.164-.159.331-.106.224-.198.456a7 7 0 0 0-.107.292 8 8 0 0 0-.233.792q-.07.3-.117.609-.019.112-.035.226-.039.316-.052.637-.008.116-.012.231c0 .046-.006.091-.006.138h.011c-.001.528.041 1.06.143 1.591.602 3.107 3.095 5.615 6.202 6.243a8 8 0 0 0 7.132-2.042A7.9 7.9 0 0 0 20 17.415V23a1 1 0 0 1-1 1h-4v6h4c3.859 0 7-3.141 7-7v-5.594a8 8 0 0 0 3.565-2.834m-18.812 1.301c-2.323-.469-4.186-2.343-4.636-4.663a6.3 6.3 0 0 1-.112-1.314l.007-.137q.01-.262.042-.522l.02-.128q.038-.252.096-.5l.04-.158a6 6 0 0 1 .134-.435q.035-.1.073-.2.071-.18.155-.357.056-.122.116-.241.077-.141.161-.28c.054-.091.106-.183.165-.271.046-.068.098-.133.147-.2q.23-.315.497-.597.054-.06.11-.119.143-.138.293-.267l.165-.143a6 6 0 0 1 .304-.227 5 5 0 0 1 .737-.449q.15-.078.306-.148.137-.06.278-.113.143-.057.29-.106.166-.052.333-.094c.088-.023.174-.049.263-.068.136-.029.274-.049.412-.069.07-.01.139-.025.21-.032a5.96 5.96 0 0 1 5.785 2.874l1.713-1.032A8 8 0 0 0 17.278 4H19c2.757 0 5 2.243 5 5v6.906A6 6 0 0 1 23 16c-.63 0-1.243-.107-1.824-.294-.108-.034-.21-.081-.315-.121a6 6 0 0 1-.577-.248c-.08-.041-.155-.09-.233-.134a6 6 0 0 1-.561-.353c-.087-.064-.169-.135-.253-.203a6 6 0 0 1-.435-.38c-.109-.107-.21-.224-.311-.34a5.9 5.9 0 0 1-1.243-2.21l-1.916.57c.207.695.524 1.333.899 1.929-1.428 1.451-3.426 2.074-5.478 1.657M24 23c0 2.757-2.243 5-5 5h-2v-2h2c1.654 0 3-1.346 3-3v-5.083c.33.043.661.083 1 .083q.505-.001 1-.065z"/><path d="M20 8h2v2h-2z"/></svg>