<svg xmlns="http://www.w3.org/2000/svg" width="24" height="24"><g clip-path="url(#a)"><path fill-rule="evenodd" d="M5.25 3h13.5C19.99 3 21 4.01 21 5.25v13.5c0 1.24-1.01 2.25-2.25 2.25H5.25C4.01 21 3 19.99 3 18.75V5.25C3 4.01 4.01 3 5.25 3m13.5 1.5H5.25a.75.75 0 0 0-.75.75v10.638c.236-.084.486-.138.75-.138h13.5c.264 0 .515.054.75.138V5.25a.75.75 0 0 0-.75-.75m0 15a.75.75 0 0 0 .75-.75V18a.75.75 0 0 0-.75-.75H5.25a.75.75 0 0 0-.75.75v.75c0 .414.336.75.75.75zm-6.428-4.972-1.394-.556 1.09-2.722h-2.25l1.91-4.779 1.394.558-1.09 2.721h2.25z" clip-rule="evenodd"/></g><defs><clipPath id="a"><path d="M0 0h24v24H0z"/></clipPath></defs></svg>