<svg xmlns="http://www.w3.org/2000/svg" viewBox="0 0 24 24"><path d="m19.89 1.635-.143 1.073a4.1 4.1 0 0 1-.555 1.597c-.06-1.155-.524-2.085-.555-2.152l-1.335.682s.855 1.733.06 2.97a5.3 5.3 0 0 1-2.07.428H8.04c-3.562 0-6.465 2.977-6.465 6.637 0 3.465 2.513 6.323 5.768 6.78.315 1.29 1.672 2.37 3.472 2.61l1.605.217c.098.015.188.023.285.023.66 0 1.223-.323 1.455-.848.225-.524.06-1.117-.42-1.515l-.728-.592.84-.375c.563-.255.878-.78.796-1.343-.098-.652-.683-1.162-1.463-1.267l-1.613-.217c-1.244-.173-2.444.105-3.284.75-.045.037-.083.075-.128.112a4.4 4.4 0 0 1 1.11-3.195 4.08 4.08 0 0 1 3.135-1.35c1.935-.075 3.668-1.305 4.418-3.142l.915-2.25a6.7 6.7 0 0 0 1.147-.548c.15-.09.285-.187.427-.292 1.028-.788 1.733-2.063 1.92-3.51l.143-1.073-1.485-.195zM3.075 12.885c.653.998 1.8 2.01 3.795 2.475-.202.727-.27 1.5-.18 2.273l.045.352c-2.107-.668-3.652-2.7-3.66-5.1m6.128 5.393c.405-.316 1.005-.488 1.657-.488q.259.002.518.038l1.38.187-.99.442c-.368.165-.608.473-.653.833-.045.367.105.727.42.983l.84.69-1.357-.188c-1.298-.172-2.355-1.02-2.25-1.807.037-.323.262-.555.442-.69zM8.168 12.99q-.403.45-.705.967c-3.533-.705-3.735-3.367-3.75-3.6a5.02 5.02 0 0 1 2.632-2.31c.165 1.126.795 2.865 2.985 3.983a5.7 5.7 0 0 0-1.162.968zm7.267-4.042c-.525 1.29-1.732 2.16-3.045 2.212a6 6 0 0 0-.953.075c-2.94-.772-3.54-2.557-3.644-3.487.075 0 .157-.015.232-.015h7.252c.226 0 .443-.023.66-.045l-.51 1.26z"/><path d="M12 8.52a.78.78 0 1 0-.001 1.559A.78.78 0 0 0 12 8.52"/></svg>