<svg xmlns="http://www.w3.org/2000/svg" xml:space="preserve" viewBox="0 0 32 32"><path d="M8 22H6v-7c0-.551.448-1 1-1h18c.552 0 1 .449 1 1h2c0-1.654-1.346-3-3-3h-1V4H8v8H7c-1.654 0-3 1.346-3 3v9h4v4h6v-2h-4v-4h4v-2H8zm2-16h12v6H10z"/><path d="M8 16h2v2H8zm21 8v-2h-2.621a4.4 4.4 0 0 0-.579-1.386l1.857-1.857-1.414-1.414-1.857 1.857A4.4 4.4 0 0 0 23 18.621V16h-2v2.621c-.5.114-.965.313-1.386.579l-1.857-1.857-1.414 1.414 1.857 1.857A4.4 4.4 0 0 0 17.621 22H15v2h2.621c.114.5.313.965.579 1.386l-1.857 1.857 1.414 1.414 1.857-1.857c.421.266.887.465 1.386.579V30h2v-2.621c.5-.114.965-.313 1.386-.579l1.857 1.857 1.414-1.414-1.857-1.857c.266-.421.465-.887.579-1.386zm-7 1.5c-1.379 0-2.5-1.121-2.5-2.5s1.121-2.5 2.5-2.5 2.5 1.121 2.5 2.5-1.121 2.5-2.5 2.5"/></svg>