<svg xmlns="http://www.w3.org/2000/svg" width="24" height="24"><path fill-rule="evenodd" d="M3.75 16.5v-5.25a.75.75 0 0 1 .75-.75H18a.75.75 0 0 1 .75.75v1.5h1.5v-1.5C20.25 10.01 19.24 9 18 9h-.75V3h-12v6H4.5c-1.24 0-2.25 1.01-2.25 2.25V18h3v3h5.25v-1.5H6.75v-3h3.75V15H5.25v1.5zm3-12h9V9h-9zm0 7.5h-1.5v1.5h1.5zm9.6 1.5c1.127 0 2.166.578 2.769 1.508 1.492.114 2.631 1.387 2.631 2.992 0 1.654-1.278 3-2.85 3h-4.972c-1.383 0-2.555-1.02-2.668-2.324a2.55 2.55 0 0 1 1.888-2.69A3.31 3.31 0 0 1 16.35 13.5m-2.423 6H18.9c.744 0 1.35-.673 1.35-1.5 0-.856-.58-1.5-1.35-1.5l-.703.017-.206-.455a1.804 1.804 0 0 0-3.442.632l-.042.707H13.8c-.298 0-.573.12-.775.341-.2.219-.297.505-.27.804.045.527.571.954 1.172.954" clip-rule="evenodd"/></svg>