<svg xmlns="http://www.w3.org/2000/svg" viewBox="0 0 24 24"><path fill-rule="evenodd" d="M6.75 16.5h3V15h-4.5v1.5h-1.5v-5.25a.75.75 0 0 1 .75-.75H18a.75.75 0 0 1 .75.75h1.5C20.25 10.01 19.24 9 18 9h-.75V3h-12v6H4.5c-1.24 0-2.25 1.01-2.25 2.25V18h3v3h6v-1.5h-4.5zm0-12h9V9h-9zm0 7.5h-1.5v1.5h1.5zm12.035 6.474 2.759 2.76-1.06 1.06-2.76-2.76a4.1 4.1 0 0 1-2.335.73 4.13 4.13 0 0 1-4.125-4.125 4.13 4.13 0 0 1 4.125-4.125 4.13 4.13 0 0 1 4.125 4.125c0 .866-.27 1.67-.73 2.335m-3.396-4.96a2.63 2.63 0 0 0-2.625 2.625 2.63 2.63 0 0 0 2.625 2.625 2.63 2.63 0 0 0 2.625-2.625 2.63 2.63 0 0 0-2.625-2.625" clip-rule="evenodd"/></svg>