<svg xmlns="http://www.w3.org/2000/svg" xml:space="preserve" viewBox="0 0 32 32"><path d="M7 21H5v-7c0-.551.448-1 1-1h18c.552 0 1 .449 1 1h2c0-1.654-1.346-3-3-3h-1V3H7v8H6c-1.654 0-3 1.346-3 3v9h4v4h7v-2H9v-4h5v-2H7zM9 5h12v6H9z"/><path d="M7 15h2v2H7zm22.231 2.206c-.034-.009-3.518-.846-5.784-1.979L23 15.003l-.447.224c-2.267 1.133-5.75 1.97-5.784 1.979L16 17.39v.789c0 10.301 6.526 11.725 6.804 11.78l.196.039.196-.039c.278-.056 6.804-1.48 6.804-11.78v-.79zm-6.23 10.737c-.913-.293-4.727-1.939-4.987-8.992 1.125-.302 3.246-.921 4.986-1.721 1.74.8 3.862 1.419 4.986 1.721-.259 7.067-4.056 8.698-4.985 8.992"/><path d="m21.116 20.824-1.404 1.424 2.768 2.731 4.141-4.14-1.414-1.414-2.736 2.736z"/></svg>