<svg xmlns="http://www.w3.org/2000/svg" viewBox="0 0 24 24"><path d="M4.5 16.485H3v-5.25c0-.412.337-.75.75-.75h13.5c.413 0 .75.338.75.75h1.5a2.257 2.257 0 0 0-2.25-2.25h-.75v-6h-12v6h-.75a2.257 2.257 0 0 0-2.25 2.25v6.75h3v3h5.25v-1.5H6v-3h3.75v-1.5H4.5zm1.5-12h9v4.5H6z"/><path d="M6 11.985H4.5v1.5H6zM16.515 12a5.256 5.256 0 0 0-5.25 5.25 5.256 5.256 0 0 0 5.25 5.25 5.256 5.256 0 0 0 5.25-5.25 5.256 5.256 0 0 0-5.25-5.25m0 9c-2.07 0-3.75-1.68-3.75-3.75s1.68-3.75 3.75-3.75 3.75 1.68 3.75 3.75-1.68 3.75-3.75 3.75"/><path d="M15 16.5h-1.5V18H15zm2.25 0h-1.5V18h1.5zm2.25 0H18V18h1.5z"/></svg>