<svg xmlns="http://www.w3.org/2000/svg" xml:space="preserve" viewBox="0 0 32 32"><path d="M9 22h4v-2H7v2H5v-7c0-.551.448-1 1-1h18c.552 0 1 .449 1 1h2c0-1.654-1.346-3-3-3h-1V4H7v8H6c-1.654 0-3 1.346-3 3v9h4v4h8v-2H9zM9 6h12v6H9z"/><path d="M7 16h2v2H7zm21.725 12.311-3.679-3.679a5.46 5.46 0 0 0 .972-3.114c0-3.032-2.468-5.5-5.5-5.5s-5.5 2.468-5.5 5.5 2.468 5.5 5.5 5.5a5.46 5.46 0 0 0 3.114-.972l3.679 3.679zm-11.707-6.793c0-1.93 1.57-3.5 3.5-3.5s3.5 1.57 3.5 3.5-1.57 3.5-3.5 3.5-3.5-1.571-3.5-3.5"/></svg>