<svg xmlns="http://www.w3.org/2000/svg" viewBox="0 0 24 24"><path fill-rule="evenodd" d="M4.5 16.5v-5.25a.75.75 0 0 1 .75-.75h13.5a.75.75 0 0 1 .75.75H21C21 10.01 19.99 9 18.75 9H18V3H6v6h-.75C4.01 9 3 10.01 3 11.25V18h3v3h4.5v-1.5h-3v-3h3V15H6v1.5zm3-12h9V9h-9zm0 7.5H6v1.5h1.5zm4.5 5.25A5.257 5.257 0 0 1 17.25 12a5.257 5.257 0 0 1 5.25 5.25 5.257 5.257 0 0 1-5.25 5.25A5.257 5.257 0 0 1 12 17.25m7.487-2.992a3.7 3.7 0 0 0-2.237-.758 3.754 3.754 0 0 0-3.75 3.75c0 .684.197 1.317.519 1.869zm-4.474 5.984c.626.47 1.396.758 2.237.758A3.754 3.754 0 0 0 21 17.25c0-.684-.197-1.317-.519-1.869z" clip-rule="evenodd"/></svg>