<svg xmlns="http://www.w3.org/2000/svg" viewBox="0 0 24 24"><path fill-rule="evenodd" d="M4.5 11.25v5.25H6V15h4.5v1.5h-3v3h3V21H6v-3H3v-6.75C3 10.01 4.01 9 5.25 9H6V3h12v6h.75C19.99 9 21 10.01 21 11.25h-1.5a.75.75 0 0 0-.75-.75H5.25a.75.75 0 0 0-.75.75m12-6.75h-9V9h9z" clip-rule="evenodd"/><path d="M6 12h1.5v1.5H6zm9.83 4.395.897.885 1.853-1.854 1.061 1.06-2.907 2.909-1.958-1.932z"/><path fill-rule="evenodd" d="M17.25 12A5.257 5.257 0 0 0 12 17.25a5.257 5.257 0 0 0 5.25 5.25 5.257 5.257 0 0 0 5.25-5.25A5.257 5.257 0 0 0 17.25 12m0 9a3.754 3.754 0 0 1-3.75-3.75 3.754 3.754 0 0 1 3.75-3.75A3.754 3.754 0 0 1 21 17.25 3.754 3.754 0 0 1 17.25 21" clip-rule="evenodd"/></svg>