<svg xmlns="http://www.w3.org/2000/svg" xml:space="preserve" viewBox="0 0 32 32"><path d="M7 22H5v-7c0-.551.448-1 1-1h18c.552 0 1 .449 1 1h2c0-1.654-1.346-3-3-3h-1V4H7v8H6c-1.654 0-3 1.346-3 3v9h4v4h10v-2H9v-4h8v-2H7zM9 6h12v6H9z"/><path d="M7 16h2v2H7zm20.953 5.687L24 16.417l-3.953 5.27c-1.192 1.589-1.383 3.698-.498 5.503.847 1.729 2.476 2.778 4.336 2.808L24 30l.094-.001c1.882-.03 3.511-1.08 4.357-2.809.885-1.804.695-3.914-.498-5.503m-4.014 6.312c-1.115-.018-2.085-.649-2.595-1.688-.552-1.127-.437-2.438.302-3.423L24 19.75l2.354 3.137c.738.985.854 2.297.302 3.424-.51 1.039-1.479 1.671-2.616 1.689"/></svg>