<svg xmlns="http://www.w3.org/2000/svg" viewBox="0 0 24 24"><path fill-rule="evenodd" d="M3.75 16.5v-5.25a.75.75 0 0 1 .75-.75H18a.75.75 0 0 1 .75.75h1.5C20.25 10.01 19.24 9 18 9h-.75V3h-12v6H4.5c-1.24 0-2.25 1.01-2.25 2.25V18h3v3h5.25v-1.5H6.75v-3h3.75V15H5.25v1.5zm3-12h9V9h-9z" clip-rule="evenodd"/><path d="M6.75 12h-1.5v1.5h1.5zm9.764 2.264v1.5h1.5v-1.5zm0 6v-3h1.5v3z"/><path fill-rule="evenodd" d="M12.014 17.264a5.257 5.257 0 0 1 5.25-5.25 5.257 5.257 0 0 1 5.25 5.25 5.257 5.257 0 0 1-5.25 5.25 5.257 5.257 0 0 1-5.25-5.25m1.5 0a3.754 3.754 0 0 0 3.75 3.75 3.755 3.755 0 0 0 3.75-3.75 3.754 3.754 0 0 0-3.75-3.75 3.754 3.754 0 0 0-3.75 3.75" clip-rule="evenodd"/></svg>