<svg xmlns="http://www.w3.org/2000/svg" viewBox="0 0 24 24"><path fill-rule="evenodd" d="M3.75 11.25v5.25h1.5V15h5.25v1.5H6.75v3h3.75V21H5.25v-3h-3v-6.75C2.25 10.01 3.26 9 4.5 9h.75V3h12v6H18c1.24 0 2.25 1.01 2.25 2.25h-1.5a.75.75 0 0 0-.75-.75H4.5a.75.75 0 0 0-.75.75m12-6.75h-9V9h9zM5.25 12h1.5v1.5h-1.5zm12.014.014a5.257 5.257 0 0 0-5.25 5.25 5.257 5.257 0 0 0 5.25 5.25 5.257 5.257 0 0 0 5.25-5.25 5.257 5.257 0 0 0-5.25-5.25m0 9a3.754 3.754 0 0 1-3.75-3.75 3.754 3.754 0 0 1 3.75-3.75 3.754 3.754 0 0 1 3.75 3.75 3.755 3.755 0 0 1-3.75 3.75m-.75-3.44v-2.56h1.5v1.939l1.28 1.28-1.06 1.06z" clip-rule="evenodd"/></svg>