<svg xmlns="http://www.w3.org/2000/svg" width="24" height="24"><path fill-rule="evenodd" d="M3.75 10.5v5.25h1.5v-1.5h5.25v1.5H6.75v3h3.75v1.5H5.25v-3h-3V10.5c0-1.24 1.01-2.25 2.25-2.25h.75v-6h12v6H18c1.24 0 2.25 1.01 2.25 2.25h-1.5a.75.75 0 0 0-.75-.75H4.5a.75.75 0 0 0-.75.75m12-6.75h-9v4.5h9zm-10.5 7.5h1.5v1.5h-1.5zm16.673 1.655-.01-.003c-.183-.045-2.683-.66-4.328-1.482l-.335-.168-.335.168c-1.646.822-4.145 1.437-4.328 1.482l-.01.003-.577.138v.591c0 7.726 4.895 8.794 5.103 8.835l.147.03.147-.03c.209-.042 5.103-1.11 5.103-8.835v-.592zm-4.672 8.052c-.685-.22-3.546-1.454-3.74-6.744.843-.226 2.434-.69 3.739-1.29 1.305.6 2.896 1.064 3.74 1.29-.195 5.3-3.042 6.524-3.74 6.744m-2.467-4.271 1.053-1.068 1.016 1.003 2.052-2.052 1.06 1.06-3.105 3.105z" clip-rule="evenodd"/></svg>