<svg xmlns="http://www.w3.org/2000/svg" viewBox="0 0 24 24"><path fill-rule="evenodd" d="M3.75 16.5v-5.25a.75.75 0 0 1 .75-.75H18a.75.75 0 0 1 .75.75h1.5C20.25 10.01 19.24 9 18 9h-.75V3h-12v6H4.5c-1.24 0-2.25 1.01-2.25 2.25V18h3v3h7.5v-1.5h-6v-3h6V15h-7.5v1.5zm3-12h9V9h-9z" clip-rule="evenodd"/><path d="M6.75 12h-1.5v1.5h1.5z"/><path fill-rule="evenodd" d="m18 12.313 2.965 3.952a3.95 3.95 0 0 1 .373 4.127c-.634 1.297-1.856 2.085-3.268 2.107L18 22.5l-.086-.002c-1.395-.022-2.617-.809-3.252-2.106a3.95 3.95 0 0 1 .373-4.127zm-1.992 7.42c.383.78 1.11 1.253 1.946 1.266l.076.001c.853-.014 1.58-.488 1.962-1.267a2.46 2.46 0 0 0-.227-2.568L18 14.813l-1.765 2.353a2.46 2.46 0 0 0-.227 2.567" clip-rule="evenodd"/></svg>