<svg xmlns="http://www.w3.org/2000/svg" xml:space="preserve" viewBox="0 0 32 32"><path d="M16 2C8.28 2 2 8.28 2 16s6.28 14 14 14 14-6.28 14-14S23.72 2 16 2M8.339 25.227A4.98 4.98 0 0 1 13 22h6a4.985 4.985 0 0 1 4.661 3.228A11.95 11.95 0 0 1 16 28a11.94 11.94 0 0 1-7.661-2.773m16.826-1.498A6.98 6.98 0 0 0 19 20h-6c-2.641 0-4.974 1.479-6.166 3.729A11.94 11.94 0 0 1 4 16C4 9.383 9.383 4 16 4s12 5.383 12 12c0 2.944-1.069 5.639-2.835 7.729"/><path d="M16 6a6 6 0 1 0 0 12 6 6 0 0 0 0-12m0 10c-2.206 0-4-1.794-4-4s1.794-4 4-4 4 1.794 4 4-1.794 4-4 4"/></svg>