<svg xmlns="http://www.w3.org/2000/svg" viewBox="0 0 24 24"><path fill-rule="evenodd" d="M6.167 3.27A10.5 10.5 0 0 1 12 1.5 10.51 10.51 0 0 1 22.5 12 10.5 10.5 0 1 1 6.167 3.27m1.457 13.894a3.74 3.74 0 0 0-1.37 1.756v.001a8.98 8.98 0 0 0 11.492 0A3.74 3.74 0 0 0 14.25 16.5h-4.5c-.76 0-1.501.232-2.126.664m9.327-1.41a5.23 5.23 0 0 1 1.923 2.041v.002a9 9 0 1 0-13.748 0A5.23 5.23 0 0 1 9.75 15h4.5a5.23 5.23 0 0 1 2.7.755M9.5 5.259a4.5 4.5 0 1 1 5 7.484 4.5 4.5 0 0 1-5-7.484m.833 6.236a3 3 0 1 0 3.333-4.987 3 3 0 0 0-3.333 4.987" clip-rule="evenodd"/></svg>