<svg xmlns="http://www.w3.org/2000/svg" viewBox="0 0 24 24"><path d="M8.985 11.04v2.033h1.013v1.5H8.895c-.78 0-1.41-.63-1.41-1.41v-2.206c0-.78.63-1.41 1.41-1.41h1.103v1.5H8.985zM6 11.04v-1.5H4.898c-.78 0-1.41.63-1.41 1.41v2.205c0 .78.63 1.41 1.41 1.41H6v-1.5H4.987v-2.032H6zm9.398-.082v2.204c0 .78-.63 1.41-1.41 1.41H12.66c-.78 0-1.41-.63-1.41-1.41v-2.205c0-.78.63-1.41 1.41-1.41h1.328c.78 0 1.41.63 1.41 1.41m-1.5.082H12.75v2.033h1.148zm3.044-.532-.57-2.13a1.42 1.42 0 0 1 .998-1.733l1.282-.345a1.4 1.4 0 0 1 1.073.143c.33.187.563.495.66.855l.57 2.13c.203.75-.247 1.53-.997 1.732l-1.283.345c-.12.03-.248.052-.367.052a1.46 1.46 0 0 1-.706-.187 1.4 1.4 0 0 1-.66-.855zm.9-2.43.526 1.965 1.11-.3-.526-1.965zm3.196 6.795-.57 2.13a1.423 1.423 0 0 1-1.726 1.005l-1.282-.345a1.38 1.38 0 0 1-.855-.66 1.4 1.4 0 0 1-.143-1.073l.57-2.13c.203-.75.976-1.2 1.733-.998l1.282.346c.368.097.668.33.855.66.188.33.24.704.143 1.072zm-1.47-.308-1.11-.3-.525 1.965 1.11.3zM3 17.663h10.155v-1.5H3zM13.155 6.45H3v1.5h10.155z"/></svg>