<svg xmlns="http://www.w3.org/2000/svg" viewBox="0 0 24 24"><path d="M19.275 12H21V9a2.25 2.25 0 0 0-2.25-2.25h-1.5v-.225a3.45 3.45 0 0 0-3.195-3.519 3.34 3.34 0 0 0-2.505.92 3.4 3.4 0 0 0-1.05 2.449v.375H9A2.25 2.25 0 0 0 6.75 9v1.5h-.225a3.454 3.454 0 0 0-3.52 3.195 3.35 3.35 0 0 0 .922 2.505 3.4 3.4 0 0 0 2.448 1.05h.375v1.5A2.25 2.25 0 0 0 9 21h9.75A2.25 2.25 0 0 0 21 18.75v-3h-1.875a1.876 1.876 0 0 1-1.875-1.976A1.98 1.98 0 0 1 19.275 12m-2.597 4.2a3.4 3.4 0 0 0 2.447 1.05h.375v1.5a.75.75 0 0 1-.75.75H9a.75.75 0 0 1-.75-.75v-3H6.375A1.876 1.876 0 0 1 4.5 13.774 1.98 1.98 0 0 1 6.525 12H8.25V9A.75.75 0 0 1 9 8.25h3V6.375A1.876 1.876 0 0 1 13.976 4.5a1.98 1.98 0 0 1 1.774 2.025V8.25h3a.75.75 0 0 1 .75.75v1.5h-.225a3.454 3.454 0 0 0-3.52 3.195 3.35 3.35 0 0 0 .922 2.505z"/></svg>