<svg xmlns="http://www.w3.org/2000/svg" xml:space="preserve" viewBox="0 0 32 32"><path d="m25.664 19.75 1.629-1.629c.566-.566.879-1.32.879-2.121s-.312-1.555-.879-2.121l-3.043-3.043-1.457 1.457c-.824.824-2.262.824-3.086 0a2.184 2.184 0 0 1 0-3.086l1.457-1.457-3.043-3.043a3.006 3.006 0 0 0-4.242 0L12.25 6.336l-.793-.793c-.789-.79-1.84-1.225-2.957-1.225s-2.168.435-2.957 1.225a4.187 4.187 0 0 0 0 5.914l.793.793-1.629 1.628c-.566.567-.879 1.321-.879 2.122s.312 1.555.879 2.121l3.043 3.043 1.457-1.457c.824-.824 2.262-.824 3.086 0 .412.412.639.96.639 1.543s-.227 1.131-.639 1.543l-1.457 1.457 3.043 3.043c.585.585 1.353.877 2.121.877s1.536-.292 2.121-.877l1.629-1.629.793.793c1.631 1.631 4.283 1.631 5.914 0s1.631-4.283 0-5.914zm-.621 5.293a2.18 2.18 0 0 1-3.086 0l-2.207-2.207-3.043 3.043a1 1 0 0 1-1.414 0l-1.629-1.629.043-.043c.79-.79 1.225-1.84 1.225-2.957s-.435-2.167-1.225-2.957-1.84-1.225-2.957-1.225-2.167.435-2.957 1.225l-.043.043-1.629-1.629c-.189-.189-.293-.44-.293-.707s.104-.518.293-.707l3.043-3.043-2.207-2.207a2.184 2.184 0 0 1 0-3.086c.824-.824 2.262-.824 3.086 0l2.207 2.207 3.043-3.042a1 1 0 0 1 1.414 0l1.629 1.629-.043.043a4.187 4.187 0 0 0 0 5.914c.789.79 1.84 1.225 2.957 1.225s2.168-.435 2.957-1.225l.043-.043 1.629 1.629c.189.188.293.439.293.707s-.104.518-.293.707l-3.043 3.043 2.207 2.207c.851.85.851 2.234 0 3.085"/></svg>