<svg xmlns="http://www.w3.org/2000/svg" viewBox="0 0 24 24"><path d="m19.248 14.813 1.222-1.222a2.25 2.25 0 0 0 0-3.182l-2.282-2.282-1.093 1.093a1.676 1.676 0 0 1-2.315 0 1.64 1.64 0 0 1 0-2.315l1.093-1.093-2.282-2.282a2.254 2.254 0 0 0-3.182 0L9.187 4.752l-.594-.595a3.137 3.137 0 0 0-4.436 4.436l.595.594L3.53 10.41a2.25 2.25 0 0 0 0 3.182l2.282 2.282 1.093-1.093a1.676 1.676 0 0 1 2.315 0 1.64 1.64 0 0 1 0 2.315l-1.093 1.093 2.282 2.282a2.25 2.25 0 0 0 3.182 0l1.222-1.222.594.595a3.137 3.137 0 0 0 4.436-4.436zm-.466 3.97a1.634 1.634 0 0 1-2.314 0l-1.655-1.656-2.283 2.282a.75.75 0 0 1-1.06 0l-1.222-1.221.032-.033a3.137 3.137 0 1 0-4.435-4.435l-.033.032-1.221-1.222a.75.75 0 0 1 0-1.06l2.282-2.283-1.655-1.655a1.64 1.64 0 0 1 0-2.314 1.676 1.676 0 0 1 2.314 0l1.655 1.655 2.283-2.282a.75.75 0 0 1 1.06 0l1.222 1.222-.032.032a3.137 3.137 0 1 0 4.435 4.436l.032-.032 1.222 1.221a.75.75 0 0 1 0 1.061l-2.282 2.282 1.655 1.655a1.637 1.637 0 0 1 0 2.314"/></svg>