<svg xmlns="http://www.w3.org/2000/svg" viewBox="0 0 24 24"><g clip-path="url(#a)"><path fill-rule="evenodd" d="M18.315 12.793c.35.736.311 1.556-.067 2.236l2.592 4.488-3.375.153-1.82 2.847-2.716-4.702c-.289.116-.6.185-.929.185s-.64-.069-.928-.185l-2.715 4.702-1.821-2.847-3.375-.153 2.59-4.488a2.43 2.43 0 0 1-.066-2.236.53.53 0 0 0-.301-.729A2.43 2.43 0 0 1 3.75 9.75c0-1.053.64-1.961 1.634-2.314a.53.53 0 0 0 .301-.729 2.43 2.43 0 0 1 .482-2.79 2.43 2.43 0 0 1 2.79-.482.53.53 0 0 0 .432.011.53.53 0 0 0 .297-.312A2.43 2.43 0 0 1 12 1.5a2.43 2.43 0 0 1 2.314 1.634.53.53 0 0 0 .728.301 2.43 2.43 0 0 1 2.79.482c.746.744.935 1.84.483 2.79a.528.528 0 0 0 .301.73A2.43 2.43 0 0 1 20.25 9.75c0 1.053-.64 1.961-1.634 2.314a.53.53 0 0 0-.301.729M7.381 18.207l.91 1.423 1.619-2.804a2.5 2.5 0 0 1-.224-.46.53.53 0 0 0-.297-.312.52.52 0 0 0-.431.011 2.42 2.42 0 0 1-2.079.012L5.693 18.13zm3.718-2.343c.21.59.743.636.901.636s.691-.047.9-.636a2.034 2.034 0 0 1 2.786-1.154c.564.269.975-.076 1.086-.188a.93.93 0 0 0 .188-1.085 2.034 2.034 0 0 1 1.154-2.786c.59-.21.636-.743.636-.901s-.047-.69-.636-.9a2.035 2.035 0 0 1-1.154-2.786c.268-.566-.076-.975-.188-1.087a.93.93 0 0 0-1.085-.187 2.034 2.034 0 0 1-2.786-1.154C12.69 3.046 12.158 3 12 3s-.691.046-.9.635A2.034 2.034 0 0 1 8.312 4.79a.93.93 0 0 0-1.085.187c-.112.113-.456.521-.188 1.087A2.035 2.035 0 0 1 5.885 8.85c-.59.21-.636.743-.636.901s.047.69.636.9a2.034 2.034 0 0 1 1.154 2.786.93.93 0 0 0 .188 1.086.93.93 0 0 0 1.085.188 2.04 2.04 0 0 1 1.65-.042c.53.22.944.655 1.136 1.196m4.61 3.765.91-1.423 1.688-.078-1.186-2.052a2.42 2.42 0 0 1-2.079-.012.53.53 0 0 0-.727.301 2.5 2.5 0 0 1-.225.46zm-4.867-8.856 3.637-3.637 1.06 1.06-4.697 4.698-2.381-2.381 1.06-1.06z" clip-rule="evenodd"/></g><defs><clipPath id="a"><path d="M0 0h24v24H0z"/></clipPath></defs></svg>