<svg xmlns="http://www.w3.org/2000/svg" viewBox="0 0 24 24"><path fill-rule="evenodd" d="M12.75 9.75H18A2.25 2.25 0 0 1 20.25 12v7.5A2.25 2.25 0 0 1 18 21.75H6a2.25 2.25 0 0 1-2.25-2.25v-15A2.25 2.25 0 0 1 6 2.25h4.5a2.25 2.25 0 0 1 2.25 2.25zm-1.5 0V4.5a.75.75 0 0 0-.75-.75H8.862c.089.24.136.494.138.75v5.25zm7.28 10.28a.75.75 0 0 0 .22-.53V12a.75.75 0 0 0-.75-.75H7.5V4.5a.75.75 0 0 0-.75-.75H6a.75.75 0 0 0-.75.75v15a.75.75 0 0 0 .75.75h12a.75.75 0 0 0 .53-.22M9 12.75h2.25a1.5 1.5 0 0 1 1.5 1.5v1.5a1.5 1.5 0 0 1-1.5 1.5H9a1.5 1.5 0 0 1-1.5-1.5v-1.5a1.5 1.5 0 0 1 1.5-1.5m0 1.5v1.5h2.25v-1.5z" clip-rule="evenodd"/></svg>