<svg xmlns="http://www.w3.org/2000/svg" viewBox="0 0 24 24"><path d="M17.25 6c1.24 0 2.25-1.01 2.25-2.25S18.49 1.5 17.25 1.5 15 2.51 15 3.75c0 .346.085.67.226.964L12.97 6.97 8.197 2.198A7.48 7.48 0 0 0 6 7.5c0 1.575.487 3.037 1.32 4.245.054.079.119.15.175.226L6.107 21H4.5v1.5h11.25V21h-1.5v-6.038a7.48 7.48 0 0 0 4.552-2.16L14.03 8.03l2.256-2.256c.293.141.617.226.964.226M7.625 21l1.18-7.671a7.44 7.44 0 0 0 3.945 1.624V21zm5.875-7.5a6 6 0 0 1-4.945-2.606A5.95 5.95 0 0 1 7.5 7.5a5.97 5.97 0 0 1 .83-3.049l8.219 8.219a5.97 5.97 0 0 1-3.049.83M17.25 3a.75.75 0 1 1-.002 1.502A.75.75 0 0 1 17.25 3"/></svg>