<svg xmlns="http://www.w3.org/2000/svg" xml:space="preserve" viewBox="0 0 32 32"><path d="M0 0h32v32H0z" style="fill:none"/><path d="m25.897 6.103-.706-.707-7.172 7.17A3.97 3.97 0 0 0 16 12c-2.206 0-4 1.794-4 4s1.794 4 4 4 4-1.794 4-4c0-.74-.215-1.424-.567-2.019l2.169-2.169A6.97 6.97 0 0 1 23 16c0 3.859-3.141 7-7 7s-7-3.141-7-7 3.141-7 7-7V7c-4.963 0-9 4.038-9 9 0 4.963 4.037 9 9 9s9-4.037 9-9a8.96 8.96 0 0 0-1.969-5.617l2.13-2.13A11.9 11.9 0 0 1 28 16c0 6.617-5.383 12-12 12S4 22.617 4 16 9.383 4 16 4V2C8.28 2 2 8.28 2 16s6.28 14 14 14 14-6.28 14-14c0-3.736-1.457-7.251-4.103-9.897M16 18c-1.103 0-2-.897-2-2s.897-2 2-2 2 .897 2 2-.897 2-2 2"/></svg>