<svg xmlns="http://www.w3.org/2000/svg" width="24" height="24"><path d="m19.423 4.577-.53-.53-5.379 5.378A3 3 0 0 0 12 9c-1.655 0-3 1.345-3 3s1.345 3 3 3 3-1.345 3-3a2.96 2.96 0 0 0-.425-1.514l1.627-1.627A5.23 5.23 0 0 1 17.25 12 5.257 5.257 0 0 1 12 17.25 5.257 5.257 0 0 1 6.75 12 5.256 5.256 0 0 1 12 6.75v-1.5A6.76 6.76 0 0 0 5.25 12 6.757 6.757 0 0 0 12 18.75 6.757 6.757 0 0 0 18.75 12a6.72 6.72 0 0 0-1.477-4.213l1.598-1.597A8.93 8.93 0 0 1 21 12c0 4.963-4.037 9-9 9s-9-4.037-9-9 4.037-9 9-9V1.5C6.21 1.5 1.5 6.21 1.5 12S6.21 22.5 12 22.5 22.5 17.79 22.5 12a10.43 10.43 0 0 0-3.077-7.423M12 13.5c-.827 0-1.5-.673-1.5-1.5s.673-1.5 1.5-1.5 1.5.673 1.5 1.5-.673 1.5-1.5 1.5"/></svg>