<svg xmlns="http://www.w3.org/2000/svg" width="24" height="24"><path d="M17.25 13.5H15v-3h2.25A3.754 3.754 0 0 0 21 6.75 3.754 3.754 0 0 0 17.25 3a3.754 3.754 0 0 0-3.75 3.75V9h-3V6.75A3.754 3.754 0 0 0 6.75 3 3.754 3.754 0 0 0 3 6.75a3.754 3.754 0 0 0 3.75 3.75H9v3H6.75A3.754 3.754 0 0 0 3 17.25 3.754 3.754 0 0 0 6.75 21a3.754 3.754 0 0 0 3.75-3.75V15h3v2.25A3.754 3.754 0 0 0 17.25 21 3.754 3.754 0 0 0 21 17.25a3.754 3.754 0 0 0-3.75-3.75M15 6.75c0-1.24 1.01-2.25 2.25-2.25s2.25 1.01 2.25 2.25S18.49 9 17.25 9H15zm-10.5 0c0-1.24 1.01-2.25 2.25-2.25S9 5.51 9 6.75V9H6.75C5.51 9 4.5 7.99 4.5 6.75M9 17.25c0 1.24-1.01 2.25-2.25 2.25S4.5 18.49 4.5 17.25 5.51 15 6.75 15H9zm1.5-6.75h3v3h-3zm6.75 9c-1.24 0-2.25-1.01-2.25-2.25V15h2.25c1.24 0 2.25 1.01 2.25 2.25s-1.01 2.25-2.25 2.25"/></svg>