<svg xmlns="http://www.w3.org/2000/svg" xml:space="preserve" viewBox="0 0 32 32"><path d="M23 18h-3v-4h3c2.757 0 5-2.243 5-5s-2.243-5-5-5-5 2.243-5 5v3h-4V9c0-2.757-2.243-5-5-5S4 6.243 4 9s2.243 5 5 5h3v4H9c-2.757 0-5 2.243-5 5s2.243 5 5 5 5-2.243 5-5v-3h4v3c0 2.757 2.243 5 5 5s5-2.243 5-5-2.243-5-5-5m-3-9c0-1.654 1.346-3 3-3s3 1.346 3 3-1.346 3-3 3h-3zM6 9c0-1.654 1.346-3 3-3s3 1.346 3 3v3H9c-1.654 0-3-1.346-3-3m6 14c0 1.654-1.346 3-3 3s-3-1.346-3-3 1.346-3 3-3h3zm2-9h4v4h-4zm9 12c-1.654 0-3-1.346-3-3v-3h3c1.654 0 3 1.346 3 3s-1.346 3-3 3"/></svg>