<svg xmlns="http://www.w3.org/2000/svg" width="24" height="24"><path fill-rule="evenodd" d="M12 4.449a.74.74 0 0 1 .645.368l2.6 4.4-2.035-.542-.385 1.45 4.556 1.213 1.096-4.588-1.459-.35-.488 2.039-2.593-4.385a2.25 2.25 0 0 0-3.874 0L7.986 7.568l1.292.763 2.077-3.513A.73.73 0 0 1 12 4.449m9.059 11.656L18.928 12.5l-1.292.764 2.131 3.606a.75.75 0 0 1-.642 1.13H13.71l1.5-1.468-1.05-1.073-3.371 3.3 3.38 3.287 1.05-1.075-1.513-1.471h5.42a2.25 2.25 0 0 0 1.936-3.395zM4.128 17.25a.73.73 0 0 0 .1.376.73.73 0 0 0 .65.375H9v1.5H4.879a2.25 2.25 0 0 1-1.937-3.395l2.647-4.48-2.02.547-.393-1.447 4.546-1.234 1.125 4.575-1.457.358-.502-2.049-2.654 4.5a.73.73 0 0 0-.106.374" clip-rule="evenodd"/></svg>