<svg xmlns="http://www.w3.org/2000/svg" xml:space="preserve" viewBox="0 0 32 32"><path d="m26 16.114-9.161 3.721a2.2 2.2 0 0 1-1.678 0L6 16.115V15H4v1.173c0 .781.457 1.472 1.166 1.761l9.243 3.754a4.23 4.23 0 0 0 3.182 0l9.244-3.755A1.88 1.88 0 0 0 28 16.173V15h-2z"/><path d="m26 21.114-9.161 3.721a2.2 2.2 0 0 1-1.678 0L6 21.114V20H4v1.174c0 .781.457 1.472 1.166 1.761l9.243 3.754a4.23 4.23 0 0 0 3.182 0l9.244-3.755A1.88 1.88 0 0 0 28 21.174V20h-2zm-20.717-8.25 8.933 3.776c.567.24 1.176.36 1.784.36s1.217-.12 1.784-.36l8.932-3.776c.792-.334 1.284-1.06 1.284-1.893s-.492-1.559-1.283-1.893l-8.672-3.666a5.28 5.28 0 0 0-4.09 0L5.284 9.078C4.492 9.413 4 10.138 4 10.971s.492 1.559 1.283 1.893m.779-1.944 8.672-3.666C15.137 7.084 15.568 7 16 7s.863.085 1.266.255L26 10.971c0 .022-.047.044-.062.05l-8.934 3.777c-.639.27-1.371.27-2.01 0l-8.933-3.776v-.102z"/></svg>