<svg xmlns="http://www.w3.org/2000/svg" viewBox="0 0 24 24"><g clip-path="url(#a)"><path fill-rule="evenodd" d="m10.662 12.48-6.7-2.832C3.37 9.398 3 8.853 3 8.228s.369-1.168.963-1.42l6.503-2.75a3.96 3.96 0 0 1 3.068 0l6.504 2.75c.593.25.962.795.962 1.42s-.369 1.17-.963 1.42l-6.699 2.832a3.44 3.44 0 0 1-2.676 0m.388-7.04L4.547 8.19v.076l6.7 2.832a1.94 1.94 0 0 0 1.507 0l6.7-2.832c.012-.005.047-.021.047-.038l-6.55-2.787a2.44 2.44 0 0 0-1.9 0m8.45 6.645-6.87 2.791a1.65 1.65 0 0 1-1.26 0l-6.87-2.79v-.836H3v.88c0 .585.343 1.104.874 1.32l6.933 2.816a3.17 3.17 0 0 0 2.386 0l6.933-2.816c.531-.216.874-.734.874-1.32v-.88h-1.5zm0 3.75-6.87 2.791a1.65 1.65 0 0 1-1.26 0l-6.87-2.79V15H3v.88c0 .586.343 1.104.874 1.321l6.933 2.816a3.17 3.17 0 0 0 2.386 0l6.933-2.817c.531-.216.874-.734.874-1.32V15h-1.5z" clip-rule="evenodd"/></g><defs><clipPath id="a"><path d="M0 0h24v24H0z"/></clipPath></defs></svg>