<svg xmlns="http://www.w3.org/2000/svg" xml:space="preserve" viewBox="0 0 32 32"><path d="m29.293 13.125-1.735 1.734a11.54 11.54 0 0 0-3.344-7.073c-4.529-4.528-11.898-4.528-16.428 0L9.2 9.2c3.75-3.748 9.85-3.749 13.6 0a9.55 9.55 0 0 1 2.752 5.699l-1.774-1.774-1.414 1.414 4.171 4.172 4.172-4.172zM9.2 22.8a9.55 9.55 0 0 1-2.752-5.699l1.774 1.774 1.414-1.414-4.171-4.171-4.172 4.171 1.414 1.414 1.735-1.734a11.53 11.53 0 0 0 3.344 7.073c2.265 2.265 5.239 3.396 8.214 3.396s5.949-1.132 8.214-3.396L22.8 22.8c-3.75 3.747-9.85 3.749-13.6 0"/></svg>