<svg xmlns="http://www.w3.org/2000/svg" viewBox="0 0 24 24"><g clip-path="url(#a)"><path d="M14.91 10.568a2.196 2.196 0 0 0-2.197 2.197c0 1.215.982 2.198 2.197 2.198a2.196 2.196 0 0 0 2.198-2.198 2.196 2.196 0 0 0-2.198-2.197m0 2.895a.7.7 0 0 1-.697-.698.7.7 0 0 1 .697-.697c.383 0 .698.315.698.697a.7.7 0 0 1-.698.697m-3.75-.697a2.196 2.196 0 0 0-2.197-2.197 2.196 2.196 0 0 0-2.198 2.197c0 1.215.983 2.198 2.198 2.198a2.196 2.196 0 0 0 2.197-2.198m-2.895 0c0-.383.315-.697.698-.697s.697.315.697.697a.7.7 0 0 1-.697.697.7.7 0 0 1-.698-.697"/><path d="M20.4 10.605v-.682a2.257 2.257 0 0 0-2.25-2.25h-5.392V6.465a2.39 2.39 0 0 0 1.657-2.272 2.41 2.41 0 0 0-2.407-2.408A2.41 2.41 0 0 0 9.6 4.193c0 1.057.698 1.95 1.65 2.272V7.68H5.843a2.257 2.257 0 0 0-2.25 2.25v.922c-1.163.015-2.108 1.005-2.108 2.228v1.043c0 1.222.945 2.212 2.108 2.227v2.392a2.257 2.257 0 0 0 2.25 2.25h12.3a2.257 2.257 0 0 0 2.25-2.25V16.11c1.162-.015 2.107-1.005 2.107-2.227V12.84c0-1.223-.945-2.213-2.107-2.227zm-8.392-7.32c.502 0 .907.405.907.908a.906.906 0 0 1-.907.907.906.906 0 0 1-.908-.907c0-.503.405-.908.908-.908M2.993 14.122V13.08c0-.39.27-.713.607-.728v2.498c-.337-.015-.607-.33-.607-.727m15.907 4.62c0 .413-.337.75-.75.75H5.85a.75.75 0 0 1-.75-.75V9.93c0-.412.338-.75.75-.75h12.3c.413 0 .75.338.75.75zm2.108-4.867c0 .39-.27.713-.608.727v-2.497c.338.015.608.33.608.727z"/><path d="M15.758 16.53H8.25v1.5h7.508z"/></g><defs><clipPath id="a"><path d="M0 0h24v24H0z"/></clipPath></defs></svg>