<svg xmlns="http://www.w3.org/2000/svg" data-name="Ebene 5" viewBox="0 0 32 32"><path d="M18.94 15.1c1.64 0 2.98-1.33 3-2.96l2.69 3.1 5.3-3.36-1.07-1.69-3.85 2.44-3.06-3.53 3.06-3.53 3.85 2.44 1.07-1.69-5.3-3.36-2.69 3.1c-.02-1.64-1.35-2.96-3-2.96s-3 1.35-3 3h-5.7C9.42 4.97 8.1 4.22 6.6 4.22c-2.48 0-4.5 2.02-4.5 4.5 0 1.88 1.16 3.49 2.8 4.16l4.34 11.1H7.9c-1.26 0-2.29 1.03-2.29 2.29v1.41c0 1.26 1.03 2.29 2.29 2.29h16.57c1.26 0 2.29-1.03 2.29-2.29v-1.41c0-1.26-1.03-2.29-2.29-2.29h-8.78L11.04 12.1h4.91c0 1.65 1.35 3 3 3Zm0-10c.55 0 1 .45 1 1v6c0 .55-.45 1-1 1s-1-.45-1-1v-6c0-.55.45-1 1-1M6.6 6.22a2.5 2.5 0 0 1 0 5 2.5 2.5 0 0 1 0-5m18.15 20.05v1.41c0 .16-.13.29-.29.29H7.89a.29.29 0 0 1-.29-.29v-1.41c0-.16.13-.29.29-.29h16.57c.16 0 .29.13.29.29m-13.37-2.29L7.15 13.17c.69-.09 1.33-.31 1.88-.67l4.49 11.48h-2.15Zm-.52-13.88c.14-.44.24-.89.24-1.38 0-.21-.03-.42-.06-.62h4.9v2z"/></svg>