<svg xmlns="http://www.w3.org/2000/svg" viewBox="0 0 24 24"><path d="M14.205 11.325c1.23 0 2.235-.997 2.25-2.22l2.018 2.325 3.975-2.52-.803-1.268-2.887 1.83-2.296-2.647 2.296-2.648 2.887 1.83.803-1.267-3.976-2.52-2.017 2.325a2.246 2.246 0 0 0-2.25-2.22 2.257 2.257 0 0 0-2.25 2.25H7.68a3.37 3.37 0 0 0-2.73-1.41A3.38 3.38 0 0 0 1.575 6.54c0 1.41.87 2.617 2.1 3.12l3.255 8.325H5.925c-.945 0-1.718.773-1.718 1.718v1.057c0 .945.773 1.717 1.718 1.717h12.428c.944 0 1.717-.772 1.717-1.717v-1.058c0-.945-.773-1.717-1.718-1.717h-6.584L8.28 9.075h3.683a2.257 2.257 0 0 0 2.25 2.25zm0-7.5c.412 0 .75.337.75.75v4.5c0 .412-.338.75-.75.75a.75.75 0 0 1-.75-.75v-4.5c0-.413.338-.75.75-.75m-9.255.84a1.876 1.876 0 1 1-.001 3.751 1.876 1.876 0 0 1 .001-3.751m13.613 15.038v1.057c0 .12-.098.217-.218.217H5.917a.22.22 0 0 1-.217-.217v-1.058c0-.12.097-.217.217-.217h12.428c.12 0 .218.098.218.218M8.535 17.985 5.362 9.877a3.35 3.35 0 0 0 1.41-.502l3.368 8.61H8.527zm-.39-10.41c.105-.33.18-.668.18-1.035 0-.158-.023-.315-.045-.465h3.675v1.5z"/></svg>