<svg xmlns="http://www.w3.org/2000/svg" viewBox="0 0 24 24"><g clip-path="url(#a)"><path d="M14.91 10.567a2.196 2.196 0 0 0-2.197 2.198c0 1.215.982 2.197 2.197 2.197a2.196 2.196 0 0 0 2.198-2.197 2.196 2.196 0 0 0-2.198-2.198m0 2.895a.7.7 0 0 1-.697-.697c0-.383.315-.698.697-.698.383 0 .698.315.698.698a.7.7 0 0 1-.698.697m-3.75-.697a2.196 2.196 0 0 0-2.197-2.198 2.196 2.196 0 0 0-2.198 2.198c0 1.215.983 2.197 2.198 2.197a2.196 2.196 0 0 0 2.197-2.197m-2.895 0c0-.383.315-.698.698-.698s.697.315.697.698a.7.7 0 0 1-.697.697.7.7 0 0 1-.698-.697"/><path d="M20.4 10.605v-.683a2.257 2.257 0 0 0-2.25-2.25h-5.392V6.465a2.39 2.39 0 0 0 1.657-2.273 2.41 2.41 0 0 0-2.407-2.407A2.41 2.41 0 0 0 9.6 4.192c0 1.058.698 1.95 1.65 2.273V7.68H5.843a2.257 2.257 0 0 0-2.25 2.25v.922c-1.163.015-2.108 1.005-2.108 2.228v1.042c0 1.223.945 2.213 2.108 2.228v2.392a2.257 2.257 0 0 0 2.25 2.25h12.3a2.257 2.257 0 0 0 2.25-2.25V16.11c1.162-.015 2.107-1.005 2.107-2.228V12.84c0-1.223-.945-2.213-2.107-2.228zm-8.392-7.32c.502 0 .907.405.907.907a.906.906 0 0 1-.907.908.906.906 0 0 1-.908-.908c0-.502.405-.907.908-.907M2.993 14.122V13.08c0-.39.27-.713.607-.728v2.498c-.337-.015-.607-.33-.607-.728m15.907 4.62c0 .413-.337.75-.75.75H5.85a.75.75 0 0 1-.75-.75V9.93c0-.413.338-.75.75-.75h12.3c.413 0 .75.337.75.75zm2.108-4.867c0 .39-.27.712-.608.727v-2.497c.338.015.608.33.608.727z"/><path d="M15.758 16.53H8.25v1.5h7.508z"/></g><defs><clipPath id="a"><path d="M0 0h24v24H0z"/></clipPath></defs></svg>