<svg xmlns="http://www.w3.org/2000/svg" viewBox="0 0 32 32"><path d="M19.88 14.09c-1.62 0-2.93 1.31-2.93 2.93s1.31 2.93 2.93 2.93 2.93-1.31 2.93-2.93-1.31-2.93-2.93-2.93m0 3.86c-.51 0-.93-.42-.93-.93s.42-.93.93-.93.93.42.93.93-.42.93-.93.93m-5-.93c0-1.62-1.31-2.93-2.93-2.93s-2.93 1.31-2.93 2.93 1.31 2.93 2.93 2.93 2.93-1.31 2.93-2.93m-3.86 0c0-.51.42-.93.93-.93s.93.42.93.93-.42.93-.93.93-.93-.42-.93-.93m16.18-2.88v-.91c0-1.65-1.35-3-3-3h-7.19V8.62a3.19 3.19 0 0 0 2.21-3.03c0-1.77-1.44-3.21-3.21-3.21S12.8 3.82 12.8 5.59c0 1.41.93 2.6 2.2 3.03v1.62H7.79c-1.65 0-3 1.35-3 3v1.23c-1.55.02-2.81 1.34-2.81 2.97v1.39c0 1.63 1.26 2.95 2.81 2.97v3.19c0 1.65 1.35 3 3 3h16.4c1.65 0 3-1.35 3-3v-3.51c1.55-.02 2.81-1.34 2.81-2.97v-1.39c0-1.63-1.26-2.95-2.81-2.97ZM16.01 4.38c.67 0 1.21.54 1.21 1.21s-.54 1.21-1.21 1.21-1.21-.54-1.21-1.21.54-1.21 1.21-1.21M3.99 18.83v-1.39c0-.52.36-.95.81-.97v3.33c-.45-.02-.81-.44-.81-.97m21.21 6.16c0 .55-.45 1-1 1H7.8c-.55 0-1-.45-1-1V13.24c0-.55.45-1 1-1h16.4c.55 0 1 .45 1 1zm2.81-6.49c0 .52-.36.95-.81.97v-3.33c.45.02.81.44.81.97zm-17 3.54h10.01v2H11.01z"/></svg>