<svg xmlns="http://www.w3.org/2000/svg" width="24" height="24"><path fill-rule="evenodd" d="M9.375 7.79C12.781 4.165 16.8 2.25 21 2.25h.75V3c0 4.2-1.916 8.22-5.542 11.628A24 24 0 0 1 15 15.687l.604 3.009a2.25 2.25 0 0 1-.404 1.791l-.091.101-2.525 2.342-2.726-4.543.008-.005-1.593-1.593-1.742 1.742-1.06-1.06 1.741-1.742-1.593-1.593-.004.008-4.543-2.726 2.444-2.614a2.26 2.26 0 0 1 1.791-.406l3.009.6A24 24 0 0 1 9.375 7.79M5.01 9.866a.75.75 0 0 0-.551.104l-1.03 1.112 2.439 1.463q.652-1.149 1.425-2.222zm9.02 9.675a.75.75 0 0 0 .104-.551l-.456-2.282q-1.074.772-2.222 1.425l1.463 2.438zm-3.497-2.615c1.931-1.072 9.22-5.603 9.692-13.153-7.55.474-12.081 7.766-13.152 9.693l1.2 1.2 2.448-2.448 1.06 1.06-2.447 2.449zM15.5 11.62A2.25 2.25 0 1 1 13 7.878a2.25 2.25 0 0 1 2.5 3.743m-.833-2.495a.75.75 0 1 0-.834 1.247.75.75 0 0 0 .834-1.247" clip-rule="evenodd"/></svg>