<svg xmlns="http://www.w3.org/2000/svg" viewBox="0 0 24 24"><path d="M12.495 9.27a2.257 2.257 0 0 0 2.25 2.25 2.257 2.257 0 0 0 2.25-2.25 2.257 2.257 0 0 0-2.25-2.25 2.257 2.257 0 0 0-2.25 2.25m3 0c0 .413-.337.75-.75.75a.75.75 0 0 1-.75-.75c0-.412.338-.75.75-.75.413 0 .75.338.75.75m-3.217 3.533-1.058-1.058-2.445 2.445-1.2-1.2c1.073-1.927 5.603-9.217 13.155-9.69-.15 2.355-.968 4.628-2.437 6.758l1.237.855c1.807-2.618 2.73-5.438 2.73-8.385v-.75h-.75c-4.2 0-8.22 1.912-11.625 5.542q-.573.61-1.057 1.208l-3.008-.6a2.25 2.25 0 0 0-1.792.405L1.583 10.95l4.545 2.723 1.59 1.582-1.74 1.74 1.057 1.058 1.74-1.74.893.892 1.057-1.057-.892-.893 2.444-2.445zm-7.32-3.315c.165-.105.36-.143.547-.105l2.28.457a24 24 0 0 0-1.425 2.22l-2.437-1.462zm17.512 8.52v-1.5h-1.965a3.2 3.2 0 0 0-.435-1.043l1.395-1.395-1.058-1.057-1.395 1.395a3.4 3.4 0 0 0-1.042-.435v-1.965h-1.5v1.965c-.375.082-.72.232-1.042.435l-1.396-1.395-1.057 1.057 1.395 1.395a3.4 3.4 0 0 0-.435 1.043H11.97v1.5h1.965c.082.375.232.72.435 1.042l-1.395 1.395 1.058 1.058 1.395-1.395c.314.202.667.345 1.042.435v1.965h1.5v-1.965c.375-.083.72-.233 1.043-.435l1.394 1.395 1.058-1.058-1.395-1.395a3.4 3.4 0 0 0 .435-1.042zm-5.25 1.125a1.876 1.876 0 1 1 .001-3.752 1.876 1.876 0 0 1-.001 3.752"/></svg>