<svg xmlns="http://www.w3.org/2000/svg" viewBox="0 0 24 24"><path d="M12.135 7.515a1.223 1.223 0 1 1 2.445 0 1.223 1.223 0 0 1-2.445 0m2.123 8.325a2.07 2.07 0 0 1-.368 1.627l-.09.098-.713.66-1.567 1.455-2.422-4.035-1.29-1.29-1.433 1.432-1.057-1.057 1.432-1.433-1.29-1.29-4.035-2.415L3.638 7.23a2 2 0 0 1 1.627-.368l2.528.503c2.212-2.693 5.887-5.82 11.025-5.82h.75v.75c0 5.137-3.136 8.812-5.82 11.025l.502 2.527zM3.787 9.255 5.7 10.402a20 20 0 0 1 1.088-1.71l-1.808-.36a.54.54 0 0 0-.39.068l-.795.862zm7.14 1.995L8.88 13.297l.915.915c1.74-.975 7.792-4.815 8.257-11.145-6.322.465-10.162 6.518-11.144 8.258l.915.915 2.047-2.048zm1.14 5.88.645-.6a.55.55 0 0 0 .067-.39l-.36-1.808c-.682.48-1.275.84-1.71 1.088l1.147 1.912.21-.195zm10.41.907h-3v-3h-1.5v3h-3v1.5h3v3h1.5v-3h3z"/></svg>