<svg xmlns="http://www.w3.org/2000/svg" xml:space="preserve" viewBox="0 0 32 32"><path d="M28 3c-5.599 0-10.959 2.554-15.503 7.386a32 32 0 0 0-1.412 1.611l-4.012-.802a3 3 0 0 0-2.388.541l-3.256 3.488 6.057 3.634.006-.01 2.124 2.124-2.322 2.322 1.414 1.414 2.322-2.322 2.124 2.124-.01.006 3.634 6.057 3.367-3.122.121-.135a3 3 0 0 0 .54-2.388l-.802-4.012a32 32 0 0 0 1.611-1.412C26.446 14.959 29 9.598 29 4V3zM5.945 13.294a1 1 0 0 1 .735-.139l3.044.609a33 33 0 0 0-1.902 2.963l-3.251-1.951zM18.844 25.32a1 1 0 0 1-.138.734l-1.482 1.374-1.951-3.251a33 33 0 0 0 2.963-1.902zm-4.802-2.751-1.599-1.599 3.264-3.264-1.414-1.414-3.264 3.264-1.599-1.599c1.428-2.572 7.473-12.294 17.537-12.926-.631 10.066-10.353 16.111-12.925 17.538"/><path d="M19 16c1.654 0 3-1.346 3-3s-1.346-3-3-3-3 1.346-3 3 1.346 3 3 3m0-4a1.001 1.001 0 1 1-1 1c0-.551.448-1 1-1"/></svg>