<svg xmlns="http://www.w3.org/2000/svg" xml:space="preserve" viewBox="0 0 32 32"><path d="M27 17H12v-3h-2v3H5c-1.654 0-3 1.346-3 3v4c0 1.654 1.346 3 3 3h22c1.654 0 3-1.346 3-3v-4c0-1.654-1.346-3-3-3m1 7a1 1 0 0 1-1 1H5a1 1 0 0 1-1-1v-4a1 1 0 0 1 1-1h22a1 1 0 0 1 1 1zM6.394 12.053l1.842.779A2.995 2.995 0 0 1 11 11c1.177 0 2.251.693 2.735 1.766l1.822-.823A5.01 5.01 0 0 0 11 9a4.99 4.99 0 0 0-4.606 3.053"/><path d="M20 21h2v2h-2zm4 0h2v2h-2zM4.509 11.375a7 7 0 0 1 .883-1.543c.092-.125.183-.252.283-.369.1-.118.211-.226.318-.337a7 7 0 0 1 .677-.611c.111-.088.217-.182.333-.262.136-.095.281-.174.423-.259.128-.076.254-.154.387-.221.14-.072.285-.134.43-.196a6.7 6.7 0 0 1 1.442-.439c.117-.022.232-.049.351-.065.316-.044.637-.073.964-.073.322 0 .638.028.951.07.113.016.224.041.336.062q.292.053.576.13a7 7 0 0 1 .871.307c.135.057.269.114.4.18.148.074.289.159.431.243.125.074.253.143.374.225q.357.242.682.527c.102.089.192.191.289.286.126.125.253.249.37.383.092.106.176.219.262.331.358.466.672.973.909 1.532l1.842-.778a9 9 0 0 0-.921-1.625l.017-.012c-.084-.121-.183-.229-.273-.345-.106-.138-.21-.278-.324-.409-.159-.183-.33-.351-.501-.519-.116-.114-.225-.236-.347-.343a9 9 0 0 0-.884-.685c-.15-.102-.309-.187-.465-.279a9 9 0 0 0-.569-.321c-.166-.083-.336-.155-.508-.228a9 9 0 0 0-1.863-.561c-.144-.027-.286-.06-.432-.08A9 9 0 0 0 11 5a9 9 0 0 0-1.24.093c-.153.021-.3.056-.451.084a9 9 0 0 0-.733.167 9 9 0 0 0-1.12.397 8 8 0 0 0-.553.253c-.17.087-.331.186-.495.283-.184.109-.371.212-.547.334-.149.104-.285.225-.428.338a9 9 0 0 0-.862.776c-.143.146-.287.289-.42.445-.124.146-.237.302-.352.457-.086.115-.181.221-.262.341l.017.011a9 9 0 0 0-.899 1.645z"/></svg>