<svg xmlns="http://www.w3.org/2000/svg" width="24" height="24"><g clip-path="url(#a)"><path fill-rule="evenodd" d="M4.044 7.374a5.3 5.3 0 0 0-.662 1.157l-1.39-.563c.18-.443.415-.848.674-1.234l-.013-.008q.057-.081.118-.157.04-.048.078-.099l.034-.045q.111-.153.23-.297.13-.149.27-.288l.045-.046a7 7 0 0 1 .647-.582l.105-.086q.104-.088.216-.168c.1-.07.207-.132.313-.193l.163-.096q.149-.092.305-.173c.135-.07.275-.13.415-.19a6.5 6.5 0 0 1 1.39-.423l.114-.023q.11-.024.224-.04c.306-.043.616-.07.93-.07.309 0 .615.026.917.068q.112.016.222.04l.102.02q.282.051.557.125a7 7 0 0 1 .84.296l.005.002c.127.054.253.107.377.169.146.074.286.157.426.24l.1.058q.127.072.249.152.346.235.663.514.089.08.17.166l.09.091c.129.126.257.252.376.39q.104.122.202.252l.041.054.078.097q.067.078.127.162l-.013.009c.265.38.505.78.69 1.218l-1.38.584c-.178-.42-.414-.8-.683-1.149l-.033-.043q-.079-.106-.163-.205a5 5 0 0 0-.252-.262l-.026-.026-.077-.078q-.066-.07-.14-.136a5 5 0 0 0-.51-.395 3 3 0 0 0-.201-.122l-.11-.065q-.144-.087-.293-.164a5 5 0 0 0-.3-.135 5 5 0 0 0-1.163-.343 3 3 0 0 0-.175-.031 5 5 0 0 0-.713-.053c-.245 0-.486.022-.723.055q-.091.013-.18.032l-.083.017a5 5 0 0 0-1.082.33v-.001a5 5 0 0 0-.322.147q-.123.063-.24.136l-.05.03-.086.05a3 3 0 0 0-.232.144q-.089.063-.172.133l-.077.063a5 5 0 0 0-.569.52q-.091.093-.178.191-.096.115-.185.24zm.751 1.666 1.382.584A2.25 2.25 0 0 1 8.25 8.25c.883 0 1.688.52 2.051 1.325l1.367-.618A3.76 3.76 0 0 0 8.25 6.75c-1.51 0-2.866.899-3.455 2.29m15.455 3.71H9V10.5H7.5v2.25H3.75c-1.24 0-2.25 1.01-2.25 2.25v3c0 1.24 1.01 2.25 2.25 2.25h16.5c1.24 0 2.25-1.01 2.25-2.25v-3c0-1.24-1.01-2.25-2.25-2.25M21 18a.75.75 0 0 1-.75.75H3.75A.75.75 0 0 1 3 18v-3a.75.75 0 0 1 .75-.75h16.5A.75.75 0 0 1 21 15zm-6-2.25h1.5v1.5H15zm4.5 0H18v1.5h1.5z" clip-rule="evenodd"/></g><defs><clipPath id="a"><path d="M0 0h24v24H0z"/></clipPath></defs></svg>