<svg xmlns="http://www.w3.org/2000/svg" viewBox="0 0 24 24"><path d="M4.875 2.25H3.75v4.5l.735.015c7.425.143 12.442 5.16 12.78 12.795l.03.72 4.47-.015v-1.11C21.773 9.832 14.19 2.25 4.875 2.25M18.72 18.773c-.637-7.718-5.94-13.02-13.47-13.478V3.758c8.19.195 14.82 6.824 15.023 15.015zm-12.907-3.42a2.84 2.84 0 0 0-2.835 2.835 2.833 2.833 0 0 0 2.835 2.835 2.833 2.833 0 0 0 2.835-2.835 2.833 2.833 0 0 0-2.835-2.835m0 4.162c-.735 0-1.335-.6-1.335-1.335s.6-1.335 1.335-1.335 1.335.6 1.335 1.335-.6 1.335-1.335 1.335M4.74 8.243h-.99v4.41l.668.074c4.59.495 6.442 2.355 6.832 6.863l.06.69h4.47v-.99c0-6.09-4.957-11.04-11.04-11.04zm7.935 10.53c-.578-4.515-2.835-6.788-7.425-7.455v-1.56c4.852.255 8.753 4.162 9.015 9.007h-1.598z"/></svg>