<svg xmlns="http://www.w3.org/2000/svg" xml:space="preserve" viewBox="0 0 32 32"><path d="M28 13.736c0 .712-.171 1.208-.509 1.475-.223.176-.517.259-.809.294-.173-5.269-5.226-9.512-11.427-9.512-.652 0-1.297.046-1.921.138-2.614-1.447-5.858-1.464-6.001-1.464h-1v4.994a9.5 9.5 0 0 0-1.842 2.806h-.598A1.895 1.895 0 0 0 2 14.359v3.415c0 1.044.849 1.893 1.893 1.893H4.4c.585 1.36 1.54 2.577 2.801 3.566v2.306a2.797 2.797 0 0 0 2.794 2.794h1.239c1.269 0 2.3-1.031 2.3-2.3v-.443q.592.056 1.167.057c.451 0 1.279-.029 2.033-.088v.475c0 1.269 1.031 2.3 2.3 2.3h1.239a2.797 2.797 0 0 0 2.794-2.794v-2.614c1.815-1.441 3.005-3.339 3.439-5.407.684-.021 1.51-.179 2.212-.727.585-.458 1.282-1.358 1.282-3.056zm-6.518 7.88-.416.299v3.624a.795.795 0 0 1-.794.794h-1.239c-.16 0-.3-.14-.3-.3v-2.8l-1.185.223c-.591.11-2.111.19-2.849.19-.64 0-1.307-.064-1.982-.19l-1.185-.223v2.8c0 .16-.14.3-.3.3H9.994a.795.795 0 0 1-.794-.794v-3.325l-.423-.299c-1.338-.947-2.285-2.178-2.738-3.56l-.226-.688H4v-3.2h1.909l.225-.689c.358-1.098 1.015-2.132 1.897-2.992l.302-.294v-3.76c1.094.115 2.878.43 4.283 1.294l.323.2.375-.067a11 11 0 0 1 1.94-.167c5.207 0 9.443 3.494 9.443 7.788.001 2.238-1.171 4.365-3.215 5.836"/><path d="m9.924 11.684 1.217 1.588c1.072-.822 2.48-1.275 3.963-1.275 1.532 0 2.973.479 4.058 1.348l1.25-1.561c-1.438-1.153-3.322-1.788-5.308-1.788-1.92.001-3.76.6-5.18 1.688"/></svg>