<svg xmlns="http://www.w3.org/2000/svg" xml:space="preserve" viewBox="0 0 32 32"><path d="M28 14.736c0 .712-.171 1.208-.509 1.475-.222.175-.514.258-.806.292-.125-3.734-2.752-7.103-6.699-8.637C19.914 5.173 17.711 3 15 3a5.01 5.01 0 0 0-4.604 3.052 15.3 15.3 0 0 0-3.063-.385h-1v4.994a9.5 9.5 0 0 0-1.842 2.806h-.598A1.895 1.895 0 0 0 2 15.359v3.415c0 1.044.849 1.893 1.893 1.893H4.4c.585 1.36 1.54 2.577 2.801 3.566v2.306a2.797 2.797 0 0 0 2.794 2.794h1.239c1.269 0 2.3-1.031 2.3-2.3v-.443q.592.056 1.167.057c.451 0 1.279-.029 2.033-.088v.475c0 1.269 1.031 2.3 2.3 2.3h1.239a2.797 2.797 0 0 0 2.794-2.794v-2.614c1.815-1.441 3.005-3.339 3.439-5.407.684-.021 1.51-.179 2.212-.727.585-.458 1.282-1.358 1.282-3.056zM15 5c1.654 0 3 1.346 3 3s-1.346 3-3 3-3-1.346-3-3 1.346-3 3-3m6.482 17.616-.416.299v3.624a.795.795 0 0 1-.794.794h-1.239c-.16 0-.3-.14-.3-.3v-2.8l-1.185.223c-.591.11-2.111.19-2.849.19-.64 0-1.307-.064-1.982-.19l-1.185-.223v2.8c0 .16-.14.3-.3.3H9.994a.795.795 0 0 1-.794-.794v-3.325l-.423-.299c-1.338-.947-2.285-2.178-2.738-3.56l-.226-.688H4v-3.2h1.909l.225-.689c.358-1.098 1.015-2.132 1.897-2.992l.302-.294v-3.76c.46.048 1.044.135 1.668.28.004 1.47.656 2.78 1.673 3.694-.625.263-1.223.575-1.75.979l1.217 1.588c1.072-.822 2.48-1.275 3.963-1.275 1.532 0 2.973.479 4.058 1.348l1.25-1.561a7.9 7.9 0 0 0-1.997-1.152 5 5 0 0 0 1.211-1.748c3.071 1.332 5.073 3.998 5.073 6.897-.001 2.236-1.173 4.363-3.217 5.834"/></svg>