<svg xmlns="http://www.w3.org/2000/svg" viewBox="0 0 24 24"><path d="M21 11.052a1.35 1.35 0 0 1-.382 1.106 1.2 1.2 0 0 1-.604.22C19.92 9.576 17.95 7.051 14.989 5.9A3.744 3.744 0 0 0 7.8 4.539a11.5 11.5 0 0 0-2.297-.289h-.75v3.746A7.2 7.2 0 0 0 3.37 10.1h-.45a1.425 1.425 0 0 0-1.42 1.42v2.56a1.425 1.425 0 0 0 1.42 1.42h.38a6.86 6.86 0 0 0 2.1 2.675v1.73A2.1 2.1 0 0 0 7.495 22h.93a1.725 1.725 0 0 0 1.725-1.725v-.332c.3.027.588.042.875.042.338 0 .96-.021 1.525-.066v.357A1.725 1.725 0 0 0 14.275 22h.929a2.1 2.1 0 0 0 2.095-2.095v-1.96a7.04 7.04 0 0 0 2.58-4.056 2.8 2.8 0 0 0 1.659-.545 2.73 2.73 0 0 0 .962-2.292zM11.25 3.75a2.25 2.25 0 1 1 0 4.5 2.25 2.25 0 0 1 0-4.5m4.861 13.212-.312.225v2.718a.6.6 0 0 1-.595.595h-.93a.23.23 0 0 1-.224-.224v-2.1l-.889.167a17 17 0 0 1-2.137.142 8 8 0 0 1-1.486-.142l-.889-.168v2.1a.23.23 0 0 1-.225.226h-.928a.6.6 0 0 1-.596-.596V17.41l-.317-.224a5.35 5.35 0 0 1-2.054-2.67l-.17-.517H3v-2.4h1.432l.168-.516a5.6 5.6 0 0 1 1.426-2.244l.224-.22v-2.82q.631.067 1.25.21a3.73 3.73 0 0 0 1.255 2.77 6 6 0 0 0-1.313.735l.913 1.19a4.9 4.9 0 0 1 2.97-.954c1.1-.017 2.172.34 3.044 1.011l.937-1.17a5.9 5.9 0 0 0-1.5-.865c.393-.367.703-.814.908-1.31 2.303.998 3.805 3 3.805 5.174a5.44 5.44 0 0 1-2.407 4.372"/></svg>