<svg xmlns="http://www.w3.org/2000/svg" width="24" height="24"><path fill-rule="evenodd" d="M20.935 10.899a1.35 1.35 0 0 0 .065-.597h1.5a2.73 2.73 0 0 1-.962 2.292 2.8 2.8 0 0 1-1.66.545 7.04 7.04 0 0 1-2.579 4.056v1.96a2.1 2.1 0 0 1-2.095 2.095h-.93a1.725 1.725 0 0 1-1.724-1.724v-.357c-.566.044-1.187.066-1.525.066a10 10 0 0 1-.875-.043v.333a1.725 1.725 0 0 1-1.725 1.725h-.93A2.1 2.1 0 0 1 5.4 19.154v-1.73a6.86 6.86 0 0 1-2.1-2.674h-.38a1.425 1.425 0 0 1-1.42-1.42v-2.56a1.425 1.425 0 0 1 1.419-1.42h.45A7.2 7.2 0 0 1 4.75 7.246V3.5h.75A10.5 10.5 0 0 1 10 4.598q.718-.105 1.441-.103c4.651 0 8.44 3.182 8.57 7.134.219-.017.429-.094.607-.22a1.35 1.35 0 0 0 .317-.51M15.8 16.437l.311-.225a5.43 5.43 0 0 0 2.412-4.377c0-3.22-3.176-5.841-7.082-5.841a8.3 8.3 0 0 0-1.455.125l-.281.05-.242-.15a8 8 0 0 0-3.212-.97v2.82l-.226.22a5.6 5.6 0 0 0-1.424 2.244l-.17.517H3v2.4h1.36l.17.515a5.35 5.35 0 0 0 2.053 2.67l.317.226v2.494a.6.6 0 0 0 .595.595h.929a.23.23 0 0 0 .225-.224v-2.1l.889.167q.736.14 1.486.142 1.073-.003 2.137-.142l.889-.168v2.1a.23.23 0 0 0 .225.226h.929a.6.6 0 0 0 .595-.596zM8.356 9.954l-.913-1.191A6.4 6.4 0 0 1 11.325 7.5a6.36 6.36 0 0 1 3.981 1.34l-.937 1.171A4.87 4.87 0 0 0 11.324 9a4.9 4.9 0 0 0-2.97.954" clip-rule="evenodd"/></svg>