<svg xmlns="http://www.w3.org/2000/svg" width="24" height="24"><path fill-rule="evenodd" d="m17.227 5.559 2.37 2.372 2.561 2.56H20.25v7.626l-1.35-1.35-.46.46-2.371 2.37-2.56 2.561V20.25H5.883l1.349-1.35-.46-.46-2.37-2.371-2.561-2.56H3.75V5.883l1.35 1.35.459-.46 2.372-2.37 2.56-2.561V3.75h7.626l-1.35 1.35zm.142 7.555 1.381 1.381v-3.354l-1.617-1.078a5.4 5.4 0 0 0-.547-1.072h1.95l-2.37-2.371-1.904.38a5.5 5.5 0 0 0-1.148-.37l1.38-1.38h-3.353L10.06 6.875q-.564.211-1.068.541v-1.95L6.62 7.836l.383 1.914q-.25.548-.373 1.136l-1.38-1.38v3.353l1.617 1.078c.142.376.325.736.547 1.072h-1.95l2.37 2.372L9.739 17q.554.248 1.148.37l-1.38 1.38h3.353l1.078-1.617a5.4 5.4 0 0 0 1.072-.546v1.95l2.372-2.37L17 14.262q.248-.554.37-1.149m-6.884-3.381a2.727 2.727 0 1 1 3.03 4.535 2.727 2.727 0 0 1-3.03-4.535m.833 3.287a1.227 1.227 0 1 0 1.363-2.04 1.227 1.227 0 0 0-1.363 2.04" clip-rule="evenodd"/></svg>