<svg xmlns="http://www.w3.org/2000/svg" viewBox="0 0 24 24"><g clip-path="url(#a)"><path d="M20.643 6.639a1.5 1.5 0 0 0-2.064-.49l-8.07 4.969L7.787 9.44l-.013-.001A3.369 3.369 0 0 0 6.375 3 3.375 3.375 0 0 0 4.5 9.182L9.076 12 4.5 14.819a3.375 3.375 0 1 0 5.25 2.807 3.37 3.37 0 0 0-1.976-3.065l.013-.001 2.722-1.678 8.07 4.97a1.5 1.5 0 0 0 2.064-.491L11.941 12zM6.375 4.5c1.034 0 1.875.84 1.875 1.875A1.88 1.88 0 0 1 6.375 8.25 1.88 1.88 0 0 1 4.5 6.375c0-1.034.841-1.875 1.875-1.875m0 15A1.88 1.88 0 0 1 4.5 17.625c0-1.034.841-1.875 1.875-1.875s1.875.84 1.875 1.875A1.88 1.88 0 0 1 6.375 19.5"/></g><defs><clipPath id="a"><path d="M0 0h24v24H0z"/></clipPath></defs></svg>