<svg width="100%" height="100%" viewBox="0 0 24 24" version="1.1" xmlns="http://www.w3.org/2000/svg" xmlns:xlink="http://www.w3.org/1999/xlink" xml:space="preserve" style="fill-rule:evenodd;clip-rule:evenodd;stroke-linejoin:round;stroke-miterlimit:2;"><g transform="matrix(1,0,0,1,-0.021,0)"><path d="M20.843,6.639C20.57,6.196 20.086,5.926 19.566,5.926C19.288,5.926 19.016,6.003 18.779,6.149L10.709,11.118L7.986,9.44L7.974,9.439C9.178,8.895 9.956,7.69 9.956,6.369C9.956,4.521 8.435,3 6.587,3L6.574,3C4.722,3 3.199,4.524 3.199,6.375C3.199,7.502 3.763,8.556 4.7,9.182L9.276,12L4.7,14.819C3.764,15.445 3.2,16.499 3.2,17.625C3.2,19.477 4.724,21 6.575,21C8.426,21 9.95,19.477 9.95,17.626C9.949,16.308 9.174,15.106 7.974,14.561L7.986,14.56L10.709,12.882L18.779,17.852C19.015,17.998 19.288,18.075 19.566,18.075C20.086,18.075 20.57,17.804 20.843,17.361L12.142,12L20.843,6.639ZM6.575,4.5C7.608,4.5 8.45,5.34 8.45,6.375C8.447,7.403 7.603,8.247 6.575,8.25C5.547,8.247 4.703,7.403 4.7,6.375C4.7,5.341 5.541,4.5 6.575,4.5M6.575,19.5C5.547,19.497 4.703,18.653 4.7,17.625C4.7,16.591 5.541,15.75 6.575,15.75C7.608,15.75 8.45,16.59 8.45,17.625C8.447,18.653 7.603,19.497 6.575,19.5" style="fill-rule:nonzero;"/></g></svg>