<svg xmlns="http://www.w3.org/2000/svg" width="25" height="24"><g clip-path="url(#a)"><path d="M20.843 6.639a1.5 1.5 0 0 0-2.064-.49l-8.07 4.969L7.986 9.44l-.012-.001A3.369 3.369 0 0 0 6.575 3 3.375 3.375 0 0 0 4.7 9.182L9.276 12 4.7 14.819a3.375 3.375 0 1 0 5.25 2.807 3.37 3.37 0 0 0-1.976-3.065l.012-.001 2.723-1.678 8.07 4.97a1.5 1.5 0 0 0 2.064-.491L12.142 12zM6.575 4.5c1.033 0 1.875.84 1.875 1.875A1.88 1.88 0 0 1 6.575 8.25 1.88 1.88 0 0 1 4.7 6.375c0-1.034.841-1.875 1.875-1.875m0 15A1.88 1.88 0 0 1 4.7 17.625c0-1.034.841-1.875 1.875-1.875 1.033 0 1.875.84 1.875 1.875A1.88 1.88 0 0 1 6.575 19.5"/></g><defs><clipPath id="a"><path d="M.2 0h24v24H.2z"/></clipPath></defs></svg>