<svg xmlns="http://www.w3.org/2000/svg" viewBox="0 0 24 24"><g clip-path="url(#a)"><path d="m21.533 20.468-6.098-6.098a7.47 7.47 0 0 0 1.815-4.875c0-4.132-3.367-7.5-7.5-7.5-4.132 0-7.5 3.367-7.5 7.5s3.367 7.5 7.5 7.5c1.733 0 3.33-.6 4.598-1.59l6.12 6.12 1.057-1.057zM3.75 9.495c0-3.307 2.693-6 6-6s6 2.693 6 6-2.693 6-6 6-6-2.692-6-6"/><path d="M12.023 6.045 9.75 8.31 7.478 6.045 6.42 7.103l2.273 2.272L6.42 11.64l1.058 1.065 2.272-2.273 2.273 2.273 1.057-1.065-2.273-2.265 2.273-2.272z"/></g><defs><clipPath id="a"><path d="M0 0h24v24H0z"/></clipPath></defs></svg>