<svg xmlns="http://www.w3.org/2000/svg" viewBox="0 0 24 24"><g clip-path="url(#a)"><path fill-rule="evenodd" d="m15.435 14.37 6.097 6.098h-.007l-1.057 1.057-6.12-6.12a7.46 7.46 0 0 1-4.598 1.59c-4.132 0-7.5-3.368-7.5-7.5s3.367-7.5 7.5-7.5 7.5 3.367 7.5 7.5c0 1.86-.69 3.563-1.815 4.875M9.75 3.495c-3.307 0-6 2.693-6 6s2.693 6 6 6 6-2.692 6-6-2.693-6-6-6m0 4.815 2.273-2.265 1.057 1.058-2.273 2.272 2.273 2.265-1.057 1.065-2.273-2.273-2.272 2.273L6.42 11.64l2.273-2.265L6.42 7.103l1.058-1.058z" clip-rule="evenodd"/></g><defs><clipPath id="a"><path d="M0 0h24v24H0z"/></clipPath></defs></svg>