<svg xmlns="http://www.w3.org/2000/svg" viewBox="0 0 24 24"><path d="M15.772 11.888h-1.5V9.93c0-1.192.998-2.167 2.22-2.167s2.22.975 2.22 2.167v1.957h-1.5V9.93c0-.367-.322-.667-.72-.667s-.72.3-.72.667zM5.19 5.947h3.12c.412 0 .75-.338.75-.75a.75.75 0 0 0-.75-.75H5.19a.75.75 0 0 0-.75.75c0 .412.337.75.75.75m3.15 1.537H5.22a.75.75 0 0 0-.75.75c0 .413.337.75.75.75h3.12c.412 0 .75-.337.75-.75a.75.75 0 0 0-.75-.75m14.197 11.16v3.893H3.022v-6.765c0-.945.585-1.755 1.418-2.085v-1.59h-.683a2.25 2.25 0 0 1-2.25-2.25v-6.06a2.25 2.25 0 0 1 2.25-2.25h6.06a2.25 2.25 0 0 1 2.25 2.25v6.06a2.25 2.25 0 0 1-2.25 2.25H9.06v1.567c.862.315 1.492 1.14 1.492 2.108v.622h2.123v-3c0-.825.675-1.5 1.5-1.5h4.605c.825 0 1.5.675 1.5 1.5v3h.015a2.25 2.25 0 0 1 2.25 2.25zM9.81 10.59c.412 0 .75-.338.75-.75V3.788a.75.75 0 0 0-.75-.75H3.757a.75.75 0 0 0-.75.75v6.06c0 .412.338.75.75.75h6.06zm-3.87 1.523v1.402h1.62v-1.402zm3.105 3.66c0-.21-.09-.398-.225-.54H4.755a.73.73 0 0 0-.225.54v5.265h4.522v-5.265zm5.122.622h4.605v-3h-4.605zm6.87 2.25a.75.75 0 0 0-.75-.75h-9.742v3.143h10.492z"/></svg>