<svg xmlns="http://www.w3.org/2000/svg" viewBox="0 0 32 32"><path d="M6 16v-2h2v2zm6 0v-2h-2v2zm-7 2h9v2H4.83c-.46 0-.83.45-.83 1v4c0 .55.37 1 .83 1H14v2H4.83C3.27 28 2 26.65 2 25v-4c0-.78.29-1.49.76-2.03C2.29 18.44 2 17.76 2 17v-4c0-.77.3-1.47.78-2C2.3 10.47 2 9.77 2 9V5c0-1.65 1.35-3 3-3h18c1.65 0 3 1.35 3 3v4c0 .77-.3 1.47-.78 2 .48.53.78 1.23.78 2v1h-2v-1c0-.55-.45-1-1-1H5c-.55 0-1 .45-1 1v4c0 .55.45 1 1 1M4 9c0 .55.45 1 1 1h18c.55 0 1-.45 1-1V5c0-.55-.45-1-1-1H5c-.55 0-1 .45-1 1zm4 15v-2H6v2zm4 0v-2h-2v2zM8 6H6v2h2zm4 0h-2v2h2zm18 11.41v.79c0 10.3-6.53 11.72-6.8 11.78l-.2.04-.2-.04c-.28-.06-6.8-1.48-6.8-11.78v-.79l.77-.18s3.52-.85 5.78-1.98l.45-.22.45.22c2.27 1.13 5.75 1.97 5.78 1.98zm-2.01 1.56c-1.12-.3-3.25-.92-4.99-1.72-1.74.8-3.86 1.42-4.99 1.72.26 7.05 4.07 8.7 4.99 8.99.93-.29 4.73-1.93 4.99-8.99m-6.87 1.87-1.4 1.42 2.77 2.73 4.14-4.14-1.41-1.41-2.74 2.74-1.35-1.34Z"/></svg>