<svg xmlns="http://www.w3.org/2000/svg" xml:space="preserve" viewBox="0 0 32 32"><path d="M8 15h2v2H8zm4 0h2v2h-2z"/><path d="M28 6c0-1.654-1.346-3-3-3H7C5.346 3 4 4.346 4 6v4c0 .771.301 1.468.78 2A2.98 2.98 0 0 0 4 14v4c0 1.654 1.346 3 3 3h8v2.184A3 3 0 0 0 13.184 25H4v2h9.184c.414 1.161 1.514 2 2.816 2s2.402-.839 2.816-2H28v-2h-9.184A3 3 0 0 0 17 23.184V21h8c1.654 0 3-1.346 3-3v-4a2.98 2.98 0 0 0-.78-2c.48-.532.78-1.229.78-2zM16 27a1 1 0 1 1 0-2 1 1 0 0 1 0 2M6 6c0-.551.448-1 1-1h18c.552 0 1 .449 1 1v4c0 .551-.448 1-1 1H7c-.552 0-1-.449-1-1zm20 12a1 1 0 0 1-1 1H7a1 1 0 0 1-1-1v-4c0-.551.448-1 1-1h18c.552 0 1 .449 1 1z"/><path d="M8 7h2v2H8zm4 0h2v2h-2z"/></svg>