<svg xmlns="http://www.w3.org/2000/svg" viewBox="0 0 24 24"><path d="M6 4.5H4.5V6H6zm1.5 0H9V6H7.5z"/><path fill-rule="evenodd" d="M3 12.75v-3A.75.75 0 0 1 3.75 9h13.5a.75.75 0 0 1 .75.75v.75h1.5v-.75a2.24 2.24 0 0 0-.585-1.5c.375-.41.583-.945.585-1.5v-3a2.25 2.25 0 0 0-2.25-2.25H3.75A2.25 2.25 0 0 0 1.5 3.75v3c.002.555.21 1.09.585 1.5-.375.41-.583.945-.585 1.5v3c.002.555.21 1.09.585 1.5-.375.41-.583.945-.585 1.5v3A2.25 2.25 0 0 0 3.75 21h7.5v-1.5h-7.5a.75.75 0 0 1-.75-.75v-3a.75.75 0 0 1 .75-.75h7.5v-1.5h-7.5a.75.75 0 0 1-.75-.75m0-9A.75.75 0 0 1 3.75 3h13.5a.75.75 0 0 1 .75.75v3a.75.75 0 0 1-.75.75H3.75A.75.75 0 0 1 3 6.75z" clip-rule="evenodd"/><path d="M6 10.5H4.5V12H6zm3 0H7.5V12H9zm-3 6H4.5V18H6zm1.5 0H9V18H7.5z"/><path fill-rule="evenodd" d="M20.534 16.5H22.5V18h-1.966c-.084.369-.231.72-.434 1.04l1.393 1.392-1.06 1.06L19.04 20.1c-.32.203-.671.35-1.04.434V22.5h-1.5v-1.966a3.3 3.3 0 0 1-1.04-.434l-1.392 1.393-1.06-1.06L14.4 19.04a3.3 3.3 0 0 1-.434-1.04H12v-1.5h1.966c.084-.369.231-.72.434-1.04l-1.393-1.392 1.06-1.06L15.46 14.4c.32-.203.671-.35 1.04-.434V12H18v1.966c.369.084.72.231 1.04.434l1.392-1.393 1.06 1.06L20.1 15.46c.203.32.35.671.434 1.04m-4.326 2.309a1.875 1.875 0 1 0 2.084-3.118 1.875 1.875 0 0 0-2.084 3.118" clip-rule="evenodd"/></svg>