<svg xmlns="http://www.w3.org/2000/svg" viewBox="0 0 24 24"><path d="M6 12.75v-1.5h1.5v1.5zm4.5 0v-1.5H9v1.5zm-3 6v-1.5H6v1.5zm1.5 0h1.5v-1.5H9zm-3.75 1.5H9v1.5H5.25A2.257 2.257 0 0 1 3 19.5v-3c0-.578.225-1.102.585-1.5A2.23 2.23 0 0 1 3 13.5v-3c0-.578.225-1.102.585-1.5A2.23 2.23 0 0 1 3 7.5v-3a2.257 2.257 0 0 1 2.25-2.25h13.5A2.257 2.257 0 0 1 21 4.5v3a2.257 2.257 0 0 1-2.25 2.25H5.25a.75.75 0 0 0-.75.75v3c0 .412.338.75.75.75H12v1.5H5.25a.75.75 0 0 0-.75.75v3c0 .413.338.75.75.75M4.5 7.5c0 .412.338.75.75.75h13.5c.413 0 .75-.338.75-.75v-3a.75.75 0 0 0-.75-.75H5.25a.75.75 0 0 0-.75.75zm3-2.25H6v1.5h1.5zm3 0H9v1.5h1.5zm11.265 9.203-5.783 5.782a3.8 3.8 0 0 1-1.087.765l-3.262 1.545-.998-.998 1.545-3.262q.293-.606.765-1.087l5.782-5.783c.87-.87 2.265-.9 3.098-.06.84.84.81 2.227-.06 3.098m-.998-2.04a.6.6 0 0 0-.427-.173.8.8 0 0 0-.547.232l-5.783 5.783q-.292.294-.473.668l-.645 1.365 1.366-.646q.372-.18.667-.472l5.782-5.783c.285-.285.316-.727.06-.975"/></svg>