<svg xmlns="http://www.w3.org/2000/svg" width="24" height="24"><path fill-rule="evenodd" d="M20.341 2.909c.422.422.659.994.659 1.591v3a2.23 2.23 0 0 1-.585 1.5c.375.41.583.945.585 1.5v3a2.25 2.25 0 0 1-2.25 2.25h-6v1.638a2.25 2.25 0 0 1 1.362 1.362H21v1.5h-6.888a2.236 2.236 0 0 1-4.224 0H3v-1.5h6.888a2.25 2.25 0 0 1 1.362-1.362V15.75h-6A2.25 2.25 0 0 1 3 13.5v-3c.002-.555.21-1.09.585-1.5A2.24 2.24 0 0 1 3 7.5v-3a2.25 2.25 0 0 1 2.25-2.25h13.5a2.25 2.25 0 0 1 1.591.659m-8.758 17.215a.75.75 0 1 0 .834-1.248.75.75 0 0 0-.834 1.248M4.72 3.97a.75.75 0 0 0-.22.53v3a.75.75 0 0 0 .75.75h13.5a.75.75 0 0 0 .75-.75v-3a.75.75 0 0 0-.75-.75H5.25a.75.75 0 0 0-.53.22m14.56 10.06a.75.75 0 0 0 .22-.53v-3a.75.75 0 0 0-.75-.75H5.25a.75.75 0 0 0-.75.75v3a.75.75 0 0 0 .75.75h13.5a.75.75 0 0 0 .53-.22M6 11.25h1.5v1.5H6zm3 0h1.5v1.5H9zm-3-6h1.5v1.5H6zm4.5 0H9v1.5h1.5z" clip-rule="evenodd"/></svg>