<svg xmlns="http://www.w3.org/2000/svg" viewBox="0 0 24 24"><path fill-rule="evenodd" d="M20.25 1.5h-7.5A2.25 2.25 0 0 0 10.638 3H3.75A2.25 2.25 0 0 0 1.5 5.25v3c.002.555.21 1.09.585 1.5-.375.41-.583.945-.585 1.5v3c.002.555.21 1.09.585 1.5-.375.41-.583.945-.585 1.5v3a2.25 2.25 0 0 0 2.25 2.25h13.5a2.25 2.25 0 0 0 2.25-2.25v-3a2.24 2.24 0 0 0-.585-1.5c.375-.41.583-.945.585-1.5v-1.5h.75a2.25 2.25 0 0 0 2.25-2.25V3.75a2.25 2.25 0 0 0-2.25-2.25M3 5.25a.75.75 0 0 1 .75-.75h6.75V9H3.75A.75.75 0 0 1 3 8.25zm15 15a.75.75 0 0 1-.75.75H3.75a.75.75 0 0 1-.75-.75v-3a.75.75 0 0 1 .75-.75h13.5a.75.75 0 0 1 .75.75zm0-6a.75.75 0 0 1-.75.75H3.75a.75.75 0 0 1-.75-.75v-3a.75.75 0 0 1 .75-.75h6.75a2.25 2.25 0 0 0 2.25 2.25H18zm3-3.75a.75.75 0 0 1-.75.75h-7.5a.75.75 0 0 1-.75-.75V3.75a.75.75 0 0 1 .75-.75h7.5a.75.75 0 0 1 .75.75zm-2.25-6.75h1.5v1.5h-1.5zM4.5 12H6v1.5H4.5zM9 12H7.5v1.5H9zM4.5 6H6v1.5H4.5zM9 6H7.5v1.5H9zM4.5 18H6v1.5H4.5zM9 18H7.5v1.5H9zm5.667-13.058a2.625 2.625 0 1 1 2.916 4.366 2.625 2.625 0 0 1-2.916-4.366M15.5 8.06a1.125 1.125 0 1 0 1.25-1.87 1.125 1.125 0 0 0-1.25 1.87" clip-rule="evenodd"/></svg>