<svg xmlns="http://www.w3.org/2000/svg" viewBox="0 0 24 24"><path d="M6 12.75v-1.5h1.5v1.5zm4.5 0v-1.5H9v1.5zm-3 6v-1.5H6v1.5zm3 0v-1.5H9v1.5zm-5.25 1.5h7.5v1.5h-7.5A2.257 2.257 0 0 1 3 19.5v-3c0-.578.225-1.102.585-1.5A2.23 2.23 0 0 1 3 13.5v-3c0-.578.225-1.102.585-1.5A2.23 2.23 0 0 1 3 7.5v-3a2.257 2.257 0 0 1 2.25-2.25h13.5A2.257 2.257 0 0 1 21 4.5v3a2.23 2.23 0 0 1-.585 1.5c.36.398.585.922.585 1.5V12h-1.5v-1.5a.75.75 0 0 0-.75-.75H5.25a.75.75 0 0 0-.75.75v3c0 .412.338.75.75.75h5.25v1.5H5.25a.75.75 0 0 0-.75.75v3c0 .413.338.75.75.75M4.5 7.5c0 .412.338.75.75.75h13.5c.413 0 .75-.338.75-.75v-3a.75.75 0 0 0-.75-.75H5.25a.75.75 0 0 0-.75.75zm3-2.25H6v1.5h1.5zm3 0H9v1.5h1.5zm10.718 17.033-2.76-2.76a4.1 4.1 0 0 1-2.333.727A4.13 4.13 0 0 1 12 16.125 4.13 4.13 0 0 1 16.125 12a4.13 4.13 0 0 1 4.125 4.125c0 .87-.27 1.672-.727 2.332l2.76 2.76-1.058 1.058zm-5.093-3.533a2.63 2.63 0 0 0 2.625-2.625 2.63 2.63 0 0 0-2.625-2.625 2.63 2.63 0 0 0-2.625 2.625 2.63 2.63 0 0 0 2.625 2.625"/></svg>