<svg xmlns="http://www.w3.org/2000/svg" viewBox="0 0 32 32"><path d="M6 16v-2h2v2zm6 0v-2h-2v2zm-4 8v-2H6v2zm4 0v-2h-2v2zm3-6h1v2H5.17C4.53 20 4 20.45 4 21v4c0 .55.52 1 1.17 1H16v2H5.17C3.42 28 2 26.65 2 25v-4c0-.76.31-1.45.8-1.97C2.31 18.5 2 17.79 2 17v-4c0-.77.3-1.47.78-2C2.3 10.47 2 9.77 2 9V5c0-1.65 1.35-3 3-3h18c1.65 0 3 1.35 3 3v4c0 1.65-1.35 3-3 3H5c-.55 0-1 .45-1 1v4c0 .55.45 1 1 1zM4 9c0 .55.45 1 1 1h18c.55 0 1-.45 1-1V5c0-.55-.45-1-1-1H5c-.55 0-1 .45-1 1zm4-3H6v2h2zm4 0h-2v2h2zm18 15.53v5.6c0 1.58-1.35 2.87-3 2.87h-6c-1.65 0-3-1.29-3-2.87v-5.6c0-1.24.84-2.29 2-2.69V17.8c0-2.1 1.71-3.8 3.8-3.8h.4c2.09 0 3.8 1.7 3.8 3.8v1.04c1.16.4 2 1.45 2 2.69m-8-2.87h4v-.87c0-.99-.81-1.8-1.8-1.8h-.4c-.99 0-1.8.81-1.8 1.8zm6 2.87c0-.48-.45-.87-1-.87h-6c-.55 0-1 .39-1 .87v5.6c0 .48.45.87 1 .87h6c.55 0 1-.39 1-.87zm-4 .8c-1.1 0-2 .9-2 2s.9 2 2 2 2-.9 2-2-.9-2-2-2"/></svg>