<svg xmlns="http://www.w3.org/2000/svg" viewBox="0 0 24 24"><path fill-rule="evenodd" d="M20.341 2.909c.422.422.659.994.659 1.591v3a2.23 2.23 0 0 1-.585 1.5c.375.41.583.945.585 1.5v3a2.23 2.23 0 0 1-.585 1.5c.375.41.583.945.585 1.5v3a2.25 2.25 0 0 1-2.25 2.25H5.25A2.25 2.25 0 0 1 3 19.5v-3c.002-.555.21-1.09.585-1.5A2.24 2.24 0 0 1 3 13.5v-3c.002-.555.21-1.09.585-1.5A2.24 2.24 0 0 1 3 7.5v-3a2.25 2.25 0 0 1 2.25-2.25h13.5a2.25 2.25 0 0 1 1.591.659M4.72 3.969a.75.75 0 0 0-.22.531v3a.75.75 0 0 0 .75.75h13.5a.75.75 0 0 0 .75-.75v-3a.75.75 0 0 0-.75-.75H5.25a.75.75 0 0 0-.53.22M19.5 13.5v-3a.75.75 0 0 0-.75-.75H5.25a.75.75 0 0 0-.75.75v3a.75.75 0 0 0 .75.75h13.5a.75.75 0 0 0 .75-.75m-.22 6.53a.75.75 0 0 0 .22-.53v-3a.75.75 0 0 0-.75-.75H5.25a.75.75 0 0 0-.75.75v3a.75.75 0 0 0 .75.75h13.5a.75.75 0 0 0 .53-.22M6 11.25h1.5v1.5H6zm3 0h1.5v1.5H9zm-1.5 6H6v1.5h1.5zm1.5 0h1.5v1.5H9zm-3-12h1.5v1.5H6zm4.5 0H9v1.5h1.5z" clip-rule="evenodd"/></svg>