<svg xmlns="http://www.w3.org/2000/svg" xml:space="preserve" style="fill-rule:evenodd;clip-rule:evenodd;stroke-linejoin:round;stroke-miterlimit:2" viewBox="0 0 24 24"><path d="M6 10.5H4.5V12H6zm3 0H7.5V12H9z" style="fill-rule:nonzero"/><path d="M3 12.75v-3c0-.412.337-.75.75-.75h13.5c.413 0 .75.338.75.75v.75h1.5v-.75a2.23 2.23 0 0 0-.585-1.5 2.23 2.23 0 0 0 .585-1.5v-3a2.27 2.27 0 0 0-2.25-2.25H3.75A2.27 2.27 0 0 0 1.5 3.75v3c0 .577.225 1.103.585 1.5a2.23 2.23 0 0 0-.585 1.5v3c0 .578.225 1.102.585 1.5a2.23 2.23 0 0 0-.585 1.5v3A2.27 2.27 0 0 0 3.75 21h7.5v-1.5h-7.5a.754.754 0 0 1-.75-.75v-3c0-.412.337-.75.75-.75h7.5v-1.5h-7.5a.754.754 0 0 1-.75-.75m0-9c0-.413.337-.75.75-.75h13.5c.413 0 .75.337.75.75v3c0 .412-.337.75-.75.75H3.75A.754.754 0 0 1 3 6.75z" style="fill-rule:nonzero"/><path d="M6 16.5H4.5V18H6zm3 0H7.5V18H9zm-3-12H4.5V6H6zm3 0H7.5V6H9zm8.25 7.5c-2.879.003-5.247 2.371-5.25 5.25.003 2.879 2.371 5.247 5.25 5.25 2.879-.003 5.247-2.371 5.25-5.25-.003-2.879-2.371-5.247-5.25-5.25m0 9c-2.07 0-3.75-1.68-3.75-3.75s1.68-3.75 3.75-3.75S21 15.18 21 17.25 19.32 21 17.25 21" style="fill-rule:nonzero"/><path d="M15.188 17.205h1.29V19.5h1.544v-2.295h1.29L17.25 15z" style="fill-rule:nonzero"/></svg>