<svg xmlns="http://www.w3.org/2000/svg" xml:space="preserve" viewBox="0 0 32 32"><path d="M6 16h2v2H6zM25 5h2v2h-2zM10 16h2v2h-2zM6 8h2v2H6zm4 0h2v2h-2zM6 24h2v2H6zm4 0h2v2h-2z"/><path d="M27 2H17a3 3 0 0 0-2.816 2H5C3.346 4 2 5.346 2 7v4c0 .771.301 1.468.78 2A2.98 2.98 0 0 0 2 15v4c0 .771.301 1.468.78 2A2.98 2.98 0 0 0 2 23v4c0 1.654 1.346 3 3 3h18c1.654 0 3-1.346 3-3v-4a2.98 2.98 0 0 0-.78-2c.48-.532.78-1.229.78-2v-2h1c1.654 0 3-1.346 3-3V5c0-1.654-1.346-3-3-3M4 7c0-.551.448-1 1-1h9v6H5c-.552 0-1-.449-1-1zm20 20a1 1 0 0 1-1 1H5a1 1 0 0 1-1-1v-4a1 1 0 0 1 1-1h18a1 1 0 0 1 1 1zm0-8a1 1 0 0 1-1 1H5a1 1 0 0 1-1-1v-4c0-.551.448-1 1-1h9c0 1.654 1.346 3 3 3h7zm4-5c0 .551-.448 1-1 1H17c-.552 0-1-.449-1-1V5c0-.551.448-1 1-1h10c.552 0 1 .449 1 1z"/><path d="M21.5 6C19.57 6 18 7.57 18 9.5s1.57 3.5 3.5 3.5S25 11.43 25 9.5 23.43 6 21.5 6m0 5c-.827 0-1.5-.673-1.5-1.5S20.673 8 21.5 8s1.5.673 1.5 1.5-.673 1.5-1.5 1.5"/></svg>