<svg xmlns="http://www.w3.org/2000/svg" viewBox="0 0 24 24"><g clip-path="url(#a)"><path d="M4.5 12v-1.5H6V12zM9 12v-1.5H7.5V12zm-5.25 1.5h6.75V15H3.623c-.346 0-.623.338-.623.75v3c0 .413.277.75.623.75H10.5V21H3.623C2.453 21 1.5 19.988 1.5 18.75v-3c0-.585.218-1.117.57-1.523a2.2 2.2 0 0 1-.57-1.477v-3c0-.578.225-1.102.585-1.5a2.23 2.23 0 0 1-.585-1.5v-3A2.257 2.257 0 0 1 3.75 1.5h13.5a2.257 2.257 0 0 1 2.25 2.25v3a2.23 2.23 0 0 1-.585 1.5c.36.398.585.922.585 1.5v.75H18v-.75a.75.75 0 0 0-.75-.75H3.75a.75.75 0 0 0-.75.75v3c0 .412.337.75.75.75M3 6.75c0 .412.337.75.75.75h13.5c.413 0 .75-.338.75-.75v-3a.75.75 0 0 0-.75-.75H3.75a.75.75 0 0 0-.75.75zM6 18v-1.5H4.5V18zm3 0v-1.5H7.5V18zM6 4.5H4.5V6H6zm3 0H7.5V6H9zm13.5 8.558v.592c0 7.725-4.898 8.79-5.1 8.835l-.15.03-.15-.03c-.21-.045-5.1-1.11-5.1-8.835v-.593l.578-.135s2.64-.637 4.335-1.485l.337-.164.337.165c1.703.847 4.313 1.477 4.336 1.484zm-1.508 1.17c-.84-.226-2.437-.69-3.742-1.29-1.305.6-2.895 1.064-3.742 1.29.195 5.287 3.052 6.525 3.742 6.742.698-.217 3.547-1.447 3.742-6.742M15.84 15.63l-1.05 1.065 2.078 2.047 3.105-3.105-1.058-1.057-2.055 2.055-1.012-1.005z"/></g><defs><clipPath id="a"><path d="M0 0h24v24H0z"/></clipPath></defs></svg>