<svg xmlns="http://www.w3.org/2000/svg" xml:space="preserve" viewBox="0 0 32 32"><path d="M6 14h2v2H6zm4 0h2v2h-2z"/><path d="M4 17v-4c0-.551.448-1 1-1h18c.552 0 1 .449 1 1v1h2v-1a2.98 2.98 0 0 0-.78-2A2.98 2.98 0 0 0 26 9V5c0-1.654-1.346-3-3-3H5C3.346 2 2 3.346 2 5v4c0 .771.301 1.468.78 2A2.98 2.98 0 0 0 2 13v4c0 .771.301 1.468.78 2A2.98 2.98 0 0 0 2 21v4c0 1.654 1.346 3 3 3h10v-2H5a1 1 0 0 1-1-1v-4a1 1 0 0 1 1-1h10v-2H5a1 1 0 0 1-1-1M4 5c0-.551.448-1 1-1h18c.552 0 1 .449 1 1v4c0 .551-.448 1-1 1H5c-.552 0-1-.449-1-1z"/><path d="M6 22h2v2H6zm4 0h2v2h-2zM6 6h2v2H6zm4 0h2v2h-2zm20 18v-2h-2.621a4.4 4.4 0 0 0-.579-1.386l1.857-1.857-1.414-1.414-1.857 1.857A4.4 4.4 0 0 0 24 18.621V16h-2v2.621c-.5.114-.965.313-1.386.579l-1.857-1.857-1.414 1.414 1.857 1.857A4.4 4.4 0 0 0 18.621 22H16v2h2.621c.114.5.313.965.579 1.386l-1.857 1.857 1.414 1.414 1.857-1.857c.421.266.887.465 1.386.579V30h2v-2.621c.5-.114.965-.313 1.386-.579l1.857 1.857 1.414-1.414-1.857-1.857c.266-.421.465-.887.579-1.386zm-7 1.5c-1.379 0-2.5-1.121-2.5-2.5s1.121-2.5 2.5-2.5 2.5 1.121 2.5 2.5-1.121 2.5-2.5 2.5"/></svg>