<svg xmlns="http://www.w3.org/2000/svg" viewBox="0 0 24 24"><path d="M4.5 12v-1.5H6V12zM9 12v-1.5H7.5V12zm-3 6v-1.5H4.5V18zm3 0v-1.5H7.5V18zm3-4.5V15H3.877c-.48 0-.877.338-.877.75v3c0 .413.39.75.878.75H12V21H3.877C2.565 21 1.5 19.988 1.5 18.75v-3c0-.57.232-1.088.6-1.477-.368-.398-.6-.93-.6-1.523v-3c0-.578.225-1.102.585-1.5a2.23 2.23 0 0 1-.585-1.5v-3A2.257 2.257 0 0 1 3.75 1.5h13.5a2.257 2.257 0 0 1 2.25 2.25v3A2.257 2.257 0 0 1 17.25 9H3.75a.75.75 0 0 0-.75.75v3c0 .412.337.75.75.75zM3 6.75c0 .412.337.75.75.75h13.5c.413 0 .75-.338.75-.75v-3a.75.75 0 0 0-.75-.75H3.75a.75.75 0 0 0-.75.75zM6 4.5H4.5V6H6zm3 0H7.5V6H9zm13.5 11.648v4.2c0 1.185-1.012 2.152-2.25 2.152h-4.5c-1.238 0-2.25-.968-2.25-2.152v-4.2c0-.93.63-1.718 1.5-2.018v-.78a2.854 2.854 0 0 1 2.85-2.85h.3A2.854 2.854 0 0 1 21 13.35v.78c.87.3 1.5 1.087 1.5 2.018m-6-2.153h3v-.652c0-.743-.608-1.35-1.35-1.35h-.3c-.742 0-1.35.607-1.35 1.35zm4.5 2.153c0-.36-.337-.653-.75-.653h-4.5c-.412 0-.75.293-.75.653v4.2c0 .36.338.652.75.652h4.5c.413 0 .75-.293.75-.652zm-3 .6c-.825 0-1.5.674-1.5 1.5 0 .825.675 1.5 1.5 1.5s1.5-.675 1.5-1.5c0-.826-.675-1.5-1.5-1.5"/></svg>