<svg xmlns="http://www.w3.org/2000/svg" width="24" height="24"><path fill-rule="evenodd" d="M22.5 9.75v4.5h-3.35a7.5 7.5 0 0 1-.504 1.214l2.369 2.37-3.181 3.181-2.37-2.37a7.3 7.3 0 0 1-1.214.506V22.5h-4.5v-3.35a7.5 7.5 0 0 1-1.214-.504l-2.37 2.369-3.181-3.181 2.37-2.37a7.3 7.3 0 0 1-.506-1.214H1.5v-4.5h3.35q.197-.63.504-1.213l-2.37-2.37 3.183-3.183 2.369 2.37a7.4 7.4 0 0 1 1.214-.505V1.5h4.5v3.35q.63.197 1.214.504l2.37-2.37 3.181 3.182-2.37 2.37q.308.584.506 1.214zm-4.666 9.144 1.06-1.06-2.137-2.138.319-.507c.36-.57.62-1.198.77-1.855l.133-.584H21v-1.5h-3.017l-.133-.584a6 6 0 0 0-.774-1.855l-.32-.507 2.139-2.138-1.06-1.06-2.139 2.138-.507-.32a6 6 0 0 0-1.855-.77l-.584-.132V3h-1.5v3.022l-.583.133c-.657.15-1.285.41-1.855.77l-.507.32-2.138-2.139-1.061 1.06 2.138 2.138-.32.507a6 6 0 0 0-.77 1.855l-.133.584H3v1.5h3.021l.133.584c.15.657.41 1.284.77 1.855l.32.507-2.139 2.138 1.06 1.06 2.139-2.137.507.319c.57.36 1.198.62 1.855.77l.584.133V21h1.5v-3.021l.583-.133a6 6 0 0 0 1.855-.77l.507-.32zM11.657 8.266a3.75 3.75 0 1 1 .686 7.469 3.75 3.75 0 0 1-.686-7.47m-.11 5.938a2.249 2.249 0 1 0 .906-4.406 2.249 2.249 0 0 0-.906 4.406" clip-rule="evenodd"/></svg>