<svg xmlns="http://www.w3.org/2000/svg" xml:space="preserve" viewBox="0 0 32 32"><path d="M17.944 11.393a4.97 4.97 0 0 0-3.827-.025 5.01 5.01 0 0 0-2.75 6.515 5.01 5.01 0 0 0 6.515 2.75h.001a5.01 5.01 0 0 0 2.75-6.516 4.97 4.97 0 0 0-2.689-2.724m-.814 7.386a3.003 3.003 0 0 1-3.909-1.649A3.004 3.004 0 0 1 16 12.999a3.01 3.01 0 0 1 2.779 1.871 3.003 3.003 0 0 1-1.649 3.909"/><path d="M30 19v-6h-4.466a10 10 0 0 0-.673-1.619l3.159-3.16-4.242-4.242-3.159 3.159A10 10 0 0 0 19 6.466V2h-6v4.466q-.839.264-1.619.672L8.222 3.979 3.979 8.222l3.159 3.16A10 10 0 0 0 6.466 13H2v6h4.466q.264.84.673 1.619L3.98 23.778l4.242 4.242 3.159-3.159q.781.409 1.619.673V30h6v-4.466q.84-.264 1.619-.673l3.159 3.159 4.242-4.242-3.159-3.159q.409-.781.673-1.619zm-4.808 4.778-1.414 1.414-2.851-2.851-.676.426a8 8 0 0 1-2.474 1.027l-.777.178V28h-2v-4.028l-.778-.177a8 8 0 0 1-2.474-1.027l-.676-.426-2.851 2.851-1.414-1.414 2.851-2.851-.426-.676a8 8 0 0 1-1.027-2.474L8.028 17H4v-2h4.028l.177-.778c.2-.876.546-1.709 1.027-2.474l.426-.676-2.85-2.85 1.414-1.414 2.851 2.851.676-.425a8 8 0 0 1 2.474-1.027L15 8.029V4h2v4.029l.778.177a8 8 0 0 1 2.474 1.027l.676.425 2.851-2.851 1.414 1.414-2.851 2.851.426.676a8 8 0 0 1 1.027 2.474l.177.778H28v2h-4.028l-.177.778a8 8 0 0 1-1.027 2.474l-.426.676z"/></svg>