<svg xmlns="http://www.w3.org/2000/svg" viewBox="0 0 24 24"><path d="M9.96 5.408 8.902 4.35l3.106-3.105 3.105 3.105-1.058 1.058-1.29-1.29V7.5h-1.5V4.118l-1.29 1.29zm-5.46 2.4 2.168 2.167 1.057-1.057L5.558 6.75H7.5v-1.5H3v4.5h1.5zm12-2.558v1.5h1.942l-2.137 2.138 1.058 1.057L19.5 7.808V9.75H21v-4.5zM12.75 19.5h6.75V21h-15v-1.5h6.75v-1.965a3.3 3.3 0 0 1-1.043-.435l-1.395 1.395-1.057-1.057 1.395-1.395A3.4 3.4 0 0 1 8.715 15H6.75v-1.5h1.965c.082-.375.232-.72.435-1.042l-1.395-1.395 1.058-1.058 1.394 1.395a3.4 3.4 0 0 1 1.043-.435V9h1.5v1.965c.375.083.72.233 1.043.435l1.395-1.395 1.057 1.058-1.395 1.395c.203.315.345.667.435 1.042h1.965V15h-1.965c-.082.375-.232.72-.435 1.043l1.395 1.395-1.058 1.057-1.394-1.395a3.4 3.4 0 0 1-1.043.435zM12 16.125a1.876 1.876 0 1 0-.001-3.751A1.876 1.876 0 0 0 12 16.125"/></svg>