<svg xmlns="http://www.w3.org/2000/svg" width="24" height="24"><g clip-path="url(#a)"><path fill-rule="evenodd" d="m6.166 18.895 2.138-2.139.506.32c.352.221.727.407 1.115.55l-.52 1.406a8 8 0 0 1-.87-.386l-2.368 2.369-3.182-3.181 2.37-2.37a7.3 7.3 0 0 1-.506-1.214H1.5v-4.5h3.35q.197-.628.504-1.213l-2.37-2.37 3.183-3.183 2.369 2.37q.585-.307 1.214-.505V1.5h4.5v3.35q.628.197 1.215.505l2.37-2.37 3.18 3.182-2.369 2.37c.075.143.137.292.199.441l.048.116.019-.008q.046.111.086.228l.032.09.008.019c.104.286.199.577.268.875l-.008.002.001.001.008-.001q.105.45.152.909l-1.491.157a6 6 0 0 0-.118-.7h-.004a6 6 0 0 0-.77-1.855l-.32-.507 2.139-2.138-1.06-1.06-2.139 2.138-.507-.32a6 6 0 0 0-1.855-.77l-.584-.132V3h-1.5v3.022l-.583.133a6 6 0 0 0-1.855.77l-.507.32-2.138-2.139-1.061 1.06 2.138 2.138-.32.507a6 6 0 0 0-.77 1.855l-.133.584H3v1.5h3.021l.133.584c.15.657.41 1.281.77 1.855l.32.507-2.139 2.138zm7.41-8.502 1.05-1.072a3.75 3.75 0 0 0-4.038-.796 3.756 3.756 0 0 0-1.266 6.1l1.07-1.05a2.253 2.253 0 0 1 .76-3.66 2.25 2.25 0 0 1 2.424.478m7.968 10.84-2.76-2.759c.46-.665.73-1.47.73-2.335a4.13 4.13 0 0 0-4.125-4.125 4.13 4.13 0 0 0-4.125 4.125 4.13 4.13 0 0 0 4.125 4.125c.867 0 1.67-.27 2.335-.73l2.76 2.76zm-8.78-5.094a2.63 2.63 0 0 1 2.625-2.625 2.63 2.63 0 0 1 2.625 2.625 2.63 2.63 0 0 1-2.625 2.625 2.63 2.63 0 0 1-2.625-2.625" clip-rule="evenodd"/></g><defs><clipPath id="a"><path d="M0 0h24v24H0z"/></clipPath></defs></svg>