<svg xmlns="http://www.w3.org/2000/svg" width="24" height="24"><path fill-rule="evenodd" d="M16.5 11.25c-4.358.006-8.07.956-9.75 4.896.106-5.618 4.403-9.371 9.75-9.396V3l6 6-6 6zM18 8.243l-1.493.007a8.34 8.34 0 0 0-6.1 2.445A17 17 0 0 1 16.5 9.75H18v1.629L20.379 9 18 6.621zm2.78 11.037a.75.75 0 0 0 .22-.53v-6h1.5v6A2.25 2.25 0 0 1 20.25 21H3.75a2.25 2.25 0 0 1-2.25-2.25V8.25A2.25 2.25 0 0 1 3.75 6h6v1.5h-6a.75.75 0 0 0-.75.75v10.5a.75.75 0 0 0 .75.75h16.5a.75.75 0 0 0 .53-.22" clip-rule="evenodd"/></svg>