<svg xmlns="http://www.w3.org/2000/svg" viewBox="0 0 32.04 32.04"><path d="M15.02 11.02a2.279 2.279 0 1 1 0 4.56 2.279 2.279 0 1 1 0-4.56m0-2c-2.36 0-4.28 1.92-4.28 4.28s1.92 4.28 4.28 4.28 4.28-1.92 4.28-4.28-1.92-4.28-4.28-4.28"/><path d="M28.98 19.44c-.17-1.53-1.04-2.88-2.37-3.7-.2-.12-.4-.23-.62-.32.66-2.51 1.01-5.32 1.01-8.4V5.99l-1.03.03c-.06 0-6.41.16-10.52-1.9L15 3.9l-.45.22c-4.12 2.06-10.46 1.9-10.52 1.9L3 5.99v1.03c0 7.05 1.7 12.6 5.06 16.51 2.28 2.66 4.72 3.79 5.94 4.22v2.26h4.24l5.07-5.06c1.55.21 3.12-.29 4.23-1.4a4.97 4.97 0 0 0 1.43-4.11ZM15.02 6.13c3.5 1.59 7.98 1.86 9.99 1.89q-.105 3.84-.96 6.99c-.9 0-1.8.23-2.58.71a5 5 0 0 0-2.41 3.92c-.94-.45-1.97-.72-3.04-.72h-2c-2 0-3.87.87-5.19 2.32-2.38-3.28-3.66-7.71-3.8-13.21 2.01-.04 6.49-.31 9.99-1.89Zm3.3 15.35-4.17 4.17c-.99-.43-2.52-1.28-4.03-2.86a5 5 0 0 1 3.91-1.88h2c.81 0 1.59.21 2.3.57Zm7.83.66c-.75.76-1.83 1.04-2.89.76l-.56-.15-5.26 5.26h-1.41V26.6l5.26-5.26-.15-.56c-.35-1.32.19-2.64 1.37-3.36.92-.56 2.14-.55 3.06.02.82.51 1.33 1.3 1.44 2.23.1.92-.21 1.81-.86 2.47"/><path d="M23.31 19.31a.996.996 0 1 0 1.41 1.41.996.996 0 1 0-1.41-1.41"/></svg>