<svg xmlns="http://www.w3.org/2000/svg" xml:space="preserve" viewBox="0 0 32 32"><path d="M26.97 6c-.06.003-6.405.165-10.522-1.895L16 3.882l-.447.224C11.434 6.165 5.094 6.001 5.03 6L4 5.97V7c0 18.195 11.306 20.872 11.787 20.977l.213.046.213-.047C16.694 27.872 28 25.195 28 7V5.97zM16 25.967C14.517 25.533 6.372 22.497 6.013 8c2.006-.036 6.49-.306 9.987-1.893C19.497 7.694 23.981 7.964 25.987 8 25.628 22.506 17.474 25.537 16 25.967"/><path d="m23.908 10.277-1.986-.24c-.798 6.593-2.885 9.321-4.821 11.121l1.361 1.465c2.201-2.047 4.57-5.113 5.446-12.346"/></svg>