<svg xmlns="http://www.w3.org/2000/svg" width="24" height="24"><g clip-path="url(#a)"><path fill-rule="evenodd" d="M12.336 3.079c3.088 1.545 7.847 1.423 7.891 1.421L21 4.478v.772c0 13.646-8.48 15.654-8.84 15.732l-.16.035-.16-.034C11.48 20.904 3 18.896 3 5.25v-.772l.773.022h.004c.167.004 4.839.104 7.888-1.42L12 2.911zM8.307 17.096c1.585 1.656 3.177 2.229 3.693 2.38.513-.15 2.107-.722 3.693-2.379a3.77 3.77 0 0 0-2.943-1.43h-1.5a3.77 3.77 0 0 0-2.943 1.43m4.443-2.93c1.506 0 2.925.664 3.911 1.766 1.458-2.022 2.71-5.142 2.83-9.932-1.505-.027-4.868-.23-7.491-1.42C9.377 5.77 6.014 5.973 4.51 6c.118 4.79 1.37 7.91 2.83 9.932a5.26 5.26 0 0 1 3.91-1.765zm-.75-.999a3.208 3.208 0 1 1 0-6.416 3.208 3.208 0 0 1 0 6.416m0-1.5a1.71 1.71 0 0 0 1.709-1.708A1.71 1.71 0 0 0 12 8.25a1.71 1.71 0 0 0-1.709 1.709A1.71 1.71 0 0 0 12 11.667" clip-rule="evenodd"/></g><defs><clipPath id="a"><path d="M0 0h24v24H0z"/></clipPath></defs></svg>