<svg xmlns="http://www.w3.org/2000/svg" viewBox="0 0 24 24"><g clip-path="url(#a)"><path fill-rule="evenodd" d="M22.477 14.573a3.74 3.74 0 0 0-2.242-3.016c.495-1.882.757-3.99.757-6.3v-.772l-.772.022h-.01c-.242.005-4.865.087-7.88-1.425l-.338-.165-.337.165c-3.023 1.512-7.638 1.43-7.88 1.426h-.01l-.773-.023v.772c0 5.288 1.275 9.45 3.795 12.383 1.71 1.995 3.54 2.843 4.455 3.165V22.5h3.18l3.803-3.795a3.76 3.76 0 0 0 3.172-1.05 3.73 3.73 0 0 0 1.073-3.083zM12 4.583C14.625 5.774 17.985 5.976 19.492 6q-.078 2.88-.72 5.243c-.675 0-1.35.172-1.935.532a3.76 3.76 0 0 0-1.807 2.94 5.3 5.3 0 0 0-2.28-.54h-1.5a5.27 5.27 0 0 0-3.893 1.74c-1.785-2.46-2.745-5.782-2.85-9.908C6.015 5.977 9.375 5.775 12 4.59zm2.475 11.512-3.128 3.128c-.742-.323-1.89-.96-3.022-2.145a3.75 3.75 0 0 1 2.932-1.41h1.5a3.8 3.8 0 0 1 1.725.427zm5.872.495c-.562.57-1.372.78-2.167.57l-.42-.113-3.945 3.945h-1.058v-1.057l3.945-3.945-.112-.42c-.263-.99.142-1.98 1.027-2.52a2.23 2.23 0 0 1 2.295.015 2.253 2.253 0 0 1 .435 3.525M12 13.17c1.77 0 3.21-1.44 3.21-3.21S13.77 6.75 12 6.75 8.79 8.19 8.79 9.96s1.44 3.21 3.21 3.21m0-4.92a1.71 1.71 0 1 1 0 3.418 1.71 1.71 0 0 1 0-3.418m6.217 7.275a.747.747 0 1 1 1.055-1.058.747.747 0 0 1-1.055 1.058" clip-rule="evenodd"/></g><defs><clipPath id="a"><path d="M0 0h24v24H0z"/></clipPath></defs></svg>