<svg xmlns="http://www.w3.org/2000/svg" width="24" height="24"><path fill-rule="evenodd" d="M20.218 4.5h.01L21 4.478v.772c0 13.646-8.48 15.654-8.84 15.732l-.16.035-.16-.034C11.48 20.904 3 18.896 3 5.25v-.772l.773.022h.01c.254.005 4.863.089 7.882-1.42L12 2.912l.336.167c3.02 1.51 7.636 1.426 7.882 1.421M4.51 6c.269 10.875 6.378 13.15 7.49 13.475 1.105-.322 7.221-2.595 7.49-13.475A20.6 20.6 0 0 1 12 4.58 20.6 20.6 0 0 1 4.51 6m11.932 1.528 1.489.18c-.657 5.425-2.434 7.724-4.085 9.26l-1.02-1.1c1.452-1.35 3.015-3.395 3.616-8.34" clip-rule="evenodd"/></svg>