<svg xmlns="http://www.w3.org/2000/svg" viewBox="0 0 24 24"><path fill-rule="evenodd" d="M20.03 20.47a2.84 2.84 0 0 0-1.14-.686l1.463-5.85L18 12.284V9.461a2.674 2.674 0 0 0-2.25-2.674V3.75h-3V1.5h-1.5v2.25h-3v3.037A2.67 2.67 0 0 0 6 9.457v2.828l-2.353 1.65 1.463 5.85c-.429.135-.82.37-1.14.686l-1.5 1.5 1.06 1.06 1.5-1.5a1.373 1.373 0 0 1 1.94 0 2.875 2.875 0 0 0 4.06 0 1.374 1.374 0 0 1 1.94 0 2.875 2.875 0 0 0 4.06 0 1.374 1.374 0 0 1 1.94 0l1.5 1.5 1.06-1.06zM16.5 9.462v1.773L12.236 8.25h3.158A1.164 1.164 0 0 1 16.5 9.462M9.75 5.25h4.5v1.5h-4.5zM7.5 9.458A1.16 1.16 0 0 1 8.602 8.25h3.162L7.5 11.234zM9.97 20.47a1.404 1.404 0 0 1-1.94 0 2.84 2.84 0 0 0-1.393-.76l-1.284-5.141 5.897-4.128v9.3a2.84 2.84 0 0 0-1.28.729m6 0a1.404 1.404 0 0 1-1.94 0 2.84 2.84 0 0 0-1.28-.728v-9.3l5.897 4.125-1.284 5.142c-.528.116-1.01.38-1.393.76m-6.492-6.796-2.677 1.874.86 1.228 2.677-1.873zm4.185 1.229.86-1.23 2.677 1.874-.86 1.229z" clip-rule="evenodd"/></svg>