<svg xmlns="http://www.w3.org/2000/svg" viewBox="0 0 24 24"><path d="m22.29 12.795-.06-.113c-.067-.112-.45-.682-1.088-.682H19.47v-1.485h-3v-3h-7.5v5.828a3 3 0 0 1-.165-.15l-.135-.136c-.427-.352-.967-.832-.975-.832l-.21-.18h-.75v-.915l.75-.675V6.75h-2.25V4.5h-1.5v2.25h-1.5v5.377c-.337.15-.63.435-.697.818-.368 2.018.337 3.63.907 4.538l-.967 1.05 1.102 1.02 1.455-1.583c.63-.57 1.695-.57 2.325 0 1.193 1.08 3.143 1.08 4.335 0 .63-.57 1.695-.57 2.325 0 1.193 1.073 3.143 1.08 4.335 0 .63-.57 1.695-.57 2.332 0l1.823 1.635.997-1.117-.862-.773c.817-1.402 1.125-3.69.63-4.912zm-4.312-.78v1.47s-.03.015-.046.015h-1.454v-1.485zm-3 1.485h-1.5v-1.485h1.5zm-1.5-4.485h1.5v1.5h-1.5zm-3.008 0h1.5v1.5h-1.5zm1.5 3V13.5h-1.5v-1.485zM3.743 8.25h2.25v1.537l-.75.675V12h-1.5zm12.615 8.595c-.63.57-1.696.57-2.325 0-1.193-1.08-3.143-1.08-4.335 0-.63.57-1.695.57-2.325 0-1.013-.915-2.565-1.042-3.773-.375-.375-.66-.772-1.695-.622-2.97l3.945.037c.202.18.532.458.817.698.203.21.743.765 1.635.765h2.602v.015h4.5V15h1.456c.9 0 1.672-.735 2.04-1.463l.982-.03c.248.856-.06 2.31-.457 3.196-1.2-.908-3-.87-4.133.15z"/></svg>