<svg xmlns="http://www.w3.org/2000/svg" width="24" height="24"><path fill-rule="evenodd" d="M20.997 6.465a3 3 0 0 1-.901 2.426q.147.695.154 1.404v3.859a8.3 8.3 0 0 1-6.3 8.128 8.8 8.8 0 0 1-1.942.218 8.3 8.3 0 0 1-5.206-1.814 8.04 8.04 0 0 1-3.052-6.3v-4.09A7.303 7.303 0 0 1 11.045 3h1.788a7.4 7.4 0 0 1 3.557.918l1.626-2.168 2.39 3.186c.335.444.54.974.591 1.529m-1.497.138a1.5 1.5 0 0 0-.295-.767l-1.19-1.586L16.8 5.87a1.49 1.49 0 0 0 1.179 2.38l.037.75-.006-.75a1.51 1.51 0 0 0 1.49-1.647m-.75 7.551v-3.859a6 6 0 0 0-.043-.635 3 3 0 0 1-.684.09h-.055a2.981 2.981 0 0 1-2.473-4.616 5.96 5.96 0 0 0-2.661-.634h-1.788a5.8 5.8 0 0 0-5.796 5.795v4.092a6.55 6.55 0 0 0 2.488 5.129 6.91 6.91 0 0 0 5.88 1.3 6.79 6.79 0 0 0 5.132-6.662M8.647 17.339v-.001zm0 0 .705 1.323a5.63 5.63 0 0 1 5.295 0l.705-1.323a7.13 7.13 0 0 0-6.705 0M10.5 10.5v-.75H9v.75a.75.75 0 0 1-.75.75H7.5v1.5h.75a2.25 2.25 0 0 0 2.25-2.25m4.5-.75v.75a.75.75 0 0 0 .75.75h.75v1.5h-.75a2.25 2.25 0 0 1-2.25-2.25v-.75z" clip-rule="evenodd"/></svg>