<svg xmlns="http://www.w3.org/2000/svg" viewBox="0 0 24 24"><path d="M11.25 1.5h1.5v2.25h-1.5zM12 9.75v-1.5a3 3 0 0 1 3 3h-1.5a1.5 1.5 0 0 0-1.5-1.5"/><path fill-rule="evenodd" d="M18 18v-6.75a6 6 0 1 0-12 0V18a2.25 2.25 0 0 0-2.25 2.25v2.25h16.5v-2.25A2.25 2.25 0 0 0 18 18M7.5 11.25a4.5 4.5 0 1 1 9 0V18h-9zM5.25 21v-.75A.75.75 0 0 1 6 19.5h12a.75.75 0 0 1 .75.75V21z" clip-rule="evenodd"/><path d="M4.5 9.75H2.25v1.5H4.5zm-.455-6.145 1.061-1.06 2.25 2.25-1.06 1.06zm14.849-1.06-2.25 2.25 1.06 1.061 2.25-2.25zM19.5 9.75h2.25v1.5H19.5z"/></svg>