<svg xmlns="http://www.w3.org/2000/svg" viewBox="0 0 24 24"><path fill-rule="evenodd" d="M18.701 8.642A7.5 7.5 0 0 1 19.5 12a7.49 7.49 0 0 1-3.02 6h.02v2.25a2.25 2.25 0 0 1-2.25 2.25h-4.5a2.25 2.25 0 0 1-2.25-2.25V18h.02a7.47 7.47 0 0 1 0-12H7.5V3.75A2.25 2.25 0 0 1 9.75 1.5h4.5a2.25 2.25 0 0 1 2.25 2.25V6h-.02a7.5 7.5 0 0 1 2.221 2.642M9.22 3.22a.75.75 0 0 0-.22.53v1.38a7.45 7.45 0 0 1 6 0V3.75a.75.75 0 0 0-.75-.75h-4.5a.75.75 0 0 0-.53.22M7.01 8.667A6 6 0 0 0 6 12a6.007 6.007 0 0 0 6 6 6 6 0 1 0-4.989-9.333m7.77 12.113a.75.75 0 0 0 .219-.53v-1.38a7.45 7.45 0 0 1-6 0v1.38a.75.75 0 0 0 .75.75h4.5a.75.75 0 0 0 .53-.22m-2.031-9.09 2.78 2.78-1.06 1.06-3.22-3.22V8.25h1.5z" clip-rule="evenodd"/></svg>