<svg xmlns="http://www.w3.org/2000/svg" viewBox="0 0 24 24"><path d="M11.25 8.25h1.5v3.44l2.78 2.78-1.06 1.06-3.22-3.22z"/><path fill-rule="evenodd" d="M16.5 3.75v.825a3.76 3.76 0 0 1 3 3.675v7.5a3.76 3.76 0 0 1-3 3.675v.825a2.25 2.25 0 0 1-2.25 2.25h-4.5a2.25 2.25 0 0 1-2.25-2.25v-.825a3.76 3.76 0 0 1-3-3.675v-7.5a3.76 3.76 0 0 1 3-3.675V3.75A2.25 2.25 0 0 1 9.75 1.5h4.5a2.25 2.25 0 0 1 2.25 2.25m-7.28-.53a.75.75 0 0 0-.22.53v.75h6v-.75a.75.75 0 0 0-.75-.75h-4.5a.75.75 0 0 0-.53.22m5.56 17.56a.75.75 0 0 0 .22-.53v-.75H9v.75a.75.75 0 0 0 .75.75h4.5a.75.75 0 0 0 .53-.22m2.561-3.439A2.25 2.25 0 0 0 18 15.75v-7.5A2.25 2.25 0 0 0 15.75 6h-7.5A2.25 2.25 0 0 0 6 8.25v7.5A2.25 2.25 0 0 0 8.25 18h7.5a2.25 2.25 0 0 0 1.591-.659" clip-rule="evenodd"/></svg>