<svg xmlns="http://www.w3.org/2000/svg" xml:space="preserve" viewBox="0 0 32 32"><path d="M22 6.101V5c0-1.654-1.346-3-3-3h-6c-1.654 0-3 1.346-3 3v1.101A5.01 5.01 0 0 0 6 11v10a5.01 5.01 0 0 0 4 4.899V27c0 1.654 1.346 3 3 3h6c1.654 0 3-1.346 3-3v-1.101A5.01 5.01 0 0 0 26 21V11a5.01 5.01 0 0 0-4-4.899M12 5c0-.551.448-1 1-1h6c.552 0 1 .449 1 1v1h-8zm8 22a1 1 0 0 1-1 1h-6a1 1 0 0 1-1-1v-1h8zm4-6c0 1.654-1.346 3-3 3H11c-1.654 0-3-1.346-3-3V11c0-1.654 1.346-3 3-3h10c1.654 0 3 1.346 3 3z"/><path d="M17 11h-2v5.414l4.293 4.293 1.414-1.414L17 15.586z"/></svg>