<svg xmlns="http://www.w3.org/2000/svg" width="24" height="24"><path fill-rule="evenodd" d="m21.84 7.28-2.12-2.12a.75.75 0 0 1-.22-.532V2.25H18v2.378c0 .601.234 1.167.66 1.592l2.12 2.12a.75.75 0 0 1 .22.532v2.378h1.5V8.872c0-.602-.234-1.167-.66-1.592m-4.59 2.342c0-.2-.078-.39-.22-.531L15.66 7.72A2.24 2.24 0 0 1 15 6.128V4.5h1.5v1.628c0 .2.078.39.22.531l1.37 1.371c.426.426.66.991.66 1.592v1.628h-1.5zM18 14.25v1.635l1.5 1.5V12.75h-4.635l1.5 1.5zm4.5-1.5H21v6h1.5zm-8.25 1.5 3 3 1.5 1.5 1.125 1.125-1.058 1.058-2.182-2.183H3.75A2.257 2.257 0 0 1 1.5 16.5V15a2.257 2.257 0 0 1 2.25-2.25h6.885L3.068 5.183l1.057-1.058 8.625 8.625zM3 15v1.5c0 .413.337.75.75.75H6v-3H3.75A.75.75 0 0 0 3 15m4.5-.75v3h7.635l-3-3z" clip-rule="evenodd"/></svg>