<svg xmlns="http://www.w3.org/2000/svg" viewBox="0 0 24 24"><path d="m19.72 5.16 2.12 2.12a2.24 2.24 0 0 1 .66 1.592v2.378H21V8.872a.75.75 0 0 0-.22-.531L18.66 6.22A2.24 2.24 0 0 1 18 4.628V2.25h1.5v2.378a.75.75 0 0 0 .22.531M17.03 9.09a.75.75 0 0 1 .22.532v1.628h1.5V9.622a2.24 2.24 0 0 0-.66-1.592l-1.37-1.37a.75.75 0 0 1-.22-.532V4.5H15v1.628a2.24 2.24 0 0 0 .66 1.592z"/><path fill-rule="evenodd" d="M1.5 16.5V15a2.25 2.25 0 0 1 2.25-2.25H19.5v6H3.75A2.25 2.25 0 0 1 1.5 16.5M3 15v1.5a.75.75 0 0 0 .75.75H6v-3H3.75A.75.75 0 0 0 3 15m4.5 2.25H18v-3H7.5z" clip-rule="evenodd"/><path d="M22.5 12.75H21v6h1.5z"/></svg>