<svg xmlns="http://www.w3.org/2000/svg" xml:space="preserve" viewBox="0 0 32 32"><path d="M2 20v2c0 1.654 1.346 3 3 3h21v-8H5c-1.654 0-3 1.346-3 3m2 2v-2a1 1 0 0 1 1-1h3v4H5a1 1 0 0 1-1-1m20 1H10v-4h14zm4-6h2v8h-2zm-5.293-4.879a1 1 0 0 1 .293.708V15h2v-2.171c0-.801-.312-1.555-.879-2.122l-1.828-1.828A1 1 0 0 1 22 8.171V6h-2v2.171c0 .801.312 1.555.879 2.122zm6.414-2.414-2.828-2.828A1 1 0 0 1 26 6.171V3h-2v3.171c0 .801.312 1.555.879 2.122l2.828 2.828a1 1 0 0 1 .293.708V15h2v-3.171c0-.802-.312-1.556-.879-2.122"/></svg>