<svg xmlns="http://www.w3.org/2000/svg" viewBox="0 0 32 32"><path d="M16 2C8.28 2 2 8.28 2 16s6.28 14 14 14 14-6.28 14-14S23.72 2 16 2m1 2.04c4.51.37 8.31 3.25 10.03 7.23l-5.16 1.72L17 9.45zm3.57 10.48-1.74 5.37h-5.64l-1.74-5.37 4.57-3.32 4.57 3.32ZM15 4.04v5.41l-4.87 3.54-5.16-1.72C6.68 7.29 10.49 4.42 15 4.04M4 16c0-.98.12-1.92.34-2.83l5.11 1.7 1.78 5.49-3.92 3.92A11.96 11.96 0 0 1 4 16.01Zm12 12c-2.69 0-5.18-.89-7.19-2.4l3.72-3.72h6.94l3.72 3.72c-2 1.5-4.49 2.4-7.19 2.4m8.69-3.73-3.92-3.92 1.78-5.49 5.11-1.7a11.96 11.96 0 0 1-2.97 11.1Z" style="stroke-width:0"/></svg>