<svg xmlns="http://www.w3.org/2000/svg" viewBox="0 0 24 24"><path d="M12 1.5C6.21 1.5 1.5 6.21 1.5 12S6.21 22.5 12 22.5 22.5 17.79 22.5 12 17.79 1.5 12 1.5m8.273 6.953-3.87 1.29-3.653-2.655v-4.05c3.383.277 6.233 2.43 7.523 5.415m-11.7 2.437L12 8.4l3.428 2.49-1.306 4.028h-4.23L8.589 10.89zm2.677-7.853v4.05L7.598 9.744l-3.87-1.29a9 9 0 0 1 7.522-5.415M3 12c0-.735.098-1.44.263-2.123l3.825 1.275 1.334 4.118-2.932 2.933A8.96 8.96 0 0 1 3 12.008zm3.615 7.192 2.783-2.782h5.204l2.783 2.782A8.96 8.96 0 0 1 12 21a8.93 8.93 0 0 1-5.385-1.808m11.895-.997-2.933-2.933 1.336-4.117 3.825-1.275c.165.683.262 1.388.262 2.123 0 2.4-.953 4.582-2.49 6.195z"/></svg>