<svg xmlns="http://www.w3.org/2000/svg" width="24" height="24"><path fill-rule="evenodd" d="M9.873 5.343A3.75 3.75 0 0 1 11.175 7.5H22.5V9H11.175a3.75 3.75 0 0 1-7.35 0H1.5V7.5h2.325a3.75 3.75 0 0 1 6.048-2.157M6.25 10.12a2.25 2.25 0 1 0 2.5-3.742 2.25 2.25 0 0 0-2.5 3.742m7.88 2.726A3.76 3.76 0 0 1 16.5 12a3.756 3.756 0 0 1 3.675 3H22.5v1.5h-2.325a3.75 3.75 0 0 1-7.35 0H1.5V15h11.325a3.76 3.76 0 0 1 1.304-2.153m1.12 4.774a2.25 2.25 0 1 0 2.5-3.742 2.25 2.25 0 0 0-2.5 3.742" clip-rule="evenodd"/></svg>