<svg xmlns="http://www.w3.org/2000/svg" width="24" height="24"><path fill-rule="evenodd" d="M12.75 3h-1.5v8.25H3v1.5h8.25V21h1.5v-8.25H21v-1.5h-8.25zm6 0H16.5a2.25 2.25 0 0 0-2.25 2.25V7.5a2.25 2.25 0 0 0 2.25 2.25h2.25A2.25 2.25 0 0 0 21 7.5V5.25A2.25 2.25 0 0 0 18.75 3m.75 4.5a.75.75 0 0 1-.75.75H16.5a.75.75 0 0 1-.75-.75V5.25a.75.75 0 0 1 .75-.75h2.25a.75.75 0 0 1 .75.75zm-12 2.25H5.25A2.25 2.25 0 0 1 3 7.5V5.25A2.25 2.25 0 0 1 5.25 3H7.5a2.25 2.25 0 0 1 2.25 2.25V7.5A2.25 2.25 0 0 1 7.5 9.75M4.72 4.72a.75.75 0 0 0-.22.53V7.5a.75.75 0 0 0 .75.75H7.5a.75.75 0 0 0 .75-.75V5.25a.75.75 0 0 0-.75-.75H5.25a.75.75 0 0 0-.53.22m2.78 9.53H5.25A2.25 2.25 0 0 0 3 16.5v2.25A2.25 2.25 0 0 0 5.25 21H7.5a2.25 2.25 0 0 0 2.25-2.25V16.5a2.25 2.25 0 0 0-2.25-2.25m.75 4.5a.75.75 0 0 1-.75.75H5.25a.75.75 0 0 1-.75-.75V16.5a.75.75 0 0 1 .75-.75H7.5a.75.75 0 0 1 .75.75zm8.25-4.5h2.25A2.25 2.25 0 0 1 21 16.5v2.25A2.25 2.25 0 0 1 18.75 21H16.5a2.25 2.25 0 0 1-2.25-2.25V16.5a2.25 2.25 0 0 1 2.25-2.25m2.78 5.03a.75.75 0 0 0 .22-.53V16.5a.75.75 0 0 0-.75-.75H16.5a.75.75 0 0 0-.75.75v2.25a.75.75 0 0 0 .75.75h2.25a.75.75 0 0 0 .53-.22" clip-rule="evenodd"/></svg>