<svg xmlns="http://www.w3.org/2000/svg" width="24" height="24"><path fill-rule="evenodd" d="M6.166 4.77a10.5 10.5 0 0 1 13.259 16.155l-.53.53-2.925-2.925 1.06-1.06 1.842 1.842a8.9 8.9 0 0 0 2.095-5.062H19.5v-1.5h1.462a8.95 8.95 0 0 0-2.096-5.051L17.78 8.785l-1.06-1.06 1.086-1.087a8.96 8.96 0 0 0-5.056-2.1V6h-1.5V4.538a8.96 8.96 0 0 0-5.056 2.096l1.09 1.086-1.06 1.06-1.086-1.086a8.96 8.96 0 0 0-2.1 5.056H4.5v1.5H3.033a8.9 8.9 0 0 0 2.095 5.062L6.97 17.47l1.06 1.06-2.925 2.925-.53-.53A10.5 10.5 0 0 1 6.166 4.769m9.054 4.45 1.06 1.06-2.248 2.25a2.22 2.22 0 0 1-.161 2.2A2.25 2.25 0 1 1 12 11.23c.338.003.672.082.975.233zm-3.637 4.884a.75.75 0 1 0 .834-1.247.75.75 0 0 0-.834 1.247" clip-rule="evenodd"/></svg>