<svg xmlns="http://www.w3.org/2000/svg" viewBox="0 0 24 24"><path fill-rule="evenodd" d="M3.75 4.5h16.5a2.25 2.25 0 0 1 2.25 2.25V9a2.25 2.25 0 0 1-2.25 2.25H3.75A2.25 2.25 0 0 1 1.5 9V6.75A2.25 2.25 0 0 1 3.75 4.5m17.03 5.03A.75.75 0 0 0 21 9V6.75a.75.75 0 0 0-.75-.75H3.75a.75.75 0 0 0-.75.75V9a.75.75 0 0 0 .75.75h16.5a.75.75 0 0 0 .53-.22M3.75 12.75h16.5A2.25 2.25 0 0 1 22.5 15v2.25a2.25 2.25 0 0 1-2.25 2.25H3.75a2.25 2.25 0 0 1-2.25-2.25V15a2.25 2.25 0 0 1 2.25-2.25m17.03 5.03a.75.75 0 0 0 .22-.53V15a.75.75 0 0 0-.75-.75H3.75A.75.75 0 0 0 3 15v2.25a.75.75 0 0 0 .75.75h16.5a.75.75 0 0 0 .53-.22" clip-rule="evenodd"/></svg>