<svg xmlns="http://www.w3.org/2000/svg" viewBox="0 0 24 24"><path fill-rule="evenodd" d="M3.75 4.5H9a2.25 2.25 0 0 1 2.25 2.25v10.5A2.25 2.25 0 0 1 9 19.5H3.75a2.25 2.25 0 0 1-2.25-2.25V6.75A2.25 2.25 0 0 1 3.75 4.5m5.78 13.28a.75.75 0 0 0 .22-.53V6.75A.75.75 0 0 0 9 6H3.75a.75.75 0 0 0-.75.75v10.5a.75.75 0 0 0 .75.75H9a.75.75 0 0 0 .53-.22M15 4.5h5.25a2.25 2.25 0 0 1 2.25 2.25v10.5a2.25 2.25 0 0 1-2.25 2.25H15a2.25 2.25 0 0 1-2.25-2.25V6.75A2.25 2.25 0 0 1 15 4.5m5.78 13.28a.75.75 0 0 0 .22-.53V6.75a.75.75 0 0 0-.75-.75H15a.75.75 0 0 0-.75.75v10.5A.75.75 0 0 0 15 18h5.25a.75.75 0 0 0 .53-.22" clip-rule="evenodd"/></svg>