<svg xmlns="http://www.w3.org/2000/svg" viewBox="0 0 24 24"><path d="m9.623 9.21-.72-1.71-.653 1.733c-.878 2.34-2.557 4.012-5.145 5.13l-1.605.69 1.62.667c2.438 1.005 4.125 2.685 5.145 5.145l.675 1.628.683-1.628c1.027-2.445 2.707-4.125 5.152-5.152l1.62-.683-1.62-.682c-2.437-1.028-4.125-2.708-5.152-5.153zm-.675 9.72a10.4 10.4 0 0 0-3.886-3.892c1.703-.975 3.008-2.265 3.908-3.848a10.54 10.54 0 0 0 3.87 3.855 10.5 10.5 0 0 0-3.885 3.885zM20.895 6.87C19.185 6.15 18 4.965 17.28 3.255l-.698-1.665-.637 1.695c-.615 1.635-1.793 2.813-3.607 3.593l-1.568.675 1.575.652c1.71.705 2.895 1.883 3.608 3.608l.66 1.59.667-1.59c.72-1.71 1.897-2.895 3.615-3.615l1.575-.66-1.575-.66zm-1.837.66a7.7 7.7 0 0 0-2.438 2.438 7.64 7.64 0 0 0-2.438-2.438c1.028-.637 1.853-1.447 2.453-2.407a7.76 7.76 0 0 0 2.422 2.415z"/></svg>