<svg xmlns="http://www.w3.org/2000/svg" viewBox="0 0 24 24"><path d="M12.935 6.5a1.125 1.125 0 1 1-1.87 1.25 1.125 1.125 0 0 1 1.87-1.25"/><path fill-rule="evenodd" d="M16.125 7.125C16.125 11.25 12 15 12 15s-4.125-3.75-4.125-7.875a4.125 4.125 0 0 1 8.25 0m-2.269-1.856a2.625 2.625 0 0 0-4.481 1.856c0 2.23 1.549 4.432 2.625 5.693 1.076-1.26 2.625-3.463 2.625-5.693 0-.696-.277-1.364-.769-1.856" clip-rule="evenodd"/><path d="M1.5 13.5H9V15H1.5zm21 7.5v-1.5h-21V21zM15 13.5h7.5V15H15zm-10.5 3h-3V18h3zm1.5 0h3V18H6zm7.5 1.5v-1.5h-3V18zm1.5-1.5h3V18h-3zm7.5 0h-3V18h3z"/></svg>