<svg xmlns="http://www.w3.org/2000/svg" width="24" height="24"><g clip-path="url(#a)"><path d="M14.25 2.25h-4.5A5.256 5.256 0 0 0 4.5 7.5v14.25H6v-1.522l12 .057v1.465h1.5V7.5a5.256 5.256 0 0 0-5.25-5.25m-4.5 1.5h4.5A3.754 3.754 0 0 1 18 7.5v.785L6 8.228V7.5a3.754 3.754 0 0 1 3.75-3.75m4.5 7.5v2.268l-4.494-.022v-2.244h-1.5v2.237L6 13.48V9.73l12 .056v3.75l-2.25-.01V11.25zm1.5 7.525V16.5h-1.5v2.268l-4.5-.022V16.5h-1.5v2.24L6 18.729v-3.75l12 .057v3.75z"/></g><defs><clipPath id="a"><path d="M0 0h24v24H0z"/></clipPath></defs></svg>