<svg xmlns="http://www.w3.org/2000/svg" viewBox="0 0 24 24"><path d="M6 15h1.5v1.5H6zm3 0h1.5v1.5H9z"/><path fill-rule="evenodd" d="m18.336 7.244 2.427 4.854c.155.312.237.657.237 1.006v4.146a2.25 2.25 0 0 1-2.25 2.25H5.25A2.25 2.25 0 0 1 3 17.25v-3.792a3.8 3.8 0 0 1 .396-1.677l2.269-4.537A2.24 2.24 0 0 1 7.677 6h8.646a2.24 2.24 0 0 1 2.013 1.244m-11.053.368a.75.75 0 0 0-.277.303L4.95 12.03q.15-.025.3-.031h13.5q.15.005.3.03l-2.053-4.115a.75.75 0 0 0-.675-.415H7.677a.75.75 0 0 0-.394.112M19.28 17.78a.75.75 0 0 0 .22-.53v-3a.75.75 0 0 0-.75-.75H5.25a.75.75 0 0 0-.75.75v3a.75.75 0 0 0 .75.75h13.5a.75.75 0 0 0 .53-.22" clip-rule="evenodd"/></svg>