<svg xmlns="http://www.w3.org/2000/svg" width="24" height="24"><g clip-path="url(#a)"><path fill-rule="evenodd" d="m18.336 3.494 2.427 4.854c.155.31.237.659.237 1.006V13.5c0 1.24-1.01 2.25-2.25 2.25h-6v1.638a2.25 2.25 0 0 1 1.362 1.362H21v1.5h-6.888c-.31.87-1.136 1.5-2.112 1.5s-1.802-.63-2.112-1.5H3v-1.5h6.888a2.25 2.25 0 0 1 1.362-1.362V15.75h-6C4.01 15.75 3 14.74 3 13.5V9.708c0-.578.137-1.159.396-1.677l2.269-4.538A2.24 2.24 0 0 1 7.677 2.25h8.646a2.24 2.24 0 0 1 2.013 1.244M11.25 19.5a.75.75 0 1 0 1.5 0 .75.75 0 0 0-1.5 0M7.677 3.75a.75.75 0 0 0-.67.415L4.947 8.28l.054-.008c.082-.011.164-.023.249-.023h13.5c.086 0 .168.012.25.024l.052.007-2.058-4.116a.75.75 0 0 0-.672-.415zm11.073 10.5a.75.75 0 0 0 .75-.75v-3a.75.75 0 0 0-.75-.75H5.25a.75.75 0 0 0-.75.75v3c0 .414.336.75.75.75zm-11.25-3H6v1.5h1.5zm3 0H9v1.5h1.5z" clip-rule="evenodd"/></g><defs><clipPath id="a"><path d="M0 0h24v24H0z"/></clipPath></defs></svg>