<svg xmlns="http://www.w3.org/2000/svg" xml:space="preserve" viewBox="0 0 32 32"><path d="M8 24h2v2H8zm4 0h2v2h-2z"/><path d="m28 4.389-.769-.183c-.034-.008-3.518-.846-5.784-1.979L21 2.003l-.447.224c-2.267 1.133-5.75 1.971-5.784 1.979L14 4.389v.79c0 2.949.543 5.151 1.313 6.821h-5.077a2.98 2.98 0 0 0-2.684 1.658l-3.025 6.051A5.04 5.04 0 0 0 4 21.944V27c0 1.654 1.346 3 3 3h18c1.654 0 3-1.346 3-3v-5.528c0-.463-.109-.927-.316-1.341l-2.742-5.483C26.521 12.957 28 10.08 28 5.179zM9.342 14.553a1 1 0 0 1 .894-.553h6.272c1.873 2.42 4.135 2.927 4.296 2.959l.196.04.196-.04c.101-.02 1.035-.229 2.177-.976l2.029 4.057c-.133-.017-.264-.04-.402-.04H7c-.138 0-.27.023-.403.041zM26 27a1 1 0 0 1-1 1H7a1 1 0 0 1-1-1v-4a1 1 0 0 1 1-1h18a1 1 0 0 1 1 1zm-4.999-12.057c-.94-.298-4.729-1.935-4.987-8.992C17.138 5.65 19.26 5.031 21 4.23c1.74.8 3.862 1.419 4.986 1.721-.259 7.068-4.056 8.699-4.985 8.992"/><path d="m19.116 7.825-1.404 1.424 2.768 2.731 4.141-4.141-1.414-1.414-2.736 2.736z"/></svg>