<svg xmlns="http://www.w3.org/2000/svg" xml:space="preserve" viewBox="0 0 32 32"><path d="M24 5h2v2h-2z"/><path d="M26 2H16c-1.654 0-3 1.346-3 3v7H9.236a2.98 2.98 0 0 0-2.684 1.658l-3.025 6.051A5.04 5.04 0 0 0 3 21.944V27c0 1.654 1.346 3 3 3h18c1.654 0 3-1.346 3-3v-5.528c0-.463-.109-.927-.316-1.341L25.118 17H26c1.654 0 3-1.346 3-3V5c0-1.654-1.346-3-3-3m-1 25a1 1 0 0 1-1 1H6a1 1 0 0 1-1-1v-4a1 1 0 0 1 1-1h18a1 1 0 0 1 1 1zm-.598-6.959C24.269 20.023 24.138 20 24 20H6c-.138 0-.27.023-.403.041l2.744-5.488A1 1 0 0 1 9.236 14H13c0 1.654 1.346 3 3 3h6.882zM27 14c0 .551-.448 1-1 1H16c-.552 0-1-.449-1-1V5c0-.551.448-1 1-1h10c.552 0 1 .449 1 1z"/><path d="M20.5 6C18.57 6 17 7.57 17 9.5s1.57 3.5 3.5 3.5S24 11.43 24 9.5 22.43 6 20.5 6m0 5c-.827 0-1.5-.673-1.5-1.5S19.673 8 20.5 8s1.5.673 1.5 1.5-.673 1.5-1.5 1.5M7 24h2v2H7zm4 0h2v2h-2z"/></svg>