<svg xmlns="http://www.w3.org/2000/svg" xml:space="preserve" viewBox="0 0 32 32"><path d="M8 20h2v2H8zm4 0h2v2h-2z"/><path d="m27.684 16.13-3.236-6.472A2.99 2.99 0 0 0 21.764 8H10.236a2.98 2.98 0 0 0-2.683 1.658l-3.025 6.05A5 5 0 0 0 4 17.944V23c0 1.654 1.346 3 3 3h18c1.654 0 3-1.346 3-3v-5.528c0-.463-.109-.927-.316-1.342M9.342 10.553a1 1 0 0 1 .894-.553h11.527c.381 0 .724.212.895.553l2.744 5.488C25.27 16.023 25.138 16 25 16H7c-.138 0-.27.023-.403.041zM26 23a1 1 0 0 1-1 1H7a1 1 0 0 1-1-1v-4a1 1 0 0 1 1-1h18a1 1 0 0 1 1 1z"/></svg>