<svg xmlns="http://www.w3.org/2000/svg" viewBox="0 0 24 24"><path d="M5.25 18h1.5v1.5h-1.5zm4.5 0h-1.5v1.5h1.5zM18 3.75h1.5v1.5H18z"/><path fill-rule="evenodd" d="M13.917 4.942a2.625 2.625 0 1 1 2.916 4.366 2.625 2.625 0 0 1-2.916-4.366m.833 3.118A1.125 1.125 0 1 0 16 6.19a1.125 1.125 0 0 0-1.25 1.87" clip-rule="evenodd"/><path fill-rule="evenodd" d="M19.5 1.5H12a2.25 2.25 0 0 0-2.25 2.25V9H6.927a2.24 2.24 0 0 0-2.013 1.243l-2.269 4.539a3.8 3.8 0 0 0-.395 1.676v3.792A2.25 2.25 0 0 0 4.5 22.5H18a2.25 2.25 0 0 0 2.25-2.25v-4.146c0-.35-.081-.693-.237-1.006l-1.175-2.348h.662a2.25 2.25 0 0 0 2.25-2.25V3.75A2.25 2.25 0 0 0 19.5 1.5m-.75 18.75A.75.75 0 0 1 18 21H4.5a.75.75 0 0 1-.75-.75v-3a.75.75 0 0 1 .75-.75H18a.75.75 0 0 1 .75.75zm-.45-5.22q-.15-.025-.3-.03H4.5q-.15.006-.3.03l2.058-4.115a.75.75 0 0 1 .675-.415H9.75A2.25 2.25 0 0 0 12 12.75h5.162zm1.95-4.53a.75.75 0 0 1-.75.75H12a.75.75 0 0 1-.75-.75V3.75A.75.75 0 0 1 12 3h7.5a.75.75 0 0 1 .75.75z" clip-rule="evenodd"/></svg>