<svg xmlns="http://www.w3.org/2000/svg" viewBox="0 0 24 24"><path fill-rule="evenodd" d="m21 3.292-.577-.137a25 25 0 0 1-4.338-1.485l-.335-.17-.335.168a25 25 0 0 1-4.338 1.484l-.577.14v.592A12.1 12.1 0 0 0 11.485 9H7.677a2.24 2.24 0 0 0-2.013 1.243l-2.269 4.539A3.8 3.8 0 0 0 3 16.458v3.792a2.25 2.25 0 0 0 2.25 2.25h13.5A2.25 2.25 0 0 0 21 20.25v-4.146c0-.35-.081-.693-.237-1.006l-2.057-4.112C19.891 9.718 21 7.56 21 3.884zM7.006 10.915a.75.75 0 0 1 .671-.415h4.704a5.95 5.95 0 0 0 3.225 2.22l.144.03.15-.03a5.1 5.1 0 0 0 1.633-.732l1.517 3.042a2 2 0 0 0-.3-.03H5.25q-.15.006-.3.03zM19.5 20.25a.75.75 0 0 1-.75.75H5.25a.75.75 0 0 1-.75-.75v-3a.75.75 0 0 1 .75-.75h13.5a.75.75 0 0 1 .75.75zm-3.75-9.043c-.705-.225-3.547-1.451-3.74-6.744a25.4 25.4 0 0 0 3.74-1.29c1.211.526 2.462.957 3.74 1.29-.195 5.301-3.042 6.525-3.74 6.744M7.5 18H6v1.5h1.5zm3 0H9v1.5h1.5zm2.787-11.063 1.05-1.068 1.016 1.002 2.052-2.052 1.06 1.06-3.105 3.106z" clip-rule="evenodd"/></svg>