<svg xmlns="http://www.w3.org/2000/svg" viewBox="0 0 24 24"><path fill-rule="evenodd" d="M20.25 5.25v1.252l2.019 2.71v.25a2.65 2.65 0 0 1-2.019 2.568V21H3.75v-8.97a2.654 2.654 0 0 1-2.019-2.568v-.249L3.75 6.502V5.25A2.25 2.25 0 0 1 6 3h12a2.25 2.25 0 0 1 2.25 2.25M5.47 4.72a.75.75 0 0 0-.22.53V6h13.5v-.75A.75.75 0 0 0 18 4.5H6a.75.75 0 0 0-.53.22M14.25 15v4.5h1.5V15zm3-1.5v6h1.5v-7.542a2.65 2.65 0 0 1-1.039-.655 2.64 2.64 0 0 1-3.807 0 2.637 2.637 0 0 1-3.807 0 2.64 2.64 0 0 1-3.808 0c-.29.297-.646.521-1.039.655V19.5h7.5v-6zm1.55-3.223a1.155 1.155 0 0 0 1.95-.595L19.125 7.5H4.875L3.252 9.682a1.154 1.154 0 0 0 2.287-.22h1.5a1.154 1.154 0 1 0 2.307 0h1.5a1.154 1.154 0 1 0 2.307 0h1.5a1.154 1.154 0 1 0 2.308 0h1.5c0 .305.122.599.338.815M11.25 18h-4.5v-4.5h4.5zm-1.5-3h-1.5v1.5h1.5z" clip-rule="evenodd"/></svg>