<svg xmlns="http://www.w3.org/2000/svg" xml:space="preserve" viewBox="0 0 32 32"><path d="M7 24h2v2H7zm4 0h2v2h-2z"/><path d="m25.132 17.027-1.789.895 1.059 2.119C24.269 20.023 24.138 20 24 20H6c-.138 0-.27.023-.403.041l2.744-5.488A1 1 0 0 1 9.236 14H14v-2H9.236a2.98 2.98 0 0 0-2.684 1.658l-3.025 6.051A5.04 5.04 0 0 0 3 21.944V27c0 1.654 1.346 3 3 3h18c1.654 0 3-1.346 3-3v-5.528c0-.463-.109-.927-.316-1.341zM25 27a1 1 0 0 1-1 1H6a1 1 0 0 1-1-1v-4a1 1 0 0 1 1-1h18a1 1 0 0 1 1 1z"/><path d="M29 10V8h-2.621a4.5 4.5 0 0 0-.579-1.386l1.857-1.857-1.414-1.414L24.386 5.2A4.4 4.4 0 0 0 23 4.621V2h-2v2.621c-.5.114-.965.314-1.386.579l-1.857-1.857-1.414 1.414L18.2 6.614A4.4 4.4 0 0 0 17.621 8H15v2h2.621c.114.5.314.965.579 1.386l-1.857 1.857 1.414 1.414 1.857-1.857c.421.266.887.465 1.386.579V16h2v-2.621c.5-.114.965-.314 1.386-.579l1.857 1.857 1.414-1.414-1.857-1.857c.265-.421.465-.886.579-1.386zm-7 1.5c-1.379 0-2.5-1.122-2.5-2.5s1.121-2.5 2.5-2.5 2.5 1.122 2.5 2.5-1.121 2.5-2.5 2.5"/></svg>