<svg xmlns="http://www.w3.org/2000/svg" xml:space="preserve" viewBox="0 0 32 32"><path d="M8 15h2v2H8zm4 0h2v2h-2z"/><path d="m27.684 11.13-3.236-6.472A2.99 2.99 0 0 0 21.764 3H10.236a2.98 2.98 0 0 0-2.683 1.658l-3.025 6.05A5 5 0 0 0 4 12.944V18c0 1.654 1.346 3 3 3h8v2.184A3 3 0 0 0 13.184 25H4v2h9.184c.414 1.161 1.514 2 2.816 2s2.402-.839 2.816-2H28v-2h-9.184A3 3 0 0 0 17 23.184V21h8c1.654 0 3-1.346 3-3v-5.528c0-.463-.109-.927-.316-1.342M16 27a1 1 0 1 1 0-2 1 1 0 0 1 0 2M9.342 5.553A1 1 0 0 1 10.236 5h11.527c.381 0 .724.212.895.553l2.744 5.488C25.27 11.023 25.138 11 25 11H7c-.138 0-.27.023-.403.041zM26 18a1 1 0 0 1-1 1H7a1 1 0 0 1-1-1v-4c0-.551.448-1 1-1h18c.552 0 1 .449 1 1z"/></svg>