<svg xmlns="http://www.w3.org/2000/svg" width="24" height="24"><path fill-rule="evenodd" d="M19.784 6h1.966v1.5h-1.966c-.085.369-.232.72-.434 1.04l1.393 1.392-1.06 1.06L18.29 9.6c-.32.202-.671.35-1.04.434V12h-1.5v-1.966a3.3 3.3 0 0 1-1.04-.434l-1.392 1.393-1.06-1.06L13.65 8.54a3.4 3.4 0 0 1-.434-1.04H11.25V6h1.966a3.3 3.3 0 0 1 .434-1.04l-1.393-1.392 1.06-1.06L14.71 3.9c.32-.202.671-.35 1.04-.434V1.5h1.5v1.966c.369.084.72.231 1.04.434l1.392-1.393 1.06 1.06L19.35 4.96c.202.32.35.671.434 1.04m-4.326 2.309a1.875 1.875 0 1 0 2.084-3.118 1.875 1.875 0 0 0-2.084 3.118m3.391 4.461-1.342.675.793 1.586q-.15-.026-.3-.031H4.5q-.15.006-.3.03l2.058-4.115a.75.75 0 0 1 .675-.415H10.5V9H6.927a2.24 2.24 0 0 0-2.013 1.243l-2.269 4.539a3.8 3.8 0 0 0-.395 1.676v3.792A2.25 2.25 0 0 0 4.5 22.5H18a2.25 2.25 0 0 0 2.25-2.25v-4.146c0-.35-.081-.693-.237-1.006zm-.099 7.48A.75.75 0 0 1 18 21H4.5a.75.75 0 0 1-.75-.75v-3a.75.75 0 0 1 .75-.75H18a.75.75 0 0 1 .75.75zM6.75 18h-1.5v1.5h1.5zm3 0h-1.5v1.5h1.5z" clip-rule="evenodd"/></svg>