<svg xmlns="http://www.w3.org/2000/svg" viewBox="0 0 24 24"><path d="M5.25 16.5h1.5V18h-1.5zm4.5 0h-1.5V18h1.5z"/><path fill-rule="evenodd" d="M21.75 7.5a2.907 2.907 0 0 0-2.631-2.992 3.3 3.3 0 0 0-5.971.975A2.51 2.51 0 0 0 11.303 7.5H6.927a2.24 2.24 0 0 0-2.013 1.244l-2.269 4.538a3.8 3.8 0 0 0-.395 1.676v3.792A2.25 2.25 0 0 0 4.5 21H18a2.25 2.25 0 0 0 2.25-2.25v-4.146a2.26 2.26 0 0 0-.237-1.006l-1.55-3.098h.437a2.93 2.93 0 0 0 2.85-3m-8.725-.259a1.04 1.04 0 0 1 .775-.34h.707l.042-.707a1.8 1.8 0 0 1 3.442-.631l.21.457L18.9 6a1.4 1.4 0 0 1 1.35 1.5A1.433 1.433 0 0 1 18.9 9h-4.972a1.145 1.145 0 0 1-1.174-.954 1.04 1.04 0 0 1 .271-.805m5.725 11.51a.75.75 0 0 1-.75.75H4.5a.75.75 0 0 1-.75-.75v-3A.75.75 0 0 1 4.5 15H18a.75.75 0 0 1 .75.75zm-.45-5.22q-.15-.025-.3-.03H4.5q-.15.005-.3.03l2.058-4.116A.75.75 0 0 1 6.933 9H11.5a2.7 2.7 0 0 0 2.434 1.5h2.859z" clip-rule="evenodd"/></svg>