<svg xmlns="http://www.w3.org/2000/svg" viewBox="0 0 24 24"><path d="M14.25 1.5h-1.5v6.75H7.06l-.711-.713A5.22 5.22 0 0 0 2.636 6H2.25v1.5h.386a3.73 3.73 0 0 1 2.652 1.098L6 9.31V12c0 1.71.65 3.75 3.75 3.75h.925L9.65 17.46a2.642 2.642 0 1 0 1.164.974l1.61-2.684h2.152l1.61 2.683a2.617 2.617 0 1 0 1.164-.974l-1.026-1.709h.926A3.754 3.754 0 0 0 21 12V8.25a6.76 6.76 0 0 0-6.75-6.75M8.625 21a1.125 1.125 0 1 1 0-2.25 1.125 1.125 0 0 1 0 2.25M19.5 19.875a1.125 1.125 0 1 1-2.25 0 1.125 1.125 0 0 1 2.25 0M14.25 3a5.256 5.256 0 0 1 5.25 5.25h-5.25zm5.25 9a2.25 2.25 0 0 1-2.25 2.25h-7.5c-1.64 0-2.25-.61-2.25-2.25V9.75h12z"/></svg>