<svg xmlns="http://www.w3.org/2000/svg" viewBox="0 0 24 24"><g clip-path="url(#a)"><path d="M19.5 2.25h-9A2.257 2.257 0 0 0 8.25 4.5v2.25H7.5A2.257 2.257 0 0 0 5.25 9v4.5a2.257 2.257 0 0 0 2.25 2.25h3.75v1.635a2.26 2.26 0 0 0-1.365 1.365H3v1.5h6.885c.308.87 1.133 1.5 2.115 1.5s1.8-.63 2.115-1.5H21v-1.5h-6.885a2.26 2.26 0 0 0-1.365-1.365V15.75h3.75a2.257 2.257 0 0 0 2.25-2.25v-2.25h.75A2.257 2.257 0 0 0 21.75 9V4.5a2.257 2.257 0 0 0-2.25-2.25m-7.5 18a.75.75 0 0 1-.75-.75c0-.413.338-.75.75-.75s.75.337.75.75-.338.75-.75.75m5.25-6.75c0 .412-.337.75-.75.75h-9a.75.75 0 0 1-.75-.75V9c0-.412.338-.75.75-.75h9c.413 0 .75.338.75.75zm3-4.5c0 .412-.337.75-.75.75h-.75V9a2.257 2.257 0 0 0-2.25-2.25H9.75V4.5c0-.412.338-.75.75-.75h9c.413 0 .75.338.75.75z"/></g><defs><clipPath id="a"><path d="M0 0h24v24H0z"/></clipPath></defs></svg>