<svg xmlns="http://www.w3.org/2000/svg" viewBox="0 0 24 24"><path d="M17.25 6.75v-1.5A2.25 2.25 0 0 0 15 3H9a2.25 2.25 0 0 0-2.25 2.25v1.5h-4.5v12A2.25 2.25 0 0 0 4.5 21h15a2.25 2.25 0 0 0 2.25-2.25v-12zm-9-1.5A.75.75 0 0 1 9 4.5h6a.75.75 0 0 1 .75.75v1.5h-7.5zm-4.5 3h16.5v2.25a.75.75 0 0 1-.75.75h-2.25v-1.5h-1.5v1.5h-7.5v-1.5h-1.5v1.5H4.5a.75.75 0 0 1-.75-.75zM19.5 19.5h-15a.75.75 0 0 1-.75-.75v-6.138c.24.089.494.136.75.138h2.25v1.5h1.5v-1.5h7.5v1.5h1.5v-1.5h2.25c.256-.002.51-.05.75-.138v6.138a.75.75 0 0 1-.75.75"/></svg>