<svg xmlns="http://www.w3.org/2000/svg" viewBox="0 0 24 24"><path d="M19.425 4.575a10.5 10.5 0 1 0 0 14.85 10.466 10.466 0 0 0 0-14.85M21 12a8.93 8.93 0 0 1-2.131 5.808L16.2 15.14a5.224 5.224 0 0 0 0-6.28l2.668-2.668A8.93 8.93 0 0 1 21 12M8.25 12a3.75 3.75 0 1 1 7.5-.002 3.75 3.75 0 0 1-7.5.002m9.558-6.868L15.14 7.8a5.224 5.224 0 0 0-6.28 0L6.192 5.132a8.98 8.98 0 0 1 11.616 0M5.132 6.192 7.8 8.86a5.224 5.224 0 0 0 0 6.28l-2.668 2.668a8.98 8.98 0 0 1 0-11.616m1.06 12.675L8.86 16.2a5.22 5.22 0 0 0 6.28 0l2.667 2.668a8.98 8.98 0 0 1-11.615 0z"/></svg>