<svg xmlns="http://www.w3.org/2000/svg" viewBox="0 0 24 24"><path d="M20.145 5.25h-1.59c-.015-1.23-.99-2.228-2.197-2.228H7.643c-1.208 0-2.19.998-2.198 2.228H3.848c-1.305 0-2.37 1.012-2.37 2.25v9c0 1.238 1.065 2.25 2.37 2.25h1.597v.015c0 1.238.99 2.25 2.205 2.25h8.715c1.215 0 2.205-1.012 2.205-2.25v-.015h1.582c1.298 0 2.355-1.012 2.355-2.25v-9c0-1.238-1.057-2.25-2.355-2.25zm-16.305 12c-.48 0-.87-.337-.87-.75v-9c0-.413.39-.75.87-.75h1.598v10.5zm13.223 1.515c0 .412-.316.75-.705.75H7.643c-.39 0-.705-.338-.705-.75V5.272c0-.412.315-.75.705-.75h8.715c.39 0 .704.338.704.75zm3.945-2.265c0 .413-.383.75-.855.75H18.57V6.75h1.582c.473 0 .855.337.855.75zM8.37 16.335h4.358v1.5H8.37zm0-2.76h7.26v1.5H8.37zm2.88-3.735H9.578v-1.5h1.672V6.667h1.5V8.34h1.672v1.5H12.75v1.672h-1.5z"/></svg>