<svg xmlns="http://www.w3.org/2000/svg" viewBox="0 0 24 24"><g clip-path="url(#a)"><path fill-rule="evenodd" d="m17.25 1.482 4.105 4.105-1.06 1.061L18 4.353V18.75a3.754 3.754 0 0 1-3.75 3.75H12V21h2.25c1.24 0 2.25-1.01 2.25-2.25V4.353l-2.295 2.295-1.06-1.06zM7.5 5.25v14.397l2.295-2.295 1.06 1.06-4.105 4.106-4.106-4.105 1.061-1.061L6 19.647V5.25A3.754 3.754 0 0 1 9.75 1.5H12V3H9.75C8.51 3 7.5 4.01 7.5 5.25" clip-rule="evenodd"/></g><defs><clipPath id="a"><path d="M0 0h24v24H0z"/></clipPath></defs></svg>