<svg xmlns="http://www.w3.org/2000/svg" viewBox="0 0 24 24"><g clip-path="url(#a)"><path d="M21 6.138V5.25C21 4.01 19.99 3 18.75 3H5.25C4.01 3 3 4.01 3 5.25v.888c-.87.31-1.5 1.136-1.5 2.112v9c0 1.24 1.01 2.25 2.25 2.25h16.5c1.24 0 2.25-1.01 2.25-2.25v-9c0-.976-.63-1.801-1.5-2.112M4.5 5.25a.75.75 0 0 1 .75-.75h13.5a.75.75 0 0 1 .75.75V6h-15zm16.5 12a.75.75 0 0 1-.75.75H3.75a.75.75 0 0 1-.75-.75v-9a.75.75 0 0 1 .75-.75h16.5a.75.75 0 0 1 .75.75z"/></g><defs><clipPath id="a"><path d="M0 0h24v24H0z"/></clipPath></defs></svg>