<svg xmlns="http://www.w3.org/2000/svg" viewBox="0 0 24 24"><path d="M20.25 4.5H6.75C5.51 4.5 4.5 5.51 4.5 6.75v.75h-.75C2.51 7.5 1.5 8.51 1.5 9.75v7.5c0 1.24 1.01 2.25 2.25 2.25h13.5c1.24 0 2.25-1.01 2.25-2.25v-.75h.75c1.24 0 2.25-1.01 2.25-2.25v-7.5c0-1.24-1.01-2.25-2.25-2.25M18 17.25a.75.75 0 0 1-.75.75H3.75a.75.75 0 0 1-.75-.75v-7.5A.75.75 0 0 1 3.75 9h13.5a.75.75 0 0 1 .75.75zm3-3a.75.75 0 0 1-.75.75h-.75V9.75c0-1.24-1.01-2.25-2.25-2.25H6v-.75A.75.75 0 0 1 6.75 6h13.5a.75.75 0 0 1 .75.75z"/></svg>