<svg xmlns="http://www.w3.org/2000/svg" viewBox="0 0 24 24"><path d="M6.068 15.068 3.143 12.54a.744.744 0 0 1-.015-1.065l5.7-4.927c.405-.353.93-.548 1.47-.548h4.837l1.5-1.5h-6.338c-.9 0-1.77.322-2.452.915L2.13 10.358l-.03.022A2.24 2.24 0 0 0 1.41 12c0 .615.248 1.193.72 1.65l2.873 2.483zM20.865 4.5l1.193-1.192L21 2.25 3.375 19.875l1.058 1.058 2.842-2.843.57.495a3.74 3.74 0 0 0 2.452.915H22.5v-15zM21 18H10.298c-.54 0-1.065-.195-1.47-.547l-.488-.428L19.365 6H21z"/><path d="M6.75 12c0 .645.412 1.193.982 1.402l1.92-1.92A1.5 1.5 0 0 0 8.25 10.5c-.825 0-1.5.675-1.5 1.5"/></svg>