<svg width="100%" height="100%" viewBox="0 0 24 24" version="1.1" xmlns="http://www.w3.org/2000/svg" xmlns:xlink="http://www.w3.org/1999/xlink" xml:space="preserve" style="fill-rule:evenodd;clip-rule:evenodd;stroke-linejoin:round;stroke-miterlimit:2;"><path d="M6.068,15.068L3.143,12.54C2.995,12.4 2.911,12.204 2.911,12C2.911,11.803 2.989,11.614 3.128,11.475L8.828,6.548C9.233,6.195 9.758,6 10.298,6L15.135,6L16.635,4.5L10.297,4.5C9.397,4.5 8.527,4.822 7.845,5.415L2.13,10.358L2.1,10.38C1.659,10.803 1.409,11.389 1.41,12C1.41,12.615 1.658,13.193 2.13,13.65L5.003,16.133L6.068,15.068ZM20.865,4.5L22.058,3.308L21,2.25L3.375,19.875L4.433,20.933L7.275,18.09L7.845,18.585C8.525,19.175 9.396,19.5 10.297,19.5L22.5,19.5L22.5,4.5L20.865,4.5ZM21,18L10.298,18C9.758,18 9.233,17.805 8.828,17.453L8.34,17.025L19.365,6L21,6L21,18Z" style="fill-rule:nonzero;"/><path d="M6.75,12C6.75,12.645 7.162,13.193 7.732,13.402L9.652,11.482C9.436,10.895 8.875,10.502 8.25,10.5C7.425,10.5 6.75,11.175 6.75,12" style="fill-rule:nonzero;"/></svg>