<svg xmlns="http://www.w3.org/2000/svg" viewBox="0 0 24 24"><path d="m18.472 20.742-1.296.749-.749-1.296 1.296-.75zM14.097 4.854H9.243l3.693 6.397h7.386l-2.36-4.09.862-1.498L22.479 12l-3.662 6.345-.862-1.499 2.367-4.097h-7.386l-3.693 6.397h4.847l.861 1.498H7.506l-2.824-4.899h1.73l1.528 2.652L11.633 12 7.94 5.603 6.412 8.255h-1.73l2.824-4.9h7.453zm2.877 13.296-1.296.749-.75-1.296 1.297-.75zm-1.498-2.592-1.296.75-.75-1.297 1.297-.749zM3.01 14.248H1.513v-1.499h1.498zm2.997 0H4.509v-1.499h1.499zm2.996 0H7.506v-1.499h1.498zM3.01 11.25H1.513V9.753h1.498zm2.997 0H4.509V9.753h1.499zm2.996 0H7.506V9.753h1.498zm6.472-2.794-.75 1.296-1.295-.75.749-1.295zm1.498-2.6-.75 1.297-1.295-.75.749-1.295zm1.498-2.591-.75 1.296-1.295-.75.749-1.295z"/></svg>