<svg xmlns="http://www.w3.org/2000/svg" viewBox="0 0 24 24"><path d="M20.325 12.45h-6.817V3.712a2.257 2.257 0 0 0-2.25-2.25H3.75a2.257 2.257 0 0 0-2.25 2.25V14.37a2.255 2.255 0 0 0 2.243 2.25v5.977h6.727c.053 0 .105-.022.157-.03.068 0 .128.023.195.023h9.51a2.236 2.236 0 0 0 2.235-2.235v-5.662a2.236 2.236 0 0 0-2.235-2.235zm.765 2.235v3.24H10.058v-3.24c0-.42.345-.765.765-.765h1.882s.037.015.06.015c.022 0 .037-.008.06-.015h7.515c.42 0 .765.345.765.765zM3 14.37V3.712c0-.412.337-.75.75-.75h7.508c.412 0 .75.338.75.75v8.738h-1.185c-.106 0-.203.015-.308.03V6.75h-1.02v-.503c0-1.065-.885-1.935-1.98-1.935s-1.98.87-1.98 1.935v.503h-1.02v6h5.212a2.23 2.23 0 0 0-1.14 1.935v.435h-4.83a.75.75 0 0 1-.75-.75zm4.988-7.62h-.953v-.503c0-.24.218-.435.48-.435.263 0 .48.195.48.435v.503zm-1.98 1.5h3v3h-3zm-.766 8.37H8.58v3.727c0 .263.053.518.135.75h-3.48V16.62zm15.083 4.493h-9.51a.77.77 0 0 1-.765-.765v-.923h11.032v.922c0 .42-.344.765-.765.765zM16.5 16.448v-1.5h2.887v1.5z"/></svg>