<svg xmlns="http://www.w3.org/2000/svg" viewBox="0 0 24 24"><path fill-rule="evenodd" d="M17.25 17.711V6.29c0-.986 1.01-1.789 2.25-1.789V3c-1.23 0-2.316.53-3 1.336C15.816 3.529 14.73 3 13.5 3v1.5c1.24 0 2.25.803 2.25 1.789V17.71c0 .987-1.01 1.789-2.25 1.789V21c1.23 0 2.316-.53 3-1.336.684.806 1.77 1.336 3 1.336v-1.5c-1.24 0-2.25-.802-2.25-1.789m-3-1.961H3.75A.75.75 0 0 1 3 15V9a.75.75 0 0 1 .75-.75h10.5v-1.5H3.75C2.51 6.75 1.5 7.76 1.5 9v6c0 1.24 1.01 2.25 2.25 2.25h10.5zm4.5-7.5v-1.5h1.5c1.24 0 2.25 1.01 2.25 2.25v6c0 1.24-1.01 2.25-2.25 2.25h-1.5v-1.5h1.5A.75.75 0 0 0 21 15V9a.75.75 0 0 0-.75-.75z" clip-rule="evenodd"/></svg>