<svg xmlns="http://www.w3.org/2000/svg" viewBox="0 0 24 24"><path d="M20.197 10.546a2.25 2.25 0 0 0-1.718-.796h-3.396l.383-3.675A2.736 2.736 0 0 0 12.75 3h-.45L9.244 8.693A2.24 2.24 0 0 1 7.337 9.75H3V21h12.918a3.77 3.77 0 0 0 3.514-2.437l1.267-6.193a2.25 2.25 0 0 0-.502-1.824M4.5 19.5v-8.25h.75A.75.75 0 0 1 6 12v6.75a.75.75 0 0 1-.75.75zm13.507-1.412a2.26 2.26 0 0 1-2.089 1.412H7.362c.089-.24.136-.494.138-.75V12a2.2 2.2 0 0 0-.139-.75 3.75 3.75 0 0 0 3.181-1.8l2.62-4.875a1.24 1.24 0 0 1 .813 1.336l-.557 5.339h5.061a.74.74 0 0 1 .573.265.73.73 0 0 1 .173.582z"/></svg>