<svg xmlns="http://www.w3.org/2000/svg" xml:space="preserve" viewBox="0 0 32 32"><path d="M25 4H10.776a5.02 5.02 0 0 0-4.684 3.25l-1.69 8.256a3 3 0 0 0 .67 2.432A3 3 0 0 0 7.361 19h4.529l-.511 4.899A3.646 3.646 0 0 0 15 28h.598l4.075-7.59A2.98 2.98 0 0 1 22.217 19H28V4zm-7.056 15.406-3.493 6.502a1.64 1.64 0 0 1-.687-.466 1.64 1.64 0 0 1-.398-1.315L14.109 17H7.361a.99.99 0 0 1-.764-.354.97.97 0 0 1-.23-.775l1.624-7.988A3.02 3.02 0 0 1 10.776 6h11.408A3 3 0 0 0 22 7v9c0 .353.072.687.185 1.002-1.723.011-3.294.886-4.241 2.404M26 17h-1c-.552 0-1-.449-1-1V7c0-.551.448-1 1-1h1z"/></svg>