<svg xmlns="http://www.w3.org/2000/svg" viewBox="0 0 24 24"><path d="M8.082 3a3.77 3.77 0 0 0-3.513 2.438L3.3 11.63a2.25 2.25 0 0 0 2.22 2.62h3.398l-.384 3.675A2.738 2.738 0 0 0 11.25 21h.45l3.056-5.693a2.24 2.24 0 0 1 1.907-1.057H21V3zm5.376 11.555-2.62 4.875a1.24 1.24 0 0 1-.813-1.336l.557-5.344H5.52a.74.74 0 0 1-.573-.265.73.73 0 0 1-.173-.582l1.218-5.99A2.26 2.26 0 0 1 8.082 4.5h8.556c-.089.24-.136.494-.138.75V12c.003.256.05.51.139.75a3.75 3.75 0 0 0-3.181 1.805M19.5 12.75h-.75A.75.75 0 0 1 18 12V5.25a.75.75 0 0 1 .75-.75h.75z"/></svg>