<svg xmlns="http://www.w3.org/2000/svg" xml:space="preserve" viewBox="0 0 32 32"><path d="M26.929 14.061A3 3 0 0 0 24.639 13H20.11l.511-4.899A3.646 3.646 0 0 0 17 4h-.598l-4.075 7.59A2.98 2.98 0 0 1 9.783 13H4v15h17.224a5.03 5.03 0 0 0 4.685-3.25l1.69-8.257a3 3 0 0 0-.67-2.432M6 26V15h1c.552 0 1 .449 1 1v9a1 1 0 0 1-1 1zm18.009-1.883A3.02 3.02 0 0 1 21.224 26H9.816c.112-.314.184-.648.184-1v-9c0-.353-.072-.687-.185-1.002 1.723-.011 3.294-.886 4.241-2.405l3.493-6.501c.261.091.496.25.687.465.317.36.46.82.398 1.316L17.891 15h6.748c.299 0 .57.125.764.354a.97.97 0 0 1 .23.775z"/></svg>