<svg xmlns="http://www.w3.org/2000/svg" viewBox="0 0 24 24"><g clip-path="url(#a)"><path d="M14.377 6.495 15.81 2.19l-.735-.225A10.5 10.5 0 0 0 12 1.508c-1.065 0-2.108.15-3.075.45l-.735.225 1.432 4.305.045.142-1.462 12.173 3.787 3.615 3.788-3.615-1.455-12.165.045-.135zm-.862 5.933-3.443 3.442.323-2.7 2.865-2.865zM11.16 6.833a5 5 0 0 1 .84-.075c.315 0 .6.03.84.075l.187 1.582-2.347 2.348.472-3.923zM12 3.008a9 9 0 0 1 1.89.202l-.72 2.16A6 6 0 0 0 12 5.258c-.39 0-.788.037-1.17.105l-.72-2.16A9.5 9.5 0 0 1 12 3.008m0 17.34-2.19-2.093 3.93-3.93.465 3.908-2.213 2.107z"/></g><defs><clipPath id="a"><path d="M0 0h24v24H0z"/></clipPath></defs></svg>