<svg xmlns="http://www.w3.org/2000/svg" width="24" height="24"><path fill-rule="evenodd" d="M6.167 3.27A10.5 10.5 0 0 1 12 1.5 10.51 10.51 0 0 1 22.5 12 10.5 10.5 0 1 1 6.167 3.27m12.695 14.536a8.95 8.95 0 0 0 2.1-5.056H19.5v-1.5h1.462a8.95 8.95 0 0 0-2.096-5.055l-1.032 1.032-1.06-1.06 1.032-1.029a8.96 8.96 0 0 0-5.056-2.1V4.5h-1.5V3.038a8.96 8.96 0 0 0-5.056 2.096l1.033 1.032-1.06 1.06-1.029-1.032a8.96 8.96 0 0 0-2.1 5.056H4.5v1.5H3.038a8.95 8.95 0 0 0 2.095 5.055l1.032-1.032 1.061 1.057-1.032 1.032a8.95 8.95 0 0 0 5.056 2.1V19.5h1.5v1.462a8.96 8.96 0 0 0 5.051-2.096l-1.032-1.032 1.06-1.06zM8.667 7.01A6 6 0 0 1 12 6a6.007 6.007 0 0 1 6 6 6 6 0 1 1-9.333-4.989m5.108 3.623 2.21-.718a4.51 4.51 0 0 0-3.235-2.349v2.321a2.25 2.25 0 0 1 1.025.746m-2.399.95a.75.75 0 1 0 1.248.833.75.75 0 0 0-1.248-.834m-.126-1.696v-2.32a4.51 4.51 0 0 0-3.235 2.348l2.209.718a2.25 2.25 0 0 1 1.026-.746m-3.697 1.456A4.5 4.5 0 0 0 7.5 12a4.48 4.48 0 0 0 1.288 3.15l1.36-1.875a2.24 2.24 0 0 1-.392-1.216zm2.452 4.68 1.362-1.872q.309.095.633.098.324-.005.633-.102l1.364 1.875a4.45 4.45 0 0 1-3.992.001m3.847-2.749 1.36 1.87v.003a4.42 4.42 0 0 0 1.235-3.802l-2.203.716c-.01.434-.146.855-.392 1.213" clip-rule="evenodd"/></svg>