<svg xmlns="http://www.w3.org/2000/svg" viewBox="0 0 24 24"><path d="m20.485 6.697-3.182-3.182a2.25 2.25 0 0 0-3.182 0L3.515 14.12a2.25 2.25 0 0 0 0 3.182l3.182 3.182a2.25 2.25 0 0 0 3.182 0L20.485 9.878a2.25 2.25 0 0 0 0-3.181m-1.06 2.12L8.818 19.426a.75.75 0 0 1-1.06 0l-3.183-3.182a.75.75 0 0 1 0-1.061l.53-.53 1.591 1.59 1.06-1.06-1.59-1.591 1.061-1.06 2.652 2.65 1.06-1.06-2.652-2.651 1.062-1.061 1.59 1.59L12 10.94l-1.59-1.592 1.06-1.06 2.651 2.652 1.06-1.06-2.65-2.653 1.06-1.06 1.591 1.591 1.06-1.06-1.59-1.592.53-.53a.75.75 0 0 1 1.06 0l3.183 3.182a.75.75 0 0 1 0 1.06"/></svg>