<svg xmlns="http://www.w3.org/2000/svg" width="24" height="24"><path d="M19.014 12.525 12 1.613 4.986 12.525a2.25 2.25 0 0 0-.272 1.835l1.844 6.455A2.25 2.25 0 0 0 8.736 22.5h6.525a2.244 2.244 0 0 0 2.175-1.67l1.848-6.473a2.25 2.25 0 0 0-.27-1.832M12 13.5a1.178 1.178 0 1 1 0 2.355 1.178 1.178 0 0 1 0-2.355m5.843.45-1.853 6.49a.75.75 0 0 1-.726.563H8.739a.76.76 0 0 1-.731-.58l-1.85-6.473a.75.75 0 0 1 .09-.612l5.002-7.784v6.566a2.679 2.679 0 1 0 1.5 0V5.554l5.003 7.782a.75.75 0 0 1 .09.614"/></svg>