<svg xmlns="http://www.w3.org/2000/svg" viewBox="0 0 24 24"><path fill-rule="evenodd" d="M18.75 3H10.5a2.25 2.25 0 0 0-2.25 2.25v8.25a2.25 2.25 0 0 0 2.25 2.25h8.25A2.25 2.25 0 0 0 21 13.5V5.25A2.25 2.25 0 0 0 18.75 3m.75 10.5a.75.75 0 0 1-.75.75h-3v-.75h-1.5v.75H10.5a.75.75 0 0 1-.75-.75V9.75h.75v-1.5h-.75v-3a.75.75 0 0 1 .75-.75h8.25a.75.75 0 0 1 .75.75zM3 10.5V12h1.5v-1.5a.75.75 0 0 1 .75-.75h1.5v-1.5h-1.5A2.25 2.25 0 0 0 3 10.5m1.5 3H3v2.25h1.5zm0 5.25v-1.5H3v1.5A2.25 2.25 0 0 0 5.25 21h1.5v-1.5h-1.5a.75.75 0 0 1-.75-.75m6 .75H8.25V21h2.25zm3.75-.75a.75.75 0 0 1-.75.75H12V21h1.5a2.25 2.25 0 0 0 2.25-2.25v-1.5h-1.5zM12 8.25h1.5a2.25 2.25 0 0 1 2.25 2.25V12h-1.5v-1.5a.75.75 0 0 0-.75-.75H12z" clip-rule="evenodd"/></svg>