<svg xmlns="http://www.w3.org/2000/svg" xml:space="preserve" viewBox="0 0 32 32"><path d="M18 11h-4c-1.654 0-3 1.346-3 3v4c0 1.654 1.346 3 3 3h4c1.654 0 3-1.346 3-3v-4c0-1.654-1.346-3-3-3m1 7a1 1 0 0 1-1 1h-4a1 1 0 0 1-1-1v-4c0-.551.448-1 1-1h4c.552 0 1 .449 1 1zM4 14v2h2v-2c0-.551.448-1 1-1h2v-2H7c-1.654 0-3 1.346-3 3m0 4h2v3H4zm2 7v-2H4v2c0 1.654 1.346 3 3 3h2v-2H7a1 1 0 0 1-1-1m5 1h3v2h-3zm8-1a1 1 0 0 1-1 1h-2v2h2c1.654 0 3-1.346 3-3v-2h-2zM13 7c0-.551.448-1 1-1h2V4h-2c-1.654 0-3 1.346-3 3v2h2zm13 11a1 1 0 0 1-1 1h-2v2h2c1.654 0 3-1.346 3-3v-2h-2zm0-7h2v3h-2zm-1-7h-2v2h2c.552 0 1 .449 1 1v2h2V7c0-1.654-1.346-3-3-3m-7 0h3v2h-3z"/></svg>