<svg xmlns="http://www.w3.org/2000/svg" viewBox="0 0 24 24"><path d="M21 6.75v-1.5A2.25 2.25 0 0 0 18.75 3h-1.5A2.25 2.25 0 0 0 15 5.25H9A2.25 2.25 0 0 0 6.75 3h-1.5A2.25 2.25 0 0 0 3 5.25v1.5A2.25 2.25 0 0 0 5.25 9v6A2.25 2.25 0 0 0 3 17.25v1.5A2.25 2.25 0 0 0 5.25 21h1.5A2.25 2.25 0 0 0 9 18.75h6A2.25 2.25 0 0 0 17.25 21h1.5A2.25 2.25 0 0 0 21 18.75v-1.5A2.25 2.25 0 0 0 18.75 15V9A2.25 2.25 0 0 0 21 6.75m-4.5-1.5a.75.75 0 0 1 .75-.75h1.5a.75.75 0 0 1 .75.75v1.5a.75.75 0 0 1-.75.75h-1.5a.75.75 0 0 1-.75-.75zm-12 1.5v-1.5a.75.75 0 0 1 .75-.75h1.5a.75.75 0 0 1 .75.75v1.5a.75.75 0 0 1-.75.75h-1.5a.75.75 0 0 1-.75-.75m3 12a.75.75 0 0 1-.75.75h-1.5a.75.75 0 0 1-.75-.75v-1.5a.75.75 0 0 1 .75-.75h1.5a.75.75 0 0 1 .75.75zm12-1.5v1.5a.75.75 0 0 1-.75.75h-1.5a.75.75 0 0 1-.75-.75v-1.5a.75.75 0 0 1 .75-.75h1.5a.75.75 0 0 1 .75.75M17.25 15A2.25 2.25 0 0 0 15 17.25H9A2.25 2.25 0 0 0 6.75 15V9A2.25 2.25 0 0 0 9 6.75h6A2.25 2.25 0 0 0 17.25 9z"/></svg>