<svg xmlns="http://www.w3.org/2000/svg" width="24" height="24"><g clip-path="url(#a)"><path d="M19.5 13.5h-.165l-1.13-4.521A2.244 2.244 0 0 0 20.25 6.75v-1.5C20.25 4.01 19.24 3 18 3h-1.5c-1.24 0-2.25 1.01-2.25 2.25v.164l-4.521 1.13A2.244 2.244 0 0 0 7.5 4.5H6c-1.24 0-2.25 1.01-2.25 2.25v1.5c0 1.17.902 2.124 2.045 2.229L4.665 15H4.5c-1.24 0-2.25 1.01-2.25 2.25v1.5C2.25 19.99 3.26 21 4.5 21H6c1.24 0 2.25-1.01 2.25-2.25v-.115l7.514-1.252A2.246 2.246 0 0 0 18 19.5h1.5c1.24 0 2.25-1.01 2.25-2.25v-1.5c0-1.24-1.01-2.25-2.25-2.25m-3.75 2.25v.115l-7.514 1.252a2.24 2.24 0 0 0-2.031-2.096l1.13-4.521H7.5c1.24 0 2.25-1.01 2.25-2.25v-.164l4.521-1.13A2.244 2.244 0 0 0 16.5 9h.165l1.13 4.521a2.244 2.244 0 0 0-2.045 2.229m0-10.5a.75.75 0 0 1 .75-.75H18a.75.75 0 0 1 .75.75v1.5a.75.75 0 0 1-.75.75h-1.5a.75.75 0 0 1-.75-.75zm-10.5 3v-1.5A.75.75 0 0 1 6 6h1.5a.75.75 0 0 1 .75.75v1.5A.75.75 0 0 1 7.5 9H6a.75.75 0 0 1-.75-.75m1.5 10.5a.75.75 0 0 1-.75.75H4.5a.75.75 0 0 1-.75-.75v-1.5a.75.75 0 0 1 .75-.75H6a.75.75 0 0 1 .75.75zm13.5-1.5a.75.75 0 0 1-.75.75H18a.75.75 0 0 1-.75-.75v-1.5A.75.75 0 0 1 18 15h1.5a.75.75 0 0 1 .75.75z"/></g><defs><clipPath id="a"><path d="M0 0h24v24H0z"/></clipPath></defs></svg>