<svg xmlns="http://www.w3.org/2000/svg" viewBox="0 0 24 24"><path fill-rule="evenodd" d="M17.648 10.24c.032.462-.081.922-.323 1.317l-2.856 4.648a2.23 2.23 0 0 1-1.471 1.077L2.175 19.635l2.35-10.822a2.25 2.25 0 0 1 1.107-1.488l4.618-2.84a2.24 2.24 0 0 1 1.256-.326 2.23 2.23 0 0 1 .627-1.275l.715-.715a2.25 2.25 0 0 1 3.182 0l3.549 3.551a2.25 2.25 0 0 1 0 3.183l-.715.714c-.33.33-.755.548-1.216.623m-3.74-7.01-.714.714a.744.744 0 0 0-.046.992L16.812 8.6a.76.76 0 0 0 .994-.043l.714-.716a.75.75 0 0 0 0-1.06L14.97 3.23a.75.75 0 0 0-1.061 0m-.944 12.457a.75.75 0 0 0 .208-.237l2.879-4.677a.75.75 0 0 0-.11-.923l-.123-.124-.025-.02q-.055-.04-.107-.089l-3.55-3.551a1 1 0 0 1-.064-.076l-.04-.051-.071-.071a.75.75 0 0 0-.922-.109l-4.65 2.86a.77.77 0 0 0-.398.512l-1.546 7.113 4.03-4.036a2.22 2.22 0 0 1 .434-2.555 2.245 2.245 0 1 1 .628 3.614l-4.121 4.125 7.26-1.574a.75.75 0 0 0 .288-.13m-3.157-4.724a.75.75 0 1 0 1.387.574.75.75 0 0 0-1.387-.574" clip-rule="evenodd"/><path d="M18.75 18h3v1.5h-3v3h-1.5v-3h-3V18h3v-3h1.5z"/></svg>