<svg xmlns="http://www.w3.org/2000/svg" viewBox="0 0 24 24"><g clip-path="url(#a)"><path d="M18.75 3h-1.5A2.257 2.257 0 0 0 15 5.25v1.5c0 .345.082.668.225.968L7.71 15.233a2.2 2.2 0 0 0-.968-.226h-1.5a2.257 2.257 0 0 0-2.25 2.25v1.5a2.257 2.257 0 0 0 2.25 2.25h1.5a2.257 2.257 0 0 0 2.25-2.25v-1.5a2.2 2.2 0 0 0-.225-.967l7.515-7.515c.293.143.616.225.968.225h1.5A2.257 2.257 0 0 0 21 6.75v-1.5A2.257 2.257 0 0 0 18.75 3M7.5 18.75c0 .413-.338.75-.75.75h-1.5a.75.75 0 0 1-.75-.75v-1.5c0-.413.338-.75.75-.75h1.5c.412 0 .75.337.75.75zm12-12c0 .412-.337.75-.75.75h-1.5a.75.75 0 0 1-.75-.75v-1.5c0-.412.337-.75.75-.75h1.5c.413 0 .75.338.75.75z"/></g><defs><clipPath id="a"><path d="M0 0h24v24H0z"/></clipPath></defs></svg>