<svg xmlns="http://www.w3.org/2000/svg" xml:space="preserve" viewBox="0 0 32 32"><path d="M25 4H14c-1.654 0-3 1.346-3 3v11c0 1.654 1.346 3 3 3h11c1.654 0 3-1.346 3-3V7c0-1.654-1.346-3-3-3m1 14a1 1 0 0 1-1 1h-4v-1h-2v1h-5a1 1 0 0 1-1-1v-5h1v-2h-1V7c0-.551.448-1 1-1h11c.552 0 1 .449 1 1zM4 14v2h2v-2c0-.551.448-1 1-1h2v-2H7c-1.654 0-3 1.346-3 3m0 4h2v3H4zm2 7v-2H4v2c0 1.654 1.346 3 3 3h2v-2H7a1 1 0 0 1-1-1m5 1h3v2h-3zm8-1a1 1 0 0 1-1 1h-2v2h2c1.654 0 3-1.346 3-3v-2h-2z"/><path d="M18 11h-2v2h2c.552 0 1 .449 1 1v2h2v-2c0-1.654-1.346-3-3-3"/></svg>