<svg xmlns="http://www.w3.org/2000/svg" xml:space="preserve" viewBox="0 0 32 32"><path d="M23.103 15.41a3 3 0 0 0 .431-1.757 2.97 2.97 0 0 0 1.621-.83l.953-.953c.566-.567.879-1.32.879-2.122s-.312-1.555-.879-2.121l-4.735-4.735a3 3 0 0 0-4.242 0l-.953.953a2.98 2.98 0 0 0-.837 1.695 3 3 0 0 0-1.675.436l-6.157 3.79a3 3 0 0 0-1.476 1.985L2.897 26.18l14.43-3.137a2.98 2.98 0 0 0 1.962-1.436zM17.592 5.259l.953-.953a1 1 0 0 1 1.414 0l4.735 4.736c.189.188.293.439.293.707s-.104.518-.293.707l-.953.954c-.353.353-.939.362-1.325.058L17.53 6.581a.99.99 0 0 1 .062-1.322m-.029 15.339a1 1 0 0 1-.662.49l-9.68 2.105 5.495-5.495c.406.193.843.3 1.284.3.769 0 1.536-.292 2.121-.877.567-.566.879-1.32.879-2.121s-.312-1.555-.879-2.121a3.003 3.003 0 0 0-4.242 0A2.98 2.98 0 0 0 11 15c0 .454.11.887.3 1.285l-5.373 5.374 2.061-9.484a1.03 1.03 0 0 1 .53-.684l6.196-3.812a1 1 0 0 1 1.23.145l.094.094c.048.056.086.117.139.17l4.734 4.735c.055.055.118.095.176.145l.164.165a1 1 0 0 1 .146 1.231zM13 15a.997.997 0 0 1 1.707-.707c.189.189.293.44.293.707s-.104.518-.293.707A1 1 0 0 1 13 15m16 9h-4v-4h-2v4h-4v2h4v4h2v-4h4z"/></svg>