<svg xmlns="http://www.w3.org/2000/svg" viewBox="0 0 24 24"><path d="M18.75 3H10.5a2.25 2.25 0 0 0-2.25 2.25v3h-3A2.25 2.25 0 0 0 3 10.5v8.25A2.25 2.25 0 0 0 5.25 21h8.25a2.25 2.25 0 0 0 2.25-2.25v-3h3A2.25 2.25 0 0 0 21 13.5V5.25A2.25 2.25 0 0 0 18.75 3m-4.5 15.75a.75.75 0 0 1-.75.75H5.25a.75.75 0 0 1-.75-.75V10.5a.75.75 0 0 1 .75-.75h3v3.75a2.25 2.25 0 0 0 2.25 2.25h3.75zm0-4.5H10.5a.75.75 0 0 1-.75-.75V9.75h3.75a.75.75 0 0 1 .75.75zm5.25-.75a.75.75 0 0 1-.75.75h-3V10.5a2.25 2.25 0 0 0-2.25-2.25H9.75v-3a.75.75 0 0 1 .75-.75h8.25a.75.75 0 0 1 .75.75z"/></svg>