<svg xmlns="http://www.w3.org/2000/svg" viewBox="0 0 24 24"><path fill-rule="evenodd" d="M5.25 3h13.5A2.25 2.25 0 0 1 21 5.25v13.5A2.25 2.25 0 0 1 18.75 21h-4.5v-1.5h4.5a.75.75 0 0 0 .75-.75V5.25a.75.75 0 0 0-.75-.75H5.25a.75.75 0 0 0-.75.75v4.5H3v-4.5A2.25 2.25 0 0 1 5.25 3m10.5 9.75V9.52l-4.715 4.535c.14.295.214.618.215.945v3.75A2.25 2.25 0 0 1 9 21H5.25A2.25 2.25 0 0 1 3 18.75V15a2.25 2.25 0 0 1 2.25-2.25H9c.341.002.678.083.983.236l4.924-4.736H11.25v-1.5h6v6zm-6.22 6.53a.75.75 0 0 0 .22-.53V15a.75.75 0 0 0-.75-.75H5.25a.75.75 0 0 0-.75.75v3.75a.75.75 0 0 0 .75.75H9a.75.75 0 0 0 .53-.22" clip-rule="evenodd"/></svg>