<svg xmlns="http://www.w3.org/2000/svg" viewBox="0 0 24 24"><path d="M21 12.75h-6.172c1.357.832 2.422 1.935 2.422 3.69 0 2.19-2.01 4.56-5.25 4.56-2.572 0-4.5-1.485-5.07-3.75H5.438v-1.5h4.5v1.5H8.49c.502 1.402 1.762 2.25 3.51 2.25 2.318 0 3.75-1.59 3.75-3.06 0-1.635-1.47-2.415-3.9-3.518-.127-.06-.262-.12-.39-.18H3v-1.5h5.738c-1.155-.855-1.988-1.987-1.988-3.69 0-2.19 2.01-4.56 5.25-4.56 2.573 0 4.5 1.485 5.07 3.75h1.492v1.5h-4.5v-1.5h1.448c-.502-1.402-1.77-2.25-3.51-2.25-2.318 0-3.75 1.59-3.75 3.06 0 1.875 1.643 2.813 3.54 3.69H21z"/></svg>