<svg xmlns="http://www.w3.org/2000/svg" xml:space="preserve" viewBox="0 0 32 32"><path d="m27.313 8.929-4.242-4.243a3.003 3.003 0 0 0-4.243 0L4.687 18.828a3.003 3.003 0 0 0 0 4.243l4.242 4.242a3 3 0 0 0 2.121.878c.769 0 1.537-.293 2.122-.878l14.142-14.142c.566-.566.879-1.32.879-2.121s-.313-1.554-.88-2.121m-1.414 2.828L11.758 25.899a1 1 0 0 1-1.415 0l-4.242-4.242a1 1 0 0 1 0-1.415l.707-.707 2.121 2.122 1.414-1.414-2.121-2.122 1.414-1.414 3.536 3.535 1.414-1.414-3.536-3.535 1.415-1.415L14.586 16 16 14.586l-2.121-2.122 1.414-1.414 3.535 3.536 1.414-1.414-3.535-3.536 1.414-1.414 2.122 2.122 1.414-1.414-2.122-2.122.707-.707a1 1 0 0 1 1.415 0l4.242 4.243c.189.188.293.439.293.707s-.103.517-.293.706"/></svg>