<svg xmlns="http://www.w3.org/2000/svg" viewBox="0 0 24 24"><path fill-rule="evenodd" d="M18.866 9.617c-.33.33-.755.548-1.215.623.03.461-.082.92-.322 1.315l-2.86 4.65a2.23 2.23 0 0 1-1.471 1.077L2.175 19.635l2.35-10.822a2.25 2.25 0 0 1 1.107-1.488l4.618-2.84c.377-.23.814-.344 1.256-.326a2.23 2.23 0 0 1 .627-1.275l.715-.715a2.25 2.25 0 0 1 3.182 0l3.55 3.551a2.25 2.25 0 0 1 0 3.183zM13.91 3.23l-.715.714a.744.744 0 0 0-.046.992L16.812 8.6a.76.76 0 0 0 .994-.043l.714-.716a.75.75 0 0 0 0-1.06L14.97 3.23a.75.75 0 0 0-1.061 0m-.737 12.22 2.877-4.68.001.002a.744.744 0 0 0-.109-.922l-.123-.124-.025-.02q-.055-.04-.107-.089l-3.55-3.551a1 1 0 0 1-.064-.076l-.04-.051-.071-.071a.75.75 0 0 0-.922-.109l-4.65 2.86a.77.77 0 0 0-.398.512l-1.546 7.113 4.03-4.036a2.22 2.22 0 0 1 .434-2.555 2.246 2.246 0 1 1 .628 3.614l-4.121 4.125 7.26-1.574a.75.75 0 0 0 .496-.368m-3.365-4.487a.75.75 0 1 0 1.387.574.75.75 0 0 0-1.387-.574M22.5 18H15v1.5h7.5z" clip-rule="evenodd"/></svg>