<svg xmlns="http://www.w3.org/2000/svg" viewBox="0 0 24 24"><path d="M9.97 4.72a.75.75 0 0 0-.22.53v1.5h-1.5v-1.5A2.25 2.25 0 0 1 10.5 3H12v1.5h-1.5a.75.75 0 0 0-.53.22M3 10.5V12h1.5v-1.5a.75.75 0 0 1 .75-.75h1.5v-1.5h-1.5A2.25 2.25 0 0 0 3 10.5"/><path fill-rule="evenodd" d="M15.091 8.909A2.25 2.25 0 0 0 13.5 8.25h-3a2.25 2.25 0 0 0-2.25 2.25v3a2.25 2.25 0 0 0 2.25 2.25h3a2.25 2.25 0 0 0 2.25-2.25v-3a2.25 2.25 0 0 0-.659-1.591M14.25 13.5a.75.75 0 0 1-.75.75h-3a.75.75 0 0 1-.75-.75v-3a.75.75 0 0 1 .75-.75h3a.75.75 0 0 1 .75.75z" clip-rule="evenodd"/><path d="M4.5 13.5H3v2.25h1.5zm0 5.25v-1.5H3v1.5A2.25 2.25 0 0 0 5.25 21h1.5v-1.5h-1.5a.75.75 0 0 1-.75-.75m6 .75H8.25V21h2.25zm3.75-.75a.75.75 0 0 1-.75.75H12V21h1.5a2.25 2.25 0 0 0 2.25-2.25v-1.5h-1.5zm5.25-5.25a.75.75 0 0 1-.75.75h-1.5v1.5h1.5A2.25 2.25 0 0 0 21 13.5V12h-1.5zM21 8.25h-1.5v2.25H21zM18.75 3h-1.5v1.5h1.5a.75.75 0 0 1 .75.75v1.5H21v-1.5A2.25 2.25 0 0 0 18.75 3m-3 0H13.5v1.5h2.25z"/></svg>