<svg xmlns="http://www.w3.org/2000/svg" viewBox="0 0 24 24"><path d="m9.507 19.979-1.046.3c-3.666 1.05-4.544.421-4.725.204a1.35 1.35 0 0 1-.033-1.182l9.293-2.02a2.23 2.23 0 0 0 1.471-1.077l2.86-4.65c.242-.395.355-.856.323-1.318a2.23 2.23 0 0 0 1.216-.622l.715-.715a2.25 2.25 0 0 0 0-3.182l-3.552-3.549a2.25 2.25 0 0 0-3.181 0l-.715.715a2.23 2.23 0 0 0-.628 1.275 2.24 2.24 0 0 0-1.256.327L5.63 7.324a2.25 2.25 0 0 0-1.107 1.489l-2.086 9.6c-.19.416-.773 1.922.14 3.025a3.13 3.13 0 0 0 2.555.928 14 14 0 0 0 3.742-.646l1.05-.3c7.311-2.11 9.098-2.495 10.663.545l1.333-.687c-2.19-4.253-5.394-3.327-12.414-1.3m3.687-16.035.715-.714a.75.75 0 0 1 1.06 0l3.551 3.552a.75.75 0 0 1 0 1.06l-.714.716a.76.76 0 0 1-.994.043l-3.665-3.665a.744.744 0 0 1 .047-.992m-7.2 5.187a.77.77 0 0 1 .397-.513l4.65-2.859a.75.75 0 0 1 .923.109l.07.07c.036.043.065.088.105.128l3.55 3.551c.041.042.089.075.132.109l.123.124a.75.75 0 0 1 .11.923l-2.882 4.677a.75.75 0 0 1-.497.368l-7.26 1.574 4.121-4.117A2.25 2.25 0 1 0 8.91 9.66a2.22 2.22 0 0 0-.434 2.554l-4.03 4.03zm3.757 2.12a.75.75 0 0 1 .22-.53.75.75 0 1 1-.22.53"/></svg>