<svg xmlns="http://www.w3.org/2000/svg" viewBox="0 0 24 24"><path fill-rule="evenodd" d="M10.5 3h8.25A2.25 2.25 0 0 1 21 5.25v8.25a2.25 2.25 0 0 1-2.25 2.25H10.5a2.25 2.25 0 0 1-2.25-2.25V5.25A2.25 2.25 0 0 1 10.5 3m-.75 6.75v3.75a.75.75 0 0 0 .75.75h3.75V10.5a.75.75 0 0 0-.75-.75zm9.53 4.28a.75.75 0 0 0 .22-.53V5.25a.75.75 0 0 0-.75-.75H10.5a.75.75 0 0 0-.75.75v3h3.75a2.25 2.25 0 0 1 2.25 2.25v3.75h3a.75.75 0 0 0 .53-.22M3 12v-1.5a2.25 2.25 0 0 1 2.25-2.25h1.5v1.5h-1.5a.75.75 0 0 0-.75.75V12zm0 1.5h1.5v2.25H3zm1.5 3.75v1.5a.75.75 0 0 0 .75.75h1.5V21h-1.5A2.25 2.25 0 0 1 3 18.75v-1.5zm3.75 2.25h2.25V21H8.25zm5.78-.22a.75.75 0 0 0 .22-.53v-1.5h1.5v1.5A2.25 2.25 0 0 1 13.5 21H12v-1.5h1.5a.75.75 0 0 0 .53-.22" clip-rule="evenodd"/></svg>