<svg xmlns="http://www.w3.org/2000/svg" viewBox="0 0 24 24"><path fill-rule="evenodd" d="M9.421 17.378a2.32 2.32 0 0 0 1.65-.682l5.74-5.74-8.44-8.44-1.06 1.062 1.05 1.05-4.678 4.68a2.33 2.33 0 0 0 0 3.3l4.09 4.09a2.32 2.32 0 0 0 1.648.68m.59-1.743a.834.834 0 0 1-1.177 0l-3.928-3.928h9.034zM9.422 5.69l4.517 4.516H4.906z" clip-rule="evenodd"/><path d="M4.5 19.5h9V21h-9z"/><path fill-rule="evenodd" d="m18 12.11 2.373 3.165a3.15 3.15 0 0 1 .3 3.29 2.93 2.93 0 0 1-2.617 1.685h-.099a2.93 2.93 0 0 1-2.63-1.685 3.15 3.15 0 0 1 .3-3.29zm.804 6.401c.227-.15.406-.36.519-.606h.002a1.66 1.66 0 0 0-.152-1.73L18 14.609l-1.175 1.565a1.66 1.66 0 0 0-.15 1.73 1.46 1.46 0 0 0 1.294.846l.031.75v-.75h.044c.27-.007.534-.09.76-.239" clip-rule="evenodd"/></svg>