<svg xmlns="http://www.w3.org/2000/svg" width="24" height="24"><path fill-rule="evenodd" d="M6.76 7.785a4.5 4.5 0 0 0 .8 2.286l-1.23.859a6 6 0 1 1 9.84 0l-1.23-.859a4.5 4.5 0 1 0-8.18-2.286m6.74 4.502 4.317 2.158a2.25 2.25 0 0 1 1.058 2.905L16.65 22.5H7.83l-2.095-5.78a2.25 2.25 0 0 1 1.35-2.882A2.23 2.23 0 0 1 9 14.017V7.5a2.25 2.25 0 1 1 4.5 0zM15.666 21l1.833-4.245a.75.75 0 0 0-.353-.968L12 13.213V7.5a.75.75 0 1 0-1.5 0v9H8.845l-.288-.806a.75.75 0 1 0-1.411.513L8.882 21z" clip-rule="evenodd"/></svg>