<svg xmlns="http://www.w3.org/2000/svg" width="24" height="24"><path fill-rule="evenodd" d="M18.932 9.182A4.5 4.5 0 0 1 15.75 10.5H12v1.786l4.317 2.158a2.263 2.263 0 0 1 1.06 2.909L15.156 22.5H6.329l-2.092-5.782A2.25 2.25 0 0 1 7.5 14.017v-3.585A4.5 4.5 0 0 1 8.25 1.5h7.5a4.5 4.5 0 0 1 3.182 7.682M5.475 4.85A3.006 3.006 0 0 0 7.5 8.905V7.5a2.25 2.25 0 1 1 4.5 0V9h3.75a3 3 0 1 0 0-6h-7.5a2.99 2.99 0 0 0-2.775 1.85M16.014 16.2a.76.76 0 0 0-.37-.418L10.5 13.214V7.5a.75.75 0 1 0-1.5 0v9H7.35l-.294-.804a.75.75 0 0 0-1.408.51L7.382 21h6.788l1.828-4.243a.76.76 0 0 0 .016-.557M17 7.87a2.25 2.25 0 1 1-2.5-3.74A2.25 2.25 0 0 1 17 7.87m-.833-2.494a.75.75 0 1 0-.834 1.248.75.75 0 0 0 .834-1.248" clip-rule="evenodd"/></svg>