<svg xmlns="http://www.w3.org/2000/svg" xml:space="preserve" viewBox="0 0 32 32"><path d="M21 14a6 6 0 0 0 4.251-1.757A6.006 6.006 0 0 0 21 2H11a6 6 0 0 0-4.251 1.757A6 6 0 0 0 5 8c0 2.967 2.167 5.431 5 5.91v4.779a3 3 0 0 0-2.545-.241c-.756.27-1.36.817-1.702 1.545s-.379 1.545-.104 2.298L8.438 30h11.77l2.961-6.863.001-.003a3.02 3.02 0 0 0-1.413-3.878L16 16.381V14zM7 8c0-1.066.416-2.074 1.163-2.829A4.02 4.02 0 0 1 11 4h10a4.004 4.004 0 0 1 2.837 6.829A4.02 4.02 0 0 1 21 12h-5v-2c0-1.654-1.346-3-3-3s-3 1.346-3 3v1.874A4.01 4.01 0 0 1 7 8m13.859 13.043c.475.239.682.812.472 1.302L18.893 28H9.842L7.53 21.607a1 1 0 0 1 .034-.765 1 1 0 0 1 .569-.514.997.997 0 0 1 1.278.605L9.802 22H12V10a1.001 1.001 0 0 1 2 0v7.618z"/><path d="M21 11c1.654 0 3-1.346 3-3s-1.346-3-3-3-3 1.346-3 3 1.346 3 3 3m0-4a1.001 1.001 0 1 1-1 1c0-.551.448-1 1-1"/></svg>