<svg xmlns="http://www.w3.org/2000/svg" width="24" height="24"><path fill-rule="evenodd" d="m20.86 14.442-4.316-2.156V10.5h.706c1.24 0 2.25-1.01 2.25-2.25V4.5c0-1.24-1.01-2.25-2.25-2.25H3.75C2.51 2.25 1.5 3.26 1.5 4.5v3.75c0 1.24 1.01 2.25 2.25 2.25h8.294v3.516a2.22 2.22 0 0 0-1.909-.18 2.23 2.23 0 0 0-1.276 1.158 2.23 2.23 0 0 0-.078 1.724l2.091 5.782H19.7l2.22-5.147.001-.003a2.264 2.264 0 0 0-1.06-2.908M3.75 9A.75.75 0 0 1 3 8.25V4.5a.75.75 0 0 1 .75-.75h13.5a.75.75 0 0 1 .75.75v3.75a.75.75 0 0 1-.75.75h-.706V7.5c0-1.24-1.01-2.25-2.25-2.25s-2.25 1.01-2.25 2.25V9zm16.793 7.759L18.713 21h-6.788l-1.734-4.795a.74.74 0 0 1 .025-.573.74.74 0 0 1 .427-.386.75.75 0 0 1 .959.454l.293.8h1.649v-9a.75.75 0 0 1 1.5 0v5.714l5.144 2.568a.76.76 0 0 1 .355.977M5.625 7.5a1.125 1.125 0 1 0 0-2.25 1.125 1.125 0 0 0 0 2.25M10.5 6.375a1.125 1.125 0 1 1-2.25 0 1.125 1.125 0 0 1 2.25 0" clip-rule="evenodd"/></svg>