<svg xmlns="http://www.w3.org/2000/svg" xml:space="preserve" viewBox="0 0 32 32"><path d="M14 2h2v3h-2zm7 7h3v2h-3zM6 9h3v2H6zm12.568-3.432 2.716-2.716 1.414 1.414-2.716 2.716zM7.302 4.266l1.414-1.414 2.716 2.716-1.414 1.414zM23.756 19.26 18 16.382V10c0-1.654-1.346-3-3-3s-3 1.346-3 3v8.689a2.97 2.97 0 0 0-2.553-.242 3.005 3.005 0 0 0-1.801 3.843L10.439 30h11.763l2.966-6.867a3 3 0 0 0-1.412-3.873m-.424 3.08L20.888 28h-9.046l-2.314-6.39a1 1 0 0 1 .6-1.282 1 1 0 0 1 1.281.597L11.794 22H14V10a1.001 1.001 0 0 1 2 0v7.618l6.861 3.431a1 1 0 0 1 .471 1.291"/></svg>