<svg xmlns="http://www.w3.org/2000/svg" width="24" height="24"><path fill-rule="evenodd" d="m22.357 1.825 1.06 1.06-2.47 2.47 2.469 2.47-1.06 1.06-2.47-2.47-2.47 2.47-1.06-1.06 2.469-2.47-2.468-2.47 1.06-1.06 2.47 2.47zM15 8.625v9.513a2.25 2.25 0 1 1-1.5 0V8.625a1.875 1.875 0 0 0-3.75 0v10.5a3.375 3.375 0 1 1-6.75 0V8.005l-.83.83-1.06-1.06 2.64-2.641 2.64 2.641-1.06 1.06-.83-.83v11.12a1.875 1.875 0 0 0 3.75 0v-10.5a3.375 3.375 0 1 1 6.75 0m-1.167 12.249a.75.75 0 1 0 .834-1.247.75.75 0 0 0-.834 1.247" clip-rule="evenodd"/></svg>