<svg xmlns="http://www.w3.org/2000/svg" viewBox="0 0 24 24"><path d="M11.992 22.508a5.256 5.256 0 0 1-5.25-5.25v-10.5a5.256 5.256 0 0 1 5.25-5.25 5.256 5.256 0 0 1 5.25 5.25v10.5a5.256 5.256 0 0 1-5.25 5.25m0-19.5c-2.07 0-3.75 1.68-3.75 3.75v10.5c0 2.07 1.68 3.75 3.75 3.75s3.75-1.68 3.75-3.75v-10.5c0-2.07-1.68-3.75-3.75-3.75m.015 11.25a2.257 2.257 0 0 1-2.25-2.25 2.257 2.257 0 0 1 2.25-2.25 2.257 2.257 0 0 1 2.25 2.25 2.257 2.257 0 0 1-2.25 2.25m0-3a.75.75 0 0 0-.75.75c0 .412.338.75.75.75.413 0 .75-.338.75-.75a.75.75 0 0 0-.75-.75m0 8.61a2.257 2.257 0 0 1-2.25-2.25 2.257 2.257 0 0 1 2.25-2.25 2.257 2.257 0 0 1 2.25 2.25 2.257 2.257 0 0 1-2.25 2.25m0-3a.75.75 0 0 0-.75.75c0 .412.338.75.75.75.413 0 .75-.338.75-.75a.75.75 0 0 0-.75-.75m0-8.228a2.257 2.257 0 0 1-2.25-2.25 2.257 2.257 0 0 1 2.25-2.25 2.257 2.257 0 0 1 2.25 2.25 2.257 2.257 0 0 1-2.25 2.25m0-3a.75.75 0 0 0-.75.75c0 .413.338.75.75.75.413 0 .75-.337.75-.75a.75.75 0 0 0-.75-.75"/></svg>