<svg xmlns="http://www.w3.org/2000/svg" viewBox="0 0 24 24"><g clip-path="url(#a)"><path fill-rule="evenodd" d="M12.75 4.5h4.5a2.257 2.257 0 0 1 2.25 2.25V18c0 1.17-.907 2.13-2.055 2.227l1.238 2.273h-1.71l-1.223-2.25H8.153L7.027 22.5h-1.68l1.14-2.28A2.234 2.234 0 0 1 4.5 18V6.75A2.257 2.257 0 0 1 6.75 4.5h4.5V3h-3V1.5h7.5V3h-3zm4.5 14.25c.413 0 .75-.337.75-.75v-4.5H6V18c0 .413.338.75.75.75zM6 12h12V6.75a.75.75 0 0 0-.75-.75H6.75a.75.75 0 0 0-.75.75zm2.625 5.25a1.125 1.125 0 1 0 0-2.25 1.125 1.125 0 0 0 0 2.25m6.75 0a1.125 1.125 0 1 0 0-2.25 1.125 1.125 0 0 0 0 2.25" clip-rule="evenodd"/></g><defs><clipPath id="a"><path d="M0 0h24v24H0z"/></clipPath></defs></svg>