<svg xmlns="http://www.w3.org/2000/svg" viewBox="0 0 24 24"><path d="M19.388 19.5H21l-4.005-9.78-.6-1.455h-1.342L14.46 9.72l-4.185 9.788h1.785l1.717-4.193h3.893l1.717 4.193zm-4.996-5.693 1.335-3.247 1.328 3.247zm-2.699-1.289c-.743-.6-1.396-1.2-1.958-1.763 1.965-2.513 2.483-4.26 2.58-4.68h2.018V4.372h-4.8V3H7.8v1.372H3v1.703h7.508c-.21.585-.735 1.777-1.95 3.382C7.424 8.092 6.907 7.126 6.9 7.102l-1.553.765c.045.083.675 1.305 2.085 2.948-1.005 1.133-2.302 2.393-4.012 3.758l1.095 1.32c1.71-1.366 3.045-2.648 4.095-3.81a25 25 0 0 0 2.37 2.077l.697-1.635z"/></svg>