<svg xmlns="http://www.w3.org/2000/svg" xml:space="preserve" viewBox="0 0 32 32"><path d="M0 0h32v32H0z" style="fill:#0080ff;fill-opacity:0"/><path d="M25 7h-4V6c0-1.7-1.3-3-3-3h-4c-1.7 0-3 1.3-3 3v3h12v11.2l2 2V9h3V7zM13 7V6c0-.5.5-1 1-1h4c.5 0 1 .5 1 1v1z"/><path d="M20 13h-2v2.2l2 2zm3 10.1-3-3-2-2-4-4-1.1-1.1L9 9.1 8.9 9 7 7.1 6.9 7 5.5 5.6 4.1 7l2 2 .9.9V24c0 2.8 2.2 5 5 5h8c1.7 0 3.1-.8 4-2.1l1.1 1.1 1.4-1.4-1.6-1.6zM20 27h-8c-1.7 0-3-1.3-3-3V11.9l3 3V23h2v-6.1l4 4V23h2v-.1l2.6 2.6c-.5.9-1.5 1.5-2.6 1.5"/></svg>