<svg xmlns="http://www.w3.org/2000/svg" viewBox="0 0 24 24"><path d="M18.75 5.25h-3V4.5a2.257 2.257 0 0 0-2.25-2.25h-3A2.257 2.257 0 0 0 8.25 4.5v2.25h9v8.43l1.5 1.5V6.75H21v-1.5zm-9 0V4.5c0-.412.338-.75.75-.75h3c.412 0 .75.338.75.75v.75z"/><path d="M15 9.75h-1.5v1.68l1.5 1.5zm2.25 7.545L15 15.045l-1.5-1.5-3-3-.795-.795L6.75 6.795l-.045-.045L5.25 5.295l-.045-.045-1.05-1.05-1.057 1.05H3.09l1.493 1.5.667.668V18c0 2.07 1.68 3.75 3.75 3.75h6a3.76 3.76 0 0 0 3.038-1.545l.802.803 1.065-1.058-1.223-1.223zM15 20.25H9A2.257 2.257 0 0 1 6.75 18V8.918L9 11.168v6.082h1.5v-4.582l3 3v1.582H15v-.082l1.95 1.95A2.25 2.25 0 0 1 15 20.25"/></svg>