<svg xmlns="http://www.w3.org/2000/svg" width="24" height="24"><g clip-path="url(#a)"><path d="M22.5 12.375a5.63 5.63 0 0 0-5.625-5.625c-.24 0-.476.02-.709.05A7.51 7.51 0 0 0 9 1.5C4.865 1.5 1.5 4.864 1.5 9c0 3.882 2.965 7.084 6.75 7.462V22.5h1.5v-6.052a7.4 7.4 0 0 0 2.594-.754 5.62 5.62 0 0 0 3.781 2.25V22.5h1.5v-4.556c2.747-.368 4.875-2.722 4.875-5.569M9.75 14.948V9h-1.5v2.69L6.53 9.97l-1.06 1.06 2.78 2.78v1.137C5.295 14.578 3 12.055 3 9c0-3.308 2.692-6 6-6a6.01 6.01 0 0 1 5.714 4.183 5.63 5.63 0 0 0-3.464 5.192c0 .707.136 1.382.376 2.005a5.9 5.9 0 0 1-1.876.567m7.875 1.48V12.75h-1.5v3.678a4.13 4.13 0 0 1-3.375-4.053 4.13 4.13 0 0 1 4.125-4.125A4.13 4.13 0 0 1 21 12.375a4.13 4.13 0 0 1-3.375 4.053"/></g><defs><clipPath id="a"><path d="M0 0h24v24H0z"/></clipPath></defs></svg>