<svg xmlns="http://www.w3.org/2000/svg" xml:space="preserve" viewBox="0 0 32 32"><path d="M30 16.5c0-4.136-3.364-7.5-7.5-7.5a8 8 0 0 0-.945.066A10.01 10.01 0 0 0 12 2C6.486 2 2 6.486 2 12c0 5.176 3.954 9.446 9 9.949V30h2v-8.07a9.9 9.9 0 0 0 3.458-1.005 7.5 7.5 0 0 0 5.042 3.001V30h2v-6.075c3.663-.491 6.5-3.629 6.5-7.425m-17 3.43V12h-2v3.586l-2.293-2.293-1.414 1.414L11 18.414v1.516c-3.94-.494-7-3.858-7-7.93 0-4.411 3.589-8 8-8a8.01 8.01 0 0 1 7.619 5.577C16.91 10.709 15 13.385 15 16.5c0 .943.182 1.842.501 2.674A7.9 7.9 0 0 1 13 19.93m10.5 1.974V17h-2v4.904C18.944 21.432 17 19.19 17 16.5c0-3.033 2.468-5.5 5.5-5.5s5.5 2.467 5.5 5.5c0 2.69-1.944 4.932-4.5 5.404"/></svg>