<svg xmlns="http://www.w3.org/2000/svg" width="24" height="24"><g clip-path="url(#a)"><path d="M19.5 9c0-4.135-3.364-7.5-7.5-7.5-4.135 0-7.5 3.364-7.5 7.5 0 3.882 2.965 7.084 6.75 7.462V22.5h1.5v-6.038c3.785-.378 6.75-3.58 6.75-7.462m-6.75 5.948v-2.637l3.53-3.53-1.06-1.06-2.47 2.469V7.5h-1.5v2.69L9.53 8.47 8.47 9.53l2.78 2.78v2.637C8.295 14.578 6 12.055 6 9c0-3.308 2.692-6 6-6s6 2.692 6 6c0 3.054-2.295 5.577-5.25 5.948"/></g><defs><clipPath id="a"><path d="M0 0h24v24H0z"/></clipPath></defs></svg>