<svg xmlns="http://www.w3.org/2000/svg" viewBox="0 0 24 24"><g clip-path="url(#a)"><path d="M19.95 6H15v6H1.5v5.25h2.288c.187 1.267 1.267 2.25 2.587 2.25s2.4-.983 2.588-2.25h3.825c.187 1.267 1.267 2.25 2.587 2.25s2.4-.983 2.587-2.25H22.5v-8.7A2.557 2.557 0 0 0 19.95 6M6.375 18a1.123 1.123 0 0 1-1.125-1.125A1.124 1.124 0 1 1 6.375 18m6.637-2.25H8.738a2.62 2.62 0 0 0-2.363-1.5 2.63 2.63 0 0 0-2.362 1.5H3V13.5h12v.787a2.64 2.64 0 0 0-1.988 1.463M15.375 18a1.123 1.123 0 0 1-1.125-1.125c0-.622.502-1.125 1.125-1.125s1.125.503 1.125 1.125S15.998 18 15.375 18m2.363-2.25a2.68 2.68 0 0 0-1.238-1.238V7.5h3.45c.578 0 1.05.473 1.05 1.05V9h-1.5a2.257 2.257 0 0 0-2.25 2.25 2.257 2.257 0 0 0 2.25 2.25H21v2.25zM21 12h-1.5a.75.75 0 0 1-.75-.75c0-.412.337-.75.75-.75H21z"/></g><defs><clipPath id="a"><path d="M0 0h24v24H0z"/></clipPath></defs></svg>