<svg xmlns="http://www.w3.org/2000/svg" viewBox="0 0 24 24"><g clip-path="url(#a)"><path d="M9.75 12h-1.5v1.5h1.5z"/><path d="M19.95 6H16.5V4.5h-15v12.75h2.28a2.63 2.63 0 0 0 2.595 2.25 2.63 2.63 0 0 0 2.595-2.25h3.803a2.63 2.63 0 0 0 2.595 2.25 2.63 2.63 0 0 0 2.594-2.25h4.53v-8.7A2.557 2.557 0 0 0 19.943 6zM6.375 18a1.123 1.123 0 0 1-1.125-1.125A1.124 1.124 0 1 1 6.375 18m6.63-2.25h-4.26a2.63 2.63 0 0 0-2.37-1.5c-1.043 0-1.95.615-2.37 1.5H3V6h12v8.28a2.63 2.63 0 0 0-1.995 1.47m2.37 2.25a1.123 1.123 0 0 1-1.125-1.125c0-.622.502-1.125 1.125-1.125s1.125.503 1.125 1.125S15.998 18 15.375 18M21 12h-1.5a.75.75 0 0 1-.75-.75c0-.412.337-.75.75-.75H21zm0-3h-1.5a2.257 2.257 0 0 0-2.25 2.25 2.257 2.257 0 0 0 2.25 2.25H21v2.25h-3.255a2.64 2.64 0 0 0-1.245-1.245V7.5h3.45c.578 0 1.05.473 1.05 1.05z"/><path d="M9.75 7.5h-1.5v3.75h1.5z"/></g><defs><clipPath id="a"><path d="M0 0h24v24H0z"/></clipPath></defs></svg>