<svg xmlns="http://www.w3.org/2000/svg" viewBox="0 0 24 24"><path d="M19.95 6H16.5V4.5h-15v12.75h2.288a2.612 2.612 0 0 0 5.175 0h3.825a2.613 2.613 0 0 0 5.175 0H22.5v-8.7A2.55 2.55 0 0 0 19.95 6M6.375 18a1.125 1.125 0 1 1 0-2.25 1.125 1.125 0 0 1 0 2.25m6.638-2.25H8.738a2.61 2.61 0 0 0-4.725 0H3V6h12v8.288a2.62 2.62 0 0 0-1.987 1.462M15.375 18a1.125 1.125 0 1 1 0-2.25 1.125 1.125 0 0 1 0 2.25m2.362-2.25a2.63 2.63 0 0 0-1.237-1.237V7.5h3.45A1.05 1.05 0 0 1 21 8.55V9h-1.5a2.25 2.25 0 0 0 0 4.5H21v2.25zM21 12h-1.5a.75.75 0 1 1 0-1.5H21z"/></svg>