<svg xmlns="http://www.w3.org/2000/svg" xml:space="preserve" viewBox="0 0 32 32"><path d="M25.004 12H15V8c0-3.309-2.691-6-6-6S3 4.691 3 8v2h2V8c0-2.206 1.794-4 4-4s4 1.794 4 4v4h-.004A3.996 3.996 0 0 0 9 15.996v10.008A3.996 3.996 0 0 0 12.996 30h12.008A3.996 3.996 0 0 0 29 26.004V15.996A3.996 3.996 0 0 0 25.004 12M27 26.004A2 2 0 0 1 25.004 28H12.996A2 2 0 0 1 11 26.004V15.996c0-1.101.895-1.996 1.996-1.996h12.008c1.101 0 1.996.895 1.996 1.996z"/><path d="M19 17a4 4 0 1 0 0 8 4 4 0 0 0 0-8m0 6c-1.103 0-2-.897-2-2s.897-2 2-2 2 .897 2 2-.897 2-2 2"/></svg>