<svg xmlns="http://www.w3.org/2000/svg" viewBox="0 0 24 24"><path fill-rule="evenodd" d="M12.583 13.256a3 3 0 1 1 3.333 4.987 3 3 0 0 1-3.333-4.987m.834 3.741a1.5 1.5 0 1 0 1.667-2.495 1.5 1.5 0 0 0-1.667 2.495" clip-rule="evenodd"/><path fill-rule="evenodd" d="M11.25 9h7.5a3 3 0 0 1 3 3v7.5a3 3 0 0 1-3 3h-9a3 3 0 0 1-3-3V12a3 3 0 0 1 3-3V6a3 3 0 1 0-6 0v1.5h-1.5V6a4.5 4.5 0 0 1 9 0zm8.56 11.56a1.5 1.5 0 0 0 .44-1.06V12a1.5 1.5 0 0 0-1.5-1.5h-9a1.5 1.5 0 0 0-1.5 1.5v7.5a1.5 1.5 0 0 0 1.5 1.5h9a1.5 1.5 0 0 0 1.06-.44" clip-rule="evenodd"/></svg>