<svg xmlns="http://www.w3.org/2000/svg" viewBox="0 0 24 24"><path fill-rule="evenodd" d="M12 13.5A2.25 2.25 0 1 0 12 9a2.25 2.25 0 0 0 0 4.5m0-3a.75.75 0 1 1 0 1.5.75.75 0 0 1 0-1.5m.75 3.75h-1.5A3.755 3.755 0 0 0 7.5 18v1.5h9V18a3.754 3.754 0 0 0-3.75-3.75M9 18a2.25 2.25 0 0 1 2.25-2.25h1.5A2.25 2.25 0 0 1 15 18z" clip-rule="evenodd"/><path fill-rule="evenodd" d="M14.25 3.75h3A2.25 2.25 0 0 1 19.5 6v14.25a2.25 2.25 0 0 1-2.25 2.25H6.75a2.25 2.25 0 0 1-2.25-2.25V6a2.25 2.25 0 0 1 2.25-2.25h3V3a1.5 1.5 0 0 1 1.5-1.5h1.5a1.5 1.5 0 0 1 1.5 1.5zM12.75 3h-1.5v3h1.5zm5.03 17.78a.75.75 0 0 0 .22-.53V6a.75.75 0 0 0-.75-.75h-3V6a1.5 1.5 0 0 1-1.5 1.5h-1.5A1.5 1.5 0 0 1 9.75 6v-.75h-3A.75.75 0 0 0 6 6v14.25a.75.75 0 0 0 .75.75h10.5a.75.75 0 0 0 .53-.22" clip-rule="evenodd"/></svg>