<svg xmlns="http://www.w3.org/2000/svg" xml:space="preserve" viewBox="0 0 32 32"><path d="M13 13a5.5 5.5 0 1 0 0-11 5.5 5.5 0 1 0 0 11m0-9c1.93 0 3.5 1.57 3.5 3.5S14.93 11 13 11 9.5 9.43 9.5 7.5 11.07 4 13 4M5 22c0-2.757 2.243-5 5-5h4v-2h-4c-3.859 0-7 3.141-7 7v8h14v-2H5zm24.231-4.794c-.034-.009-3.518-.846-5.784-1.979L23 15.003l-.447.224c-2.267 1.133-5.75 1.97-5.784 1.979L16 17.39v.789c0 10.301 6.526 11.725 6.804 11.78l.196.039.196-.039c.278-.056 6.804-1.48 6.804-11.78v-.79zm-6.23 10.737c-.913-.293-4.727-1.939-4.987-8.992 1.125-.302 3.246-.921 4.986-1.721 1.74.8 3.862 1.419 4.986 1.721-.259 7.067-4.056 8.698-4.985 8.992"/></svg>