<svg xmlns="http://www.w3.org/2000/svg" viewBox="0 0 24 24"><path fill-rule="evenodd" d="M9 9.75A4.125 4.125 0 1 0 9 1.5a4.125 4.125 0 0 0 0 8.25M9 3a2.63 2.63 0 0 1 2.625 2.625A2.63 2.63 0 0 1 9 8.25a2.63 2.63 0 0 1-2.625-2.625A2.63 2.63 0 0 1 9 3M3 16.5a3.754 3.754 0 0 1 3.75-3.75h4.5q.437 0 .856.098l.341-1.46a5.3 5.3 0 0 0-1.197-.138h-4.5A5.257 5.257 0 0 0 1.5 16.5v6H12V21H3zm9 .75A5.257 5.257 0 0 1 17.25 12a5.257 5.257 0 0 1 5.25 5.25 5.257 5.257 0 0 1-5.25 5.25A5.257 5.257 0 0 1 12 17.25m2.125-2.065a3.73 3.73 0 0 0-.625 2.065A3.754 3.754 0 0 0 17.25 21c.763 0 1.471-.232 2.065-.625zm1.06-1.06 5.19 5.19A3.73 3.73 0 0 0 21 17.25a3.754 3.754 0 0 0-3.75-3.75c-.763 0-1.472.232-2.065.625" clip-rule="evenodd"/></svg>