<svg xmlns="http://www.w3.org/2000/svg" width="24" height="24"><g clip-path="url(#a)"><path d="M12 9.75a4.125 4.125 0 1 0 0-8.25 4.125 4.125 0 0 0 0 8.25M12 3a2.63 2.63 0 0 1 2.625 2.625A2.63 2.63 0 0 1 12 8.25a2.63 2.63 0 0 1-2.625-2.625A2.63 2.63 0 0 1 12 3m2.25 8.25h-4.5A5.257 5.257 0 0 0 4.5 16.5v6h15v-6a5.257 5.257 0 0 0-5.25-5.25M12 14.547l-1.427-1.797h2.865zM18 21H6v-4.5c0-1.728 1.181-3.172 2.774-3.604l2.476 3.118V19.5h1.5v-3.489l2.49-3.111c1.586.437 2.76 1.877 2.76 3.6z"/><path d="M16.569 18H14.25v1.5h2.319z"/></g><defs><clipPath id="a"><path d="M0 0h24v24H0z"/></clipPath></defs></svg>