<svg xmlns="http://www.w3.org/2000/svg" xml:space="preserve" viewBox="0 0 32 32"><path d="M16 18a3 3 0 1 0 0-6 3 3 0 0 0 0 6m0-4c.551 0 1 .449 1 1s-.449 1-1 1-1-.449-1-1 .449-1 1-1m1 5h-2c-2.757 0-5 2.243-5 5v2h12v-2c0-2.757-2.243-5-5-5m-5 5c0-1.654 1.346-3 3-3h2c1.654 0 3 1.346 3 3z"/><path d="M23 5h-4V4c0-1.103-.897-2-2-2h-2c-1.103 0-2 .897-2 2v1H9C7.346 5 6 6.346 6 8v19c0 1.654 1.346 3 3 3h14c1.654 0 3-1.346 3-3V8c0-1.654-1.346-3-3-3m-8-1h2l.001 4H15zm9 23a1 1 0 0 1-1 1H9a1 1 0 0 1-1-1V8c0-.551.448-1 1-1h4v1c0 1.103.897 2 2 2h2c1.103 0 2-.897 2-2V7h4c.552 0 1 .449 1 1z"/></svg>