<svg xmlns="http://www.w3.org/2000/svg" viewBox="0 0 24 24"><path fill-rule="evenodd" d="M12.042 9.055a4.125 4.125 0 1 1-4.584-6.86 4.125 4.125 0 0 1 4.584 6.86m-.834-5.613a2.625 2.625 0 1 0-2.916 4.366 2.625 2.625 0 0 0 2.916-4.366" clip-rule="evenodd"/><path d="M4.85 13.85a3.75 3.75 0 0 0-1.1 2.65V21H9v1.5H2.25v-6a5.257 5.257 0 0 1 5.25-5.25H12c.517 0 1.03.075 1.525.225l-.435 1.436A3.8 3.8 0 0 0 12 12.75H7.5a3.76 3.76 0 0 0-2.65 1.1m12.62.62a.75.75 0 1 0 1.06 1.06.75.75 0 0 0-1.06-1.06"/><path fill-rule="evenodd" d="M21.157 12.979a3.8 3.8 0 0 1 .568 1.591 3.734 3.734 0 0 1-4.245 4.132L13.681 22.5H10.5v-3.181l3.798-3.796a3.74 3.74 0 0 1 6.859-2.544m-2.572 4.19a2.252 2.252 0 1 0-1.936-3.974 2.24 2.24 0 0 0-.811 2.379l.11.418L12 19.939V21h1.06l3.948-3.947.417.11c.38.105.78.107 1.16.007" clip-rule="evenodd"/></svg>