<svg xmlns="http://www.w3.org/2000/svg" viewBox="0 0 24 24"><path fill-rule="evenodd" d="M9.75 9.75a4.125 4.125 0 1 0 0-8.25 4.125 4.125 0 0 0 0 8.25m0-6.75a2.625 2.625 0 1 1 0 5.25 2.625 2.625 0 0 1 0-5.25m10.5 9.75v.888a2.25 2.25 0 0 1 1.5 2.112v4.5a2.25 2.25 0 0 1-2.25 2.25H15a2.25 2.25 0 0 1-2.25-2.25v-4.5a2.25 2.25 0 0 1 1.5-2.112v-.888a3 3 0 0 1 6 0m-4.06-1.06a1.5 1.5 0 0 0-.44 1.06v.75h3v-.75a1.5 1.5 0 0 0-2.56-1.06m3.84 9.09a.75.75 0 0 0 .22-.53v-4.5a.75.75 0 0 0-.75-.75H15a.75.75 0 0 0-.75.75v4.5A.75.75 0 0 0 15 21h4.5a.75.75 0 0 0 .53-.22m-1.947-4.027a1.5 1.5 0 1 0-1.667 2.495 1.5 1.5 0 0 0 1.667-2.495M7.5 11.25H12q.44 0 .874.072l-.248 1.48A4 4 0 0 0 12 12.75H7.5a3.755 3.755 0 0 0-3.75 3.75V21h7.5v1.5h-9v-6a5.257 5.257 0 0 1 5.25-5.25" clip-rule="evenodd"/></svg>