<svg xmlns="http://www.w3.org/2000/svg" xml:space="preserve" viewBox="0 0 32 32"><circle cx="23.5" cy="19.5" r="1.5"/><path d="M23.5 14a5.5 5.5 0 0 0-5.5 5.5C18 25 23.5 30 23.5 30S29 25 29 19.5a5.5 5.5 0 0 0-5.5-5.5m0 13.09c-1.435-1.681-3.5-4.617-3.5-7.59 0-1.93 1.57-3.5 3.5-3.5s3.5 1.57 3.5 3.5c0 2.973-2.066 5.91-3.5 7.59M13 13a5.5 5.5 0 1 0 0-11 5.5 5.5 0 1 0 0 11m0-9c1.93 0 3.5 1.57 3.5 3.5S14.93 11 13 11 9.5 9.43 9.5 7.5 11.07 4 13 4M5 22c0-2.757 2.243-5 5-5h6v-2h-6c-3.859 0-7 3.141-7 7v8h16v-2H5z"/></svg>