<svg xmlns="http://www.w3.org/2000/svg" viewBox="0 0 24 24"><path fill-rule="evenodd" d="M13.125 5.625a4.125 4.125 0 1 1-8.25 0 4.125 4.125 0 0 1 8.25 0m-1.5 0A2.63 2.63 0 0 0 9 3a2.63 2.63 0 0 0-2.625 2.625A2.63 2.63 0 0 0 9 8.25a2.63 2.63 0 0 0 2.625-2.625" clip-rule="evenodd"/><path d="M6.75 12.75A3.754 3.754 0 0 0 3 16.5V21h9v1.5H1.5v-6a5.257 5.257 0 0 1 5.25-5.25h4.5c.403 0 .806.046 1.197.137l-.341 1.461a3.8 3.8 0 0 0-.856-.098zm7.718 3.825h5.539v1.5h-5.539z"/><path fill-rule="evenodd" d="M17.237 12.075a5.257 5.257 0 0 0-5.25 5.25 5.257 5.257 0 0 0 5.25 5.25 5.257 5.257 0 0 0 5.25-5.25 5.256 5.256 0 0 0-5.25-5.25m0 9a3.754 3.754 0 0 1-3.75-3.75 3.754 3.754 0 0 1 3.75-3.75 3.754 3.754 0 0 1 3.75 3.75 3.754 3.754 0 0 1-3.75 3.75" clip-rule="evenodd"/></svg>