<svg xmlns="http://www.w3.org/2000/svg" width="24" height="24"><path fill-rule="evenodd" d="M12.841 2.159c.422.422.659.994.659 1.591v11.714L9.573 13.5H3.75a2.25 2.25 0 0 1-2.25-2.25v-7.5A2.25 2.25 0 0 1 3.75 1.5h7.5a2.25 2.25 0 0 1 1.591.659M9.927 12 12 13.037V3.75a.75.75 0 0 0-.75-.75h-7.5a.75.75 0 0 0-.75.75v7.5a.75.75 0 0 0 .75.75zm9.156 2.558a2.625 2.625 0 1 1-2.917-4.366 2.625 2.625 0 0 1 2.917 4.366m-.833-3.118A1.125 1.125 0 1 0 17 13.31a1.125 1.125 0 0 0 1.25-1.87m-10-6.94h-1.5v2.25H4.5v1.5h2.25v2.25h1.5V8.25h2.25v-1.5H8.25zm5.6 12.35a3.75 3.75 0 0 1 2.65-1.1h2.25a3.754 3.754 0 0 1 3.75 3.75v3h-9.75v-3a3.75 3.75 0 0 1 1.1-2.65m.4 2.65V21H21v-1.5a2.25 2.25 0 0 0-2.25-2.25H16.5a2.25 2.25 0 0 0-2.25 2.25" clip-rule="evenodd"/></svg>