<svg xmlns="http://www.w3.org/2000/svg" viewBox="0 0 24 24"><g clip-path="url(#a)"><path fill-rule="evenodd" d="M9.75 9.75a4.125 4.125 0 1 0 0-8.25 4.125 4.125 0 0 0 0 8.25m0-6.75a2.63 2.63 0 0 1 2.625 2.625A2.63 2.63 0 0 1 9.75 8.25a2.63 2.63 0 0 1-2.625-2.625A2.63 2.63 0 0 1 9.75 3m-6 13.5a3.754 3.754 0 0 1 3.75-3.75h3v-1.5h-3a5.257 5.257 0 0 0-5.25 5.25v6h10.5V21h-9zm18.163-3.598.01.003.577.137v.592c0 7.725-4.895 8.793-5.103 8.835l-.147.03-.147-.03C16.894 22.428 12 21.36 12 13.634v-.591l.577-.138.01-.003c.183-.045 2.682-.66 4.328-1.482l.335-.168.335.168c1.645.822 4.145 1.437 4.328 1.482m-8.402 1.311c.195 5.29 3.055 6.525 3.74 6.744.697-.22 3.544-1.444 3.738-6.744-.843-.226-2.434-.69-3.739-1.29-1.305.6-2.896 1.064-3.74 1.29" clip-rule="evenodd"/></g><defs><clipPath id="a"><path d="M0 0h24v24H0z"/></clipPath></defs></svg>