<svg xmlns="http://www.w3.org/2000/svg" width="24" height="24"><path fill-rule="evenodd" d="M18.37 8.494a3 3 0 1 1-3.333-4.988 3 3 0 0 1 3.334 4.988m-.833-3.741a1.5 1.5 0 1 0-1.666 2.493 1.5 1.5 0 0 0 1.666-2.493M7.875 11.25a3.375 3.375 0 1 0 0-6.75 3.375 3.375 0 0 0 0 6.75m0-5.25a1.875 1.875 0 1 1 0 3.75 1.875 1.875 0 0 1 0-3.75M22.5 14.158a4.413 4.413 0 0 0-4.408-4.408H15a4.14 4.14 0 0 0-3.81 2.585A4.8 4.8 0 0 0 9.435 12H6a4.505 4.505 0 0 0-4.5 4.5V21h12.75v-3h8.25zM3 19.5v-3a3 3 0 0 1 3-3h3.436a3.32 3.32 0 0 1 3.314 3.314V19.5zm18-3h-6.766a4.8 4.8 0 0 0-1.738-3.399A2.64 2.64 0 0 1 15 11.25h3.092A2.91 2.91 0 0 1 21 14.158z" clip-rule="evenodd"/></svg>