<svg xmlns="http://www.w3.org/2000/svg" viewBox="0 0 24 24"><path fill-rule="evenodd" d="M12 9.75a4.125 4.125 0 1 0 0-8.25 4.125 4.125 0 0 0 0 8.25M12 3a2.63 2.63 0 0 1 2.625 2.625A2.63 2.63 0 0 1 12 8.25a2.63 2.63 0 0 1-2.625-2.625A2.63 2.63 0 0 1 12 3" clip-rule="evenodd"/><path d="M14.25 18h2.319v1.5H14.25z"/><path fill-rule="evenodd" d="M9.75 11.25A5.257 5.257 0 0 0 4.5 16.5v6h15v-6a5.257 5.257 0 0 0-5.25-5.25zM6 21v-4.5a3.754 3.754 0 0 1 3.75-3.75h4.5A3.754 3.754 0 0 1 18 16.5V21z" clip-rule="evenodd"/></svg>