<svg xmlns="http://www.w3.org/2000/svg" viewBox="0 0 24 24"><path fill-rule="evenodd" d="M9.75 9.75a4.125 4.125 0 1 0 0-8.25 4.125 4.125 0 0 0 0 8.25m0-6.75a2.625 2.625 0 1 1 0 5.25 2.625 2.625 0 0 1 0-5.25m11.348 8.165a2.263 2.263 0 0 0-3.195 0l-5.87 5.87a3.8 3.8 0 0 0-.772 1.12l-1.511 3.37.992.992L14.107 21a3.8 3.8 0 0 0 1.12-.773l5.87-5.869a2.26 2.26 0 0 0 0-3.193m-1.06 2.135-5.869 5.869a2.3 2.3 0 0 1-.675.466l-1.569.704.705-1.57c.112-.25.27-.48.465-.674l5.869-5.869a.759.759 0 1 1 1.074 1.074" clip-rule="evenodd"/><path d="M4.85 13.85a3.75 3.75 0 0 0-1.1 2.65V21h4.554v1.5H2.25v-6a5.257 5.257 0 0 1 5.25-5.25H12c.943 0 1.868.254 2.679.736l-.766 1.289A3.75 3.75 0 0 0 12 12.75H7.5a3.76 3.76 0 0 0-2.65 1.1"/></svg>