<svg xmlns="http://www.w3.org/2000/svg" viewBox="0 0 24 24"><path fill-rule="evenodd" d="M9 9.75A4.125 4.125 0 1 0 9 1.5a4.125 4.125 0 0 0 0 8.25M9 3a2.625 2.625 0 1 1 0 5.25A2.625 2.625 0 0 1 9 3m13.5 13.5h-1.966a3.3 3.3 0 0 0-.434-1.04l1.393-1.392-1.06-1.06L19.04 14.4a3.3 3.3 0 0 0-1.04-.434V12h-1.5v1.966c-.369.084-.72.231-1.04.434l-1.392-1.393-1.06 1.06L14.4 15.46c-.203.32-.35.671-.434 1.04H12V18h1.966c.084.369.231.72.434 1.04l-1.393 1.392 1.06 1.06L15.46 20.1c.32.203.671.35 1.04.434V22.5H18v-1.966c.369-.084.72-.231 1.04-.434l1.392 1.393 1.06-1.06L20.1 19.04c.203-.32.35-.671.434-1.04H22.5zm-5.25 2.625a1.875 1.875 0 1 1 0-3.75 1.875 1.875 0 0 1 0 3.75" clip-rule="evenodd"/><path d="M4.1 13.85A3.75 3.75 0 0 0 3 16.5V21h9v1.5H1.5v-6a5.257 5.257 0 0 1 5.25-5.25H12v1.5H6.75a3.76 3.76 0 0 0-2.65 1.1"/></svg>