<svg xmlns="http://www.w3.org/2000/svg" viewBox="0 0 24 24"><path fill-rule="evenodd" d="M9 11.25a2.25 2.25 0 1 0 0-4.5 2.25 2.25 0 0 0 0 4.5m0-3a.75.75 0 1 1 0 1.5.75.75 0 0 1 0-1.5M9.75 12h-1.5a3.755 3.755 0 0 0-3.75 3.75v1.5h9v-1.5A3.754 3.754 0 0 0 9.75 12M6 15.75a2.25 2.25 0 0 1 2.25-2.25h1.5A2.25 2.25 0 0 1 12 15.75z" clip-rule="evenodd"/><path d="M13.5 8.25h6v1.5h-6zm6 3H15v1.5h4.5z"/><path fill-rule="evenodd" d="M3.75 3.75h16.5A2.25 2.25 0 0 1 22.5 6v12a2.25 2.25 0 0 1-2.25 2.25H3.75A2.25 2.25 0 0 1 1.5 18V6a2.25 2.25 0 0 1 2.25-2.25m17.03 14.78A.75.75 0 0 0 21 18V6a.75.75 0 0 0-.75-.75H3.75A.75.75 0 0 0 3 6v12a.75.75 0 0 0 .75.75h16.5a.75.75 0 0 0 .53-.22" clip-rule="evenodd"/></svg>