<svg xmlns="http://www.w3.org/2000/svg" width="24" height="24"><g clip-path="url(#a)"><path fill-rule="evenodd" d="M12 9.75a4.125 4.125 0 1 0 0-8.25 4.125 4.125 0 0 0 0 8.25M12 3a2.63 2.63 0 0 1 2.625 2.625A2.63 2.63 0 0 1 12 8.25a2.63 2.63 0 0 1-2.625-2.625A2.63 2.63 0 0 1 12 3m-2.25 8.25A5.257 5.257 0 0 0 4.5 16.5v6h15v-6a5.257 5.257 0 0 0-5.25-5.25zM6 21v-4.5a3.754 3.754 0 0 1 3.75-3.75h4.5A3.754 3.754 0 0 1 18 16.5V21zm8.25-3h2.319v1.5H14.25z" clip-rule="evenodd"/></g><defs><clipPath id="a"><path d="M0 0h24v24H0z"/></clipPath></defs></svg>