<svg xmlns="http://www.w3.org/2000/svg" xml:space="preserve" viewBox="0 0 32 32"><path d="M23.5 20c1.93 0 3.5-1.57 3.5-3.5S25.43 13 23.5 13 20 14.57 20 16.5s1.57 3.5 3.5 3.5m0-5c.827 0 1.5.673 1.5 1.5s-.673 1.5-1.5 1.5-1.5-.673-1.5-1.5.673-1.5 1.5-1.5M18 5c0-1.654-1.346-3-3-3H5C3.346 2 2 3.346 2 5v10c0 1.654 1.346 3 3 3h7.764L18 20.618zm-2 12.382L13.236 16H5c-.552 0-1-.449-1-1V5c0-.551.448-1 1-1h10c.552 0 1 .449 1 1z"/><path d="M11 6H9v3H6v2h3v3h2v-3h3V9h-3zm14 15h-3c-2.757 0-5 2.243-5 5v4h13v-4c0-2.757-2.243-5-5-5m3 7h-9v-2c0-1.654 1.346-3 3-3h3c1.654 0 3 1.346 3 3z"/></svg>