<svg xmlns="http://www.w3.org/2000/svg" xml:space="preserve" viewBox="0 0 32 32"><path d="M30 24v-2h-2.621a4.4 4.4 0 0 0-.579-1.386l1.857-1.857-1.414-1.414-1.857 1.857A4.4 4.4 0 0 0 24 18.621V16h-2v2.621c-.5.114-.965.313-1.386.579l-1.857-1.857-1.414 1.414 1.857 1.857A4.4 4.4 0 0 0 18.621 22H16v2h2.621c.114.5.313.965.579 1.386l-1.857 1.857 1.414 1.414 1.857-1.857c.421.266.887.465 1.386.579V30h2v-2.621c.5-.114.965-.313 1.386-.579l1.857 1.857 1.414-1.414-1.857-1.857c.266-.421.465-.887.579-1.386zm-7 1.5c-1.379 0-2.5-1.121-2.5-2.5s1.121-2.5 2.5-2.5 2.5 1.121 2.5 2.5-1.121 2.5-2.5 2.5M12 13a5.5 5.5 0 1 0 0-11 5.5 5.5 0 1 0 0 11m0-9c1.93 0 3.5 1.57 3.5 3.5S13.93 11 12 11 8.5 9.43 8.5 7.5 10.07 4 12 4M4 22c0-2.757 2.243-5 5-5h7v-2H9c-3.859 0-7 3.141-7 7v8h14v-2H4z"/></svg>