<svg xmlns="http://www.w3.org/2000/svg" width="24" height="24"><path fill-rule="evenodd" d="M9.75 9.75a4.125 4.125 0 1 0 0-8.25 4.125 4.125 0 0 0 0 8.25m0-6.75a2.625 2.625 0 1 1 0 5.25 2.625 2.625 0 0 1 0-5.25m4.958 8.708a4.125 4.125 0 0 1 7.042 2.917c0 4.125-4.125 7.875-4.125 7.875S13.5 18.75 13.5 14.625c0-1.094.435-2.143 1.208-2.917M15 14.625c0 2.23 1.549 4.432 2.625 5.692 1.076-1.26 2.625-3.462 2.625-5.692a2.625 2.625 0 0 0-5.25 0m3.25-.935A1.125 1.125 0 1 0 17 15.56a1.125 1.125 0 0 0 1.25-1.87m-13.4.16a3.75 3.75 0 0 0-1.1 2.65V21h10.5v1.5h-12v-6a5.257 5.257 0 0 1 5.25-5.25H12v1.5H7.5a3.76 3.76 0 0 0-2.65 1.1" clip-rule="evenodd"/></svg>