<svg xmlns="http://www.w3.org/2000/svg" viewBox="0 0 24 24"><path fill-rule="evenodd" d="M11.292 9.055a4.125 4.125 0 1 1-4.584-6.86 4.125 4.125 0 0 1 4.584 6.86m-.834-5.613a2.625 2.625 0 1 0-2.916 4.366 2.625 2.625 0 0 0 2.916-4.366M4.1 13.85A3.75 3.75 0 0 0 3 16.5V21h9v1.5H1.5v-6a5.257 5.257 0 0 1 5.25-5.25h4.5a5.3 5.3 0 0 1 1.197.137l-.341 1.461a3.8 3.8 0 0 0-.856-.098h-4.5a3.76 3.76 0 0 0-2.65 1.1M17.25 12a5.25 5.25 0 1 0 5.25 5.25A5.257 5.257 0 0 0 17.25 12m0 9a3.75 3.75 0 1 1 0-7.5 3.75 3.75 0 0 1 0 7.5m-.75-6H18v1.94l1.28 1.28-1.06 1.06-1.72-1.72z" clip-rule="evenodd"/></svg>