<svg xmlns="http://www.w3.org/2000/svg" viewBox="0 0 24 24"><path d="m19.416 4.567-1.059 1.062A8.94 8.94 0 0 1 21 12a8.94 8.94 0 0 1-2.633 6.36l1.06 1.061A10.43 10.43 0 0 0 22.5 12a10.43 10.43 0 0 0-3.084-7.433"/><path fill-rule="evenodd" d="M12 7.5a4.5 4.5 0 1 0 0 9 4.5 4.5 0 0 0 0-9m0 7.5c-1.655 0-3-1.345-3-3s1.345-3 3-3 3 1.345 3 3-1.345 3-3 3" clip-rule="evenodd"/><path d="m4.576 4.576 1.06 1.06A8.94 8.94 0 0 0 3 12a8.94 8.94 0 0 0 2.636 6.364l-1.06 1.06A10.43 10.43 0 0 1 1.5 12c0-2.805 1.092-5.441 3.076-7.424M19.5 12a7.42 7.42 0 0 0-2.201-5.302L16.24 7.763A5.93 5.93 0 0 1 18 12c0 .417-.04.826-.119 1.21a6 6 0 0 1-1.639 3.028l1.056 1.064a7.47 7.47 0 0 0 2.051-3.788c.1-.487.151-.997.151-1.514"/><path d="M6.701 6.698 7.76 7.763A5.93 5.93 0 0 0 6 12a5.93 5.93 0 0 0 1.759 4.238L6.7 17.302A7.42 7.42 0 0 1 4.5 12a7.42 7.42 0 0 1 2.201-5.302"/></svg>