<svg xmlns="http://www.w3.org/2000/svg" xml:space="preserve" viewBox="0 0 32 32"><path d="M0 0h32v32H0z" style="fill:none"/><path d="M16 10a6 6 0 1 0 0 12 6 6 0 0 0 0-12m0 10c-2.206 0-4-1.794-4-4s1.794-4 4-4 4 1.794 4 4-1.794 4-4 4m9.888-13.911-1.412 1.416A11.92 11.92 0 0 1 28 16c0 3.204-1.247 6.217-3.511 8.481l1.414 1.414A13.9 13.9 0 0 0 30 16c0-3.745-1.46-7.265-4.112-9.911M7.515 7.515 6.101 6.101A13.9 13.9 0 0 0 2 16c0 3.739 1.456 7.255 4.101 9.899l1.414-1.414C5.248 22.219 4 19.205 4 16s1.248-6.219 3.515-8.485"/><path d="M26 16a9.9 9.9 0 0 0-2.935-7.069l-1.41 1.419A7.9 7.9 0 0 1 24 16c0 .556-.054 1.101-.158 1.614a8 8 0 0 1-2.186 4.036l1.408 1.42a9.96 9.96 0 0 0 2.735-5.051c.134-.65.201-1.33.201-2.019m-15.655-5.65-1.41-1.419A9.9 9.9 0 0 0 6 16a9.9 9.9 0 0 0 2.935 7.069l1.41-1.418A7.9 7.9 0 0 1 8 16c0-2.142.833-4.148 2.345-5.65"/></svg>