<svg xmlns="http://www.w3.org/2000/svg" width="24" height="24"><path fill-rule="evenodd" d="m17.25 10.319 4.177-1.994L22.5 9v9l-1.026.696-4.224-1.671v.225A2.25 2.25 0 0 1 15 19.5H3.75a2.25 2.25 0 0 1-2.25-2.25v-7.5A2.25 2.25 0 0 1 3.75 7.5h4.575A3.76 3.76 0 0 1 12 4.5h5.25zM15.75 6H12a2.255 2.255 0 0 0-2.122 1.5h5.872zm-.22 11.78a.75.75 0 0 0 .22-.53V9h-12a.75.75 0 0 0-.75.75v7.5a.75.75 0 0 0 .75.75H15a.75.75 0 0 0 .53-.22m1.72-2.368L21 16.898V10.19l-3.75 1.79zM6.75 10.5H4.5V12h2.25z" clip-rule="evenodd"/></svg>