<svg xmlns="http://www.w3.org/2000/svg" width="24" height="24"><path fill-rule="evenodd" d="M21.428 8.325 17.25 10.32V8.865l4.808-4.807L21 3l-3.75 3.75-.75.75L15 9l-9 9-1.5 1.5L3 21l1.058 1.058L6.615 19.5H15a2.257 2.257 0 0 0 2.25-2.25v-.225l4.223 1.673L22.5 18V9zM15.75 17.25A.75.75 0 0 1 15 18H8.115l7.635-7.635zm5.25-.352-3.75-1.485v-3.436L21 10.193zM3.75 18a.75.75 0 0 1-.75-.75v-7.5A.75.75 0 0 1 3.75 9h9.135l1.5-1.5H9.878A2.26 2.26 0 0 1 12 6h3.75l1.5-1.5H12a3.75 3.75 0 0 0-3.675 3H3.75A2.257 2.257 0 0 0 1.5 9.75v7.5a2.27 2.27 0 0 0 1.163 1.973L3.885 18zm3-7.5H4.5V12h2.25z" clip-rule="evenodd"/></svg>