<svg xmlns="http://www.w3.org/2000/svg" viewBox="0 0 24 24"><path fill-rule="evenodd" d="M10.5 8.25c1.24 0 2.25 1.01 2.25 2.25s-1.01 2.25-2.25 2.25-2.25-1.01-2.25-2.25 1.01-2.25 2.25-2.25m-.75 2.25a.75.75 0 1 0 1.502-.002.75.75 0 0 0-1.502.002" clip-rule="evenodd"/><path d="M12.375 16.5a1.125 1.125 0 1 0 0-2.25 1.125 1.125 0 0 0 0 2.25m4.125-4.125a1.125 1.125 0 1 1-2.25 0 1.125 1.125 0 0 1 2.25 0"/><path fill-rule="evenodd" d="M21 9.75h1.5v4.5H21v-1.5h-1.539a7.47 7.47 0 0 1-1.656 3.996l1.088 1.088 1.06-1.06 1.061 1.06-3.181 3.182-1.06-1.06 1.06-1.061-1.088-1.088a7.47 7.47 0 0 1-3.996 1.656V21h1.5v1.5h-4.5V21h1.5v-1.538a7.47 7.47 0 0 1-3.995-1.656l-1.088 1.088 1.06 1.06-1.06 1.061-3.182-3.181 1.06-1.061 1.061 1.06 1.088-1.088a7.46 7.46 0 0 1-1.655-3.995H3v1.5H1.5v-4.5H3v1.5h1.537a7.47 7.47 0 0 1 1.657-3.995L5.105 6.167l-1.06 1.06-1.06-1.06 3.182-3.183 1.06 1.061-1.06 1.061 1.087 1.088a7.47 7.47 0 0 1 3.996-1.657V3h-1.5V1.5h4.5V3h-1.5v1.537a7.47 7.47 0 0 1 3.996 1.657l1.088-1.088-1.06-1.06 1.06-1.061 3.182 3.182-1.06 1.06-1.061-1.06-1.088 1.088a7.47 7.47 0 0 1 1.656 3.995H21zM6 12c0 3.308 2.692 6 6 6s6-2.692 6-6-2.692-6-6-6-6 2.692-6 6" clip-rule="evenodd"/></svg>