<svg xmlns="http://www.w3.org/2000/svg" xml:space="preserve" viewBox="0 0 32 32"><path d="M30 19v-6h-2v2h-2.05a9.95 9.95 0 0 0-2.208-5.327l1.451-1.451 1.414 1.414 1.414-1.414-4.242-4.242-1.414 1.414 1.414 1.414-1.451 1.451A9.95 9.95 0 0 0 17 6.05V4h2V2h-6v2h2v2.05a9.96 9.96 0 0 0-5.328 2.208l-1.45-1.45 1.414-1.414-1.414-1.415-4.243 4.243 1.414 1.414 1.414-1.414 1.451 1.451A9.95 9.95 0 0 0 6.05 15H4v-2H2v6h2v-2h2.05a9.95 9.95 0 0 0 2.208 5.327l-1.451 1.451-1.414-1.414-1.414 1.414 4.242 4.242 1.414-1.414-1.414-1.414 1.451-1.451a9.96 9.96 0 0 0 5.327 2.208V28h-2v2h6v-2h-2v-2.05a9.95 9.95 0 0 0 5.327-2.208l1.451 1.451-1.414 1.414 1.414 1.414 4.242-4.242-1.414-1.414-1.414 1.414-1.451-1.451a9.96 9.96 0 0 0 2.208-5.327H28v2zm-14 5c-4.411 0-8-3.589-8-8s3.589-8 8-8 8 3.589 8 8-3.589 8-8 8"/><path d="M17 14c0-1.654-1.346-3-3-3s-3 1.346-3 3 1.346 3 3 3 3-1.346 3-3m-3 1a1.001 1.001 0 0 1 0-2 1.001 1.001 0 0 1 0 2"/><circle cx="16.5" cy="20.5" r="1.5"/><circle cx="20.5" cy="16.5" r="1.5"/></svg>