<svg xmlns="http://www.w3.org/2000/svg" viewBox="0 0 24 24"><path fill-rule="evenodd" d="M12.75 10.5c0-1.24-1.01-2.25-2.25-2.25S8.25 9.26 8.25 10.5s1.01 2.25 2.25 2.25 2.25-1.01 2.25-2.25m-2.25.75a.75.75 0 1 1 .002-1.502.75.75 0 0 1-.002 1.502" clip-rule="evenodd"/><path d="m14.784 16.686 1.053-1.068 1.016 1.003 2.052-2.052 1.06 1.06-3.105 3.105z"/><path fill-rule="evenodd" d="m21.923 12.905-.009-.003a31 31 0 0 1-2.425-.711l.005-.08q.005-.056.006-.111a7.42 7.42 0 0 0-1.694-4.745l1.089-1.088 1.06 1.06 1.06-1.06-3.18-3.182-1.061 1.06 1.06 1.061-1.088 1.089a7.4 7.4 0 0 0-3.996-1.658V3h1.5V1.5h-4.5V3h1.5v1.537a7.4 7.4 0 0 0-3.996 1.657L6.167 5.106l1.06-1.06-1.06-1.062-3.183 3.183 1.06 1.06 1.061-1.06 1.088 1.088a7.4 7.4 0 0 0-1.657 3.995H3v-1.5H1.5v4.5H3v-1.5h1.537a7.4 7.4 0 0 0 1.657 3.995l-1.089 1.088-1.06-1.06-1.06 1.06 3.18 3.182 1.061-1.06-1.06-1.061 1.088-1.088a7.4 7.4 0 0 0 3.995 1.657V21h-1.5v1.5h4.5V21h-1.5v-1.547q.279-.03.553-.08c1.466 2.576 3.662 3.069 3.8 3.096l.148.03.147-.03c.209-.042 5.103-1.11 5.103-8.835v-.592zM12 18a5.94 5.94 0 0 1-4.241-1.762A5.93 5.93 0 0 1 6 12c0-1.607.625-3.111 1.762-4.241A5.93 5.93 0 0 1 12 6a5.93 5.93 0 0 1 4.241 1.763 5.92 5.92 0 0 1 1.74 3.843 10 10 0 0 1-.396-.186l-.335-.168-.335.168c-1.646.823-4.145 1.437-4.328 1.482l-.01.003-.577.138v.591c0 1.775.265 3.184.666 4.324-.22.024-.443.042-.666.042m5.25 2.957c-.684-.22-3.544-1.454-3.74-6.744.844-.226 2.435-.69 3.74-1.29 1.305.6 2.896 1.064 3.74 1.29-.195 5.3-3.042 6.524-3.74 6.744" clip-rule="evenodd"/></svg>