<svg xmlns="http://www.w3.org/2000/svg" width="24" height="24"><path fill-rule="evenodd" d="m7.635 14.25-1.5 1.5H4.5a2.257 2.257 0 0 1-2.25-2.25v-3A2.257 2.257 0 0 1 4.5 8.25h2.798l5.452-5.52v6.405l-1.5 1.5V6.382L7.928 9.75H4.5a.75.75 0 0 0-.75.75v3a.75.75 0 0 0 .75.75zm11.85-7.62 1.448-1.448-1.058-1.057-1.567 1.567-1.096 1.095-4.462 4.463-1.5 1.5-2.4 2.4-1.057 1.057-3.668 3.668 1.058 1.058 3.66-3.66 3.907 3.96v-7.868l3.553-3.546A2.995 2.995 0 0 1 14.25 15v1.5a4.494 4.494 0 0 0 3.109-7.744l1.061-1.061A5.994 5.994 0 0 1 14.25 18v1.5a7.5 7.5 0 0 0 5.235-12.87M11.25 17.58 9.9 16.215l1.35-1.35zm5.648-12.593A7.4 7.4 0 0 0 14.25 4.5V6c.49-.002.98.059 1.455.18z" clip-rule="evenodd"/></svg>