<svg xmlns="http://www.w3.org/2000/svg" xml:space="preserve" viewBox="0 0 32 32"><path d="m10.96 19.627 8.666-8.667 1.414 1.415-8.666 8.666zM15 13c0-1.654-1.346-3-3-3s-3 1.346-3 3 1.346 3 3 3 3-1.346 3-3m-4 0a1.001 1.001 0 1 1 1 1c-.552 0-1-.449-1-1m9 3c-1.654 0-3 1.346-3 3s1.346 3 3 3 3-1.346 3-3-1.346-3-3-3m0 4a1 1 0 1 1 0-2 1 1 0 0 1 0 2"/><path d="M28.5 14H30V9c0-1.654-1.346-3-3-3H5C3.346 6 2 7.346 2 9v5h1.5C4.879 14 6 15.122 6 16.5 6 17.879 4.879 19 3.5 19H2v4c0 1.654 1.346 3 3 3h22c1.654 0 3-1.346 3-3v-4h-1.5a2.5 2.5 0 0 1-2.5-2.5c0-1.378 1.121-2.5 2.5-2.5m-.5 6.973V23a1 1 0 0 1-1 1H5a1 1 0 0 1-1-1v-2.027c2.247-.25 4-2.16 4-4.473s-1.753-4.223-4-4.472V9c0-.551.448-1 1-1h22c.552 0 1 .449 1 1v3.028c-2.247.25-4 2.16-4 4.472s1.753 4.223 4 4.473"/></svg>