<svg xmlns="http://www.w3.org/2000/svg" viewBox="0 0 24 24"><path fill-rule="evenodd" d="M10.87 8.5A2.25 2.25 0 1 1 7.13 11a2.25 2.25 0 0 1 3.742-2.5m-2.494.833a.75.75 0 1 0 1.248.834.75.75 0 0 0-1.248-.834" clip-rule="evenodd"/><path d="m8.22 14.72 6.5-6.5 1.06 1.06-6.5 6.5z"/><path fill-rule="evenodd" d="M15 12a2.25 2.25 0 1 0 0 4.5 2.25 2.25 0 0 0 0-4.5m0 3a.75.75 0 1 1 0-1.5.75.75 0 0 1 0 1.5" clip-rule="evenodd"/><path fill-rule="evenodd" d="M22.5 10.5h-1.125a1.875 1.875 0 1 0 0 3.75H22.5v3a2.25 2.25 0 0 1-2.25 2.25H3.75a2.25 2.25 0 0 1-2.25-2.25v-3h1.125a1.875 1.875 0 1 0 0-3.75H1.5V6.75A2.25 2.25 0 0 1 3.75 4.5h16.5a2.25 2.25 0 0 1 2.25 2.25zM21 17.25v-1.52a3.375 3.375 0 0 1 0-6.709V6.75a.75.75 0 0 0-.75-.75H3.75a.75.75 0 0 0-.75.75v2.271a3.375 3.375 0 0 1 0 6.709v1.52a.75.75 0 0 0 .75.75h16.5a.75.75 0 0 0 .75-.75" clip-rule="evenodd"/></svg>