<svg xmlns="http://www.w3.org/2000/svg" viewBox="0 0 24 24"><path fill-rule="evenodd" d="M13.25 5.62a2.25 2.25 0 1 1-2.5-3.74 2.25 2.25 0 0 1 2.5 3.74m-.833-2.494a.75.75 0 1 0-.834 1.247.75.75 0 0 0 .834-1.247m3.079 9.403a2.24 2.24 0 0 1-.782-.623L12.75 9.45v3.74l3.09 3.09a2.23 2.23 0 0 1 .66 1.591V21h1.497v1.5h-3v-4.629a.75.75 0 0 0-.22-.53l-2.453-2.452-.94 2.822a2.25 2.25 0 0 1-.976 1.218L7.65 20.584l.565 1.679-1.425.475-.94-2.821 3.787-2.274a.75.75 0 0 0 .327-.407l1.286-3.857V9.31l-2.03 2.03a.75.75 0 0 0-.22.53v1.63H7.5v-1.628a2.23 2.23 0 0 1 .66-1.592l2.78-2.78h2.17l2.776 3.469a.75.75 0 0 0 .585.281H18v1.5h-1.53a2.24 2.24 0 0 1-.974-.221" clip-rule="evenodd"/></svg>