<svg xmlns="http://www.w3.org/2000/svg" xml:space="preserve" viewBox="0 0 32 32"><path d="M16 8c1.654 0 3-1.346 3-3s-1.346-3-3-3-3 1.346-3 3 1.346 3 3 3m0-4a1.001 1.001 0 1 1-1 1c0-.551.448-1 1-1m3.619 11.875A2.99 2.99 0 0 0 21.961 17H24v-2h-2.039a1 1 0 0 1-.78-.375L17.48 10h-2.894l-3.707 3.707A2.98 2.98 0 0 0 10 15.829V18h2v-2.171c0-.267.104-.519.293-.708L15 12.414v5.424l-1.714 5.144a1 1 0 0 1-.436.542l-5.053 3.032 1.254 3.761 1.896-.633-.746-2.239 3.678-2.206a3 3 0 0 0 1.303-1.624l1.254-3.763 3.27 3.27a1 1 0 0 1 .294.706V30h4v-2h-2v-4.172c0-.801-.312-1.555-.879-2.121L17 17.586v-4.985z"/></svg>