<svg xmlns="http://www.w3.org/2000/svg" width="24" height="24"><path fill-rule="evenodd" d="M20.25 8.25V4.5A2.25 2.25 0 0 0 18 2.25H5.25A3.755 3.755 0 0 0 1.5 6v12.75A2.25 2.25 0 0 0 3.75 21h16.5a2.25 2.25 0 0 0 2.25-2.25V10.5a2.25 2.25 0 0 0-2.25-2.25m-15-4.5H18a.75.75 0 0 1 .75.75v3.75H5.25a2.25 2.25 0 1 1 0-4.5m15.75 15a.75.75 0 0 1-.75.75H3.75a.75.75 0 0 1-.75-.75V8.98a3.7 3.7 0 0 0 2.25.77h15a.75.75 0 0 1 .75.75zM5.25 5.25h12v1.5h-12zm13 8.44A1.125 1.125 0 1 0 17 15.56a1.125 1.125 0 0 0 1.25-1.87" clip-rule="evenodd"/></svg>