<svg xmlns="http://www.w3.org/2000/svg" viewBox="0 0 24 24"><path fill-rule="evenodd" d="M6.75 14.25c-1.24 0-2.25 1.01-2.25 2.25s1.01 2.25 2.25 2.25S9 17.74 9 16.5a2.23 2.23 0 0 0-.54-1.444l2.298-3.937-.646-.378A3.77 3.77 0 0 1 8.25 7.5 3.754 3.754 0 0 1 12 3.75a3.754 3.754 0 0 1 3.35 5.438l1.339.675A5.2 5.2 0 0 0 17.25 7.5 5.256 5.256 0 0 0 12 2.25 5.256 5.256 0 0 0 6.75 7.5c0 1.606.745 3.122 1.985 4.11L7.17 14.293a2.2 2.2 0 0 0-.42-.043m0 3a.75.75 0 1 1 0-1.5.75.75 0 0 1 0 1.5m10.5 1.5c1.24 0 2.25-1.01 2.25-2.25s-1.01-2.25-2.25-2.25c-.977 0-1.802.63-2.112 1.5H10.5v.75a3.754 3.754 0 0 1-3.75 3.75A3.754 3.754 0 0 1 3 16.5a3.75 3.75 0 0 1 3.306-3.725l-.176-1.489A5.25 5.25 0 0 0 1.5 16.5a5.257 5.257 0 0 0 5.25 5.25 5.26 5.26 0 0 0 5.197-4.5h3.192c.31.87 1.134 1.5 2.111 1.5m0-3a.75.75 0 1 1 0 1.5.75.75 0 0 1 0-1.5m-1.971-4.117A5.257 5.257 0 0 1 22.5 16.5a5.257 5.257 0 0 1-5.25 5.25 5.24 5.24 0 0 1-4.352-2.314l1.242-.84a3.75 3.75 0 1 0 1.22-5.337l-.647.379-2.294-3.93A2.2 2.2 0 0 1 12 9.75c-1.24 0-2.25-1.01-2.25-2.25S10.76 5.25 12 5.25s2.25 1.01 2.25 2.25c0 .552-.208 1.052-.54 1.444zM12 6.75a.75.75 0 1 0 .002 1.502A.75.75 0 0 0 12 6.75" clip-rule="evenodd"/></svg>