<svg xmlns="http://www.w3.org/2000/svg" viewBox="0 0 24 24"><path d="M20.955 18.098 18.66 7.748C18.435 6.72 17.633 6 16.725 6h-2.302a2.87 2.87 0 0 0 .495-1.62 2.913 2.913 0 0 0-2.91-2.91 2.913 2.913 0 0 0-2.91 2.91c0 .6.18 1.155.495 1.62h-2.49c-.938 0-1.733.742-1.95 1.8l-2.04 10.095c-.24.795-.105 1.672.36 2.317.375.518.937.818 1.522.818H19.02c.563 0 1.08-.263 1.463-.735.472-.593.652-1.41.48-2.205zM12 2.97c.78 0 1.41.63 1.41 1.41S12.78 5.79 12 5.79s-1.41-.63-1.41-1.41.63-1.41 1.41-1.41m7.305 16.388c-.06.082-.165.172-.292.172H4.995c-.135 0-.247-.113-.315-.203-.15-.202-.27-.592-.135-1.02l2.07-10.222c.075-.375.3-.593.48-.593h9.623c.165 0 .39.203.472.57l2.295 10.35c.075.338 0 .706-.18.938zm-5.032-6h1.875v1.882q-.09.099-.248.21a1.8 1.8 0 0 1-.382.203 3 3 0 0 1-1.192.217c-.308 0-.586-.053-.833-.15a1.7 1.7 0 0 1-.638-.435 1.84 1.84 0 0 1-.405-.697 2.9 2.9 0 0 1-.142-.953v-.255c0-.36.045-.675.142-.953q.147-.414.405-.704a1.7 1.7 0 0 1 .623-.436c.24-.097.502-.15.787-.15.315 0 .593.038.818.113s.412.188.57.322c.15.136.27.3.345.496.075.194.135.405.157.63H15.09a1.5 1.5 0 0 0-.075-.3.7.7 0 0 0-.142-.226.55.55 0 0 0-.233-.135 1.1 1.1 0 0 0-.33-.045.8.8 0 0 0-.36.083.8.8 0 0 0-.277.255 1.2 1.2 0 0 0-.173.428c-.037.172-.06.375-.06.607v.262q-.002.687.233 1.035c.157.233.405.345.742.345.09 0 .165 0 .233-.014q.1-.023.18-.046a.6.6 0 0 0 .225-.127v-.713h-.773v-.757zm-2.415-2.07-1.553 2.032 1.553 2.557h-1.313l-.975-1.71-.457.495v1.208H8.01v-4.59h1.103v2.025l.382-.585.99-1.44h1.373z"/></svg>