<svg xmlns="http://www.w3.org/2000/svg" viewBox="0 0 24 24"><g clip-path="url(#a)"><path d="m20.252 14.207-3.65-4.117-2.695-.771-.032-.059V1.5h-2.79l-1.74 5.22.681 2.723-.025.045-6.732 3.888 1.395 2.416 4.9-1.003-.63 7.743 1.71-.069 4.428.044-.776-8.517 4.56 2.633zM12.75 10.5a.75.75 0 1 1-1.501-.002.75.75 0 0 1 1.501.002M12.166 3h.21v5.288A2 2 0 0 0 12 8.25c-.244 0-.475.049-.697.121l-.397-1.591zM5.422 14.107l-.105-.181 4.58-2.645c.128.345.338.647.607.888l-1.178 1.14zm8.005 6.885-2.805-.027-.056.002.6-7.351.902-.873q.03-.002.057-.006l.58.335zm4.88-6.417-4.583-2.646c.23-.276.4-.601.477-.965l1.569.449 2.643 2.981z"/></g><defs><clipPath id="a"><path d="M0 0h24v24H0z"/></clipPath></defs></svg>