<svg xmlns="http://www.w3.org/2000/svg" width="24" height="24"><path fill-rule="evenodd" d="m23.303 7.089-.6-.461A17.42 17.42 0 0 0 12 3 17.42 17.42 0 0 0 1.298 6.628l-.6.461.467.596 1.852 2.363.459.584.588-.452C6.348 8.426 9.092 7.5 12 7.5s5.652.926 7.936 2.68l.588.452.459-.584 1.852-2.363zM3.75 8.552 2.824 7.37A15.93 15.93 0 0 1 12 4.5c3.323 0 6.479.99 9.176 2.87l-.927 1.182C17.825 6.88 14.99 6 12 6s-5.826.88-8.25 2.552m15.243 2.791A11.46 11.46 0 0 0 12 9c-2.559 0-4.978.81-6.994 2.343l-.608.462.473.6 1.86 2.354.45.571.585-.433A7.07 7.07 0 0 1 12 13.5c1.537 0 3 .484 4.234 1.397l.584.433.45-.57 1.86-2.356.473-.599zm-8.152.74-.098.011a8.5 8.5 0 0 0-1.197.266 9 9 0 0 0-1.048.386l-.055.027a9 9 0 0 0-.933.492l-.017.009-.016.009-.023-.029-.915-1.156A10 10 0 0 1 12 10.5c1.97 0 3.842.55 5.46 1.598l-.913 1.156-.023.029-.017-.01-.016-.008a9 9 0 0 0-.99-.52l-.075-.035a8.5 8.5 0 0 0-1.16-.404 8.5 8.5 0 0 0-1.11-.224l-.063-.007A9 9 0 0 0 12 12a9 9 0 0 0-1.158.083m-2.744 4.422.637-.457c1.914-1.371 4.617-1.371 6.529 0l.638.457L12 21.463zM12 19.037l1.697-2.156a4.2 4.2 0 0 0-3.394 0z" clip-rule="evenodd"/></svg>