<svg xmlns="http://www.w3.org/2000/svg" xml:space="preserve" viewBox="0 0 32 32"><path d="M25.325 15.124C22.637 13.08 19.412 12 16 12s-6.637 1.08-9.325 3.124l-.811.616.631.799 2.479 3.14.601.761.779-.577C11.999 18.645 13.951 18 16 18s4.001.645 5.645 1.863l.779.577.601-.761 2.479-3.14.631-.799zm-10.78.976-.22.026a11 11 0 0 0-1.596.354q-.661.194-1.295.467-.089.04-.176.083c-.426.194-.842.41-1.244.657l-.044.023-.03-.038-1.22-1.542C10.878 14.733 13.374 14 16 14s5.122.733 7.28 2.13l-1.218 1.542-.03.038c-.014-.009-.03-.014-.044-.023a12 12 0 0 0-1.244-.657l-.176-.083a11 11 0 0 0-1.547-.539q-.662-.182-1.344-.282-.11-.015-.22-.026c-.482-.061-.966-.1-1.457-.1s-.975.039-1.455.1"/><path d="m31.07 9.452-.8-.615C26.148 5.672 21.214 4 16 4S5.852 5.672 1.73 8.837l-.8.615.623.795 2.47 3.15.611.779.784-.603C8.464 11.235 12.123 10 16 10s7.536 1.235 10.582 3.573l.784.603.611-.779 2.47-3.15zM5.001 11.403 3.765 9.826C7.362 7.32 11.569 6 16 6s8.638 1.32 12.235 3.826l-1.237 1.577C23.768 9.173 19.987 8 16 8S8.232 9.173 5.001 11.403m6.646 9.994-.85.609L16 28.617l5.202-6.61-.85-.609c-2.55-1.829-6.154-1.829-8.705-.001m2.09 1.111a5.6 5.6 0 0 1 4.526 0L16 25.383z"/></svg>