<svg width="774" height="246" viewBox="0 0 774 246" fill="none" xmlns="http://www.w3.org/2000/svg">
<rect width="44" height="246" fill="#DF5751" fill-opacity="0.15"/>
<path d="M10 218C10 211.373 15.3726 206 22 206C28.6274 206 34 211.373 34 218C34 224.627 28.6274 230 22 230C15.3726 230 10 224.627 10 218Z" fill="#DC716E"/>
<path d="M19.796 222V221.116H21.694V215.006H20.186V214.317C20.94 214.187 21.486 213.979 21.941 213.706H22.76V221.116H24.476V222H19.796Z" fill="white"/>
<rect width="72" height="246" transform="translate(44)" fill="#90DF51" fill-opacity="0.15"/>
<path d="M68 218C68 211.373 73.3726 206 80 206C86.6274 206 92 211.373 92 218C92 224.627 86.6274 230 80 230C73.3726 230 68 224.627 68 218Z" fill="#6EBE94"/>
<path d="M77.289 222V221.35C79.772 218.919 81.189 217.385 81.189 216.046C81.189 215.097 80.669 214.421 79.616 214.421C78.927 214.421 78.329 214.863 77.848 215.422L77.25 214.837C77.939 214.057 78.68 213.55 79.746 213.55C81.28 213.55 82.229 214.525 82.229 215.981C82.229 217.593 80.773 219.088 78.758 221.155C79.213 221.116 79.72 221.077 80.149 221.077H82.645V222H77.289Z" fill="white"/>
<rect opacity="0.15" x="116" width="16" height="246" fill="#5168DF"/>
<path d="M112 218C112 211.373 117.373 206 124 206C130.627 206 136 211.373 136 218C136 224.627 130.627 230 124 230C117.373 230 112 224.627 112 218Z" fill="#A98ACE"/>
<path d="M123.837 222.156C122.511 222.156 121.666 221.597 121.107 220.986L121.653 220.284C122.147 220.804 122.797 221.272 123.772 221.272C124.773 221.272 125.488 220.674 125.488 219.751C125.488 218.763 124.812 218.1 122.836 218.1V217.281C124.604 217.281 125.189 216.605 125.189 215.734C125.189 214.928 124.643 214.421 123.759 214.421C123.07 214.421 122.485 214.772 121.991 215.266L121.419 214.59C122.056 213.992 122.823 213.55 123.798 213.55C125.241 213.55 126.281 214.317 126.281 215.656C126.281 216.657 125.67 217.294 124.773 217.632V217.684C125.774 217.918 126.567 218.646 126.567 219.79C126.567 221.259 125.358 222.156 123.837 222.156Z" fill="white"/>
<rect opacity="0.15" x="132" width="72" height="246" fill="#90DF51"/>
<rect opacity="0.15" x="204" width="16" height="246" fill="#5168DF"/>
<rect opacity="0.15" x="220" width="72" height="246" fill="#90DF51"/>
<rect opacity="0.15" x="292" width="16" height="246" fill="#5168DF"/>
<rect opacity="0.15" x="308" width="72" height="246" fill="#90DF51"/>
<rect opacity="0.15" x="380" width="16" height="246" fill="#5168DF"/>
<rect opacity="0.15" x="396" width="72" height="246" fill="#90DF51"/>
<rect opacity="0.15" x="468" width="16" height="246" fill="#5168DF"/>
<rect opacity="0.15" x="484" width="72" height="246" fill="#90DF51"/>
<rect opacity="0.15" x="556" width="16" height="246" fill="#5168DF"/>
<rect opacity="0.15" x="572" width="72" height="246" fill="#90DF51"/>
<rect opacity="0.15" x="644" width="16" height="246" fill="#5168DF"/>
<rect opacity="0.15" x="660" width="72" height="246" fill="#90DF51"/>
<rect opacity="0.15" x="732" width="42" height="246" fill="#DF5751"/>
</svg>
