<svg xmlns="http://www.w3.org/2000/svg" xml:space="preserve" viewBox="0 0 32 32"><path d="M25.899 6.1C23.166 3.367 19.583 2 16 2S8.834 3.367 6.101 6.1c-5.467 5.467-5.467 14.332 0 19.799C8.834 28.633 12.417 30 16 30s7.166-1.367 9.899-4.101c5.468-5.467 5.468-14.331 0-19.799M28 16c0 2.869-1.007 5.58-2.842 7.744l-3.557-3.557A6.95 6.95 0 0 0 23 16a6.95 6.95 0 0 0-1.399-4.187l3.557-3.557A11.9 11.9 0 0 1 28 16m-17 0c0-1.335.521-2.591 1.465-3.536S14.665 11 16 11s2.591.52 3.535 1.464S21 14.665 21 16s-.521 2.591-1.465 3.535S17.335 21 16 21s-2.591-.521-3.535-1.465S11 17.335 11 16m12.744-9.158-3.557 3.557C18.984 9.496 17.532 9 16 9s-2.984.496-4.187 1.399L8.256 6.842C10.42 5.007 13.131 4 16 4s5.58 1.007 7.744 2.842M6.842 8.256l3.557 3.557A6.95 6.95 0 0 0 9 16c0 1.532.496 2.984 1.399 4.187l-3.557 3.557C5.007 21.58 4 18.869 4 16s1.007-5.58 2.842-7.744m1.414 16.902 3.557-3.557A6.94 6.94 0 0 0 16 23a6.94 6.94 0 0 0 4.186-1.399l3.557 3.557C21.58 26.993 18.869 28 16 28s-5.58-1.007-7.744-2.842"/></svg>