<svg clip-rule="evenodd" fill-rule="evenodd" stroke-linejoin="round" stroke-miterlimit="2" version="1.1" viewBox="0 0 343 459" xmlns="http://www.w3.org/2000/svg"><g fill-rule="nonzero"><path transform="translate(-187.2 -129.37)" d="m488.25 279.64c0 119.9-23.44 149.73-130.01 149.73-106.58 0-129.49-29.84-129.49-149.73 0-120.43 22.91-150.27 129.49-150.27 106.56 0 130.01 29.84 130.01 150.27m-195.02 0c0 75.13 7.99 93.79 65.01 93.79 57.01 0 65-18.66 65-93.79 0-75.66-8-94.31-65-94.31-57.02 0-65.01 18.65-65.01 94.31" fill="#32b8c6"/><path transform="translate(-187.2 -129.37)" d="M487.49 311.47c.49-9.87.76-20.36.76-31.83 0-120.43-23.44-150.27-130.02-150.27-1.11 0-22.59 0-38.61 1.84-11.26 17.04-18.64 73.83-23.05 94.32 1-6.19 4.3-15.26 6.57-19.41 4.98-9.12 11.74-13.44 20.01-16.4 13.95-4.99 29.63-4.4 35.09-4.4 57.02 0 65.01 18.65 65.01 94.31" fill="url(#a)"/><path transform="translate(-187.2 -129.37)" d="M325.16 507.09c0 10.87-2.24 13.58-12.16 13.58s-12.15-2.72-12.15-13.58 2.29-13.58 12.15-13.58 12.16 2.67 12.16 13.58m-17.21 0c0 6 .71 7.48 5.05 7.48s5.1-1.48 5.1-7.48-.71-7.48-5.1-7.48-5.05 1.48-5.05 7.48m46.66-2.15v14.73c0 .53-.29.76-.76.76h-5.63c-.48 0-.71-.24-.71-.76v-12.92c0-6.82-.71-7.15-5.1-7.15h-4.34v20.06c0 .53-.24.76-.71.76h-5.67c-.48 0-.71-.24-.71-.76v-24.64c0-.57.24-.62.71-.71 3.19-.72 7.82-.81 11.39-.81 9.15 0 11.54 1.71 11.54 11.44zm29.68-11.2c.48 0 .71.24.71.71v25.41c-.05 7.15-1.43 10.44-11.68 10.44-3.43 0-6.24-.19-8.96-.67-.43-.05-.67-.24-.67-.76v-3.62c0-.53.19-.71.67-.71h8.34c4.2 0 5.2-.95 5.2-4.1v-.29c-2.05.38-3.81.53-5.82.53-8.68 0-11.25-3.34-11.25-12.3v-13.92c0-.48.24-.71.71-.71h5.67c.48 0 .71.24.71.71v12.58c0 6.15.9 7.48 5.72 7.48 1.19 0 2.91-.05 4.24-.29v-19.78c0-.48.24-.71.71-.71zm30.49 0c.57 0 .71.38.33.86l-8.2 11.87 9.06 13.06c.34.48.19.91-.38.91h-6.86c-.33 0-.57-.19-.76-.48l-5.38-8.01-5.44 8.01c-.14.29-.38.48-.76.48h-6.82c-.57 0-.71-.43-.38-.91l9.06-13.06-8.24-11.87c-.38-.48-.19-.86.38-.86h6.82c.38 0 .62.14.86.43l4.53 6.77 4.53-6.77c.19-.29.48-.43.86-.43h6.82zm-206.5 48.51c.48 0 .71.24.71.71v33.99c0 .53-.29.72-.76.76-4.2.67-6.34.81-9.92.81-9.25 0-11.11-2.62-11.11-13.21s1.86-13.35 10.87-13.35c2.72 0 4.91.14 6.34.34v-9.34c0-.48.24-.71.71-.71zm-9.92 13.73c-5.91 0-6.58 1.81-6.58 9.29s.62 9.25 6.53 9.25c1.86 0 4.19-.14 6.1-.38v-18.16zm38.83 8.58v1.38c0 .95-.24 1.34-1.72 1.34h-15.16c.14 5.82 1.24 7.24 6.34 7.24h7.82c.48 0 .71.24.71.71v2.1c0 .43-.24.71-.67.76-2.43.33-5.05.43-7.96.43-8.96 0-10.87-2.62-10.87-13.25s1.9-13.3 10.87-13.3 10.53 2.53 10.63 12.58zm-16.92-1h12.35c-.1-6.05-1.1-7.58-6.05-7.58s-6.2 1.53-6.29 7.58zm39.21-11.16c.43.05.67.34.67.76v2.05c0 .48-.24.71-.71.71h-8.87c-2.19 0-3.48.76-3.48 2.48v.62c0 1.34.62 2.48 2.95 3.34l6.34 2.53c4.38 1.67 4.77 4.1 4.77 6.72v.53c0 5.34-3.19 6.39-9.63 6.39-4.15 0-7.91-.34-8.72-.43-.57-.05-.71-.34-.71-.72v-2.1c0-.48.24-.71.71-.71h8.82c3.81 0 5.01-.43 5.01-2.48v-.57c0-1.38-.57-2.29-2.76-3.19l-6.77-2.57c-3.67-1.43-4.58-4.2-4.58-6.82v-1c0-5.24 4.58-5.96 9.68-5.96 2.1 0 4.53.1 7.29.43zm12.96-7.82c0 1.81-.95 2.81-2.81 2.81s-2.81-1-2.81-2.81 1-2.76 2.81-2.76 2.81.95 2.81 2.76m-1.24 7.63c.48 0 .71.24.71.71v24.64c0 .48-.24.71-.71.71h-3.15c-.48 0-.71-.24-.71-.71v-24.64c0-.48.24-.71.71-.71zm28.45.57c.48.05.76.29.76.81v22.31c-.05 9.34-1.86 12.06-11.01 12.06-1.86 0-4.43-.1-6.91-.43-.43-.05-.62-.34-.62-.76v-2.05c0-.48.19-.71.66-.71h6.77c5.34 0 6.53-1.29 6.53-5.58v-.29c-2.05.33-3.91.38-6.29.38-9.01 0-10.92-2.67-10.92-13.35s1.95-13.2 11.16-13.2c4.53 0 7.82.38 9.87.81m-9.92 3.19c-5.86 0-6.53 1.86-6.53 9.25s.71 9.29 6.63 9.29c1.86 0 4.1-.1 6-.34v-18.21h-6.1zm39.79 7.16v14.44c0 .48-.34.71-.81.71h-3.05c-.48 0-.71-.24-.71-.71v-14.06c0-7.29-1.43-7.53-6.01-7.53h-6.53v21.59c0 .48-.24.71-.71.71h-3.15c-.48 0-.71-.24-.71-.71V553.5c0-.62.24-.67.71-.76 3.72-.71 7.63-.76 9.92-.76 8.53 0 11.06 1.05 11.06 11.16zm35.15-10.73c.43.05.66.34.66.76v2.05c0 .48-.24.71-.71.71h-8.87c-2.19 0-3.48.76-3.48 2.48v.62c0 1.34.62 2.48 2.96 3.34l6.34 2.53c4.39 1.67 4.77 4.1 4.77 6.72v.53c0 5.34-3.19 6.39-9.63 6.39-4.15 0-7.91-.34-8.72-.43-.57-.05-.71-.34-.71-.72v-2.1c0-.48.24-.71.71-.71h8.82c3.81 0 5-.43 5-2.48v-.57c0-1.38-.57-2.29-2.76-3.19l-6.77-2.57c-3.67-1.43-4.58-4.2-4.58-6.82v-1c0-5.24 4.58-5.96 9.68-5.96 2.1 0 4.53.1 7.29.43zm28.69-.19c.48 0 .71.24.71.71v22.98c-.05 9.34-1.86 12.06-11.01 12.06-2.95 0-4.72-.1-7.19-.43-.43-.05-.67-.34-.67-.76v-2.05c0-.48.24-.71.71-.71h7.05c5.34 0 6.53-1.29 6.53-5.58v-.29c-2.05.33-3.91.38-6.29.38-9.01 0-10.91-2.72-10.91-13.01v-12.58c0-.48.24-.71.71-.71h3.1c.48 0 .71.24.71.71v12.3c0 7.43.76 9.29 6.68 9.29 1.86 0 4.1-.1 6-.34v-21.26c0-.48.24-.71.71-.71zm24.34.19c.43.05.66.34.66.76v2.05c0 .48-.24.71-.71.71h-8.87c-2.19 0-3.48.76-3.48 2.48v.62c0 1.34.62 2.48 2.96 3.34l6.34 2.53c4.39 1.67 4.77 4.1 4.77 6.72v.53c0 5.34-3.19 6.39-9.63 6.39-4.15 0-7.91-.34-8.72-.43-.57-.05-.71-.34-.71-.72v-2.1c0-.48.24-.71.71-.71h8.82c3.81 0 5-.43 5-2.48v-.57c0-1.38-.57-2.29-2.76-3.19l-6.77-2.57c-3.67-1.43-4.58-4.2-4.58-6.82v-1c0-5.24 4.58-5.96 9.68-5.96 2.1 0 4.53.1 7.29.43zm12.9-7.39c.53-.14.81.1.81.62v6.62h5c.53 0 .76.24.76.71v2.24c0 .48-.24.71-.76.71h-5v16.01c0 2.1.57 2.58 3.1 2.58h2.29c.53 0 .76.19.76.67v2.29c0 .43-.24.67-.72.76-.95.24-2.24.29-2.67.29-3.43 0-7.34-.05-7.34-5.43v-17.16h-2.67c-.48 0-.71-.24-.71-.71v-2.24c0-.48.24-.71.71-.71h2.67v-5.72c0-.48.19-.67.62-.76l3.14-.76zm32.88 19.55v1.38c0 .95-.24 1.34-1.72 1.34H446.6c.14 5.82 1.24 7.24 6.34 7.24h7.82c.48 0 .71.24.71.71v2.1c0 .43-.24.71-.67.76-2.43.33-5.05.43-7.96.43-8.96 0-10.87-2.62-10.87-13.25s1.9-13.3 10.87-13.3 10.53 2.53 10.63 12.58zm-16.92-1h12.35c-.1-6.05-1.1-7.58-6.05-7.58s-6.2 1.53-6.29 7.58zm58.18-.63-.1 14.63c0 .48-.24.71-.71.71h-3.05c-.48 0-.71-.24-.71-.71V563.5c0-7.29-1.43-7.58-5.91-7.58-1.95 0-4 .14-5.58.43.57 1.62.76 3.72.76 6.77l-.1 14.44c0 .57-.19.71-.62.71h-3.14c-.48 0-.71-.24-.71-.71v-14.35c0-7.01-1.43-7.24-5.91-7.24h-4.77v21.59c0 .48-.24.71-.72.71h-3.14c-.48 0-.71-.24-.71-.71v-24.07c0-.57.24-.67.71-.76 2.48-.48 5.77-.76 7.96-.76 3 0 6.15.62 7.91 1.43 2.43-.86 5.48-1.48 7.68-1.48 8.24 0 10.87 1.14 10.87 11.01zm23.38-10.53c.43.05.66.34.66.76v2.05c0 .48-.24.71-.71.71h-8.87c-2.19 0-3.48.76-3.48 2.48v.62c0 1.34.62 2.48 2.96 3.34l6.34 2.53c4.39 1.67 4.77 4.1 4.77 6.72v.53c0 5.34-3.19 6.39-9.63 6.39-4.15 0-7.91-.34-8.72-.43-.57-.05-.71-.34-.71-.72v-2.1c0-.48.24-.71.71-.71h8.82c3.81 0 5-.43 5-2.48v-.57c0-1.38-.57-2.29-2.76-3.19l-6.77-2.57c-3.67-1.43-4.58-4.2-4.58-6.82v-1c0-5.24 4.58-5.96 9.68-5.96 2.1 0 4.53.1 7.29.43z" fill="#fff"/></g><defs><linearGradient id="a" x2="1" gradientTransform="rotate(45 .723 451.15)scale(246.16)" gradientUnits="userSpaceOnUse"><stop stop-color="#018da0" offset="0"/><stop stop-color="#018da0" offset=".14"/><stop stop-color="#32b8c6" offset=".77"/><stop stop-color="#32b8c6" offset="1"/></linearGradient></defs></svg>
