<svg xmlns="http://www.w3.org/2000/svg" xmlns:xlink="http://www.w3.org/1999/xlink" viewBox="0 0 224 72"><defs><linearGradient id="a" x1="22.17" x2="49.33" y1="21.03" y2="30.92" gradientUnits="userSpaceOnUse"><stop offset=".14" stop-color="#018da0"/><stop offset=".77" stop-color="#00adba"/></linearGradient><linearGradient xlink:href="#a" id="b" x1="7751.91" x2="7779.01" y1="3618.29" y2="3628.15" gradientTransform="rotate(-180 3894.79 1833.3)"/></defs><path d="M109.52 34.66c0 13.28-2.32 16.55-13.81 16.55s-13.87-3.27-13.87-16.55 2.38-16.61 13.87-16.61 13.81 3.33 13.81 16.61m-21.96 0c0 9.23.89 11.55 8.16 11.55s8.09-2.32 8.09-11.55-.89-11.61-8.09-11.61-8.16 2.32-8.16 11.61m57.09-2.67v18.04c0 .6-.42.89-1.01.89h-3.81c-.6 0-.89-.3-.89-.89V32.47c0-9.11-1.79-9.4-7.5-9.4h-8.16v26.97c0 .6-.3.89-.89.89h-3.93c-.6 0-.89-.3-.89-.89V19.98c0-.77.3-.83.89-.95 4.64-.89 9.52-.95 12.38-.95 10.65 0 13.81 1.31 13.81 13.93Zm34.88-13.64c.6 0 .89.3.89.89v28.69c-.06 11.67-2.32 15.06-13.75 15.06-3.69 0-5.89-.12-8.99-.54-.54-.06-.83-.42-.83-.95v-2.56c0-.6.3-.89.89-.89h8.81c6.67 0 8.16-1.61 8.16-6.96v-.36c-2.56.42-4.88.48-7.86.48-11.25 0-13.63-3.39-13.63-16.25V19.25c0-.6.3-.89.89-.89h3.87c.6 0 .89.3.89.89v15.36c0 9.28.95 11.61 8.33 11.61 2.32 0 5.12-.12 7.5-.42V19.25c0-.6.3-.89.89-.89h3.93Zm34.77 0c.71 0 .89.48.48 1.07l-10.24 14.23 11.55 16.19c.36.6.18 1.07-.48 1.07h-4.88c-.36 0-.71-.18-.89-.54l-8.63-12.2-8.69 12.2c-.18.36-.48.54-.89.54h-4.82c-.71 0-.89-.48-.54-1.07l11.55-16.19-10.18-14.23c-.48-.6-.3-1.07.42-1.07h4.88c.42 0 .71.18.95.54l7.32 10.24 7.26-10.24c.24-.36.6-.54 1.01-.54zM49.23 31.31c-1.38-7.8-3.07-13.63-6.86-16.77-3.38-2.79-8.11-3.34-16.32-1.89-15.27 2.69-18.42 7.92-15.33 25.44 2.5 14.19 6.11 19.38 15.56 19.38 2.18 0 4.67-.28 7.53-.78 15.32-2.7 18.49-7.92 15.41-25.38Zm-26.55-2.55c0-.11.02-.27.03-.4.65-4.73 2.52-5.25 7.22-5.25 6.29 0 7.52.93 7.52 11.59 0 3-.11 5.21-.39 6.85s0 .08 0 .11c-.73 4.07-2.64 4.56-7.11 4.56-6.29 0-7.52-.92-7.52-11.52 0-2.47.07-4.4.25-5.94h.01Z" style="fill:#00adba;stroke-width:0"/><path d="M49.19 31.3c-1.37-7.78-3.06-13.61-6.84-16.73-3.37-2.79-8.1-3.36-16.28-1.91l-.91.16-2.26 14.52c.78-3.78 2.7-4.23 7.04-4.23 6.27 0 7.5.93 7.5 11.57 0 2.66-.08 4.69-.3 6.26z" style="fill:url(#a);stroke-width:0"/><path d="M10.73 38.02c1.37 7.78 2.98 13.63 6.77 16.75 3.37 2.79 8.1 3.36 16.28 1.91l.91-.16L36.95 42c-.78 3.78-2.7 4.23-7.04 4.23-6.27 0-7.5-.93-7.5-11.57 0-2.66.08-4.69.3-6.26z" style="fill:url(#b);stroke-width:0"/></svg>