<?xml version="1.0" encoding="UTF-8"?><svg id="b" xmlns="http://www.w3.org/2000/svg" xmlns:xlink="http://www.w3.org/1999/xlink" viewBox="0 0 224 72"><defs><linearGradient id="c" x1="20.84" y1="18.59" x2="49.28" y2="28.94" gradientUnits="userSpaceOnUse"><stop offset=".14" stop-color="#018da0"/><stop offset=".77" stop-color="#00adba"/></linearGradient><linearGradient id="d" x1="7208.51" y1="3619.44" x2="7236.89" y2="3629.77" gradientTransform="translate(7245.58 3666.6) rotate(-180)" xlink:href="#c"/></defs><path d="M109.52,34.66c0,13.28-2.32,16.55-13.81,16.55s-13.87-3.27-13.87-16.55,2.38-16.61,13.87-16.61,13.81,3.33,13.81,16.61ZM87.56,34.66c0,9.23.89,11.55,8.16,11.55s8.09-2.32,8.09-11.55-.89-11.61-8.09-11.61-8.16,2.32-8.16,11.61Z" style="fill:#fff; stroke-width:0px;"/><path d="M144.65,31.99v18.04c0,.6-.42.89-1.01.89h-3.81c-.6,0-.89-.3-.89-.89v-17.56c0-9.11-1.79-9.4-7.5-9.4h-8.16v26.97c0,.6-.3.89-.89.89h-3.93c-.6,0-.89-.3-.89-.89v-30.06c0-.77.3-.83.89-.95,4.64-.89,9.52-.95,12.38-.95,10.65,0,13.81,1.31,13.81,13.93Z" style="fill:#fff; stroke-width:0px;"/><path d="M179.53,18.35c.6,0,.89.3.89.89v28.69c-.06,11.67-2.32,15.06-13.75,15.06-3.69,0-5.89-.12-8.99-.54-.54-.06-.83-.42-.83-.95v-2.56c0-.6.3-.89.89-.89h8.81c6.67,0,8.16-1.61,8.16-6.96v-.36c-2.56.42-4.88.48-7.86.48-11.25,0-13.63-3.39-13.63-16.25v-15.71c0-.6.3-.89.89-.89h3.87c.6,0,.89.3.89.89v15.36c0,9.28.95,11.61,8.33,11.61,2.32,0,5.12-.12,7.5-.42v-26.55c0-.6.3-.89.89-.89h3.93Z" style="fill:#fff; stroke-width:0px;"/><path d="M214.3,18.35c.71,0,.89.48.48,1.07l-10.24,14.23,11.55,16.19c.36.6.18,1.07-.48,1.07h-4.88c-.36,0-.71-.18-.89-.54l-8.63-12.2-8.69,12.2c-.18.36-.48.54-.89.54h-4.82c-.71,0-.89-.48-.54-1.07l11.55-16.19-10.18-14.23c-.48-.6-.3-1.07.42-1.07h4.88c.42,0,.71.18.95.54l7.32,10.24,7.26-10.24c.24-.36.6-.54,1.01-.54h4.82Z" style="fill:#fff; stroke-width:0px;"/><path d="M49.18,29.35c-1.44-8.17-3.21-14.28-7.18-17.56-3.54-2.93-8.5-3.5-17.09-1.98-15.99,2.82-19.29,8.3-16.05,26.65,2.62,14.87,6.4,20.29,16.3,20.29,2.28,0,4.89-.29,7.89-.82,16.05-2.83,19.36-8.3,16.14-26.58ZM21.37,26.68c0-.12.02-.28.03-.42.68-4.95,2.64-5.5,7.57-5.5,6.58,0,7.88.97,7.88,12.14,0,3.14-.11,5.45-.41,7.18h-.01s0,.08,0,.11c-.77,4.27-2.77,4.78-7.45,4.78-6.58,0-7.88-.97-7.88-12.06,0-2.59.07-4.61.26-6.22h.02Z" style="fill:#00adba; stroke-width:0px;"/><path d="M49.13,29.34c-1.44-8.15-3.2-14.25-7.17-17.52-3.53-2.92-8.48-3.51-17.05-2-.18.03-.78.14-.95.17l-2.37,15.21c.81-3.96,2.83-4.43,7.37-4.43,6.57,0,7.86.97,7.86,12.11,0,2.78-.09,4.91-.31,6.55l12.62-10.1Z" style="fill:url(#c); stroke-width:0px;"/><path d="M8.86,36.38c1.44,8.15,3.13,14.27,7.09,17.54,3.53,2.92,8.48,3.51,17.05,2,.18-.03.78-.14.95-.17l2.37-15.21c-.81,3.96-2.83,4.43-7.37,4.43-6.57,0-7.86-.97-7.86-12.11,0-2.78.09-4.91.31-6.55l-12.54,10.08Z" style="fill:url(#d); stroke-width:0px;"/></svg>