<?xml version="1.0" encoding="UTF-8" standalone="no"?>
<!DOCTYPE svg PUBLIC "-//W3C//DTD SVG 1.1//EN" "http://www.w3.org/Graphics/SVG/1.1/DTD/svg11.dtd">
<svg width="100%" height="100%" viewBox="0 0 244 57" version="1.1" xmlns="http://www.w3.org/2000/svg" xmlns:xlink="http://www.w3.org/1999/xlink" xml:space="preserve" style="fill-rule:evenodd;clip-rule:evenodd;stroke-linejoin:round;stroke-miterlimit:2;">
    <g id="Logos">
        <g>
            <rect x="9.9" y="9.9" width="36.9" height="36.9" style="fill:rgb(0,80,170);fill-rule:nonzero;"/>
            <path d="M28.3,10.9C18.7,10.9 10.9,18.7 10.9,28.4C10.9,38 18.7,45.8 28.3,45.8C37.9,45.8 45.7,38 45.7,28.4C45.8,18.7 38,10.9 28.3,10.9Z" style="fill:rgb(230,10,20);fill-rule:nonzero;"/>
            <path d="M28.3,12C19.3,12 12,19.3 12,28.3C12,37.3 19.3,44.6 28.3,44.6C37.3,44.6 44.6,37.3 44.6,28.3C44.7,19.3 37.4,12 28.3,12Z" style="fill:rgb(255,240,0);fill-rule:nonzero;"/>
            <path d="M35.5,25.3L35.5,26.4L36.4,26.4L36.4,30.3L35.5,30.3L35.5,31.4L42.8,31.4L42.8,28.4L39.8,30L39.8,26.4L40.7,26.4L40.7,25.3L35.5,25.3Z" style="fill:rgb(0,80,170);fill-rule:nonzero;"/>
            <path d="M32,29.5L31.8,29.5L31.8,27.2L32,27.2C33,27.2 33,29.5 32,29.5ZM32.7,25.3L27.8,25.3L27.8,26.4L28.7,26.4L28.7,30.3L27.8,30.3L27.8,31.4L32.7,31.4C36.3,31.4 36.3,25.3 32.7,25.3Z" style="fill:rgb(0,80,170);fill-rule:nonzero;"/>
            <path d="M27.3,28.8L24.4,25.9L21.1,29.3L21.1,30.4L22,29.5L24.3,31.9L23.4,32.7L24,33.3L28.6,28.6L28.6,27.5L27.3,28.8Z" style="fill:rgb(230,10,20);fill-rule:nonzero;"/>
            <path d="M24,21.9C25,21.9 25.8,22.7 25.8,23.7C25.8,24.7 25,25.5 24,25.5C23,25.5 22.2,24.7 22.2,23.7C22.2,22.7 23,21.9 24,21.9Z" style="fill:rgb(230,10,20);fill-rule:nonzero;"/>
            <path d="M13.9,25.3L19,25.3L19,26.4L18.1,26.4L18.1,30L21.1,28.4L21.1,31.4L13.9,31.4L13.9,30.3L14.7,30.3L14.7,26.4L13.9,26.4L13.9,25.3Z" style="fill:rgb(0,80,170);fill-rule:nonzero;"/>
        </g>
        <g>
            <g transform="matrix(0.151354,0,0,0.650794,56.7,9.9)">
                <rect x="0" y="0" width="243.8" height="56.7" style="fill:white;"/>
            </g>
            <path d="M92,45.3L58.2,45.3L58.2,11.4L92,11.4L92,45.3ZM56.7,9.9L56.7,46.8L93.6,46.8L93.6,9.9L56.7,9.9Z" style="fill:rgb(227,0,15);fill-rule:nonzero;"/>
            <rect x="68.3" y="24.4" width="6.7" height="6.7" style="fill:rgb(227,0,15);fill-rule:nonzero;"/>
            <path d="M76,24.4L76,31.1L82.8,31.1L76,24.4Z" style="fill:rgb(227,0,15);fill-rule:nonzero;"/>
            <rect x="68.3" y="16.6" width="6.7" height="6.8" style="fill:rgb(227,0,15);fill-rule:nonzero;"/>
            <path d="M76,16.6L76,23.4L82.8,16.6L76,16.6Z" style="fill:rgb(227,0,15);fill-rule:nonzero;"/>
            <path d="M65.1,35.1L63.9,35.1L62.3,37.3L62.3,35.1L61.2,35.1L61.2,40L62.3,40L62.3,37.8L63.9,40L65.2,40L63.3,37.5L65.1,35.1Z" style="fill:rgb(227,0,15);fill-rule:nonzero;"/>
            <path d="M71.5,38.9C71.4,39.1 71.2,39.3 70.8,39.3C70.4,39.3 70.2,39 70.2,38.6L70.2,36.8L69.2,36.8L69.2,38.8C69.2,39.6 69.6,40.1 70.5,40.1C71,40.1 71.4,39.8 71.5,39.6L71.5,40L72.4,40L72.4,36.7L71.5,36.7L71.5,38.9Z" style="fill:rgb(227,0,15);fill-rule:nonzero;"/>
            <path d="M80.1,39C80,39.1 79.7,39.3 79.4,39.3C78.9,39.3 78.5,38.9 78.5,38.4C78.5,37.9 78.9,37.5 79.4,37.5C79.7,37.5 80,37.7 80.1,37.8L80.1,39ZM80.1,37.1C79.9,36.9 79.6,36.7 79.1,36.7C78.2,36.7 77.6,37.5 77.6,38.4C77.6,39.3 78.2,40.1 79.1,40.1C79.6,40.1 79.9,39.9 80.1,39.7L80.1,40L81,40L81,36.7L80.1,36.7L80.1,37.1Z" style="fill:rgb(227,0,15);fill-rule:nonzero;"/>
            <path d="M67.6,39C67.5,39.1 67.2,39.3 66.9,39.3C66.4,39.3 66,38.9 66,38.4C66,37.9 66.4,37.5 66.9,37.5C67.2,37.5 67.5,37.7 67.6,37.8L67.6,39ZM67.6,37.1C67.4,36.9 67.1,36.7 66.6,36.7C65.7,36.7 65.1,37.5 65.1,38.4C65.1,39.3 65.7,40.1 66.6,40.1C67.1,40.1 67.4,39.9 67.6,39.7L67.6,40L68.5,40L68.5,36.7L67.6,36.7L67.6,37.1Z" style="fill:rgb(227,0,15);fill-rule:nonzero;"/>
            <path d="M88.1,38.9C88,39.1 87.7,39.2 87.4,39.2C86.9,39.2 86.5,38.8 86.5,38.3C86.5,37.8 86.9,37.4 87.4,37.4C87.8,37.4 88,37.6 88.1,37.7L88.1,38.9ZM88.1,35.1L88.1,37.1C87.9,36.9 87.6,36.7 87.1,36.7C86.2,36.7 85.6,37.5 85.6,38.4C85.6,39.3 86.2,40.1 87.1,40.1C87.6,40.1 88,39.8 88.1,39.7L88.1,40L89,40L89,35.1L88.1,35.1Z" style="fill:rgb(227,0,15);fill-rule:nonzero;"/>
            <path d="M83.8,36.7C83.3,36.7 82.9,37 82.8,37.2L82.8,36.8L81.9,36.8L81.9,40L82.8,40L82.8,37.9C82.9,37.7 83.1,37.5 83.5,37.5C83.9,37.5 84.1,37.8 84.1,38.2L84.1,40L85.1,40L85.1,38C85,37.2 84.6,36.7 83.8,36.7Z" style="fill:rgb(227,0,15);fill-rule:nonzero;"/>
            <path d="M74.9,35.8C75.2,35.8 75.4,35.9 75.4,35.9L75.6,35.2C75.6,35.2 75.3,35 74.7,35C73.9,35 73.4,35.5 73.4,36.3L73.4,36.7L72.9,36.7L72.9,37.5L73.4,37.5L73.4,40L74.4,40L74.4,37.5L75.5,37.5L75.5,36.7L74.4,36.7L74.4,36.4C74.4,36 74.6,35.8 74.9,35.8Z" style="fill:rgb(227,0,15);fill-rule:nonzero;"/>
            <rect x="76" y="35.1" width="1" height="4.9" style="fill:rgb(227,0,15);fill-rule:nonzero;"/>
        </g>
        <g>
            <rect x="150.2" y="9.9" width="36.9" height="36.9" style="fill:rgb(0,61,74);"/>
            <path d="M173.3,23C171.4,23 169.8,24.6 169.8,26.5L169.8,28.1C169.8,28.3 170,28.5 170.2,28.5C170.4,28.5 170.6,28.3 170.6,28.1L170.6,26.5C170.6,25 171.8,23.8 173.3,23.8L181.5,23.8L181.5,30.2C181.5,31.7 180.3,32.9 178.8,32.9L176,32.9C175.8,32.9 175.6,33.1 175.6,33.3C175.6,33.5 175.8,33.7 176,33.7L178.7,33.7C180.6,33.7 182.2,32.1 182.2,30.2L182.2,23L173.3,23Z" style="fill:rgb(165,200,20);fill-rule:nonzero;"/>
            <path d="M173.4,29.6L170.9,29.6C170.2,29.6 169.7,30.1 169.7,30.8L169.7,32.5C169.7,33.2 170.2,33.7 170.9,33.7L173.4,33.7C174.1,33.7 174.6,33.2 174.6,32.5L174.6,30.8C174.6,30.2 174.1,29.6 173.4,29.6M173.8,32.5C173.8,32.7 173.6,32.9 173.4,32.9L170.9,32.9C170.7,32.9 170.5,32.7 170.5,32.5L170.5,30.8C170.5,30.6 170.7,30.4 170.9,30.4L173.4,30.4C173.6,30.4 173.8,30.6 173.8,30.8L173.8,32.5ZM169.2,30C169.2,30.2 169,30.4 168.8,30.4L167.4,30.4C167.2,30.4 167,30.6 167,30.8L167,33.3C167,33.5 166.8,33.7 166.6,33.7C166.4,33.7 166.2,33.5 166.2,33.3L166.2,30.8C166.2,30.1 166.7,29.6 167.4,29.6L168.8,29.6C169,29.6 169.2,29.8 169.2,30M164.2,29.6L161.8,29.6C161.1,29.6 160.6,30.1 160.6,30.8L160.6,32.5C160.6,33.2 161.1,33.7 161.8,33.7L164.2,33.7C164.4,33.7 164.6,33.5 164.6,33.3C164.6,33.1 164.4,32.9 164.2,32.9L161.8,32.9C161.6,32.9 161.4,32.7 161.4,32.5L161.4,32L164.2,32C164.9,32 165.4,31.5 165.4,30.8C165.3,30.2 164.8,29.6 164.2,29.6M164.2,31.2L161.4,31.2L161.4,30.8C161.4,30.6 161.6,30.4 161.8,30.4L164.2,30.4C164.4,30.4 164.6,30.6 164.6,30.8C164.5,31 164.4,31.2 164.2,31.2M159.8,33.3C159.8,33.5 159.6,33.7 159.4,33.7L155.4,33.7C155.2,33.7 155.1,33.6 155,33.4C154.9,33.2 155,33.1 155.1,33L158.2,30.5L155.3,30.5C155.1,30.5 154.9,30.3 154.9,30.1C154.9,29.9 155.1,29.7 155.3,29.7L159.3,29.7C159.5,29.7 159.6,29.8 159.7,30C159.8,30.2 159.7,30.3 159.6,30.4L156.4,32.9L159.4,32.9C159.7,32.9 159.8,33.1 159.8,33.3M168,23L165.6,23C164.9,23 164.4,23.5 164.4,24.2L164.4,25.9C164.4,26.6 164.9,27.1 165.6,27.1L168,27.1C168.2,27.1 168.4,26.9 168.4,26.7C168.4,26.5 168.2,26.3 168,26.3L165.6,26.3C165.4,26.3 165.2,26.1 165.2,25.9L165.2,25.4L168,25.4C168.7,25.4 169.2,24.9 169.2,24.2C169.2,23.5 168.6,23 168,23M168,24.6L165.2,24.6L165.2,24.2C165.2,24 165.4,23.8 165.6,23.8L168,23.8C168.2,23.8 168.4,24 168.4,24.2C168.4,24.4 168.2,24.6 168,24.6M163.8,23.4C163.8,23.6 163.6,23.8 163.4,23.8L162,23.8C161.8,23.8 161.6,24 161.6,24.2L161.6,26.7C161.6,26.9 161.4,27.1 161.2,27.1C161,27.1 160.8,26.9 160.8,26.7L160.8,24.2C160.8,23.5 161.3,23 162,23L163.4,23C163.6,23 163.8,23.2 163.8,23.4M155.5,28.5C155.7,28.5 155.9,28.3 155.9,28.1L155.9,27L158.7,27C159.4,27 159.9,26.5 159.9,25.8L159.9,24.1C159.9,23.4 159.4,22.9 158.7,22.9L156.3,22.9C155.6,22.9 155.1,23.4 155.1,24.1L155.1,28C155.1,28.4 155.2,28.5 155.5,28.5M155.9,24.2C155.9,24 156.1,23.8 156.3,23.8L158.7,23.8C158.9,23.8 159.1,24 159.1,24.2L159.1,25.9C159.1,26.1 158.9,26.3 158.7,26.3L155.9,26.3L155.9,24.2Z" style="fill:white;fill-rule:nonzero;"/>
        </g>
        <g>
            <rect x="103.5" y="9.9" width="36.9" height="36.9" style="fill:rgb(0,55,105);"/>
            <g>
                <g>
                    <rect x="106.9" y="27.5" width="30" height="0.7" style="fill:white;"/>
                </g>
                <g>
                    <path d="M121.6,26.7L122,24.1L122.5,26.7L123.7,26.7L124.9,22.5L123.6,22.5L123.1,25.1L122.6,22.5L121.5,22.5L121,25.1L120.5,22.5L119.2,22.5L120.3,26.7L121.6,26.7Z" style="fill:white;fill-rule:nonzero;"/>
                    <path d="M126.4,23.9L126.8,25.2L126,25.2L126.4,23.9ZM125.5,26.7L125.7,26.1L127,26.1L127.2,26.7L128.5,26.7L127,22.6L125.8,22.6L124.3,26.7L125.5,26.7Z" style="fill:white;fill-rule:nonzero;"/>
                    <g>
                        <path d="M130.1,23.5L130.8,23.5C131.3,23.5 131.4,23.7 131.4,23.9C131.4,24.3 131.1,24.3 130.8,24.3L130.1,24.3L130.1,23.5ZM130.2,25.2L130.9,25.2C131.4,25.2 131.4,25.6 131.5,26C131.5,26.2 131.5,26.4 131.6,26.6L132.9,26.6C132.8,26.4 132.8,25.9 132.8,25.7C132.8,25.2 132.5,24.8 132.2,24.7C132.6,24.5 132.8,24.1 132.8,23.7C132.8,22.9 132.2,22.5 131.4,22.5L129,22.5L129,26.6L130.3,26.6L130.3,25.2L130.2,25.2Z" style="fill:white;fill-rule:nonzero;"/>
                    </g>
                    <path d="M134.8,25.6L136.8,23.5L136.8,22.5L133.3,22.5L133.3,23.6L135.1,23.6L133.2,25.7L133.2,26.7L136.9,26.7L136.9,25.6L134.8,25.6Z" style="fill:white;fill-rule:nonzero;"/>
                    <g>
                        <path d="M108.8,25.9C108.6,25.9 108.3,25.8 108.2,25.6L108.2,25.3L106.9,25.3C106.9,26.6 108.3,26.8 108.7,26.8C109.6,26.8 110.6,26.5 110.6,25.4C110.6,24.6 110,24.4 109.4,24.2C108.8,24 108.2,24 108.2,23.7C108.2,23.5 108.5,23.4 108.7,23.4C108.8,23.4 109,23.4 109.1,23.5C109.2,23.6 109.3,23.7 109.3,23.8L110.5,23.8C110.5,22.8 109.7,22.4 108.8,22.4C107.9,22.4 107.1,22.8 107.1,23.8C107.1,24.6 107.8,24.8 108.5,25C109.2,25.2 109.4,25.3 109.4,25.5C109.4,25.8 109,25.9 108.8,25.9" style="fill:white;fill-rule:nonzero;"/>
                    </g>
                    <path d="M116.4,25L117.6,25L117.6,26.7L118.9,26.7L118.9,22.5L117.6,22.5L117.6,24L116.4,24L116.4,22.5L115.2,22.5L115.2,26.7L116.4,26.7L116.4,25Z" style="fill:white;fill-rule:nonzero;"/>
                    <g>
                        <path d="M112.9,26.8C114.1,26.8 114.8,25.9 114.8,25.1L113.5,25.1C113.4,25.5 113.3,25.8 112.8,25.8C112.2,25.8 112,25.2 112,24.7C112,24.1 112.2,23.6 112.8,23.6C113.3,23.6 113.4,24.1 113.5,24.2L114.7,24.2C114.6,23.2 114,22.6 112.8,22.6C111.5,22.6 110.7,23.5 110.7,24.8C110.8,25.8 111.6,26.8 112.9,26.8" style="fill:white;fill-rule:nonzero;"/>
                    </g>
                </g>
                <g>
                    <path d="M108.8,30.1C109.3,30.1 109.6,30.2 109.9,30.4C110.2,30.6 110.3,31 110.3,31.4C110.3,32.3 109.8,32.8 108.8,32.8L108,32.8L108,34.2L106.9,34.2L106.9,30.1L108.8,30.1ZM108.7,32C109.1,32 109.3,31.8 109.3,31.5C109.3,31.3 109.2,31.2 109.1,31.1C109,31 108.9,31 108.7,31L108,31L108,32L108.7,32Z" style="fill:white;fill-rule:nonzero;"/>
                    <path d="M112.5,31.2L112.7,31.2L112.7,32.1C112.5,32.1 112.4,32 112.3,32C112.1,32 111.9,32.1 111.8,32.2C111.7,32.3 111.6,32.5 111.6,32.7L111.6,34.2L110.6,34.2L110.6,31.2L111.5,31.2L111.5,31.7C111.6,31.5 111.7,31.4 111.8,31.3C112.1,31.2 112.3,31.2 112.5,31.2Z" style="fill:white;fill-rule:nonzero;"/>
                    <path d="M114.4,31.1C114.8,31.1 115.2,31.2 115.5,31.5C115.8,31.8 115.9,32.2 115.9,32.6C115.9,33.1 115.8,33.4 115.5,33.7C115.2,34 114.8,34.1 114.4,34.1C114,34.1 113.6,34 113.3,33.7C113,33.4 112.9,33 112.9,32.6C112.9,32.1 113,31.8 113.3,31.5C113.6,31.3 114,31.1 114.4,31.1ZM113.8,32.7C113.8,33 113.9,33.1 114,33.3C114.1,33.4 114.2,33.5 114.4,33.5C114.6,33.5 114.7,33.4 114.8,33.3C114.9,33.1 114.9,32.9 114.9,32.7C114.9,32.4 114.8,32.2 114.7,32.1C114.6,32 114.4,31.9 114.3,31.9C114.1,31.9 114,32 113.9,32.1C113.9,32.2 113.8,32.4 113.8,32.7Z" style="fill:white;fill-rule:nonzero;"/>
                    <path d="M119.3,30.1L119.3,34.2L118.4,34.2L118.4,33.9C118.2,34.2 117.9,34.3 117.6,34.3C117.2,34.3 116.9,34.2 116.6,33.9C116.4,33.6 116.2,33.2 116.2,32.7C116.2,32.3 116.3,31.9 116.5,31.6C116.7,31.3 117,31.2 117.4,31.2C117.8,31.2 118,31.3 118.2,31.6L118.2,30.2L119.3,30.2L119.3,30.1ZM117.2,32.7C117.2,33 117.3,33.2 117.4,33.3C117.5,33.5 117.7,33.5 117.8,33.5C118.2,33.5 118.4,33.2 118.4,32.7C118.4,32.5 118.4,32.3 118.3,32.1C118.2,31.9 118.1,31.9 117.9,31.9C117.7,31.9 117.6,32 117.5,32.1C117.3,32.2 117.2,32.4 117.2,32.7Z" style="fill:white;fill-rule:nonzero;"/>
                    <path d="M120.8,31.2L120.8,33C120.8,33.3 121,33.5 121.3,33.5C121.5,33.5 121.6,33.4 121.7,33.3C121.8,33.2 121.9,33 121.9,32.8L121.9,31.2L122.9,31.2L122.9,34.2L122,34.2L122,33.8C121.9,34 121.8,34.1 121.6,34.2C121.4,34.3 121.3,34.3 121.1,34.3C120.7,34.3 120.5,34.2 120.3,34C120.1,33.8 120,33.5 120,33.1L120,31.3L120.8,31.3L120.8,31.2Z" style="fill:white;fill-rule:nonzero;"/>
                    <path d="M124.3,29.9L124.3,32.2L125.2,31.2L126.3,31.2L125.2,32.3L126.4,34.1L125.2,34.1L124.5,32.9L124.2,33.1L124.2,34L123.2,34L123.2,29.9L124.3,29.9Z" style="fill:white;fill-rule:nonzero;"/>
                    <path d="M128,30.3L128,31.2L128.6,31.2L128.6,31.8L128,31.8L128,33.1C128,33.2 128,33.3 128.1,33.3C128.2,33.3 128.2,33.4 128.4,33.4L128.7,33.4L128.7,34.1L128.1,34.1C127.8,34.1 127.6,34.1 127.5,34C127.4,33.9 127.3,33.8 127.2,33.7C127.1,33.5 127.1,33.4 127.1,33.1L127.1,31.8L126.6,31.8L126.6,31.2L127.1,31.2L127.1,30.3L128,30.3Z" style="fill:white;fill-rule:nonzero;"/>
                    <path d="M130,30.1L130,30.8L129,30.8L129,30.1L130,30.1ZM130,31.2L130,34.2L129,34.2L129,31.2L130,31.2Z" style="fill:white;fill-rule:nonzero;"/>
                    <path d="M132,31.1C132.4,31.1 132.8,31.2 133.1,31.5C133.4,31.8 133.5,32.2 133.5,32.6C133.5,33.1 133.4,33.4 133.1,33.7C132.8,34 132.4,34.1 132,34.1C131.6,34.1 131.2,34 130.9,33.7C130.6,33.4 130.5,33 130.5,32.6C130.5,32.1 130.6,31.8 130.9,31.5C131.1,31.3 131.5,31.1 132,31.1ZM131.4,32.7C131.4,33 131.5,33.1 131.6,33.3C131.7,33.4 131.8,33.5 132,33.5C132.2,33.5 132.3,33.4 132.4,33.3C132.5,33.1 132.5,32.9 132.5,32.7C132.5,32.4 132.4,32.2 132.3,32.1C132.2,32 132,31.9 131.9,31.9C131.7,31.9 131.6,32 131.5,32.1C131.4,32.2 131.4,32.4 131.4,32.7Z" style="fill:white;fill-rule:nonzero;"/>
                    <path d="M135.8,31.1C136.5,31.1 136.9,31.5 136.9,32.2L136.9,34.1L135.9,34.1L135.9,32.4C135.9,32.1 135.7,31.9 135.4,31.9C135.2,31.9 135.1,32 135,32.1C134.9,32.2 134.9,32.4 134.9,32.6L134.9,34.2L133.9,34.2L133.9,31.2L134.8,31.2L134.8,31.6C134.9,31.4 135,31.3 135.2,31.2C135.5,31.2 135.6,31.1 135.8,31.1Z" style="fill:white;fill-rule:nonzero;"/>
                </g>
            </g>
        </g>
        <g>
            <rect x="197" y="9.9" width="36.9" height="36.9" style="fill:rgb(10,30,45);"/>
            <g>
                <g>
                    <path d="M202,24.9L202.1,24.9C202.5,25 203,25 203.6,25C204.6,25 205,24.7 205,24C205,23.6 204.9,23.2 204.3,23L203.4,22.7C203.2,22.6 203.1,22.5 203.1,22.4L203.1,22.3C203.1,22.1 203.2,22 203.5,22L204.7,22C204.8,22 204.8,22 204.8,21.9L204.8,21.4C204.8,21.4 204.8,21.3 204.7,21.3C204.3,21.2 203.9,21.2 203.6,21.2C202.6,21.2 202.1,21.5 202.1,22.1L202.1,22.2C202.1,22.7 202.3,23 202.8,23.2L203.6,23.5C203.9,23.6 204,23.7 204,23.8L204,23.9C204,24.1 203.9,24.1 203.5,24.1L202.1,24.1C202,24.1 202,24.1 202,24.2L202,24.9Z" style="fill:rgb(0,220,230);fill-rule:nonzero;"/>
                    <path d="M208.4,21.5C208.4,21.4 208.4,21.4 208.3,21.4C207.9,21.3 207.4,21.3 207.2,21.3C205.8,21.3 205.5,21.6 205.5,23.2C205.5,24.8 205.8,25.1 207.2,25.1C207.4,25.1 207.9,25.1 208.3,25C208.4,25 208.4,25 208.4,24.9L208.4,24.4C208.4,24.4 208.4,24.3 208.3,24.3L207.2,24.3C206.6,24.3 206.5,24.1 206.5,23.2C206.5,22.4 206.6,22.1 207.2,22.1L208.3,22.1C208.4,22.1 208.4,22.1 208.4,22L208.4,21.5Z" style="fill:rgb(0,220,230);fill-rule:nonzero;"/>
                    <path d="M211.6,25L212.4,25C212.5,25 212.5,25 212.5,24.9L212.5,22.8C212.5,21.4 212.1,21.2 210.9,21.2L210.2,21.2L210.2,20C210.2,19.9 210.2,19.9 210.1,19.9L209.3,19.9C209.2,19.9 209.2,19.9 209.2,20L209.2,25C209.2,25.1 209.2,25.1 209.3,25.1L210.1,25.1C210.2,25.1 210.2,25.1 210.2,25L210.2,22.2L210.8,22.2C211.4,22.2 211.5,22.3 211.5,23.2L211.6,25Z" style="fill:rgb(0,220,230);fill-rule:nonzero;"/>
                    <path d="M215.8,22.8L216.1,24.4C216.2,25 216.3,25.1 217.1,25.1C217.7,25.1 217.9,25 218,24.4L218.6,21.4L218.6,21.3L217.7,21.3L217.6,21.4L217.1,24.1C217.1,24.2 217,24.2 217,24.2C216.9,24.2 216.9,24.2 216.9,24.1L216.3,21.5C216.3,21.4 216.3,21.4 216.2,21.4L215.4,21.4C215.4,21.4 215.3,21.4 215.3,21.5L214.7,24.1C214.7,24.2 214.7,24.2 214.6,24.2C214.5,24.2 214.5,24.2 214.5,24.1L214,21.4C214,21.3 214,21.3 213.9,21.3L213,21.3L213,21.4L213.6,24.4C213.7,25 213.9,25.1 214.5,25.1C215.3,25.1 215.3,25 215.5,24.4L215.8,22.8Z" style="fill:rgb(0,220,230);fill-rule:nonzero;"/>
                    <path d="M220.5,25.1C220.8,25.1 221.5,25.1 222,25C222.1,25 222.1,24.9 222.1,24.8L222.1,22.5C222.1,21.8 221.8,21.4 220.5,21.4C220,21.4 219.6,21.4 219.3,21.5C219.2,21.5 219.2,21.5 219.2,21.6L219.2,22C219.2,22.1 219.2,22.1 219.3,22.1L220.5,22.1C220.9,22.1 221.2,22.3 221.2,22.6L221.2,22.9L220.3,22.9C219.4,22.9 219,23.1 218.9,24C219,25 219.5,25.1 220.5,25.1ZM220.5,23.5L221.3,23.5L221.3,24.3C221.1,24.4 220.7,24.4 220.6,24.4C220.2,24.4 220,24.3 220,24C220,23.6 220.1,23.5 220.5,23.5Z" style="fill:rgb(0,220,230);fill-rule:nonzero;"/>
                    <path d="M225.1,21.4C224.9,21.3 224.4,21.3 224.2,21.3C223.2,21.3 223,21.7 223,22.2L223,25C223,25.1 223,25.1 223.1,25.1L223.9,25.1C224,25.1 224,25.1 224,25L224,22.5C224,22.2 224.1,22.1 224.5,22.1L225.1,22.1C225.2,22.1 225.2,22.1 225.2,22L225.2,21.5C225.2,21.4 225.2,21.4 225.1,21.4Z" style="fill:rgb(0,220,230);fill-rule:nonzero;"/>
                    <path d="M225.6,25C225.6,25 225.7,25 225.6,25L228.7,25.1C228.8,25.1 228.8,25.1 228.8,25L228.8,24.4C228.8,24.4 228.8,24.3 228.7,24.3L227,24.3L228.7,22.1L228.7,21.5C228.7,21.5 228.7,21.4 228.6,21.4L225.8,21.4C225.7,21.4 225.7,21.4 225.7,21.5L225.7,22.1C225.7,22.1 225.7,22.2 225.8,22.2L227.4,22.2L225.7,24.4L225.7,25L225.6,25Z" style="fill:rgb(0,220,230);fill-rule:nonzero;"/>
                </g>
                <g>
                    <path d="M206.9,26.9C207,26.9 207.1,26.9 207.1,27.1L207.1,35C207.1,35.2 207,35.2 206.9,35.2C206,35.4 205.3,35.4 204.5,35.4C202.3,35.4 201.8,34.8 201.8,32.3C201.8,29.8 202.3,29.2 204.3,29.2C204.9,29.2 205.4,29.2 205.7,29.3L205.7,27.1C205.7,27 205.8,26.9 205.9,26.9L206.9,26.9ZM204.6,30.4C203.4,30.4 203.2,30.8 203.2,32.4C203.2,33.9 203.3,34.4 204.6,34.4C204.9,34.4 205.5,34.4 205.8,34.3L205.8,30.5L204.6,30.5L204.6,30.4Z" style="fill:white;fill-rule:nonzero;"/>
                    <path d="M210,27.7C210,28.2 209.7,28.5 209.2,28.5C208.7,28.5 208.4,28.2 208.4,27.7C208.4,27.2 208.7,26.9 209.2,26.9C209.7,27 210,27.2 210,27.7ZM209.7,29.3C209.8,29.3 209.9,29.4 209.9,29.5L209.9,35.3C209.9,35.4 209.8,35.5 209.7,35.5L208.7,35.5C208.6,35.5 208.5,35.4 208.5,35.3L208.5,29.5C208.5,29.4 208.6,29.3 208.7,29.3L209.7,29.3Z" style="fill:white;fill-rule:nonzero;"/>
                    <path d="M216.2,29.4C216.3,29.4 216.4,29.5 216.4,29.6L216.4,35C216.4,36.9 216,37.6 213.8,37.6C213.2,37.6 212.6,37.6 212,37.5C211.9,37.5 211.8,37.4 211.8,37.3L211.8,36.6C211.8,36.5 211.9,36.4 212,36.4L213.7,36.4C214.8,36.4 215.1,36.1 215.1,35.3L215.1,35.2C214.6,35.3 214.2,35.3 213.7,35.3C211.6,35.3 211.1,34.6 211.1,32.1C211.1,29.7 211.6,29 213.8,29C214.8,29.2 215.7,29.3 216.2,29.4ZM213.8,30.4C212.6,30.4 212.5,30.8 212.5,32.4C212.5,34 212.7,34.4 213.9,34.4C214.3,34.4 214.7,34.4 215.1,34.3L215.1,30.5L213.8,30.5L213.8,30.4Z" style="fill:white;fill-rule:nonzero;"/>
                    <path d="M219.4,27.7C219.4,28.2 219.1,28.5 218.6,28.5C218.1,28.5 217.8,28.2 217.8,27.7C217.8,27.2 218.1,26.9 218.6,26.9C219.1,27 219.4,27.2 219.4,27.7ZM219.1,29.3C219.2,29.3 219.3,29.4 219.3,29.5L219.3,35.3C219.3,35.4 219.2,35.5 219.1,35.5L218.1,35.5C218,35.5 217.9,35.4 217.9,35.3L217.9,29.5C217.9,29.4 218,29.3 218.1,29.3L219.1,29.3Z" style="fill:white;fill-rule:nonzero;"/>
                    <path d="M222.2,27.6C222.3,27.6 222.4,27.6 222.4,27.8L222.4,29.4L223.5,29.4C223.6,29.4 223.7,29.5 223.7,29.6L223.7,30.3C223.7,30.4 223.6,30.5 223.5,30.5L222.4,30.5L222.4,33.9C222.4,34.4 222.5,34.5 223.1,34.5L223.6,34.5C223.7,34.5 223.8,34.5 223.8,34.7L223.8,35.4C223.8,35.5 223.7,35.6 223.6,35.6C223.3,35.7 223,35.7 222.8,35.7C221.9,35.7 221,35.7 221,34.3L221,30.5L220.4,30.5C220.3,30.5 220.2,30.4 220.2,30.3L220.2,29.6C220.2,29.5 220.3,29.4 220.4,29.4L221,29.4L221,28C221,27.9 221.1,27.8 221.2,27.8L222.2,27.6Z" style="fill:white;fill-rule:nonzero;"/>
                    <path d="M228.7,29.3C228.8,29.3 228.9,29.4 228.9,29.5L228.9,30.2C228.9,30.3 228.8,30.4 228.7,30.4L226.7,30.4C226.2,30.4 226,30.5 226,30.9L226,31C226,31.3 226.1,31.5 226.6,31.7L228.1,32.2C229.1,32.6 229.2,33.1 229.2,33.8L229.2,33.9C229.2,35.2 228.4,35.5 226.9,35.5C225.9,35.5 225.1,35.4 224.7,35.4C224.6,35.4 224.5,35.3 224.5,35.2L224.5,34.5C224.5,34.4 224.5,34.3 224.7,34.3L226.9,34.3C227.6,34.3 227.9,34.2 227.9,33.8L227.9,33.7C227.9,33.4 227.8,33.3 227.3,33.1L225.8,32.5C224.9,32.2 224.7,31.5 224.7,30.9L224.7,30.7C224.7,29.5 225.7,29.2 227.1,29.2C227.4,29.2 228,29.2 228.7,29.3Z" style="fill:white;fill-rule:nonzero;"/>
                </g>
            </g>
        </g>
    </g>
</svg>
