<?xml version="1.0" encoding="UTF-8" standalone="no"?>
<!DOCTYPE svg PUBLIC "-//W3C//DTD SVG 1.1//EN" "http://www.w3.org/Graphics/SVG/1.1/DTD/svg11.dtd">
<svg width="100%" height="100%" viewBox="0 0 156 63" version="1.1" xmlns="http://www.w3.org/2000/svg" xmlns:xlink="http://www.w3.org/1999/xlink" xml:space="preserve" style="fill-rule:evenodd;clip-rule:evenodd;stroke-linejoin:round;stroke-miterlimit:2;">
    <g transform="matrix(1,0,0,1,-12.757,-12.769)">
        <g>
            <g>
                <g>
                    <rect x="12.758" y="39.104" width="155.904" height="3.41" style="fill:rgb(157,157,157);"/>
                </g>
            </g>
            <g>
                <path d="M99.695,13.282L97.01,26.766L96.948,26.766L94.413,13.282L88.563,13.282L85.969,26.586L85.91,26.586L83.285,13.282L76.77,13.282L82.622,34.821L89.105,34.821L91.37,21.699L91.43,21.699L93.752,34.821L100.207,34.821L106.241,13.282L99.695,13.282Z" style="fill:rgb(157,157,157);fill-rule:nonzero;"/>
                <path d="M110.914,13.282L102.98,34.821L109.648,34.821L110.613,31.743L117.46,31.743L118.367,34.821L125.244,34.821L117.4,13.282L110.914,13.282ZM112.061,27.129L114.143,20.492L114.201,20.492L116.133,27.129L112.061,27.129Z" style="fill:rgb(157,157,157);fill-rule:nonzero;"/>
                <path d="M143.584,24.836C145.788,24.022 146.814,21.668 146.814,19.435C146.814,15.365 143.555,13.282 139.786,13.282L127.146,13.282L127.146,34.821L133.78,34.821L133.78,27.31L137.31,27.31C139.937,27.31 140.117,29.451 140.296,31.501C140.389,32.618 140.51,33.734 140.841,34.82L147.478,34.82C146.876,33.824 146.843,31.261 146.754,30.204C146.512,27.521 145.395,25.529 143.584,24.836ZM137.251,22.694L133.78,22.694L133.78,18.412L136.89,18.412C139.421,18.412 140.176,19.195 140.176,20.554C140.176,22.484 138.486,22.694 137.251,22.694Z" style="fill:rgb(157,157,157);fill-rule:nonzero;"/>
                <path d="M158.073,29.3L168.179,18.109L168.179,13.282L149.992,13.282L149.992,18.804L159.431,18.804L149.418,29.632L149.418,34.821L168.663,34.821L168.663,29.3L158.073,29.3Z" style="fill:rgb(157,157,157);fill-rule:nonzero;"/>
                <path d="M26.121,21.699C23.074,20.853 19.998,20.522 19.877,18.984C19.877,17.778 21.355,17.535 22.261,17.535C22.924,17.535 23.679,17.685 24.221,18.079C24.765,18.441 25.127,18.984 25.006,19.798L31.28,19.798C31.099,14.549 26.966,12.769 22.291,12.769C17.857,12.769 13.603,14.911 13.603,19.888C13.603,24.232 17.495,25.166 20.904,26.132C24.614,27.188 25.548,27.49 25.548,28.604C25.548,30.203 23.89,30.565 22.803,30.565C21.566,30.565 20.118,30.294 19.636,28.997C19.485,28.604 19.395,28.123 19.395,27.579L12.758,27.579C12.818,34.457 19.786,35.332 22.229,35.332C27.026,35.332 32.183,33.523 32.183,27.912C32.184,23.963 29.168,22.543 26.121,21.699Z" style="fill:rgb(157,157,157);fill-rule:nonzero;"/>
                <path d="M68.576,20.763L62.361,20.763L62.361,13.282L55.725,13.282L55.725,34.821L62.361,34.821L62.361,26.284L68.576,26.284L68.576,34.821L75.213,34.821L75.213,13.282L68.576,13.282L68.576,20.763Z" style="fill:rgb(157,157,157);fill-rule:nonzero;"/>
                <path d="M43.917,29.965C40.811,29.965 39.814,26.947 39.814,24.053C39.814,21.156 40.811,18.141 43.917,18.141C46.663,18.141 47.266,20.524 47.386,21.307L53.841,21.307C53.268,15.908 50.011,12.8 44.098,12.771C37.463,12.771 33.178,17.265 33.178,24.053C33.178,30.417 37.13,35.334 44.098,35.334C50.403,35.334 53.931,30.719 53.931,26.375L47.416,26.375C47.024,28.397 46.15,29.965 43.917,29.965Z" style="fill:rgb(157,157,157);fill-rule:nonzero;"/>
            </g>
            <g>
                <rect x="12.757" y="47.63" width="27.484" height="27.484" style="fill:rgb(0,80,170);fill-rule:nonzero;"/>
                <path d="M26.498,48.358C19.314,48.358 13.485,54.187 13.485,61.376C13.485,68.56 19.314,74.387 26.498,74.387C33.682,74.387 39.512,68.56 39.512,61.376C39.511,54.187 33.682,48.358 26.498,48.358Z" style="fill:rgb(230,10,20);fill-rule:nonzero;"/>
                <path d="M26.498,49.182C19.766,49.182 14.309,54.642 14.309,61.376C14.309,68.103 19.769,73.563 26.498,73.563C33.227,73.563 38.687,68.103 38.687,61.376C38.687,54.642 33.227,49.182 26.498,49.182Z" style="fill:rgb(255,240,0);fill-rule:nonzero;"/>
                <path d="M31.855,59.109L31.855,59.936L32.498,59.936L32.498,62.808L31.855,62.808L31.855,63.64L37.274,63.64L37.274,61.376L35.051,62.611L35.051,59.936L35.693,59.936L35.693,59.109L31.855,59.109Z" style="fill:rgb(0,80,170);fill-rule:nonzero;"/>
                <path d="M29.207,62.227L29.025,62.227L29.025,60.517L29.178,60.517C29.978,60.515 29.978,62.23 29.207,62.227ZM29.72,59.109L26.065,59.109L26.065,59.936L26.705,59.936L26.705,62.808L26.065,62.808L26.065,63.64L29.72,63.64C32.422,63.64 32.449,59.109 29.72,59.109Z" style="fill:rgb(0,80,170);fill-rule:nonzero;"/>
                <path d="M25.741,61.714L23.589,59.564L21.109,62.047L21.109,62.881L21.734,62.254L23.465,63.99L22.826,64.628L23.241,65.046L26.705,61.578L26.705,60.746L25.741,61.714Z" style="fill:rgb(230,10,20);fill-rule:nonzero;"/>
                <path d="M23.273,56.534C24.027,56.534 24.637,57.142 24.637,57.896C24.637,58.65 24.027,59.26 23.273,59.26C22.519,59.26 21.909,58.65 21.909,57.896C21.909,57.139 22.519,56.534 23.273,56.534Z" style="fill:rgb(230,10,20);fill-rule:nonzero;"/>
                <path d="M15.695,59.109L19.528,59.109L19.528,59.936L18.888,59.936L18.888,62.611L21.109,61.376L21.109,63.64L15.695,63.64L15.695,62.808L16.337,62.808L16.337,59.936L15.695,59.936L15.695,59.109Z" style="fill:rgb(0,80,170);fill-rule:nonzero;"/>
            </g>
            <g>
                <rect x="44.863" y="47.63" width="27.484" height="27.484" style="fill:white;"/>
                <path d="M71.213,73.981L45.996,73.981L45.996,48.764L71.213,48.764L71.213,73.981ZM44.863,47.63L44.863,75.114L72.347,75.114L72.347,47.63" style="fill:rgb(227,0,15);fill-rule:nonzero;"/>
                <rect x="53.515" y="58.415" width="5.026" height="5.026" style="fill:rgb(227,0,15);fill-rule:nonzero;"/>
                <path d="M59.297,58.413L59.297,63.441L64.326,63.441L59.297,58.413Z" style="fill:rgb(227,0,15);fill-rule:nonzero;"/>
                <rect x="53.515" y="52.634" width="5.026" height="5.026" style="fill:rgb(227,0,15);fill-rule:nonzero;"/>
                <path d="M59.297,52.634L59.297,57.662L64.326,52.634L59.297,52.634Z" style="fill:rgb(227,0,15);fill-rule:nonzero;"/>
                <path d="M51.157,66.413L50.23,66.413L49.032,68.085L49.032,66.413L48.214,66.413L48.214,70.059L49.032,70.059L49.032,68.418L50.23,70.059L51.178,70.059L49.772,68.194L51.157,66.413Z" style="fill:rgb(227,0,15);fill-rule:nonzero;"/>
                <path d="M55.88,69.226C55.786,69.346 55.62,69.502 55.359,69.502C55.062,69.502 54.885,69.309 54.885,68.992L54.885,67.632L54.171,67.632L54.171,69.132C54.171,69.705 54.499,70.111 55.103,70.111C55.504,70.111 55.754,69.903 55.879,69.767L55.879,70.059L56.582,70.059L56.582,67.632L55.88,67.632L55.88,69.226Z" style="fill:rgb(227,0,15);fill-rule:nonzero;"/>
                <path d="M62.352,69.283C62.253,69.392 62.086,69.512 61.836,69.512C61.461,69.512 61.195,69.241 61.195,68.845C61.195,68.449 61.461,68.178 61.836,68.178C62.086,68.178 62.253,68.298 62.352,68.407L62.352,69.283ZM62.352,67.887C62.206,67.746 61.956,67.58 61.607,67.58C60.93,67.58 60.461,68.143 60.461,68.856C60.461,69.559 60.925,70.111 61.607,70.111C61.977,70.111 62.222,69.939 62.352,69.809L62.352,70.059L63.055,70.059L63.055,67.632L62.352,67.632L62.352,67.887Z" style="fill:rgb(227,0,15);fill-rule:nonzero;"/>
                <path d="M52.966,69.283C52.867,69.392 52.7,69.512 52.45,69.512C52.075,69.512 51.809,69.241 51.809,68.845C51.809,68.449 52.075,68.178 52.45,68.178C52.7,68.178 52.867,68.298 52.966,68.407L52.966,69.283ZM52.966,67.887C52.82,67.746 52.57,67.58 52.221,67.58C51.544,67.58 51.075,68.143 51.075,68.856C51.075,69.559 51.539,70.111 52.221,70.111C52.591,70.111 52.836,69.939 52.966,69.809L52.966,70.059L53.669,70.059L53.669,67.632L52.966,67.632L52.966,67.887Z" style="fill:rgb(227,0,15);fill-rule:nonzero;"/>
                <path d="M68.292,69.252C68.198,69.372 68.021,69.512 67.75,69.512C67.375,69.512 67.109,69.241 67.109,68.845C67.109,68.449 67.375,68.178 67.75,68.178C68.021,68.178 68.198,68.319 68.292,68.438L68.292,69.252ZM68.292,66.413L68.292,67.908C68.167,67.778 67.912,67.58 67.521,67.58C66.839,67.58 66.375,68.143 66.375,68.856C66.375,69.57 66.849,70.111 67.521,70.111C67.912,70.111 68.167,69.918 68.292,69.783L68.292,70.059L68.995,70.059L68.995,66.413L68.292,66.413Z" style="fill:rgb(227,0,15);fill-rule:nonzero;"/>
                <path d="M65.05,67.58C64.654,67.58 64.399,67.788 64.279,67.924L64.279,67.632L63.57,67.632L63.57,70.059L64.278,70.059L64.278,68.465C64.367,68.34 64.533,68.189 64.799,68.189C65.096,68.189 65.268,68.382 65.268,68.699L65.268,70.059L65.982,70.059L65.982,68.559C65.982,67.986 65.654,67.58 65.05,67.58Z" style="fill:rgb(227,0,15);fill-rule:nonzero;"/>
                <path d="M58.453,66.949C58.693,66.949 58.833,67.053 58.833,67.053L58.948,66.511C58.948,66.511 58.755,66.36 58.297,66.36C57.703,66.36 57.333,66.704 57.333,67.344L57.333,67.631L56.974,67.631L56.974,68.214L57.333,68.214L57.333,70.058L58.057,70.058L58.057,68.214L58.88,68.214L58.88,67.631L58.057,67.631L58.057,67.407C58.057,67.1 58.198,66.949 58.453,66.949Z" style="fill:rgb(227,0,15);fill-rule:nonzero;"/>
                <rect x="59.289" y="66.413" width="0.724" height="3.646" style="fill:rgb(227,0,15);fill-rule:nonzero;"/>
            </g>
            <g>
                <rect x="109.073" y="47.633" width="27.484" height="27.484" style="fill:rgb(0,61,74);"/>
                <path d="M126.25,57.397C124.811,57.397 123.641,58.57 123.641,60.012L123.641,61.224C123.641,61.387 123.773,61.519 123.936,61.519C124.099,61.519 124.231,61.387 124.231,61.224L124.231,60.012C124.231,58.896 125.137,57.988 126.251,57.988L132.369,57.988L132.369,62.731C132.369,63.847 131.463,64.755 130.349,64.755L128.319,64.755C128.156,64.755 128.024,64.887 128.024,65.05C128.024,65.213 128.156,65.352 128.319,65.352L130.349,65.352C131.788,65.352 132.958,64.172 132.958,62.73L132.958,57.396L126.25,57.396L126.25,57.397Z" style="fill:rgb(165,200,20);fill-rule:nonzero;"/>
                <path d="M126.36,62.34L124.521,62.34C124.036,62.34 123.641,62.729 123.641,63.216L123.641,64.465C123.641,64.951 124.036,65.354 124.521,65.354L126.36,65.354C126.845,65.354 127.24,64.952 127.24,64.465L127.24,63.216C127.24,62.729 126.845,62.34 126.36,62.34M126.65,64.464C126.65,64.624 126.52,64.755 126.36,64.755L124.521,64.755C124.361,64.755 124.231,64.625 124.231,64.464L124.231,63.215C124.231,63.055 124.361,62.924 124.521,62.924L126.36,62.924C126.52,62.924 126.65,63.055 126.65,63.215L126.65,64.464ZM123.198,62.635C123.198,62.798 123.071,62.931 122.908,62.931L121.886,62.932C121.726,62.932 121.596,63.062 121.596,63.223L121.596,65.059C121.596,65.222 121.464,65.354 121.301,65.354C121.138,65.354 121.006,65.223 121.006,65.059L121.006,63.223C121.006,62.737 121.401,62.341 121.886,62.341L122.903,62.341C123.066,62.34 123.198,62.471 123.198,62.635M119.455,62.339L117.652,62.339C117.167,62.339 116.772,62.735 116.772,63.221L116.772,64.471C116.772,64.957 117.167,65.353 117.652,65.353L119.451,65.353C119.614,65.353 119.746,65.221 119.746,65.058C119.746,64.895 119.614,64.762 119.451,64.762L117.652,64.762C117.492,64.762 117.362,64.632 117.362,64.471L117.362,64.107L119.456,64.107C119.941,64.107 120.336,63.711 120.336,63.222C120.335,62.735 119.94,62.339 119.455,62.339M119.455,63.516L117.361,63.516L117.361,63.222C117.361,63.062 117.491,62.931 117.651,62.931L119.454,62.931C119.614,62.931 119.744,63.061 119.744,63.225C119.745,63.385 119.615,63.516 119.455,63.516M116.235,65.056C116.235,65.219 116.103,65.352 115.94,65.352L112.967,65.353C112.843,65.353 112.732,65.275 112.69,65.158C112.648,65.041 112.683,64.91 112.779,64.83L115.119,62.93L112.967,62.93C112.804,62.93 112.672,62.798 112.672,62.635C112.672,62.472 112.804,62.339 112.967,62.339L115.933,62.339C116.057,62.339 116.168,62.417 116.21,62.534C116.252,62.651 116.217,62.782 116.121,62.862L113.737,64.762L115.939,64.761C116.103,64.761 116.235,64.893 116.235,65.056M122.313,57.397L120.51,57.397C120.025,57.397 119.63,57.793 119.63,58.279L119.63,59.529C119.63,60.015 120.025,60.411 120.51,60.411L122.309,60.411C122.472,60.411 122.604,60.279 122.604,60.116C122.604,59.953 122.472,59.821 122.309,59.821L120.51,59.821C120.35,59.821 120.22,59.691 120.22,59.53L120.22,59.166L122.314,59.166C122.799,59.166 123.194,58.77 123.194,58.281C123.193,57.792 122.799,57.397 122.313,57.397M122.313,58.573L120.219,58.573L120.219,58.279C120.219,58.119 120.349,57.988 120.509,57.988L122.312,57.988C122.472,57.988 122.602,58.118 122.602,58.282C122.604,58.443 122.473,58.573 122.313,58.573M119.182,57.692C119.182,57.855 119.055,57.987 118.892,57.987L117.87,57.988C117.71,57.988 117.58,58.118 117.58,58.279L117.58,60.115C117.58,60.278 117.448,60.41 117.285,60.41C117.122,60.41 116.99,60.279 116.99,60.115L116.99,58.279C116.99,57.793 117.385,57.397 117.87,57.397L118.886,57.397C119.05,57.397 119.182,57.528 119.182,57.692M112.967,61.51C113.13,61.51 113.262,61.378 113.262,61.215L113.262,60.411L115.351,60.411C115.836,60.411 116.231,60.015 116.231,59.529L116.231,58.278C116.231,57.792 115.836,57.396 115.351,57.396L113.552,57.396C113.067,57.396 112.672,57.792 112.672,58.278L112.672,61.214C112.673,61.378 112.805,61.51 112.967,61.51M113.262,58.279C113.262,58.119 113.392,57.988 113.552,57.988L115.351,57.988C115.511,57.988 115.641,58.118 115.641,58.279L115.641,59.53C115.641,59.69 115.511,59.821 115.351,59.821L113.262,59.821L113.262,58.279Z" style="fill:white;fill-rule:nonzero;"/>
            </g>
            <g>
                <rect x="76.968" y="47.633" width="27.484" height="27.484" style="fill:rgb(0,55,105);"/>
                <g>
                    <g>
                        <rect x="78.849" y="60.694" width="23.954" height="0.524" style="fill:white;"/>
                    </g>
                    <g>
                        <path d="M90.58,60.036L90.928,58.02L90.937,58.02L91.294,60.036L92.285,60.036L93.213,56.727L92.207,56.727L91.794,58.798L91.785,58.798L91.395,56.727L90.496,56.727L90.098,58.771L90.089,58.771L89.685,56.727L88.684,56.727L89.584,60.036L90.58,60.036Z" style="fill:white;fill-rule:nonzero;"/>
                        <path d="M94.427,57.835L94.436,57.835L94.733,58.854L94.107,58.854L94.427,57.835ZM93.736,60.036L93.884,59.563L94.936,59.563L95.076,60.036L96.132,60.036L94.927,56.727L93.931,56.727L92.712,60.036L93.736,60.036Z" style="fill:white;fill-rule:nonzero;"/>
                        <g>
                            <path d="M97.444,57.515L97.922,57.515C98.311,57.515 98.427,57.635 98.427,57.844C98.427,58.141 98.167,58.173 97.978,58.173L97.445,58.173L97.445,57.515L97.444,57.515ZM97.443,58.882L97.986,58.882C98.389,58.882 98.417,59.211 98.445,59.526C98.459,59.697 98.478,59.869 98.529,60.036L99.548,60.036C99.455,59.883 99.451,59.489 99.437,59.327C99.4,58.914 99.228,58.609 98.95,58.502C99.289,58.377 99.446,58.015 99.446,57.672C99.446,57.047 98.945,56.727 98.366,56.727L96.424,56.727L96.424,60.036L97.443,60.036L97.443,58.882Z" style="fill:white;fill-rule:nonzero;"/>
                        </g>
                        <path d="M101.176,59.188L102.728,57.468L102.728,56.727L99.934,56.727L99.934,57.575L101.384,57.575L99.846,59.239L99.846,60.036L102.803,60.036L102.803,59.188L101.176,59.188Z" style="fill:white;fill-rule:nonzero;"/>
                        <g>
                            <path d="M80.392,59.383C80.202,59.383 79.979,59.341 79.905,59.142C79.882,59.082 79.868,59.008 79.868,58.924L78.848,58.924C78.857,59.981 79.928,60.115 80.304,60.115C81.041,60.115 81.833,59.837 81.833,58.975C81.833,58.368 81.37,58.15 80.901,58.02C80.432,57.89 79.96,57.839 79.942,57.603C79.942,57.418 80.169,57.381 80.308,57.381C80.41,57.381 80.526,57.404 80.609,57.464C80.692,57.52 80.748,57.603 80.73,57.728L81.694,57.728C81.666,56.921 81.031,56.648 80.313,56.648C79.631,56.648 78.978,56.977 78.978,57.742C78.978,58.409 79.576,58.553 80.1,58.702C80.67,58.864 80.814,58.911 80.814,59.082C80.814,59.327 80.559,59.383 80.392,59.383" style="fill:white;fill-rule:nonzero;"/>
                        </g>
                        <path d="M86.471,58.724L87.426,58.724L87.426,60.036L88.445,60.036L88.445,56.727L87.426,56.727L87.426,57.876L86.471,57.876L86.471,56.727L85.451,56.727L85.451,60.036L86.471,60.036L86.471,58.724Z" style="fill:white;fill-rule:nonzero;"/>
                        <g>
                            <path d="M83.665,60.115C84.634,60.115 85.176,59.406 85.176,58.739L84.175,58.739C84.115,59.049 83.981,59.291 83.637,59.291C83.16,59.291 83.007,58.827 83.007,58.382C83.007,57.937 83.16,57.473 83.637,57.473C84.059,57.473 84.152,57.839 84.17,57.96L85.162,57.96C85.074,57.13 84.574,56.653 83.665,56.648C82.646,56.648 81.987,57.339 81.987,58.382C81.987,59.359 82.594,60.115 83.665,60.115" style="fill:white;fill-rule:nonzero;"/>
                        </g>
                    </g>
                    <g>
                        <path d="M80.398,62.79C80.764,62.79 81.05,62.883 81.254,63.069C81.458,63.255 81.561,63.512 81.561,63.839C81.561,64.581 81.17,64.952 80.389,64.952L79.694,64.952L79.694,66.033L78.849,66.033L78.849,62.79L80.398,62.79ZM80.275,64.298C80.569,64.298 80.716,64.163 80.716,63.894C80.716,63.749 80.676,63.641 80.596,63.572C80.516,63.503 80.409,63.467 80.276,63.467L79.695,63.467L79.695,64.298L80.275,64.298Z" style="fill:white;fill-rule:nonzero;"/>
                        <path d="M83.313,63.631C83.38,63.631 83.44,63.637 83.495,63.649L83.495,64.353C83.374,64.323 83.275,64.308 83.2,64.308C83.033,64.308 82.895,64.36 82.784,64.462C82.673,64.565 82.618,64.695 82.618,64.853L82.618,66.034L81.846,66.034L81.846,63.677L82.595,63.677L82.595,64.09L82.604,64.09C82.655,63.945 82.743,63.832 82.867,63.752C82.992,63.671 83.14,63.631 83.313,63.631Z" style="fill:white;fill-rule:nonzero;"/>
                        <path d="M84.845,63.608C85.199,63.608 85.495,63.725 85.733,63.96C85.971,64.195 86.09,64.494 86.09,64.857C86.09,65.217 85.974,65.515 85.742,65.75C85.51,65.985 85.211,66.102 84.845,66.102C84.488,66.102 84.192,65.985 83.957,65.752C83.722,65.519 83.605,65.221 83.605,64.857C83.605,64.497 83.722,64.198 83.955,63.962C84.188,63.726 84.485,63.608 84.845,63.608ZM84.377,64.857C84.377,65.057 84.417,65.216 84.497,65.334C84.577,65.452 84.693,65.511 84.844,65.511C85.001,65.511 85.12,65.449 85.198,65.325C85.277,65.201 85.316,65.045 85.316,64.857C85.316,64.654 85.274,64.494 85.191,64.376C85.108,64.258 84.99,64.199 84.839,64.199C84.697,64.199 84.584,64.257 84.501,64.374C84.419,64.49 84.377,64.651 84.377,64.857Z" style="fill:white;fill-rule:nonzero;"/>
                        <path d="M88.765,62.789L88.765,66.033L88.029,66.033L88.029,65.761L88.02,65.761C87.866,65.988 87.649,66.102 87.37,66.102C87.052,66.102 86.797,65.986 86.605,65.754C86.413,65.522 86.317,65.205 86.317,64.802C86.317,64.454 86.408,64.168 86.59,63.943C86.772,63.719 87.012,63.607 87.312,63.607C87.6,63.607 87.824,63.714 87.984,63.929L87.993,63.929L87.993,62.789L88.765,62.789ZM87.089,64.83C87.089,65.042 87.132,65.209 87.218,65.33C87.304,65.451 87.419,65.512 87.561,65.512C87.867,65.512 88.02,65.292 88.02,64.853C88.02,64.659 87.981,64.502 87.904,64.381C87.827,64.26 87.711,64.199 87.556,64.199C87.411,64.199 87.296,64.257 87.213,64.374C87.13,64.49 87.089,64.642 87.089,64.83Z" style="fill:white;fill-rule:nonzero;"/>
                        <path d="M89.975,63.675L89.975,65.061C89.975,65.331 90.102,65.465 90.357,65.465C90.478,65.465 90.579,65.419 90.659,65.326C90.739,65.234 90.779,65.109 90.779,64.951L90.779,63.675L91.551,63.675L91.551,66.032L90.801,66.032L90.801,65.71L90.792,65.71C90.716,65.831 90.61,65.927 90.474,65.996C90.338,66.066 90.203,66.1 90.07,66.1C89.776,66.1 89.558,66.022 89.416,65.866C89.274,65.71 89.203,65.461 89.203,65.119L89.203,63.675L89.975,63.675Z" style="fill:white;fill-rule:nonzero;"/>
                        <path d="M92.76,62.79L92.76,64.462L93.464,63.676L94.359,63.676L93.496,64.566L94.468,66.033L93.537,66.033L92.96,65.084L92.76,65.279L92.76,66.033L91.988,66.033L91.988,62.79L92.76,62.79Z" style="fill:white;fill-rule:nonzero;"/>
                        <path d="M95.678,62.963L95.678,63.676L96.155,63.676L96.155,64.176L95.678,64.176L95.678,65.252C95.678,65.334 95.701,65.391 95.746,65.425C95.791,65.458 95.861,65.475 95.955,65.475C96.022,65.475 96.088,65.472 96.155,65.466L96.155,66.034C95.994,66.046 95.843,66.054 95.701,66.057C95.483,66.057 95.318,66.03 95.206,65.975C95.094,65.92 95.016,65.832 94.972,65.709C94.928,65.586 94.906,65.434 94.906,65.253L94.906,64.177L94.515,64.177L94.515,63.677L94.906,63.677L94.906,62.964L95.678,62.964L95.678,62.963Z" style="fill:white;fill-rule:nonzero;"/>
                        <path d="M97.274,62.79L97.274,63.38L96.502,63.38L96.502,62.79L97.274,62.79ZM97.274,63.676L97.274,66.033L96.502,66.033L96.502,63.676L97.274,63.676Z" style="fill:white;fill-rule:nonzero;"/>
                        <path d="M98.872,63.608C99.226,63.608 99.522,63.725 99.76,63.96C99.998,64.195 100.117,64.494 100.117,64.857C100.117,65.217 100.001,65.515 99.769,65.75C99.537,65.985 99.238,66.102 98.872,66.102C98.515,66.102 98.219,65.985 97.984,65.752C97.749,65.519 97.632,65.221 97.632,64.857C97.632,64.497 97.749,64.198 97.982,63.962C98.215,63.726 98.512,63.608 98.872,63.608ZM98.404,64.857C98.404,65.057 98.444,65.216 98.524,65.334C98.604,65.452 98.72,65.511 98.871,65.511C99.028,65.511 99.147,65.449 99.225,65.325C99.304,65.201 99.343,65.045 99.343,64.857C99.343,64.654 99.301,64.494 99.218,64.376C99.135,64.258 99.017,64.199 98.866,64.199C98.724,64.199 98.611,64.257 98.528,64.374C98.446,64.49 98.404,64.651 98.404,64.857Z" style="fill:white;fill-rule:nonzero;"/>
                        <path d="M101.959,63.608C102.522,63.608 102.804,63.906 102.804,64.503L102.804,66.034L102.032,66.034L102.032,64.64C102.032,64.377 101.903,64.245 101.646,64.245C101.51,64.245 101.406,64.293 101.335,64.39C101.264,64.487 101.228,64.613 101.228,64.767L101.228,66.034L100.456,66.034L100.456,63.677L101.205,63.677L101.205,63.999L101.214,63.999C101.29,63.878 101.397,63.782 101.536,63.713C101.675,63.643 101.816,63.608 101.959,63.608Z" style="fill:white;fill-rule:nonzero;"/>
                    </g>
                </g>
            </g>
            <g>
                <rect x="141.179" y="47.633" width="27.484" height="27.484" style="fill:rgb(10,30,45);"/>
                <g>
                    <g>
                        <path d="M144.948,58.826C144.948,58.87 144.959,58.885 145.017,58.885C145.237,58.908 145.593,58.935 146.05,58.935C146.784,58.935 147.097,58.722 147.097,58.222L147.097,58.142C147.097,57.855 147.035,57.568 146.584,57.408L145.945,57.183C145.77,57.12 145.695,57.047 145.695,56.938L145.695,56.888C145.695,56.756 145.797,56.692 146.005,56.692L146.903,56.692C146.962,56.692 146.972,56.671 146.972,56.628L146.972,56.25C146.972,56.217 146.962,56.2 146.905,56.186C146.595,56.133 146.307,56.122 146.12,56.122C145.347,56.122 145.003,56.339 145.003,56.825L145.003,56.92C145.003,57.3 145.171,57.551 145.501,57.664L146.115,57.884C146.325,57.956 146.4,58.021 146.4,58.134L146.4,58.179C146.4,58.338 146.289,58.365 146.04,58.365L145.017,58.365C144.965,58.365 144.948,58.379 144.948,58.424L144.948,58.826Z" style="fill:rgb(0,195,204);fill-rule:nonzero;"/>
                        <path d="M149.692,56.27C149.692,56.218 149.672,56.195 149.62,56.186C149.334,56.128 148.958,56.122 148.81,56.122C147.78,56.122 147.558,56.372 147.558,57.528C147.558,58.684 147.78,58.934 148.81,58.934C148.96,58.934 149.338,58.927 149.62,58.865C149.673,58.855 149.692,58.834 149.692,58.786L149.692,58.387C149.692,58.362 149.685,58.328 149.623,58.328L148.81,58.328C148.336,58.328 148.265,58.148 148.265,57.529C148.265,56.9 148.333,56.73 148.81,56.73L149.623,56.73C149.671,56.73 149.692,56.71 149.692,56.666L149.692,56.27Z" style="fill:rgb(0,195,204);fill-rule:nonzero;"/>
                        <path d="M152.028,58.909L152.622,58.909C152.664,58.909 152.681,58.89 152.681,58.845L152.681,57.303C152.681,56.276 152.414,56.121 151.494,56.121C151.383,56.121 151.167,56.124 150.967,56.146L150.949,56.148L150.949,55.142C150.949,55.099 150.93,55.078 150.89,55.078L150.301,55.078C150.261,55.078 150.242,55.099 150.242,55.142L150.242,58.845C150.242,58.899 150.262,58.909 150.296,58.909L150.895,58.909C150.937,58.909 150.954,58.89 150.954,58.845L150.954,56.728L151.419,56.728C151.897,56.728 151.974,56.78 151.974,57.492L151.974,58.844C151.974,58.899 151.994,58.909 152.028,58.909Z" style="fill:rgb(0,195,204);fill-rule:nonzero;"/>
                        <path d="M155.231,57.27L155.491,58.448C155.588,58.88 155.634,58.935 156.209,58.935C156.669,58.935 156.795,58.878 156.877,58.449L157.306,56.198C157.308,56.177 157.306,56.162 157.3,56.156C157.295,56.15 157.282,56.147 157.262,56.147L156.628,56.147C156.608,56.147 156.599,56.147 156.589,56.204L156.245,58.24C156.225,58.325 156.204,58.348 156.145,58.348C156.083,58.348 156.07,58.326 156.05,58.241L155.586,56.29C155.577,56.239 155.551,56.232 155.527,56.232L154.943,56.232C154.911,56.232 154.892,56.241 154.879,56.29L154.415,58.241C154.4,58.326 154.387,58.348 154.32,58.348C154.264,58.348 154.245,58.327 154.225,58.241L153.881,56.204C153.87,56.147 153.857,56.147 153.842,56.147L153.208,56.147C153.186,56.147 153.172,56.15 153.166,56.157C153.16,56.164 153.159,56.178 153.163,56.198L153.587,58.449C153.676,58.887 153.802,58.935 154.26,58.935C154.832,58.935 154.882,58.874 154.973,58.449L155.231,57.27Z" style="fill:rgb(0,195,204);fill-rule:nonzero;"/>
                        <path d="M158.734,58.934C158.985,58.934 159.466,58.92 159.863,58.83C159.946,58.802 159.961,58.763 159.961,58.691L159.961,56.964C159.961,56.444 159.762,56.121 158.769,56.121C158.404,56.121 158.134,56.143 157.869,56.196C157.825,56.205 157.812,56.21 157.812,56.26L157.812,56.669C157.812,56.723 157.822,56.728 157.866,56.728L158.769,56.728C159.1,56.728 159.254,56.842 159.254,57.088L159.254,57.284L158.604,57.284C157.958,57.284 157.607,57.412 157.597,58.087C157.607,58.851 157.968,58.934 158.734,58.934ZM158.664,57.732L159.254,57.732L159.254,58.314L159.242,58.317C159.092,58.358 158.828,58.367 158.739,58.367C158.406,58.367 158.299,58.289 158.299,58.047C158.299,57.82 158.401,57.732 158.664,57.732Z" style="fill:rgb(0,195,204);fill-rule:nonzero;"/>
                        <path d="M162.158,56.176C161.98,56.135 161.63,56.122 161.498,56.122C160.718,56.122 160.61,56.453 160.61,56.81L160.61,58.846C160.61,58.891 160.627,58.91 160.669,58.91L161.263,58.91C161.305,58.91 161.322,58.891 161.322,58.846L161.322,56.999C161.322,56.766 161.43,56.729 161.687,56.729L162.156,56.729C162.218,56.729 162.225,56.695 162.225,56.67L162.225,56.26C162.226,56.204 162.208,56.19 162.158,56.176Z" style="fill:rgb(0,195,204);fill-rule:nonzero;"/>
                        <path d="M162.521,58.846C162.521,58.891 162.542,58.91 162.595,58.91L164.821,58.91C164.869,58.91 164.89,58.89 164.89,58.846L164.89,58.362C164.89,58.337 164.883,58.303 164.821,58.303L163.546,58.303L164.793,56.631C164.812,56.602 164.825,56.58 164.825,56.546L164.825,56.207C164.825,56.182 164.818,56.148 164.756,56.148L162.65,56.148C162.593,56.148 162.581,56.172 162.581,56.207L162.581,56.681C162.581,56.716 162.593,56.74 162.65,56.74L163.84,56.74L163.821,56.765L162.553,58.437C162.529,58.47 162.521,58.492 162.521,58.522L162.521,58.846Z" style="fill:rgb(0,195,204);fill-rule:nonzero;"/>
                    </g>
                    <g>
                        <path d="M148.588,60.304C148.679,60.304 148.712,60.337 148.712,60.428L148.712,66.35C148.712,66.466 148.662,66.507 148.563,66.524C147.859,66.64 147.387,66.673 146.79,66.673C145.117,66.673 144.753,66.201 144.753,64.346C144.753,62.507 145.117,62.01 146.65,62.01C147.081,62.01 147.437,62.027 147.71,62.06L147.71,60.428C147.71,60.337 147.751,60.304 147.834,60.304L148.588,60.304ZM146.807,62.88C145.879,62.88 145.755,63.153 145.755,64.346C145.755,65.472 145.846,65.804 146.782,65.804C147.039,65.804 147.42,65.779 147.71,65.738L147.71,62.88L146.807,62.88Z" style="fill:white;fill-rule:nonzero;"/>
                        <path d="M150.883,60.909C150.883,61.282 150.676,61.481 150.287,61.481C149.898,61.481 149.691,61.282 149.691,60.909C149.691,60.545 149.898,60.346 150.287,60.346C150.676,60.346 150.883,60.545 150.883,60.909ZM150.667,62.052C150.75,62.052 150.791,62.093 150.791,62.176L150.791,66.508C150.791,66.591 150.749,66.632 150.667,66.632L149.905,66.632C149.822,66.632 149.781,66.591 149.781,66.508L149.781,62.176C149.781,62.093 149.823,62.052 149.905,62.052L150.667,62.052Z" style="fill:white;fill-rule:nonzero;"/>
                        <path d="M155.529,62.16C155.628,62.168 155.686,62.226 155.686,62.326L155.686,66.368C155.678,67.809 155.396,68.331 153.715,68.331C153.301,68.331 152.804,68.306 152.357,68.24C152.283,68.223 152.241,68.182 152.241,68.107L152.241,67.618C152.241,67.527 152.283,67.494 152.365,67.494L153.657,67.494C154.485,67.494 154.684,67.295 154.684,66.641L154.684,66.6C154.328,66.658 154.013,66.675 153.624,66.675C152.092,66.675 151.719,66.178 151.719,64.306C151.719,62.484 152.1,62.012 153.765,62.012C154.486,62.011 155.107,62.077 155.529,62.16ZM153.732,62.88C152.821,62.88 152.73,63.203 152.73,64.338C152.73,65.522 152.854,65.796 153.782,65.796C154.055,65.796 154.395,65.788 154.685,65.746L154.685,62.88L153.732,62.88Z" style="fill:white;fill-rule:nonzero;"/>
                        <path d="M157.857,60.909C157.857,61.282 157.65,61.481 157.261,61.481C156.872,61.481 156.665,61.282 156.665,60.909C156.665,60.545 156.872,60.346 157.261,60.346C157.65,60.346 157.857,60.545 157.857,60.909ZM157.642,62.052C157.725,62.052 157.766,62.093 157.766,62.176L157.766,66.508C157.766,66.591 157.724,66.632 157.642,66.632L156.88,66.632C156.797,66.632 156.756,66.591 156.756,66.508L156.756,62.176C156.756,62.093 156.798,62.052 156.88,62.052L157.642,62.052Z" style="fill:white;fill-rule:nonzero;"/>
                        <path d="M159.969,60.785C160.06,60.76 160.11,60.81 160.11,60.901L160.11,62.061L160.93,62.061C161.013,62.061 161.062,62.102 161.062,62.185L161.062,62.707C161.062,62.798 161.012,62.839 160.93,62.839L160.11,62.839L160.11,65.365C160.11,65.729 160.218,65.804 160.624,65.804L160.988,65.804C161.087,65.804 161.129,65.837 161.129,65.92L161.129,66.467C161.129,66.558 161.088,66.6 161.005,66.616C160.773,66.657 160.541,66.674 160.417,66.674C159.771,66.674 159.1,66.657 159.1,65.663L159.1,62.839L158.628,62.839C158.545,62.839 158.495,62.798 158.495,62.707L158.495,62.185C158.495,62.102 158.545,62.061 158.628,62.061L159.1,62.061L159.1,61.109C159.1,61.026 159.142,60.993 159.216,60.976L159.969,60.785Z" style="fill:white;fill-rule:nonzero;"/>
                        <path d="M164.782,62.102C164.865,62.119 164.906,62.16 164.906,62.234L164.906,62.723C164.906,62.806 164.864,62.847 164.773,62.847L163.249,62.847C162.901,62.847 162.702,62.955 162.702,63.211L162.702,63.31C162.702,63.509 162.81,63.666 163.157,63.799L164.242,64.197C164.971,64.47 165.087,64.893 165.087,65.406L165.087,65.514C165.087,66.458 164.458,66.674 163.373,66.674C162.652,66.674 162.031,66.624 161.758,66.599C161.659,66.591 161.634,66.549 161.634,66.475L161.634,65.961C161.634,65.87 161.667,65.829 161.767,65.829L163.374,65.829C163.929,65.829 164.103,65.763 164.103,65.473L164.103,65.39C164.103,65.191 164.004,65.059 163.631,64.918L162.538,64.504C161.892,64.272 161.71,63.775 161.71,63.286L161.71,63.12C161.71,62.217 162.455,62.01 163.491,62.01C163.846,62.011 164.302,62.027 164.782,62.102Z" style="fill:white;fill-rule:nonzero;"/>
                    </g>
                </g>
            </g>
        </g>
    </g>
</svg>
