<?xml version="1.0" encoding="utf-8"?>
<!-- Generator: Adobe Illustrator 27.7.0, SVG Export Plug-In . SVG Version: 6.00 Build 0)  -->
<svg version="1.1" id="Ebene_1" xmlns="http://www.w3.org/2000/svg" xmlns:xlink="http://www.w3.org/1999/xlink" x="0px" y="0px"
	 viewBox="0 0 141.73 27.21" style="enable-background:new 0 0 141.73 27.21;" xml:space="preserve">
<style type="text/css">
	.st0{fill:#FFFFFF;}
	.st1{fill:#9D9D9D;}
	.st2{fill:#E6007E;}
	.st3{fill:#F9F7F3;}
	.st4{fill:#E5007E;}
	.st5{fill:#00539B;}
	.st6{fill:#E30613;}
	.st7{fill:#FFED00;}
	.st8{fill:#00549B;}
	.st9{fill:#003D49;}
	.st10{fill:#A5C715;}
	.st11{fill:#0E1F30;}
	.st12{fill:#82CBD6;}
	.st13{fill:#FAFAFA;}
	.st14{fill:#00376A;}
	.st15{fill:none;}
</style>
<g>
	<g>
		<g>
			<g>
				<rect x="0" y="24.02" class="st1" width="141.73" height="3.1"/>
			</g>
		</g>
		<g>
			<polygon class="st1" points="69.41,20.12 71.47,8.2 71.52,8.2 73.63,20.12 79.5,20.12 84.98,0.54 79.03,0.54 76.59,12.8 
				76.54,12.8 74.23,0.54 68.91,0.54 66.56,12.64 66.5,12.64 64.12,0.54 58.19,0.54 63.51,20.12 			"/>
			<path class="st1" d="M88.08,20.12l0.88-2.8h6.22l0.82,2.8h6.25L95.13,0.54h-5.9l-7.21,19.58H88.08z M92.17,7.1h0.05l1.76,6.03
				h-3.7L92.17,7.1z"/>
			<path class="st1" d="M110.02,13.3h3.21c2.39,0,2.55,1.95,2.71,3.81c0.08,1.02,0.19,2.03,0.5,3.02h6.03
				c-0.55-0.91-0.58-3.24-0.66-4.2c-0.22-2.44-1.24-4.25-2.88-4.88c2-0.74,2.94-2.88,2.94-4.91c0-3.7-2.96-5.59-6.39-5.59h-11.49
				v19.58h6.03V13.3z M110.02,5.21h2.83c2.3,0,2.99,0.71,2.99,1.95c0,1.75-1.54,1.95-2.66,1.95h-3.16V5.21z"/>
			<polygon class="st1" points="132.1,15.11 141.29,4.93 141.29,0.54 124.76,0.54 124.76,5.56 133.34,5.56 124.24,15.41 
				124.24,20.12 141.73,20.12 141.73,15.11 			"/>
			<path class="st1" d="M9.13,16.26c-1.12,0-2.44-0.25-2.88-1.43c-0.14-0.36-0.22-0.79-0.22-1.29H0c0.05,6.25,6.39,7.05,8.61,7.05
				c4.36,0,9.05-1.64,9.05-6.75c0-3.59-2.74-4.88-5.51-5.65C9.38,7.43,6.58,7.13,6.47,5.73c0-1.1,1.34-1.32,2.17-1.32
				c0.6,0,1.29,0.14,1.78,0.49c0.49,0.33,0.82,0.82,0.71,1.56h5.7c-0.16-4.77-3.92-6.39-8.17-6.39c-4.03,0-7.9,1.95-7.9,6.47
				c0,3.95,3.54,4.8,6.64,5.68c3.37,0.96,4.22,1.23,4.22,2.25C11.63,15.93,10.12,16.26,9.13,16.26z"/>
			<polygon class="st1" points="45.09,12.36 50.74,12.36 50.74,20.12 56.78,20.12 56.78,0.54 50.74,0.54 50.74,7.35 45.09,7.35 
				45.09,0.54 39.06,0.54 39.06,20.12 45.09,20.12 			"/>
			<path class="st1" d="M28.49,20.59c5.73,0,8.94-4.2,8.94-8.14h-5.92c-0.36,1.84-1.15,3.26-3.18,3.26c-2.82,0-3.73-2.74-3.73-5.37
				c0-2.63,0.91-5.37,3.73-5.37c2.5,0,3.04,2.17,3.15,2.88h5.87c-0.52-4.91-3.48-7.73-8.86-7.76c-6.03,0-9.93,4.09-9.93,10.26
				C18.56,16.12,22.16,20.59,28.49,20.59z"/>
		</g>
	</g>
</g>
</svg>
