<svg xmlns="http://www.w3.org/2000/svg" width="16" height="16" fill="none"><path fill="url(#a)" d="M14.932 4.003a8 8 0 0 0-13.86 0l.48 8.64 13.38-8.64Z"/><path fill="url(#b)" d="m4.532 10.003-3.46-6a8 8 0 0 0 6.93 12l7.84-8-11.3 2h-.01Z"/><path fill="url(#c)" d="m11.462 10.003-3.46 6a8 8 0 0 0 6.93-12h-6.93l3.46 6Z"/><path fill="#fff" d="M8.002 12.003a4 4 0 1 0 0-8 4 4 0 0 0 0 8Z"/><path fill="#1A73E8" d="M8.002 11.173a3.17 3.17 0 1 0 0-6.34 3.17 3.17 0 0 0 0 6.34Z"/><defs><linearGradient id="a" x1="1.072" x2="14.932" y1="5.003" y2="5.003" gradientUnits="userSpaceOnUse"><stop stop-color="#D93025"/><stop offset="1" stop-color="#EA4335"/></linearGradient><linearGradient id="b" x1="8.872" x2="1.942" y1="15.503" y2="3.503" gradientUnits="userSpaceOnUse"><stop stop-color="#1E8E3E"/><stop offset="1" stop-color="#34A853"/></linearGradient><linearGradient id="c" x1="6.832" x2="13.762" y1="16.003" y2="4.023" gradientUnits="userSpaceOnUse"><stop stop-color="#FCC934"/><stop offset="1" stop-color="#FBBC04"/></linearGradient></defs></svg>