<svg xmlns="http://www.w3.org/2000/svg" width="16" height="16" fill="none"><path fill="#7882FF" d="M15.848 5.612a6.813 6.813 0 0 0-1.647-3.823A6.822 6.822 0 0 0 10.378.142C8.963-.042 7.995.006 7.995.006s-.96-.048-2.383.136a6.798 6.798 0 0 0-3.815 1.647A6.798 6.798 0 0 0 .142 5.612C-.042 7.027.006 7.995.006 7.995s-.048.96.136 2.383c.2 1.488.72 2.831 1.655 3.815a6.797 6.797 0 0 0 3.815 1.655c1.415.184 2.383.136 2.383.136s.96.048 2.383-.136a6.782 6.782 0 0 0 3.815-1.655 6.775 6.775 0 0 0 1.648-3.815c.191-1.423.151-2.383.151-2.383s.056-.968-.136-2.383h-.008Z"/><path fill="#fff" d="M12.09 6.811a4.272 4.272 0 0 1-4.624 5.552A4.27 4.27 0 1 1 12.09 6.81Z"/><path fill="#fff" d="M12.09 6.811a4.255 4.255 0 0 1-.128 2.68Z"/><path fill="#fff" d="M12.026 6.811c.16.592.2 1.2.112 1.776l-.112-1.776Z"/><path fill="#4D5CC1" d="M10.834 10.954c-1.08 0-2.4-.28-3.703-.776a10.852 10.852 0 0 1-3.287-1.88C2.533 7.132 2.613 6.237 2.781 5.797c.16-.432.704-1.16 2.455-1.16 1.08 0 2.4.272 3.703.768 1.311.496 2.479 1.167 3.279 1.88 1.32 1.167 1.24 2.07 1.071 2.502-.16.432-.704 1.168-2.455 1.168ZM5.236 5.988c-.808 0-1.152.2-1.192.288-.032.096.096.48.704 1.015.68.6 1.72 1.2 2.863 1.624 1.144.44 2.32.688 3.223.688.816 0 1.16-.2 1.2-.296.032-.08-.096-.472-.704-1.008-.672-.6-1.72-1.2-2.863-1.632-1.152-.431-2.32-.68-3.231-.68Z"/><path fill="#fff" d="m4.044 6.292 7.982 3.03a4.27 4.27 0 0 0-7.982-3.03Z"/></svg>