<svg xmlns="http://www.w3.org/2000/svg" xml:space="preserve" style="fill-rule:evenodd;clip-rule:evenodd;stroke-linejoin:round;stroke-miterlimit:2" viewBox="0 0 32 32"><path d="M16.011 2.608c-7.537 0-13.63 6.138-13.63 13.732a13.72 13.72 0 0 0 9.32 13.026c.677.137.925-.295.925-.659 0-.318-.022-1.41-.022-2.546-3.792.818-4.581-1.637-4.581-1.637-.61-1.592-1.513-2-1.513-2-1.24-.842.09-.842.09-.842 1.377.091 2.1 1.41 2.1 1.41 1.218 2.091 3.181 1.5 3.971 1.136.113-.886.474-1.5.858-1.841-3.024-.318-6.206-1.5-6.206-6.775 0-1.5.541-2.728 1.399-3.683-.135-.341-.61-1.75.136-3.638 0 0 1.15-.364 3.746 1.41 1.11-.3 2.256-.454 3.407-.455 1.151 0 2.324.16 3.408.455 2.595-1.774 3.746-1.41 3.746-1.41.745 1.887.27 3.297.135 3.638.88.955 1.4 2.182 1.4 3.683 0 5.274-3.182 6.434-6.229 6.775.497.432.925 1.25.925 2.546 0 1.842-.022 3.32-.022 3.774 0 .364.248.796.925.66a13.72 13.72 0 0 0 9.32-13.027c.023-7.594-6.093-13.732-13.608-13.732"/></svg>
