<svg xmlns="http://www.w3.org/2000/svg" viewBox="0 0 32 32" xml:space="preserve" enable-background="new 0 0 32 32">
    <path d="M26.97 6c-.06.003-6.405.165-10.522-1.895L16 3.882l-.447.224C11.434 6.165 5.094 6.001 5.03 6L4 5.97V7c0 18.195 11.306 20.872 11.787 20.977l.213.046.213-.047C16.694 27.872 28 25.195 28 7V5.97L26.97 6zM16 25.967c-.688-.201-2.811-.965-4.924-3.172A5.02 5.02 0 0 1 15 20.889h2a5.02 5.02 0 0 1 3.924 1.907c-2.115 2.209-4.24 2.971-4.924 3.171zm6.215-4.724A7.02 7.02 0 0 0 17 18.889h-2a7.018 7.018 0 0 0-5.214 2.354C7.841 18.547 6.171 14.387 6.013 8c2.006-.036 6.49-.306 9.987-1.893C19.497 7.694 23.981 7.964 25.987 8c-.158 6.387-1.828 10.547-3.772 13.243z"/>
    <path d="M11.722 13.278a4.278 4.278 0 1 0 8.555 0 4.278 4.278 0 0 0-8.555 0zm6.556 0c0 1.256-1.022 2.278-2.278 2.278s-2.278-1.022-2.278-2.278S14.744 11 16 11s2.278 1.022 2.278 2.278z"/>
</svg>
