<svg xmlns="http://www.w3.org/2000/svg" viewBox="0 0 32 32" xml:space="preserve" enable-background="new 0 0 32 32">
    <path d="M12 15a3 3 0 1 0 0-6 3 3 0 0 0 0 6zm0-4c.551 0 1 .449 1 1s-.449 1-1 1-1-.449-1-1 .449-1 1-1zM13 16h-2c-2.757 0-5 2.243-5 5v2h12v-2c0-2.757-2.243-5-5-5zm-5 5c0-1.654 1.346-3 3-3h2c1.654 0 3 1.346 3 3H8z"/>
    <path d="M27 5H5C3.346 5 2 6.346 2 8v16c0 1.654 1.346 3 3 3h22c1.654 0 3-1.346 3-3V8c0-1.654-1.346-3-3-3zm1 19a1 1 0 0 1-1 1H5a1 1 0 0 1-1-1V8c0-.551.448-1 1-1h22c.552 0 1 .449 1 1v16z"/>
    <path d="M18 11h8v2h-8zM20 15h6v2h-6z"/>
</svg>
