<svg xmlns="http://www.w3.org/2000/svg" viewBox="0 0 32 32" xml:space="preserve" enable-background="new 0 0 32 32">
    <path d="M12 13a5.5 5.5 0 1 0 0-11 5.5 5.5 0 1 0 0 11zm0-9c1.93 0 3.5 1.57 3.5 3.5S13.93 11 12 11 8.5 9.43 8.5 7.5 10.07 4 12 4zM4 22c0-2.757 2.243-5 5-5h6c.386 0 .77.044 1.141.131l.455-1.948A7.065 7.065 0 0 0 15 15H9c-3.859 0-7 3.141-7 7v8h14v-2H4v-6z"/>
    <path d="M23 16c-3.859 0-7 3.141-7 7s3.141 7 7 7 7-3.141 7-7-3.141-7-7-7zm-5 7c0-1.017.309-1.962.833-2.753l6.92 6.92A4.969 4.969 0 0 1 23 28c-2.757 0-5-2.243-5-5zm9.167 2.753-6.92-6.92A4.969 4.969 0 0 1 23 18c2.757 0 5 2.243 5 5a4.969 4.969 0 0 1-.833 2.753z"/>
</svg>
