<svg xmlns="http://www.w3.org/2000/svg" viewBox="0 0 32 32" xml:space="preserve" enable-background="new 0 0 32 32">
    <path d="M28.13 14.887a3.018 3.018 0 0 0-4.26 0l-7.827 7.827c-.434.435-.78.938-1.029 1.493l-2.018 4.491 1.322 1.322 4.491-2.018a5.014 5.014 0 0 0 1.494-1.03l7.827-7.826a3.015 3.015 0 0 0 0-4.259zm-1.414 2.845-7.825 7.825a3.02 3.02 0 0 1-.9.621l-2.092.939.939-2.092c.15-.335.359-.638.62-.899l7.826-7.825c.197-.198.457-.296.716-.296.26 0 .519.099.716.296a1.016 1.016 0 0 1 0 1.431zM13 13a5.5 5.5 0 1 0 0-11 5.5 5.5 0 1 0 0 11zm0-9c1.93 0 3.5 1.57 3.5 3.5S14.93 11 13 11 9.5 9.43 9.5 7.5 11.07 4 13 4zM5 22c0-2.757 2.243-5 5-5h6a5 5 0 0 1 2.551.698l1.021-1.719A6.99 6.99 0 0 0 16 15h-6c-3.859 0-7 3.141-7 7v8h8.072v-2H5v-6z"/>
</svg>
