<svg xmlns="http://www.w3.org/2000/svg" viewBox="0 0 32 32" xml:space="preserve" enable-background="new 0 0 32 32">
    <path d="M27 18.184V17c0-2.206-1.794-4-4-4s-4 1.794-4 4v1.184A2.996 2.996 0 0 0 17 21v6c0 1.654 1.346 3 3 3h6c1.654 0 3-1.346 3-3v-6a2.996 2.996 0 0 0-2-2.816zM21 17c0-1.103.897-2 2-2s2 .897 2 2v1h-4v-1zm6 10a1 1 0 0 1-1 1h-6a1 1 0 0 1-1-1v-6a1 1 0 0 1 1-1h6a1 1 0 0 1 1 1v6z"/>
    <circle cx="23" cy="24" r="2"/>
    <path d="M13 13a5.5 5.5 0 1 0 0-11 5.5 5.5 0 1 0 0 11zm0-9c1.93 0 3.5 1.57 3.5 3.5S14.93 11 13 11 9.5 9.43 9.5 7.5 11.07 4 13 4zM16 15h-6c-3.859 0-7 3.141-7 7v8h12v-2H5v-6c0-2.757 2.243-5 5-5h6c.28 0 .562.023.834.069l.332-1.973A7.194 7.194 0 0 0 16 15z"/>
</svg>
