<svg xmlns="http://www.w3.org/2000/svg" viewBox="0 0 32 32" xml:space="preserve" enable-background="new 0 0 32 32">
    <path d="M12 13a5.5 5.5 0 1 0 0-11 5.5 5.5 0 1 0 0 11zm0-9c1.93 0 3.5 1.57 3.5 3.5S13.93 11 12 11 8.5 9.43 8.5 7.5 10.07 4 12 4zM4 22c0-2.757 2.243-5 5-5h6c.386 0 .77.044 1.141.131l.455-1.948A7.065 7.065 0 0 0 15 15H9c-3.859 0-7 3.141-7 7v8h14v-2H4v-6z"/>
    <path d="M22.983 16.1c-3.859 0-7 3.141-7 7s3.141 7 7 7 7-3.141 7-7-3.14-7-7-7zm0 12c-2.757 0-5-2.243-5-5s2.243-5 5-5 5 2.243 5 5-2.243 5-5 5z"/>
    <path d="M19.291 22.1h7.385v2h-7.385z"/>
</svg>
