<svg xmlns="http://www.w3.org/2000/svg" viewBox="0 0 32 32" xml:space="preserve" enable-background="new 0 0 32 32">
    <path d="M30 18.877A5.884 5.884 0 0 0 24.123 13H20c-2.269 0-4.255 1.419-5.081 3.447A6.382 6.382 0 0 0 12.581 16H8c-3.309 0-6 2.691-6 6v6h17v-4h11v-5.123zM17 26H4v-4c0-2.206 1.794-4 4-4h4.581A4.424 4.424 0 0 1 17 22.419V26zm11-4h-9.021a6.406 6.406 0 0 0-2.317-4.532A3.515 3.515 0 0 1 20 15h4.123A3.881 3.881 0 0 1 28 18.877V22z"/>
    <path d="M10.5 15a4.5 4.5 0 1 0 0-9 4.5 4.5 0 0 0 0 9zm0-7c1.378 0 2.5 1.121 2.5 2.5 0 1.378-1.122 2.5-2.5 2.5S8 11.878 8 10.5C8 9.121 9.122 8 10.5 8zM22.272 12a4 4 0 1 0 0-8 4 4 0 0 0 0 8zm0-6c1.103 0 2 .897 2 2s-.897 2-2 2-2-.897-2-2 .898-2 2-2z"/>
</svg>
