<svg fill="none" xmlns="http://www.w3.org/2000/svg" viewBox="0 0 25 24">
    <path fill-rule="evenodd" clip-rule="evenodd" d="M12.83 1.513h-1.5v5.244h1.5V1.513Zm2.336 15.835-2.652-1.94a.741.741 0 0 0-.883 0l-2.652 1.94.352-3.266a.74.74 0 0 0-.442-.764l-3.004-1.325 3.004-1.326c.3-.135.48-.442.442-.764l-.352-3.266 2.652 1.94a.742.742 0 0 0 .883 0l2.652-1.94-.352 3.266a.734.734 0 0 0 .442.764l3.004 1.325-3.004 1.326a.746.746 0 0 0-.442.764l.352 3.266Zm-3.094-3.58c.428 0 .862.127 1.237.374A2.251 2.251 0 0 1 14.543 12a2.239 2.239 0 0 1-1.236-2.142 2.245 2.245 0 0 1-2.471 0A2.252 2.252 0 0 1 9.6 12a2.24 2.24 0 0 1 1.236 2.142 2.255 2.255 0 0 1 1.236-.374ZM2.624 7.407l.749-1.298 4.54 2.622-.748 1.298-4.541-2.622Zm4.54 6.569-4.542 2.62.75 1.298 4.54-2.62-.748-1.298Zm4.167 3.268h1.498v5.243h-1.498v-5.243Zm5.666-3.272-.749 1.298 4.541 2.622.75-1.298-4.542-2.622Zm-.752-5.238 4.541-2.62.75 1.297-4.542 2.62-.749-1.297ZM7.96 5.61a.75.75 0 1 0 0-1.498.75.75 0 0 0 0 1.498ZM4.59 12a.75.75 0 1 1-1.499 0 .75.75 0 0 1 1.498 0Zm3.37 7.88a.749.749 0 1 0 0-1.498.749.749 0 0 0 0 1.498Zm8.989-.749a.749.749 0 1 1-1.498 0 .749.749 0 0 1 1.498 0Zm3.37-6.382a.75.75 0 1 0 0-1.498.75.75 0 0 0 0 1.498Zm-3.37-7.888a.749.749 0 1 1-1.498 0 .749.749 0 0 1 1.498 0Z"/>
</svg>
