<svg xmlns="http://www.w3.org/2000/svg" viewBox="0 0 32 32" xml:space="preserve" enable-background="new 0 0 32 32">
    <path d="m19.305 9.515-4.849 4.849-1.761-1.761-1.414 1.414 3.175 3.175 6.263-6.263z"/>
    <path d="M24.331 20.038c.504-.906.555-2 .089-2.981a.706.706 0 0 1 .402-.972C26.146 15.615 27 14.404 27 13s-.854-2.615-2.178-3.085a.705.705 0 0 1-.417-.397.704.704 0 0 1 .015-.575 3.237 3.237 0 0 0-.643-3.721 3.24 3.24 0 0 0-3.721-.642.704.704 0 0 1-.971-.402C18.615 2.854 17.403 2 16 2s-2.615.854-3.086 2.178a.701.701 0 0 1-.396.417.7.7 0 0 1-.575-.015 3.24 3.24 0 0 0-3.721.642 3.24 3.24 0 0 0-.642 3.721c.117.247.06.466.015.575a.705.705 0 0 1-.417.397C5.854 10.385 5 11.596 5 13s.854 2.615 2.178 3.085a.705.705 0 0 1 .417.397.7.7 0 0 1-.015.575 3.235 3.235 0 0 0 .089 2.982l-3.455 5.984 4.5.204 2.428 3.796 3.62-6.27c.384.155.799.247 1.238.247s.854-.092 1.239-.247l3.62 6.27 2.428-3.796 4.5-.204-3.456-5.985zm-13.277 6.135-1.213-1.897-2.25-.103 1.581-2.737a3.232 3.232 0 0 0 2.772-.016.694.694 0 0 1 .574-.015.701.701 0 0 1 .396.417c.078.219.183.42.299.612l-2.159 3.739zM16 22c-.211 0-.922-.062-1.201-.848a2.715 2.715 0 0 0-2.552-1.801c-.398 0-.796.088-1.163.262-.751.357-1.3-.101-1.447-.25-.149-.148-.608-.694-.25-1.448a2.71 2.71 0 0 0-1.539-3.714C7.062 13.921 7 13.211 7 13s.062-.921.848-1.201a2.71 2.71 0 0 0 1.539-3.715c-.358-.754.101-1.299.25-1.449.148-.149.697-.607 1.447-.25a2.712 2.712 0 0 0 3.715-1.538C15.078 4.061 15.789 4 16 4s.921.061 1.201.848a2.712 2.712 0 0 0 3.715 1.538c.75-.359 1.299.101 1.447.25.149.149.608.695.25 1.449a2.713 2.713 0 0 0 1.539 3.715c.786.279.848.989.848 1.2s-.062.921-.848 1.201a2.71 2.71 0 0 0-1.539 3.715c.358.753-.101 1.299-.25 1.447-.148.149-.696.609-1.447.25a2.713 2.713 0 0 0-3.715 1.539c-.279.786-.99.848-1.201.848zm6.159 2.275-1.213 1.897-2.159-3.739a3.37 3.37 0 0 0 .299-.612.704.704 0 0 1 .396-.417.69.69 0 0 1 .574.015 3.228 3.228 0 0 0 2.772.016l1.581 2.736-2.25.104z"/>
</svg>
