<svg xmlns="http://www.w3.org/2000/svg" viewBox="0 0 32 32" xml:space="preserve" enable-background="new 0 0 32 32">
    <path d="M16 2C8.268 2 2 8.268 2 16s6.268 14 14 14 14-6.268 14-14S23.732 2 16 2zm0 26C9.383 28 4 22.617 4 16S9.383 4 16 4s12 5.383 12 12-5.383 12-12 12z"/>
    <path d="M15 22h2v2h-2zM16 8a4.505 4.505 0 0 0-4.5 4.5v.875h2V12.5c0-1.378 1.121-2.5 2.5-2.5s2.5 1.122 2.5 2.5v.305c0 .668-.261 1.297-.733 1.77L15 17.335V20h2v-1.835l2.18-2.175a4.471 4.471 0 0 0 1.32-3.185V12.5c0-2.481-2.019-4.5-4.5-4.5z"/>
</svg>
