<svg xmlns="http://www.w3.org/2000/svg" viewBox="0 0 32 32" xml:space="preserve" enable-background="new 0 0 32 32">
    <path d="M25.899 6.1C23.166 3.367 19.583 2 16 2S8.834 3.367 6.101 6.1c-5.467 5.467-5.467 14.332 0 19.799C8.834 28.633 12.417 30 16 30s7.166-1.367 9.899-4.101c5.468-5.467 5.468-14.331 0-19.799zm-1.414 18.385C22.219 26.752 19.205 28 16 28s-6.219-1.248-8.485-3.515C5.248 22.219 4 19.205 4 16s1.248-6.219 3.515-8.485C9.781 5.248 12.795 4 16 4s6.219 1.248 8.485 3.515S28 12.795 28 16s-1.248 6.219-3.515 8.485z"/>
    <path d="M20.814 9.771 16 14.586l-4.814-4.815-1.415 1.414L14.586 16l-4.815 4.814 1.415 1.415L16 17.414l4.814 4.815 1.415-1.415L17.414 16l4.815-4.815z"/>
</svg>
