<svg xmlns="http://www.w3.org/2000/svg" xml:space="preserve" style="fill-rule:evenodd;clip-rule:evenodd;stroke-linejoin:round;stroke-miterlimit:2" viewBox="0 0 128 128"><path d="M17.04 53.98h-.01v.01l.01-.01Z" style="fill:#00C3CD;fill-rule:nonzero" transform="translate(8.07 .007) scale(1.74212)"/><path d="M64.15 18.92a1.003 1.003 0 0 0-.51-.87 1.093 1.093 0 0 0-.39-.12L32.42.13a1.003 1.003 0 0 0-1 0L.6 18.05a1 1 0 0 0-.48.71.752.752 0 0 0 0 .15L0 54.56c-.001.358.19.691.5.87l31 17.91c.152.086.325.131.5.13h.21c.175.001.348-.044.5-.13l31-17.91c.31-.179.501-.512.5-.87l-.06-35.64ZM31.1 44.09 17.09 36l-.06.1v2.17l14.06 8.12L31 70.75 2 54v-6.37l14 8.09V53.4L2 45.31l.1-24.66 29 16.75v6.69Zm1-8.42-29-16.76L31.92 2.16 45.57 10l-13.91 8.12 2 1.14 13.94-8.07L61 18.91 32.1 35.67Zm1.1 35.07-.07-33.34 13.65-7.88v16.1l2-1.18V28.37l13.37-7.72.09 33.35L33.2 70.74Z" style="fill:#00C3CD;fill-rule:nonzero" transform="translate(8.07 .007) scale(1.74212)"/></svg>