<svg xmlns="http://www.w3.org/2000/svg" xml:space="preserve" style="fill-rule:evenodd;clip-rule:evenodd;stroke-linejoin:round;stroke-miterlimit:2" viewBox="0 0 300 300"><path d="M130.43 0C25.6 0 0 29.49 0 150.25S25.6 300 130.43 300s130.92-30.79 130.92-149.75S234.42 0 130.43 0m0 286.4c-96.08 0-116.82-24.18-116.82-136.14C13.6 59.93 27.04 26.55 82.18 16.91c-5.31 14.77-9.47 36.83-13.81 61.52-.96 5.48-1.83 10.42-2.62 14.49-3.43 14.49-4.19 33.3-4.19 57.33 0 68.45 6.23 96.34 68.87 96.34 22.61 0 45.17-2.54 57.14-20.97 9.8-15.09 11.72-39.06 11.72-75.37 0-70.28-5.94-96.84-68.86-96.84-20.76 0-35.23 2.97-45.42 9.37 3.43-18.28 7.76-38.1 12.75-47.91 9.78-.89 20.63-1.27 32.66-1.27 96.48 0 117.31 24.26 117.31 136.65S226.9 286.39 130.42 286.39zm0-219.38c48.03 0 55.26 10.89 55.26 83.23s-7.23 82.73-55.26 82.73-55.26-10.83-55.26-82.73c0-21.95.69-38.18 2.96-50.23h.07c.25-1.14.51-2.43.78-3.81 5.76-24.29 19.62-29.19 51.45-29.19" style="fill:#fff;fill-rule:nonzero" transform="translate(55.708 41.764)scale(.72157)"/></svg>