<svg xmlns="http://www.w3.org/2000/svg" viewBox="0 0 56 56"><path d="M48.16 24.48c-1.44-8.17-3.21-14.28-7.18-17.56-3.54-2.93-8.5-3.5-17.09-1.98C7.91 7.75 4.61 13.23 7.84 31.58c2.62 14.87 6.4 20.29 16.3 20.29 2.28 0 4.89-.29 7.89-.82 16.05-2.83 19.36-8.3 16.14-26.58Zm-27.8-2.67c0-.12.02-.28.03-.42.68-4.95 2.64-5.5 7.57-5.5 6.58 0 7.88.97 7.88 12.14 0 3.14-.11 5.45-.41 7.18h-.01v.11c-.77 4.27-2.77 4.78-7.45 4.78-6.58 0-7.88-.97-7.88-12.06 0-2.59.07-4.61.26-6.22h.02Zm11.12 26.13c-14.16 2.49-17.59-.36-20.51-16.9C8.45 16.76 9.8 11.9 19.2 9.24c-.69 3.49-1.77 9.12-1.97 11.91-.25 1.93-.32 4.22-.32 6.88 0 10.59 1.05 15.24 11.05 15.24 2.81 0 4.89-.38 6.46-1.14-.37 2.03-.76 4.04-1.04 5.44-.62.12-1.23.25-1.9.37m5.29-1.19c.85-4.38 1.67-8.85 1.79-11.15.35-2.07.44-4.58.44-7.58 0-10.65-1.05-15.31-11.05-15.31-2.78 0-4.85.37-6.41 1.12.32-1.73.64-3.37.88-4.55l.17-.87c.6-.12 1.2-.24 1.85-.36 2.9-.51 5.3-.77 7.32-.77 3.26 0 5.51.68 7.2 2.07 2.76 2.28 4.52 6.82 6.08 15.66 2.51 14.21 1.15 19.06-8.27 21.73Z" style="fill:#fff;stroke-width:0"/></svg>