<svg xmlns="http://www.w3.org/2000/svg" xml:space="preserve" id="Ebene_1" x="0" y="0" version="1.1" viewBox="0 0 430.2 163.1"><style>.st0{fill:#f8ec17}.st2{fill:#045462}.st3{fill:#fff}</style><path d="M430.2 59.5 350 107.1V0h80.2z" class="st0"/><linearGradient id="SVGID_1_" x1="412.51" x2="335.77" y1="162.07" y2="60.41" gradientTransform="matrix(1 0 0 -1 0 162.12)" gradientUnits="userSpaceOnUse"><stop offset="0" style="stop-color:#000;stop-opacity:.4"/><stop offset="1" style="stop-color:#1d1d1b;stop-opacity:.1"/></linearGradient><path d="M430.2 59.5 350 107.1V0h80.2z" style="fill:url(#SVGID_1_)"/><path d="M0 28.5h392v134.7H0z" class="st2"/><path d="m56.4 59.5-8.9 41.4h22.1l4.8-22.3h51.1l4.1-19.1z" class="st3"/><path d="M91.2 90.6 86.4 113H35.1L31 132.1h73.4l8.9-41.5zm57.3 26.7c2.5 2.5 6 3.9 9.5 3.9 5.6 0 9.1-3.6 9.1-8.1 0-9.9-15-7.8-15-15 0-2.6 2.5-5.2 6.3-5.2 2.4 0 4.8 1 6.6 2.6l1.5-2.5c-2.2-1.9-5.1-3-8-2.9-5.6 0-9.4 3.8-9.4 8.1 0 9.3 15 7.4 15 15 0 3.2-2.7 5.2-6 5.2-2.9-.1-5.7-1.2-7.9-3.3zm38.8 3.3h2.9V93.2H201v-2.6h-24.5v2.6h10.8zm44 0h3.1l-11-30h-3.2l-11 30h3.1l9.5-26.9h.1zm15.4-15.2c0 8.8 6.3 15.7 15.2 15.7 4.3.1 8.4-1.6 11.5-4.7l-1.7-2.1c-2.6 2.5-6.1 4-9.7 4-7.1 0-12.2-5.9-12.2-13s5-12.6 12.1-12.6c3.3 0 6.6 1.2 9.1 3.3l1.6-2.2s-3.6-3.9-10.8-3.9c-8.6.2-15.1 6.8-15.1 15.5m39.7.8 8.6 14.4h3.5l-9.6-15.8 9-14.2h-3.4l-8.1 13-.9 1.3zM314 90h7.5v30.5H314zm21.3 0v6.5h9.3v24.1h7.4V96.5h9.3V90z" class="st3"/><path d="M430.2 59.5H172.8L185.6 0h244.6z" class="st0"/><path d="M228.9 17h7.5c1.6-.1 3.2.1 4.8.7 2.4 1 3.8 3.5 3.8 6.5.2 3.1-1.8 6-4.8 6.9v.1c.2.3.5.7.6 1l5.5 10.2h-2.9l-5.8-10.7h-6.4v10.7h-2.5zm8.5 12.6c3.1 0 5-2 5-5.2.1-1.8-.8-3.5-2.3-4.4-1.1-.5-2.4-.7-3.6-.6h-5.1v10.2zM251.3 17h2.5v16.5c0 4.4 2.8 7 7.2 7s7.2-2.6 7.2-7.1V17h2.5v16.5c0 5.6-4 9.3-9.7 9.3s-9.8-3.7-9.8-9.3zm26.5 0h2.4l13 18.3c.9 1.3 2.1 3.4 2.1 3.4h.1s-.2-2.1-.2-3.4V17h2.5v25.4h-2.4l-13-18.3c-.9-1.3-2.1-3.4-2.1-3.4s.2 2.1.2 3.4v18.3h-2.5zm26.8 20.7c1.8 1.7 4.2 2.7 6.7 2.8 2.8 0 5.1-1.7 5.1-4.4 0-6.4-12.7-4.8-12.7-12.7 0-3.6 3.2-6.8 7.9-6.8 2.5-.1 4.9.8 6.8 2.5l-1.2 2.1c-1.5-1.4-3.5-2.1-5.6-2.2-3.3 0-5.4 2.1-5.4 4.4 0 6 12.7 4.3 12.7 12.7 0 3.8-2.9 6.9-7.7 6.9-3 0-5.9-1.1-8.1-3.3zm40.8-21.1c7.1-.1 12.9 5.7 12.9 12.8v.2c.7 7.1-4.6 13.5-11.8 14.1-7.1.7-13.5-4.6-14.1-11.8q-.15-1.2 0-2.4c-.1-7.1 5.6-12.9 12.7-13 .1.1.2.1.3.1m0 24c5.7 0 10.3-4.8 10.3-11 .2-5.7-4.3-10.5-10-10.7s-10.5 4.3-10.7 10v.6c0 6.3 4.6 11.1 10.4 11.1M363.9 17h2.4l13 18.3c.9 1.3 2.1 3.4 2.1 3.4h.1s-.2-2.1-.2-3.4V17h2.5v25.4h-2.4l-13-18.3c-.9-1.3-2.1-3.4-2.1-3.4h-.1s.2 2.1.2 3.4v18.3h-2.5z" class="st2"/><linearGradient id="SVGID_2_" x1="282.365" x2="282.365" y1="102.77" y2="93.27" gradientTransform="matrix(1 0 0 -1 0 162.12)" gradientUnits="userSpaceOnUse"><stop offset="0" style="stop-color:#000;stop-opacity:.2"/><stop offset="1" style="stop-color:#000;stop-opacity:0"/></linearGradient><path d="M172.8 59.5H392v9.7H172.8z" style="fill:url(#SVGID_2_)"/></svg>