<?xml version="1.0" encoding="utf-8"?>
<!-- Generator: Adobe Illustrator 28.0.0, SVG Export Plug-In . SVG Version: 6.00 Build 0)  -->
<svg version="1.1" xmlns="http://www.w3.org/2000/svg" xmlns:xlink="http://www.w3.org/1999/xlink" x="0px" y="0px"
	 viewBox="0 0 181.417 87.874" style="enable-background:new 0 0 181.417 87.874;" xml:space="preserve">
<style type="text/css">
	.st0{fill:#1D1D1B;}
	.st1{fill:#FFFFFF;}
	.st2{fill:#0050AA;}
	.st3{fill:#E60A14;}
	.st4{fill:#FFF000;}
	.st5{fill:#00549B;}
	.st6{fill:#E3000F;}
	.st7{fill:#003D4A;}
	.st8{fill:#A5C814;}
	.st9{fill:#9D9D9D;}
	.st10{fill:none;stroke:#878787;stroke-width:1.25;stroke-miterlimit:10;}
	.st11{fill:#FFFFFF;stroke:#FFFFFF;stroke-width:1.25;stroke-miterlimit:10;}
	.st12{fill:none;stroke:#1D1D1B;stroke-width:1.25;stroke-miterlimit:10;}
	.st13{fill:#003769;}
	.st14{fill:#0A1E2D;}
	.st15{fill:#00C3CC;}
</style>
<g id="Hintergrundflächen">
</g>
<g id="Logos">
	<rect class="st1" width="181.417" height="87.874"/>
	<g>
		<g>
			<g>
				<rect x="12.758" y="39.104" class="st9" width="155.904" height="3.41"/>
			</g>
		</g>
		<g>
			<polygon class="st9" points="99.695,13.282 97.01,26.766 96.948,26.766 94.413,13.282 88.563,13.282 85.969,26.586 85.91,26.586 
				83.285,13.282 76.77,13.282 82.622,34.821 89.105,34.821 91.37,21.699 91.43,21.699 93.752,34.821 100.207,34.821 
				106.241,13.282 			"/>
			<path class="st9" d="M110.914,13.282l-7.934,21.539h6.668l0.965-3.078h6.847l0.907,3.078h6.877L117.4,13.282H110.914z
				 M112.061,27.129l2.082-6.637h0.058l1.932,6.637H112.061z"/>
			<path class="st9" d="M143.584,24.836c2.204-0.814,3.23-3.168,3.23-5.401c0-4.07-3.259-6.153-7.028-6.153h-12.64v21.539h6.634
				V27.31h3.53c2.627,0,2.807,2.141,2.986,4.191c0.093,1.117,0.214,2.233,0.545,3.319h6.637c-0.602-0.996-0.635-3.559-0.724-4.616
				C146.512,27.521,145.395,25.529,143.584,24.836z M137.251,22.694h-3.471v-4.282h3.11c2.531,0,3.286,0.783,3.286,2.142
				C140.176,22.484,138.486,22.694,137.251,22.694z"/>
			<polygon class="st9" points="158.073,29.3 168.179,18.109 168.179,13.282 149.992,13.282 149.992,18.804 159.431,18.804 
				149.418,29.632 149.418,34.821 168.663,34.821 168.663,29.3 			"/>
			<path class="st9" d="M26.121,21.699c-3.047-0.846-6.123-1.177-6.244-2.715c0-1.206,1.478-1.449,2.384-1.449
				c0.663,0,1.418,0.15,1.96,0.544c0.544,0.362,0.906,0.905,0.785,1.719h6.274c-0.181-5.249-4.314-7.029-8.989-7.029
				c-4.434,0-8.688,2.142-8.688,7.119c0,4.344,3.892,5.278,7.301,6.244c3.71,1.056,4.644,1.358,4.644,2.472
				c0,1.599-1.658,1.961-2.745,1.961c-1.237,0-2.685-0.271-3.167-1.568c-0.151-0.393-0.241-0.874-0.241-1.418h-6.637
				c0.06,6.878,7.028,7.753,9.471,7.753c4.797,0,9.954-1.809,9.954-7.42C32.184,23.963,29.168,22.543,26.121,21.699z"/>
			<polygon class="st9" points="68.576,20.763 62.361,20.763 62.361,13.282 55.725,13.282 55.725,34.821 62.361,34.821 
				62.361,26.284 68.576,26.284 68.576,34.821 75.213,34.821 75.213,13.282 68.576,13.282 			"/>
			<path class="st9" d="M43.917,29.965c-3.106,0-4.103-3.018-4.103-5.912c0-2.897,0.997-5.912,4.103-5.912
				c2.746,0,3.349,2.383,3.469,3.166h6.455c-0.573-5.399-3.83-8.507-9.743-8.536c-6.635,0-10.92,4.494-10.92,11.282
				c0,6.364,3.952,11.281,10.92,11.281c6.305,0,9.833-4.615,9.833-8.959h-6.515C47.024,28.397,46.15,29.965,43.917,29.965z"/>
		</g>
		<g>
			<polygon class="st2" points="12.757,47.63 40.241,47.63 40.241,75.114 12.757,75.114 12.757,47.63 			"/>
			<path class="st3" d="M26.498,48.358c-7.184,0-13.013,5.829-13.013,13.018c0,7.184,5.829,13.011,13.013,13.011
				c7.184,0,13.014-5.827,13.014-13.011C39.511,54.187,33.682,48.358,26.498,48.358L26.498,48.358z"/>
			<path class="st4" d="M26.498,49.182c-6.732,0-12.189,5.46-12.189,12.194c0,6.727,5.46,12.187,12.189,12.187
				c6.729,0,12.189-5.46,12.189-12.187C38.687,54.642,33.227,49.182,26.498,49.182L26.498,49.182L26.498,49.182z"/>
			<polygon class="st2" points="31.855,59.109 31.855,59.936 32.498,59.936 32.498,62.808 31.855,62.808 31.855,63.64 37.274,63.64 
				37.274,61.376 35.051,62.611 35.051,59.936 35.693,59.936 35.693,59.109 31.855,59.109 			"/>
			<path class="st2" d="M29.207,62.227h-0.182v-1.71h0.153C29.978,60.515,29.978,62.23,29.207,62.227L29.207,62.227z M29.72,59.109
				h-3.655v0.827h0.64v2.872h-0.64v0.832h3.655C32.422,63.64,32.449,59.109,29.72,59.109L29.72,59.109z"/>
			<polygon class="st3" points="25.741,61.714 23.589,59.564 21.109,62.047 21.109,62.881 21.734,62.254 23.465,63.99 
				22.826,64.628 23.241,65.046 26.705,61.578 26.705,60.746 25.741,61.714 			"/>
			<path class="st3" d="M23.273,56.534c0.754,0,1.364,0.608,1.364,1.362c0,0.754-0.61,1.364-1.364,1.364s-1.364-0.61-1.364-1.364
				C21.909,57.139,22.519,56.534,23.273,56.534L23.273,56.534L23.273,56.534z"/>
			<polygon class="st2" points="15.695,59.109 19.528,59.109 19.528,59.936 18.888,59.936 18.888,62.611 21.109,61.376 
				21.109,63.64 15.695,63.64 15.695,62.808 16.337,62.808 16.337,59.936 15.695,59.936 15.695,59.109 			"/>
		</g>
		<g>
			<rect x="44.863" y="47.63" class="st1" width="27.484" height="27.484"/>
			<path class="st6" d="M71.213,73.981H45.996V48.764h25.217V73.981L71.213,73.981z M44.863,47.63L44.863,47.63v27.484h27.484V47.63
				"/>
			<polygon class="st6" points="58.541,58.415 53.515,58.415 53.515,63.441 58.541,63.441 58.541,58.415 			"/>
			<polygon class="st6" points="59.297,58.413 59.297,63.441 64.326,63.441 59.297,58.413 			"/>
			<polygon class="st6" points="58.541,52.634 53.515,52.634 53.515,57.66 58.541,57.66 58.541,52.634 			"/>
			<polygon class="st6" points="59.297,52.634 59.297,57.662 64.326,52.634 59.297,52.634 			"/>
			<polygon class="st6" points="51.157,66.413 50.23,66.413 49.032,68.085 49.032,66.413 48.214,66.413 48.214,70.059 
				49.032,70.059 49.032,68.418 50.23,70.059 51.178,70.059 49.772,68.194 51.157,66.413 			"/>
			<path class="st6" d="M55.88,69.226c-0.094,0.12-0.26,0.276-0.521,0.276c-0.297,0-0.474-0.193-0.474-0.51v-1.36h-0.714v1.5
				c0,0.573,0.328,0.979,0.932,0.979c0.401,0,0.651-0.208,0.776-0.344v0.292h0.703v-2.427H55.88V69.226L55.88,69.226z"/>
			<path class="st6" d="M62.352,69.283c-0.099,0.109-0.266,0.229-0.516,0.229c-0.375,0-0.641-0.271-0.641-0.667
				c0-0.396,0.266-0.667,0.641-0.667c0.25,0,0.417,0.12,0.516,0.229V69.283L62.352,69.283z M62.352,67.887
				c-0.146-0.141-0.396-0.307-0.745-0.307c-0.677,0-1.146,0.563-1.146,1.276c0,0.703,0.464,1.255,1.146,1.255
				c0.37,0,0.615-0.172,0.745-0.302v0.25h0.703v-2.427h-0.703V67.887L62.352,67.887z"/>
			<path class="st6" d="M52.966,69.283c-0.099,0.109-0.266,0.229-0.516,0.229c-0.375,0-0.641-0.271-0.641-0.667
				c0-0.396,0.266-0.667,0.641-0.667c0.25,0,0.417,0.12,0.516,0.229V69.283L52.966,69.283z M52.966,67.887
				c-0.146-0.141-0.396-0.307-0.745-0.307c-0.677,0-1.146,0.563-1.146,1.276c0,0.703,0.464,1.255,1.146,1.255
				c0.37,0,0.615-0.172,0.745-0.302v0.25h0.703v-2.427h-0.703V67.887L52.966,67.887z"/>
			<path class="st6" d="M68.292,69.252c-0.094,0.12-0.271,0.26-0.542,0.26c-0.375,0-0.641-0.271-0.641-0.667
				c0-0.396,0.266-0.667,0.641-0.667c0.271,0,0.448,0.141,0.542,0.26V69.252L68.292,69.252z M68.292,66.413v1.495
				c-0.125-0.13-0.38-0.328-0.771-0.328c-0.682,0-1.146,0.563-1.146,1.276c0,0.714,0.474,1.255,1.146,1.255
				c0.391,0,0.646-0.193,0.771-0.328v0.276h0.703v-3.646H68.292L68.292,66.413z"/>
			<path class="st6" d="M65.05,67.58c-0.396,0-0.651,0.208-0.771,0.344v-0.292H63.57v2.427h0.708v-1.594
				c0.089-0.125,0.255-0.276,0.521-0.276c0.297,0,0.469,0.193,0.469,0.51v1.36h0.714v-1.5C65.982,67.986,65.654,67.58,65.05,67.58
				L65.05,67.58z"/>
			<path class="st6" d="M58.453,66.949c0.24,0,0.38,0.104,0.38,0.104l0.115-0.542c0,0-0.193-0.151-0.651-0.151
				c-0.594,0-0.964,0.344-0.964,0.984v0.287h-0.359v0.583h0.359v1.844h0.724v-1.844h0.823v-0.583h-0.823v-0.224
				C58.057,67.1,58.198,66.949,58.453,66.949L58.453,66.949z"/>
			<polygon class="st6" points="59.289,70.059 60.013,70.059 60.013,66.413 59.289,66.413 59.289,70.059 			"/>
		</g>
		<g>
			<rect x="109.073" y="47.633" class="st7" width="27.484" height="27.484"/>
			<path class="st8" d="M126.25,57.397c-1.439,0-2.609,1.173-2.609,2.615v1.212c0,0.163,0.132,0.295,0.295,0.295
				s0.295-0.132,0.295-0.295v-1.212c0-1.116,0.906-2.024,2.02-2.024h6.118v4.743c0,1.116-0.906,2.024-2.02,2.024h-2.03
				c-0.163,0-0.295,0.132-0.295,0.295s0.132,0.302,0.295,0.302h2.03c1.439,0,2.609-1.18,2.609-2.622v-5.334H126.25z"/>
			<path class="st1" d="M126.36,62.34h-1.839c-0.485,0-0.88,0.389-0.88,0.876v1.249c0,0.486,0.395,0.889,0.88,0.889h1.839
				c0.485,0,0.88-0.402,0.88-0.889v-1.249C127.24,62.729,126.845,62.34,126.36,62.34 M126.65,64.464c0,0.16-0.13,0.291-0.29,0.291
				h-1.839c-0.16,0-0.29-0.13-0.29-0.291v-1.249c0-0.16,0.13-0.291,0.29-0.291h1.839c0.16,0,0.29,0.131,0.29,0.291V64.464z
				 M123.198,62.635c0,0.163-0.127,0.296-0.29,0.296l-1.022,0.001c-0.16,0-0.29,0.13-0.29,0.291v1.836
				c0,0.163-0.132,0.295-0.295,0.295c-0.163,0-0.295-0.131-0.295-0.295v-1.836c0-0.486,0.395-0.882,0.88-0.882l1.017,0
				C123.066,62.34,123.198,62.471,123.198,62.635 M119.455,62.339h-1.803c-0.485,0-0.88,0.396-0.88,0.882v1.25
				c0,0.486,0.395,0.882,0.88,0.882h1.799c0.163,0,0.295-0.132,0.295-0.295c0-0.163-0.132-0.296-0.295-0.296h-1.799
				c-0.16,0-0.29-0.13-0.29-0.291v-0.364h2.094c0.485,0,0.88-0.396,0.88-0.885C120.335,62.735,119.94,62.339,119.455,62.339
				 M119.455,63.516h-2.094v-0.294c0-0.16,0.13-0.291,0.29-0.291h1.803c0.16,0,0.29,0.13,0.29,0.294
				C119.745,63.385,119.615,63.516,119.455,63.516 M116.235,65.056c0,0.163-0.132,0.296-0.295,0.296l-2.973,0.001
				c-0.124,0-0.235-0.078-0.277-0.195c-0.042-0.117-0.007-0.248,0.089-0.328l2.34-1.9h-2.152c-0.163,0-0.295-0.132-0.295-0.295
				c0-0.163,0.132-0.296,0.295-0.296h2.966c0.124,0,0.235,0.078,0.277,0.195c0.042,0.117,0.007,0.248-0.089,0.328l-2.384,1.9
				l2.202-0.001C116.103,64.761,116.235,64.893,116.235,65.056 M122.313,57.397h-1.803c-0.485,0-0.88,0.396-0.88,0.882v1.25
				c0,0.486,0.395,0.882,0.88,0.882h1.799c0.163,0,0.295-0.132,0.295-0.295s-0.132-0.295-0.295-0.295h-1.799
				c-0.16,0-0.29-0.13-0.29-0.291v-0.364h2.094c0.485,0,0.88-0.396,0.88-0.885C123.193,57.792,122.799,57.397,122.313,57.397
				 M122.313,58.573h-2.094v-0.294c0-0.16,0.13-0.291,0.29-0.291h1.803c0.16,0,0.29,0.13,0.29,0.294
				C122.604,58.443,122.473,58.573,122.313,58.573 M119.182,57.692c0,0.163-0.127,0.295-0.29,0.295l-1.022,0.001
				c-0.16,0-0.29,0.13-0.29,0.291v1.836c0,0.163-0.132,0.295-0.295,0.295c-0.163,0-0.295-0.131-0.295-0.295v-1.836
				c0-0.486,0.395-0.882,0.88-0.882l1.016,0C119.05,57.397,119.182,57.528,119.182,57.692 M112.967,61.51
				c0.163,0,0.295-0.132,0.295-0.295v-0.804h2.089c0.485,0,0.88-0.396,0.88-0.882v-1.251c0-0.486-0.395-0.882-0.88-0.882h-1.799
				c-0.485,0-0.88,0.396-0.88,0.882v2.936C112.673,61.378,112.805,61.51,112.967,61.51 M113.262,58.279
				c0-0.16,0.13-0.291,0.29-0.291h1.799c0.16,0,0.29,0.13,0.29,0.291v1.251c0,0.16-0.13,0.291-0.29,0.291h-2.089V58.279z"/>
		</g>
		<g>
			<rect x="76.968" y="47.633" class="st13" width="27.484" height="27.484"/>
			<g>
				<g>
					<rect x="78.849" y="60.694" class="st1" width="23.954" height="0.524"/>
				</g>
				<g>
					<polygon class="st1" points="90.58,60.036 90.928,58.02 90.937,58.02 91.294,60.036 92.285,60.036 93.213,56.727 
						92.207,56.727 91.794,58.798 91.785,58.798 91.395,56.727 90.496,56.727 90.098,58.771 90.089,58.771 89.685,56.727 
						88.684,56.727 89.584,60.036 					"/>
					<path class="st1" d="M94.427,57.835h0.009l0.297,1.019h-0.626L94.427,57.835z M93.736,60.036l0.148-0.473h1.052l0.14,0.473
						h1.056l-1.205-3.309h-0.996l-1.219,3.309H93.736z"/>
					<g>
						<path class="st1" d="M97.444,57.515h0.478c0.389,0,0.505,0.12,0.505,0.329c0,0.297-0.26,0.329-0.449,0.329h-0.533V57.515z
							 M97.444,58.882h0.542c0.403,0,0.431,0.329,0.459,0.644c0.014,0.171,0.033,0.343,0.084,0.51h1.019
							c-0.093-0.153-0.097-0.547-0.111-0.709c-0.037-0.413-0.209-0.718-0.487-0.825c0.339-0.125,0.496-0.487,0.496-0.83
							c0-0.625-0.501-0.945-1.08-0.945h-1.942v3.309h1.019V58.882z"/>
					</g>
					<polygon class="st1" points="101.176,59.188 102.728,57.468 102.728,56.727 99.934,56.727 99.934,57.575 101.384,57.575 
						99.846,59.239 99.846,60.036 102.803,60.036 102.803,59.188 					"/>
					<g>
						<path class="st1" d="M80.392,59.383c-0.19,0-0.413-0.042-0.487-0.241c-0.023-0.06-0.037-0.134-0.037-0.218h-1.02
							c0.009,1.057,1.08,1.191,1.456,1.191c0.737,0,1.529-0.278,1.529-1.14c0-0.607-0.463-0.825-0.932-0.955
							s-0.941-0.181-0.959-0.417c0-0.185,0.227-0.222,0.366-0.222c0.102,0,0.218,0.023,0.301,0.083
							c0.083,0.056,0.139,0.139,0.121,0.264h0.964c-0.028-0.807-0.663-1.08-1.381-1.08c-0.682,0-1.335,0.329-1.335,1.094
							c0,0.667,0.598,0.811,1.122,0.96c0.57,0.162,0.714,0.209,0.714,0.38C80.814,59.327,80.559,59.383,80.392,59.383"/>
					</g>
					<polygon class="st1" points="86.471,58.724 87.426,58.724 87.426,60.036 88.445,60.036 88.445,56.727 87.426,56.727 
						87.426,57.876 86.471,57.876 86.471,56.727 85.451,56.727 85.451,60.036 86.471,60.036 					"/>
					<g>
						<path class="st1" d="M83.665,60.115c0.969,0,1.511-0.709,1.511-1.376h-1.001c-0.06,0.31-0.194,0.552-0.538,0.552
							c-0.477,0-0.63-0.464-0.63-0.909c0-0.445,0.153-0.909,0.63-0.909c0.422,0,0.515,0.366,0.533,0.487h0.992
							c-0.088-0.83-0.588-1.307-1.497-1.312c-1.019,0-1.678,0.691-1.678,1.734C81.987,59.359,82.594,60.115,83.665,60.115"/>
					</g>
				</g>
				<g>
					<path class="st1" d="M80.398,62.79c0.366,0,0.652,0.093,0.856,0.279c0.204,0.186,0.307,0.443,0.307,0.77
						c0,0.742-0.391,1.113-1.172,1.113h-0.695v1.081h-0.845V62.79H80.398z M80.275,64.298c0.294,0,0.441-0.135,0.441-0.404
						c0-0.145-0.04-0.253-0.12-0.322s-0.187-0.105-0.32-0.105h-0.581v0.831H80.275z"/>
					<path class="st1" d="M83.313,63.631c0.067,0,0.127,0.006,0.182,0.018v0.704c-0.121-0.03-0.22-0.045-0.295-0.045
						c-0.167,0-0.305,0.052-0.416,0.154c-0.111,0.103-0.166,0.233-0.166,0.391v1.181h-0.772v-2.357h0.749v0.413h0.009
						c0.051-0.145,0.139-0.258,0.263-0.338C82.992,63.671,83.14,63.631,83.313,63.631z"/>
					<path class="st1" d="M84.845,63.608c0.354,0,0.65,0.117,0.888,0.352c0.238,0.235,0.357,0.534,0.357,0.897
						c0,0.36-0.116,0.658-0.348,0.893c-0.232,0.235-0.531,0.352-0.897,0.352c-0.357,0-0.653-0.117-0.888-0.35
						c-0.235-0.233-0.352-0.531-0.352-0.895c0-0.36,0.117-0.659,0.35-0.895C84.188,63.726,84.485,63.608,84.845,63.608z
						 M84.377,64.857c0,0.2,0.04,0.359,0.12,0.477c0.08,0.118,0.196,0.177,0.347,0.177c0.157,0,0.276-0.062,0.354-0.186
						c0.079-0.124,0.118-0.28,0.118-0.468c0-0.203-0.042-0.363-0.125-0.481c-0.083-0.118-0.201-0.177-0.352-0.177
						c-0.142,0-0.255,0.058-0.338,0.175C84.419,64.49,84.377,64.651,84.377,64.857z"/>
					<path class="st1" d="M88.765,62.79v3.243h-0.736v-0.272H88.02c-0.154,0.227-0.371,0.341-0.65,0.341
						c-0.318,0-0.573-0.116-0.765-0.348c-0.192-0.232-0.288-0.549-0.288-0.952c0-0.348,0.091-0.634,0.273-0.859
						c0.182-0.224,0.422-0.336,0.722-0.336c0.288,0,0.512,0.107,0.672,0.322h0.009v-1.14H88.765z M87.089,64.83
						c0,0.212,0.043,0.379,0.129,0.5c0.086,0.121,0.201,0.182,0.343,0.182c0.306,0,0.459-0.22,0.459-0.659
						c0-0.194-0.039-0.351-0.116-0.472c-0.077-0.121-0.193-0.182-0.348-0.182c-0.145,0-0.26,0.058-0.343,0.175
						C87.13,64.49,87.089,64.642,87.089,64.83z"/>
					<path class="st1" d="M89.975,63.676v1.385c0,0.27,0.127,0.404,0.382,0.404c0.121,0,0.222-0.046,0.302-0.139
						c0.08-0.092,0.12-0.217,0.12-0.375v-1.276h0.772v2.357h-0.75v-0.322h-0.009c-0.076,0.121-0.182,0.217-0.318,0.286
						c-0.136,0.07-0.271,0.104-0.404,0.104c-0.294,0-0.512-0.078-0.654-0.234c-0.142-0.156-0.213-0.405-0.213-0.747v-1.444H89.975z"
						/>
					<path class="st1" d="M92.76,62.79v1.672l0.704-0.786h0.895l-0.863,0.89l0.972,1.467h-0.931l-0.577-0.949l-0.2,0.195v0.754
						h-0.772V62.79H92.76z"/>
					<path class="st1" d="M95.678,62.963v0.713h0.477v0.5h-0.477v1.076c0,0.082,0.023,0.139,0.068,0.173
						c0.045,0.033,0.115,0.05,0.209,0.05c0.067,0,0.133-0.003,0.2-0.009v0.568c-0.161,0.012-0.312,0.02-0.454,0.023
						c-0.218,0-0.383-0.027-0.495-0.082c-0.112-0.055-0.19-0.143-0.234-0.266c-0.044-0.123-0.066-0.275-0.066-0.456v-1.076h-0.391
						v-0.5h0.391v-0.713H95.678z"/>
					<path class="st1" d="M97.274,62.79v0.59h-0.772v-0.59H97.274z M97.274,63.676v2.357h-0.772v-2.357H97.274z"/>
					<path class="st1" d="M98.872,63.608c0.354,0,0.65,0.117,0.888,0.352c0.238,0.235,0.357,0.534,0.357,0.897
						c0,0.36-0.116,0.658-0.348,0.893c-0.232,0.235-0.531,0.352-0.897,0.352c-0.357,0-0.653-0.117-0.888-0.35
						c-0.235-0.233-0.352-0.531-0.352-0.895c0-0.36,0.117-0.659,0.35-0.895C98.215,63.726,98.512,63.608,98.872,63.608z
						 M98.404,64.857c0,0.2,0.04,0.359,0.12,0.477c0.08,0.118,0.196,0.177,0.347,0.177c0.157,0,0.276-0.062,0.354-0.186
						c0.079-0.124,0.118-0.28,0.118-0.468c0-0.203-0.042-0.363-0.125-0.481c-0.083-0.118-0.201-0.177-0.352-0.177
						c-0.142,0-0.255,0.058-0.338,0.175C98.446,64.49,98.404,64.651,98.404,64.857z"/>
					<path class="st1" d="M101.959,63.608c0.563,0,0.845,0.298,0.845,0.895v1.531h-0.772v-1.394c0-0.263-0.129-0.395-0.386-0.395
						c-0.136,0-0.24,0.048-0.311,0.145c-0.071,0.097-0.107,0.223-0.107,0.377v1.267h-0.772v-2.357h0.749v0.322h0.009
						c0.076-0.121,0.183-0.217,0.322-0.286C101.675,63.643,101.816,63.608,101.959,63.608z"/>
				</g>
			</g>
		</g>
		<g>
			<rect x="141.179" y="47.633" class="st14" width="27.484" height="27.484"/>
			<g>
				<g>
					<path class="st15" d="M144.948,58.826c0,0.044,0.011,0.059,0.069,0.059c0.22,0.023,0.576,0.05,1.033,0.05
						c0.734,0,1.047-0.213,1.047-0.713v-0.08c0-0.287-0.062-0.574-0.513-0.734l-0.639-0.225c-0.175-0.063-0.25-0.136-0.25-0.245
						v-0.05c0-0.132,0.102-0.196,0.31-0.196h0.898c0.059,0,0.069-0.021,0.069-0.064V56.25c0-0.033-0.01-0.05-0.067-0.064
						c-0.31-0.053-0.598-0.064-0.785-0.064c-0.773,0-1.117,0.217-1.117,0.703v0.095c0,0.38,0.168,0.631,0.498,0.744l0.614,0.22
						c0.21,0.072,0.285,0.137,0.285,0.25v0.045c0,0.159-0.111,0.186-0.36,0.186h-1.023c-0.052,0-0.069,0.014-0.069,0.059V58.826z"/>
					<path class="st15" d="M149.692,56.27c0-0.052-0.02-0.075-0.072-0.084l0,0c-0.286-0.058-0.662-0.064-0.81-0.064
						c-1.03,0-1.252,0.25-1.252,1.406s0.222,1.406,1.252,1.406c0.15,0,0.528-0.007,0.81-0.069c0.053-0.01,0.072-0.031,0.072-0.079
						v-0.399c0-0.025-0.007-0.059-0.069-0.059h-0.813c-0.474,0-0.545-0.18-0.545-0.799c0-0.629,0.068-0.799,0.545-0.799h0.813
						c0.048,0,0.069-0.02,0.069-0.064V56.27z"/>
					<path class="st15" d="M152.028,58.909h0.594c0.042,0,0.059-0.019,0.059-0.064v-1.542c0-1.027-0.267-1.182-1.187-1.182
						c-0.111,0-0.327,0.003-0.527,0.025l-0.018,0.002v-1.006c0-0.043-0.019-0.064-0.059-0.064h-0.589
						c-0.04,0-0.059,0.021-0.059,0.064v3.703c0,0.054,0.02,0.064,0.054,0.064h0.599c0.042,0,0.059-0.019,0.059-0.064v-2.117h0.465
						c0.478,0,0.555,0.052,0.555,0.764v1.352C151.974,58.899,151.994,58.909,152.028,58.909z"/>
					<path class="st15" d="M155.231,57.27l0.26,1.178c0.097,0.432,0.143,0.487,0.718,0.487c0.46,0,0.586-0.057,0.668-0.486
						l0.429-2.251c0.002-0.021,0-0.036-0.006-0.042c-0.005-0.006-0.018-0.009-0.038-0.009h-0.634c-0.02,0-0.029,0-0.039,0.057
						l-0.344,2.036c-0.02,0.085-0.041,0.108-0.1,0.108c-0.062,0-0.075-0.022-0.095-0.107l-0.464-1.951
						c-0.009-0.051-0.035-0.058-0.059-0.058h-0.584c-0.032,0-0.051,0.009-0.064,0.058l-0.464,1.951
						c-0.015,0.085-0.028,0.107-0.095,0.107c-0.056,0-0.075-0.021-0.095-0.107l-0.344-2.037c-0.011-0.057-0.024-0.057-0.039-0.057
						h-0.634c-0.022,0-0.036,0.003-0.042,0.01c-0.006,0.007-0.007,0.021-0.003,0.041l0.424,2.251
						c0.089,0.438,0.215,0.486,0.673,0.486c0.572,0,0.622-0.061,0.713-0.486L155.231,57.27z"/>
					<path class="st15" d="M158.734,58.934c0.251,0,0.732-0.014,1.129-0.104c0.083-0.028,0.098-0.067,0.098-0.139v-1.727
						c0-0.52-0.199-0.843-1.192-0.843c-0.365,0-0.635,0.022-0.9,0.075c-0.044,0.009-0.057,0.014-0.057,0.064v0.409
						c0,0.054,0.01,0.059,0.054,0.059h0.903c0.331,0,0.485,0.114,0.485,0.36v0.196h-0.65c-0.646,0-0.997,0.128-1.007,0.803
						C157.607,58.851,157.968,58.934,158.734,58.934z M158.664,57.732h0.59v0.582l-0.012,0.003c-0.15,0.041-0.414,0.05-0.503,0.05
						c-0.333,0-0.44-0.078-0.44-0.32C158.299,57.82,158.401,57.732,158.664,57.732z"/>
					<path class="st15" d="M162.158,56.176c-0.178-0.041-0.528-0.054-0.66-0.054c-0.78,0-0.888,0.331-0.888,0.688v2.036
						c0,0.045,0.017,0.064,0.059,0.064h0.594c0.042,0,0.059-0.019,0.059-0.064v-1.847c0-0.233,0.108-0.27,0.365-0.27h0.469
						c0.062,0,0.069-0.034,0.069-0.059V56.26C162.226,56.204,162.208,56.19,162.158,56.176z"/>
					<path class="st15" d="M162.521,58.846c0,0.045,0.021,0.064,0.074,0.064h2.226c0.048,0,0.069-0.02,0.069-0.064v-0.484
						c0-0.025-0.007-0.059-0.069-0.059h-1.275l1.247-1.672c0.019-0.029,0.032-0.051,0.032-0.085v-0.339
						c0-0.025-0.007-0.059-0.069-0.059h-2.106c-0.057,0-0.069,0.024-0.069,0.059v0.474c0,0.035,0.012,0.059,0.069,0.059h1.19
						l-0.019,0.025l-1.268,1.672c-0.024,0.033-0.032,0.055-0.032,0.085V58.846z"/>
				</g>
				<g>
					<path class="st1" d="M148.588,60.304c0.091,0,0.124,0.033,0.124,0.124v5.922c0,0.116-0.05,0.157-0.149,0.174
						c-0.704,0.116-1.176,0.149-1.773,0.149c-1.673,0-2.037-0.472-2.037-2.327c0-1.839,0.364-2.336,1.897-2.336
						c0.431,0,0.787,0.017,1.06,0.05v-1.632c0-0.091,0.041-0.124,0.124-0.124H148.588z M146.807,62.88
						c-0.928,0-1.052,0.273-1.052,1.466c0,1.126,0.091,1.458,1.027,1.458c0.257,0,0.638-0.025,0.928-0.066V62.88H146.807z"/>
					<path class="st1" d="M150.883,60.909c0,0.373-0.207,0.572-0.596,0.572s-0.596-0.199-0.596-0.572
						c0-0.364,0.207-0.563,0.596-0.563S150.883,60.545,150.883,60.909z M150.667,62.052c0.083,0,0.124,0.041,0.124,0.124v4.332
						c0,0.083-0.042,0.124-0.124,0.124h-0.762c-0.083,0-0.124-0.041-0.124-0.124v-4.332c0-0.083,0.042-0.124,0.124-0.124H150.667z"
						/>
					<path class="st1" d="M155.529,62.16c0.099,0.008,0.157,0.066,0.157,0.166v4.042c-0.008,1.441-0.29,1.963-1.971,1.963
						c-0.414,0-0.911-0.025-1.358-0.091c-0.074-0.017-0.116-0.058-0.116-0.133v-0.489c0-0.091,0.042-0.124,0.124-0.124h1.292
						c0.828,0,1.027-0.199,1.027-0.853v-0.041c-0.356,0.058-0.671,0.075-1.06,0.075c-1.532,0-1.905-0.497-1.905-2.369
						c0-1.822,0.381-2.294,2.046-2.294C154.486,62.011,155.107,62.077,155.529,62.16z M153.732,62.88
						c-0.911,0-1.002,0.323-1.002,1.458c0,1.184,0.124,1.458,1.052,1.458c0.273,0,0.613-0.008,0.903-0.05V62.88H153.732z"/>
					<path class="st1" d="M157.857,60.909c0,0.373-0.207,0.572-0.596,0.572s-0.596-0.199-0.596-0.572
						c0-0.364,0.207-0.563,0.596-0.563S157.857,60.545,157.857,60.909z M157.642,62.052c0.083,0,0.124,0.041,0.124,0.124v4.332
						c0,0.083-0.042,0.124-0.124,0.124h-0.762c-0.083,0-0.124-0.041-0.124-0.124v-4.332c0-0.083,0.042-0.124,0.124-0.124H157.642z"
						/>
					<path class="st1" d="M159.969,60.785c0.091-0.025,0.141,0.025,0.141,0.116v1.16h0.82c0.083,0,0.132,0.041,0.132,0.124v0.522
						c0,0.091-0.05,0.132-0.132,0.132h-0.82v2.526c0,0.364,0.108,0.439,0.514,0.439h0.364c0.099,0,0.141,0.033,0.141,0.116v0.547
						c0,0.091-0.041,0.133-0.124,0.149c-0.232,0.041-0.464,0.058-0.588,0.058c-0.646,0-1.317-0.017-1.317-1.011v-2.824h-0.472
						c-0.083,0-0.133-0.041-0.133-0.132v-0.522c0-0.083,0.05-0.124,0.133-0.124h0.472v-0.952c0-0.083,0.042-0.116,0.116-0.133
						L159.969,60.785z"/>
					<path class="st1" d="M164.782,62.102c0.083,0.017,0.124,0.058,0.124,0.132v0.489c0,0.083-0.042,0.124-0.133,0.124h-1.524
						c-0.348,0-0.547,0.108-0.547,0.364v0.099c0,0.199,0.108,0.356,0.455,0.489l1.085,0.398c0.729,0.273,0.845,0.696,0.845,1.209
						v0.108c0,0.944-0.629,1.16-1.714,1.16c-0.721,0-1.342-0.05-1.615-0.075c-0.099-0.008-0.124-0.05-0.124-0.124v-0.514
						c0-0.091,0.033-0.132,0.133-0.132h1.607c0.555,0,0.729-0.066,0.729-0.356V65.39c0-0.199-0.099-0.331-0.472-0.472l-1.093-0.414
						c-0.646-0.232-0.828-0.729-0.828-1.218V63.12c0-0.903,0.745-1.11,1.781-1.11C163.846,62.011,164.302,62.027,164.782,62.102z"/>
				</g>
			</g>
		</g>
	</g>
</g>
<g id="Feldbezeichnung">
</g>
<g id="Visualisierung_Weißraum">
</g>
</svg>
