<?xml version="1.0" encoding="UTF-8" standalone="no"?>
<svg width="100%" height="100%" viewBox="0 0 851 851" version="1.1" xmlns="http://www.w3.org/2000/svg" xmlns:xlink="http://www.w3.org/1999/xlink" xml:space="preserve" xmlns:serif="http://www.serif.com/" style="fill-rule:evenodd;clip-rule:evenodd;stroke-linejoin:round;stroke-miterlimit:2;">
    <g transform="matrix(0.276742,0,0,0.276742,-64.8792,-87.3121)">
        <path d="M1771.67,1208.95C1838.3,1208.63 1905.82,1226.11 1966.93,1263.13C2090.01,1337.71 2154.78,1472.11 2146.59,1606.51C2130.38,1747.4 2195.34,1891.55 2324.47,1969.82C2326.21,1970.86 2327.94,1971.9 2329.68,1972.91C2365.22,1992.46 2408.29,2005.96 2453.92,1997.44C2529.8,1983.32 2574.39,1855.69 2582.8,1829.52C2592.26,1796.63 2597.34,1761.85 2597.34,1725.93C2597.34,1649.33 2574.29,1578.1 2534.81,1518.81L2534.9,1518.72C2494.03,1458.74 2470.13,1386.27 2470.13,1308.29C2470.13,1101.67 2637.87,933.905 2844.48,933.905C3051.1,933.905 3218.83,1101.67 3218.83,1308.29C3218.83,1452.18 3137.47,1577.21 3018.27,1639.87C2889.35,1699.03 2799.76,1829.3 2799.76,1980.29C2799.76,2048.97 2818.31,2113.37 2850.66,2168.74C2941.67,2287.28 2956.18,2454.22 2874.66,2589.82L2873.81,2591.21C2808.18,2699.63 2689.14,2772.16 2553.29,2772.16C2346.67,2772.16 2178.94,2604.39 2178.94,2397.81C2178.94,2381.85 2179.95,2366.15 2181.87,2350.73C2188.68,2217.59 2123.97,2084.98 2002.03,2011.1C1936.53,1971.4 1863.69,1954.18 1792.48,1957.24L1792.45,1957.11C1785.55,1957.46 1778.61,1957.65 1771.67,1957.65C1764.73,1957.65 1757.76,1957.46 1750.86,1957.11L1750.86,1957.24C1679.65,1954.18 1606.78,1971.4 1541.31,2011.1C1419.36,2084.98 1354.65,2217.59 1361.43,2350.73C1363.39,2366.15 1364.37,2381.85 1364.37,2397.81C1364.37,2604.39 1196.63,2772.16 990.019,2772.16C854.167,2772.16 735.124,2699.63 669.5,2591.21L668.68,2589.82C587.132,2454.22 601.669,2287.28 692.678,2168.74C725.033,2113.37 743.575,2048.97 743.575,1980.29C743.575,1829.3 653.954,1699.03 525.04,1639.87C405.87,1577.21 324.479,1452.18 324.479,1308.29C324.479,1101.67 492.212,933.905 698.828,933.905C905.443,933.905 1073.21,1101.67 1073.21,1308.29C1073.21,1386.27 1049.3,1458.74 1008.4,1518.72L1008.53,1518.81C969.017,1578.1 945.965,1649.33 945.965,1725.93C945.965,1761.85 951.042,1796.63 960.534,1829.52C968.922,1855.69 1013.54,1983.32 1089.38,1997.44C1135.02,2005.96 1178.09,1992.46 1213.63,1972.91C1215.37,1971.9 1217.1,1970.86 1218.84,1969.82C1348,1891.55 1412.93,1747.4 1396.72,1606.51C1388.55,1472.11 1453.33,1337.71 1576.38,1263.13C1637.49,1226.11 1705.01,1208.63 1771.67,1208.95Z" style="fill:url(#_Linear1);"/>
    </g>
    <defs>
        <linearGradient id="_Linear1" x1="0" y1="0" x2="1" y2="0" gradientUnits="userSpaceOnUse" gradientTransform="matrix(2407.32,0,0,2407.32,540.535,1653.73)"><stop offset="0" style="stop-color:rgb(0,195,205);stop-opacity:1"/><stop offset="0.52" style="stop-color:rgb(0,110,179);stop-opacity:1"/><stop offset="1" style="stop-color:rgb(0,80,170);stop-opacity:1"/></linearGradient>
    </defs>
</svg>
