<?xml version="1.0" encoding="UTF-8"?>
<svg id="logo" xmlns="http://www.w3.org/2000/svg" viewBox="0 0 151.562 39.63">
  <defs>
    <style>
      .cls-1 {
        fill: #00c3cd;
      }

      .cls-2 {
        fill: #ffffff;
      }
    </style>
  </defs>
  <g>
    <path class="cls-1" d="m92.658,11.931c.199.05.266.116.266.266v1.262c0,.183-.066.266-.281.266h-2.988c-.648,0-.98.183-.98.598v.166c0,.315.199.548.797.764l2.125.747c1.412.498,1.744,1.361,1.744,2.49v.266c0,1.926-1.428,2.424-3.537,2.424-1.443,0-2.639-.083-3.436-.166-.217,0-.283-.066-.283-.249v-1.345c0-.183.084-.249.283-.249h3.402c.881,0,1.146-.116,1.146-.564v-.149c0-.315-.184-.531-.914-.78l-2.041-.73c-1.312-.448-1.693-1.461-1.693-2.523v-.315c0-1.776,1.377-2.391,3.768-2.391.715,0,1.66.05,2.623.216Z"/>
    <path class="cls-1" d="m101.527,11.931c.182.033.281.116.281.332v1.312c0,.183-.1.266-.281.266h-2.707c-1.527,0-1.76.515-1.76,2.606,0,2.075.232,2.606,1.76,2.606h2.707c.182,0,.281.083.281.249v1.328c0,.199-.1.282-.281.315-.896.199-2.092.232-2.707.232-3.535,0-4.217-.946-4.217-4.731s.682-4.731,4.217-4.731c.615,0,1.811.033,2.707.216Z"/>
    <path class="cls-1" d="m105.579,8.246c.166,0,.25.1.25.266v3.287c.613-.066,1.295-.083,1.76-.083,3.17,0,4,.598,4,3.984v5.13c0,.183-.082.266-.248.266h-1.977c-.166,0-.232-.083-.232-.266v-4.499c0-2.374-.266-2.49-1.793-2.49h-1.494v6.989c0,.183-.082.266-.248.266h-1.992c-.166,0-.232-.083-.232-.266v-12.318c0-.166.082-.266.248-.266h1.959Z"/>
    <path class="cls-1" d="m126.616,11.799c.166,0,.217.05.199.232l-1.428,7.487c-.281,1.478-.746,1.66-2.273,1.66-1.91,0-2.109-.183-2.441-1.66l-.812-3.686-.814,3.686c-.314,1.478-.531,1.66-2.424,1.66-1.543,0-1.992-.183-2.291-1.66l-1.41-7.487c-.033-.183.033-.232.199-.232h2.107c.1,0,.15.05.184.232l1.145,6.773c.066.282.117.315.266.315.184,0,.217-.033.266-.315l1.545-6.491c.049-.183.133-.232.266-.232h1.941c.117,0,.217.05.25.232l1.543,6.491c.066.282.1.315.266.315.15,0,.217-.033.283-.315l1.145-6.773c.033-.183.066-.232.184-.232h2.107Z"/>
    <path class="cls-1" d="m135.488,14.571v5.744c0,.266-.066.415-.365.515-1.162.266-2.623.349-3.77.349-2.49,0-3.801-.266-3.834-2.872.033-2.241,1.195-2.723,3.402-2.723h2.109v-.598c0-.797-.498-1.146-1.561-1.146h-3.006c-.182,0-.232-.05-.232-.249v-1.361c0-.199.066-.232.232-.266,1.014-.199,1.977-.249,3.006-.249,3.287,0,4.018,1.062,4.018,2.855Zm-4.367,2.606c-.863,0-1.162.282-1.162.996,0,.797.365,1.013,1.412,1.013.332,0,1.178-.033,1.66-.166v-1.843h-1.91Z"/>
    <path class="cls-1" d="m142.595,11.898c.184.05.266.116.266.332v1.361c0,.166-.1.249-.281.249h-1.561c-.863,0-1.162.133-1.162.847v6.143c0,.183-.084.266-.25.266h-1.975c-.166,0-.25-.083-.25-.266v-6.773c0-2.092,1.494-2.341,3.006-2.341.48,0,1.627.05,2.207.183Z"/>
    <path class="cls-1" d="m151.064,11.799c.184,0,.283.083.283.249v1.129c0,.133-.051.216-.117.315l-4.084,5.479h4.135c.182,0,.281.083.281.249v1.61c0,.183-.1.266-.281.266h-7.404c-.199,0-.299-.083-.299-.266v-1.079c0-.116.033-.199.115-.315l4.217-5.562h-3.852c-.199,0-.281-.083-.281-.249v-1.577c0-.166.082-.249.281-.249h7.006Z"/>
  </g>
  <g>
    <path class="cls-1" d="m89.023,26.527c.166,0,.249.083.249.266v12.318c0,.183-.083.266-.249.266h-2.108c-.166,0-.249-.083-.249-.266v-12.318c0-.183.083-.266.249-.266h2.108Z"/>
    <path class="cls-1" d="m101.011,26.527c.166,0,.266.083.266.249v1.776c0,.166-.1.249-.266.249h-3.47v10.31c0,.183-.083.266-.249.266h-2.108c-.166,0-.249-.083-.249-.266v-10.31h-3.47c-.166,0-.249-.083-.249-.249v-1.776c0-.166.083-.249.249-.249h9.546Z"/>
  </g>
  <path class="cls-1" d="m10.94,11.034c1.754,0,4.836,0,6.59,0,.503,0,.555.303.355.85-2.424,6.661-7.273,19.982-9.697,26.643-.199.548-.542.85-1.134.85-1.754,0-4.836,0-6.59,0-.503,0-.555-.303-.355-.85,2.424-6.661,7.273-19.982,9.697-26.643.199-.548.542-.85,1.134-.85Z"/>
  <g>
    <path class="cls-2" d="m40.033,11.439c.607.152.811.354.811.81v3.847c0,.557-.203.81-.861.81h-9.109c-1.975,0-2.986.557-2.986,1.822v.506c0,.962.607,1.67,2.43,2.328l6.479,2.278c4.301,1.518,5.314,4.15,5.314,7.592v.81c0,5.871-4.354,7.39-10.781,7.39-4.404,0-8.047-.253-10.477-.506-.658,0-.861-.202-.861-.759v-4.1c0-.557.254-.759.861-.759h10.375c2.684,0,3.492-.354,3.492-1.721v-.456c0-.962-.557-1.62-2.783-2.379l-6.227-2.227c-3.998-1.367-5.162-4.454-5.162-7.693v-.962c0-5.416,4.201-7.288,11.49-7.288,2.176,0,5.061.152,7.996.658Z"/>
    <path class="cls-2" d="m54.714,3.796c0,2.531-1.418,3.847-4.15,3.847s-4.201-1.316-4.201-3.847c0-2.48,1.467-3.796,4.201-3.796s4.15,1.316,4.15,3.796Zm-1.164,7.238c.506,0,.758.253.758.759v26.774c0,.557-.252.81-.758.81h-5.973c-.506,0-.76-.253-.76-.81V11.793c0-.506.254-.759.76-.759h5.973Z"/>
    <path class="cls-2" d="m68.835,3.189c.506-.152.811.202.811.759v7.238h4.656c.557,0,.859.253.859.759v4.049c0,.506-.303.759-.859.759h-4.656v13.818c0,2.176.76,2.581,2.986,2.581h2.074c.607,0,.861.202.861.759v4.302c0,.607-.254.86-.811.962-1.771.354-3.188.456-4.303.456-4.352,0-8.299-.152-8.299-6.529v-16.348h-2.986c-.557,0-.811-.253-.811-.759v-4.049c0-.506.254-.759.811-.759h2.986v-5.618c0-.506.201-.708.707-.81l5.973-1.569Z"/>
  </g>
</svg>
