<?xml version="1.0" standalone="no"?>
<!DOCTYPE svg PUBLIC "-//W3C//DTD SVG 20010904//EN"
 "http://www.w3.org/TR/2001/REC-SVG-20010904/DTD/svg10.dtd">
<svg version="1.0" xmlns="http://www.w3.org/2000/svg"
 width="700.000000pt" height="700.000000pt" viewBox="0 0 700.000000 700.000000"
 preserveAspectRatio="xMidYMid meet">
<metadata>
Created by potrace 1.14, written by Peter Selinger 2001-2017
</metadata>
<g transform="translate(0.000000,700.000000) scale(0.100000,-0.100000)"
fill="#000000" stroke="none">
<path d="M3069 6996 c-2 -2 -65 -6 -139 -10 -140 -7 -181 -11 -290 -22 -36 -4
-74 -8 -85 -9 -70 -7 -296 -42 -360 -56 -232 -51 -359 -88 -515 -152 -430
-175 -742 -495 -920 -942 -78 -196 -155 -484 -186 -695 -3 -19 -9 -60 -14 -90
-24 -147 -49 -395 -65 -650 -25 -419 -26 -1390 0 -1740 2 -30 7 -95 10 -145
11 -157 18 -228 30 -320 2 -16 7 -57 10 -90 4 -33 8 -67 10 -75 2 -8 7 -37 11
-65 3 -27 8 -59 11 -70 2 -11 8 -42 13 -70 17 -93 21 -110 54 -245 181 -727
553 -1146 1211 -1361 98 -33 249 -72 341 -88 33 -6 70 -13 84 -16 13 -3 42 -7
65 -10 22 -3 51 -8 65 -10 22 -4 64 -10 155 -21 17 -2 64 -6 105 -9 41 -3 89
-8 105 -10 199 -27 1144 -27 1440 0 22 2 74 6 115 10 41 3 104 10 140 15 36 5
88 12 115 15 28 4 57 8 65 10 8 2 35 7 60 10 25 3 53 8 62 11 9 3 27 7 40 9
105 20 150 31 266 66 119 36 152 48 227 78 140 57 334 170 440 256 142 116
278 276 365 429 11 20 28 51 38 68 90 159 208 510 247 733 3 17 8 37 10 45 4
15 9 41 20 114 4 21 8 48 11 59 2 11 8 57 14 101 6 45 12 95 15 111 2 17 6 59
10 95 3 36 8 83 10 105 2 22 7 83 10 135 4 52 8 113 10 135 20 246 27 1125 12
1530 -5 121 -10 222 -12 225 -1 3 -6 56 -10 118 -3 62 -8 123 -10 135 -2 12
-6 54 -10 92 -6 64 -26 222 -40 320 -3 22 -17 99 -31 170 -170 874 -545 1349
-1248 1580 -172 57 -368 104 -504 121 -20 2 -62 8 -92 14 -30 5 -84 12 -120
15 -36 3 -76 8 -90 10 -14 2 -65 7 -115 11 -49 3 -110 8 -135 11 -54 5 -1026
14 -1031 9z m906 -1330 c355 -50 576 -156 727 -346 156 -196 244 -507 282
-990 16 -203 20 -376 21 -845 0 -530 -7 -748 -30 -945 -2 -19 -7 -60 -10 -90
-3 -30 -11 -82 -17 -115 -5 -33 -12 -73 -15 -90 -11 -71 -57 -235 -87 -311
-100 -252 -256 -414 -490 -508 -83 -34 -275 -82 -360 -92 -22 -2 -57 -6 -76
-9 -133 -18 -462 -24 -685 -12 -493 27 -774 137 -959 377 -86 110 -166 294
-202 461 -40 189 -62 353 -79 603 -27 383 -21 1279 11 1626 11 117 14 147 24
220 23 155 29 185 62 300 74 263 166 423 311 540 157 127 404 211 697 236 41
3 77 8 79 10 2 2 155 2 340 0 249 -2 367 -7 456 -20z"/>
</g>
</svg>
