<svg xmlns="http://www.w3.org/2000/svg" viewBox="0 0 32 32" xml:space="preserve" enable-background="new 0 0 32 32">
    <path d="M11 28h10v2H11zM22.964 5.823c-1.958-1.9-4.526-2.888-7.271-2.818C10.329 3.166 5.981 7.666 6 13.037a9.931 9.931 0 0 0 3.898 7.875c.69.531 1.102 1.397 1.102 2.316V26h10v-2.772c0-.92.431-1.787 1.181-2.377A9.935 9.935 0 0 0 26 13a9.92 9.92 0 0 0-3.036-7.177zM19 24h-6v-.772c0-.4-.05-.793-.141-1.174h6.284c-.093.38-.143.773-.143 1.174V24zm1.944-4.722a5.237 5.237 0 0 0-.792.775h-8.287a4.695 4.695 0 0 0-.745-.726A7.934 7.934 0 0 1 8 13.029c-.015-4.296 3.463-7.896 7.753-8.025a7.965 7.965 0 0 1 5.817 2.254A7.931 7.931 0 0 1 24 13a7.944 7.944 0 0 1-3.056 6.278z"/>
    <path d="M10 13h2c0-2.206 1.794-4 4-4V7c-3.309 0-6 2.691-6 6z"/>
</svg>
