<svg xmlns="http://www.w3.org/2000/svg" viewBox="0 0 32 32" xml:space="preserve" enable-background="new 0 0 32 32">
    <path d="M12.459 8H8c-3.309 0-6 2.691-6 6a5.999 5.999 0 0 0 3 5.188V25c0 1.654 1.346 3 3 3s3-1.346 3-3v-5h1.46a6.98 6.98 0 0 1 2.6.501L24 24.076V3.923l-8.94 3.576A6.96 6.96 0 0 1 12.459 8zM8 10h1v8H8c-2.206 0-4-1.794-4-4s1.794-4 4-4zm1 15a1 1 0 0 1-2 0v-5h2v5zM22 6.877v14.246l-6.198-2.479A8.97 8.97 0 0 0 12.46 18H11v-8h1.459a8.975 8.975 0 0 0 3.343-.644L22 6.877zM26 13h4v2h-4zM26.042 8.043l2.5-2.5 1.415 1.414-2.5 2.5zM26.042 19.957l1.415-1.414 2.5 2.5-1.414 1.414z"/>
</svg>
