<svg xmlns="http://www.w3.org/2000/svg" viewBox="0 0 32 32" xml:space="preserve" enable-background="new 0 0 32 32">
    <path d="M25.698 16H28v-4c0-1.654-1.346-3-3-3h-2v-.302c0-2.506-1.871-4.567-4.26-4.692a4.457 4.457 0 0 0-3.338 1.229A4.523 4.523 0 0 0 14 8.5V9h-2c-1.654 0-3 1.346-3 3v2h-.302c-2.505 0-4.566 1.871-4.692 4.26a4.471 4.471 0 0 0 1.23 3.338A4.52 4.52 0 0 0 8.5 23H9v2c0 1.654 1.346 3 3 3h13c1.654 0 3-1.346 3-3v-4h-2.5a2.474 2.474 0 0 1-1.813-.779 2.479 2.479 0 0 1-.683-1.856C23.072 17.061 24.281 16 25.698 16zm-3.462 5.598A4.52 4.52 0 0 0 25.5 23h.5v2a1 1 0 0 1-1 1H12a1 1 0 0 1-1-1v-4H8.5a2.474 2.474 0 0 1-1.813-.779 2.479 2.479 0 0 1-.683-1.856C6.072 17.061 7.281 16 8.698 16H11v-4c0-.551.448-1 1-1h4V8.5c0-.692.276-1.336.779-1.813a2.493 2.493 0 0 1 1.856-.683C19.939 6.072 21 7.281 21 8.698V11h4c.552 0 1 .449 1 1v2h-.302c-2.505 0-4.566 1.871-4.692 4.26a4.469 4.469 0 0 0 1.23 3.338z"/>
</svg>
