<svg xmlns="http://www.w3.org/2000/svg" viewBox="0 0 32 32" xml:space="preserve" enable-background="new 0 0 32 32">
    <path d="M23 8c1.654 0 3-1.346 3-3s-1.346-3-3-3-3 1.346-3 3c0 .462.113.894.301 1.285l-3.008 3.008L10.93 2.93A9.969 9.969 0 0 0 8 10c0 2.1.65 4.05 1.76 5.66.072.105.158.199.234.301L8.142 28H6v2h15v-2h-2v-8.051a9.975 9.975 0 0 0 6.07-2.879l-6.363-6.363 3.008-3.008A2.95 2.95 0 0 0 23 8zM10.166 28l1.573-10.228A9.92 9.92 0 0 0 17 19.937V28h-6.834zM18 18a7.996 7.996 0 0 1-6.593-3.475A7.933 7.933 0 0 1 10 10c0-1.452.385-2.846 1.107-4.065l10.958 10.958A7.949 7.949 0 0 1 18 18zm5-14a1.001 1.001 0 1 1-1 1c0-.551.448-1 1-1z"/>
</svg>
