<svg xmlns="http://www.w3.org/2000/svg" viewBox="0 0 32 32" xml:space="preserve" enable-background="new 0 0 32 32">
    <path d="M20.772 11.227h.001l-.001-.001z"/>
    <path d="m26.13 10.574-3.161-3.162-.613-.613L24.155 5H13.989V2.456L10.574 5.87 7.412 9.031l-.613.613L5 7.845v10.166H2.456l3.414 3.414 3.161 3.162.613.613L7.845 27h10.166v2.544l3.414-3.414 3.162-3.161.613-.613 1.8 1.799V13.989h2.544l-3.414-3.415zM25 19.327l-1.841-1.841a7.258 7.258 0 0 1-.493 1.531l.508 2.538-3.162 3.161v-2.599c-.45.297-.93.54-1.43.728L17.145 25h-4.471l1.841-1.841a7.277 7.277 0 0 1-1.531-.493l-2.538.508-3.161-3.162h2.599c-.297-.45-.54-.93-.729-1.43L7 17.145v-4.471l1.84 1.84a7.225 7.225 0 0 1 .497-1.517l-.51-2.551 3.162-3.161v2.602a7.216 7.216 0 0 1 1.424-.721L14.855 7h4.471l-1.841 1.841a7.277 7.277 0 0 1 1.531.493l2.538-.508 3.161 3.162h-2.599c.297.45.54.929.729 1.43L25 14.855v4.472z"/>
    <path d="m20.773 20.773.001-.001h-.001zM16 12.364A3.64 3.64 0 0 0 12.364 16c0 2.005 1.631 3.636 3.636 3.636s3.636-1.631 3.636-3.636A3.64 3.64 0 0 0 16 12.364zm0 5.272a1.636 1.636 0 1 1 0-3.272 1.636 1.636 0 0 1 0 3.272z"/>
</svg>
