<svg xmlns="http://www.w3.org/2000/svg" viewBox="0 0 32 32" xml:space="preserve" enable-background="new 0 0 32 32">
    <path d="M24 19v2.18l2 2V17h-6.18l2 2zM28 17h2v8h-2zM22.707 12.121a.996.996 0 0 1 .293.708V15h2v-2.171c0-.801-.312-1.555-.879-2.122l-1.828-1.828A.996.996 0 0 1 22 8.171V6h-2v2.171c0 .801.312 1.555.879 2.122l1.828 1.828zM29.121 9.707l-2.828-2.828A.996.996 0 0 1 26 6.171V3h-2v3.171c0 .801.312 1.555.879 2.122l2.828 2.828a.996.996 0 0 1 .293.708V15h2v-3.171c0-.802-.312-1.556-.879-2.122zM23 23l-4-4-2-2L5.5 5.5 4.09 6.91 14.18 17H5c-1.65 0-3 1.35-3 3v2c0 1.65 1.35 3 3 3h17.18l2.91 2.91 1.41-1.41L25 25l-2-2zM4 22v-2c0-.55.45-1 1-1h3v4H5c-.55 0-1-.45-1-1zm6 1v-4h6.18l4 4H10z"/>
</svg>
