<svg xmlns="http://www.w3.org/2000/svg" viewBox="0 0 32 32" xml:space="preserve" enable-background="new 0 0 32 32">
    <path d="M19 2h-2v9H9.414l-.949-.95A6.958 6.958 0 0 0 3.515 8H3v2h.515c1.335 0 2.591.52 3.536 1.464l.949.95V16c0 2.281.867 5 5 5h1.234l-1.367 2.279A3.483 3.483 0 0 0 11.5 23C9.57 23 8 24.57 8 26.5S9.57 30 11.5 30s3.5-1.57 3.5-3.5c0-.71-.216-1.37-.581-1.922L16.566 21h2.868l2.147 3.578A3.474 3.474 0 0 0 21 26.5c0 1.93 1.57 3.5 3.5 3.5s3.5-1.57 3.5-3.5-1.57-3.5-3.5-3.5c-.485 0-.946.1-1.367.279L21.766 21H23c2.757 0 5-2.243 5-5v-5c0-4.962-4.037-9-9-9zm-7.5 26c-.827 0-1.5-.673-1.5-1.5s.673-1.5 1.5-1.5 1.5.673 1.5 1.5-.673 1.5-1.5 1.5zM26 26.5c0 .827-.673 1.5-1.5 1.5s-1.5-.673-1.5-1.5.673-1.5 1.5-1.5 1.5.673 1.5 1.5zM19 4c3.859 0 7 3.14 7 7h-7V4zm7 12c0 1.654-1.346 3-3 3H13c-2.187 0-3-.813-3-3v-3h16v3z"/>
</svg>
