<svg xmlns="http://www.w3.org/2000/svg" viewBox="0 0 32 32" xml:space="preserve" enable-background="new 0 0 32 32">
    <path d="m27.451 8.225-.579-1.366-3.917 3.918-1.417-.315-.314-1.416 3.917-3.918-1.366-.579a6.902 6.902 0 0 0-7.604 1.479 6.95 6.95 0 0 0-1.918 6.112l-9.092 9.09a3.972 3.972 0 0 0 0 5.608 3.958 3.958 0 0 0 2.804 1.159 3.96 3.96 0 0 0 2.805-1.159l9.091-9.091a6.96 6.96 0 0 0 6.112-1.918 6.9 6.9 0 0 0 1.478-7.604zm-2.892 6.191a4.95 4.95 0 0 1-4.761 1.272l-.558-.148-9.885 9.886a1.967 1.967 0 0 1-2.78-2.78l9.887-9.885-.149-.557a4.952 4.952 0 0 1 1.272-4.761 4.91 4.91 0 0 1 3.846-1.431L19.033 8.41l.83 3.729 3.729.83 2.398-2.398a4.908 4.908 0 0 1-1.431 3.845z"/>
</svg>
