<svg xmlns="http://www.w3.org/2000/svg" viewBox="0 0 32 32" xml:space="preserve" enable-background="new 0 0 32 32">
    <path d="M4 6c0-1.103.897-2 2-2h5V2H6C3.794 2 2 3.794 2 6v5h2V6zM26 2h-5v2h5c1.103 0 2 .897 2 2v5h2V6c0-2.206-1.794-4-4-4zM17 16v-5h-2v5c0 .551-.448 1-1 1h-1v2h1c1.654 0 3-1.346 3-3zM9 11h2v4H9zM21 11h2v4h-2zM28 26c0 1.103-.897 2-2 2h-5v2h5c2.206 0 4-1.794 4-4v-5h-2v5zM4 26v-5H2v5c0 2.206 1.794 4 4 4h5v-2H6c-1.103 0-2-.897-2-2zM20.311 21.275C18.63 22.876 16.586 23 16 23c-2.257 0-3.766-1.206-4.311-1.724l-1.379 1.447C11.028 23.408 13.021 25 16 25c.992 0 3.532-.222 5.689-2.275l-1.378-1.45z"/>
</svg>
