<svg xmlns="http://www.w3.org/2000/svg" viewBox="0 0 32 32" xml:space="preserve" enable-background="new 0 0 32 32">
    <path d="M29.716 13.523a14.693 14.693 0 0 0-.815-2.702l-1.85.759A12.709 12.709 0 0 1 28 16.42a19.162 19.162 0 0 1-.317 3.521 17.561 17.561 0 0 1-1.532 4.602 17.786 17.786 0 0 1-2.552 3.797l1.502 1.32a19.844 19.844 0 0 0 2.006-2.717 19.411 19.411 0 0 0 2.543-6.638c.115-.624.203-1.263.262-1.898.058-.655.088-1.323.088-1.987 0-.976-.096-1.95-.284-2.897zM18.394 4.251c.77.163 1.526.405 2.249.721.714.312 1.399.696 2.04 1.143a12.286 12.286 0 0 1 3.255 3.355l1.672-1.098a14.368 14.368 0 0 0-3.782-3.899 13.936 13.936 0 0 0-2.384-1.335 13.685 13.685 0 0 0-2.637-.845 13.684 13.684 0 0 0-4.823-.146l.295 1.979a11.704 11.704 0 0 1 4.115.125zM5.057 11.244l.146-.302c.248-.519.534-1.024.85-1.5a12.213 12.213 0 0 1 5.025-4.351l-.844-1.813a14.069 14.069 0 0 0-3.26 2.112 14.27 14.27 0 0 0-2.591 2.948c-.304.46-.585.942-.836 1.438l-1.116.671 1.139 1.645 1.487-.848zM24.795 21.64l-1.887-.662a12.943 12.943 0 0 1-1.225 2.56 13.394 13.394 0 0 1-1.682 2.184l1.455 1.371a16.22 16.22 0 0 0 1.02-1.193c.327-.423.633-.863.907-1.308a15.098 15.098 0 0 0 1.412-2.952zM25.56 18.26c.066-.6.101-1.219.101-1.84 0-.673-.066-1.344-.195-1.994A10.055 10.055 0 0 0 22.837 9.4a9.633 9.633 0 0 0-3.074-2.141 9.431 9.431 0 0 0-1.819-.585l-.417 1.956c.49.104.972.259 1.433.461.453.198.891.444 1.301.73a7.841 7.841 0 0 1 2.08 2.15 8.02 8.02 0 0 1 1.162 2.845c.104.523.157 1.062.157 1.604 0 .547-.03 1.092-.089 1.617l1.989.223zM5.405 16.234a7.655 7.655 0 0 1 2.521-1.305l.529-.158.148-.532a8.113 8.113 0 0 1 1.054-2.306 7.953 7.953 0 0 1 1.68-1.829c.328-.259.675-.49 1.03-.688a7.429 7.429 0 0 1 2.341-.834l-.346-1.97a9.496 9.496 0 0 0-4.266 1.923 9.972 9.972 0 0 0-2.103 2.288c-.289.436-.548.899-.768 1.377-.147.322-.277.65-.39.982l-.062.022a9.164 9.164 0 0 0-1.101.488 9.45 9.45 0 0 0-1.958 1.348c-.146.13-.288.265-.426.404l1.42 1.408c.11-.111.224-.218.339-.321.118-.102.237-.202.358-.297zM10.384 18.842a7.07 7.07 0 0 0 .513-.227c.188-.092.376-.196.547-.31.196-.127.378-.269.534-.42.192-.187.346-.39.46-.608.142-.273.213-.562.213-.857a3.629 3.629 0 0 1 .265-1.362 3.48 3.48 0 0 1 1.216-1.524 3.217 3.217 0 0 1 2.517-.514 3.272 3.272 0 0 1 1.188.515l1.141-1.643a5.234 5.234 0 0 0-1.918-.83 5.31 5.31 0 0 0-2.16 0 5.29 5.29 0 0 0-2.699 1.5 5.55 5.55 0 0 0-1.136 1.739 5.649 5.649 0 0 0-.308 1.024c-.07.359-.106.727-.094 1.031a.44.44 0 0 1-.08.097 1.574 1.574 0 0 1-.233.18 3.05 3.05 0 0 1-.333.187 5.036 5.036 0 0 1-.371.164 7.998 7.998 0 0 1-.341.125c-.099.032-.182.057-.298.091a5.226 5.226 0 0 0-2.363 1.137 5.351 5.351 0 0 0-1.122 1.3 5.477 5.477 0 0 0-.672 1.587l1.939.488c.046-.182.104-.358.179-.532a3.513 3.513 0 0 1 .964-1.315 3.236 3.236 0 0 1 1.448-.701 6.41 6.41 0 0 0 .561-.16c.13-.045.282-.099.443-.162zM21.032 19.014c.191-.829.288-1.702.288-2.594 0-.368-.036-.736-.107-1.099a5.65 5.65 0 0 0-.308-1.021l-1.852.758a3.6 3.6 0 0 1 .266 1.362c0 .741-.08 1.462-.237 2.145a8.364 8.364 0 0 1-.644 1.819 8.678 8.678 0 0 1-.965 1.537 9.845 9.845 0 0 1-1.211 1.282c-.417.37-.878.72-1.369 1.037a12.846 12.846 0 0 1-2.83 1.366c-.419.143-.837.259-1.243.345l.416 1.957a13.14 13.14 0 0 0 1.472-.409 15.064 15.064 0 0 0 1.61-.654 14.422 14.422 0 0 0 1.66-.925 13.283 13.283 0 0 0 1.611-1.222c.54-.479 1.03-.999 1.458-1.544.463-.593.862-1.229 1.186-1.892.35-.708.619-1.464.799-2.248z"/>
    <path d="M12.311 22.871a10.22 10.22 0 0 0 1.211-.63c.453-.275.87-.582 1.241-.912a6.986 6.986 0 0 0 1.114-1.255c.35-.509.621-1.061.805-1.639a6.63 6.63 0 0 0 .303-2.012h-2c0 .498-.07.971-.209 1.407-.124.39-.308.764-.547 1.112a5 5 0 0 1-.796.893c-.28.25-.6.484-.951.698a8.554 8.554 0 0 1-.978.508 9.17 9.17 0 0 1-1.472.507c-.109.027-.178.041-.191.044l.355 1.968s.118-.021.318-.071c.181-.044.44-.114.749-.216.306-.101.665-.233 1.048-.402z"/>
</svg>
