<svg xmlns="http://www.w3.org/2000/svg" viewBox="0 0 32 32" xml:space="preserve" enable-background="new 0 0 32 32">
    <path d="M22.825 16.701 21.895 26h8.211l-.931-9.298A2.979 2.979 0 0 0 27 14.123V14c0-5.514-4.486-10-10-10h-1V2h-6v2H6v2h4v.685C7.639 7.811 6 10.215 6 13v17h14V13c0-2.785-1.639-5.189-4-6.315V6h1c4.411 0 8 3.589 8 8v.123a2.98 2.98 0 0 0-2.175 2.578zM8 28v-2h10v2H8zm10-15v11H8V13c0-2.757 2.243-5 5-5s5 2.243 5 5zm-5-7c-.34 0-.672.033-1 .08V4h2v2.08A7.026 7.026 0 0 0 13 6zm14.895 18h-3.789l.71-7.1a.996.996 0 0 1 .994-.9h.381c.516 0 .943.387.994.9l.71 7.1z"/>
</svg>
