<svg xmlns="http://www.w3.org/2000/svg" viewBox="0 0 32 32" xml:space="preserve" enable-background="new 0 0 32 32">
    <circle cx="21.5" cy="10.5" r="1.5"/>
    <path d="M25.691 6.309a8.01 8.01 0 0 0-5.703-2.363 8.01 8.01 0 0 0-5.704 2.363c-2.035 2.035-2.818 5.035-2.079 7.798L4.002 22.31v5.692H10V25h3v-3h2.697l2.204-2.203c2.761.734 5.757-.048 7.79-2.081a8.014 8.014 0 0 0 2.362-5.704 8.004 8.004 0 0 0-2.362-5.703zm-1.414 9.993a6.093 6.093 0 0 1-6.322 1.419l-.596-.211-2.49 2.49H11v3H8v3.002H6.002v-2.864l8.491-8.491-.212-.596a6.094 6.094 0 0 1 1.417-6.329 6.073 6.073 0 0 1 8.579 0 6.025 6.025 0 0 1 1.776 4.29 6.023 6.023 0 0 1-1.776 4.29z"/>
</svg>
