<svg xmlns="http://www.w3.org/2000/svg" viewBox="0 0 32 32" xml:space="preserve" enable-background="new 0 0 32 32">
    <path d="M24 24v-9c0-4.411-3.589-8-8-8s-8 3.589-8 8v9c-1.654 0-3 1.346-3 3v3h22v-3c0-1.654-1.346-3-3-3zm-14-9c0-3.309 2.691-6 6-6s6 2.691 6 6v9H10v-9zm15 13H7v-1a1 1 0 0 1 1-1h16a1 1 0 0 1 1 1v1zM15 2h2v3h-2zM3 13h3v2H3zM5.393 4.807l1.415-1.414 3 3-1.414 1.414zM22.192 6.394l3-3 1.415 1.414-3 3zM26 13h3v2h-3z"/>
    <path d="M16 11v2c1.103 0 2 .897 2 2h2c0-2.206-1.794-4-4-4z"/>
</svg>
