<svg xmlns="http://www.w3.org/2000/svg" viewBox="0 0 32 32" xml:space="preserve" enable-background="new 0 0 32 32">
    <path d="M22.004 12H12V8c0-2.206 1.794-4 4-4s4 1.794 4 4v2h2V8c0-3.309-2.691-6-6-6s-6 2.691-6 6v4h-.004A3.996 3.996 0 0 0 6 15.996v10.008A3.996 3.996 0 0 0 9.996 30h12.008A3.996 3.996 0 0 0 26 26.004V15.996A3.996 3.996 0 0 0 22.004 12zM24 26.004A1.998 1.998 0 0 1 22.004 28H9.996A1.998 1.998 0 0 1 8 26.004V15.996C8 14.895 8.895 14 9.996 14h12.008c1.101 0 1.996.895 1.996 1.996v10.008z"/>
    <path d="M16 17a4 4 0 1 0 0 8 4 4 0 0 0 0-8zm0 6c-1.103 0-2-.897-2-2s.897-2 2-2 2 .897 2 2-.897 2-2 2z"/>
</svg>
