<svg xmlns="http://www.w3.org/2000/svg" xml:space="preserve" viewBox="0 0 32 32"><path d="M6 26V12h7V5h9v7.988h2V3H11.245L4 10.6V26c0 1.654 1.346 3 3 3h4v-2H7a1 1 0 0 1-1-1m1.335-16L11 6.156V10z"/><path d="M8 15h11v2H8zm0 4h6v2H8zm20.13-4.113a3.02 3.02 0 0 0-4.26 0l-7.827 7.827c-.434.435-.78.938-1.029 1.493l-2.018 4.491 1.322 1.322 4.491-2.018a5 5 0 0 0 1.494-1.03l7.827-7.826a3.015 3.015 0 0 0 0-4.259m-1.414 2.845-7.825 7.825a3 3 0 0 1-.9.621l-2.092.939.939-2.092c.15-.335.359-.638.62-.899l7.826-7.825c.197-.198.457-.296.716-.296.26 0 .519.099.716.296a1.016 1.016 0 0 1 0 1.431"/></svg>