<?xml version="1.0" encoding="utf-8"?>
<!-- Generator: Adobe Illustrator 24.1.2, SVG Export Plug-In . SVG Version: 6.00 Build 0)  -->
<svg version="1.1" id="Ebene_1" xmlns="http://www.w3.org/2000/svg" xmlns:xlink="http://www.w3.org/1999/xlink" x="0px" y="0px"
	 viewBox="0 0 430.2 163.1" style="enable-background:new 0 0 430.2 163.1;" xml:space="preserve">
<style type="text/css">
	.st0{fill:#F8EC17;}
	.st1{fill:url(#SVGID_1_);}
	.st2{fill:#045462;}
	.st3{fill:#FFFFFF;}
	.st4{fill:url(#SVGID_2_);}
</style>
<polygon class="st0" points="430.2,59.5 350,107.1 350,0 430.2,0 "/>
<linearGradient id="SVGID_1_" gradientUnits="userSpaceOnUse" x1="412.5098" y1="162.0702" x2="335.7697" y2="60.4102" gradientTransform="matrix(1 0 0 -1 0 162.12)">
	<stop  offset="0" style="stop-color:#000000;stop-opacity:0.4"/>
	<stop  offset="1" style="stop-color:#1D1D1B;stop-opacity:0.1"/>
</linearGradient>
<polygon class="st1" points="430.2,59.5 350,107.1 350,0 430.2,0 "/>
<rect x="0" y="28.5" class="st2" width="392" height="134.7"/>
<polygon class="st3" points="56.4,59.5 47.5,100.9 69.6,100.9 74.4,78.6 125.5,78.6 129.6,59.5 "/>
<polygon class="st3" points="91.2,90.6 86.4,113 35.1,113 31,132.1 104.4,132.1 113.3,90.6 "/>
<path class="st3" d="M148.5,117.3c2.5,2.5,6,3.9,9.5,3.9c5.6,0,9.1-3.6,9.1-8.1c0-9.9-15-7.8-15-15c0-2.6,2.5-5.2,6.3-5.2
	c2.4,0,4.8,1,6.6,2.6l1.5-2.5c-2.2-1.9-5.1-3-8-2.9c-5.6,0-9.4,3.8-9.4,8.1c0,9.3,15,7.4,15,15c0,3.2-2.7,5.2-6,5.2
	c-2.9-0.1-5.7-1.2-7.9-3.3L148.5,117.3z"/>
<polygon class="st3" points="187.3,120.6 190.2,120.6 190.2,93.2 201,93.2 201,90.6 176.5,90.6 176.5,93.2 187.3,93.2 "/>
<polygon class="st3" points="231.3,120.6 234.4,120.6 223.4,90.6 220.2,90.6 209.2,120.6 212.3,120.6 221.8,93.7 221.9,93.7 "/>
<path class="st3" d="M246.7,105.4c0,8.8,6.3,15.7,15.2,15.7c4.3,0.1,8.4-1.6,11.5-4.7l-1.7-2.1c-2.6,2.5-6.1,4-9.7,4
	c-7.1,0-12.2-5.9-12.2-13s5-12.6,12.1-12.6c3.3,0,6.6,1.2,9.1,3.3l1.6-2.2c0,0-3.6-3.9-10.8-3.9C253.2,90.1,246.7,96.7,246.7,105.4"
	/>
<polygon class="st3" points="286.4,106.2 295,120.6 298.5,120.6 288.9,104.8 288.9,104.8 297.9,90.6 294.5,90.6 286.4,103.6 
	285.5,104.9 "/>
<rect x="314" y="90" class="st3" width="7.5" height="30.5"/>
<polygon class="st3" points="335.3,90 335.3,96.5 344.6,96.5 344.6,120.6 352,120.6 352,96.5 361.3,96.5 361.3,90 "/>
<polygon class="st0" points="430.2,59.5 172.8,59.5 185.6,0 430.2,0 "/>
<path class="st2" d="M228.9,17h7.5c1.6-0.1,3.2,0.1,4.8,0.7c2.4,1,3.8,3.5,3.8,6.5c0.2,3.1-1.8,6-4.8,6.9v0.1c0.2,0.3,0.5,0.7,0.6,1
	l5.5,10.2h-2.9l-5.8-10.7h-6.4v10.7h-2.5L228.9,17z M237.4,29.6c3.1,0,5-2,5-5.2c0.1-1.8-0.8-3.5-2.3-4.4c-1.1-0.5-2.4-0.7-3.6-0.6
	h-5.1v10.2H237.4z"/>
<path class="st2" d="M251.3,17h2.5v16.5c0,4.4,2.8,7,7.2,7s7.2-2.6,7.2-7.1V17h2.5v16.5c0,5.6-4,9.3-9.7,9.3s-9.8-3.7-9.8-9.3
	L251.3,17z"/>
<path class="st2" d="M277.8,17h2.4l13,18.3c0.9,1.3,2.1,3.4,2.1,3.4h0.1c0,0-0.2-2.1-0.2-3.4V17h2.5v25.4h-2.4l-13-18.3
	c-0.9-1.3-2.1-3.4-2.1-3.4l0,0c0,0,0.2,2.1,0.2,3.4v18.3h-2.5L277.8,17z"/>
<path class="st2" d="M304.6,37.7c1.8,1.7,4.2,2.7,6.7,2.8c2.8,0,5.1-1.7,5.1-4.4c0-6.4-12.7-4.8-12.7-12.7c0-3.6,3.2-6.8,7.9-6.8
	c2.5-0.1,4.9,0.8,6.8,2.5l-1.2,2.1c-1.5-1.4-3.5-2.1-5.6-2.2c-3.3,0-5.4,2.1-5.4,4.4c0,6,12.7,4.3,12.7,12.7c0,3.8-2.9,6.9-7.7,6.9
	c-3,0-5.9-1.1-8.1-3.3L304.6,37.7z"/>
<path class="st2" d="M345.4,16.6c7.1-0.1,12.9,5.7,12.9,12.8c0,0.1,0,0.2,0,0.2c0.7,7.1-4.6,13.5-11.8,14.1
	c-7.1,0.7-13.5-4.6-14.1-11.8c-0.1-0.8-0.1-1.6,0-2.4c-0.1-7.1,5.6-12.9,12.7-13C345.2,16.6,345.3,16.6,345.4,16.6z M345.4,40.6
	c5.7,0,10.3-4.8,10.3-11c0.2-5.7-4.3-10.5-10-10.7c-5.7-0.2-10.5,4.3-10.7,10c0,0.2,0,0.4,0,0.6C335,35.8,339.6,40.6,345.4,40.6z"/>
<path class="st2" d="M363.9,17h2.4l13,18.3c0.9,1.3,2.1,3.4,2.1,3.4h0.1c0,0-0.2-2.1-0.2-3.4V17h2.5v25.4h-2.4l-13-18.3
	c-0.9-1.3-2.1-3.4-2.1-3.4h-0.1c0,0,0.2,2.1,0.2,3.4v18.3h-2.5L363.9,17z"/>
<linearGradient id="SVGID_2_" gradientUnits="userSpaceOnUse" x1="282.365" y1="102.77" x2="282.365" y2="93.27" gradientTransform="matrix(1 0 0 -1 0 162.12)">
	<stop  offset="0" style="stop-color:#000000;stop-opacity:0.2"/>
	<stop  offset="1" style="stop-color:#000000;stop-opacity:0"/>
</linearGradient>
<rect x="172.8" y="59.5" class="st4" width="219.2" height="9.7"/>
</svg>
