<svg xmlns="http://www.w3.org/2000/svg" viewBox="0 0 32 32" xml:space="preserve" enable-background="new 0 0 32 32">
    <path d="m24.015 14.601-1.414 1.414L27 20.414l4.399-4.399-1.414-1.414L28 16.586v-.355c0-7.168-5.832-13-13-13s-13 5.832-13 13c0 7.167 5.832 13 13 13 4.028 0 7.764-1.822 10.247-4.999L23.671 23A10.942 10.942 0 0 1 15 27.23c-6.065 0-11-4.935-11-11s4.935-11 11-11 11 4.935 11 11v.355l-1.985-1.984z"/>
    <path d="M9.057 19.308V20.5h5.503v-1.408h-3.103l1.018-1.175c.542-.542.934-.975 1.178-1.297.245-.324.424-.632.539-.927.116-.294.173-.596.173-.907 0-.737-.229-1.301-.691-1.695-.46-.394-1.116-.59-1.969-.59a2.98 2.98 0 0 0-1.44.347 2.588 2.588 0 0 0-1.37 2.302h1.83c0-.354.087-.649.26-.886a.803.803 0 0 1 .677-.354c.283 0 .497.088.645.265.148.177.222.435.222.775 0 .418-.312.984-.937 1.695l-2.535 2.663zM20.303 20.5v-1.673h.802v-1.408h-.802v-4.805h-1.826v.017l-3.157 5.08.108 1.116h3.049V20.5h1.826zm-3.245-3.082 1.305-2.243.113-.184v2.427h-1.418z"/>
</svg>
