<svg xmlns="http://www.w3.org/2000/svg" xml:space="preserve" style="fill-rule:evenodd;clip-rule:evenodd;stroke-linejoin:round;stroke-miterlimit:2" viewBox="0 0 462 100"><path d="M262.034 0c1.127 0 1.537.41 1.537 1.538v73.305c0 1.436-.615 1.948-1.846 2.153-8.714 1.436-14.558 1.846-21.939 1.846-20.71 0-25.221-5.844-25.221-28.809 0-22.76 4.511-28.912 23.478-28.912 5.331 0 9.74.205 13.123.615V1.538c0-1.127.513-1.538 1.538-1.538zm-22.043 31.885c-11.482 0-13.021 3.383-13.021 18.147 0 13.943 1.128 18.044 12.713 18.044 3.179 0 7.895-.308 11.482-.82V31.885H239.99zm49.413-24.401c0 4.613-2.563 7.074-7.382 7.074s-7.382-2.46-7.382-7.074c0-4.511 2.563-6.972 7.382-6.972s7.382 2.46 7.382 6.972m-2.666 14.148q1.538 0 1.538 1.538v53.62q0 1.538-1.538 1.538h-9.432q-1.538 0-1.538-1.538V23.17q0-1.538 1.538-1.538zm59.156 1.333c1.23.103 1.948.82 1.948 2.05v50.032c-.103 17.839-3.589 24.298-24.4 24.298-5.126 0-11.278-.308-16.814-1.128-.923-.205-1.435-.718-1.435-1.641v-6.049c0-1.127.512-1.538 1.537-1.538h15.994c10.252 0 12.713-2.46 12.713-10.56v-.513c-4.408.718-8.305.923-13.123.923-18.967 0-23.58-6.151-23.58-29.322 0-22.555 4.716-28.399 25.323-28.399 8.919 0 16.608.82 21.837 1.846zm-22.247 8.919c-11.278 0-12.405 3.999-12.405 18.044 0 14.661 1.537 18.044 13.02 18.044 3.384 0 7.588-.103 11.176-.615V31.885h-11.79zm50.028-24.4c0 4.613-2.562 7.074-7.381 7.074s-7.382-2.46-7.382-7.074c0-4.511 2.562-6.972 7.382-6.972s7.381 2.46 7.381 6.972m-2.665 14.148q1.538 0 1.538 1.538v53.62q0 1.538-1.538 1.538h-9.433q-1.537 0-1.537-1.538V23.17q0-1.538 1.537-1.538zm27.782-15.686c1.129-.308 1.743.308 1.743 1.436v14.353h10.15c1.025 0 1.64.513 1.64 1.538v6.459c0 1.127-.614 1.64-1.64 1.64h-10.15v31.27c0 4.511 1.333 5.434 6.356 5.434h4.512c1.23 0 1.742.41 1.742 1.436v6.767c0 1.127-.512 1.64-1.537 1.845-2.871.513-5.742.718-7.279.718-7.997 0-16.302-.205-16.302-12.508V31.372h-5.844c-1.025 0-1.64-.513-1.64-1.64v-6.459c0-1.025.614-1.538 1.64-1.538h5.844V9.945c0-1.025.513-1.436 1.436-1.641zm58.54 16.302c1.025.205 1.538.718 1.538 1.641v6.049c0 1.025-.513 1.538-1.641 1.538h-18.864c-4.306 0-6.767 1.333-6.767 4.511v1.23c0 2.46 1.333 4.408 5.639 6.049l13.431 4.921c9.022 3.383 10.458 8.612 10.458 14.969v1.333c0 11.688-7.792 14.354-21.223 14.354-8.92 0-16.609-.615-19.992-.923-1.23-.103-1.538-.615-1.538-1.538v-6.356c0-1.128.41-1.641 1.641-1.641h19.89c6.869 0 9.021-.82 9.021-4.409v-1.025c0-2.461-1.229-4.101-5.844-5.844l-13.533-5.126c-7.996-2.871-10.252-9.022-10.252-15.071v-2.051c0-11.175 9.227-13.738 22.043-13.738 4.408 0 10.047.205 15.993 1.128z" style="fill:light-dark(#0a1e2d, #fff);fill-rule:nonzero"/><path d="M20.043 23.597c.607.152.81.354.81.81v3.847c0 .557-.202.81-.86.81h-9.11c-1.974 0-2.986.557-2.986 1.822v.506c0 .962.607 1.67 2.43 2.328l6.479 2.278c4.302 1.518 5.314 4.15 5.314 7.592v.81c0 5.871-4.354 7.39-10.781 7.39-4.403 0-8.047-.253-10.477-.506-.658 0-.86-.202-.86-.759v-4.1c0-.557.253-.759.86-.759h10.376c2.683 0 3.492-.354 3.492-1.721v-.456c0-.962-.557-1.62-2.784-2.379L5.72 38.883C1.722 37.516.558 34.429.558 31.19v-.962c0-5.416 4.201-7.288 11.489-7.288 2.177 0 5.062.152 7.997.658zm27.03 0c.557.101.86.354.86 1.012v3.998c0 .557-.304.81-.86.81h-8.25c-4.656 0-5.365 1.569-5.365 7.946 0 6.327.709 7.947 5.365 7.947h8.25c.557 0 .86.253.86.759v4.049c0 .607-.304.861-.86.962-2.733.607-6.377.709-8.25.709-10.78 0-12.855-2.885-12.855-14.425s2.075-14.425 12.855-14.425c1.873 0 5.517.101 8.25.658m12.352-11.236c.506 0 .759.304.759.81v10.021c1.873-.202 3.948-.253 5.365-.253 9.667 0 12.198 1.822 12.198 12.147v15.64c0 .557-.254.81-.76.81h-6.022c-.507 0-.709-.253-.709-.81V37.01c0-7.238-.81-7.592-5.466-7.592h-4.556v21.308c0 .557-.253.81-.759.81h-6.074c-.506 0-.708-.253-.708-.81V13.171c0-.506.253-.81.759-.81zm64.13 10.831c.506 0 .658.152.607.708l-4.353 22.827c-.86 4.505-2.277 5.062-6.935 5.062-5.82 0-6.428-.557-7.439-5.062l-2.48-11.236-2.48 11.236c-.961 4.505-1.619 5.062-7.389 5.062-4.707 0-6.074-.557-6.985-5.062L81.799 23.9c-.102-.557.102-.708.607-.708h6.428c.304 0 .455.152.557.708l3.492 20.65c.203.86.354.962.81.962.558 0 .658-.101.811-.962l4.707-19.79c.151-.557.404-.709.81-.709h5.922c.354 0 .658.152.759.709l4.707 19.79c.203.86.304.962.811.962.455 0 .657-.101.86-.962l3.492-20.65c.101-.557.202-.708.557-.708h6.428zm27.032 8.453v17.512c0 .81-.203 1.265-1.114 1.569-3.543.81-7.997 1.063-11.489 1.063-7.592 0-11.59-.81-11.691-8.756.102-6.833 3.645-8.301 10.376-8.301h6.428V32.91c0-2.429-1.519-3.492-4.758-3.492h-9.161c-.557 0-.708-.152-.708-.759v-4.15c0-.607.202-.708.708-.81 3.088-.607 6.023-.759 9.161-.759 10.021 0 12.249 3.239 12.249 8.706zm-13.312 7.946c-2.632 0-3.543.861-3.543 3.037 0 2.429 1.113 3.087 4.302 3.087 1.013 0 3.594-.101 5.062-.506v-5.618zm34.977-16.095c.557.152.81.354.81 1.012v4.15c0 .506-.304.759-.86.759h-4.758c-2.632 0-3.543.405-3.543 2.581v18.727c0 .557-.253.81-.759.81h-6.023c-.506 0-.759-.253-.759-.81v-20.65c0-6.377 4.556-7.137 9.161-7.137 1.468 0 4.96.152 6.731.557zm25.813-.304c.557 0 .86.253.86.759v3.442c0 .405-.151.658-.354.962L186.12 45.057h12.603c.557 0 .86.253.86.759v4.909c0 .557-.304.81-.86.81H176.15c-.607 0-.911-.253-.911-.81v-3.29c0-.354.101-.607.354-.962l12.855-16.956h-11.742c-.607 0-.86-.253-.86-.759V23.95c0-.506.253-.759.86-.759h21.358z" style="fill:#00c3cd;fill-rule:nonzero"/></svg>