<svg xmlns="http://www.w3.org/2000/svg" xml:space="preserve" style="fill-rule:evenodd;clip-rule:evenodd;stroke-linejoin:round;stroke-miterlimit:2" viewBox="0 0 2619 2619"><path d="M108 2726.65h2618.646V108.004H108zm2510.646-108H216V216.004h2402.646z" style="fill:#e30613;fill-rule:nonzero" transform="translate(-108 -108.004)"/><path d="M932.391 1135.584h478.884v478.883H932.391z" style="fill:#e30613" transform="translate(-108 -108.004)"/><path d="M1483.284 1135.323v479.144h479.145z" style="fill:#e30613;fill-rule:nonzero" transform="translate(-108 -108.004)"/><path d="M932.391 584.701h478.884v478.883H932.391z" style="fill:#e30613" transform="translate(-108 -108.004)"/><path d="M1483.284 584.701v479.144l479.145-479.144zm-775.54 1312.883h-88.338l-114.148 159.312v-159.312h-77.92v347.406h77.92v-156.333l114.148 156.333h90.324l-134-177.672zm450.031 267.999c-8.933 11.414-24.812 26.304-49.627 26.304-28.29 0-45.164-18.362-45.164-48.635v-129.536h-67.993v142.934c0 54.594 31.267 93.303 88.835 93.303 38.216 0 62.039-19.849 73.949-32.756v27.793h67.001v-231.274h-67.001zm616.597-127.548c-13.896-13.398-37.72-29.281-70.971-29.281-64.518 0-109.183 53.599-109.183 121.594 0 66.998 44.17 119.605 109.183 119.605 35.239 0 58.563-16.377 70.971-28.785v23.814h66.999v-231.265h-66.999zm0 133.006c-9.433 10.424-25.312 21.838-49.136 21.838-35.731 0-61.043-25.805-61.043-63.524s25.312-63.525 61.043-63.525c23.824 0 39.703 11.412 49.136 21.836z" style="fill:#e30613;fill-rule:nonzero" transform="translate(-108 -108.004)"/><path d="M880.094 2038.035c-13.897-13.398-37.72-29.281-70.971-29.281-64.518 0-109.182 53.599-109.182 121.594 0 66.998 44.169 119.605 109.182 119.605 35.239 0 58.563-16.377 70.971-28.785v23.814h66.999v-231.265h-66.999zm0 133.006c-9.433 10.424-25.312 21.838-49.135 21.838-35.731 0-61.043-25.805-61.043-63.524s25.312-63.525 61.043-63.525c23.823 0 39.702 11.412 49.135 21.836zm1460.213-273.457v142.435c-11.911-12.404-36.233-31.267-73.453-31.267-65.014 0-109.187 53.601-109.187 121.595 0 67.99 45.166 119.606 109.187 119.606 37.22 0 61.542-18.364 73.453-31.266v26.303h67.001v-347.406zm0 270.48c-8.935 11.416-25.807 24.816-51.613 24.816-35.736 0-61.048-25.806-61.048-63.525s25.312-63.525 61.048-63.525c25.806 0 42.678 13.398 51.613 24.812zm-308.883-159.312c-37.718 0-62.04 19.854-73.452 32.757v-27.794h-67.495v231.274h67.495v-151.865c8.437-11.912 24.319-26.303 49.63-26.303 28.288 0 44.666 18.364 44.666 48.635v129.533h67.992v-142.933c0-54.589-31.265-93.304-88.836-93.304m-628.509-60.049c22.829 0 36.231 9.927 36.231 9.927l10.921-51.616s-18.365-14.392-62.041-14.392c-56.578 0-91.814 32.755-91.814 93.801v27.293h-34.244v55.587h34.244v175.687h68.984v-175.687h78.416v-55.587h-78.416v-21.339c0-29.282 13.399-43.674 37.719-43.674" style="fill:#e30613;fill-rule:nonzero" transform="translate(-108 -108.004)"/><path d="M1482.563 1897.584h68.984v347.406h-68.984z" style="fill:#e30613" transform="translate(-108 -108.004)"/></svg>