<svg xmlns="http://www.w3.org/2000/svg" xml:space="preserve" style="fill-rule:evenodd;clip-rule:evenodd;stroke-linejoin:round;stroke-miterlimit:2" viewBox="0 0 113 113"><path d="M1 1h113.01v113.01H1z" style="fill:#0050aa" transform="translate(-1 -1)"/><path d="M57.5 3.99c-29.54 0-53.51 23.97-53.51 53.53 0 29.54 23.97 53.5 53.51 53.5s53.51-23.96 53.51-53.5c0-29.56-23.97-53.53-53.51-53.53" style="fill:#e60a14" transform="translate(-1 -1)"/><path d="M57.5 7.38c-27.68 0-50.12 22.45-50.12 50.14 0 27.66 22.45 50.11 50.12 50.11s50.12-22.45 50.12-50.11c0-27.69-22.45-50.14-50.12-50.14" style="fill:#fff000" transform="translate(-1 -1)"/><path d="M79.53 48.2v3.4h2.64v11.81h-2.64v3.42h22.28v-9.31l-9.14 5.08v-11h2.64v-3.4z" style="fill:#0050aa" transform="translate(-1 -1)"/><path d="M70.75 48.2H55.72v3.4h2.63v11.81h-2.63v3.42h15.03c11.11 0 11.22-18.63 0-18.63m-2.11 12.82h-.75v-7.03h.63c3.29-.01 3.29 7.04.12 7.03" style="fill:#0050aa" transform="translate(-1 -1)"/><path d="M58.35 54.93v3.42L44.11 72.61l-1.71-1.72 2.63-2.63-7.12-7.14-2.57 2.58v-3.43l10.21-10.22 8.84 8.84zM44.24 37.61a5.6 5.6 0 0 0-5.61 5.6c0 3.1 2.51 5.61 5.61 5.61s5.61-2.51 5.61-5.61c0-3.11-2.51-5.6-5.61-5.6" style="fill:#e60a14" transform="translate(-1 -1)"/><path d="M13.08 48.2h15.76v3.4h-2.63v11l9.13-5.08v9.31H13.08v-3.42h2.64V51.6h-2.64z" style="fill:#0050aa" transform="translate(-1 -1)"/></svg>