<svg xmlns="http://www.w3.org/2000/svg" xml:space="preserve" style="fill-rule:evenodd;clip-rule:evenodd;stroke-linejoin:round;stroke-miterlimit:2" viewBox="0 0 1001 393"><path d="M669.3 0C598.4 0 541 57.8 541 128.9v59.8c-.2 7.9 6.1 14.4 14 14.6h.2c8 0 14.5-6.5 14.5-14.6v-59.8c0-55 44.7-98.9 99.6-98.9H971v233c0 55-44.7 100-99.6 100h-100c-7.9-.1-14.4 6.2-14.5 14.1v.2c0 8.1 6.5 14.6 14.5 14.7h100c71 0 128.7-58 128.7-129V0z" style="fill:#a5c814;fill-rule:nonzero"/><path d="M674.8 243.7H584c-23.9-.1-43.3 19.2-43.4 43.1v61.7c0 24 19.5 43.8 43.4 43.8h90.7c23.9 0 43.4-19.8 43.4-43.8v-61.6c0-23.9-19.4-43.2-43.3-43.2M689 348.4c0 7.9-6.4 14.3-14.3 14.3h-90.6c-7.9 0-14.3-6.4-14.3-14.3v-61.6c0-7.9 6.4-14.3 14.3-14.3h90.7c7.9 0 14.3 6.4 14.3 14.3v61.6zm-170.2-90.2c.1 7.9-6.2 14.4-14.1 14.6h-.2l-50.4.1c-7.9 0-14.3 6.4-14.3 14.3v90.5c0 8-6.5 14.5-14.6 14.5s-14.5-6.5-14.5-14.5v-90.5c0-24 19.4-43.4 43.4-43.5h50.1c8.1 0 14.6 6.5 14.6 14.5m-184.5-14.6h-88.9c-24 0-43.4 19.5-43.4  43.5v61.6c0 24 19.4 43.4 43.4 43.5h88.7c8-.2 14.4-6.9 14.2-14.9-.2-7.7-6.4-14-14.2-14.2h-88.7c-7.9 0-14.3-6.4-14.3-14.3v-18h103.2c24.1 0 43.6-19.5 43.5-43.6.1-24.1-19.4-43.6-43.5-43.6m0 58H231.1v-14.5c0-7.9 6.4-14.3 14.3-14.3h88.9c8 .2 14.3 6.8 14 14.8-.1 7.7-6.3 13.8-14 14m-158.7 76c0 8-6.5 14.6-14.5 14.6H14.5c-8 0-14.6-6.5-14.5-14.6 0-4.3 1.9-8.4 5.2-11.2l115.4-93.7H14.5c-8-.2-14.4-6.9-14.2-14.9.2-7.7 6.4-14 14.2-14.2h146.2c8 0 14.6 6.6 14.5 14.6 0 4.3-1.9 8.4-5.2 11.2L52.6 363.1h108.5c8 0 14.5 6.5 14.5 14.5M475.2 0h-88.9c-24 .1-43.4 19.5-43.4 43.5v61.6c0 24 19.4 43.4 43.4 43.5H475c8-.2 14.4-6.9 14.2-14.9-.2-7.7-6.4-14-14.2-14.2h-88.6c-7.9 0-14.3-6.4-14.3-14.3v-18h103.2c24.1 0 43.6-19.5 43.6-43.6C518.8 19.5 499.3 0 475.2 0m0 58H372V43.5c0-7.9 6.4-14.3 14.3-14.3h88.9c8 .2 14.3 6.8 14 14.8-.1 7.6-6.3 13.8-14 14M320.9 14.5c.1 7.9-6.2 14.4-14.1 14.6h-.2l-50.4.1c-7.9 0-14.3 6.4-14.3 14.3V134c-.2 8-6.9 14.4-14.9 14.2-7.7-.2-14-6.4-14.2-14.2V43.5c0-24 19.4-43.4 43.3-43.5h50.1c8.2 0 14.7 6.5 14.7 14.5M14.5 202.8c8 0 14.5-6.5 14.5-14.6v-39.6h103c24 0 43.4-19.5 43.4-43.5V43.5C175.4 19.5 156 0 132 0H43.4C19.4 0 0 19.5 0 43.5v144.8c0 8 6.5 14.5 14.5 14.5M29.1 43.5c0-7.9 6.4-14.3 14.3-14.3H132c7.9 0 14.3 6.4 14.3 14.3v61.7c0 7.9-6.4 14.3-14.3 14.3H29z" style="fill:light-dark(#003d4a, #fff);fill-rule:nonzero"/></svg>