<svg xmlns="http://www.w3.org/2000/svg" xml:space="preserve" style="fill-rule:evenodd;clip-rule:evenodd;stroke-linejoin:round;stroke-miterlimit:2" viewBox="0 0 291 116"><path d="M57.241 78.738h10.031c.225 2.969 2.068 3.688 4.902 3.688 2.923 0 4.184-.719 4.184-2.203 0-1.395-1.08-2.115-4.544-2.609l-3.867-.54c-5.803-.81-9.941-3.958-9.941-10.075 0-5.039 2.653-10.481 13.628-10.481 8.366 0 13.494 3.148 14.079 10.57h-9.401c-.225-1.934-1.259-3.059-4.317-3.059-2.789 0-3.869.81-3.869 2.07s1.08 1.889 3.014 2.159l3.867.54c8.007 1.124 11.605 4.182 11.605 9.895 0 6.882-4.993 11.335-14.617 11.335-9.806 0-14.439-4.588-14.754-11.29m31.329-5.533c0-10.21 6.612-16.687 17.182-16.687 9.401 0 14.663 5.172 16.103 12.999h-10.481c-.765-2.969-2.922-4.363-5.847-4.363-4.004 0-6.433 2.474-6.433 8.051 0 5.713 2.61 8.232 6.569 8.232 2.743 0 4.992-1.26 5.757-4.318h10.389c-1.305 7.511-7.735 12.954-16.642 12.954-9.76 0-16.597-6.567-16.597-16.868m55.922-15.967h10.166v32.025h-10.166V77.434h-9.22v11.829h-10.166V57.238h10.166v11.47h9.22zm49.279 0h10.391l-8.457 32.025H184.82l-2.114-9.76a194 194 0 0 1-1.663-8.322c-.54 2.744-1.08 5.533-1.709 8.322l-2.116 9.76h-10.885l-8.455-32.025h10.389l1.799 9.491c.721 3.778 1.395 7.601 2.07 11.289.629-3.688 1.394-7.511 2.114-11.289l1.89-9.491h9.76l1.889 9.491c.719 3.778 1.484 7.601 2.113 11.289.676-3.688 1.351-7.511 2.07-11.289zm30.866 32.025-1.259-4.183h-11.515l-1.261 4.183h-10.164l10.839-32.025h12.416l11.469 32.025zm-10.616-11.604h7.108l-2.206-7.377c-.448-1.574-.944-3.194-1.348-4.769l-1.349 4.769zm52.181 8.366c.136 1.664.271 2.428.765 3.238h-10.391c-.404-.854-.584-1.844-.63-3.238l-.135-3.194c-.134-3.059-1.078-4.003-4.092-4.003h-3.508v10.435h-10.166V57.238h15.788c9.626 0 12.323 4.408 12.323 9.4 0 3.824-1.617 6.388-4.811 7.647 2.969 1.125 4.228 3.329 4.497 7.017zm-13.943-14.574c2.293 0 3.508-.989 3.508-3.193s-1.215-3.194-3.508-3.194h-4.048v6.387zm45.705 8.951v8.861H269.85v-7.826l8.861-9.671c1.799-1.934 3.6-3.913 5.533-5.892-2.654.045-5.308.09-7.961.09H270.3v-8.726h27.439v7.646l-9.176 9.851a165 165 0 0 1-5.578 5.758 486 486 0 0 1 8.186-.091z" style="fill:light-dark(#0a194f, #fff);fill-rule:nonzero" transform="translate(-57.24 -56.518)"/><path d="M57.241 114.433c0-10.21 6.612-16.687 17.183-16.687 9.401 0 14.662 5.172 16.102 12.999h-10.48c-.765-2.969-2.923-4.363-5.848-4.363-4.004 0-6.432 2.474-6.432 8.051 0 5.713 2.609 8.232 6.568 8.232 2.743 0 4.992-1.26 5.757-4.318h10.39c-1.305 7.511-7.736 12.954-16.643 12.954-9.76 0-16.597-6.567-16.597-16.868m35.609.045c0-10.255 6.973-16.732 16.958-16.732s16.957 6.477 16.957 16.732c0 10.301-6.972 16.778-16.957 16.778-10.031 0-16.958-6.477-16.958-16.778m23.391 0c0-5.712-2.656-8.096-6.433-8.096-3.779 0-6.433 2.384-6.433 8.096 0 5.758 2.654 8.142 6.433 8.142 3.777 0 6.433-2.384 6.433-8.142m41.501 12.775c.136 1.664.269 2.428.765 3.238h-10.391c-.404-.854-.584-1.844-.629-3.238l-.136-3.194c-.133-3.059-1.078-4.003-4.092-4.003h-3.508v10.435h-10.166V98.466h15.788c9.626 0 12.324 4.408 12.324 9.4 0 3.824-1.618 6.388-4.812 7.647 2.969 1.125 4.228 3.329 4.497 7.017zm-13.943-14.574c2.293 0 3.508-.989 3.508-3.193s-1.215-3.194-3.508-3.194h-4.048v6.387zm45.826-2.789c0 6.928-4.633 11.425-12.549 11.425h-5.442v9.176h-10.166V98.466h15.608c7.916 0 12.549 4.497 12.549 11.424m-13.899 3.059c2.159 0 3.464-1.035 3.464-3.059s-1.305-3.058-3.464-3.058h-4.092v6.117zm15.982 1.529c0-10.255 6.973-16.732 16.958-16.732s16.957 6.477 16.957 16.732c0 10.301-6.972 16.778-16.957 16.778-10.031 0-16.958-6.477-16.958-16.778m23.39 0c0-5.712-2.655-8.096-6.432-8.096-3.779 0-6.433 2.384-6.433 8.096 0 5.758 2.654 8.142 6.433 8.142 3.777 0 6.432-2.384 6.432-8.142m41.429 12.775c.135 1.664.271 2.428.765 3.238h-10.391c-.405-.854-.584-1.844-.63-3.238l-.135-3.194c-.134-3.059-1.078-4.003-4.093-4.003h-3.508v10.435h-10.166V98.466h15.788c9.626 0 12.324 4.408 12.324 9.4 0 3.824-1.618 6.388-4.811 7.647 2.968 1.125 4.227 3.329 4.496 7.017zm-13.944-14.574c2.293 0 3.509-.989 3.509-3.193s-1.216-3.194-3.509-3.194h-4.048v6.387zm40.609 17.812-1.259-4.183h-11.515l-1.261 4.183h-10.165l10.84-32.025h12.415l11.469 32.025zm-10.617-11.604h7.108l-2.205-7.377c-.448-1.574-.944-3.194-1.349-4.769l-1.348 4.769zm45.451-11.695h-8.861v23.299H299v-23.299h-8.861v-8.726h27.887zm29.365 0h-16.103v3.148h14.888v8.411h-14.888v3.014h16.103v8.726h-26.269V98.466h26.269zm-290.15 54.002h10.031c.225 2.969 2.068 3.688 4.902 3.688 2.923 0 4.184-.719 4.184-2.203 0-1.395-1.08-2.115-4.544-2.609l-3.867-.54c-5.803-.81-9.941-3.958-9.941-10.075 0-5.039 2.653-10.481 13.628-10.481 8.366 0 13.494 3.148 14.079 10.57h-9.401c-.225-1.934-1.259-3.059-4.317-3.059-2.789 0-3.869.81-3.869 2.07s1.08 1.889 3.014 2.159l3.867.54c8.007 1.124 11.605 4.182 11.605 9.895 0 6.882-4.993 11.335-14.617 11.335-9.806 0-14.439-4.588-14.754-11.29m31.329-5.488c0-10.255 6.972-16.732 16.957-16.732s16.958 6.477 16.958 16.732c0 10.301-6.973 16.778-16.958 16.778-10.031 0-16.957-6.477-16.957-16.778m23.39 0c0-5.712-2.656-8.096-6.433-8.096-3.779 0-6.433 2.384-6.433 8.096 0 5.758 2.654 8.142 6.433 8.142 3.777 0 6.433-2.384 6.433-8.142m23.682 7.287h13.765v8.726h-23.931v-32.025h10.166zm16.21-3.509v-19.79h10.166v19.521c0 2.518 1.123 4.633 4.498 4.633 3.373 0 4.498-2.115 4.498-4.633v-19.521h10.165v19.79c0 7.962-5.218 13-14.663 13-9.447 0-14.664-5.038-14.664-13m60.167-11.064h-8.861v23.299h-10.165V148.42h-8.861v-8.726h27.887zm2.954-8.726h10.166v32.025h-10.166zm13.056 16.012c0-10.255 6.972-16.732 16.957-16.732s16.958 6.477 16.958 16.732c0 10.301-6.973 16.778-16.958 16.778-10.031 0-16.957-6.477-16.957-16.778m23.39 0c0-5.712-2.656-8.096-6.433-8.096-3.779 0-6.433 2.384-6.433 8.096 0 5.758 2.654 8.142 6.433 8.142 3.777 0 6.433-2.384 6.433-8.142m33.667-16.012h9.896v32.025h-10.571l-6.746-11.38c-1.125-1.889-2.113-3.598-3.014-5.352.136 3.778.18 7.422.18 11.515v5.217h-9.896v-32.025h10.571l6.612 11.379c.99 1.71 2.07 3.869 3.104 6.028-.136-4.004-.136-7.827-.136-12.19zm12.574 21.5h10.031c.225 2.969 2.068 3.688 4.903 3.688 2.923 0 4.183-.719 4.183-2.203 0-1.395-1.079-2.115-4.544-2.609l-3.867-.54c-5.803-.81-9.941-3.958-9.941-10.075 0-5.039 2.654-10.481 13.629-10.481 8.365 0 13.493 3.148 14.079 10.57h-9.401c-.225-1.934-1.259-3.059-4.317-3.059-2.789 0-3.869.81-3.869 2.07s1.08 1.889 3.014 2.159l3.867.54c8.006 1.124 11.604 4.182 11.604 9.895 0 6.882-4.992 11.335-14.616 11.335-9.806 0-14.44-4.588-14.755-11.29" style="fill:#4a6be8;fill-rule:nonzero" transform="translate(-57.24 -56.518)"/></svg>