<svg xmlns="http://www.w3.org/2000/svg" xml:space="preserve" style="fill-rule:evenodd;clip-rule:evenodd;stroke-linejoin:round;stroke-miterlimit:2" viewBox="0 0 545 160"><path d="M544.8 0H33.4l-3.8 18.2h41L46.7 132.6h17.6L88.2 18.2H541z" style="fill:#003aad;fill-rule:nonzero"/><path d="m103.8 27.3-22 105.4h17.5l9-43.4h19.5l-9 43.4h17.1l22-105.4h-54.2zm8.3 43.9 6.3-29.7h19.4l-6.2 29.7z" style="fill:#003aad"/><path d="M167.9 27.3h35.8l-3 14.3h-8.4L176 119.3h8.5l-2.8 13.4h-35.8l2.7-13.4h9.8l16.3-77.7h-9.8zm229.7 0h-35.8l-3 14.3h9.8l-16.3 77.7h-9.8l-2.7 13.4h35.8l2.8-13.4h-8.5l16.3-77.7h8.4zm-182.4 0h17.6l-19.3 92h28.9l-2.8 13.4h-46.4zm70.3 0h-16l-22 105.4h81.4l22-105.4h-15.8l-19.3 92h-16l19.3-92h-17.6l-19.3 92h-16l19.2-92zm125.2 0h18.6l4.1 66.7 14-66.7H465l-22 105.4h-23.9l-3.5-48.3-10.1 48.3h-16.8z" style="fill:#003aad;fill-rule:nonzero"/><path d="m478.9 27.3-3 14.3h5.9l-16.3 77.7h-5.9l-2.7 13.4h60.4l21.9-105.4zm4.3 92h19.9l16.3-77.7h-19.9z" style="fill:#003aad"/><path d="m515.4 141.6-3.8 18.4H.2L4 141.6z" style="fill:#003aad;fill-rule:nonzero"/></svg>