<svg version="1.1" id="loaf-bread_svg__Ebene_1" xmlns="http://www.w3.org/2000/svg" x="0" y="0" viewBox="0 0 32 32" xml:space="preserve" enable-background="new 0 0 32 32">
    <style>
        .loaf-bread_svg__st2{fill:none;stroke:#d6d6d6;stroke-width:5.000000e-02;stroke-miterlimit:10}
    </style>
    <path d="M0 0h32v32H0z" id="loaf-bread_svg__Area" fill-opacity="0"/>
    <path d="M20 8h-8C6.5 8 2 12 2 16.9c0 3.9 3.6 7.1 8 7.1h12c4.4 0 8-3.2 8-7.1C30 12 25.5 8 20 8zm2 14H10c-3.3 0-6-2.3-6-5.1 0-3.5 3-6.3 6.9-6.8l-2.6 4.6 1.7 1 3.3-5.6h3.2l-2.7 4.6 1.7 1 3.3-5.6H20c.6 0 1.2.1 1.8.2l-2.6 4.5 1.7 1 2.8-4.8c2.5 1.2 4.2 3.4 4.2 6.1.1 2.6-2.6 4.9-5.9 4.9z"/>
</svg>
