<svg xmlns="http://www.w3.org/2000/svg" viewBox="0 0 32 32" xml:space="preserve" enable-background="new 0 0 32 32">
    <path d="M20.4 19.431a2.657 2.657 0 0 1-2.087-1.005l-1.562 1.248a4.647 4.647 0 0 0 3.649 1.757 4.664 4.664 0 0 0 3.868-2.056l-1.656-1.121a2.667 2.667 0 0 1-2.212 1.177zM8 7h7v2H8zM8 11h3v2H8z"/>
    <path d="M25 11h-6V6c0-1.654-1.346-3-3-3H7C5.346 3 4 4.346 4 6v15.414L8.414 17H13v5c0 1.654 1.346 3 3 3h7.586L28 29.414V14c0-1.654-1.346-3-3-3zM7.586 15 6 16.586V6c0-.551.448-1 1-1h9c.552 0 1 .449 1 1v5h-1c-1.654 0-3 1.346-3 3v1H7.586zM26 24.586 24.414 23H16a1 1 0 0 1-1-1v-8c0-.551.448-1 1-1h9c.552 0 1 .449 1 1v10.586z"/>
</svg>
