<svg xmlns="http://www.w3.org/2000/svg" viewBox="0 0 32 32" xml:space="preserve" enable-background="new 0 0 32 32">
    <path d="M25 3H7C5.346 3 4 4.346 4 6v20c0 1.654 1.346 3 3 3h18c1.654 0 3-1.346 3-3V6c0-1.654-1.346-3-3-3zM7 5h18c.552 0 1 .449 1 1v14h-7v2.006a1 1 0 0 1-1 1h-4a1 1 0 0 1-1-1V20H6V6c0-.551.448-1 1-1zm18 22H7a1 1 0 0 1-1-1v-4h5v.006c0 1.654 1.346 3 3 3h4c1.654 0 3-1.346 3-3l5-.005V26a1 1 0 0 1-1 1z"/>
    <path d="M15 11.284V18h2v-6.716l2.654 2.451 1.358-1.47L16 7.639l-5.012 4.626 1.358 1.47z"/>
</svg>
