<svg xmlns="http://www.w3.org/2000/svg" viewBox="0 0 32 32" xml:space="preserve" enable-background="new 0 0 32 32">
    <path d="M9.84 19.34A7.07 7.07 0 0 1 9 16H7c0 1.76.51 3.4 1.39 4.79l1.45-1.45zM16 23c-1.21 0-2.34-.3-3.33-.84l2.29-2.3A3.999 3.999 0 0 0 20 16v-1.18l7.91-7.91L26.5 5.5 20 12l-2 2-3.41 3.41-1.42 1.42-2.12 2.12-1.41 1.41L5.5 26.5l1.41 1.41 4.3-4.3c1.12.71 2.41 1.18 3.79 1.33V30h2v-5.06c4.49-.49 8-4.32 8-8.94h-2c0 3.86-3.14 7-7 7zM14 15.18V6c0-1.1.9-2 2-2s2 .9 2 2v5.18l2-2V6c0-2.21-1.79-4-4-4s-4 1.79-4 4v10c0 .36.05.71.14 1.04L14 15.18z"/>
</svg>
