<svg xmlns="http://www.w3.org/2000/svg" viewBox="0 0 32 32" xml:space="preserve" enable-background="new 0 0 32 32">
    <path d="M23.385 18.38a3.002 3.002 0 0 0-4.242 0l-2.675 2.675a17.048 17.048 0 0 1-5.522-5.522l2.675-2.675a3.003 3.003 0 0 0 0-4.243L10.9 5.894c-1.134-1.134-3.112-1.132-4.242 0L4.452 8.099c-1.056 1.055-1.576 2.486-1.428 3.926.922 8.903 8.053 16.032 16.955 16.952a4.853 4.853 0 0 0 3.915-1.422l2.212-2.212c.566-.566.879-1.32.879-2.122a2.98 2.98 0 0 0-.88-2.12l-2.72-2.721zm1.306 5.548-2.211 2.213c-.623.623-1.464.934-2.296.846-7.966-.822-14.346-7.201-15.17-15.167-.086-.825.232-1.687.852-2.305l2.206-2.206a.99.99 0 0 1 .706-.293c.267 0 .518.104.707.293l2.721 2.721c.39.39.39 1.024 0 1.415l-3.758 3.757.37.661a19.055 19.055 0 0 0 7.32 7.32l.66.37 3.758-3.758a1.025 1.025 0 0 1 1.414 0l2.721 2.721a.998.998 0 0 1 0 1.412zM25.056 6.929a9.95 9.95 0 0 0-9.275-2.675l.439 1.951a7.962 7.962 0 0 1 7.422 2.138 7.957 7.957 0 0 1 2.134 7.435l1.951.443a9.953 9.953 0 0 0-2.671-9.292z"/>
    <path d="M23.473 16.4a5.961 5.961 0 0 0-1.245-6.643 5.964 5.964 0 0 0-6.625-1.254l.795 1.835a3.977 3.977 0 0 1 4.416.833 3.975 3.975 0 0 1 .827 4.428l1.832.801z"/>
</svg>
