<svg xmlns="http://www.w3.org/2000/svg" viewBox="0 0 32 32" xml:space="preserve" enable-background="new 0 0 32 32">
    <path d="m27.105 20.101-2.721-2.721a3.002 3.002 0 0 0-4.242 0l-2.675 2.675a17.058 17.058 0 0 1-5.522-5.522l2.675-2.675a3.003 3.003 0 0 0 0-4.243l-2.721-2.721c-1.134-1.135-3.112-1.132-4.242 0L5.452 7.099c-1.056 1.055-1.576 2.486-1.428 3.926.922 8.903 8.053 16.032 16.955 16.952a4.853 4.853 0 0 0 3.915-1.422l2.212-2.212c.566-.566.879-1.32.879-2.122a2.98 2.98 0 0 0-.88-2.12zm-1.414 2.827-2.211 2.213c-.624.623-1.467.933-2.296.846-7.966-.822-14.346-7.201-15.17-15.167-.085-.826.233-1.688.852-2.306l2.206-2.206a.994.994 0 0 1 .706-.292c.267 0 .518.104.707.293l2.721 2.721c.39.39.39 1.024 0 1.415l-3.758 3.757.37.661a19.055 19.055 0 0 0 7.32 7.32l.66.37 3.758-3.758a1.025 1.025 0 0 1 1.414 0l2.721 2.721a.998.998 0 0 1 0 1.412z"/>
</svg>
