<svg xmlns="http://www.w3.org/2000/svg" viewBox="0 0 32 32" xml:space="preserve" enable-background="new 0 0 32 32">
    <path d="M0 0h32v32H0z" fill="none"/>
    <path d="M16 10a6 6 0 1 0 0 12 6 6 0 0 0 0-12zm0 10c-2.206 0-4-1.794-4-4s1.794-4 4-4 4 1.794 4 4-1.794 4-4 4zM25.888 6.089l-1.412 1.416A11.924 11.924 0 0 1 28 16c0 3.204-1.247 6.217-3.511 8.481l1.414 1.414A13.903 13.903 0 0 0 30 16c0-3.745-1.46-7.265-4.112-9.911zM7.515 7.515 6.101 6.101A13.903 13.903 0 0 0 2 16c0 3.739 1.456 7.255 4.101 9.899l1.414-1.414C5.248 22.219 4 19.205 4 16s1.248-6.219 3.515-8.485z"/>
    <path d="M26 16a9.893 9.893 0 0 0-2.935-7.069l-1.41 1.419A7.905 7.905 0 0 1 24 16c0 .556-.054 1.101-.158 1.614a7.982 7.982 0 0 1-2.186 4.036l1.408 1.42a9.96 9.96 0 0 0 2.735-5.051c.134-.65.201-1.33.201-2.019zM10.345 10.35l-1.41-1.419A9.893 9.893 0 0 0 6 16a9.893 9.893 0 0 0 2.935 7.069l1.41-1.418A7.91 7.91 0 0 1 8 16c0-2.142.833-4.148 2.345-5.65z"/>
</svg>
