<svg xmlns="http://www.w3.org/2000/svg" viewBox="0 0 32 32" xml:space="preserve" enable-background="new 0 0 32 32">
    <circle cx="20.5" cy="21.5" r="1.5"/>
    <circle cx="11.5" cy="21.5" r="1.5"/>
    <path d="M27 8h-1V7c0-1.654-1.346-3-3-3H9C7.346 4 6 5.346 6 7v1H5c-1.654 0-3 1.346-3 3v3h2v-3c0-.551.448-1 1-1h1v6h-.067v2H6v9c0 1.654 1.346 3 3 3h1c1.654 0 3-1.346 3-3h6c0 1.654 1.346 3 3 3h1c1.654 0 3-1.346 3-3V10h1c.552 0 1 .449 1 1v3h2v-3c0-1.654-1.346-3-3-3zM8 7c0-.551.448-1 1-1h14c.552 0 1 .449 1 1v1H8V7zm16 20a1 1 0 0 1-1 1h-1a1 1 0 0 1-1-1v-2H11v2a1 1 0 0 1-1 1H9a1 1 0 0 1-1-1v-9h16v9zm0-11H8v-6h16v6z"/>
</svg>
