<svg xmlns="http://www.w3.org/2000/svg" viewBox="0 0 32 32" xml:space="preserve" enable-background="new 0 0 32 32">
    <path d="M7 18h4v2H7zM21 18h4v2h-4z"/>
    <path d="M30 13h-2.173l-1.054-5.532C26.567 5.491 25.089 4 23.333 4H8.667C6.911 4 5.433 5.491 5.24 7.384L4.172 13H2v2h1.026A4.948 4.948 0 0 0 2 18v7c0 1.654 1.346 3 3 3h1c1.654 0 3-1.346 3-3h14c0 1.654 1.346 3 3 3h1c1.654 0 3-1.346 3-3v-7c0-1.13-.391-2.162-1.026-3H30v-2zM7.218 7.674C7.314 6.735 7.951 6 8.667 6h14.666c.716 0 1.353.735 1.462 1.758L25.792 13H6.207l1.011-5.326zM28 25a1 1 0 0 1-1 1h-1a1 1 0 0 1-1-1v-2H7v2a1 1 0 0 1-1 1H5a1 1 0 0 1-1-1v-7c0-1.654 1.346-3 3-3h18c1.654 0 3 1.346 3 3v7z"/>
</svg>
