<svg xmlns="http://www.w3.org/2000/svg" viewBox="0 0 32 32" xml:space="preserve" enable-background="new 0 0 32 32">
    <path d="M7 24a1 1 0 0 1-1 1H5a1 1 0 0 1-1-1v-7c0-1.654 1.346-3 3-3h21.208l-1.436-7.532C26.567 4.491 25.089 3 23.333 3H8.667C6.911 3 5.433 4.491 5.24 6.384L4.172 12H2v2h1.026A4.948 4.948 0 0 0 2 17v7c0 1.654 1.346 3 3 3h1c1.654 0 3-1.346 3-3h5v-2H7v2zm.218-17.326C7.314 5.735 7.951 5 8.667 5h14.666c.716 0 1.353.735 1.462 1.758L25.792 12H6.207l1.011-5.326z"/>
    <path d="M7 17h4v2H7zM30 24v-2h-2.621a4.437 4.437 0 0 0-.579-1.386l1.857-1.857-1.414-1.414-1.857 1.857A4.437 4.437 0 0 0 24 18.621V16h-2v2.621c-.5.114-.965.313-1.386.579l-1.857-1.857-1.414 1.414 1.857 1.857A4.437 4.437 0 0 0 18.621 22H16v2h2.621c.114.5.313.965.579 1.386l-1.857 1.857 1.414 1.414 1.857-1.857c.421.266.887.465 1.386.579V30h2v-2.621c.5-.114.965-.313 1.386-.579l1.857 1.857 1.414-1.414-1.857-1.857c.266-.421.465-.887.579-1.386H30zm-7 1.5c-1.379 0-2.5-1.121-2.5-2.5s1.121-2.5 2.5-2.5 2.5 1.121 2.5 2.5-1.121 2.5-2.5 2.5z"/>
</svg>
