<svg xmlns="http://www.w3.org/2000/svg" viewBox="0 0 32 32" xml:space="preserve" enable-background="new 0 0 32 32">
    <path d="M16 12c2.757 0 5-2.243 5-5s-2.243-5-5-5-5 2.243-5 5 2.243 5 5 5zm0-8c1.654 0 3 1.346 3 3s-1.346 3-3 3-3-1.346-3-3 1.346-3 3-3zM16 18c-3.309 0-6 2.691-6 6s2.691 6 6 6 6-2.691 6-6-2.691-6-6-6zm4 6c0 .74-.215 1.424-.567 2.019l-1.508-1.508A1.96 1.96 0 0 0 18 24c0-.738-.405-1.376-1-1.723v-2.135c1.721.447 3 1.999 3 3.858zm-5-3.858v2.135c-.595.346-1 .984-1 1.723 0 .178.031.347.074.512l-1.508 1.508A3.962 3.962 0 0 1 12 24c0-1.859 1.279-3.411 3-3.858zm-1.019 7.291 1.508-1.508c.164.044.333.075.511.075s.347-.031.512-.074l1.508 1.508c-.596.351-1.28.566-2.02.566s-1.424-.215-2.019-.567z"/>
    <path d="M19 14h-6c-3.859 0-7 3.141-7 7v5h2v-5c0-2.757 2.243-5 5-5h6c2.757 0 5 2.243 5 5v5h2v-5c0-3.859-3.141-7-7-7z"/>
</svg>
