<svg xmlns="http://www.w3.org/2000/svg" viewBox="0 0 32 32" xml:space="preserve" enable-background="new 0 0 32 32">
    <path d="M6 25V7c0-.551.448-1 1-1h18c.552 0 1 .449 1 1v10h2V7c0-1.654-1.346-3-3-3H7C5.346 4 4 5.346 4 7v18c0 1.654 1.346 3 3 3h14v-2H7a1 1 0 0 1-1-1z"/>
    <path d="M17.125 9h-5.356v14h2.433v-5.192h2.894c1.622 0 2.884-.382 3.783-1.145.902-.764 1.352-1.833 1.352-3.206 0-1.341-.461-2.419-1.38-3.234C19.931 9.408 18.688 9 17.125 9zm1.98 6.235c-.455.407-1.116.611-1.98.611h-2.923v-4.884h2.991c.806.013 1.442.245 1.903.697.463.452.693 1.056.693 1.812-.001.769-.229 1.357-.684 1.764zM25.477 23l1.452-3.629-1.858-.742L22.523 25h3l-1.452 3.629 1.858.742L28.477 23z"/>
</svg>
