<svg xmlns="http://www.w3.org/2000/svg" viewBox="0 0 32 32" xml:space="preserve" enable-background="new 0 0 32 32">
    <path d="M16 12c2.757 0 5-2.243 5-5s-2.243-5-5-5-5 2.243-5 5 2.243 5 5 5zm0-8c1.654 0 3 1.346 3 3s-1.346 3-3 3-3-1.346-3-3 1.346-3 3-3zM26.047 16.047l-1.414-1.414L11.266 28H8.454l14.772-14.773-1.414-1.414-2.235 2.235c-.193-.016-.39-.048-.577-.048h-6c-3.859 0-7 3.141-7 7v9h20v-9a6.983 6.983 0 0 0-1.128-3.778l1.175-1.175zM13 16h4.626L8 25.626V21c0-2.757 2.243-5 5-5zm11 5v7h-9.906l9.321-9.321c.373.71.585 1.503.585 2.321z"/>
</svg>
