<svg xmlns="http://www.w3.org/2000/svg" viewBox="0 0 32 32" xml:space="preserve" enable-background="new 0 0 32 32">
    <path d="m23.707 4.293-1.414 1.414L24.586 8l-1.293 1.293 1.414 1.414L26 9.414l1 1V21a1 1 0 0 1-2 0v-4c0-1.654-1.346-3-3-3h-1V7c0-1.654-1.346-3-3-3H8C6.346 4 5 5.346 5 7v19H3v2h20v-2h-2V16h1c.552 0 1 .449 1 1v4c0 1.654 1.346 3 3 3s3-1.346 3-3V9.586l-5.293-5.293zM7 26V7c0-.551.448-1 1-1h10c.552 0 1 .449 1 1v19H7z"/>
    <path d="m13 10.146-3.164 4.22a4.198 4.198 0 0 0-.399 4.386c.678 1.383 1.981 2.224 3.506 2.248h.132c1.508-.024 2.812-.865 3.489-2.248a4.2 4.2 0 0 0-.399-4.386L13 10.146zm1.767 7.727c-.163.333-.657 1.109-1.709 1.127H13v1l-.041-1c-1.068-.018-1.562-.794-1.726-1.127-.292-.597-.392-1.515.202-2.307L13 13.48l1.564 2.086c.594.792.495 1.71.203 2.307z"/>
</svg>
