<svg xmlns="http://www.w3.org/2000/svg" viewBox="0 0 32 32" xml:space="preserve" enable-background="new 0 0 32 32">
    <path d="M30 22.477v-4.344a3.016 3.016 0 0 0-1.456-2.573L20 10.434V6.17c0-2.224-1.663-4.053-3.786-4.164a3.955 3.955 0 0 0-2.967 1.092A4.016 4.016 0 0 0 12 6v4.434L3.456 15.56A3.016 3.016 0 0 0 2 18.133v4.344l10-4v4.109l-3 3v4.353l7-1.902 7 1.902v-4.353l-3-3v-4.109l10 4zm-9 3.937v.909l-5-1.359-5 1.359v-.909l3-3v-7.891l-10 4v-1.391c0-.35.186-.679.485-.857L14 11.566V6c0-.554.222-1.069.624-1.451s.945-.574 1.484-.546C17.151 4.058 18 5.03 18 6.17v5.396l9.515 5.709c.3.179.485.508.485.857v1.391l-10-4v7.891l3 3z"/>
</svg>
