<svg xmlns="http://www.w3.org/2000/svg" viewBox="0 0 32 32" xml:space="preserve" enable-background="new 0 0 32 32">
    <path d="M26.707 27.293a3.786 3.786 0 0 0-1.521-.915l1.951-7.803L24 16.379v-3.764c0-1.825-1.31-3.322-3-3.566V5h-4V2h-2v3h-4v4.049c-1.69.241-3 1.737-3 3.561v3.77l-3.137 2.196 1.951 7.803a3.775 3.775 0 0 0-1.521.915l-2 2 1.414 1.414 2-2a1.83 1.83 0 0 1 2.586 0 3.834 3.834 0 0 0 5.414 0 1.83 1.83 0 0 1 2.586 0 3.834 3.834 0 0 0 5.414 0 1.83 1.83 0 0 1 2.586 0l2 2 1.414-1.414-2-2.001zM22 12.616v2.364L16.315 11h4.21c.814 0 1.475.725 1.475 1.616zM13 7h6v2h-6V7zm-3 5.61c0-.888.659-1.61 1.469-1.61h4.216L10 14.979V12.61zm3.293 14.683c-.691.691-1.895.691-2.586 0a3.79 3.79 0 0 0-1.857-1.014l-1.713-6.854L15 13.921v12.402a3.79 3.79 0 0 0-1.707.97zm8 0c-.691.691-1.895.691-2.586 0a3.79 3.79 0 0 0-1.707-.97V13.921l7.863 5.504-1.713 6.854a3.787 3.787 0 0 0-1.857 1.014z"/>
    <path d="m9.068 20.73 3.57-2.498 1.147 1.64-3.57 2.497zM18.217 19.87l1.146-1.638 3.57 2.497-1.146 1.64z"/>
</svg>
