<svg xmlns="http://www.w3.org/2000/svg" viewBox="0 0 32 32" xml:space="preserve" enable-background="new 0 0 32 32">
    <path d="M24 22.184V8.5C24 6.019 21.981 4 19.5 4S15 6.019 15 8.5v15c0 1.379-1.121 2.5-2.5 2.5S10 24.879 10 23.5V7.686l2.293 2.293 1.414-1.414L9 3.857 4.293 8.564l1.414 1.414L8 7.686V23.5c0 2.481 2.019 4.5 4.5 4.5s4.5-2.019 4.5-4.5v-15C17 7.122 18.121 6 19.5 6S22 7.122 22 8.5v13.684A2.996 2.996 0 0 0 20 25c0 1.654 1.346 3 3 3s3-1.346 3-3a2.996 2.996 0 0 0-2-2.816zM23 26a1 1 0 1 1 0-2 1 1 0 0 1 0 2z"/>
</svg>
