<svg xmlns="http://www.w3.org/2000/svg" viewBox="0 0 32 32" xml:space="preserve" enable-background="new 0 0 32 32">
    <path d="M20 24.184V11.5C20 9.019 17.981 7 15.5 7S11 9.019 11 11.5v14c0 1.379-1.121 2.5-2.5 2.5S6 26.879 6 25.5V10.674l1.107 1.107 1.414-1.414L5 6.845l-3.521 3.522 1.414 1.414L4 10.674V25.5C4 27.981 6.019 30 8.5 30s4.5-2.019 4.5-4.5v-14c0-1.378 1.121-2.5 2.5-2.5s2.5 1.122 2.5 2.5v12.684A2.996 2.996 0 0 0 16 27c0 1.654 1.346 3 3 3s3-1.346 3-3a2.996 2.996 0 0 0-2-2.816zM19 28a1 1 0 1 1 0-2 1 1 0 0 1 0 2zM31.223 3.847l-1.414-1.414-3.293 3.293-3.293-3.293-1.414 1.414 3.293 3.293-3.293 3.293 1.414 1.414 3.293-3.293 3.293 3.293 1.414-1.414L27.93 7.14z"/>
</svg>
