<svg xmlns="http://www.w3.org/2000/svg" viewBox="0 0 32 32" xml:space="preserve" enable-background="new 0 0 32 32">
    <path d="m15 14.18 2-2V10h-2z"/>
    <path d="M6.55 22.63C5.57 20.98 5 19.06 5 17 5 10.93 9.93 6 16 6c2.06 0 3.98.57 5.63 1.55l1.45-1.45C21.04 4.77 18.61 4 16 4 8.82 4 3 9.82 3 17c0 2.61.77 5.04 2.1 7.08l1.45-1.45zM2.04 7.545l5.5-5.498L8.953 3.46 3.455 8.959zM25.8 3.39l-1.34-1.34-1.42 1.41 1.34 1.34zM27.2 7.62l1.34 1.34 1.41-1.42-1.33-1.33.79-.8L28 4l-.79.8-1.42 1.41-1.11 1.11-1.42 1.42L17 15l-2 2-7.26 7.26-1.42 1.42L4 28l1.41 1.41 2.35-2.35C10 28.89 12.87 30 16 30c7.18 0 13-5.82 13-13 0-3.13-1.11-6-2.94-8.24l1.14-1.14zM27 17c0 6.07-4.93 11-11 11-2.58 0-4.94-.88-6.82-2.36l6.6-6.6 4.71 2.82 1.02-1.72-4.27-2.56 7.4-7.4C26.12 12.06 27 14.42 27 17z"/>
</svg>
