<svg xmlns="http://www.w3.org/2000/svg" viewBox="0 0 32 32" xml:space="preserve" enable-background="new 0 0 32 32">
    <path d="M22 1.989H10A5.017 5.017 0 0 0 4.989 7v18A5.017 5.017 0 0 0 10 30.011h12A5.017 5.017 0 0 0 27.011 25V7A5.017 5.017 0 0 0 22 1.989zM24.989 25A2.993 2.993 0 0 1 22 27.989H10A2.993 2.993 0 0 1 7.011 25V7A2.993 2.993 0 0 1 10 4.011h12A2.993 2.993 0 0 1 24.989 7v18z"/>
    <path d="M15.29 24.29a1.045 1.045 0 0 0-.221 1.09c.061.12.131.229.221.33.1.09.21.16.33.21s.25.08.38.08.26-.03.38-.08.229-.12.33-.21c.09-.101.16-.21.21-.33s.08-.25.08-.38c0-.26-.11-.521-.29-.71-.37-.37-1.05-.37-1.42 0z"/>
</svg>
