<svg xmlns="http://www.w3.org/2000/svg" viewBox="0 0 32 32" xml:space="preserve" enable-background="new 0 0 32 32">
    <path d="M20 2h-8C9.243 2 7 4.243 7 7v18c0 2.757 2.243 5 5 5h8c2.757 0 5-2.243 5-5V7c0-2.757-2.243-5-5-5zm3 23c0 1.654-1.346 3-3 3h-8c-1.654 0-3-1.346-3-3V7c0-1.654 1.346-3 3-3h8c1.654 0 3 1.346 3 3v18z"/>
    <path d="M15.29 24.29a1.045 1.045 0 0 0-.221 1.09c.061.12.131.229.221.33.1.09.21.16.33.21s.25.08.38.08.26-.03.38-.08.229-.12.33-.21c.09-.101.16-.21.21-.33s.08-.25.08-.38c0-.26-.11-.521-.29-.71-.37-.37-1.05-.37-1.42 0z"/>
</svg>
