<svg xmlns="http://www.w3.org/2000/svg" viewBox="0 0 32 32" xml:space="preserve" enable-background="new 0 0 32 32">
    <path d="M25 4.989H7A5.017 5.017 0 0 0 1.989 10v12A5.017 5.017 0 0 0 7 27.011h18A5.017 5.017 0 0 0 30.011 22V10A5.017 5.017 0 0 0 25 4.989zM27.989 22A2.993 2.993 0 0 1 25 24.989H7A2.993 2.993 0 0 1 4.011 22V10A2.993 2.993 0 0 1 7 7.011h18A2.993 2.993 0 0 1 27.989 10v12z"/>
    <path d="M25.71 15.29c-.38-.37-1.04-.37-1.42 0-.09.1-.16.21-.21.33-.06.12-.08.25-.08.38 0 .07.01.13.02.2.011.06.03.12.061.18.02.06.05.12.09.18.03.05.08.1.12.15.188.18.449.29.709.29s.52-.11.71-.29l.12-.15c.04-.06.069-.12.09-.18.03-.06.05-.12.06-.18.01-.07.02-.13.02-.2 0-.13-.03-.26-.08-.38s-.12-.23-.21-.33z"/>
</svg>
