<svg fill="none" xmlns="http://www.w3.org/2000/svg" viewBox="0 0 24 24">
    <path fill-rule="evenodd" clip-rule="evenodd" d="M6.772 2.277h10.486a2.254 2.254 0 0 1 2.248 2.247v14.982a2.254 2.254 0 0 1-2.248 2.247H6.772a2.254 2.254 0 0 1-2.248-2.247V4.524a2.254 2.254 0 0 1 2.248-2.247Zm10.486 17.978c.412 0 .75-.337.75-.75V4.526a.751.751 0 0 0-.75-.75H6.772a.751.751 0 0 0-.75.75v14.98c0 .413.338.75.75.75h10.486ZM16.51 9.768H7.521V5.273h8.988v4.495Zm-1.498-2.996H9.02V8.27h5.992V6.772ZM9.02 11.266H7.52v1.498h1.498v-1.498Zm2.247 0h1.498v1.498h-1.498v-1.498Zm-2.247 2.996H7.52v1.498h1.498v-1.498Zm2.247 0h1.498v1.498h-1.498v-1.498Zm5.243-2.996h-1.498v1.498h1.498v-1.498Zm-1.498 2.996h1.498v4.495h-1.498v-4.495ZM9.02 17.258H7.52v1.498h1.498v-1.498Zm2.247 0h1.498v1.498h-1.498v-1.498Z"/>
</svg>
