<svg xmlns="http://www.w3.org/2000/svg" viewBox="0 0 32 32" xml:space="preserve" enable-background="new 0 0 32 32">
    <path d="M25 22.267a.734.734 0 0 1-.733.733H5.733A.734.734 0 0 1 5 22.267V11.733c0-.404.329-.733.733-.733H15V9H5.733A2.737 2.737 0 0 0 3 11.733v10.533A2.738 2.738 0 0 0 5.733 25h6.419l-.5 3H10v2h10v-2h-1.652l-.5-3h6.419A2.737 2.737 0 0 0 27 22.267V18h-2v4.267zM16.319 28H13.68l.5-3h1.639l.5 3z"/>
    <path d="M20 5.246v5.939A2.943 2.943 0 0 0 19 11c-1.654 0-3 1.346-3 3s1.346 3 3 3 3-1.346 3-3V6.754l5-1.429v4.859A2.966 2.966 0 0 0 26 10c-1.654 0-3 1.346-3 3s1.346 3 3 3 3-1.346 3-3V2.674l-9 2.572zM19 15a1.001 1.001 0 0 1 0-2 1.001 1.001 0 0 1 0 2zm7-1a1.001 1.001 0 0 1 0-2 1.001 1.001 0 0 1 0 2z"/>
</svg>
