<svg xmlns="http://www.w3.org/2000/svg" viewBox="0 0 32 32" xml:space="preserve" enable-background="new 0 0 32 32">
    <path d="M25 22.267a.734.734 0 0 1-.733.733H5.733A.734.734 0 0 1 5 22.267V11.733c0-.404.329-.733.733-.733H14V9H5.733A2.737 2.737 0 0 0 3 11.733v10.533A2.738 2.738 0 0 0 5.733 25h6.419l-.5 3H10v2h10v-2h-1.652l-.5-3h6.419A2.737 2.737 0 0 0 27 22.267V18h-2v4.267zM16.319 28H13.68l.5-3h1.639l.5 3z"/>
    <path d="M22.111 17.667A2.887 2.887 0 0 0 24.719 16h4.118l-.312-1.243a17.654 17.654 0 0 1-.525-4.27V9.444c0-2.967-2.167-5.431-5-5.91V2h-2v1.535c-2.833.478-5 2.942-5 5.91v1.043a17.66 17.66 0 0 1-.525 4.27L15.163 16h4.341a2.886 2.886 0 0 0 2.607 1.667zM18 10.487V9.444c0-2.206 1.794-4 4-4s4 1.794 4 4v1.043c0 1.178.106 2.354.317 3.513h-8.634c.211-1.158.317-2.335.317-3.513z"/>
</svg>
