<svg xmlns="http://www.w3.org/2000/svg" viewBox="0 0 32 32" xml:space="preserve" enable-background="new 0 0 32 32">
    <path d="M25 22.267a.734.734 0 0 1-.733.733H5.733A.734.734 0 0 1 5 22.267V11.733c0-.404.329-.733.733-.733H16V9H5.733A2.737 2.737 0 0 0 3 11.733v10.533A2.738 2.738 0 0 0 5.733 25h6.419l-.5 3H10v2h10v-2h-1.652l-.5-3h6.419A2.737 2.737 0 0 0 27 22.267V19h-2v3.267zM16.319 28H13.68l.5-3h1.639l.5 3z"/>
    <circle cx="23.5" cy="7.5" r="1.5"/>
    <path d="M23.5 18S29 13 29 7.5a5.5 5.5 0 1 0-11 0C18 13 23.5 18 23.5 18zm0-14C25.43 4 27 5.57 27 7.5c0 2.973-2.066 5.91-3.5 7.59-1.435-1.681-3.5-4.617-3.5-7.59C20 5.57 21.57 4 23.5 4z"/>
</svg>
