<svg xmlns="http://www.w3.org/2000/svg" viewBox="0 0 32 32" xml:space="preserve" enable-background="new 0 0 32 32">
    <path d="M25 22.267a.734.734 0 0 1-.733.733H5.733A.734.734 0 0 1 5 22.267V11.733c0-.404.329-.733.733-.733H13V9H5.733A2.737 2.737 0 0 0 3 11.733v10.533A2.738 2.738 0 0 0 5.733 25h6.419l-.5 3H10v2h10v-2h-1.652l-.5-3h6.419A2.737 2.737 0 0 0 27 22.267V17h-2v5.267zM16.319 28H13.68l.5-3h1.639l.5 3z"/>
    <path d="M29 10V8h-2.621a4.461 4.461 0 0 0-.579-1.386l1.857-1.857-1.414-1.414L24.386 5.2A4.437 4.437 0 0 0 23 4.621V2h-2v2.621c-.5.114-.965.314-1.386.579l-1.857-1.857-1.414 1.414L18.2 6.614A4.437 4.437 0 0 0 17.621 8H15v2h2.621c.114.5.314.965.579 1.386l-1.857 1.857 1.414 1.414 1.857-1.857c.421.266.887.465 1.386.579V16h2v-2.621c.5-.114.965-.314 1.386-.579l1.857 1.857 1.414-1.414-1.857-1.857c.265-.421.465-.886.579-1.386H29zm-7 1.5c-1.379 0-2.5-1.122-2.5-2.5s1.121-2.5 2.5-2.5 2.5 1.122 2.5 2.5-1.121 2.5-2.5 2.5z"/>
</svg>
