<svg xmlns="http://www.w3.org/2000/svg" viewBox="0 0 32 32" xml:space="preserve" enable-background="new 0 0 32 32">
    <path d="M25 22.267a.734.734 0 0 1-.733.733H5.733A.734.734 0 0 1 5 22.267V11.733c0-.404.329-.733.733-.733H14V9H5.733A2.737 2.737 0 0 0 3 11.733v10.533A2.738 2.738 0 0 0 5.733 25h6.419l-.5 3H10v2h10v-2h-1.652l-.5-3h6.419A2.737 2.737 0 0 0 27 22.267V18h-2v4.267zM16.319 28H13.68l.5-3h1.639l.5 3z"/>
    <path d="M23.018 2.035c-3.851 0-6.982 3.132-6.982 6.982S19.167 16 23.018 16 30 12.868 30 9.018s-3.132-6.983-6.982-6.983zm0 11.965c-2.747 0-4.982-2.235-4.982-4.982s2.235-4.982 4.982-4.982S28 6.27 28 9.018 25.765 14 23.018 14z"/>
    <path d="M24 6h-2v3.432l2.293 2.293 1.414-1.414L24 8.604z"/>
</svg>
