<svg xmlns="http://www.w3.org/2000/svg" viewBox="0 0 32 32" xml:space="preserve" enable-background="new 0 0 32 32">
    <path d="M24 5h2v2h-2z"/>
    <path d="M26 2H16c-1.654 0-3 1.346-3 3v4H5.733A2.737 2.737 0 0 0 3 11.733v10.533A2.738 2.738 0 0 0 5.733 25h6.419l-.5 3H10v2h10v-2h-1.652l-.5-3h6.419A2.737 2.737 0 0 0 27 22.267v-5.451A2.996 2.996 0 0 0 29 14V5c0-1.654-1.346-3-3-3zm-9.681 26H13.68l.5-3h1.639l.5 3zm7.948-5H5.733A.734.734 0 0 1 5 22.267V11.733c0-.404.329-.733.733-.733H13v3c0 1.654 1.346 3 3 3h9v5.267a.734.734 0 0 1-.733.733zM27 14c0 .551-.448 1-1 1H16c-.552 0-1-.449-1-1V5c0-.551.448-1 1-1h10c.552 0 1 .449 1 1v9z"/>
    <path d="M20.5 6C18.57 6 17 7.57 17 9.5s1.57 3.5 3.5 3.5S24 11.43 24 9.5 22.43 6 20.5 6zm0 5c-.827 0-1.5-.673-1.5-1.5S19.673 8 20.5 8s1.5.673 1.5 1.5-.673 1.5-1.5 1.5z"/>
</svg>
