<svg xmlns="http://www.w3.org/2000/svg" viewBox="0 0 32 32" xml:space="preserve" enable-background="new 0 0 32 32">
    <path d="M25 22.267a.734.734 0 0 1-.733.733H5.733A.734.734 0 0 1 5 22.267V11.733c0-.404.329-.733.733-.733H14V9H5.733A2.737 2.737 0 0 0 3 11.733v10.533A2.738 2.738 0 0 0 5.733 25h6.419l-.5 3H10v2h10v-2h-1.652l-.5-3h6.419A2.737 2.737 0 0 0 27 22.267V18h-2v4.267zM16.319 28H13.68l.5-3h1.639l.5 3z"/>
    <path d="M23 2c-3.859 0-7 3.14-7 7s3.141 7 7 7 7-3.14 7-7-3.141-7-7-7zm0 2c1.122 0 2.147.385 2.982 1.011l-7.291 6.481A4.942 4.942 0 0 1 18 9c0-2.757 2.243-5 5-5zm0 10a4.957 4.957 0 0 1-2.983-1.011l7.291-6.481A4.93 4.93 0 0 1 28 9c0 2.757-2.243 5-5 5z"/>
</svg>
