<svg xmlns="http://www.w3.org/2000/svg" viewBox="0 0 32 32" xml:space="preserve" enable-background="new 0 0 32 32">
    <path d="M25 22.267a.734.734 0 0 1-.733.733H5.733A.734.734 0 0 1 5 22.267V11.733c0-.404.329-.733.733-.733H13V9H5.733A2.737 2.737 0 0 0 3 11.733v10.533A2.738 2.738 0 0 0 5.733 25h6.419l-.5 3H10v2h10v-2h-1.652l-.5-3h6.419A2.737 2.737 0 0 0 27 22.267V14h-2v8.267zM16.319 28H13.68l.5-3h1.639l.5 3zM23.293 6.293a.999.999 0 1 0 1.414 1.414.999.999 0 1 0-1.414-1.414z"/>
    <path d="M28.967 6.427c-.175-1.526-1.037-2.876-2.366-3.704a4.955 4.955 0 0 0-5.151-.03c-1.756 1.066-2.668 3.021-2.386 5L14 12.757V17h4.242l5.065-5.065a5.007 5.007 0 0 0 4.228-1.399 4.975 4.975 0 0 0 1.432-4.109zm-2.846 2.695a2.969 2.969 0 0 1-2.887.762l-.557-.147L17.414 15H16v-1.415l5.263-5.263-.146-.556c-.35-1.325.188-2.645 1.37-3.363a2.982 2.982 0 0 1 3.057.017c.82.511 1.33 1.304 1.438 2.234a3 3 0 0 1-.861 2.468z"/>
</svg>
