<svg fill="none" xmlns="http://www.w3.org/2000/svg" viewBox="0 0 25 24">
    <path fill-rule="evenodd" clip-rule="evenodd" d="m11.291 4.404 5.243-3.04 5.244 3.04v5.394l-5.244 3.04-5.243-3.04V4.404Zm5.243 2.165 3.004-1.738-3.004-1.737-3.003 1.737 3.003 1.738Zm-3.745-.434v2.801l2.996 1.738V7.873L12.79 6.135Zm4.495 4.532 2.996-1.738V6.127l-2.997 1.738v2.802Zm1.498 6.03V12.74h1.498v3.948a2.048 2.048 0 0 1-2.045 2.045h-4.81l.375 2.247h1.236v1.498h-7.49v-1.498h1.236l.374-2.247H4.347a2.048 2.048 0 0 1-2.045-2.045V8.801c0-1.123.914-2.044 2.045-2.044h5.446v1.498H4.347A.55.55 0 0 0 3.8 8.8v7.896c0 .3.248.546.547.546h13.888a.55.55 0 0 0 .547-.546Zm-8.48 4.292h1.978l-.375-2.247h-1.228l-.375 2.247Z"/>
</svg>
