<svg xmlns="http://www.w3.org/2000/svg" viewBox="0 0 32 32" xml:space="preserve" enable-background="new 0 0 32 32">
    <path d="M27 14H16.967l.02-3.007a1 1 0 0 1 .999-.993H19c1.654 0 3-1.346 3-3V4h-2v3c0 .551-.448 1-1 1h-1.014a3.006 3.006 0 0 0-2.999 2.98l-.02 3.02H5c-1.654 0-3 1.346-3 3v8c0 1.654 1.346 3 3 3h22c1.654 0 3-1.346 3-3v-8c0-1.654-1.346-3-3-3zm1 11a1 1 0 0 1-1 1H5a1 1 0 0 1-1-1v-8c0-.551.448-1 1-1h22c.552 0 1 .449 1 1v8z"/>
    <path d="M11 22h10v2H11zM7 22h2v2H7zM7 18h2v2H7zM11 18h2v2h-2zM15 18h2v2h-2zM19 18h2v2h-2zM23 18h2v2h-2zM23 22h2v2h-2z"/>
</svg>
