<svg xmlns="http://www.w3.org/2000/svg" viewBox="0 0 32 32" xml:space="preserve" enable-background="new 0 0 32 32">
    <path d="M25 4H7C5.346 4 4 5.346 4 7v18c0 1.654 1.346 3 3 3h18c1.654 0 3-1.346 3-3V7c0-1.654-1.346-3-3-3zM7 6h18c.552 0 1 .449 1 1v14.184A2.966 2.966 0 0 0 25 21H7c-.352 0-.686.072-1 .184V7c0-.551.448-1 1-1zm19 19a1 1 0 0 1-1 1H7a1 1 0 0 1-1-1v-1a1 1 0 0 1 1-1h18a1 1 0 0 1 1 1v1z"/>
    <path d="m14.571 18.629 1.858.742L18.977 13h-3l1.452-3.628-1.858-.744L13.023 15h3z"/>
</svg>
