<svg xmlns="http://www.w3.org/2000/svg" viewBox="0 0 32 32" xml:space="preserve" enable-background="new 0 0 32 32">
    <path d="M7 22H5v-7c0-.551.448-1 1-1h18c.552 0 1 .449 1 1h2c0-1.654-1.346-3-3-3h-1V4H7v8H6c-1.654 0-3 1.346-3 3v9h4v4h7v-2H9v-4h5v-2H7v2zM9 6h12v6H9V6z"/>
    <path d="M7 16h2v2H7zM23.018 16.018c-3.859 0-7 3.141-7 7s3.141 7 7 7 7-3.141 7-7-3.141-7-7-7zm0 12c-2.757 0-5-2.243-5-5s2.243-5 5-5 5 2.243 5 5-2.244 5-5 5z"/>
    <path d="M24.018 20.018h-2v3.414l2.293 2.293 1.414-1.414-1.707-1.707z"/>
</svg>
