<svg xmlns="http://www.w3.org/2000/svg" viewBox="0 0 32 32" xml:space="preserve" enable-background="new 0 0 32 32">
    <path d="M7 22H5v-7c0-.551.448-1 1-1h18c.552 0 1 .449 1 1v2h2v-2c0-1.654-1.346-3-3-3h-1V4H7v8H6c-1.654 0-3 1.346-3 3v9h4v4h7v-2H9v-4h5v-2H7v2zM9 6h12v6H9V6z"/>
    <path d="M7 16h2v2H7zM25.492 20.011A4.408 4.408 0 0 0 21.8 18a4.409 4.409 0 0 0-4.27 3.314 3.402 3.402 0 0 0-2.517 3.587C15.164 26.639 16.727 28 18.57 28h6.63c2.096 0 3.8-1.794 3.8-4 0-2.14-1.519-3.837-3.508-3.989zM25.2 26h-6.63c-.802 0-1.503-.57-1.564-1.272-.035-.399.094-.78.361-1.072a1.385 1.385 0 0 1 1.033-.455h.943l.055-.942A2.405 2.405 0 0 1 21.8 20c.94 0 1.799.556 2.188 1.416l.274.606L25.2 22c1.026 0 1.8.859 1.8 2 0 1.103-.808 2-1.8 2z"/>
</svg>
