<svg xmlns="http://www.w3.org/2000/svg" viewBox="0 0 32 32" xml:space="preserve" enable-background="new 0 0 32 32">
    <path d="M8 22H6v-7c0-.551.448-1 1-1h18c.552 0 1 .449 1 1h2c0-1.654-1.346-3-3-3h-1V4H8v8H7c-1.654 0-3 1.346-3 3v9h4v4h6v-2h-4v-4h4v-2H8v2zm2-16h12v6H10V6z"/>
    <path d="M8 16h2v2H8zM23 16c-3.859 0-7 3.141-7 7s3.141 7 7 7 7-3.141 7-7-3.141-7-7-7zm0 12c-2.757 0-5-2.243-5-5s2.243-5 5-5 5 2.243 5 5-2.243 5-5 5z"/>
    <path d="m22.302 23.04-1.196-1.18-1.404 1.424 2.61 2.576 3.876-3.878-1.415-1.414z"/>
</svg>
