<svg xmlns="http://www.w3.org/2000/svg" viewBox="0 0 32 32" xml:space="preserve" enable-background="new 0 0 32 32">
    <path d="M26 16c0-3.273-1.588-6.175-4.026-8H22V5c0-1.654-1.346-3-3-3h-6c-1.654 0-3 1.346-3 3v3h.026C7.588 9.825 6 12.727 6 16c0 3.273 1.588 6.175 4.026 8H10v3c0 1.654 1.346 3 3 3h6c1.654 0 3-1.346 3-3v-3h-.026C24.412 22.175 26 19.273 26 16zM12 5c0-.551.448-1 1-1h6c.552 0 1 .449 1 1v1.841a9.93 9.93 0 0 0-8 0V5zM8 16c0-4.411 3.589-8 8-8s8 3.589 8 8-3.589 8-8 8-8-3.589-8-8zm12 11a1 1 0 0 1-1 1h-6a1 1 0 0 1-1-1v-1.841a9.93 9.93 0 0 0 8 0V27z"/>
    <path d="M20.707 19.293 17 15.586V11h-2v5.414l4.293 4.293z"/>
</svg>
