<svg xmlns="http://www.w3.org/2000/svg" viewBox="0 0 32 32" xml:space="preserve" enable-background="new 0 0 32 32">
    <path d="M5 24c-.55 0-1-.45-1-1V13c0-.55.45-1 1-1h12.18l2-2h-6.01c.41-1.16 1.53-2 2.83-2h5l2-2h-7a5 5 0 0 0-4.9 4H5c-1.65 0-3 1.35-3 3v10c0 1.13.63 2.11 1.55 2.63L5.18 24H5zM28.57 11.1 23 13.76v-1.94l6.41-6.41L28 4l-5 5-1 1-2 2L8 24l-2 2-2 2 1.41 1.41L8.82 26H20c1.65 0 3-1.35 3-3v-.3l5.63 2.23L30 24V12l-1.43-.9zM21 23c0 .55-.45 1-1 1h-9.18L21 13.82V23zm7-.47-5-1.98v-4.58l5-2.38v8.94z"/>
    <path d="M6 14h3v2H6z"/>
</svg>
