<svg fill="none" xmlns="http://www.w3.org/2000/svg" viewBox="0 0 24 24">
    <path d="M20.18 15.476a7.975 7.975 0 0 1-2.045.27c-4.337 0-7.865-3.529-7.865-7.866a7.83 7.83 0 0 1 1.146-4.09 8.176 8.176 0 0 1 1.206-1.513c-.158 0-.315-.015-.48-.015a10 10 0 0 0-1.58.128c-4.824.756-8.532 4.95-8.532 9.985 0 5.573 4.54 10.112 10.112 10.112 4.03 0 7.52-2.375 9.139-5.79a9.768 9.768 0 0 0 .689-1.955 7.69 7.69 0 0 1-1.79.734Zm-8.038 5.513c-4.749 0-8.614-3.865-8.614-8.615 0-3.842 2.524-7.1 6.008-8.21a9.44 9.44 0 0 0-.764 3.716c0 5.161 4.202 9.363 9.363 9.363.39 0 .779-.022 1.153-.067a8.607 8.607 0 0 1-7.146 3.813Z"/>
</svg>
