<svg xmlns="http://www.w3.org/2000/svg" viewBox="0 0 32 32" xml:space="preserve" enable-background="new 0 0 32 32">
    <path d="m27.003 18.943-4.868-5.49-3.592-1.028c-.016-.025-.026-.054-.043-.078V2h-3.721l-2.32 6.96.909 3.631-.033.06-8.977 5.183 1.86 3.222 6.534-1.337-.84 10.324 2.28-.092 5.904.059-1.035-11.357 6.081 3.511 1.861-3.221zM17 14a1.001 1.001 0 0 1-2 0 1.001 1.001 0 0 1 2 0zm-.779-10h.279v7.051A2.942 2.942 0 0 0 16 11c-.326 0-.634.065-.929.162l-.53-2.122L16.221 4zM7.229 18.809l-.14-.241 6.107-3.526c.171.459.45.862.809 1.183l-1.571 1.52-5.205 1.064zm10.674 9.18-3.741-.036-.074.003.799-9.802 1.203-1.163c.026-.001.051-.006.077-.008l.774.447.962 10.559zm6.507-8.556-6.111-3.528c.305-.368.534-.801.636-1.286l2.091.598 3.524 3.975-.14.241z"/>
</svg>
