<svg xmlns="http://www.w3.org/2000/svg" viewBox="0 0 32 32" xml:space="preserve" enable-background="new 0 0 32 32">
    <path d="M16 2C8.28 2 2 8.28 2 16s6.28 14 14 14 14-6.28 14-14S23.72 2 16 2zm12 14c0 1.76-.39 3.427-1.073 4.934l-2.294-3.823-3.287-.69c-.3-.128-.521-.4-.586-.723l-.476-2.378c-.089-.446.135-.897.616-1.135l4.995-2.96A11.92 11.92 0 0 1 28 16zM4 16a11.9 11.9 0 0 1 .728-4.075l6.454-.717a1.009 1.009 0 0 1 1.103.854l.667 4.669-1.71 2.28a3.014 3.014 0 0 0 .278 3.922l2.419 1.714a.99.99 0 0 1 .418.692.992.992 0 0 1-.229.774l-1.242 1.461C7.776 26.199 4 21.538 4 16zm12 12c-.276 0-.545-.023-.816-.041l.467-.549a2.998 2.998 0 0 0-.564-4.399l-2.202-1.543a1.006 1.006 0 0 1-.044-1.255l2.208-2.943-.784-5.49a2.984 2.984 0 0 0-3.304-2.558L5.745 9.8C7.851 6.331 11.653 4 16 4c3.378 0 6.428 1.408 8.611 3.661l-4.658 2.764a3.002 3.002 0 0 0-1.63 3.287l.476 2.377a3.01 3.01 0 0 0 1.923 2.233l2.646.565 2.419 4.032C23.61 25.988 20.039 28 16 28z"/>
</svg>
