<svg xmlns="http://www.w3.org/2000/svg" viewBox="0 0 32 32" xml:space="preserve" enable-background="new 0 0 32 32">
    <path d="m7 8.856 7.941-4.561L23 8.876V12h2v-1.987l1.506.856.988-1.738-12.558-7.14L2.502 9.133l.996 1.734L5 10.005V26h12v-2H7z"/>
    <circle cx="23.5" cy="19.5" r="1.5"/>
    <path d="M23.5 14a5.5 5.5 0 0 0-5.5 5.5C18 25 23.5 30 23.5 30S29 25 29 19.5a5.5 5.5 0 0 0-5.5-5.5zm0 13.09c-1.435-1.681-3.5-4.617-3.5-7.59 0-1.93 1.57-3.5 3.5-3.5s3.5 1.57 3.5 3.5c0 2.973-2.066 5.91-3.5 7.59z"/>
</svg>
