<svg xmlns="http://www.w3.org/2000/svg" viewBox="0 0 32 32" xml:space="preserve" enable-background="new 0 0 32 32">
    <path d="M26 3H6C4.346 3 3 4.346 3 6v20c0 1.654 1.346 3 3 3h20c1.654 0 3-1.346 3-3V6c0-1.654-1.346-3-3-3zm1 23a1 1 0 0 1-1 1H6a1 1 0 0 1-1-1V6c0-.551.448-1 1-1h20c.552 0 1 .449 1 1v20z"/>
    <path d="m12.784 13-1.509 2.197-.587.89V13H9v7h1.688v-1.846l.692-.76L12.871 20h2l-2.366-3.903L14.871 13zM19.078 17.871 17.515 13h-2.217v7h1.688v-1.635l-.163-3.35L18.519 20h1.116l1.693-4.98-.164 3.345V20h1.692v-7h-2.221z"/>
</svg>
