<svg fill="none" xmlns="http://www.w3.org/2000/svg" viewBox="0 0 25 24">
    <path fill-rule="evenodd" clip-rule="evenodd" d="M7.805 14.202c-.816-1.7-1.393-3.58-1.393-5.483a5.716 5.716 0 0 1 5.708-5.708c1.873 0 3.536.907 4.57 2.307l1.07-1.07a7.164 7.164 0 0 0-5.64-2.735A7.204 7.204 0 0 0 4.914 8.72c0 2.337.757 4.607 1.775 6.6l1.116-1.117Zm7.079-7.078a2.974 2.974 0 0 0-2.764-1.866 2.995 2.995 0 0 0-2.996 2.997c0 1.25.771 2.33 1.865 2.764l1.273-1.274a1.503 1.503 0 0 1-1.64-1.49c0-.824.674-1.498 1.498-1.498s1.498.674 1.498 1.498c0 .052 0 .097-.007.142l1.273-1.273Zm5.85-3.738 1.056 1.056-2.651 2.652a7.26 7.26 0 0 1 .187 1.625c0 7.214-7.206 13.768-7.206 13.768s-1.97-1.79-3.843-4.532L4.562 21.67l-1.056-1.056 3.94-3.94 1.093-1.093 8.907-8.907 1.138-1.138 2.15-2.15ZM12.12 20.36c1.873-2.015 5.708-6.742 5.708-11.64 0-.106 0-.21-.008-.308l-8.464 8.464a27.865 27.865 0 0 0 2.764 3.484Z"/>
</svg>
