<svg xmlns="http://www.w3.org/2000/svg" viewBox="0 0 32 32" xml:space="preserve" enable-background="new 0 0 32 32">
    <path d="M16 12c-2.206 0-4 1.794-4 4s1.794 4 4 4 4-1.794 4-4-1.794-4-4-4zm0 6c-1.103 0-2-.897-2-2s.897-2 2-2 2 .897 2 2-.897 2-2 2z"/>
    <path d="M30 15h-2.051C27.466 9.181 22.819 4.534 17 4.051V2h-2v2.051C9.181 4.534 4.534 9.181 4.051 15H2v2h2.051C4.534 22.819 9.181 27.466 15 27.949V30h2v-2.051c5.819-.483 10.466-5.13 10.949-10.949H30v-2zM17 25.949V24h-2v1.949c-4.717-.47-8.479-4.232-8.949-8.949H8v-2H6.051c.47-4.717 4.232-8.479 8.949-8.949V8h2V6.051c4.717.471 8.479 4.232 8.949 8.949H24v2h1.949c-.47 4.717-4.232 8.479-8.949 8.949z"/>
</svg>
