<svg xmlns="http://www.w3.org/2000/svg" viewBox="0 0 32 32" xml:space="preserve" enable-background="new 0 0 32 32">
    <path d="m13 6.281 6 1.5V13h2V7.802l7-1.555V14h2V3.753l-9.986 2.219-8.054-2.013L2 7.279v17.108l8.63-2.877 1.351-.45 1.66.623.703-1.873L13 19.307V6.281zM9.997 19.614 4 21.612V8.721l7-2.333V19.28l-1.003.334z"/>
    <path d="M23.018 14.018c-3.859 0-7 3.141-7 7s3.141 7 7 7 7-3.141 7-7-3.141-7-7-7zm0 12c-2.757 0-5-2.243-5-5s2.243-5 5-5 5 2.243 5 5-2.244 5-5 5z"/>
    <path d="M22.018 17.018h2v2h-2zM22.018 21h2v4.018h-2z"/>
</svg>
