<svg xmlns="http://www.w3.org/2000/svg" viewBox="0 0 32 32" xml:space="preserve" enable-background="new 0 0 32 32">
    <path d="M15 12.899V24h2V12.899A5.009 5.009 0 0 0 21 8c0-2.757-2.243-5-5-5s-5 2.243-5 5a5.01 5.01 0 0 0 4 4.899zM16 5c1.654 0 3 1.346 3 3s-1.346 3-3 3-3-1.346-3-3 1.346-3 3-3z"/>
    <path d="m19.009 18.108-.27 1.982c4.067.555 6.261 2.147 6.261 3.364C25 25.128 21.151 27 16 27s-9-1.872-9-3.546c0-1.217 2.194-2.81 6.26-3.363l-.27-1.982C8.137 18.771 5 20.868 5 23.454 5 26.616 9.729 29 16 29s11-2.384 11-5.546c0-2.586-3.137-4.683-7.991-5.346z"/>
</svg>
