<svg xmlns="http://www.w3.org/2000/svg" viewBox="0 0 32 32" xml:space="preserve" enable-background="new 0 0 32 32">
    <path d="M16 10.5a5.506 5.506 0 0 0-5.5 5.5c0 3.032 2.468 5.5 5.5 5.5s5.5-2.468 5.5-5.5c0-3.033-2.468-5.5-5.5-5.5zm0 9c-1.93 0-3.5-1.57-3.5-3.5s1.57-3.5 3.5-3.5 3.5 1.57 3.5 3.5-1.57 3.5-3.5 3.5zM27 9h-2.586l4.293-4.293-1.414-1.414L23 7.586V5h-2v6h6zM5 9v2h6V5H9v2.586L4.707 3.293 3.293 4.707 7.586 9zM5 23h2.586l-4.293 4.293 1.414 1.414L9 24.414V27h2v-6H5zM27 23v-2h-6v6h2v-2.586l4.293 4.293 1.414-1.414L24.414 23z"/>
</svg>
