<svg xmlns="http://www.w3.org/2000/svg" viewBox="0 0 32 32" xml:space="preserve" enable-background="new 0 0 32 32">
    <path d="M17.496 9.496a1.496 1.496 0 1 0-2.993 0 1.496 1.496 0 0 0 2.993 0z"/>
    <path d="M16 20s5.5-5 5.5-10.5a5.5 5.5 0 1 0-11 0C10.5 15 16 20 16 20zm0-14c1.93 0 3.5 1.57 3.5 3.5 0 2.973-2.066 5.91-3.5 7.59-1.435-1.681-3.5-4.617-3.5-7.59C12.5 7.57 14.07 6 16 6zM2 18h10v2H2zM2 26h28v2H2zM20 18h10v2H20zM2 22h4v2H2zM8 22h4v2H8zM14 22h4v2h-4zM20 22h4v2h-4zM26 22h4v2h-4z"/>
</svg>
