<svg xmlns="http://www.w3.org/2000/svg" viewBox="0 0 32 32" xml:space="preserve" enable-background="new 0 0 32 32">
    <path d="M27.316 23.423a2.975 2.975 0 0 0-2.484-1.414l-1.584-8.459A2.985 2.985 0 0 0 20.28 11H19V8.942a2.45 2.45 0 0 0 1.425-.905 2.81 2.81 0 0 0 .485-2.41l-.427-1.667C20.188 2.806 19.197 2 18.076 2h-4.152c-1.121 0-2.111.806-2.407 1.961l-.427 1.665a2.815 2.815 0 0 0 .485 2.411A2.46 2.46 0 0 0 13 8.942V11h-1.28a2.977 2.977 0 0 0-2.963 2.516l-1.589 8.493a2.977 2.977 0 0 0-2.484 1.414c-.55.891-.6 1.982-.131 2.919L6.382 30h19.236l1.829-3.658a2.981 2.981 0 0 0-.131-2.919zM13.027 6.124l.427-1.666c.069-.27.262-.458.47-.458h4.152c.208 0 .4.188.47.457l.427 1.667a.8.8 0 0 1-.129.687c-.067.086-.18.189-.34.189h-5.008c-.16 0-.273-.103-.34-.188a.805.805 0 0 1-.129-.688zM15 9h2v2h-2V9zm-4.271 4.851A.997.997 0 0 1 11.72 13h8.561c.499 0 .916.358.996.884l1.525 8.148a2.982 2.982 0 0 0-2.248 1.626l-.172.342h-8.764l-.171-.342a2.982 2.982 0 0 0-2.249-1.626l1.531-8.181zm14.929 11.596L24.382 28H7.618l-1.276-2.553a.981.981 0 0 1 .044-.973.984.984 0 0 1 .85-.474h1.527c.382 0 .725.212.895.553L10.382 26h11.236l.724-1.447a.993.993 0 0 1 .894-.553h1.527c.504 0 .763.332.851.475.089.142.27.522.044.972z"/>
</svg>
