<svg xmlns="http://www.w3.org/2000/svg" viewBox="0 0 32 32" xml:space="preserve" enable-background="new 0 0 32 32">
    <path d="M16 4C8.28 4 2 10.28 2 18c0 3.739 1.456 7.255 4.101 9.899l.707.707 3.899-3.899-1.414-1.414-2.456 2.456A11.882 11.882 0 0 1 4.044 19H6v-2H4.051a11.942 11.942 0 0 1 2.795-6.741l1.448 1.448 1.414-1.414-1.449-1.448A11.94 11.94 0 0 1 15 6.051V8h2V6.051a11.942 11.942 0 0 1 6.741 2.795l-1.448 1.448 1.414 1.414 1.448-1.448a11.939 11.939 0 0 1 2.795 6.741H26v2h1.956a11.889 11.889 0 0 1-2.793 6.749l-2.456-2.456-1.414 1.414 3.899 3.899.707-.707A13.91 13.91 0 0 0 30 18c0-7.72-6.28-14-14-14z"/>
    <path d="m21.707 13.707-1.414-1.414-2.991 2.991a2.972 2.972 0 0 0-1.302-.31c-1.654 0-3 1.346-3 3s1.346 3 3 3 3-1.346 3-3c0-.455-.109-.882-.291-1.268l2.998-2.999zM16 18.974a1 1 0 1 1 0-2 1 1 0 0 1 0 2z"/>
</svg>
