<svg xmlns="http://www.w3.org/2000/svg" viewBox="0 0 32 32" xml:space="preserve" enable-background="new 0 0 32 32">
    <path d="M16 2C8.28 2 2 8.28 2 16s6.28 14 14 14 14-6.28 14-14S23.72 2 16 2zm11.949 15a11.939 11.939 0 0 1-2.795 6.741l-1.376-1.376-1.414 1.414 1.376 1.376a11.939 11.939 0 0 1-6.741 2.795V26h-2v1.949a11.939 11.939 0 0 1-6.741-2.795l1.376-1.376-1.414-1.414-1.376 1.376A11.938 11.938 0 0 1 4.051 17H6v-2H4.051a11.942 11.942 0 0 1 2.795-6.741l1.376 1.376 1.414-1.414-1.377-1.376A11.94 11.94 0 0 1 15 4.051V6h2V4.051a11.942 11.942 0 0 1 6.741 2.795l-1.376 1.376 1.414 1.414 1.376-1.376a11.939 11.939 0 0 1 2.795 6.741H26v2h1.949z"/>
    <path d="M16 8c-4.411 0-8 3.589-8 8s3.589 8 8 8 8-3.589 8-8-3.589-8-8-8zm5.313 5.222-2.946.957c-.349-.452-.82-.8-1.368-.995V10.09a6.01 6.01 0 0 1 4.314 3.132zM15 16a1.001 1.001 0 1 1 1 1c-.552 0-1-.449-1-1zm0-5.91v3.094a2.99 2.99 0 0 0-1.368.995l-2.946-.957A6.015 6.015 0 0 1 15 10.09zm-4.726 4.116-.006.018a.189.189 0 0 0 .006-.018zM10 16c0-.298.029-.589.071-.875l2.937.954a2.98 2.98 0 0 0 .522 1.618l-1.813 2.497A5.975 5.975 0 0 1 10 16zm3.337 5.369 1.819-2.504c.269.079.549.135.844.135s.575-.056.844-.136l1.819 2.504c-.804.401-1.706.632-2.663.632s-1.859-.231-2.663-.631zm6.946-1.175-1.813-2.497a2.977 2.977 0 0 0 .522-1.618l2.937-.954c.042.286.071.577.071.875a5.975 5.975 0 0 1-1.717 4.194zm1.443-5.988.006.018-.006-.018z"/>
</svg>
