<svg xmlns="http://www.w3.org/2000/svg" viewBox="0 0 32 32" xml:space="preserve" enable-background="new 0 0 32 32">
    <path d="M29.534 18.846a5.26 5.26 0 0 0-6.217-1.396l-5.432 2.502A5.005 5.005 0 0 0 13 16H8.816A2.996 2.996 0 0 0 6 14H2v13h4c.825 0 1.574-.335 2.117-.876l3.538 1.416a5.02 5.02 0 0 0 2.517.313l5.64-.752a4.979 4.979 0 0 0 2.807-1.152l7.558-6.336-.643-.767zM6 25H4v-9h2c.552 0 1 .449 1 1v7a1 1 0 0 1-1 1zm15.333-.585a3.035 3.035 0 0 1-1.734.697l-5.69.758a3.014 3.014 0 0 1-1.511-.188L9 24.323V18h4c1.302 0 2.402.839 2.816 2H12v2h6.219l5.935-2.733a3.252 3.252 0 0 1 3.084.199l-5.905 4.949zM21.43 15h.158c1.694-.029 3.161-.976 3.923-2.533a4.729 4.729 0 0 0-.451-4.938L21.5 2.784 17.94 7.53a4.729 4.729 0 0 0-.451 4.938c.762 1.556 2.229 2.503 3.941 2.532zm-1.89-6.27 1.96-2.613 1.96 2.614c.617.821.714 1.917.254 2.858-.424.866-1.228 1.393-2.153 1.412h-.113c-.929-.016-1.736-.543-2.161-1.412a2.736 2.736 0 0 1 .253-2.859z"/>
</svg>
