<svg xmlns="http://www.w3.org/2000/svg" viewBox="0 0 32 32" xml:space="preserve" enable-background="new 0 0 32 32">
    <path d="M13 19h6v2h-6zM13 23h6v2h-6z"/>
    <path d="M27.267 11h-.733c0-4.962-4.037-9-9-9h-3.066c-4.963 0-9 4.038-9 9h-.735C3.227 11 2 12.286 2 13.867v.707c0 1 .365 1.945 1.029 2.66l2.474 2.665c.375 5.535 4.845 9.999 10.299 10.099l.061.001h.005l.133.001h.001c2.778 0 5.392-1.067 7.378-3.018a10.442 10.442 0 0 0 3.133-7.101l2.458-2.648A3.886 3.886 0 0 0 30 14.574v-.707C30 12.286 28.773 11 27.267 11zm-12.8-7h3.066c3.859 0 7 3.14 7 7v2.049l-2.908 3.635-3.409-1.28a6.298 6.298 0 0 0-4.432 0l-3.409 1.28-2.908-3.635V11c0-3.86 3.14-7 7-7zm1.419 23.996C13.191 27.934 11 25.517 11 22.597v-4.012l3.487-1.31a4.293 4.293 0 0 1 3.025 0L21 18.585v4.218a5.25 5.25 0 0 1-1.568 3.78c-.934.917-2.148 1.434-3.435 1.41-.037 0-.074.004-.111.003zM4 14.574v-.707c0-.478.329-.867.733-.867h.733v3.92l-.973-1.047A1.934 1.934 0 0 1 4 14.574zm3.467 4.576v-2.899L9 18.168v4.429c0 .67.093 1.318.254 1.938a8.998 8.998 0 0 1-1.787-5.385zm15.29 5.515c.155-.6.243-1.222.243-1.862v-4.635l1.533-1.917v3.216a8.456 8.456 0 0 1-1.776 5.198zM28 14.574c0 .487-.181.96-.494 1.299l-.973 1.047V13h.733c.405 0 .734.389.734.867v.707z"/>
</svg>
