<svg xmlns="http://www.w3.org/2000/svg" viewBox="0 0 32 32" xml:space="preserve" enable-background="new 0 0 32 32">
    <path d="m10.076 18.01-.283 1.98a43.92 43.92 0 0 0 12.414 0l-.283-1.98a41.84 41.84 0 0 1-11.848 0zM10 14h12v2H10zM10 10h12v2H10z"/>
    <path d="M28 7h-1.901l-5.981-1.196a20.873 20.873 0 0 0-8.236 0L5.901 7H4c-1.654 0-3 1.346-3 3v.757c0 1.068.416 2.072 1.172 2.829l2.85 2.85C5.254 22.299 10.082 27 16 27s10.746-4.701 10.978-10.564l2.85-2.85A3.975 3.975 0 0 0 31 10.757V10c0-1.654-1.346-3-3-3zM3 10.757V10c0-.551.448-1 1-1h1v4.586l-1.414-1.414A1.99 1.99 0 0 1 3 10.757zM16 25c-4.963 0-9-4.037-9-9V8.82l5.274-1.055a18.916 18.916 0 0 1 7.451 0L25 8.82V16c0 4.963-4.037 9-9 9zm13-14.243a1.99 1.99 0 0 1-.586 1.415L27 13.586V9h1c.552 0 1 .449 1 1v.757z"/>
</svg>
