<svg xmlns="http://www.w3.org/2000/svg" viewBox="0 0 32 32" xml:space="preserve" enable-background="new 0 0 32 32">
    <path d="M27.593 10.768a3.99 3.99 0 0 0-.386-4.187l-3.186-4.247-2.167 2.89A9.905 9.905 0 0 0 17.111 4h-2.384C9.363 4 5 8.364 5 13.727v5.455c0 3.273 1.483 6.335 4.069 8.401a11.077 11.077 0 0 0 6.942 2.414c.857 0 1.725-.096 2.588-.291 4.867-1.103 8.4-5.659 8.4-10.834v-5.145c0-.635-.083-1.258-.206-1.872.319-.311.595-.672.8-1.087zm-1.986-2.987c.465.62.537 1.405.193 2.1s-1.012 1.113-1.787 1.12l.008 1-.049-1a1.95 1.95 0 0 1-1.762-1.104 1.95 1.95 0 0 1 .19-2.07l1.62-2.16 1.587 2.114zM25 13.727v5.145c0 4.249-2.878 7.985-6.842 8.883-2.808.637-5.664.004-7.841-1.734C8.209 24.336 7 21.843 7 19.182v-5.455C7 9.466 10.467 6 14.728 6h2.384a7.94 7.94 0 0 1 3.548.846 3.954 3.954 0 0 0-.24 3.937 3.965 3.965 0 0 0 3.537 2.216H24.03c.313-.003.617-.049.913-.12.03.281.057.563.057.848z"/>
    <path d="m11.529 23.117.941 1.766A7.522 7.522 0 0 1 16 24a7.53 7.53 0 0 1 3.529.882l.941-1.764A9.531 9.531 0 0 0 16 22a9.547 9.547 0 0 0-4.471 1.117zM14 14v-1h-2v1c0 .551-.448 1-1 1h-1v2h1c1.654 0 3-1.346 3-3zM20 14v-1h-2v1c0 1.654 1.346 3 3 3h1v-2h-1c-.552 0-1-.449-1-1z"/>
</svg>
