<svg xmlns="http://www.w3.org/2000/svg" viewBox="0 0 32 32" xml:space="preserve" enable-background="new 0 0 32 32">
    <path d="M17 14c0-1.654-1.346-3-3-3s-3 1.346-3 3 1.346 3 3 3 3-1.346 3-3zm-3 1a1.001 1.001 0 0 1 0-2 1.001 1.001 0 0 1 0 2z"/>
    <path d="M29.231 17.206c-.023-.006-1.555-.375-3.245-.952.003-.085.014-.168.014-.254a9.888 9.888 0 0 0-2.258-6.327l1.451-1.451 1.414 1.414 1.414-1.414-4.242-4.242-1.414 1.414 1.414 1.414-1.451 1.452A9.867 9.867 0 0 0 17 6.049V4h2V2h-6v2h2v2.049a9.865 9.865 0 0 0-5.328 2.21l-1.45-1.451 1.414-1.414-1.414-1.415-4.243 4.243 1.414 1.414 1.414-1.414 1.451 1.451A9.861 9.861 0 0 0 6.048 15H4v-2H2v6h2v-2h2.049a9.858 9.858 0 0 0 2.209 5.327l-1.451 1.451-1.414-1.414-1.414 1.414 4.242 4.242 1.414-1.414-1.414-1.414 1.451-1.451a9.867 9.867 0 0 0 5.327 2.21V28h-2v2h6v-2h-2v-2.063c.248-.025.492-.063.737-.106 1.954 3.434 4.883 4.091 5.067 4.128l.197.039.196-.039c.278-.056 6.804-1.48 6.804-11.78v-.79l-.769-.183zM16 24a7.913 7.913 0 0 1-5.655-2.349A7.91 7.91 0 0 1 8 16c0-2.142.833-4.148 2.349-5.655C11.852 8.833 13.858 8 16 8s4.148.833 5.655 2.35a7.892 7.892 0 0 1 2.319 5.125 12.954 12.954 0 0 1-.527-.248L23 15.003l-.447.224c-2.267 1.133-5.75 1.97-5.784 1.979L16 17.39v.789c0 2.366.354 4.245.888 5.765-.294.032-.59.056-.888.056zm7.001 3.943c-.913-.293-4.727-1.939-4.987-8.992 1.125-.302 3.246-.921 4.986-1.721 1.74.8 3.862 1.419 4.986 1.721-.259 7.067-4.056 8.698-4.985 8.992z"/>
    <path d="m21.116 20.824-1.404 1.424 2.768 2.731 4.141-4.14-1.414-1.414-2.736 2.736z"/>
</svg>
