<svg fill="none" xmlns="http://www.w3.org/2000/svg" viewBox="0 0 24 24">
    <g clip-path="url(#layer-down_svg__a)">
        <path d="m21.218 16.718-2.468 2.474V12h-1.5v7.192l-2.467-2.474-1.066 1.064L18 22.058l4.282-4.276-1.064-1.064Z"/>
        <path d="m15.412 13.455-2.707 1.373c-.443.232-.96.225-1.402 0L4.596 11.43c-.06-.03-.09-.127-.09-.203 0-.075.03-.172.09-.202l2.37-1.207 3.653 1.852c.443.225.915.338 1.388.338.472 0 .945-.113 1.387-.338l3.652-1.852 2.37 1.207.683-1.335-1.395-.705 1.388-.705c.562-.285.915-.877.915-1.545 0-.667-.353-1.26-.915-1.545l-6.503-3.3a3.45 3.45 0 0 0-3.158 0L3.915 5.183C3.352 5.468 3 6.06 3 6.728c0 .667.352 1.26.915 1.545l1.387.705-1.395.705c-.562.285-.915.877-.915 1.544 0 .668.353 1.26.908 1.546l6.705 3.397a3 3 0 0 0 2.768 0l2.707-1.373-.675-1.335.008-.007ZM4.59 6.93c-.068-.037-.09-.135-.09-.202 0-.068.022-.173.09-.203l6.502-3.3c.285-.142.593-.217.9-.217.308 0 .615.075.9.217l6.503 3.3c.067.038.09.135.09.203 0 .067-.023.172-.09.202l-6.697 3.398c-.45.225-.968.225-1.41 0L4.59 6.93Z"/>
    </g>
    <defs>
        <clipPath id="layer-down_svg__a">
            <path d="M0 0h24v24H0z"/>
        </clipPath>
    </defs>
</svg>
