<svg xmlns="http://www.w3.org/2000/svg" viewBox="0 0 32 32" xml:space="preserve" enable-background="new 0 0 32 32">
    <path d="M24.638 10.243C23.412 5.505 19.121 2 14 2 7.925 2 3 6.925 3 13c0 3.578 1.716 6.748 4.362 8.757C8.588 26.495 12.879 30 18 30c6.075 0 11-4.925 11-11 0-3.578-1.716-6.748-4.362-8.757zM9 19c0-.789.112-1.552.304-2.282l5.253 5.253c-.185.012-.369.029-.557.029a8.935 8.935 0 0 1-4.854-1.433A8.997 8.997 0 0 1 9 19zm7.919 2.505-6.816-6.816a9.031 9.031 0 0 1 1.339-1.833l7.597 7.597a8.961 8.961 0 0 1-2.12 1.052zm3.639-2.361-7.597-7.597a8.961 8.961 0 0 1 2.12-1.052l6.816 6.816a8.993 8.993 0 0 1-1.339 1.833zM23 13a8.96 8.96 0 0 1-.304 2.282l-5.253-5.253c.185-.012.369-.029.557-.029 1.788 0 3.452.53 4.854 1.433.09.51.146 1.032.146 1.567zM5 13c0-4.963 4.037-9 9-9 3.419 0 6.398 1.917 7.921 4.733A10.932 10.932 0 0 0 18 8C12.037 8 7.195 12.747 7.017 18.667A8.956 8.956 0 0 1 5 13zm13 15c-3.419 0-6.398-1.917-7.921-4.733 1.219.467 2.538.733 3.921.733 5.963 0 10.806-4.747 10.983-10.667A8.956 8.956 0 0 1 27 19c0 4.963-4.037 9-9 9z"/>
</svg>
