<svg xmlns="http://www.w3.org/2000/svg" viewBox="0 0 32 32" xml:space="preserve" enable-background="new 0 0 32 32">
    <path d="M23 23.615V8.385C23 7.07 24.346 6 26 6V4c-1.641 0-3.088.706-4 1.781C21.088 4.706 19.641 4 18 4v2c1.654 0 3 1.07 3 2.385v15.23C21 24.931 19.654 26 18 26v2c1.641 0 3.088-.706 4-1.781.912 1.075 2.359 1.781 4 1.781v-2c-1.654 0-3-1.069-3-2.385z"/>
    <path d="M19 21H5a1 1 0 0 1-1-1v-8c0-.551.448-1 1-1h14V9H5c-1.654 0-3 1.346-3 3v8c0 1.654 1.346 3 3 3h14v-2zM27 9h-2v2h2c.552 0 1 .449 1 1v8a1 1 0 0 1-1 1h-2v2h2c1.654 0 3-1.346 3-3v-8c0-1.654-1.346-3-3-3z"/>
</svg>
