<svg xmlns="http://www.w3.org/2000/svg" viewBox="0 0 32 32" xml:space="preserve" enable-background="new 0 0 32 32">
    <path d="M25 4H14c-1.654 0-3 1.346-3 3v4H7c-1.654 0-3 1.346-3 3v11c0 1.654 1.346 3 3 3h11c1.654 0 3-1.346 3-3v-4h4c1.654 0 3-1.346 3-3V7c0-1.654-1.346-3-3-3zm-6 21a1 1 0 0 1-1 1H7a1 1 0 0 1-1-1V14c0-.551.448-1 1-1h4v5c0 1.654 1.346 3 3 3h5v4zm0-6h-5a1 1 0 0 1-1-1v-5h5c.552 0 1 .449 1 1v5zm7-1a1 1 0 0 1-1 1h-4v-5c0-1.654-1.346-3-3-3h-5V7c0-.551.448-1 1-1h11c.552 0 1 .449 1 1v11z"/>
</svg>
