<svg fill="none" xmlns="http://www.w3.org/2000/svg" viewBox="0 0 24 24">
    <g clip-path="url(#tool-line_svg__a)">
        <path d="M18.75 3h-1.5A2.257 2.257 0 0 0 15 5.25v1.5c0 .345.082.668.225.968L7.71 15.232a2.186 2.186 0 0 0-.968-.224h-1.5a2.257 2.257 0 0 0-2.25 2.25v1.5a2.257 2.257 0 0 0 2.25 2.25h1.5a2.257 2.257 0 0 0 2.25-2.25v-1.5c0-.345-.082-.668-.225-.968l7.515-7.515c.293.143.616.225.968.225h1.5A2.257 2.257 0 0 0 21 6.75v-1.5A2.257 2.257 0 0 0 18.75 3ZM7.5 18.75c0 .413-.338.75-.75.75h-1.5a.752.752 0 0 1-.75-.75v-1.5c0-.413.337-.75.75-.75h1.5c.412 0 .75.337.75.75v1.5Zm12-12c0 .412-.337.75-.75.75h-1.5a.752.752 0 0 1-.75-.75v-1.5c0-.412.337-.75.75-.75h1.5c.413 0 .75.338.75.75v1.5Z"/>
    </g>
    <defs>
        <clipPath id="tool-line_svg__a">
            <path d="M0 0h24v24H0z"/>
        </clipPath>
    </defs>
</svg>
