<svg xmlns="http://www.w3.org/2000/svg" viewBox="0 0 32 32" xml:space="preserve" enable-background="new 0 0 32 32">
    <path d="M25 4H14c-1.654 0-3 1.346-3 3v11c0 1.654 1.346 3 3 3h11c1.654 0 3-1.346 3-3V7c0-1.654-1.346-3-3-3zm1 14a1 1 0 0 1-1 1h-4v-1h-2v1h-5a1 1 0 0 1-1-1v-5h1v-2h-1V7c0-.551.448-1 1-1h11c.552 0 1 .449 1 1v11zM4 14v2h2v-2c0-.551.448-1 1-1h2v-2H7c-1.654 0-3 1.346-3 3zM4 18h2v3H4zM6 25v-2H4v2c0 1.654 1.346 3 3 3h2v-2H7a1 1 0 0 1-1-1zM11 26h3v2h-3zM19 25a1 1 0 0 1-1 1h-2v2h2c1.654 0 3-1.346 3-3v-2h-2v2z"/>
    <path d="M18 11h-2v2h2c.552 0 1 .449 1 1v2h2v-2c0-1.654-1.346-3-3-3z"/>
</svg>
