<svg xmlns="http://www.w3.org/2000/svg" viewBox="0 0 32 32" xml:space="preserve" enable-background="new 0 0 32 32">
    <path d="M25.352 16.699 16 2.151 6.648 16.698a3 3 0 0 0-.362 2.447l2.458 8.606A3 3 0 0 0 11.648 30h8.703a2.993 2.993 0 0 0 2.898-2.226l2.464-8.631a2.997 2.997 0 0 0-.361-2.444zM16 18c.866 0 1.571.705 1.571 1.571s-.705 1.572-1.571 1.572-1.571-.705-1.571-1.571S15.134 18 16 18zm7.79.596-2.47 8.653a1 1 0 0 1-.968.751h-8.703a1.01 1.01 0 0 1-.975-.774L8.21 18.597a1.002 1.002 0 0 1 .12-.816L15 7.405v8.755c-1.48.436-2.571 1.792-2.571 3.411 0 1.969 1.603 3.571 3.571 3.571s3.571-1.603 3.571-3.571c0-1.619-1.091-2.975-2.571-3.411V7.405l6.67 10.376a1 1 0 0 1 .12.815z"/>
</svg>
