<svg xmlns="http://www.w3.org/2000/svg" viewBox="0 0 32 32" xml:space="preserve" enable-background="new 0 0 32 32">
    <path d="M26 18h-.22l-1.507-6.028A2.993 2.993 0 0 0 27 9V7c0-1.654-1.346-3-3-3h-2c-1.654 0-3 1.346-3 3v.219l-6.028 1.507A2.993 2.993 0 0 0 10 6H8C6.346 6 5 7.346 5 9v2a2.993 2.993 0 0 0 2.727 2.972L6.22 20H6c-1.654 0-3 1.346-3 3v2c0 1.654 1.346 3 3 3h2c1.654 0 3-1.346 3-3v-.153l10.018-1.67A2.995 2.995 0 0 0 24 26h2c1.654 0 3-1.346 3-3v-2c0-1.654-1.346-3-3-3zm-5 3v.153l-10.018 1.67a2.985 2.985 0 0 0-2.709-2.795L9.78 14H10c1.654 0 3-1.346 3-3v-.219l6.028-1.507A2.993 2.993 0 0 0 22 12h.22l1.507 6.028A2.993 2.993 0 0 0 21 21zm0-14c0-.551.448-1 1-1h2c.552 0 1 .449 1 1v2c0 .551-.448 1-1 1h-2c-.552 0-1-.449-1-1V7zM7 11V9c0-.551.448-1 1-1h2c.552 0 1 .449 1 1v2c0 .551-.448 1-1 1H8c-.552 0-1-.449-1-1zm2 14a1 1 0 0 1-1 1H6a1 1 0 0 1-1-1v-2a1 1 0 0 1 1-1h2a1 1 0 0 1 1 1v2zm18-2a1 1 0 0 1-1 1h-2a1 1 0 0 1-1-1v-2a1 1 0 0 1 1-1h2a1 1 0 0 1 1 1v2z"/>
</svg>
