<svg xmlns="http://www.w3.org/2000/svg" viewBox="0 0 32 32" xml:space="preserve" enable-background="new 0 0 32 32">
    <path d="M28 9V7c0-1.654-1.346-3-3-3h-2c-1.654 0-3 1.346-3 3h-8c0-1.654-1.346-3-3-3H7C5.346 4 4 5.346 4 7v2c0 1.654 1.346 3 3 3v8c-1.654 0-3 1.346-3 3v2c0 1.654 1.346 3 3 3h2c1.654 0 3-1.346 3-3h8c0 1.654 1.346 3 3 3h2c1.654 0 3-1.346 3-3v-2c0-1.654-1.346-3-3-3v-8c1.654 0 3-1.346 3-3zm-6-2c0-.551.448-1 1-1h2c.552 0 1 .449 1 1v2c0 .551-.448 1-1 1h-2c-.552 0-1-.449-1-1V7zM6 9V7c0-.551.448-1 1-1h2c.552 0 1 .449 1 1v2c0 .551-.448 1-1 1H7c-.552 0-1-.449-1-1zm4 16a1 1 0 0 1-1 1H7a1 1 0 0 1-1-1v-2a1 1 0 0 1 1-1h2a1 1 0 0 1 1 1v2zm16-2v2a1 1 0 0 1-1 1h-2a1 1 0 0 1-1-1v-2a1 1 0 0 1 1-1h2a1 1 0 0 1 1 1zm-3-3c-1.654 0-3 1.346-3 3h-8c0-1.654-1.346-3-3-3v-8c1.654 0 3-1.346 3-3h8c0 1.654 1.346 3 3 3v8z"/>
</svg>
