<svg xmlns="http://www.w3.org/2000/svg" viewBox="0 0 32 32" xml:space="preserve" enable-background="new 0 0 32 32">
    <path d="M25 4H7C5.346 4 4 5.346 4 7v6h2V7c0-.551.448-1 1-1h18c.552 0 1 .449 1 1v18a1 1 0 0 1-1 1h-6v2h6c1.654 0 3-1.346 3-3V7c0-1.654-1.346-3-3-3z"/>
    <path d="M21 12.694V17h2V9h-8v2h4.876l-6.565 6.314A2.966 2.966 0 0 0 12 17H7c-1.654 0-3 1.346-3 3v5c0 1.654 1.346 3 3 3h5c1.654 0 3-1.346 3-3v-5c0-.451-.107-.876-.287-1.26L21 12.694zM13 25a1 1 0 0 1-1 1H7a1 1 0 0 1-1-1v-5a1 1 0 0 1 1-1h5a1 1 0 0 1 1 1v5z"/>
</svg>
