<svg xmlns="http://www.w3.org/2000/svg" viewBox="0 0 32 32" xml:space="preserve" enable-background="new 0 0 32 32">
    <path d="M24 4H4v6c0 1.654 1.346 3 3 3h1.077A6.94 6.94 0 0 0 13 18.701v2.063a.994.994 0 0 1-.553.895l-1.789.895A2.982 2.982 0 0 0 9 25.236V28h14v-2.764a2.986 2.986 0 0 0-1.658-2.684l-1.789-.895a.99.99 0 0 1-.553-.893v-2.065A6.943 6.943 0 0 0 23.923 13H25c1.654 0 3-1.346 3-3V4h-4zM6 10V6h2v5H7c-.552 0-1-.449-1-1zm11.817 6.927c-.26.049-.535.073-.817.073V20.764c0 1.144.636 2.172 1.658 2.684l1.789.895a.99.99 0 0 1 .553.893V26H11v-.764c0-.382.212-.725.553-.895l1.789-.895A2.982 2.982 0 0 0 15 20.764V17c-.282 0-.557-.024-.837-.077A4.967 4.967 0 0 1 10 12V6h12v6a4.973 4.973 0 0 1-4.183 4.927zM26 10c0 .551-.448 1-1 1h-1V6h2v4z"/>
</svg>
