<svg xmlns="http://www.w3.org/2000/svg" xml:space="preserve" style="fill-rule:evenodd;clip-rule:evenodd;stroke-linejoin:round;stroke-miterlimit:2" viewBox="0 0 24 24"><path d="M12.01.2C5.369.2 0 5.608 0 12.3a12.11 12.11 0 0 0 8.212 11.477c.597.12.815-.26.815-.58 0-.281-.02-1.243-.02-2.244-3.34.72-4.036-1.443-4.036-1.443-.537-1.402-1.333-1.762-1.333-1.762-1.092-.742.08-.742.08-.742 1.213.08 1.85 1.243 1.85 1.243 1.073 1.842 2.803 1.321 3.499 1 .1-.78.417-1.321.756-1.622-2.665-.28-5.468-1.321-5.468-5.97 0-1.32.476-2.403 1.232-3.244-.119-.3-.537-1.542.12-3.206 0 0 1.013-.32 3.3 1.243.979-.265 1.989-.4 3.003-.401 1.014 0 2.047.14 3.003.4 2.286-1.563 3.3-1.242 3.3-1.242.657 1.663.238 2.905.12 3.206.775.841 1.233 1.922 1.233 3.245 0 4.647-2.804 5.669-5.489 5.97.438.38.815 1.1.815 2.243 0 1.623-.02 2.925-.02 3.325 0 .32.22.701.816.582A12.11 12.11 0 0 0 24 12.299C24.02 5.61 18.631.2 12.01.2"/></svg>