<?xml version="1.0" encoding="UTF-8" standalone="no"?>
<!DOCTYPE svg PUBLIC "-//W3C//DTD SVG 1.1//EN" "http://www.w3.org/Graphics/SVG/1.1/DTD/svg11.dtd">
<svg width="100%" height="100%" viewBox="0 0 978 978" version="1.1" xmlns="http://www.w3.org/2000/svg" xmlns:xlink="http://www.w3.org/1999/xlink" xml:space="preserve" xmlns:serif="http://www.serif.com/" style="fill-rule:evenodd;clip-rule:evenodd;stroke-linejoin:round;stroke-miterlimit:2;">
  <style>
  <!-- change favicon color when dark mode is enabled -->
    path { fill: #464646; }
    @media (prefers-color-scheme: dark) {
        path { fill: #fff; }
    }
  </style>
    <g transform="matrix(1,0,0,1,-4987.48,-511.451)">
        <g>
            <path d="M5305.37,1153.82L5151.56,1000L5305.37,846.185L5342.67,883.476L5226.14,1000L5342.67,1116.52L5305.37,1153.82Z"/>
            <path d="M5646.68,1153.82L5609.39,1116.52L5725.91,1000L5609.39,883.476L5646.68,846.185L5800.5,1000L5646.68,1153.82Z"/>
            <path d="M5435.11,1200.43L5384.69,1184.95L5503.04,799.569L5553.45,815.052L5435.11,1200.43Z"/>
            <path d="M5877.85,511.451L5074.21,511.451C5026.31,511.451 4987.48,550.282 4987.48,598.183L4987.48,1401.82C4987.48,1449.72 5026.31,1488.55 5074.21,1488.55L5877.85,1488.55C5925.75,1488.55 5964.58,1449.72 5964.58,1401.82L5964.58,598.183C5964.58,550.282 5925.75,511.451 5877.85,511.451ZM5877.85,564.124C5896.63,564.124 5911.91,579.403 5911.91,598.183L5911.91,1401.82C5911.91,1420.6 5896.63,1435.88 5877.85,1435.88L5074.21,1435.88C5055.43,1435.88 5040.15,1420.6 5040.15,1401.82L5040.15,598.183C5040.15,579.403 5055.43,564.124 5074.21,564.124L5877.85,564.124Z"/>
        </g>
    </g>
</svg>
