<?xml version="1.0" encoding="UTF-8" standalone="no"?>
<!DOCTYPE svg PUBLIC "-//W3C//DTD SVG 1.1//EN" "http://www.w3.org/Graphics/SVG/1.1/DTD/svg11.dtd">
<svg width="100%" height="100%" viewBox="0 0 247 247" version="1.1" xmlns="http://www.w3.org/2000/svg" xmlns:xlink="http://www.w3.org/1999/xlink" xml:space="preserve" xmlns:serif="http://www.serif.com/" style="fill-rule:evenodd;clip-rule:evenodd;">
    <g id="Group" transform="matrix(1,0,0,1,37.5,0)">
        <path id="Rectangle-55" serif:id="Rectangle 55" d="M164,46.5C164,67.763 146.763,85 125.5,85L86,85L86,8L125.5,8C146.763,8 164,25.237 164,46.5Z" style="fill:none;fill-rule:nonzero;stroke:white;stroke-width:15.08px;"/>
        <path id="Rectangle-55_2" serif:id="Rectangle 55_2" d="M8,46.5C8,67.763 25.237,85 46.5,85L86,85L86,8L46.5,8C25.237,8 8,25.237 8,46.5Z" style="fill:none;fill-rule:nonzero;stroke:white;stroke-width:15.08px;"/>
        <path id="Rectangle-55_3" serif:id="Rectangle 55_3" d="M8,123.501C8,144.764 25.237,162.001 46.5,162.001L86,162.001L86,85.001L46.5,85.001C25.237,85.001 8,102.238 8,123.501Z" style="fill:none;fill-rule:nonzero;stroke:white;stroke-width:15.08px;"/>
        <path id="Rectangle-55_4" serif:id="Rectangle 55_4" d="M8,200.5C8,221.763 25.485,239 46.748,239C68.288,239 86,221.539 86,200L86,162L46.5,162C25.237,162 8,179.237 8,200.5Z" style="fill:none;fill-rule:nonzero;stroke:white;stroke-width:15.08px;"/>
        <path id="Rectangle-55_5" serif:id="Rectangle 55_5" d="M86,123.501C86,144.764 103.237,162.001 124.5,162.001L125.5,162.001C146.763,162.001 164,144.764 164,123.501C164,102.238 146.763,85.001 125.5,85.001L124.5,85.001C103.237,85.001 86,102.238 86,123.501Z" style="fill:none;fill-rule:nonzero;stroke:white;stroke-width:15.08px;"/>
    </g>
</svg>
