<?xml version="1.0" encoding="UTF-8" standalone="no"?>
<!DOCTYPE svg PUBLIC "-//W3C//DTD SVG 1.1//EN" "http://www.w3.org/Graphics/SVG/1.1/DTD/svg11.dtd">
<svg width="100%" height="100%" viewBox="0 0 48 48" version="1.1" xmlns="http://www.w3.org/2000/svg" xmlns:xlink="http://www.w3.org/1999/xlink" xml:space="preserve" xmlns:serif="http://www.serif.com/" style="fill-rule:evenodd;clip-rule:evenodd;stroke-linejoin:round;stroke-miterlimit:2;">
    <g transform="matrix(0.842105,0,0,0.842105,8,0)">
        <path d="M19,28.5C19,25.98 20.001,23.564 21.783,21.783C23.564,20.001 25.98,19 28.5,19C31.02,19 33.436,20.001 35.218,21.783C36.999,23.564 38,25.98 38,28.5C38,31.02 36.999,33.436 35.218,35.218C33.436,36.999 31.02,38 28.5,38C25.98,38 23.564,36.999 21.783,35.218C20.001,33.436 19,31.02 19,28.5Z" style="fill:rgb(26,188,254);fill-rule:nonzero;"/>
        <path d="M0,47.5C0,44.98 1.001,42.564 2.782,40.783C4.564,39.001 6.98,38 9.5,38L19,38L19,47.5C19,50.02 17.999,52.436 16.218,54.218C14.436,55.999 12.02,57 9.5,57C6.98,57 4.564,55.999 2.782,54.218C1.001,52.436 0,50.02 0,47.5Z" style="fill:rgb(10,207,131);fill-rule:nonzero;"/>
        <path d="M19,0L19,19L28.5,19C31.02,19 33.436,17.999 35.218,16.218C36.999,14.436 38,12.02 38,9.5C38,6.98 36.999,4.564 35.218,2.782C33.436,1.001 31.02,0 28.5,0L19,0Z" style="fill:rgb(255,114,98);fill-rule:nonzero;"/>
        <path d="M0,9.5C0,12.02 1.001,14.436 2.782,16.218C4.564,17.999 6.98,19 9.5,19L19,19L19,0L9.5,0C6.98,0 4.564,1.001 2.782,2.782C1.001,4.564 0,6.98 0,9.5Z" style="fill:rgb(242,78,30);fill-rule:nonzero;"/>
        <path d="M0,28.5C0,31.02 1.001,33.436 2.782,35.218C4.564,36.999 6.98,38 9.5,38L19,38L19,19L9.5,19C6.98,19 4.564,20.001 2.782,21.783C1.001,23.564 0,25.98 0,28.5Z" style="fill:rgb(162,89,255);fill-rule:nonzero;"/>
    </g>
</svg>
