<svg xmlns="http://www.w3.org/2000/svg" viewBox="0 0 32 32" xml:space="preserve" enable-background="new 0 0 32 32">
    <path d="M16 24.555c1.641 0 2.742-.682 2.742-1.696v-8.074c0-.282.193-.5.31-.604a4.522 4.522 0 0 0 1.487-3.341 4.514 4.514 0 0 0-1.716-3.554c-1.092-.868-2.51-1.181-3.896-.861a4.5 4.5 0 0 0-3.33 3.301c-.403 1.664.106 3.333 1.362 4.465.111.101.299.312.299.593v8.076c0 1.013 1.101 1.695 2.742 1.695zm-2.46-14.36a2.517 2.517 0 0 1 1.839-1.823c.801-.186 1.58-.014 2.199.478.61.485.961 1.21.961 1.989 0 .713-.295 1.374-.83 1.859-.623.564-.967 1.305-.967 2.086v7.677c-.314.092-1.17.092-1.484 0v-7.68c0-.782-.341-1.52-.96-2.079-.701-.631-.985-1.568-.758-2.507z"/>
    <path d="m21.062 20.402-1.416 1.412c.265.265.579.69.579 1.218 0 1.323-1.975 2.484-4.226 2.484s-4.226-1.161-4.226-2.484c0-.527.314-.953.579-1.218l-1.416-1.412a3.935 3.935 0 0 0-.993 1.63H7.29v2h2.638c.205.673.614 1.284 1.18 1.8l-1.719 1.72 1.414 1.414 2.049-2.05a7.889 7.889 0 0 0 2.147.54V30h2v-2.544a7.925 7.925 0 0 0 2.147-.54l2.049 2.05 1.414-1.414-1.719-1.72c.566-.516.975-1.127 1.18-1.8h2.638v-2h-2.654a3.918 3.918 0 0 0-.992-1.63zM11.089 18.187l1.113-1.662a6.832 6.832 0 0 1-3.041-5.686C9.161 7.068 12.229 4 16 4s6.839 3.068 6.839 6.839a6.833 6.833 0 0 1-3.041 5.686l1.113 1.662a8.83 8.83 0 0 0 3.928-7.348C24.839 5.965 20.874 2 16 2s-8.839 3.965-8.839 8.839a8.832 8.832 0 0 0 3.928 7.348z"/>
</svg>
