<svg xmlns="http://www.w3.org/2000/svg" viewBox="0 0 32 32" xml:space="preserve" enable-background="new 0 0 32 32">
    <path d="M27 4H5C3.346 4 2 5.346 2 7v13c0 1.654 1.346 3 3 3h8.152l-.5 3H11v2h10v-2h-1.652l-.5-3H27c1.654 0 3-1.346 3-3V7c0-1.654-1.346-3-3-3zm-9.681 22H14.68l.5-3h1.639l.5 3zM28 20a1 1 0 0 1-1 1H5a1 1 0 0 1-1-1V7c0-.551.448-1 1-1h22c.552 0 1 .449 1 1v13z"/>
    <path d="M16 8c-2.023 0-4.047.625-5.83 1.875L5 13.5l5.17 3.625C11.953 18.375 13.977 19 16 19s4.047-.625 5.83-1.875L27 13.5l-5.17-3.625C20.047 8.625 18.023 8 16 8zm-3.5 5.5c0-1.93 1.57-3.5 3.5-3.5s3.5 1.57 3.5 3.5S17.93 17 16 17s-3.5-1.57-3.5-3.5zm-4.016 0 2.248-1.576A5.506 5.506 0 0 0 10.5 13.5c0 .548.083 1.076.232 1.576L8.484 13.5zm12.784 1.576c.149-.5.232-1.028.232-1.576s-.083-1.076-.232-1.576l2.248 1.576-2.248 1.576z"/>
    <path d="M16 12a1.4 1.4 0 1 0 0 2.8 1.4 1.4 0 0 0 0-2.8z"/>
</svg>
