<svg fill="none" xmlns="http://www.w3.org/2000/svg" viewBox="0 0 25 24">
    <path fill-rule="evenodd" clip-rule="evenodd" d="M12.842 8.25h5.948A3.754 3.754 0 0 1 22.54 12v3a3.754 3.754 0 0 1-3.75 3.75h-4.576a3.757 3.757 0 0 1-3.674 3H6.79V19.5c0-.59.233-1.123.606-1.525A6.728 6.728 0 0 1 3.79 12V9.053a.739.739 0 0 0-.33-.62l-.921-.618a2.233 2.233 0 0 1-.999-1.868V3h2.378c.602 0 1.168.235 1.595.662l.527.527.527-.527A2.239 2.239 0 0 1 8.163 3h2.377v2.947c0 .756-.375 1.456-1.004 1.871l-.91.612a.743.743 0 0 0-.336.623v.697c0 .413.336.75.75.75h.698c.25 0 .482-.124.619-.33l.618-.921a2.233 2.233 0 0 1 1.867-.999Zm-2.302 12c1.24 0 2.25-1.01 2.25-2.25v-2.25h-.75a.75.75 0 0 0-.75.75c0 1.24-1.01 2.25-2.25 2.25a.75.75 0 0 0-.75.75v.75h2.25Zm-.75-3.75c0-1.24 1.01-2.25 2.25-2.25h4.5a.75.75 0 0 0 .75-.75c0-1.24 1.01-2.25 2.25-2.25h1.362a2.247 2.247 0 0 0-2.112-1.5h-5.947a.741.741 0 0 0-.62.33l-.618.921A2.233 2.233 0 0 1 9.738 12H9.04c-1.24 0-2.25-1.01-2.25-2.25v-.697c0-.757.375-1.456 1.004-1.871l.91-.612a.743.743 0 0 0 .336-.623V4.5h-.877a.751.751 0 0 0-.535.223L6.04 6.31 4.452 4.723a.75.75 0 0 0-.534-.223H3.04v1.447c0 .252.124.483.33.62l.921.618c.624.413.999 1.112.999 1.868V12a5.228 5.228 0 0 0 4.135 5.128.739.739 0 0 0 .365-.628Zm6.75-.75h-2.25v1.5h4.5c1.24 0 2.25-1.01 2.25-2.25v-2.25h-1.5a.75.75 0 0 0-.75.75c0 1.24-1.01 2.25-2.25 2.25Zm-2.25-4.5h1.5v1.5h-1.5v-1.5Z"/>
</svg>
