<svg xmlns="http://www.w3.org/2000/svg" viewBox="0 0 32 32" xml:space="preserve" enable-background="new 0 0 32 32">
    <path d="M22.179 22H7.599a11.256 11.256 0 0 1-.215-.388A12.104 12.104 0 0 1 6.693 20H24c2.206 0 4-1.794 4-4s-1.794-4-4-4H6.697c.193-.543.413-1.079.686-1.599a12.4 12.4 0 0 1 .216-.39h14.58a6.984 6.984 0 0 0 5.378-2.519l.796-.955-.673-.645A13.916 13.916 0 0 0 18 2C12.8 2 8.054 4.86 5.614 9.467A14.1 14.1 0 0 0 4 16h2c0-.679.076-1.344.186-2H24c1.103 0 2 .897 2 2s-.897 2-2 2H6.184A12.04 12.04 0 0 1 6 16.011H4c0 2.267.559 4.526 1.615 6.535A13.99 13.99 0 0 0 18 30.012a13.92 13.92 0 0 0 9.68-3.892l.671-.644-.795-.959A6.988 6.988 0 0 0 22.179 22zM18 4c2.781 0 5.434.949 7.566 2.689a4.985 4.985 0 0 1-3.388 1.322H9.043A11.981 11.981 0 0 1 18 4zm0 24.012A11.975 11.975 0 0 1 9.043 24h13.136c1.267 0 2.471.476 3.388 1.321A11.923 11.923 0 0 1 18 28.012z"/>
</svg>
