<svg xmlns="http://www.w3.org/2000/svg" viewBox="0 0 32 32" xml:space="preserve" enable-background="new 0 0 32 32">
    <path d="m30.223 18.892-2.579-.589c.075-.535.127-1.077.127-1.632 0-2.413-.732-4.657-1.983-6.526L27.851 8.5l-1.246-1.563-2.071 1.652A11.73 11.73 0 0 0 17 4.951v-2.64h-2v2.641a11.727 11.727 0 0 0-7.533 3.635L5.396 6.936 4.149 8.499l2.063 1.645a11.694 11.694 0 0 0-1.983 6.526c0 .555.052 1.097.127 1.632l-2.579.589.445 1.949 2.569-.586a11.81 11.81 0 0 0 5.144 6.485l-1.171 2.407 1.799.875 1.165-2.395c1.326.519 2.763.814 4.271.814 1.474 0 2.88-.284 4.182-.781l1.147 2.383 1.803-.867-1.149-2.386a11.815 11.815 0 0 0 5.225-6.534l2.569.586.447-1.949zm-4.452-2.222c0 .402-.032.797-.079 1.186l-6.209-1.418a3.491 3.491 0 0 0-.236-1.079l4.967-3.961a9.717 9.717 0 0 1 1.557 5.272zm-11.277 0c0-.831.676-1.506 1.506-1.506a1.508 1.508 0 0 1 0 3.013c-.83 0-1.506-.676-1.506-1.507zm8.475-6.835L18 13.798a3.488 3.488 0 0 0-1-.47V6.951a9.745 9.745 0 0 1 5.969 2.884zM15 6.951v6.376a3.5 3.5 0 0 0-1 .47L9.031 9.835A9.745 9.745 0 0 1 15 6.951zM6.229 16.67c0-1.942.576-3.749 1.557-5.271l4.967 3.961a3.485 3.485 0 0 0-.236 1.079l-6.209 1.418a9.886 9.886 0 0 1-.079-1.187zm.526 3.136 6.208-1.417c.173.304.382.583.635.822l-2.784 5.725a9.81 9.81 0 0 1-4.059-5.13zM16 26.44a9.704 9.704 0 0 1-3.393-.62l2.775-5.706c.201.036.406.062.618.062.189 0 .371-.027.552-.056l2.759 5.73a9.699 9.699 0 0 1-3.311.59zm5.112-1.459-2.759-5.729c.273-.249.5-.54.684-.863l6.208 1.417a9.806 9.806 0 0 1-4.133 5.175z"/>
</svg>
