<svg fill="none" xmlns="http://www.w3.org/2000/svg" viewBox="0 0 25 24">
    <g clip-path="url(#mariadb_svg__a)">
        <path fill-rule="evenodd" clip-rule="evenodd" d="M13.498 8.255a3.747 3.747 0 0 1 3.746-3.746h5.243v3.738c0 1.184-.562 2.3-1.498 2.996v2.997c0 1.108-.27 2.187-.787 3.153.51.652.787 1.453.787 2.285v1.303H10.502c-3.715 0-6.742-3.026-6.742-6.741v-1.438a.758.758 0 0 0-.337-.63l-.921-.622a2.22 2.22 0 0 1-.989-1.857V6H3.88c.6 0 1.161.232 1.588.66L6 7.19l.524-.524c.427-.427.997-.66 1.596-.66h2.374V9.7a2.24 2.24 0 0 1-.988 1.858l-.922.622a.732.732 0 0 0-.33.569h2.997a.76.76 0 0 0 .6-.3l1.497-2a.737.737 0 0 0 .15-.449V8.255Zm6.367 1.94a2.23 2.23 0 0 0 1.124-1.94v-2.27h-3.745a2.254 2.254 0 0 0-2.248 2.247v1.745c0 .502-.157.967-.457 1.356l-1.49 1.993a2.278 2.278 0 0 1-1.798.899H8.202a1.445 1.445 0 0 1-1.445-1.386 2.243 2.243 0 0 1 1.003-1.925l.914-.614a.725.725 0 0 0 .33-.615V7.491h-.877a.766.766 0 0 0-.539.224L6 9.303 4.412 7.715a.741.741 0 0 0-.532-.217h-.876v2.195c0 .247.127.48.33.614l.92.622c.622.42.997 1.116.997 1.873v1.438a5.25 5.25 0 0 0 5.243 5.243h4.495l-1.349-1.798 1.199-.898 2.022 2.696h2.615a2.282 2.282 0 0 0-.712-1.446 2.394 2.394 0 0 0-.374-.292l-.824-.487a3.781 3.781 0 0 1-1.82-3.213v-.554h1.498v.554c0 .786.419 1.52 1.093 1.932l.697.413c.3-.667.457-1.394.457-2.143v-3.835l.374-.217Zm-3.37-2.69h1.497v1.499h-1.498V7.506Z"/>
    </g>
    <defs>
        <clipPath id="mariadb_svg__a">
            <path transform="translate(.04)" d="M0 0h24v24H0z"/>
        </clipPath>
    </defs>
</svg>
