<svg xmlns="http://www.w3.org/2000/svg" viewBox="0 0 32 32" xml:space="preserve" enable-background="new 0 0 32 32">
    <path d="M26 17.741c0-.42-.041-.831-.099-1.236a8.572 8.572 0 0 0-.183-.918C24.146 8.808 16 2 16 2S7.854 8.808 6.283 15.587a8.572 8.572 0 0 0-.12.533c-.023.128-.046.256-.063.385a8.54 8.54 0 0 0-.1 1.236c0 4.801 3.947 8.748 9 9.213V30h2v-3.047c5.053-.464 9-4.411 9-9.212zm-9 7.196v-4.514l3.706-3.699-1.412-1.416L17 17.597V13h-2v4.581l-2.294-2.289-1.412 1.416L15 20.407v4.53c-3.94-.449-7-3.501-7-7.196 0-.276.025-.578.08-.96.014-.103.033-.206.047-.286a7.65 7.65 0 0 1 .104-.457C9.275 11.534 13.759 6.825 16 4.698c2.241 2.129 6.728 6.848 7.781 11.388.035.135.066.271.088.386.018.103.037.206.053.318.053.372.078.674.078.951 0 3.695-3.06 6.747-7 7.196z"/>
</svg>
