<svg xmlns="http://www.w3.org/2000/svg" viewBox="0 0 32 32" xml:space="preserve" enable-background="new 0 0 32 32">
    <path d="M16 2C8.268 2 2 8.268 2 16s6.268 14 14 14 14-6.268 14-14S23.732 2 16 2zm0 26C9.383 28 4 22.617 4 16S9.383 4 16 4s12 5.383 12 12-5.383 12-12 12z"/>
    <path d="M14.828 12.127c-.433-.5-.96-.898-1.583-1.193-.624-.294-1.328-.442-2.113-.442-.786 0-1.49.147-2.113.442a4.73 4.73 0 0 0-1.584 1.193 5.315 5.315 0 0 0-.994 1.752A6.444 6.444 0 0 0 6.095 16c0 .755.115 1.467.346 2.135a5.31 5.31 0 0 0 .994 1.753c.433.5.96.896 1.584 1.185.623.29 1.327.435 2.113.435.785 0 1.489-.145 2.113-.435a4.662 4.662 0 0 0 1.583-1.185 5.31 5.31 0 0 0 .994-1.753c.23-.668.346-1.38.346-2.135 0-.746-.115-1.453-.346-2.121a5.315 5.315 0 0 0-.994-1.752zm-.685 5.346a4.101 4.101 0 0 1-.567 1.289c-.256.378-.587.68-.994.905-.407.227-.891.339-1.45.339s-1.044-.112-1.451-.339a2.854 2.854 0 0 1-.994-.905 4.077 4.077 0 0 1-.566-1.289 5.923 5.923 0 0 1-.001-2.946 4.11 4.11 0 0 1 .566-1.289c.256-.378.587-.68.994-.906.407-.226.892-.338 1.451-.338s1.043.113 1.45.338c.407.226.738.528.994.906.255.378.444.808.567 1.289a5.969 5.969 0 0 1 .001 2.946zM25.291 17.385c-.083-.275-.211-.533-.383-.773s-.385-.454-.641-.641a3.085 3.085 0 0 0-.898-.442 34.135 34.135 0 0 0-.685-.184 266.47 266.47 0 0 1-2.348-.625c-.373-.108-.676-.267-.906-.479-.23-.211-.346-.503-.346-.876 0-.265.062-.486.184-.663.123-.177.277-.316.464-.419s.393-.177.619-.221c.226-.044.446-.066.662-.066.639 0 1.164.14 1.576.419s.643.759.692 1.436h1.841c0-.55-.108-1.033-.324-1.451-.216-.417-.508-.768-.876-1.053s-.795-.499-1.281-.641a5.48 5.48 0 0 0-1.554-.214c-.472 0-.938.062-1.399.184a3.867 3.867 0 0 0-1.237.567 2.957 2.957 0 0 0-.876.965c-.221.388-.331.847-.331 1.377 0 .275.037.545.11.81s.199.516.375.751c.177.236.415.449.715.641.299.191.675.346 1.127.464a81.54 81.54 0 0 0 1.833.478c.496.123.931.254 1.304.391.216.079.414.214.596.405s.272.488.272.891c0 .197-.039.391-.117.582a1.307 1.307 0 0 1-.383.508 2.095 2.095 0 0 1-.692.361c-.285.094-.629.14-1.031.14-.373 0-.719-.041-1.038-.125-.319-.083-.602-.216-.847-.397s-.437-.415-.574-.7c-.138-.284-.206-.628-.206-1.03h-1.841c.01.647.132 1.21.368 1.687.235.476.55.866.942 1.17.393.305.854.53 1.384.678s1.095.221 1.694.221c.52 0 1.03-.062 1.531-.184a4.115 4.115 0 0 0 1.34-.582c.393-.265.71-.605.95-1.023.24-.417.361-.92.361-1.51a2.81 2.81 0 0 0-.126-.827z"/>
</svg>
