<svg xmlns="http://www.w3.org/2000/svg" viewBox="0 0 32 32" xml:space="preserve" enable-background="new 0 0 32 32">
    <path d="m29.565 14.572-1.641-1.144a5.998 5.998 0 0 1-1.925 1.756V9c0-3.86-3.141-7-7-7h-7c-.289 0-.574.017-.855.047-.095.01-.189.03-.283.043a8.147 8.147 0 0 0-.545.091c-.12.026-.238.061-.356.092a8.122 8.122 0 0 0-.438.125c-.133.043-.263.094-.393.144a7.286 7.286 0 0 0-1.08.511c-.141.081-.28.164-.417.254-.087.056-.171.116-.255.176a8.054 8.054 0 0 0-.409.306c-.075.061-.146.126-.218.19-.133.116-.266.23-.391.355-.054.054-.102.112-.155.167-.128.135-.26.266-.379.411-.098.12-.182.248-.273.372-.066.091-.137.179-.2.273-.078.117-.147.239-.219.36-.073.123-.147.245-.214.371-.056.109-.107.22-.159.331a7.255 7.255 0 0 0-.305.748 7.538 7.538 0 0 0-.233.792c-.047.2-.085.404-.117.609-.012.075-.025.15-.035.226-.027.21-.042.423-.052.637-.004.077-.01.154-.012.231 0 .046-.006.091-.006.138h.011c-.001.528.041 1.06.143 1.591.602 3.107 3.095 5.615 6.202 6.243a7.998 7.998 0 0 0 7.132-2.042A7.934 7.934 0 0 0 20 17.415V23a1 1 0 0 1-1 1h-4v6h4c3.859 0 7-3.141 7-7v-5.594a7.998 7.998 0 0 0 3.565-2.834zm-18.812 1.301c-2.323-.469-4.186-2.343-4.636-4.663a6.296 6.296 0 0 1-.112-1.314c.001-.046.005-.092.007-.137.007-.175.02-.349.042-.522.005-.043.013-.085.02-.128.025-.168.057-.335.096-.5.012-.053.026-.105.04-.158a5.91 5.91 0 0 1 .134-.435c.024-.067.047-.134.073-.2.047-.121.1-.239.155-.357.038-.081.075-.162.116-.241.05-.095.106-.187.161-.28.054-.091.106-.183.165-.271.046-.068.098-.133.147-.2.153-.21.319-.409.497-.597.037-.039.072-.081.11-.119.094-.093.194-.18.293-.267.055-.047.109-.097.165-.143a5.58 5.58 0 0 1 .304-.227 5.202 5.202 0 0 1 .737-.449c.1-.052.202-.101.306-.148.091-.04.184-.077.278-.113.096-.037.192-.074.29-.106.11-.036.222-.065.333-.094.088-.023.174-.049.263-.068.136-.029.274-.049.412-.069.07-.01.139-.025.21-.032a5.96 5.96 0 0 1 5.785 2.874l1.713-1.032A8.045 8.045 0 0 0 17.278 4H19c2.757 0 5 2.243 5 5v6.906A6.048 6.048 0 0 1 23 16c-.63 0-1.243-.107-1.824-.294-.108-.034-.21-.081-.315-.121a6.146 6.146 0 0 1-.577-.248c-.08-.041-.155-.09-.233-.134a6.144 6.144 0 0 1-.561-.353c-.087-.064-.169-.135-.253-.203a6.035 6.035 0 0 1-.435-.38c-.109-.107-.21-.224-.311-.34a5.92 5.92 0 0 1-1.243-2.21l-1.916.57c.207.695.524 1.333.899 1.929-1.428 1.451-3.426 2.074-5.478 1.657zM24 23c0 2.757-2.243 5-5 5h-2v-2h2c1.654 0 3-1.346 3-3v-5.083c.33.043.661.083 1 .083.337 0 .67-.023 1-.065V23z"/>
    <path d="M20 8h2v2h-2z"/>
</svg>
