<svg xmlns="http://www.w3.org/2000/svg" viewBox="0 0 32 32" xml:space="preserve" enable-background="new 0 0 32 32">
    <path d="M23 25c1.654 0 3-1.346 3-3s-1.346-3-3-3a2.996 2.996 0 0 0-2.816 2H14v1c0 2.757-2.243 5-5 5s-5-2.243-5-5a4.998 4.998 0 0 1 4.408-4.966l-.234-1.986A6.997 6.997 0 0 0 2 22c0 3.859 3.141 7 7 7 3.521 0 6.442-2.612 6.929-6h4.256A2.994 2.994 0 0 0 23 25zm0-4a1 1 0 1 1 0 2 1 1 0 0 1 0-2z"/>
    <path d="M9 19c-1.654 0-3 1.346-3 3s1.346 3 3 3 3-1.346 3-3c0-.737-.277-1.403-.719-1.926l3.063-5.249-.862-.504A5.026 5.026 0 0 1 11 10c0-2.757 2.243-5 5-5a5.006 5.006 0 0 1 4.467 7.25l1.785.901A6.928 6.928 0 0 0 23 10c0-3.86-3.141-7-7-7s-7 3.14-7 7a7.03 7.03 0 0 0 2.646 5.48L9.56 19.057A2.954 2.954 0 0 0 9 19zm0 4a1 1 0 1 1 0-2 1 1 0 0 1 0 2z"/>
    <path d="M23 15c-.904 0-1.797.175-2.628.511l-2.091-3.585c.442-.523.719-1.19.719-1.926 0-1.654-1.346-3-3-3s-3 1.346-3 3 1.346 3 3 3c.191 0 .377-.022.559-.057l3.058 5.241.864-.505A5.006 5.006 0 0 1 28 22c0 2.757-2.243 5-5 5a4.999 4.999 0 0 1-4.147-2.205l-1.656 1.119A6.991 6.991 0 0 0 23 29c3.859 0 7-3.141 7-7s-3.141-7-7-7zm-8-5a1.001 1.001 0 1 1 1 1c-.552 0-1-.449-1-1z"/>
</svg>
