<svg xmlns="http://www.w3.org/2000/svg" xml:space="preserve" viewBox="0 0 32 32"><path d="M16 2C8.27 2 2 8.27 2 16s6.27 14 14 14 14-6.27 14-14S23.73 2 16 2m0 2c6.62 0 12 5.38 12 12 0 2.95-1.07 5.66-2.84 7.75l-1.85-1.85c.44-.53.68-1.2.67-1.9v-3.02c0-.34-.06-.67-.17-.98H25v-2h-2.28l-1.02-2.97A3 3 0 0 0 18.86 9h-5.72c-.75 0-1.44.27-1.98.75L8.25 6.84C10.34 5.07 13.05 4 16 4m5.68 12.27a1 1 0 0 1 .3.71v3.03c.01.16-.03.31-.11.45L20 18.59l-.59-.59-2-2h3.78c.19.04.35.14.49.27M15.98 14h-.57l-2.83-2.83c.17-.11.36-.17.56-.17h5.72c.42 0 .8.27.94.68l.79 2.3zm-3.39 0H11.4l.31-.88zM11 16.02l3.6-.01L16.59 18H12v2c0 .55-.44 1-.99 1s-1-.45-1-1L10 17.02c0-.55.45-1 1-1M16 28C9.38 28 4 22.62 4 16c0-2.95 1.07-5.66 2.84-7.75l3.29 3.29L9.28 14H7v2h1.19c-.13.32-.19.66-.19 1.02l.01 2.99A2.994 2.994 0 1 0 14 20h4a3.002 3.002 0 0 0 3.54 2.95l2.21 2.21C21.66 26.93 18.95 28 16 28"/></svg>