<svg xmlns="http://www.w3.org/2000/svg" xml:space="preserve" viewBox="0 0 32 32"><path d="M20.014 5.973 11.96 3.959 2 7.279v17.108l11-3.667V6.281l6 1.5V15h2V7.802l7-1.555V19.28l-2.316.772.633 1.896L30 20.721V3.753zM11 19.279l-7 2.333V8.721l7-2.333z" style="fill:#020202"/><path d="M24 21.5c0-2.481-2.019-4.5-4.5-4.5S15 19.019 15 21.5s2.019 4.5 4.5 4.5c.879 0 1.693-.263 2.386-.7l4.407 4.407 1.414-1.414-4.407-4.407c.437-.693.7-1.507.7-2.386M19.5 24c-1.379 0-2.5-1.121-2.5-2.5s1.121-2.5 2.5-2.5 2.5 1.121 2.5 2.5-1.121 2.5-2.5 2.5" style="fill:#020202"/></svg>