<svg xmlns="http://www.w3.org/2000/svg" width="24" height="24" viewBox="0 0 24 24"><path fill="#9b9b9b" d="m21.786 6.848-4.634-4.634A.734.734 0 0 0 16.635 2H2.733a.732.732 0 0 0-.732.732v18.537c0 .404.328.732.732.732H21.27a.732.732 0 0 0 .732-.732V7.367a.731.731 0 0 0-.214-.517zM8.098 3.463h7.805v4.329H8.098V3.463zm9.545 17.074H6.358v-6.156h11.285v6.156zm2.894 0h-1.431v-6.888a.732.732 0 0 0-.732-.732H5.625a.732.732 0 0 0-.732.732v6.888H3.462V3.464h3.171v5.061c0 .404.328.732.732.732h9.268a.732.732 0 0 0 .732-.732V4.499l3.171 3.171v12.868z"/></svg>