<svg xmlns="http://www.w3.org/2000/svg" width="24" height="24" viewBox="0 0 24 24"><path fill="#A9A9A9" fill-rule="evenodd" d="M7.455 11.09H2v1.82h5.455v-1.82Zm1.972-3.43L6.768 5 5 6.768l2.659 2.66 1.768-1.77ZM12.91 2h-1.818v5.455h1.818V2ZM19 6.768 17.232 5l-2.66 2.659 1.77 1.768L19 6.768Zm-2.455 4.323v1.818H22v-1.818h-5.455ZM12 9.273A2.724 2.724 0 0 0 9.273 12 2.724 2.724 0 0 0 12 14.727 2.724 2.724 0 0 0 14.727 12 2.724 2.724 0 0 0 12 9.273Zm2.573 7.068L17.232 19 19 17.232l-2.659-2.66-1.768 1.77ZM5 17.231 6.768 19l2.66-2.659-1.77-1.768L5 17.232ZM11.09 22h1.82v-5.455h-1.82V22Z"/></svg>