<svg xmlns="http://www.w3.org/2000/svg" width="24" height="24" viewBox="0 0 24 24"><path fill="#A9A9A9" fill-rule="evenodd" d="M8.22 16.976H3.858A.852.852 0 0 1 3 16.13v-.358c0-.702.134-.99.67-1.294.433-.244 3.756-1.998 5.12-2.58v-1.21c-.42-.303-1.094-.674-1.094-1.391V6.001C7.696 4.351 8.702 3 10.714 3c2.013 0 3.019 1.35 3.019 3.001v3.295c0 .71-.665 1.08-1.084 1.383v1.218c.209.084.455.192.724.317v2.05c-1.295.213-3.562.843-5.152 2.712Zm6.78-4.08c0-.412.176-.47.505-.224l6.247 4.658c.332.247.33.643 0 .889l-6.247 4.658c-.332.247-.505.035-.505-.377v-2.941c-2.038.008-5.515.311-6.593 2.911.076-5.284 4.604-6.61 6.593-6.905v-2.668Z"/></svg>