<svg xmlns="http://www.w3.org/2000/svg" width="24" height="24" viewBox="0 0 24 24"><path fill-rule="evenodd" d="m13.228 1.606 6.538 9.762c.13.195.205.413.227.632h-3.471l.25-.185-4.441-6.63-2.58 5.717a1.361 1.361 0 0 1-1.457.789l-2.468-.401 3.221 6.268L12 15.362v3.421l-2.62 1.949a1.357 1.357 0 0 1-2.02-.475L2.157 10.129c-.516-1.004.321-2.174 1.428-1.994l4.117.669 3.156-6.997a1.358 1.358 0 0 1 2.371-.201ZM17 17h-2.333a.667.667 0 0 0-.667.667v.666c0 .369.298.667.667.667H17v2.333c0 .369.298.667.667.667h.666a.667.667 0 0 0 .667-.667V19h2.333a.667.667 0 0 0 .667-.667v-.666a.667.667 0 0 0-.667-.667H19v-2.333a.667.667 0 0 0-.667-.667h-.666a.667.667 0 0 0-.667.667V17Z"/></svg>