<svg xmlns="http://www.w3.org/2000/svg" width="24" height="24" viewBox="0 0 24 24"><path fill="#A9A9A9" fill-rule="evenodd" d="M12 2c3.86 0 7 3.16 7 7.044 0 5.284-6.813 12.87-6.813 12.87a.245.245 0 0 1-.374 0S5 14.327 5 9.043C5 5.16 8.14 2 12 2Zm4 7.762V8.326a.285.285 0 0 0-.277-.288H13v-2.73a.284.284 0 0 0-.278-.289h-1.444a.288.288 0 0 0-.278.29v2.729H8.277A.286.286 0 0 0 8 8.326v1.436c0 .157.124.289.277.289H11v2.73c0 .159.125.289.278.289h1.444c.147 0 .278-.13.278-.29v-2.73h2.723A.285.285 0 0 0 16 9.762Z"/></svg>