<svg xmlns="http://www.w3.org/2000/svg" width="24" height="24" viewBox="0 0 24 24"><path fill-rule="evenodd" d="M11 1c1.3 0 2.4.94 2.82 2.1h4.164c.561 0 1.016.498 1.016 1.05V12h-2V5h-2v2H7V5H5v15h7v2H4.016A1.008 1.008 0 0 1 3 21V4.15c0-.552.455-1.05 1.016-1.05H8.18C8.6 1.94 9.7 1 11 1Zm0 2c-.55 0-1 .45-1 1s.45 1 1 1 1-.45 1-1-.45-1-1-1ZM7 9h2v9H7V9Zm3 5h2v4h-2v-4Zm3-3h2v4h-2v-4Zm4 6h-2.333a.667.667 0 0 0-.667.667v.666c0 .369.298.667.667.667H17v2.333c0 .369.298.667.667.667h.666a.667.667 0 0 0 .667-.667V19h2.333a.667.667 0 0 0 .667-.667v-.666a.667.667 0 0 0-.667-.667H19v-2.333a.667.667 0 0 0-.667-.667h-.666a.667.667 0 0 0-.667.667V17Z"/></svg>