<svg xmlns="http://www.w3.org/2000/svg" width="24" height="24" viewBox="0 0 24 24"><path fill="#A9A9A9" fill-rule="evenodd" d="M11.434 2.203a.891.891 0 0 1 1.132 0l8.124 5.996c.37.306.415.847.103 1.208a.884.884 0 0 1-.67.304h-1.112v9.36c0 .513-.392.929-.876.929H5.865c-.484 0-.876-.416-.876-.928V9.71h-.236c-.236 0-1.327-.092-1.485-.24a.846.846 0 0 1 .042-1.272Zm.567 4.942c-1.372 0-2.058.911-2.058 2.025v2.223c0 .484.46.734.746.938v.817c-.93.393-3.195 1.577-3.49 1.741-.366.205-.457.4-.457.874v2.303c0 .124.103.225.229.225h10.06a.227.227 0 0 0 .228-.225v-2.303c0-.474-.09-.669-.457-.874-.294-.164-2.496-1.348-3.482-1.74v-.822c.285-.206.739-.455.739-.934V9.17c0-1.114-.686-2.025-2.058-2.025Z"/></svg>