<svg xmlns="http://www.w3.org/2000/svg" width="24" height="24" viewBox="0 0 24 24"><path fill="#A9A9A9" fill-rule="evenodd" d="M6 3a1 1 0 0 1 1 1v4h1a1 1 0 0 1 1 1v1a1 1 0 0 1-1 1H7v9a1 1 0 0 1-2 0v-9H4a1 1 0 0 1-1-1V9a1 1 0 0 1 1-1h1V4a1 1 0 0 1 1-1Zm12 0a1 1 0 0 1 1 1v1h1a1 1 0 0 1 1 1v1a1 1 0 0 1-1 1h-1v12a1 1 0 0 1-2 0V8h-1a1 1 0 0 1-1-1V6a1 1 0 0 1 1-1h1V4a1 1 0 0 1 1-1Zm-6 0a1 1 0 0 1 1 1v11h1a1 1 0 0 1 1 1v1a1 1 0 0 1-1 1h-1v2a1 1 0 0 1-2 0v-2h-1a1 1 0 0 1-1-1v-1a1 1 0 0 1 1-1h1V4a1 1 0 0 1 1-1Z"/></svg>