<svg xmlns="http://www.w3.org/2000/svg" width="24" height="24" viewBox="0 0 24 24"><path fill="#A9A9A9" fill-rule="evenodd" d="m11.496 19.606 6.716-7.081c.762-.804 1.317-1.737 1.401-2.902.138-1.933-1.106-3.724-2.935-4.072-2.142-.407-3.47 1.157-4.817 2.577L7.164 13.08c-1.08 1.138-2.978 2.55-2.728 4.365.284 2.06 2.706 2.525 3.996 1.166l.964-1.017 4.607-4.858 2.417-2.548c.966-1.02-.273-2.357-1.227-1.348-.296.27-.561.592-.838.883-1.213 1.28-4.468 4.708-4.468 4.708l-.984-1.08s4.425-4.752 5.257-5.556c.65-.627 1.461-.937 2.282-.774 1.9.378 2.257 2.876 1.004 4.197l-.964 1.017-4.607 4.858c-1.044 1.1-2.18 2.703-3.537 3.4-1.687.865-3.818.326-4.814-1.39-.922-1.59-.579-3.688.65-4.982l7.474-7.882c.492-.518.97-1.038 1.572-1.423 1.472-.942 3.353-1.091 4.924-.329 3.306 1.603 3.754 6.263 1.28 8.872l-6.93 7.307-.998-1.06Z"/></svg>