<svg xmlns="http://www.w3.org/2000/svg" width="24" height="24" viewBox="0 0 24 24"><path fill="#A9A9A9" fill-rule="evenodd" d="m14.07 3.2 7.638 5.893c.348.3.391.832.097 1.187a.817.817 0 0 1-.63.299H20V21h-3v-8a1 1 0 0 0-1-1H7v-1.421c-1.017.045-1.575.019-1.674-.079-.155-.153-.252-.526-.252-.764a.85.85 0 0 1 .292-.643l7.639-5.894a.81.81 0 0 1 1.064 0ZM15 13a1 1 0 0 1 1 1v6a1 1 0 0 1-.883.993L15 21H3a1 1 0 0 1-1-1v-6a1 1 0 0 1 1-1h12Zm-1 1H4v1H3v4h1v1h10v-1h1v-4h-1v-1Zm-5 1a2 2 0 1 1 0 4 2 2 0 0 1 0-4Zm0 1a1 1 0 1 0 0 2 1 1 0 0 0 0-2Z"/></svg>