<svg xmlns="http://www.w3.org/2000/svg" width="24" height="24" viewBox="0 0 24 24"><path fill="#A9A9A9" fill-rule="evenodd" d="m7.302 9.868-.788-.67-.457-.39-.834-.712c-.123-.105-.118-.28.012-.39l6.598-5.621a.369.369 0 0 1 .47 0l6.598 5.62c.136.116.129.29-.003.402 0 0-.407.344-1.05.891l-1.15.982 2.07 1.763c.134.115.128.29-.004.402 0 0-.407.343-1.05.89l-1.15.982.922.786.457.39.834.711c.123.105.118.28-.012.39l-6.598 5.621a.369.369 0 0 1-.47 0l-6.598-5.62c-.136-.116-.129-.29.003-.402 0 0 .407-.344 1.05-.891l1.15-.981-.922-.786-.457-.39-.834-.711c-.123-.105-.118-.28.012-.391l2.2-1.875Zm.788.672-1.648 1.404.116.1.457.388 4.919 4.19c.108-.094.259-.222.477-.408l1.93-1.646a13449.968 13449.968 0 0 1 3.082-2.627l-1.514-1.29-3.605 3.075a.377.377 0 0 1-.47.002L8.09 10.54Zm4.456 1.636 1.93-1.646a13447.776 13447.776 0 0 1 3.081-2.627l-5.489-4.675-5.492 4.678.117.1.456.389 4.919 4.188c.109-.092.26-.22.478-.407Z"/></svg>