<svg xmlns="http://www.w3.org/2000/svg" width="24" height="24" viewBox="0 0 24 24"><path fill="#a9a9a9" d="M14.758 19.562c0-.632.475-1.146 1.061-1.146s1.06.513 1.06 1.146c0 .633-.475 1.146-1.06 1.146s-1.061-.513-1.061-1.146zm-3.819 0c0-.632.475-1.146 1.061-1.146s1.061.513 1.061 1.146c0 .633-.475 1.146-1.061 1.146s-1.061-.513-1.061-1.146zm-3.818 0c0-.632.475-1.146 1.061-1.146s1.061.513 1.061 1.146c0 .633-.475 1.146-1.061 1.146s-1.061-.513-1.061-1.146zm7.637-4.124c0-.632.475-1.146 1.061-1.146s1.06.513 1.06 1.146c0 .632-.475 1.146-1.06 1.146s-1.061-.513-1.061-1.146zm-3.819 0c0-.632.475-1.146 1.061-1.146s1.061.513 1.061 1.146c0 .632-.475 1.146-1.061 1.146s-1.061-.513-1.061-1.146zm-3.818 0c0-.632.475-1.146 1.061-1.146s1.061.513 1.061 1.146c0 .632-.475 1.146-1.061 1.146s-1.061-.513-1.061-1.146zm7.637-4.126c0-.632.475-1.146 1.061-1.146s1.06.513 1.06 1.146c0 .633-.475 1.146-1.06 1.146s-1.061-.513-1.061-1.146zm-3.819 0c0-.632.475-1.146 1.061-1.146s1.061.513 1.061 1.146c0 .633-.475 1.146-1.061 1.146s-1.061-.513-1.061-1.146zm-3.818 0c0-.632.475-1.146 1.061-1.146s1.061.513 1.061 1.146c0 .633-.475 1.146-1.061 1.146s-1.061-.513-1.061-1.146zm.934-8.02h7.891c.517 0 .933.449.933 1.008v3.025c0 .559-.416 1.008-.933 1.008H8.055c-.518 0-.933-.449-.933-1.008V4.3c0-.559.416-1.009.933-1.009zM5 21.167C5 22.18 5.759 23 6.697 23h10.606c.938 0 1.697-.82 1.697-1.833V2.833C19 1.82 18.241 1 17.303 1H6.697C5.759 1 5 1.82 5 2.833v18.334z"/></svg>