<svg xmlns="http://www.w3.org/2000/svg" width="24" height="24" viewBox="0 0 24 24"><path fill="#A9A9A9" fill-rule="evenodd" d="M12 2c5.514 0 10 4.486 10 10s-4.486 10-10 10S2 17.514 2 12 6.486 2 12 2Zm0 2.5a7.5 7.5 0 1 0 0 15 7.5 7.5 0 0 0 0-15ZM9.36 7.478l2.826 2.826 2.853-2.854c.104-.103.26-.067.364.037l1.116 1.116c.104.104.132.252.029.356l-2.854 2.853 2.823 2.823c.104.104.135.254.031.358l-1.117 1.116c-.103.104-.319.138-.423.035l-2.822-2.823-2.788 2.788c-.104.104-.317.14-.421.037L7.86 15.029c-.104-.104-.075-.325.03-.429l2.787-2.788-2.826-2.826c-.104-.103-.066-.315.038-.42L9.006 7.45c.103-.104.25-.076.354.028Z"/></svg>