<svg xmlns="http://www.w3.org/2000/svg" width="24" height="24" viewBox="0 0 24 24"><path fill="#A9A9A9" fill-rule="evenodd" d="M6.264 8.635a4.92 4.92 0 0 0-.142 1.141c0 3.64 3.922 6.33 8.58 6.401-1.32 1.06-3.284 1.74-5.496 1.74-1.038 0-2.021-.15-2.914-.417l-2.875 1.46c-.19.097-.298.012-.242-.188l.692-2.459C2.71 15.451 2 14.311 2 13.056c0-1.975 1.756-3.662 4.264-4.421ZM14.894 5C18.818 5 22 7.146 22 9.793c0 1.238-.7 2.36-1.84 3.211l.682 2.425c.056.198-.053.282-.24.187l-2.835-1.44c-.879.262-1.85.41-2.873.41-3.924 0-7.106-2.146-7.106-4.793C7.788 7.146 10.97 5 14.894 5Z"/></svg>