<svg xmlns="http://www.w3.org/2000/svg" width="24" height="24" viewBox="0 0 24 24"><path fill="#A9A9A9" fill-rule="evenodd" d="M14 2a2 2 0 0 1 2 2v2h3.718c.446 0 .607.046.77.134a.906.906 0 0 1 .378.378c.088.163.134.324.134.77v11.436c0 .446-.046.607-.134.77a.909.909 0 0 1-.378.378c-.163.088-.324.134-.77.134H4.282c-.446 0-.607-.046-.77-.134a.909.909 0 0 1-.378-.378c-.088-.163-.134-.324-.134-.77V7.282c0-.446.046-.607.134-.77a.909.909 0 0 1 .378-.378c.163-.088.324-.134.77-.134H8V4a2 2 0 0 1 2-2h4Zm.377 7.197L12 11.574 9.623 9.197a.672.672 0 0 0-.95 0l-.476.475a.672.672 0 0 0 0 .951L10.574 13l-2.377 2.377a.672.672 0 0 0 0 .95l.475.476a.672.672 0 0 0 .951 0L12 14.426l2.377 2.377a.672.672 0 0 0 .95 0l.476-.475a.672.672 0 0 0 0-.951L13.426 13l2.377-2.377a.672.672 0 0 0 0-.95l-.475-.476a.672.672 0 0 0-.951 0ZM14 4h-4v2h4V4Z"/></svg>