<svg xmlns="http://www.w3.org/2000/svg" width="24" height="24" viewBox="0 0 24 24"><path fill="#A9A9A9" fill-rule="evenodd" d="M8 6V4a2 2 0 0 1 2-2h4a2 2 0 0 1 2 2v2h3.718c.446 0 .607.046.77.134a.906.906 0 0 1 .378.378c.088.163.134.324.134.77v11.436c0 .446-.046.607-.134.77a.909.909 0 0 1-.378.378c-.163.088-.324.134-.77.134H4.282c-.446 0-.607-.046-.77-.134a.909.909 0 0 1-.378-.378c-.088-.163-.134-.324-.134-.77V7.282c0-.446.046-.607.134-.77a.909.909 0 0 1 .378-.378c.163-.088.324-.134.77-.134H8Zm4 11 4-4-4-4v2H8v3.972h4V17ZM10 4v2h4V4h-4Z"/></svg>