<svg xmlns="http://www.w3.org/2000/svg" width="24" height="24" viewBox="0 0 24 24"><path fill="#A9A9A9" fill-rule="evenodd" d="M10.84 11.885a.268.268 0 0 0-.055-.076L2.08 3.223a.267.267 0 0 1 0-.38l.774-.764a.276.276 0 0 1 .386 0l8.76 8.64 8.76-8.64a.276.276 0 0 1 .386 0l.774.763a.267.267 0 0 1 0 .381l-8.705 8.586a.268.268 0 0 0-.054.076.267.267 0 0 1 0 .23.268.268 0 0 0 .054.076l8.705 8.585a.267.267 0 0 1 0 .382l-.774.763a.276.276 0 0 1-.386 0L12 13.281l-8.76 8.64a.276.276 0 0 1-.386 0l-.774-.763a.267.267 0 0 1 0-.382l8.705-8.585a.268.268 0 0 0 .054-.076.267.267 0 0 1 0-.23Z"/></svg>