<svg xmlns="http://www.w3.org/2000/svg" width="24" height="24" viewBox="0 0 24 24"><path fill="#A9A9A9" fill-rule="evenodd" d="M6.021 5h8.958A2.01 2.01 0 0 1 17 7v13c0 1.105-.905 2-2.021 2H6.02A2.01 2.01 0 0 1 4 20V7c0-1.105.905-2 2.021-2Zm8.588 10.57c-.252-.14-2.136-1.144-2.98-1.478v-.696c.244-.174.632-.386.632-.792v-1.886C12.26 9.773 11.674 9 10.5 9s-1.76.773-1.76 1.718v1.886c0 .41.393.622.637.796v.692c-.795.334-2.734 1.338-2.986 1.478-.313.173-.391.338-.391.74v.5c0 .104.088.19.196.19h8.608a.194.194 0 0 0 .196-.19v-.5c0-.402-.078-.567-.391-.74ZM20 4v14h-2V4h2Zm-2-2v2H8V2h10Zm2 2h-2V2a2 2 0 0 1 2 2ZM8 2v2H6a2 2 0 0 1 2-2Zm10 18v-2h2a2 2 0 0 1-2 2Z"/></svg>