<svg xmlns="http://www.w3.org/2000/svg" width="24" height="24" viewBox="0 0 24 24"><path fill="#A9A9A9" fill-rule="evenodd" d="M14.001 2v6H20v13.166a.84.84 0 0 1-.838.834H4.838A.836.836 0 0 1 4 21.166V2.834c0-.46.38-.834.838-.834H14Zm2.564 15.39c-.28-.157-2.373-1.286-3.31-1.661v-.784c.27-.196.702-.434.702-.89v-2.122C13.957 10.87 13.304 10 12 10s-1.957.87-1.957 1.933v2.121c0 .462.438.7.71.896v.779c-.884.375-3.038 1.504-3.318 1.662-.348.195-.435.381-.435.833v.561c0 .119.098.215.217.215h9.566c.12 0 .217-.096.217-.215v-.56c0-.453-.087-.639-.435-.834ZM15 2l5 5h-5V2Z"/></svg>