<svg xmlns="http://www.w3.org/2000/svg" width="24" height="24" viewBox="0 0 24 24"><path fill="#A9A9A9" fill-rule="evenodd" d="m19.947 12.922.114-.148a26.933 26.933 0 0 0 1.77-2.613c.111.596.169 1.21.169 1.839 0 5.52-4.48 10-10 10S2 17.52 2 12 6.48 2 12 2c.82 0 1.619.1 2.382.286a5.45 5.45 0 0 0-.882 2.99c0 .492.072 1.005.208 1.54-.22.117-.46.184-.708.184h-1.111v2c0 .55-.45 1-1 1H9.504v2h5.498c.55 0 1 .45 1 1v3h1c.9 0 .638.58.898 1.39a7.967 7.967 0 0 0 2.047-4.468ZM11 19.93v-2.763c-1.1 0-2-.9-2-2v-1L4.21 10.21C4.08 10.79 4 11.38 4 12c0 4.08 3.05 7.44 7 7.93ZM18.5 2C20.43 2 22 3.58 22 5.522c0 2.642-3.406 6.435-3.406 6.435a.123.123 0 0 1-.188 0S15 8.164 15 5.522C15 3.58 16.57 2 18.5 2Zm.05 2.083a1.42 1.42 0 0 0-1.42 1.42v.077a1.42 1.42 0 1 0 2.841 0v-.076a1.42 1.42 0 0 0-1.42-1.42Z"/></svg>