<svg xmlns="http://www.w3.org/2000/svg" width="24" height="24" viewBox="0 0 24 24"><path fill="#A9A9A9" fill-rule="evenodd" d="M14.275 8.39a.667.667 0 0 1 0-.941l1.254-1.254c.26-.26.682-.26.942 0l5.334 5.333c.26.26.26.682 0 .942l-5.334 5.335a.667.667 0 0 1-.943 0l-1.253-1.255a.667.667 0 0 1 0-.942l2.048-2.053H7.677l2.048 2.053c.26.26.26.682 0 .942l-1.253 1.255a.667.667 0 0 1-.943 0L2.195 12.47a.667.667 0 0 1 0-.942L7.53 6.195c.26-.26.682-.26.942 0L9.725 7.45c.26.26.26.681 0 .942l-2.047 2.053h8.644L14.275 8.39Z"/></svg>