<svg xmlns="http://www.w3.org/2000/svg" width="24" height="24" viewBox="0 0 24 24"><path fill="#A9A9A9" fill-rule="evenodd" d="M12 3c2.609 0 3.913 1.74 3.913 3.865v4.244c0 .357-.132.648-.325.892L13.5 12a1.5 1.5 0 0 0-.144 2.993L13.5 15h2.233l.891.43 1.347.677a124.34 124.34 0 0 1 3.16 1.674c.696.391.869.763.869 1.667v.734a.826.826 0 0 1-.833.818H2.833A.826.826 0 0 1 2 20.182v-.734c0-.844.151-1.224.737-1.588l.133-.079c.56-.314 4.867-2.573 6.635-3.323v-1.559l-.45-.314c-.476-.342-.968-.783-.968-1.476V6.865C8.087 4.74 9.391 3 12 3Zm6 3a1 1 0 0 1 .993.883L19 7v3a1 1 0 0 1-.883.993L18 11h-.126A4.002 4.002 0 0 1 14 14h-.5a.5.5 0 1 1 0-1h.5a3 3 0 0 0 3-3V6h1ZM7 6v5H6a1 1 0 0 1-1-1V7a1 1 0 0 1 1-1h1Z"/></svg>