<svg xmlns="http://www.w3.org/2000/svg" width="24" height="24" viewBox="0 0 24 24"><path fill="#acacac" d="M1.411 3.024a.633.633 0 0 0-.379.379c-.056.145-.079 15.939-.024 16.137a.683.683 0 0 0 .311.392l.132.072 5.097.006c4.856.006 5.096.004 5.079-.036a7.195 7.195 0 0 1-.358-1.164l-.014-.066H4.704v-5.208h8.454l.207-.153c.587-.435.996-.648 1.668-.867l.309-.101-.081-.05c-.17-.105-.051-.103-5.817-.096l-5.52.007-.113.056a.857.857 0 0 0-.197.143c-.167.172-.158-.022-.158 3.286v2.984h-1.2V4.249h2.663l.013 4.452.056.114c.068.137.242.297.361.33.057.016 1.504.024 4.168.024h4.081l.124-.062a.685.685 0 0 0 .197-.154c.151-.191.144-.094.144-2.033V5.149l2.688 2.687.006 2.208.006 2.208.288.016c.256.014.535.052.846.113l.102.02-.001-2.499c0-2.456-.001-2.501-.049-2.607-.057-.126-4.077-4.163-4.222-4.24-.09-.048-12.161-.08-12.317-.033zm11.405 3.06V7.92H6.192V4.248h6.624v1.836zm8.568 6.106c-.232.071-.32.158-.712.698-.271.373-2.12 2.904-3.104 4.248l-.558.764c-.103.141-.112.149-.142.106-.018-.025-.12-.142-.227-.259s-.306-.338-.441-.49c-.136-.152-.291-.325-.346-.384s-.268-.297-.474-.528c-.597-.668-.658-.709-1.024-.692-.305.015-.396.071-.77.483-.451.496-.515.617-.515.976 0 .423-.106.281 1.792 2.394 1.764 1.963 1.657 1.866 2.046 1.866.188 0 .232-.009.336-.064.217-.116.066.076 3.03-3.836l.502-.66.904-1.188.874-1.149c.546-.717.528-1.072-.088-1.762-.456-.51-.715-.635-1.083-.523z"/></svg>