<svg xmlns="http://www.w3.org/2000/svg" width="24" height="24" viewBox="0 0 24 24"><path fill="#acacac" d="M3.923 1.8a.855.855 0 0 0-.658.519l-.049.132.006 9.089.006 9.089.064.12a.87.87 0 0 0 .594.444c.085.016 1.89.024 5.285.024h5.157v-1.92h-1.554c-1.872 0-1.911-.006-2.215-.311-.273-.273-.287-.356-.287-1.665 0-1.43.051-1.59.595-1.847l.161-.076 3.299-.014.013-3.154.075-.156c.1-.209.266-.371.489-.478l.18-.086h2.546l.183.09c.224.111.378.262.482.472l.077.157.013 3.157h1.039l-.016-1.242c-.009-.683-.016-2.427-.016-3.876V7.634H13.32V1.778l-4.638.003c-2.551.002-4.692.011-4.759.021zm10.429 2.419v2.405h5.004l-.204-.201c-.112-.11-1.176-1.133-2.364-2.272L14.49 1.947l-.138-.134v2.405zm1.212 7.802a.637.637 0 0 0-.373.211c-.19.206-.178.075-.186 2.03l-.007 1.746h-1.686c-1.375 0-1.71.006-1.817.034-.072.019-.142.028-.155.02s-.017-.006-.009.003c.009.009-.036.066-.099.125-.201.188-.221.266-.212.846.009.567.022.613.222.789s.168.174 2.072.174h1.684l.008 1.734c.009 1.923.001 1.833.172 2.027.175.199.261.222.818.222.539 0 .631-.022.802-.194.191-.191.181-.084.188-2.044l.007-1.746 1.685-.001c1.688-.001 1.779-.005 1.941-.081.3-.142.393-.395.374-1.01-.016-.505-.098-.686-.369-.819l-.141-.069-3.492-.014v-1.699c0-2.051.003-2.032-.369-2.222-.146-.075-.793-.114-1.059-.065zm2.82 8.239v.963l.175-.015c.651-.055.832-.349.833-1.354v-.558h-1.008v.964z"/><path fill="#8c8c8c" d="m14.334 4.218.006 2.418.006-2.409c.006-2.288.008-2.407.048-2.376.038.03.039.029.009-.009-.018-.023-.042-.042-.054-.042s-.019 1.042-.015 2.418zm1.794-.722c0 .013.03.05.066.082l.066.058-.06-.072-.066-.082c-.003-.005-.006.001-.006.014zm.6.575c0 .013.035.055.078.094l.078.071-.072-.084c-.04-.046-.075-.088-.078-.094s-.006 0-.006.013zm.624.601c0 .013.03.05.066.082l.066.058-.06-.072-.066-.082c-.003-.005-.006.001-.006.014zm.6.576c0 .013.03.05.066.082l.066.058-.06-.072c-.033-.04-.063-.076-.066-.082s-.006.001-.006.014zm1.224 1.176c0 .013.03.05.066.082l.066.058-.06-.072-.066-.082c-.003-.005-.006.001-.006.014zM14.84 7.626c.843.003 2.214.003 3.048 0s.145-.006-1.532-.006c-1.676 0-2.359.003-1.516.006zm-3.838 9.366c0 .191.004.27.008.174s.005-.252 0-.348c-.005-.096-.008-.017-.008.174zm7.364 1.08c0 .046.005.065.011.042s.006-.061 0-.084c-.006-.023-.011-.004-.011.042zm-6.348 1.218c.426.004 1.122.004 1.548 0s.077-.007-.774-.007-1.2.003-.774.007zm6.612 0c.142.004.374.004.516 0s.026-.008-.258-.008-.4.003-.258.008zm-2.857 2.712c.115.004.309.004.432 0s.029-.008-.209-.008-.338.004-.223.008z"/><path fill="#747474" d="M14.331 1.765c.002.013.137.152.301.311s.29.272.281.252c-.023-.047-.587-.593-.582-.563zm-.999 2.927c0 1.61.003 2.266.006 1.456s.003-2.127 0-2.928c-.004-.801-.006-.139-.006 1.472zM3.496 1.959c-.119.093-.157.141-.046.059.119-.089.186-.145.172-.146a.78.78 0 0 0-.126.087zm12.042.973c.318.312.581.565.584.562.007-.006-.473-.477-.884-.866-.153-.145-.018-.008.3.304zM3.204 11.484c0 4.99.003 7.027.006 4.528s.003-6.582 0-9.072c-.003-2.49-.006-.446-.006 4.544zm13.223-7.699c.158.161.292.288.298.282s.006-.014 0-.017-.14-.13-.298-.282l-.287-.276.287.293zm.613.589c.165.168.303.306.308.306.024 0-.034-.061-.308-.324l-.3-.288.3.306zm.611.587c.158.161.292.288.298.282s.006-.014 0-.017-.14-.13-.298-.282l-.287-.276.287.293zm.923.887c.324.319.593.577.597.573.007-.007-.425-.43-.909-.889-.153-.145-.013-.003.312.316zm.71.68.094.096-5.062.012 5.11.012-.106-.108c-.058-.059-.111-.108-.118-.108s.03.043.082.096zm.119 3.036c0 1.069.003 1.51.007.98s.004-1.405 0-1.944c-.004-.539-.007-.105-.007.964zm-3.615 1.95c.321.004.839.004 1.152 0s.05-.007-.584-.007-.889.003-.568.007zm-.752.03c-.03.013-.035.021-.012.021.02 0 .058-.009.084-.021.03-.013.035-.021.012-.021a.246.246 0 0 0-.084.021zm-.389.227c-.102.092-.272.351-.27.413a.53.53 0 0 0 .083-.135c.048-.09.136-.204.208-.27.069-.063.119-.114.111-.114s-.067.048-.132.106zm3.442.041c.1.112.178.245.236.403.017.047.032.068.033.047.003-.076-.165-.371-.266-.465l-.102-.096.099.112zm1.309.284c0 .046.005.065.011.042s.006-.061 0-.084c-.006-.023-.011-.004-.011.042zm-2.677.037c.042.033.105.095.14.138s.052.054.038.027c-.027-.054-.208-.226-.237-.226-.01 0 .017.028.059.061zm-1.543.065-.071.078.078-.071a.618.618 0 0 0 .078-.078c0-.019-.02-.002-.086.071zm-.85 1.662v1.524l-3.18.013 3.204.012v-1.536c0-.845-.005-1.536-.012-1.536s-.012.686-.012 1.524zm4.038.006-.006 1.542 1.044-.011-1.02-.014-.013-3.059-.006 1.542zm1.036-.762c0 .35.003.493.007.318s.004-.461 0-.636-.007-.032-.007.318zm-2.404 1.194-.006 1.71 3.42-.012-3.396-.013-.006-1.698-.006-1.698-.006 1.71zm-6.168 1.204c-.139.077-.326.218-.31.234.006.006.047-.023.091-.064s.155-.112.246-.157c.091-.046.15-.083.132-.083s-.09.032-.159.07zm-.415.379c-.039.062-.071.124-.071.138s.028-.023.062-.083c.034-.059.073-.121.087-.138s.018-.03.009-.03-.048.051-.087.113zm2.023.121c.472.004 1.244.004 1.716 0s.086-.007-.858-.007-1.33.003-.858.007zm8.169.065a.716.716 0 0 1 .308.301c.024.053.048.093.054.087.058-.058-.291-.424-.401-.422-.02 0-.003.016.039.034zm-10.296.042c-.008.03-.014.077-.013.103s.012.006.024-.046c.023-.1.013-.15-.011-.057zm.869.085c-.078.084-.14.178-.14.209 0 .014.023-.013.05-.059s.078-.114.112-.15c.034-.036.057-.066.05-.066s-.039.03-.073.066zm-.897 1.146c0 .568.003.796.007.508s.004-.752 0-1.032-.007-.044-.007.524zm.715-.756c0 .046.005.065.011.042s.006-.061 0-.084c-.006-.023-.011-.004-.011.042zm0 .816c0 .046.005.065.011.042s.006-.061 0-.084c-.006-.023-.011-.004-.011.042zm9.923.228c-.022.046-.035.084-.029.084.016 0 .089-.147.078-.158-.005-.005-.027.028-.049.074zm-9.803.108c.039.066.222.216.265.216.015 0-.022-.031-.081-.069s-.133-.1-.163-.138c-.044-.055-.048-.057-.02-.009zm9.676.078-.071.078.078-.071c.073-.066.089-.085.07-.085a.618.618 0 0 0-.078.078zm-3.791 1.902c0 .95.003 1.336.007.856s.004-1.257 0-1.728c-.004-.471-.007-.079-.007.872zm1.349-1.56a.67.67 0 0 0 .023.13c.017.019.004-.13-.016-.19-.014-.04-.016-.021-.006.06zm-8.007.48c-.002.176.41.548.663.6.038.008.009-.01-.063-.038a.955.955 0 0 1-.527-.453c-.04-.072-.073-.121-.073-.108zm3.983 1.608v.972l-10.356.012 10.38.012v-.984c0-.541-.005-.984-.012-.984s-.012.437-.012.972zm4.038.006-.006.99.276-.009-.251-.018-.007-.977-.007-.977-.006.99zm1.036-.402c0 .31.003.437.008.282s.004-.409 0-.564c-.004-.155-.008-.028-.008.282zm-.239 1.106c-.039.041-.125.106-.191.144s-.109.069-.095.07c.041 0 .233-.132.309-.213.039-.041.065-.075.058-.075s-.044.033-.082.074zM3.36 20.912c0 .004.035.039.078.078l.078.071-.071-.078c-.066-.073-.085-.089-.085-.071zm.181.162c.016.027.156.101.167.089.005-.004-.034-.031-.086-.06s-.088-.042-.081-.029zm11.507.542c0 .07.236.32.303.32.011 0-.021-.028-.072-.062s-.123-.112-.162-.173c-.039-.061-.07-.099-.07-.085zm1.802.13c-.03.041-.104.105-.165.144s-.1.07-.087.07c.053 0 .259-.169.301-.246.035-.065.012-.05-.048.032z"/><path fill="#949494" d="M14.424 1.879c0 .004.035.039.078.078l.078.07-.071-.078c-.066-.073-.086-.089-.086-.071zm1.824 1.752c0 .004.035.039.078.078l.078.071-.07-.078c-.066-.073-.086-.089-.086-.071zm1.824 1.752c0 .004.035.039.078.078l.078.071-.07-.078c-.066-.073-.086-.089-.086-.071z"/></svg>