<svg xmlns="http://www.w3.org/2000/svg" width="24" height="24" viewBox="0 0 24 24"><path fill="#a9a9a9" d="m2.517 10.873 7.33-6.618c.431-.389 1.199-.326 1.715.141s.587 1.16.156 1.549L5.012 12l6.706 6.055c.431.389.361 1.082-.156 1.549s-1.285.53-1.715.141l-7.33-6.618c-.689-.622-.689-1.631 0-2.253z"/><path fill="#a9a9a9" d="m12.517 10.873 7.33-6.618c.431-.389 1.199-.326 1.715.141s.587 1.16.156 1.549L15.012 12l6.706 6.055c.431.389.361 1.082-.156 1.549s-1.285.53-1.715.141l-7.33-6.618c-.689-.622-.689-1.631 0-2.253z"/></svg>