<svg xmlns="http://www.w3.org/2000/svg" width="24" height="24" viewBox="0 0 24 24"><path fill="#A9A9A9" fill-rule="evenodd" d="m10.372 17.957-2.381 1.82a1.002 1.002 0 0 1-1.511-.363L2.115 10.68c-.382-.764.242-1.65 1.066-1.514l3.557.59 2.703-6.14a1.004 1.004 0 0 1 1.772-.151l2.31 3.545 1.046-2.377a1.004 1.004 0 0 1 1.772-.15l5.486 8.418a1.068 1.068 0 0 1-.238 1.425l-8.47 6.469a1.002 1.002 0 0 1-1.51-.362l-1.237-2.475Zm9.225-4.72L15.67 7.21l-2.271 5.156c-.19.43-.635.676-1.088.601l-2.337-.387 2.896 5.796 6.728-5.139Z"/></svg>