<svg xmlns="http://www.w3.org/2000/svg" width="24" height="24" viewBox="0 0 24 24"><path fill="#A9A9A9" fill-rule="evenodd" d="M20 3c1.11 0 2 .89 2 2v3a2 2 0 0 1-2 2h-2v3c0 2.21-1.79 4-4 4H8c-2.21 0-4-1.79-4-4V3Zm-6.623 3.197L11 8.574 8.623 6.197a.672.672 0 0 0-.95 0l-.476.475a.672.672 0 0 0 0 .951L9.574 10l-2.377 2.377a.672.672 0 0 0 0 .95l.475.476a.672.672 0 0 0 .951 0L11 11.426l2.377 2.377a.672.672 0 0 0 .95 0l.476-.475a.672.672 0 0 0 0-.951L12.426 10l2.377-2.377a.672.672 0 0 0 0-.95l-.475-.476a.672.672 0 0 0-.951 0ZM20 5h-2v3h2V5ZM4 19h16v2H4v-2Z"/></svg>