<svg xmlns="http://www.w3.org/2000/svg" width="24" height="24" viewBox="0 0 24 24"><path fill="#A9A9A9" fill-rule="evenodd" d="M14 19v-3.5c0-.836-.259-1.356-.943-1.751-.289-.167-1.075-.493-1.557-.749.27-.178.407-.407.625-.502v-.928h-.92c.083-3.091.85-4.638 2.3-4.64 1.452-.001 2.219 1.545 2.302 4.64h-.92v.928c1.035.425 2.76 1.736 2.76 2.415V19H14Zm5-.002c0-3.186-.066-4.779-.2-4.777a1.857 1.857 0 0 1-1.152-1.723 1.85 1.85 0 0 1 1.84-1.857 1.85 1.85 0 0 1 1.842 1.857c0 .778-.475 1.445-1.149 1.72A2.525 2.525 0 0 1 22 16.65v1.42a.924.924 0 0 1-.92.928h-2.512H19Zm-6.873-4.613c.385.222.48.433.48.946v3.665H2.92a.924.924 0 0 1-.92-.929v-2.736c0-.513.096-.724.48-.946.31-.178 2.228-1.46 3.204-1.885v-.93c-.3-.222-.76-.446-.76-.97V8.193c0-1.206.72-2.193 2.16-2.193 1.442 0 2.162.987 2.162 2.193V10.6c0 .518-.503.742-.802.964v.936c1.036.425 3.374 1.707 3.683 1.885Z"/></svg>