<svg xmlns="http://www.w3.org/2000/svg" width="24" height="24" viewBox="0 0 24 24"><path fill="#A9A9A9" fill-rule="evenodd" d="M20.25 3a.75.75 0 0 1 .75.75V14h-2V5H5v9H3V3.75A.75.75 0 0 1 3.75 3h16.5ZM13.5 18H15v1.5h-1.5V18Zm4 1.5H19V21h-1.5v-1.5Zm-13 0H6V21H4.5v-1.5Zm4.5-.75h1.5v1.5H9v-1.5ZM6 16.5h1.5V18H6v-1.5Zm-3-.75h1.5v1.5H3v-1.5Zm13.5.75H18V18h-1.5v-1.5Zm3-.75H21v1.5h-1.5v-1.5Zm-8.25 0v1.5h-1.5v-1.5h1.5ZM13 11v3h-2v-3h2Zm4 1v2h-2v-2h2Zm-8 0v2H7v-2h2Zm1.412-5.66 3.181 2.121 3.786-.946.242.97-4.214 1.054-2.82-1.88-3.21 3.67-.753-.658 3.788-4.33Z"/></svg>