<svg xmlns="http://www.w3.org/2000/svg" width="24" height="24" viewBox="0 0 24 24"><path fill="#A9A9A9" fill-rule="evenodd" d="M20.25 3a.75.75 0 0 1 .75.75V14h-2V5H5v9H3V3.75A.75.75 0 0 1 3.75 3h16.5ZM13.5 18H15v1.5h-1.5V18Zm4 1.5H19V21h-1.5v-1.5Zm-13 0H6V21H4.5v-1.5Zm4.5-.75h1.5v1.5H9v-1.5Zm-6-3h1.5v1.5H3v-1.5Zm13.5.75H18V18h-1.5v-1.5Zm3-.75H21v1.5h-1.5v-1.5ZM16 7.5v6.563c0 .724-.735 1.312-1.64 1.312-.907 0-1.641-.588-1.641-1.313 0-.724.734-1.312 1.64-1.312.234 0 .456.039.657.11V9.584l-4.047.377v6.022c0 .725-.735 1.313-1.64 1.313-.907 0-1.642-.588-1.642-1.313 0-.724.735-1.312 1.641-1.312.233 0 .455.039.656.11V8.108L16 7.5Z"/></svg>