<svg xmlns="http://www.w3.org/2000/svg" width="24" height="24" viewBox="0 0 24 24"><path fill="#A9A9A9" fill-rule="evenodd" d="M20.25 3a.75.75 0 0 1 .75.75V14h-2V5h-7v.25L10 6V5H5v9H3V3.75A.75.75 0 0 1 3.75 3h16.5ZM13.5 18H15v1.5h-1.5V18Zm4 1.5H19V21h-1.5v-1.5Zm-13 0H6V21H4.5v-1.5Zm4.5-.75h1.5v1.5H9v-1.5ZM6 16.5h1.5V18H6v-1.5Zm-3-.75h1.5v1.5H3v-1.5Zm13.5.75H18V18h-1.5v-1.5Zm3-.75H21v1.5h-1.5v-1.5ZM12 6l2-.75V7.5l-2-.75V6Zm0 3 2-.75v2.25l-2-.75V9Zm-2-2.25 2 .75v.75L10 9V6.75Zm0 5 2.003-.75 1.997.75V15c0 1.243-.893 2-1.997 2C10.898 17 10 16.243 10 15v-3.25Zm2 3.813a.937.937 0 1 0 0-1.875.937.937 0 0 0 0 1.874Z"/></svg>