<svg xmlns="http://www.w3.org/2000/svg" width="24" height="24" viewBox="0 0 24 24"><path fill="#A9A9A9" fill-rule="evenodd" d="M4.308 17.32H2.2a.2.2 0 0 1-.201-.196v-1.392c0-.412.08-.582.401-.76.259-.143 2.247-1.173 3.063-1.514v-.71c-.25-.178-.655-.395-.655-.816V9.998c0-.968.602-1.761 1.806-1.761 1.204 0 1.806.793 1.806 1.761v1.934c0 .416-.398.633-.648.811v.715c.21.082.48.205.776.346a88.66 88.66 0 0 0-3.252 1.652c-.73.404-.99.904-.99 1.786v.078Zm15.384 0v-.078c0-.882-.259-1.382-.989-1.786a72.953 72.953 0 0 0-3.218-1.656c.29-.14.553-.26.748-.342v-.71c-.25-.178-.654-.395-.654-.816V9.998c0-.968.602-1.761 1.806-1.761 1.204 0 1.806.793 1.806 1.761v1.934c0 .416-.398.633-.649.811v.715c.866.341 2.798 1.37 3.057 1.514.321.178.401.348.401.76v1.392c0 .108-.09.196-.2.196h-2.108Zm-1.37-1.217c.481.267.601.52.601 1.139v1.012a.758.758 0 0 1-.77.746H5.847a.758.758 0 0 1-.77-.746v-1.012c0-.618.12-.872.603-1.14.387-.214 3.37-1.758 4.593-2.27v-1.066c-.375-.267-.981-.593-.981-1.224v-2.9C9.291 7.189 10.194 6 12 6s2.709 1.19 2.709 2.642v2.9c0 .625-.597.95-.973 1.218v1.071c1.3.513 4.198 2.057 4.585 2.272Z"/></svg>