<svg xmlns="http://www.w3.org/2000/svg" width="24" height="24" viewBox="0 0 24 24"><path fill="#A9A9A9" fill-rule="evenodd" d="M17 12c2.76 0 5 2.24 5 5s-2.24 5-5 5-5-2.24-5-5 2.24-5 5-5Zm-2-9 5.64 1.9c.21.07.36.25.36.48v7.149a6.002 6.002 0 0 0-1.749-1.092L19.25 6.23l-3.5-1.03v5.93a5.958 5.958 0 0 0-1.5.536V5.22l-4.5 1.427V18.53l1.351-.428a5.96 5.96 0 0 0 .712 1.915L9 21l-5.64-1.9a.504.504 0 0 1-.36-.48V3.5c0-.28.22-.5.5-.5l.16.03L9 5.1 15 3Zm2.5 13H16v1h.5v2H16v1h2v-1h-.5v-3ZM4.75 5.44v12.31l3.5 1.05V6.645L4.75 5.44ZM17.5 14h-1v1h1v-1Z"/></svg>