<svg xmlns="http://www.w3.org/2000/svg" width="24" height="24" viewBox="0 0 24 24"><path fill="#A9A9A9" fill-rule="evenodd" d="M12 8.364A3.635 3.635 0 0 1 15.636 12 3.635 3.635 0 0 1 12 15.636 3.635 3.635 0 0 1 8.364 12 3.635 3.635 0 0 1 12 8.364Zm.91-4.491a8.177 8.177 0 0 1 7.217 7.218h1.58c.17 0 .293.127.293.284v1.25a.29.29 0 0 1-.293.284h-1.58a8.177 8.177 0 0 1-7.218 7.218v1.58c0 .17-.127.293-.284.293h-1.25a.29.29 0 0 1-.284-.293v-1.58a8.177 8.177 0 0 1-7.218-7.218h-1.58A.283.283 0 0 1 2 12.625v-1.25a.29.29 0 0 1 .293-.284h1.58a8.177 8.177 0 0 1 7.218-7.218v-1.58c0-.17.127-.293.284-.293h1.25a.29.29 0 0 1 .284.293v1.58ZM12 18.363A6.359 6.359 0 0 0 18.364 12 6.359 6.359 0 0 0 12 5.636 6.359 6.359 0 0 0 5.636 12 6.359 6.359 0 0 0 12 18.364Z"/></svg>