<svg xmlns="http://www.w3.org/2000/svg" width="24" height="24" viewBox="0 0 24 24"><path fill="#A9A9A9" fill-rule="evenodd" d="M13.6 3.456c.62-.62 1.648-.606 2.285.03l4.629 4.63c.636.636.65 1.664.03 2.283L10.399 20.544c-.62.62-1.647.606-2.284-.03l-4.629-4.63c-.636-.636-.65-1.664-.03-2.283L13.601 3.456Zm5.61 5.61-4.452-4.453-1.127 1.128 2.955 2.955c.1.1.098.256.001.353l-.775.775a.252.252 0 0 1-.353-.001l-2.956-2.955-1.127 1.127 2.133 2.133a.25.25 0 0 1 .006.357l-.775.775a.255.255 0 0 1-.358-.005l-2.133-2.133-1.127 1.127 2.955 2.955c.1.1.099.257.002.354l-.775.775a.252.252 0 0 1-.354-.001l-2.955-2.956-1.127 1.127L9 14.636a.25.25 0 0 1 .005.358l-.775.775a.255.255 0 0 1-.358-.006L5.74 13.631l-1.128 1.127 4.63 4.629 9.967-9.969c.1-.1.098-.254 0-.352Z"/></svg>