<svg xmlns="http://www.w3.org/2000/svg" width="24" height="24" viewBox="0 0 24 24"><path fill="#A9A9A9" fill-rule="evenodd" d="M11.488 5.591c0-.23-.138-.291-.307-.139l-4 3.807a1.25 1.25 0 0 1-.719.277h-2.8a.415.415 0 0 0-.412.417v3.318c0 .23.185.417.412.417h2.854c.226 0 .546.13.71.287l3.963 3.806c.165.157.3.098.3-.13V5.59Zm9.763 9.004a.427.427 0 0 1 0 .599l-.886.897a.416.416 0 0 1-.592 0l-2.508-2.538-2.51 2.54a.414.414 0 0 1-.592 0l-.885-.898a.425.425 0 0 1 0-.598l2.509-2.542-2.511-2.542a.426.426 0 0 1 0-.6l.886-.897a.416.416 0 0 1 .591 0l2.512 2.542 2.51-2.54a.415.415 0 0 1 .592 0l.885.897a.427.427 0 0 1 0 .599l-2.509 2.541 2.508 2.54Z"/></svg>