<svg xmlns="http://www.w3.org/2000/svg" width="24" height="24" viewBox="0 0 24 24"><path fill="#A9A9A9" fill-rule="evenodd" d="M20.25 3a.75.75 0 0 1 .75.75L20.999 14h-2L19 5H5v9H3V3.75A.75.75 0 0 1 3.75 3h16.5ZM13.5 18H15v1.5h-1.5V18Zm4 1.5H19V21h-1.5v-1.5Zm-13 0H6V21H4.5v-1.5Zm4.5-.75h1.5v1.5H9v-1.5ZM6 16.5h1.5V18H6v-1.5Zm-3-.75h1.5v1.5H3v-1.5Zm13.5.75H18V18h-1.5v-1.5Zm3-.75H21v1.5h-1.5v-1.5Zm-9.75 0h1.5v1.5h-1.5v-1.5ZM9 9.5c-.006.654-.128 1.14-.564 1.32-.29.12-.77.18-1.436.18v2H6V8h.5c.72 0 1.596.019 1.957.3.362.282.549.546.543 1.2Zm-2 .683h.404A.55.55 0 0 0 7.84 10c.107-.122.161-.29.161-.505 0-.362-.168-.542-.504-.542H7v1.23Zm7 .211c0 .834-.216 1.477-.65 1.929-.432.451-1.041.677-1.825.677H10V8h1.63c.757 0 1.341.205 1.753.616.411.41.617 1.003.617 1.778Zm-1 .053c0-.491-.122-.855-.365-1.092-.243-.237-.612-.355-1.107-.355H11v3h.404c.55 0 .954-.128 1.21-.383.258-.255.386-.645.386-1.17ZM16 13h-1V8h3v1h-2v1h1.5v1H16v2Z"/></svg>