<svg xmlns="http://www.w3.org/2000/svg" width="24" height="24" viewBox="0 0 24 24"><path fill="#A9A9A9" fill-rule="evenodd" d="M16.702 2A7.997 7.997 0 0 1 21 9.095h-8L16.702 2Zm2.618 12.985c.72.64 1.18 1.57 1.18 2.61 0 1.93-1.57 3.5-3.5 3.5-1.76 0-3.22-1.3-3.46-3h-2.08c-.24 1.7-1.7 3-3.46 3-1.93 0-3.5-1.57-3.5-3.5 0-1.33.74-2.49 1.84-3.08-.108-.165-.867-.92-1.34-1.92-.533-1.127-.78-2.5-.78-2.5H2v-2h3.49L6.5 11l14.5.095c0 1.84-.63 2.54-1.68 3.89ZM8 19.095c.83 0 1.5-.67 1.5-1.5s-.67-1.5-1.5-1.5-1.5.67-1.5 1.5.67 1.5 1.5 1.5Zm9 0c.83 0 1.5-.67 1.5-1.5s-.67-1.5-1.5-1.5-1.5.67-1.5 1.5.67 1.5 1.5 1.5Z"/></svg>