<svg xmlns="http://www.w3.org/2000/svg" width="24" height="24" viewBox="0 0 24 24"><path fill="#A9A9A9" fill-rule="evenodd" d="m7.385 7.21.533-1.532c.14-.405.532-.678.971-.678h6.222c.44 0 .83.273.971.678l.533 1.533h4.36c.566 0 1.025.447 1.025.998v9.792c0 .552-.46.999-1.026.999H3.026A1.013 1.013 0 0 1 2 18.001V8.21c0-.551.46-.998 1.026-.998h4.359Zm10 1.474v1.474h2.307V8.684h-2.307ZM12 16.79c2.124 0 3.846-1.649 3.846-3.684 0-2.034-1.722-3.684-3.846-3.684s-3.846 1.65-3.846 3.684c0 2.035 1.722 3.684 3.846 3.684Zm0-1.473c-1.275 0-2.308-.99-2.308-2.21 0-1.222 1.033-2.211 2.308-2.211s2.308.99 2.308 2.21c0 1.221-1.033 2.21-2.308 2.21Z"/></svg>