<svg xmlns="http://www.w3.org/2000/svg" width="24" height="24" viewBox="0 0 24 24"><path fill="#A9A9A9" fill-rule="evenodd" d="M20.01 3a.99.99 0 0 1 .99.99V14h-2V5H5v9H3V3.99A.99.99 0 0 1 3.99 3h16.02Zm-4.681 9.178L17.383 14h-6.76l2.05-1.82a2 2 0 0 1 2.656-.002ZM13.5 18H15v1.5h-1.5V18Zm4 1.5H19V21h-1.5v-1.5Zm-13 0H6V21H4.5v-1.5Zm4.5-.75h1.5v1.5H9v-1.5ZM6 16.5h1.5V18H6v-1.5Zm-3-.75h1.5v1.5H3v-1.5Zm13.5.75H18V18h-1.5v-1.5Zm3-.75H21v1.5h-1.5v-1.5Zm-9.75 0h1.5v1.5h-1.5v-1.5ZM9 7c1.104 0 2 .898 2 2 0 1.102-.896 2-2 2s-2-.898-2-2c0-1.102.896-2 2-2Z"/></svg>