<svg xmlns="http://www.w3.org/2000/svg" width="24" height="24" viewBox="0 0 24 24"><path fill="#A9A9A9" fill-rule="evenodd" d="m21 13-2 .02V6.005H5V15h4.996v2H5c-1.105 0-2-.882-2-1.97V5.97C3 4.882 3.895 4 5 4h14c1.105 0 2 .882 2 1.971v7.03Zm-.522 6.033c.418.239.522.466.522 1.019v.686a.262.262 0 0 1-.26.262H9.26a.262.262 0 0 1-.26-.262v-.686c0-.553.104-.78.522-1.019.336-.192 2.92-1.573 3.98-2.03v-.953c-.325-.239-.85-.53-.85-1.095v-2.593c0-1.299.783-2.362 2.348-2.362s2.348 1.063 2.348 2.362v2.593c0 .56-.518.85-.843 1.09v.957c1.125.458 3.637 1.839 3.973 2.031ZM8 7h2v4H8V7Zm0 5h2v2H8v-2Z"/></svg>