<svg xmlns="http://www.w3.org/2000/svg" width="24" height="24" viewBox="0 0 24 24"><path fill="#A9A9A9" fill-rule="evenodd" d="M4.308 16.335H2.2a.2.2 0 0 1-.201-.196v-1.395c0-.412.08-.582.401-.76.259-.144 2.247-1.174 3.063-1.517v-.71c-.25-.179-.655-.396-.655-.818V9.003c0-.97.602-1.763 1.806-1.763 1.204 0 1.806.794 1.806 1.763v1.936c0 .418-.398.634-.648.813v.715c.21.083.48.206.776.347a88.617 88.617 0 0 0-3.252 1.654c-.73.405-.99.906-.99 1.789v.078Zm14.557-3.73-3.333 3.484-1.397-1.46a1.395 1.395 0 0 0-2.01-.01l-.655.686c-.514.537-.5 1.375.01 1.908l.769.804H5.846a.758.758 0 0 1-.77-.747v-1.013c0-.62.12-.874.603-1.141.387-.215 3.37-1.761 4.593-2.274v-1.067c-.375-.267-.981-.593-.981-1.226V7.645C9.291 6.191 10.194 5 12 5s2.709 1.19 2.709 2.645v2.904c0 .626-.597.951-.973 1.22v1.073c.249.098.555.233.891.39a31.44 31.44 0 0 1 1.606-.765v-.71c-.25-.179-.654-.396-.654-.818V9.003c0-.97.602-1.763 1.806-1.763 1.204 0 1.806.794 1.806 1.763v1.936c0 .418-.398.634-.649.813v.715c.096.038.205.085.323.137Zm-3.544 7.31a.535.535 0 0 1-.085-.072l-3.09-3.23a.514.514 0 0 1-.01-.708l.656-.685a.468.468 0 0 1 .677.01l2.063 2.155 4.964-5.189c.181-.189.48-.183.675.02l.681.712c.192.2.196.52.019.705l-5.96 6.23a.453.453 0 0 1-.59.052.492.492 0 0 1-.081-.069l-.344-.36.425.429Z"/></svg>