<svg xmlns="http://www.w3.org/2000/svg" width="24" height="24" viewBox="0 0 24 24"><path fill-rule="evenodd" d="M17 11a4.4 4.4 0 0 1 .285.011c.289.02.532.223.602.503l.2.8a.667.667 0 0 0 .393.455l.467.193c.195.08.417.064.598-.045l.665-.4a.667.667 0 0 1 .814.101l.358.358a.667.667 0 0 1 .1.814l-.4.665a.667.667 0 0 0-.044.598l.193.467c.081.196.25.341.455.392l.8.2c.25.063.437.262.49.509l.013.094c.007.112.011.207.011.285 0 .078-.004.173-.011.285a.667.667 0 0 1-.504.602l-.8.2a.667.667 0 0 0-.454.393l-.193.466a.667.667 0 0 0 .045.598l.4.665a.667.667 0 0 1-.1.815l-.358.357a.667.667 0 0 1-.814.1l-.666-.399a.667.667 0 0 0-.598-.044l-.467.193a.667.667 0 0 0-.392.455l-.2.8a.667.667 0 0 1-.509.49l-.094.013A4.4 4.4 0 0 1 17 23a4.4 4.4 0 0 1-.285-.011.667.667 0 0 1-.603-.503l-.2-.8a.667.667 0 0 0-.392-.455l-.467-.193a.667.667 0 0 0-.598.045l-.665.4a.667.667 0 0 1-.814-.101l-.358-.357a.667.667 0 0 1-.1-.815l.4-.665a.667.667 0 0 0 .044-.598l-.193-.467a.667.667 0 0 0-.454-.392l-.8-.2a.667.667 0 0 1-.504-.603A4.4 4.4 0 0 1 11 17a4.4 4.4 0 0 1 .011-.285.667.667 0 0 1 .504-.602l.8-.2a.667.667 0 0 0 .454-.393l.193-.467a.667.667 0 0 0-.044-.598l-.4-.665a.667.667 0 0 1 .1-.815l.358-.357a.667.667 0 0 1 .815-.1l.665.4a.667.667 0 0 0 .598.044l.466-.193a.666.666 0 0 0 .392-.455l.2-.8a.667.667 0 0 1 .603-.503A4.4 4.4 0 0 1 17 11Zm2-3a2 2 0 0 1 2 2l.001 1.256A7 7 0 0 0 10.673 14H8v5l2.29.001a6.95 6.95 0 0 0 .966 2L6 21v-5H3v-6a2 2 0 0 1 2-2h14Zm-2 6.901a2.099 2.099 0 1 0 0 4.198 2.099 2.099 0 0 0 0-4.198ZM6 10a1 1 0 1 0 0 2 1 1 0 0 0 0-2Zm12-7v4H6V3h12Z"/></svg>