<svg xmlns="http://www.w3.org/2000/svg" width="24" height="24" viewBox="0 0 24 24"><path fill="#A9A9A9" fill-rule="evenodd" d="M8.283 2c.511 0 .926.358.926.8v1.108a.592.592 0 0 1-.496.584l-.096.008c.77.386 1.904 1.746 2.243 3.22-1.94 1.048-3.26 3.131-3.26 5.53 0 2.43 1.356 4.537 3.336 5.571l-.025.735-.115 1.54c-.038.508-.527.904-1.117.904-.58 0-1.049-.406-1.049-.906V21c0 .552-.518 1-1.157 1-.64 0-1.158-.448-1.158-1v.094c0 .5-.47.906-1.049.906-.59 0-1.079-.396-1.117-.904l-.1-1.043A10.334 10.334 0 0 1 4 19.056V9.222C4 7.73 4.973 5.181 6.328 4.5a.592.592 0 0 1-.592-.592V2.8c0-.442.415-.8.926-.8h1.621Zm5.424 5.833C16.63 7.833 19 10.258 19 13.25s-2.37 5.417-5.293 5.417-5.292-2.425-5.292-5.417 2.37-5.417 5.292-5.417Zm.984 6.003c0-.164-.095-.219-.214-.12l-2.245 1.857a.22.22 0 0 0 0 .354l2.245 1.857c.118.098.214.045.214-.12v-1.063c.715-.118 2.31-.616 2.337-2.723-.387 1.037-1.604 1.127-2.337 1.13Zm-1.626-5.12c-.118-.098-.214-.045-.214.12v1.063c-.715.118-2.31.616-2.337 2.723.388-1.037 1.604-1.127 2.337-1.13v1.172c0 .164.095.219.214.12l2.246-1.857a.22.22 0 0 0 0-.354Z"/></svg>