<svg xmlns="http://www.w3.org/2000/svg" width="24" height="24" viewBox="0 0 24 24"><path fill="#A9A9A9" fill-rule="evenodd" d="M15 13a1 1 0 0 1 1 1v6a1 1 0 0 1-.883.993L15 21H3a1 1 0 0 1-1-1v-6a1 1 0 0 1 1-1h12Zm-1 1H4v1H3v4h1v1h10v-1h1v-4h-1v-1Zm3.395-11v4.002c0 .363.293.665.656.665H22V18.43c0 .314-.25.569-.561.569H17v-6a1 1 0 0 0-1-1H9.5V3.57c0-.315.25-.57.561-.57h7.334ZM9 15a2 2 0 1 1 0 4 2 2 0 0 1 0-4Zm0 1a1 1 0 1 0 0 2 1 1 0 0 0 0-2Zm9.261-13 3.114 3.653v.013h-2.812a.29.29 0 0 1-.221-.11h.001a.407.407 0 0 1-.093-.264V3h.011Z"/></svg>