<svg xmlns="http://www.w3.org/2000/svg" width="24" height="24" viewBox="0 0 24 24"><path fill="#A9A9A9" fill-rule="evenodd" d="m9.446 7.398-4.807 3.601c-.372.278-.37.725 0 1.002l4.807 3.601v.952c0 .433-.278.576-.626.316l-6.56-4.902c-.346-.259-.348-.676 0-.936l6.56-4.903c.345-.258.626-.118.626.317v.952Zm-2.152 3.634 6.122-4.903c.322-.258.584-.118.584.317v10.108c0 .433-.26.576-.584.316l-6.122-4.902c-.323-.259-.325-.676 0-.936ZM14 13.46l.004-4.284c1.558.117 7.9.975 7.996 7.266-1.346-3.051-5.904-2.998-8-2.982Z"/></svg>