<svg xmlns="http://www.w3.org/2000/svg" width="24" height="24" viewBox="0 0 24 24"><path fill="#A9A9A9" fill-rule="evenodd" d="M16 10c1.565 0 2.348 1.063 2.348 2.362v2.593c0 .56-.518.85-.843 1.089v.958c1.125.458 3.637 1.839 3.973 2.031.418.239.522.466.522 1.019v.686a.262.262 0 0 1-.26.262H10.26a.262.262 0 0 1-.26-.262v-.686c0-.553.104-.78.522-1.019.336-.192 2.92-1.573 3.98-2.03v-.953c-.325-.239-.85-.53-.85-1.095v-2.593c0-1.299.783-2.362 2.348-2.362ZM9 8.02c1.565 0 2.348 1.058 2.348 2.349v2.578c0 .555-.518.844-.843 1.082v.953c.689.279 1.897.9 2.808 1.386l.043.038a78.835 78.835 0 0 0-3.331 1.72c-.4.227-.666.493-.827.83H3.261a.262.262 0 0 1-.261-.26v-.683c0-.549.104-.775.522-1.012.336-.191 2.92-1.564 3.98-2.02v-.946c-.325-.237-.85-.527-.85-1.088v-2.578c0-1.291.783-2.348 2.348-2.348ZM19 2v4.97h-5l1.955-1.943A8 8 0 0 0 12 3.988c-4.418 0-8 3.561-8 7.954a7.89 7.89 0 0 0 .582 2.982H2.458A9.884 9.884 0 0 1 2 11.942C2 6.45 6.477 2 12 2c1.994 0 3.851.58 5.411 1.58L19 2Z"/></svg>