<svg xmlns="http://www.w3.org/2000/svg" width="24" height="24" viewBox="0 0 24 24"><path fill="#A9A9A9" fill-rule="evenodd" d="M10.848 4.385c-2.284.795-4.662 2.504-4.723 6.487l.001-.002-.001.093c0 2.482 2.065 4.5 4.604 4.5 2.403 0 4.38-1.806 4.587-4.103l2.288-1.596a6.562 6.562 0 0 1-.964 4.964l4.253 4.157a.35.35 0 0 1 0 .503l-1.542 1.508a.37.37 0 0 1-.516 0l-4.253-4.157a6.936 6.936 0 0 1-3.712 1.074C7.08 17.813 4 14.802 4 11.1c0-3.696 3.07-6.703 6.848-6.714ZM14.41 3.28c0-.274.195-.362.435-.2l4.558 3.087c.241.163.24.426 0 .589l-4.558 3.086c-.242.163-.435.073-.435-.2V7.695c-1.487.005-3.957.156-4.743 1.878.055-3.5 3.292-4.329 4.743-4.525V3.281Z"/></svg>