<svg xmlns="http://www.w3.org/2000/svg" width="24" height="24" viewBox="0 0 24 24"><path fill="#A9A9A9" fill-rule="evenodd" d="M14.01 12.895c-2.254.47-4.147 1.505-5.299 3.253H5.455a.757.757 0 0 1-.76-.754V14.37c0-.625.118-.882.594-1.152.383-.218 3.33-1.78 4.539-2.298V9.843c-.371-.27-.97-.6-.97-1.238V5.672c0-.735.223-1.403.67-1.887C9.972 3.301 10.642 3 11.534 3c1.784 0 2.676 1.203 2.676 2.672v2.933c0 .632-.59.961-.96 1.232v1.083c.215.087.474.204.76.338v1.637Zm2.18-2.827.01-.723c-.247-.18-.646-.4-.646-.826V6.564c0-.98.595-1.782 1.785-1.782s1.784.802 1.784 1.782v1.955c0 .422-.393.64-.64.821v.723c.855.345 2.764 1.386 3.02 1.531.317.18.396.352.396.768v1.409a.2.2 0 0 1-.199.198h-.278l-5.233-3.901Zm-13.992 3.9A.199.199 0 0 1 2 13.772v-1.409c0-.416.079-.588.397-.768.255-.145 2.22-1.186 3.025-1.531v-.718c-.247-.18-.646-.4-.646-.826V6.564c0-.98.595-1.782 1.784-1.782.64 0 1.107.232 1.403.598a4.407 4.407 0 0 0-.003.155v2.933c0 .222.035.42.103.604-.118.105-.252.19-.36.268v.723c.233.094.543.238.876.403-1.256.605-3.164 1.596-3.805 1.96-.647.367-.92.812-.97 1.543H2.199ZM15 10.898c0-.413.176-.47.505-.225l6.247 4.658c.332.247.33.643 0 .889l-6.247 4.658c-.332.247-.505.035-.505-.377V17.56c-2.038.008-5.515.311-6.593 2.911.076-5.284 4.604-6.61 6.593-6.905v-2.668Z"/></svg>