<svg xmlns="http://www.w3.org/2000/svg" width="24" height="24" viewBox="0 0 24 24"><path fill="#A9A9A9" fill-rule="evenodd" d="M12 2c5.523 0 10 4.477 10 10a9.98 9.98 0 0 1-.458 3h-2.124a8 8 0 1 0-3.463 3.955L14 17h5v5l-1.589-1.589A9.953 9.953 0 0 1 12 22C6.477 22 2 17.523 2 12S6.477 2 12 2Zm0 4.682c1.264 0 1.896.859 1.896 1.908v2.095c0 .45-.418.686-.68.879v.774c.909.37 2.938 1.485 3.209 1.64.337.193.421.376.421.823v.73c0 .298-.24.469-.538.469H7.692c-.297 0-.538-.17-.538-.468V14.8c0-.447.084-.63.421-.823.271-.155 2.36-1.27 3.216-1.64v-.77c-.263-.192-.687-.428-.687-.883V8.59c0-1.049.632-1.908 1.896-1.908Zm3.77 1.616c.842 0 1.263.572 1.263 1.272v1.396c0 .3-.278.457-.453.586v.516c.348.142.944.448 1.421.702L18 14.998h-.615v-.197c0-.637-.182-.998-.693-1.29a50.506 50.506 0 0 0-2.253-1.196c.203-.1.387-.188.524-.247v-.513c-.175-.128-.458-.285-.458-.59V9.57c0-.7.421-1.272 1.264-1.272Zm-7.54 0c.844 0 1.265.572 1.265 1.272v1.396c0 .3-.279.457-.454.586v.516c.147.06.337.148.543.25-.85.424-1.889.97-2.276 1.193-.511.292-.693.653-.693 1.29v.197H6v-2.222a26.833 26.833 0 0 1 1.425-.708v-.513c-.176-.128-.458-.285-.458-.59V9.57c0-.7.421-1.272 1.264-1.272Z"/></svg>