<svg xmlns="http://www.w3.org/2000/svg" width="24" height="24" viewBox="0 0 24 24"><path fill="#A9A9A9" fill-rule="evenodd" d="M13.714 2c.257 0 .515.25.515.5V3c0 .25-.258.5-.515.5h-.428v.833c1.543.167 2.914.834 4.2 1.667l.685-.667c.172-.166.6-.166.772 0l.6.667c.171.25.171.583 0 .75l-.686.667c1.372 1.5 2.143 3.5 2.143 5.666C21 18 16.971 22 12 22s-9-4-9-8.917c0-4.416 3.429-8.166 7.714-8.833v-.833h-.428c-.257 0-.515-.25-.515-.5V2.5c0-.25.172-.5.515-.5ZM12 6.417c-3.771 0-6.771 3-6.771 6.666 0 3.667 3.085 6.667 6.771 6.667s6.771-2.917 6.771-6.667c0-3.666-3-6.666-6.771-6.666Zm3.095 2.678 1.06 1.06-2.665 2.667a1.5 1.5 0 1 1-.915-1.208l2.52-2.52Z"/></svg>