<svg xmlns="http://www.w3.org/2000/svg" width="24" height="24" viewBox="0 0 24 24"><path fill="#A9A9A9" fill-rule="evenodd" d="M16 3h-3.152a.953.953 0 0 1-.59-.242l-.516-.516A.928.928 0 0 0 11.156 2H6.844a.946.946 0 0 0-.586.242l-.516.516a.944.944 0 0 1-.59.242H2v2h14V3Zm.25 9.77 5.53 4.17c.294.22.292.576 0 .796l-5.53 4.17c-.293.22-.447.03-.447-.338v-2.633c-1.804.007-4.881.279-5.836 2.607.067-4.731 4.076-5.918 5.836-6.183v-2.388c0-.37.156-.421.447-.201ZM15 6.5v4.058c-.3-.03-.612-.048-.939-.055h-.01a.3.3 0 0 0-.296.305l.048 2.953c-2.898.877-5.15 2.867-5.705 6.24L5 20c-1.1 0-2-.868-2-1.929V6.5h12Z"/></svg>