<svg xmlns="http://www.w3.org/2000/svg" width="24" height="24" viewBox="0 0 24 24"><path fill="#A9A9A9" fill-rule="evenodd" d="M16 10.029V7.558c0-2.046-1.79-3.705-4-3.705-2.015 0-3.681 1.364-3.96 3.165H6.028C6.316 4.19 8.88 2 12 2c3.314 0 6 2.489 6 5.558v2.47h.667c.736 0 1.333.6 1.333 1.339v9.295C20 21.4 19.403 22 18.667 22H5.333C4.597 22 4 21.4 4 20.662v-9.295c0-.74.597-1.338 1.333-1.338H16Zm-6 4.863c0 .686.402 1.285 1 1.605v2.564h2v-2.564c.598-.32 1-.919 1-1.605 0-1.023-.895-1.852-2-1.852s-2 .83-2 1.852Z"/></svg>