<svg xmlns="http://www.w3.org/2000/svg" width="24" height="24" viewBox="0 0 24 24"><path fill="#A9A9A9" fill-rule="evenodd" d="M8.386 3c2.5 0 3.751 1.643 3.751 3.65v4.008c0 .864-.826 1.313-1.347 1.683v1.48c.553.218 1.62.643 3.201 1.275.61.244 1.009.834 1.009 1.49V21H2v-4.32c0-.58.337-1.111.872-1.376 1.555-.768 2.596-1.262 3.122-1.483V12.35c-.52-.368-1.358-.818-1.358-1.69V6.65c0-2.007 1.25-3.65 3.75-3.65Zm12.948 6.85c.368 0 .666.313.666.704v.347c0 .39-.303.705-.666.705h-6.168c-.368 0-.666-.314-.666-.705v-.347c0-.39.303-.705.666-.705h6.168Z"/></svg>