<svg xmlns="http://www.w3.org/2000/svg" width="24" height="24" viewBox="0 0 24 24"><path fill="#A9A9A9" fill-rule="evenodd" d="M12 2c5.52 0 10 4.48 10 10s-4.48 10-10 10S2 17.52 2 12 6.48 2 12 2Zm0 2c-4.415 0-8 3.585-8 8 0 2.027.755 3.879 2 5.289v-.238c0-.552.104-.78.522-1.018.336-.192 2.92-1.573 3.98-2.031v-.953c-.325-.238-.85-.53-.85-1.094V9.362C9.652 8.063 10.435 7 12 7s2.348 1.063 2.348 2.362v2.593c0 .559-.518.85-.843 1.089v.958c1.125.458 3.637 1.839 3.973 2.03.418.24.522.467.522 1.02l.001.236A7.969 7.969 0 0 0 20 12c0-4.415-3.585-8-8-8Z"/></svg>