<svg xmlns="http://www.w3.org/2000/svg" width="17" height="16" fill="none"><path fill="url(#a)" d="M14.543 11.915c-.901.46-1.898.697-2.909.694-2.961 0-5.531-2.036-5.531-4.65A1.974 1.974 0 0 1 7.126 6.25c-2.668.116-3.362 2.908-3.362 4.535 0 4.624 4.26 5.095 5.176 5.095.489 0 1.245-.142 1.69-.284l.08-.027a8.022 8.022 0 0 0 4.162-3.308.25.25 0 0 0-.33-.347Z"/><path fill="url(#b)" d="M14.543 11.915c-.901.46-1.898.697-2.909.694-2.961 0-5.531-2.036-5.531-4.65A1.974 1.974 0 0 1 7.126 6.25c-2.668.116-3.362 2.908-3.362 4.535 0 4.624 4.26 5.095 5.176 5.095.489 0 1.245-.142 1.69-.284l.08-.027a8.022 8.022 0 0 0 4.162-3.308.25.25 0 0 0-.33-.347Z" opacity=".35"/><path fill="url(#c)" d="M6.699 15.09a5.052 5.052 0 0 1 .427-8.839c.195-.089.533-.249.978-.249a2.028 2.028 0 0 1 2 1.983c0-.009 1.53-4.98-5.006-4.98A5.247 5.247 0 0 0 .1 7.897a8.002 8.002 0 0 0 10.538 7.692 4.713 4.713 0 0 1-3.93-.498h-.01Z"/><path fill="url(#d)" d="M6.699 15.09a5.052 5.052 0 0 1 .427-8.839c.195-.089.533-.249.978-.249a2.028 2.028 0 0 1 2 1.983c0-.009 1.53-4.98-5.006-4.98A5.247 5.247 0 0 0 .1 7.897a8.002 8.002 0 0 0 10.538 7.692 4.713 4.713 0 0 1-3.93-.498h-.01Z" opacity=".41"/><path fill="url(#e)" d="M9.616 9.31c-.054.062-.205.151-.205.356 0 .15.107.32.294.444.889.623 2.588.534 2.597.534a3.842 3.842 0 0 0 3.797-3.824c.018-1.396-.498-2.33-.712-2.739C14.063 1.485 11.217 0 8.104 0A8.004 8.004 0 0 0 .1 7.896c.036-2.285 2.303-4.135 4.998-4.135.222 0 1.476.027 2.632.623a4.535 4.535 0 0 1 1.921 1.84c.383.659.445 1.512.445 1.841 0 .338-.16.836-.48 1.245Z"/><path fill="url(#f)" d="M9.616 9.31c-.054.062-.205.151-.205.356 0 .15.107.32.294.444.889.623 2.588.534 2.597.534a3.842 3.842 0 0 0 3.797-3.824c.018-1.396-.498-2.33-.712-2.739C14.063 1.485 11.217 0 8.104 0A8.004 8.004 0 0 0 .1 7.896c.036-2.285 2.303-4.135 4.998-4.135.222 0 1.476.027 2.632.623a4.535 4.535 0 0 1 1.921 1.84c.383.659.445 1.512.445 1.841 0 .338-.16.836-.48 1.245Z"/><defs><radialGradient id="b" cx="0" cy="0" r="1" gradientTransform="matrix(5.96522 0 0 5.66888 9.918 11.16)" gradientUnits="userSpaceOnUse"><stop offset=".7" stop-opacity="0"/><stop offset=".9" stop-opacity=".5"/><stop offset="1"/></radialGradient><radialGradient id="d" cx="0" cy="0" r="1" gradientTransform="rotate(-81.389 9.48 3.607) scale(8.96873 7.24346)" gradientUnits="userSpaceOnUse"><stop offset=".8" stop-opacity="0"/><stop offset=".9" stop-opacity=".5"/><stop offset="1"/></radialGradient><radialGradient id="e" cx="0" cy="0" r="1" gradientTransform="matrix(-.50625 12.66008 -26.95416 -1.07783 1.71 2.961)" gradientUnits="userSpaceOnUse"><stop stop-color="#35C1F1"/><stop offset=".1" stop-color="#34C1ED"/><stop offset=".2" stop-color="#2FC2DF"/><stop offset=".3" stop-color="#2BC3D2"/><stop offset=".7" stop-color="#36C752"/></radialGradient><radialGradient id="f" cx="0" cy="0" r="1" gradientTransform="rotate(73.748 4.328 12.485) scale(6.08593 4.94767)" gradientUnits="userSpaceOnUse"><stop stop-color="#66EB6E"/><stop offset="1" stop-color="#66EB6E" stop-opacity="0"/></radialGradient><linearGradient id="a" x1="3.764" x2="14.916" y1="11.071" y2="11.071" gradientUnits="userSpaceOnUse"><stop stop-color="#0C59A4"/><stop offset="1" stop-color="#114A8B"/></linearGradient><linearGradient id="c" x1="9.642" x2="2.68" y1="6.233" y2="13.819" gradientUnits="userSpaceOnUse"><stop stop-color="#1B9DE2"/><stop offset=".2" stop-color="#1595DF"/><stop offset=".7" stop-color="#0680D7"/><stop offset="1" stop-color="#0078D4"/></linearGradient></defs></svg>