<svg xmlns="http://www.w3.org/2000/svg" width="16" height="16" fill="none"><path fill="url(#a)" d="M14.958 5.386a4.36 4.36 0 0 0-1.555-1.969c.38.745.645 1.539.786 2.358v.016C13.312 3.6 11.823 2.714 10.607.794c-.096-.149-.187-.3-.273-.455a1.409 1.409 0 0 1-.124-.33h-.034a5.667 5.667 0 0 0-2.672 4.318 3.889 3.889 0 0 0-2.135.827 2.318 2.318 0 0 0-.206-.157 3.599 3.599 0 0 1-.017-1.903 5.758 5.758 0 0 0-1.87 1.456c-.314-.388-.29-1.68-.273-1.944a1.165 1.165 0 0 0-.264.14 6.784 6.784 0 0 0-1.49 1.523A6.561 6.561 0 0 0 .215 6.62l-.016.05-.075.488v.016A7.783 7.783 0 0 0 0 8.25v.033a7.777 7.777 0 0 0 15.43 1.324l.033-.307a7.967 7.967 0 0 0-.505-3.905v-.008Z"/><path fill="url(#b)" d="M14.958 5.386a4.36 4.36 0 0 0-1.555-1.97c.38.746.645 1.54.786 2.359v.016a7.033 7.033 0 0 1-.248 5.246 6.677 6.677 0 0 1-6.412 3.772A7.827 7.827 0 0 1 .066 8.465c-.107-.563 0-.844.058-1.3A5.792 5.792 0 0 0 0 8.24v.033a7.777 7.777 0 0 0 15.43 1.324l.033-.306a8.06 8.06 0 0 0-.496-3.905h-.009Z"/><path fill="url(#c)" d="M14.958 5.386a4.36 4.36 0 0 0-1.555-1.97c.38.746.645 1.54.786 2.359v.016a7.033 7.033 0 0 1-.248 5.246 6.677 6.677 0 0 1-6.412 3.772A7.827 7.827 0 0 1 .066 8.465c-.107-.563 0-.844.058-1.3A5.792 5.792 0 0 0 0 8.24v.033a7.777 7.777 0 0 0 15.43 1.324l.033-.306a8.06 8.06 0 0 0-.496-3.905h-.009Z"/><path fill="url(#d)" d="m11.177 6.296.05.041a4.192 4.192 0 0 0-.72-.943C8.091 2.978 9.88.157 10.177.017V0a5.668 5.668 0 0 0-2.673 4.319l.273-.017a3.922 3.922 0 0 1 3.4 1.986v.008Z"/><path fill="url(#e)" d="M7.777 6.784c-.008.19-.695.86-.935.86-2.209 0-2.565 1.333-2.565 1.333a3.276 3.276 0 0 0 2.193 2.697 3.47 3.47 0 0 0 1.01.198c3.871.182 4.624-4.633 1.82-6.03a2.739 2.739 0 0 1 1.877.454 3.921 3.921 0 0 0-3.4-1.986c-.091 0-.182 0-.273.017a3.888 3.888 0 0 0-2.143.827c.124.091.248.232.538.505.53.521 1.878 1.059 1.878 1.125Z"/><path fill="url(#f)" d="M7.777 6.784c-.008.19-.695.86-.935.86-2.209 0-2.565 1.333-2.565 1.333a3.276 3.276 0 0 0 2.193 2.697 3.47 3.47 0 0 0 1.01.198c3.871.182 4.624-4.633 1.82-6.03a2.739 2.739 0 0 1 1.877.454 3.921 3.921 0 0 0-3.4-1.986c-.091 0-.182 0-.273.017a3.888 3.888 0 0 0-2.143.827c.124.091.248.232.538.505.53.521 1.878 1.059 1.878 1.125Z"/><path fill="url(#g)" d="m5.005 4.89.158.107a3.599 3.599 0 0 1-.025-1.903A5.75 5.75 0 0 0 3.276 4.55c.042 0 1.167-.016 1.738.348l-.009-.008Z"/><path fill="url(#h)" d="M.066 8.464a7.819 7.819 0 0 0 7.463 6.345 6.685 6.685 0 0 0 6.412-3.772c.757-1.651.846-3.53.248-5.246.273 1.804-.637 3.541-2.068 4.725l-.009.008c-2.788 2.275-5.46 1.373-5.998 1.001l-.116-.05c-1.621-.777-2.291-2.258-2.15-3.532A1.994 1.994 0 0 1 2.01 6.784a2.929 2.929 0 0 1 2.855-.116 3.88 3.88 0 0 0 2.92.116c0-.066-1.357-.604-1.886-1.117a10.893 10.893 0 0 0-.53-.513 2.317 2.317 0 0 0-.364-.256 3.822 3.822 0 0 0-1.737-.348c-.306-.397-.281-1.68-.265-1.952a1.623 1.623 0 0 0-.264.14 6.784 6.784 0 0 0-1.49 1.523A6.56 6.56 0 0 0 .207 6.61c0 .016-.273 1.224-.14 1.853Z"/><path fill="url(#i)" d="M10.507 5.394c.282.273.53.596.72.944l.116.09c1.762 1.63.844 3.922.77 4.088 1.43-1.184 2.349-2.93 2.068-4.725-.877-2.192-2.366-3.077-3.583-4.997a9.484 9.484 0 0 1-.264-.463 1.414 1.414 0 0 1-.124-.323h-.034c-.297.14-2.085 2.97.331 5.378v.008Z"/><path fill="url(#j)" d="M11.343 6.428a1.643 1.643 0 0 0-.116-.09l-.05-.034a2.68 2.68 0 0 0-1.87-.455c2.797 1.39 2.044 6.205-1.828 6.023a3.46 3.46 0 0 1-1.24-.29l-.133-.057h.008c.538.372 3.21 1.274 5.998-1.001v-.008c.075-.166.993-2.458-.77-4.088Z"/><path fill="url(#k)" d="M4.277 8.977s.356-1.332 2.565-1.332c.248 0 .927-.67.935-.86-.949.341-1.994.3-2.912-.117a2.929 2.929 0 0 0-2.855.116 1.994 1.994 0 0 0 1.837 1.159c-.14 1.265.53 2.746 2.151 3.524l.108.05a3.277 3.277 0 0 1-1.82-2.54h-.009Z"/><path fill="url(#l)" d="M14.958 5.386a4.36 4.36 0 0 0-1.555-1.969c.38.745.645 1.539.786 2.358v.016C13.312 3.6 11.823 2.714 10.607.794c-.096-.149-.187-.3-.273-.455a1.409 1.409 0 0 1-.124-.33h-.034a5.667 5.667 0 0 0-2.672 4.318l.273-.016a3.922 3.922 0 0 1 3.409 1.985 2.68 2.68 0 0 0-1.878-.455c2.796 1.407 2.043 6.214-1.82 6.04a3.458 3.458 0 0 1-1.242-.298l-.132-.058a3.285 3.285 0 0 1-1.837-2.548s.364-1.332 2.565-1.332c.248 0 .927-.662.943-.86 0-.067-1.357-.605-1.886-1.126-.281-.273-.414-.414-.53-.505a2.318 2.318 0 0 0-.206-.157 3.599 3.599 0 0 1-.017-1.903 5.75 5.75 0 0 0-1.87 1.456c-.314-.388-.29-1.67-.273-1.944-.09.042-.182.083-.264.14a6.784 6.784 0 0 0-1.49 1.523A6.561 6.561 0 0 0 .215 6.62l-.008.05C.107 7.187.037 7.712 0 8.24v.042a7.777 7.777 0 0 0 15.43 1.324l.033-.307a7.967 7.967 0 0 0-.505-3.905v-.008Z"/><defs><radialGradient id="b" cx="0" cy="0" r="1" gradientTransform="translate(13.428 1.812) scale(16.1994)" gradientUnits="userSpaceOnUse"><stop offset=".13" stop-color="#FFBD4F"/><stop offset=".19" stop-color="#FFAC31"/><stop offset=".25" stop-color="#FF9D17"/><stop offset=".28" stop-color="#FF980E"/><stop offset=".4" stop-color="#FF563B"/><stop offset=".47" stop-color="#FF3750"/><stop offset=".71" stop-color="#F5156C"/><stop offset=".78" stop-color="#EB0878"/><stop offset=".86" stop-color="#E50080"/></radialGradient><radialGradient id="c" cx="0" cy="0" r="1" gradientTransform="translate(7.413 8.43) scale(16.1994)" gradientUnits="userSpaceOnUse"><stop offset=".3" stop-color="#960E18"/><stop offset=".35" stop-color="#B11927" stop-opacity=".74"/><stop offset=".43" stop-color="#DB293D" stop-opacity=".34"/><stop offset=".5" stop-color="#F5334B" stop-opacity=".09"/><stop offset=".53" stop-color="#FF3750" stop-opacity="0"/></radialGradient><radialGradient id="d" cx="0" cy="0" r="1" gradientTransform="translate(9.423 -1.795) scale(11.7351)" gradientUnits="userSpaceOnUse"><stop offset=".13" stop-color="#FFF44F"/><stop offset=".25" stop-color="#FFDC3E"/><stop offset=".51" stop-color="#FF9D12"/><stop offset=".53" stop-color="#FF980E"/></radialGradient><radialGradient id="e" cx="0" cy="0" r="1" gradientTransform="translate(5.61 12.642) scale(7.71335)" gradientUnits="userSpaceOnUse"><stop offset=".35" stop-color="#3A8EE6"/><stop offset=".47" stop-color="#5C79F0"/><stop offset=".67" stop-color="#9059FF"/><stop offset="1" stop-color="#C139E6"/></radialGradient><radialGradient id="f" cx="0" cy="0" r="1" gradientTransform="rotate(-13.59 33.63 -30.886) scale(4.09007 4.78845)" gradientUnits="userSpaceOnUse"><stop offset=".21" stop-color="#9059FF" stop-opacity="0"/><stop offset=".28" stop-color="#8C4FF3" stop-opacity=".06"/><stop offset=".75" stop-color="#7716A8" stop-opacity=".45"/><stop offset=".97" stop-color="#6E008B" stop-opacity=".6"/></radialGradient><radialGradient id="g" cx="0" cy="0" r="1" gradientTransform="translate(7.214 1.208) scale(5.54984)" gradientUnits="userSpaceOnUse"><stop stop-color="#FFE226"/><stop offset=".12" stop-color="#FFDB27"/><stop offset=".29" stop-color="#FFC82A"/><stop offset=".5" stop-color="#FFA930"/><stop offset=".73" stop-color="#FF7E37"/><stop offset=".79" stop-color="#FF7139"/></radialGradient><radialGradient id="h" cx="0" cy="0" r="1" gradientTransform="translate(11.633 -2.4) scale(23.6778)" gradientUnits="userSpaceOnUse"><stop offset=".11" stop-color="#FFF44F"/><stop offset=".46" stop-color="#FF980E"/><stop offset=".62" stop-color="#FF5634"/><stop offset=".72" stop-color="#FF3647"/><stop offset=".9" stop-color="#E31587"/></radialGradient><radialGradient id="i" cx="0" cy="0" r="1" gradientTransform="matrix(1.81977 17.25601 -11.325 1.1943 9.65 -1.081)" gradientUnits="userSpaceOnUse"><stop stop-color="#FFF44F"/><stop offset=".06" stop-color="#FFE847"/><stop offset=".17" stop-color="#FFC830"/><stop offset=".3" stop-color="#FF980E"/><stop offset=".36" stop-color="#FF8B16"/><stop offset=".46" stop-color="#FF672A"/><stop offset=".57" stop-color="#FF3647"/><stop offset=".74" stop-color="#E31587"/></radialGradient><radialGradient id="j" cx="0" cy="0" r="1" gradientTransform="translate(7.214 3.218) scale(14.7805)" gradientUnits="userSpaceOnUse"><stop offset=".14" stop-color="#FFF44F"/><stop offset=".48" stop-color="#FF980E"/><stop offset=".59" stop-color="#FF5634"/><stop offset=".66" stop-color="#FF3647"/><stop offset=".9" stop-color="#E31587"/></radialGradient><radialGradient id="k" cx="0" cy="0" r="1" gradientTransform="translate(11.028 4.02) scale(16.1779)" gradientUnits="userSpaceOnUse"><stop offset=".09" stop-color="#FFF44F"/><stop offset=".23" stop-color="#FFE141"/><stop offset=".51" stop-color="#FFAF1E"/><stop offset=".63" stop-color="#FF980E"/></radialGradient><linearGradient id="a" x1="13.932" x2="1.026" y1="2.49" y2="14.934" gradientUnits="userSpaceOnUse"><stop offset=".05" stop-color="#FFF44F"/><stop offset=".11" stop-color="#FFE847"/><stop offset=".23" stop-color="#FFC830"/><stop offset=".37" stop-color="#FF980E"/><stop offset=".4" stop-color="#FF8B16"/><stop offset=".46" stop-color="#FF672A"/><stop offset=".53" stop-color="#FF3647"/><stop offset=".7" stop-color="#E31587"/></linearGradient><linearGradient id="l" x1="13.775" x2="2.796" y1="2.424" y2="13.403" gradientUnits="userSpaceOnUse"><stop offset=".17" stop-color="#FFF44F" stop-opacity=".8"/><stop offset=".27" stop-color="#FFF44F" stop-opacity=".63"/><stop offset=".49" stop-color="#FFF44F" stop-opacity=".22"/><stop offset=".6" stop-color="#FFF44F" stop-opacity="0"/></linearGradient></defs></svg>