<svg xmlns="http://www.w3.org/2000/svg" viewBox="0 0 32 32" xml:space="preserve" enable-background="new 0 0 32 32">
    <path d="m27.141 10.116-5.125-5.218A3.019 3.019 0 0 0 19.875 4H4v24h24V12.218a2.99 2.99 0 0 0-.859-2.102zM10 6h7v1.425a.576.576 0 0 1-.574.575h-5.852A.575.575 0 0 1 10 7.426V6zm16 20H6V6h2v1.426A2.577 2.577 0 0 0 10.574 10h5.852A2.578 2.578 0 0 0 19 7.425V6h.875c.267 0 .526.109.713.299l5.125 5.218a.996.996 0 0 1 .287.701V26z"/>
    <path d="M16 12c-2.206 0-4 1.794-4 4s1.794 4 4 4 4-1.794 4-4-1.794-4-4-4zm0 6c-1.103 0-2-.897-2-2s.897-2 2-2 2 .897 2 2-.897 2-2 2zM8 22h7v2H8z"/>
</svg>
