<svg xmlns="http://www.w3.org/2000/svg" viewBox="0 0 32 32" xml:space="preserve" enable-background="new 0 0 32 32">
    <circle cx="10" cy="14" r="2"/>
    <path d="M27 4H9C7.346 4 6 5.346 6 7v1H5a3 3 0 0 0-3 3v14a3 3 0 0 0 3 3h18a3 3 0 0 0 3-3v-2h1c1.654 0 3-1.346 3-3V7c0-1.654-1.346-3-3-3zM5 10h18c.551 0 1 .449 1 1v7.586l-6-6-7.5 7.5-3.476-3.476L4 19.427V11c0-.551.449-1 1-1zm18 16H5c-.551 0-1-.449-1-1v-2.84l2.976-2.77 4.317 4.317 1.414-1.414-.793-.793L18 15.414l6 6V25c0 .551-.449 1-1 1zm5-6a1 1 0 0 1-1 1h-1V11a3 3 0 0 0-3-3H8V7c0-.551.448-1 1-1h18c.552 0 1 .449 1 1v13z"/>
</svg>
