<svg xmlns="http://www.w3.org/2000/svg" viewBox="0 0 32 32" xml:space="preserve" enable-background="new 0 0 32 32">
    <path d="m27.271 9.68-4.949-4.95a2.504 2.504 0 0 0-3.536 0l-.707.707a2.496 2.496 0 0 0-.379 3.03l-4.428 2.808a2.994 2.994 0 0 0-4.031.173l-2.828 2.828 4.95 4.95-7.071 7.07 1.414 1.414 7.071-7.07 4.949 4.949 2.828-2.828c.566-.566.879-1.32.879-2.121 0-.538-.152-1.048-.415-1.5l2.941-4.64c.266.094.547.152.838.152.669 0 1.297-.259 1.768-.73l.707-.707c.472-.471.73-1.099.73-1.768 0-.668-.259-1.296-.731-1.767zM19.14 21.348l-1.414 1.414-8.486-8.486 1.414-1.414a1.003 1.003 0 0 1 1.414-.001l1.375 1.374 5.697 5.699a1.001 1.001 0 0 1 0 1.414zm.49-3.753-3.566-3.566-1.319-1.32 4.328-2.743 1.583 1.583 1.718 1.718-2.744 4.328zm6.227-5.793-.707.707a.508.508 0 0 1-.706.001l-4.952-4.952a.508.508 0 0 1 .001-.706l.707-.707a.5.5 0 0 1 .354-.144.5.5 0 0 1 .354.144l4.949 4.95a.5.5 0 0 1 0 .707z"/>
</svg>
