<svg xmlns="http://www.w3.org/2000/svg" fill="none" viewBox="0 0 24 24"><path fill="#FFDA44" d="M6.783 22.81A11.95 11.95 0 0 0 12 24c1.87 0 3.64-.428 5.217-1.19L18.261 12 17.217 1.19A11.95 11.95 0 0 0 12 0c-1.87 0-3.64.428-5.217 1.19L5.739 12z"/><path fill="#D80027" d="M17.217 22.809A12 12 0 0 0 24 12a12 12 0 0 0-6.783-10.809z"/><path fill="#0052B4" d="M6.783 22.809V1.19A12 12 0 0 0 0 12a12 12 0 0 0 6.783 10.809"/><path fill="#D80027" d="M12 16.174V12h3.13v1.565c0 .272-.521 1.269-1.81 2.087-.487.31-.992.41-1.32.522M8.87 8.87H12V12H8.87z"/><path fill="#FF9811" d="M13.565 7.826A1.043 1.043 0 0 0 12 6.923a1.043 1.043 0 0 0-1.565.903H7.826v5.217c0 1.943 1.543 3.066 2.752 3.648A1.044 1.044 0 0 0 12 18.12a1.044 1.044 0 0 0 1.422-1.429c1.21-.582 2.752-1.705 2.752-3.648V7.826zm1.044 5.217c0 .272 0 1.1-1.288 1.918a6.4 6.4 0 0 1-1.321.624 6.3 6.3 0 0 1-1.32-.624c-1.289-.818-1.289-1.646-1.289-1.918V9.391h5.218z"/></svg>