<svg xmlns="http://www.w3.org/2000/svg" fill="none" viewBox="0 0 24 24"><path fill="#d80027" d="M17.218 1.19A11.95 11.95 0 0 0 12 0c-1.87 0-3.64.428-5.217 1.19L5.739 12l1.044 10.81A11.95 11.95 0 0 0 12 24c1.87 0 3.64-.428 5.218-1.19L18.26 12z"/><path fill="#000" d="M6.783 1.191A12 12 0 0 0 0 12a12 12 0 0 0 6.783 10.809z"/><path fill="#496e2d" d="M17.217 1.191V22.81A12 12 0 0 0 24 12a12 12 0 0 0-6.783-10.809"/><path fill="#ffda44" d="M12 7.826a4.174 4.174 0 1 0 0 8.348 4.174 4.174 0 0 0 0-8.348m0 6.783a2.609 2.609 0 1 1 0-5.218 2.609 2.609 0 0 1 0 5.218"/><path fill="#ffda44" d="M12 10.435c-.576 0-1.043.467-1.043 1.043v1.566h2.086v-1.566c0-.576-.467-1.043-1.043-1.043"/></svg>