<svg xmlns="http://www.w3.org/2000/svg" fill="none" viewBox="0 0 24 24"><path fill="#0052B4" d="M24 12c0 6.627-5.373 12-12 12S0 18.627 0 12C0 12.003 12 .001 12 0c6.627 0 12 5.373 12 12"/><path fill="#F0F0F0" d="M11.968 12H12v-.032z"/><path fill="#F0F0F0" d="M12 6.26V0h-.002C5.371.001 0 5.373 0 12h6.26V8.474L9.787 12h2.182l.032-.032V9.786L8.474 6.261z"/><path fill="#D80027" d="M6.071 1.565a12.06 12.06 0 0 0-4.506 4.506V12h3.13V4.696H12v-3.13z"/><path fill="#D80027" d="M12 10.524 7.736 6.261H6.261L12 12z"/><path fill="#F3F3F3" d="M20.294 13.757A2.93 2.93 0 0 0 20.869 12V6.783a2.604 2.604 0 0 1-3.652-.522 2.605 2.605 0 0 1-3.652.522V12c0 .702.23 1.282.576 1.757z"/><path fill="#FF9811" d="M19.209 11.032c.166-.405.295-.998.295-1.292 0-.474-.618-.858-.618-.858s-.617.384-.617.858c0 .294.13.887.295 1.292l-.356.805a1.8 1.8 0 0 0 1.357 0zm-2.414-2.606c-.434.059-1.012.243-1.267.39-.41.237-.434.964-.434.964s.642.343 1.052.106c.255-.147.703-.555.971-.902l.876-.094a1.8 1.8 0 0 0-.68-1.175zm-1.05 3.394c.268.346.716.754.972.901.41.237 1.051-.106 1.051-.106s-.024-.727-.434-.963c-.255-.148-.833-.332-1.267-.39l-.519-.712a1.8 1.8 0 0 0-.678 1.176z"/><path fill="#338AF3" d="M14.012 13.565c.974 1.564 3.206 2.087 3.206 2.087s2.23-.523 3.205-2.087z"/></svg>