<svg xmlns="http://www.w3.org/2000/svg" fill="none" viewBox="0 0 24 24"><path fill="#D80027" d="M0 12C0 5.373 5.373 0 12 0s12 5.373 12 12c-.522 0-12 1.565-12 1.565z"/><path fill="#000" d="M24 12c0 6.627-5.373 12-12 12S0 18.627 0 12"/><path fill="#FFDA44" d="m10.355 9.544 1.017.739-.388 1.195 1.017-.74 1.017.74-.39-1.196 1.017-.74-1.257.001L12 8.348l-.388 1.196z"/><path fill="#FFDA44" d="M15 6.804a5.96 5.96 0 0 0-3-.802v1.565a4.4 4.4 0 0 1 2.217.592 4.44 4.44 0 0 1 1.624 6.058 4.44 4.44 0 0 1-6.059 1.624A4.4 4.4 0 0 1 8.3 14.443l-1.306.862A5.96 5.96 0 0 0 9 17.196 6.007 6.007 0 0 0 17.196 15 6.007 6.007 0 0 0 15 6.804"/><path fill="#FFDA44" d="M8.54 10.957a1.565 1.565 0 0 0 .622 2.124l5.083 2.778c-.345.632-.162 1.4.47 1.746l1.374.752a1.304 1.304 0 0 0 1.77-.519l.751-1.373z"/></svg>