<svg xmlns="http://www.w3.org/2000/svg" fill="none" viewBox="0 0 24 24"><path fill="#f0f0f0" d="M12 24c6.627 0 12-5.373 12-12S18.627 0 12 0 0 5.373 0 12s5.373 12 12 12"/><path fill="#338af3" d="M12 0A12 12 0 0 0 1.19 6.783h21.62A12 12 0 0 0 12 0m0 24a12 12 0 0 0 10.81-6.783H1.19A12 12 0 0 0 12 24"/><path fill="#ffda44" d="m15.587 12-1.466.69.78 1.419-1.59-.305-.203 1.608L12 14.229l-1.108 1.183-.202-1.608-1.592.305.78-1.42L8.414 12l1.466-.69-.78-1.419 1.59.305.203-1.608L12 9.77l1.108-1.182.202 1.608 1.592-.305-.78 1.42z"/></svg>