<svg xmlns="http://www.w3.org/2000/svg" fill="none" viewBox="0 0 24 24"><path fill="#F0F0F0" d="M12 24c6.627 0 12-5.373 12-12S18.627 0 12 0 0 5.373 0 12s5.373 12 12 12"/><path fill="#0052B4" d="M17.822 1.505A11.95 11.95 0 0 0 12 0C5.373 0 0 5.372 0 11.999l8.348-4.173zM0 12.001C0 18.628 5.373 24 12 24c2.113 0 4.097-.547 5.822-1.505l-9.474-6.321z"/><path fill="#D80027" d="M18.822 2.127q-.485-.334-1-.622L0 12l17.821 10.494q.517-.288 1-.622L2.055 12z"/><path fill="#A2001D" d="M20.87 11.553h-1.43a1.135 1.135 0 0 0-.07-1.53 1.136 1.136 0 0 0 0-1.605l-.027.026c.444-.443.47-1.19.027-1.633l-6.424 6.425a1.12 1.12 0 0 0 1.593-.005l.124-.113 3.076-.28v1.323h1.043v-1.418l1.566-.142z"/><path fill="#FFDA44" d="M13.044 14.609 12 14.087l1.044-.522h6.782v1.044z"/></svg>