<svg xmlns="http://www.w3.org/2000/svg" fill="none" viewBox="0 0 24 24"><path fill="#0052B4" d="M24 12c0 6.627-5.373 12-12 12S0 18.627 0 12C0 12.003 12 .001 12 0c6.627 0 12 5.373 12 12"/><path fill="#F0F0F0" d="m12 0-.002.001zm-.032 12H12v-.032z"/><path fill="#F0F0F0" d="M12 6.26V0h-.002C5.372.001 0 5.373 0 12h6.26V8.474L9.787 12h2.182l.032-.032V9.787L8.474 6.26z"/><path fill="#D80027" d="M6.071 1.565a12.06 12.06 0 0 0-4.506 4.506V12h3.13V4.696H12v-3.13z"/><path fill="#D80027" d="M12 10.524 7.737 6.261H6.26L12 12z"/><path fill="#F0F0F0" d="m7.237 14.087.659 1.377 1.487-.344-.666 1.374 1.196.948-1.489.336.004 1.526-1.19-.955-1.192.955.005-1.526-1.49-.336 1.197-.948-.667-1.374 1.488.344zm10.73 2.609.329.688.743-.172-.333.687.598.474-.744.168.002.763-.596-.477-.595.477.002-.763-.744-.168.598-.474-.333-.687.743.172zm-3.064-7.305.33.689.743-.172-.333.687.598.474-.745.168.002.763-.595-.477-.595.477.002-.763-.745-.168.598-.474-.333-.687.744.172zm3.064-4.174.329.689.743-.172-.333.687.598.474-.744.168.002.763-.596-.477-.595.477.002-.763-.744-.168.598-.474-.333-.687.743.172zm2.675 3.131.33.688.743-.172-.333.687.598.474-.744.168.002.764-.596-.478-.595.478.002-.764-.745-.168.598-.474-.333-.687.744.172zM18.729 12l.259.797h.838l-.678.493.26.797-.679-.493-.678.493.259-.797-.678-.493h.838z"/></svg>