<svg xmlns="http://www.w3.org/2000/svg" fill="none" viewBox="0 0 24 24"><path fill="#ffda44" d="M12 24c6.627 0 12-5.373 12-12S18.627 0 12 0 0 5.373 0 12s5.373 12 12 12"/><path fill="#338af3" d="M12 24c3.637 0 6.896-1.618 9.097-4.174H2.903A11.97 11.97 0 0 0 12 24m12-12c0-6.627-5.373-12-12-12S0 5.373 0 12c0 1.083.144 2.132.413 3.13h23.174A12 12 0 0 0 24 12M.954 16.696q.348.815.807 1.565H22.24q.459-.75.807-1.565z"/><path fill="#f0f0f0" d="M5.5 7.569 3.154 6.534l2.344-1.035 1.035-2.344 1.035 2.344 2.344 1.035L7.57 7.569 6.534 9.913z"/><path fill="#d80027" d="m6.534 4.447.639 1.448 1.448.639-1.448.639-.64 1.448-.638-1.448-1.448-.64 1.448-.638z"/></svg>