<svg xmlns="http://www.w3.org/2000/svg" fill="none" viewBox="0 0 24 24"><path fill="#f0f0f0" d="M12 24c6.627 0 12-5.373 12-12S18.627 0 12 0 0 5.373 0 12s5.373 12 12 12"/><path fill="#ffda44" d="M12 0A11.99 11.99 0 0 0 1.877 5.554L18.15 22.305A11.99 11.99 0 0 0 24 12c0-6.627-5.373-12-12-12"/><path fill="#0052b4" d="M24 12a11.96 11.96 0 0 0-3.13-8.083v16.166A11.96 11.96 0 0 0 24 12m-9.01 10.588 1.257-.001.388-1.196.389 1.196h.63q.58-.312 1.12-.682L2.095 5.225q-.412.602-.75 1.254l.148.455H2.75l-1.016.739.389 1.195-1.018-.738-.606.441A12 12 0 0 0 0 12c0 6.627 5.373 12 12 12 1.401 0 2.746-.24 3.996-.682zM2.677 11.478l.387-1.195-1.017-.739h1.257l.388-1.196.389 1.195h1.257l-1.017.739.39 1.195-1.018-.738zm2.588 2.609.388-1.196-1.017-.738h1.257l.387-1.197.39 1.196 1.256-.001-1.016.74.39 1.195-1.018-.739zm2.589 2.609L8.24 15.5l-1.017-.738 1.257-.001.388-1.196.389 1.195h1.257l-1.016.74.389 1.194-1.018-.738zm3.605 1.869-1.017.74.388-1.196-1.017-.739h1.257l.387-1.196.39 1.195h1.257l-1.017.739.39 1.195zm1.572 3.348.388-1.196-1.018-.738h1.257l.388-1.197.39 1.196 1.256-.001-1.016.74.389 1.195-1.017-.739z"/></svg>