<svg xmlns="http://www.w3.org/2000/svg" fill="none" viewBox="0 0 24 24"><path fill="#FFDA44" d="M17.217 1.19A11.95 11.95 0 0 0 12 0c-1.87 0-3.64.428-5.217 1.19L5.739 12l1.044 10.81A11.95 11.95 0 0 0 12 24c1.87 0 3.64-.428 5.217-1.19L18.261 12z"/><path fill="#0052B4" d="M6.783 1.191A12 12 0 0 0 0 12a12 12 0 0 0 6.783 10.809zm10.434 0V22.81A12 12 0 0 0 24 12a12 12 0 0 0-6.783-10.809"/><path fill="#000" d="m15.652 7.304.7.35zl-.7-.35c-.042.085-.956 1.944-1.105 4.785h-1.064V7.304L12 6.261l-.783 1.043v4.435h-1.064c-.149-2.84-1.063-4.7-1.105-4.785l-1.4.7c.01.02.96 1.956.96 4.868v.782h2.61v4.435h1.565v-4.435h2.608v-.782c0-1.506.26-2.747.48-3.524.238-.846.48-1.34.482-1.345z"/></svg>