<svg xmlns="http://www.w3.org/2000/svg" fill="none" viewBox="0 0 24 24"><path fill="#f0f0f0" d="M12 23.998c6.627 0 11.998-5.372 11.998-11.998S18.627.002 12 .002.002 5.374.002 12c0 6.627 5.372 11.998 11.998 11.998"/><path fill="#000" d="M1.61 6A12 12 0 0 0 .401 8.919l20.066 11.585A12 12 0 0 0 22.39 18z"/><path fill="#ffda44" d="M18 1.61C13.197-1.163 7.278-.24 3.531 3.496l20.066 11.585C24.96 9.969 22.8 4.38 17.999 1.609M6.001 22.39c4.8 2.773 10.72 1.849 14.467-1.887L.402 8.918C-.959 14.031 1.2 19.62 6.001 22.391"/><path fill="#d80027" d="M15.39 10.696a3.39 3.39 0 1 1-6.373-1.613 4.173 4.173 0 1 0 5.966 0c.26.48.408 1.029.408 1.613"/><path fill="#d80027" d="M11.218 6.783h1.565v7.825h-1.565z"/><path fill="#d80027" d="M14.608 8.348H9.392c0 .36.314.652.674.652h-.022c0 .36.292.653.652.653 0 .36.292.652.652.652h1.304c.36 0 .652-.292.652-.652.36 0 .652-.292.652-.653h-.021c.36 0 .673-.291.673-.652m-6.26 6.782h7.304v1.565H8.348z"/><path fill="#d80027" d="M13.565 15.652h3.13v1.565h-3.13zm-6.26 0h3.13v1.565h-3.13z"/></svg>