<svg xmlns="http://www.w3.org/2000/svg" fill="none" viewBox="0 0 24 24"><path fill="#F0F0F0" d="M12 24c6.627 0 12-5.373 12-12S18.627 0 12 0 0 5.373 0 12s5.373 12 12 12"/><path fill="#FFDA44" d="M3.515 3.515a11.97 11.97 0 0 0-3.481 9.383L12.898.034a11.97 11.97 0 0 0-9.383 3.48"/><path fill="#0052B4" d="M4.285 21.19c4.715 3.967 11.763 3.733 16.2-.705 4.438-4.437 4.672-11.485.706-16.2z"/><path fill="#000" d="m11.957 11.517 1.034-.56-1.034-.56a3.655 3.655 0 0 0-3.049-3.05l-.56-1.034-.56 1.034a3.655 3.655 0 0 0-3.05 3.05l-1.034.56 1.034.56a3.655 3.655 0 0 0 3.05 3.049l.56 1.034.56-1.034a3.655 3.655 0 0 0 3.05-3.05m-3.61 1.527a2.087 2.087 0 1 1 0-4.174 2.087 2.087 0 0 1 0 4.174"/><path fill="#D80027" d="m8.348 9.391.452.783h.903l-.452.783.452.782H8.8l-.452.783-.452-.783h-.904l.452-.783-.452-.782h.904z"/></svg>