<svg xmlns="http://www.w3.org/2000/svg" fill="none" viewBox="0 0 24 24"><path fill="#6DA544" d="M12 24c6.627 0 12-5.373 12-12S18.627 0 12 0 0 5.373 0 12s5.373 12 12 12"/><path fill="#FFDA44" d="M12 4.696 21.913 12 12 19.304 2.087 12z"/><path fill="#F0F0F0" d="M12 16.174a4.174 4.174 0 1 0 0-8.348 4.174 4.174 0 0 0 0 8.348"/><path fill="#0052B4" d="M9.913 11.74a7 7 0 0 0-2.086.314 4.173 4.173 0 0 0 7.591 2.34 7.03 7.03 0 0 0-5.505-2.655m6.183 1.061q.076-.39.078-.8a4.174 4.174 0 0 0-8.01-1.647 8.58 8.58 0 0 1 7.932 2.447"/></svg>