<svg xmlns="http://www.w3.org/2000/svg" fill="none" viewBox="0 0 24 24"><path fill="#ffda44" d="M20.485 20.485c-4.686 4.687-12.284 4.687-16.97 0-4.687-4.686-4.687-12.284 0-16.97.001 0 10.784-3.186 15.47 1.5s1.503 15.467 1.5 15.47"/><path fill="#d80027" d="M20.485 20.485c4.686-4.686 4.686-12.284 0-16.97-4.686-4.687-12.284-4.687-16.97 0z"/><path fill="#ff9811" d="M15.137 15.138a1.824 1.824 0 0 1-2.261-2.592l-.15-.084a3.4 3.4 0 0 0 2.596-3.337 3.38 3.38 0 0 0-1.16-2.51l-1.095 1.123c.414.33.683.836.69 1.406a1.83 1.83 0 0 1-1.804 1.848l.002.171a3.4 3.4 0 0 0-4.188-.58 3.38 3.38 0 0 0-1.594 2.26l1.52.387c.079-.524.383-1.01.873-1.3a1.83 1.83 0 0 1 2.502.638l.148-.088a3.4 3.4 0 0 0 1.592 3.917c.873.49 1.872.55 2.753.25zm-3.171-3.103"/><path fill="#ffeacf" d="m16.443 8.127-.848 3.027-2.545-.47-1.638-3.377-4.425 1.57-.35-.983-1.157-.142.872 2.458 3.046-.779.865 2.44-2.105 3.106 3.573 3.047-.678.794.456 1.074 1.693-1.985-2.197-2.248 1.679-1.968 3.743.27.853-4.618 1.026.19.703-.932zM12 12.082"/></svg>