<svg xmlns="http://www.w3.org/2000/svg" fill="none" viewBox="0 0 24 24"><path fill="#F0F0F0" d="M.567 8.348A12 12 0 0 0 0 12c0 1.274.199 2.5.567 3.652L12 16.174l11.433-.522C23.801 14.5 24 13.274 24 12s-.2-2.5-.567-3.652L12 7.826z"/><path fill="#000" d="M24 12q-.001-1.07-.181-2.087H.18a12 12 0 0 0 0 4.174h23.64A12 12 0 0 0 24 12"/><path fill="#338AF3" d="M12 24c5.354 0 9.888-3.506 11.433-8.348H.567C2.112 20.494 6.647 24 12 24m0-24C6.646 0 2.112 3.506.567 8.348h22.866C21.888 3.506 17.353 0 12 0"/></svg>