<svg xmlns="http://www.w3.org/2000/svg" fill="none" viewBox="0 0 24 24"><path fill="#F0F0F0" d="M0 12C0 5.373 5.373 0 12 0s12 5.373 12 12z"/><path fill="#0052B4" d="M8.87 11.344 8.214 12h.656zm6.26 0V12h.656zM.346 9.13C.121 10.05 0 11.01 0 12h3.786l2.87-2.87zm16.998 0 2.87 2.87H24c0-.99-.12-1.95-.346-2.87z"/><path fill="#D80027" d="M16.606 9.13H15.13L18 12h1.476zM8.87 10.606V9.13L6 12h1.476z"/><path fill="#0052B4" d="M5.621 1.835q-.742.467-1.407 1.035h2.442zM19.786 2.87a12 12 0 0 0-1.407-1.035L17.344 2.87z"/><path fill="#D80027" d="M13.565 7.565h9.589a12 12 0 0 0-1.84-3.13h-7.749V.102a12 12 0 0 0-3.13 0v4.333h-7.75a12 12 0 0 0-1.838 3.13h9.588V12h3.13z"/><path fill="#D80027" d="M8.87 2.87 7.06 1.06q-.501.228-.977.498l1.31 1.312zm6.26 0 1.81-1.81a12 12 0 0 0-1.058-.418l-.751.752z"/><path fill="#F0F0F0" d="M24 12c0 6.627-5.373 12-12 12S0 18.627 0 12z"/><path fill="#0052B4" d="M22 13.53c-1 0-1-.914-2-.914s-1 .915-2 .915-1-.915-2-.915-1 .915-2 .915-1-.915-2-.915-1 .915-2 .915-1-.915-2-.915-1 .915-2 .915-1-.915-2-.915-1 .915-2 .915c-.995 0-1-.905-1.984-.915q.042.825.192 1.615c.797.117.867.9 1.792.9 1 0 1-.915 2-.915s1 .914 2 .914 1-.914 2-.914 1 .914 2 .914 1-.914 2-.914 1 .914 2 .914 1-.914 2-.914 1 .914 2 .914 1-.914 2-.914 1 .914 2 .914c.925 0 .995-.782 1.792-.899q.15-.79.192-1.614c-.984.01-.99.913-1.984.913m-2 2.217c-1 0-1 .914-2 .914s-1-.914-2-.914-1 .914-2 .914-1-.914-2-.914-1 .914-2 .914-1-.914-2-.914-1 .914-2 .914-1-.914-2-.914-1 .914-2 .914c-.715 0-.919-.467-1.342-.733a12 12 0 0 0 1.09 2.31q.114.023.252.023c1 0 1-.914 2-.914s1 .914 2 .914 1-.914 2-.914 1 .914 2 .914 1-.914 2-.914 1 .914 2 .914 1-.914 2-.914 1 .914 2 .914 1-.914 2-.914 1 .914 2 .914q.138 0 .252-.022a12 12 0 0 0 1.09-2.311c-.423.266-.627.733-1.342.733-1 0-1-.914-2-.914"/><path fill="#F0F0F0" d="m23.994 11.623.003.1zm-23.99.1.002-.1zM0 12q0 .328.018.651c.982.011.988.914 1.982.914 1 0 1-.914 2-.914s1 .914 2 .914 1-.914 2-.914 1 .914 2 .914 1-.914 2-.914 1 .914 2 .914 1-.914 2-.914 1 .914 2 .914 1-.914 2-.914 1 .914 2 .914c.994 0 1-.903 1.982-.914Q24 12.33 24 12zm23.997-.277"/><path fill="#0052B4" d="M20 18.877c-1 0-1 .914-2 .914s-1-.914-2-.914-1 .914-2 .914-1-.914-2-.914-1 .914-2 .914-1-.914-2-.914-1 .914-2 .914-1-.914-2-.914c-.691 0-.905.436-1.3.706a12.05 12.05 0 0 0 3.851 3.11L12 22.42l5.449.274a12.05 12.05 0 0 0 3.851-3.11c-.396-.27-.61-.706-1.3-.706"/><path fill="#FFDA44" d="m18.655 19.163-3.65.698-.462-3.687L12 18.886l-2.543-2.712-.462 3.687-3.65-.698 1.79 3.256-.585.275A11.95 11.95 0 0 0 12 24a11.95 11.95 0 0 0 5.45-1.306l-.585-.275z"/></svg>