<svg xmlns="http://www.w3.org/2000/svg" fill="none" viewBox="0 0 24 24"><path fill="#ffda44" d="M22.668 6.498a12 12 0 0 0-2.182-2.984 12 12 0 0 0-2.984-2.181L9.048 9.048l-7.715 8.454a12 12 0 0 0 2.181 2.984c.9.9 1.91 1.627 2.984 2.181l8.453-7.716z"/><path fill="#d80027" d="M3.514 20.486q.757.755 1.604 1.347L21.833 5.118a12.1 12.1 0 0 0-2.951-2.951L2.167 18.882q.593.846 1.347 1.604"/><path fill="#338af3" d="M3.514 3.514C-.272 7.3-.998 12.986 1.333 17.502l16.17-16.17C12.985-.997 7.3-.27 3.513 3.515m16.973 16.971c3.786-3.786 4.512-9.472 2.182-13.988l-16.17 16.17c4.516 2.33 10.202 1.604 13.988-2.182"/><path fill="#ffda44" d="m6.395 3.652.648 1.993h2.095L7.443 6.876 8.09 8.87 6.395 7.638 4.7 8.869l.647-1.993-1.695-1.231h2.095z"/></svg>