<svg xmlns="http://www.w3.org/2000/svg" fill="none" viewBox="0 0 24 24"><path fill="#F0F0F0" d="M12 24c6.627 0 12-5.373 12-12S18.627 0 12 0 0 5.373 0 12s5.373 12 12 12"/><path fill="#000" d="M12 0a11.96 11.96 0 0 0-8.485 3.515L12 12zM0 12c0 3.314 1.343 6.314 3.515 8.485L12 12zm12 12c3.314 0 6.314-1.343 8.485-3.515L12 12zm12-12c0-3.314-1.343-6.314-3.515-8.485L12 12z"/><path fill="#FFDA44" d="M7.826 8.348 12 8.87l4.174-.522V5.843l-1.67.835L12 4.174 9.496 6.678l-1.67-.835z"/><path fill="#D80027" d="M12 18.26a4.18 4.18 0 0 1-4.174-4.173V9.913l1.565-1.565h5.218l1.565 1.565v4.174A4.18 4.18 0 0 1 12 18.26"/><path fill="#F0F0F0" d="M12 16.696a2.61 2.61 0 0 1-2.609-2.609V9.913h5.218v4.174A2.61 2.61 0 0 1 12 16.696"/><path fill="#FFDA44" d="M7.826 8.348h1.565v1.565H7.826zm6.783 0h1.565v1.565h-1.565zm0 3.392h1.565v1.564h-1.565zm-6.783 0h1.565v1.564H7.826zM12 16.696a2.6 2.6 0 0 1-.783-.12v1.61a4.2 4.2 0 0 0 1.566 0v-1.61c-.248.077-.51.12-.783.12M9.426 14.51l-1.249 1.25c.217.493.526.936.905 1.308l1.107-1.107a2.6 2.6 0 0 1-.763-1.45m6.397 1.249-1.25-1.25a2.6 2.6 0 0 1-.762 1.452l1.107 1.106c.38-.372.688-.815.905-1.308"/><path fill="#0052B4" d="M11.478 10.783v.87a.522.522 0 0 0 1.044 0v-.87zm0 3.477v.87a.522.522 0 0 0 1.044 0v-.87zm1.566-1.738v.87a.522.522 0 0 0 1.043 0v-.87zm-1.566 0v.87a.522.522 0 0 0 1.044 0v-.87zm-1.565 0v.87a.522.522 0 0 0 1.043 0v-.87z"/></svg>