<svg xmlns="http://www.w3.org/2000/svg" fill="none" viewBox="0 0 24 24"><path fill="#f0f0f0" d="M12 24c6.627 0 12-5.373 12-12S18.627 0 12 0 0 5.373 0 12s5.373 12 12 12"/><path fill="#0052b4" d="M22.54 6.26A12.03 12.03 0 0 0 15.13.414l-.52 5.846zm-21.081 0h7.932L8.87.414A12.03 12.03 0 0 0 1.46 6.26"/><path fill="#6da544" d="M14.609 12v5.74h7.932A12 12 0 0 0 24 12zm-5.218 0H0c0 2.079.529 4.034 1.46 5.74h7.93z"/><path fill="#ffda44" d="M1.459 17.74a12.03 12.03 0 0 0 7.41 5.847l.522-5.114zm13.671 5.847a12.03 12.03 0 0 0 7.41-5.848l-7.931.734z"/><path fill="#ffda44" d="m14.609 18.473 7.932-.734h-7.932zm-5.218-.733H1.46l7.932.733z"/><path fill="#d80027" d="M12 0a12 12 0 0 0-3.13.413v23.174c.998.269 2.047.413 3.13.413s2.132-.144 3.13-.413V.413A12 12 0 0 0 12 0"/><path fill="#ffda44" d="m6.455 2.609.323.996h1.048l-.847.616.323.996-.847-.615-.848.615.324-.996-.848-.616h1.048z"/></svg>