<svg xmlns="http://www.w3.org/2000/svg" fill="none" viewBox="0 0 24 24"><g clip-path="url(#a)"><path fill="#6DA544" d="M12 24c6.627 0 12-5.373 12-12S18.627 0 12 0 0 5.373 0 12s5.373 12 12 12"/><path fill="#FFDA44" d="m18.421 17.217.33.689.743-.172-.333.687.598.474-.744.168.002.763-.596-.477-.595.477.002-.763-.745-.168.598-.474-.333-.687.744.172zm-3.063-7.304.329.689.744-.172-.333.687.598.474-.745.168.002.763-.595-.478-.596.478.002-.764-.744-.167.598-.474-.333-.687.743.172zm3.063-4.173.33.688.743-.172-.333.687.598.474-.745.168.002.763-.595-.478-.595.478.002-.763-.745-.168.598-.474-.333-.687.744.172zm2.676 3.13.33.688.743-.172-.333.687.598.474-.745.168.002.763-.595-.477-.596.477.002-.763-.744-.168.598-.474-.333-.687.744.172zm-1.913 3.652.259.797h.838l-.678.493.259.797-.678-.493-.678.493.259-.797-.679-.493h.839z"/><path fill="#FFDA44" d="M13.305 15.391a3.39 3.39 0 1 1 1.613-6.375 4.174 4.174 0 1 0 0 5.967c-.48.26-1.03.408-1.613.408M7.546 4.696a2.086 2.086 0 0 0-3.614 0zm.007.012L5.74 6.522 3.925 4.708a2.087 2.087 0 1 0 3.628 0"/><path fill="#A2001D" d="M5.217 6v1.76a2.1 2.1 0 0 0 1.044 0V6z"/></g><defs><clipPath id="a"><path fill="#fff" d="M0 0h24v24H0z"/></clipPath></defs></svg>.71-.71-.112.64-.326-.112-.71.508.509z"/></svg>