<svg xmlns="http://www.w3.org/2000/svg" fill="none" viewBox="0 0 24 24"><path fill="#0052b4" d="M24 12c0 6.627-5.373 12-12 12S0 18.627 0 12C0 12.003 12 .001 12 0c6.627 0 12 5.373 12 12"/><path fill="#f0f0f0" d="M11.968 12H12v-.032z"/><path fill="#f0f0f0" d="M12 6.26V0h-.002C5.371.001 0 5.373 0 12h6.26V8.474L9.787 12h2.182l.032-.032V9.786L8.474 6.261z"/><path fill="#d80027" d="M6.071 1.565a12.06 12.06 0 0 0-4.506 4.506V12h3.13V4.696H12v-3.13z"/><path fill="#d80027" d="M12 10.524 7.737 6.261H6.26L12.001 12z"/><path fill="#f0f0f0" d="m16.174 12 .222.683h.718l-.58.422.221.684-.581-.422-.581.422.222-.684-.582-.422h.719zm-2.952 1.223.64.326.508-.508-.112.71.64.325-.71.113-.112.71-.326-.64-.71.112.509-.508zM12 16.174l.683-.222v-.718l.422.58.684-.221-.422.58.422.582-.684-.222-.422.581v-.718zm1.222 2.951.327-.64-.508-.508.71.113.325-.64.113.709.71.112-.64.327.111.71-.507-.509zm2.952 1.223-.222-.683h-.719l.582-.423-.222-.683.58.422.582-.422-.222.683.581.422h-.718zm2.951-1.223-.64-.326-.508.508.112-.71-.64-.326.71-.112.112-.71.326.64.71-.112-.508.508zm1.223-2.951-.683.222v.718l-.423-.58-.683.221.422-.581-.422-.581.683.222.423-.581v.718zm-1.223-2.951-.326.64.508.508-.71-.113-.326.64-.112-.71-.71-.112.64-.326-.112-.71.508.509z"/></svg>