<svg xmlns="http://www.w3.org/2000/svg" fill="none" viewBox="0 0 24 24"><path fill="#f0f0f0" d="M12 24c6.627 0 12-5.373 12-12S18.627 0 12 0 0 5.373 0 12s5.373 12 12 12"/><path fill="#0052b4" d="M12 24c3.637 0 6.896-1.618 9.096-4.174H2.903A11.97 11.97 0 0 0 12 24m12-12c0-6.627-5.373-12-12-12S0 5.373 0 12c0 1.083.144 2.132.413 3.13h23.174A12 12 0 0 0 24 12"/><path fill="#d80027" d="M.954 16.696q.348.816.807 1.565H22.24q.459-.75.807-1.565z"/><path fill="#ffda44" d="m8.577 12.783.195.598H9.4l-.508.369.194.598-.509-.37-.508.37.194-.598-.508-.37h.628zm0 7.826.195.598H9.4l-.508.369.194.598-.509-.37-.508.37.194-.598-.508-.37h.628zm-3.642-2.647.194.598h.629l-.509.37.194.597-.508-.37-.509.37.194-.598-.508-.37h.628zm1.391-4.397.194.598h.629l-.509.37.195.598-.509-.37-.509.37.195-.598-.509-.37h.629zm-2.214 2.462h.628l.195-.598.194.598h.629l-.509.37.194.598-.508-.37-.509.37.194-.598zm1.706 5.25.194-.598-.509-.37h.629l.194-.597.194.598h.629l-.509.37.195.597-.509-.37zm6.402-3.315-.195.598h-.629l.509.37-.194.597.508-.37.509.37-.195-.598.509-.37h-.629zm-1.392-4.397-.194.598h-.63l.51.37-.195.598.509-.37.508.37-.194-.598.509-.37h-.629zm2.214 2.462h-.629l-.194-.598-.194.598h-.629l.509.37-.194.598.508-.37.509.37-.195-.598zm-1.706 5.25-.194-.598.509-.37h-.629l-.194-.597-.194.598h-.63l.51.37-.195.597.509-.37z"/></svg>