<svg xmlns="http://www.w3.org/2000/svg" fill="none" viewBox="0 0 24 24"><path fill="#ffda44" d="M12 24c6.627 0 12-5.373 12-12S18.627 0 12 0 0 5.373 0 12s5.373 12 12 12"/><path fill="#0052b4" d="M12 24a11.98 11.98 0 0 0 9.62-4.826H2.38A11.98 11.98 0 0 0 12 24m12-12c0-6.627-5.373-12-12-12S0 5.373 0 12c0 1.419.247 2.78.7 4.044h22.6c.453-1.264.7-2.625.7-4.044"/><path fill="#f0f0f0" d="m8.214 7.696.647 1.993h2.096L9.26 10.92l.648 1.992-1.695-1.231-1.696 1.231.648-1.992L5.47 9.689h2.095zM4.615 5.61l.389 1.195H6.26l-1.017.739.388 1.196L4.615 8l-1.017.74.388-1.196-1.017-.74h1.258z"/></svg>