<svg xmlns="http://www.w3.org/2000/svg" fill="none" viewBox="0 0 24 24"><path fill="#338af3" d="M10.957 13.044s-7.435-9.531-7.442-9.53A11.96 11.96 0 0 1 12 0c6.627 0 12 5.373 12 12z"/><path fill="#6da544" d="M10.957 12s-7.435 8.487-7.442 8.485A11.96 11.96 0 0 0 12 24c6.627 0 12-5.373 12-12z"/><path fill="#f0f0f0" d="M3.515 3.515c-4.687 4.686-4.687 12.284 0 16.97L12 12z"/><path fill="#d80027" d="m4.857 8.87.777 2.39h2.514l-2.034 1.48.777 2.391-2.034-1.478-2.035 1.479.777-2.392-2.034-1.478H4.08z"/></svg>