<svg xmlns="http://www.w3.org/2000/svg" fill="none" viewBox="0 0 24 24"><path fill="#F0F0F0" d="M12 24c6.627 0 12-5.373 12-12S18.627 0 12 0 0 5.373 0 12s5.373 12 12 12"/><path fill="#496E2D" d="M14.348 23.77a12.01 12.01 0 0 0 9.422-9.422h-9.422zM.23 14.348a12.01 12.01 0 0 0 9.422 9.422v-9.422zm23.54-4.696A12.01 12.01 0 0 0 14.348.23v9.422zM9.652.23A12.01 12.01 0 0 0 .23 9.652h9.422z"/><path fill="#FFDA44" d="M11.217 14.348H9.652v9.422q.768.152 1.565.204zm0-4.696V.026Q10.42.078 9.652.23v9.422z"/><path fill="#000" d="M12.783.026a12 12 0 0 0-1.566 0v9.626h1.566zm-1.566 23.948a12 12 0 0 0 1.566 0v-9.626h-1.565z"/><path fill="#FFDA44" d="M9.652 11.217V9.652H.23a12 12 0 0 0-.204 1.565zm4.696 0h9.626a12 12 0 0 0-.204-1.565h-9.422z"/><path fill="#000" d="M14.348 12.783h9.626a12 12 0 0 0 0-1.566h-9.626zM.026 11.217a12 12 0 0 0 0 1.566h9.626v-1.566z"/><path fill="#D80027" d="M12 17.74a5.74 5.74 0 1 0 0-11.48 5.74 5.74 0 0 0 0 11.48"/><path fill="#496E2D" d="M13.308 12.64c-.427-.853-.982-1.719-.982-1.719s.013-.394.013-.628a.64.64 0 0 0-1.277-.056.505.505 0 0 0-.2.951.73.73 0 0 1 .431-.4q.048.038.102.068l.082.04s-.304.857-.304 1.317c0 1.295.854 1.695.854 1.695v.013l-.427.427h.854v-.854l.427.427c.003-.008.808-.517.426-1.28M12 7.304l.194.598h.629l-.509.37.195.598L12 8.5l-.509.37.195-.598-.509-.37h.629zm-2.76.897.508.37.51-.37-.195.598.508.37h-.628l-.194.597-.195-.597h-.628l.508-.37zm-1.706 2.348h.629l.194-.598.194.598h.629l-.509.37.195.597-.509-.37-.509.37.195-.598zm0 2.902.509-.37-.195-.597.509.37.509-.37-.195.598.509.37h-.629l-.194.597-.194-.598zm1.706 2.348.194-.598-.508-.37h.628l.195-.597.194.598h.629l-.51.37.195.597-.508-.37zm2.76.897-.194-.598h-.629l.509-.37-.195-.598.509.37.508-.37-.194.598.509.37h-.629zm2.76-.897-.508-.37-.509.37.194-.598-.508-.37h.628l.194-.597.195.598h.628l-.508.37zm1.706-2.348h-.629l-.194.598-.194-.598h-.629l.509-.37-.195-.597.509.37.508-.37-.194.598zm0-2.902-.509.37.195.597-.509-.37-.509.37.195-.598-.509-.369h.629l.194-.598.194.598zM14.76 8.201l-.194.598.508.37h-.628l-.194.597-.195-.597h-.628l.508-.37-.194-.598.508.37z"/></svg>