<svg xmlns="http://www.w3.org/2000/svg" fill="none" viewBox="0 0 24 24"><path fill="#f0f0f0" d="M12 24c6.627 0 12-5.373 12-12S18.627 0 12 0 0 5.373 0 12s5.373 12 12 12"/><path fill="#d80027" d="M.413 15.13a12.02 12.02 0 0 0 8.457 8.457V15.13z"/><path fill="#0052b4" d="M8.87.413A12.02 12.02 0 0 0 .412 8.87H8.87z"/><path fill="#d80027" d="M23.587 8.87A12.02 12.02 0 0 0 15.13.413V8.87z"/><path fill="#0052b4" d="M15.13 23.587a12.02 12.02 0 0 0 8.457-8.457H15.13z"/><path fill="#496e2d" d="M15.13 12a3.13 3.13 0 1 1-6.26 0c0-1.729 3.13-3.13 3.13-3.13s3.13 1.401 3.13 3.13"/><path fill="#0052b4" d="M8.87 12a3.13 3.13 0 0 1 6.26 0"/><path fill="#d80027" d="M10.24 10.435v1.956a1.76 1.76 0 0 0 3.52 0v-1.956z"/></svg>