<svg xmlns="http://www.w3.org/2000/svg" fill="none" viewBox="0 0 24 24"><path fill="#f0f0f0" d="M12 0c6.627 0 12 5.373 12 12s-5.373 12-12 12c0-.522-1.565-12-1.565-12z"/><path fill="#496e2d" d="M12 24C5.373 24 0 18.627 0 12S5.373 0 12 0"/><path fill="#d80027" d="m14.578 9.698-.984 1.357-1.595-.517.986 1.355-.984 1.357 1.594-.519.986 1.356-.001-1.676 1.594-.52-1.594-.516z"/><path fill="#d80027" d="M12.996 15.391a3.391 3.391 0 1 1 1.613-6.375 4.174 4.174 0 1 0 0 5.967c-.48.26-1.03.408-1.613.408"/></svg>