<svg xmlns="http://www.w3.org/2000/svg" fill="none" viewBox="0 0 24 24"><path fill="#FFDA44" d="M0 12C0 5.373 5.373 0 12 0s12 5.373 12 12l-12 1.043z"/><path fill="#D80027" d="M1.606 18C3.68 21.587 7.558 24 12 24s8.32-2.413 10.394-6L12 17.217z"/><path fill="#0052B4" d="M22.394 18A11.94 11.94 0 0 0 24 12H0c0 2.186.585 4.235 1.606 6z"/><path fill="#FFDA44" d="M12 16.174a4.174 4.174 0 1 0 0-8.348 4.174 4.174 0 0 0 0 8.348"/><path fill="#338AF3" d="M12 14.609A2.61 2.61 0 0 1 9.391 12v-1.565A2.61 2.61 0 0 1 12 7.826a2.61 2.61 0 0 1 2.609 2.609V12A2.61 2.61 0 0 1 12 14.609"/><path fill="#000" d="M16.174 5.74h-3.13a1.044 1.044 0 0 0-2.088 0h-3.13c0 .575.502 1.043 1.078 1.043H8.87c0 .576.468 1.043 1.044 1.043 0 .576.467 1.044 1.043 1.044h2.087c.577 0 1.044-.468 1.044-1.044.576 0 1.043-.467 1.043-1.043h-.034c.576 0 1.078-.468 1.078-1.044"/></svg>