<svg xmlns="http://www.w3.org/2000/svg" fill="none" viewBox="0 0 24 24"><path fill="#F0F0F0" d="M12 24c6.627 0 12-5.373 12-12S18.627 0 12 0 0 5.373 0 12s5.373 12 12 12"/><path fill="#D80027" d="M12 0C6.84 0 2.442 3.257.746 7.826h22.508C21.558 3.256 17.16 0 12 0"/><path fill="#000" d="M12 24c5.16 0 9.558-3.256 11.254-7.826H.746C2.442 20.744 6.84 24 12 24"/><path fill="#FF9811" d="M16.174 10.696h-3.13a1.044 1.044 0 0 0-2.088 0h-3.13c0 .576.502 1.043 1.078 1.043H8.87c0 .576.468 1.044 1.044 1.044 0 .576.467 1.043 1.043 1.043h2.087c.577 0 1.044-.467 1.044-1.043.576 0 1.043-.467 1.043-1.044h-.034c.576 0 1.078-.467 1.078-1.043"/></svg>