<svg xmlns="http://www.w3.org/2000/svg" fill="none" viewBox="0 0 24 24"><path fill="#338af3" d="M10.957 10.957s-7.435 9.53-7.442 9.528A11.96 11.96 0 0 0 12 24c6.627 0 12-5.373 12-12z"/><path fill="#6da544" d="M10.957 12S3.522 3.513 3.515 3.515A11.96 11.96 0 0 1 12 0c6.627 0 12 5.373 12 12z"/><path fill="#d80027" d="M3.515 3.515c-4.687 4.686-4.687 12.284 0 16.97C3.515 20.487 24 12 24 12z"/><path fill="#ffda44" d="M6.26 7.043a4.18 4.18 0 0 0-4.173 4.174v1.566a4.18 4.18 0 0 0 4.174 4.173 4.18 4.18 0 0 0 4.174-4.173v-1.566A4.18 4.18 0 0 0 6.26 7.043m2.61 5.74a2.61 2.61 0 0 1-1.827 2.488v-1.706l1.108-1.107-1.107-1.107v-.916H5.477V12l-1.106 1.107 1.106 1.106v1.058a2.61 2.61 0 0 1-1.826-2.488v-1.565a2.61 2.61 0 0 1 2.609-2.61 2.61 2.61 0 0 1 2.608 2.61z"/></svg>