<svg xmlns="http://www.w3.org/2000/svg" fill="none" viewBox="0 0 24 24"><g clip-path="url(#a)"><mask id="b" width="24" height="24" x="0" y="0" maskUnits="userSpaceOnUse" style="mask-type:luminance"><path fill="#fff" d="M12 24c6.627 0 12-5.373 12-12S18.627 0 12 0 0 5.373 0 12s5.373 12 12 12"/></mask><g mask="url(#b)"><path fill="#ffda44" d="M0 0v2.672l1.5 1.36L0 5.343v2.672l1.5 1.359L0 10.688v2.671l1.5 1.313L0 15.984v2.672l1.5 1.36L0 21.328V24h24v-2.672l-1.5-1.312 1.5-1.36v-2.672l-1.5-1.312 1.5-1.313v-2.671l-1.5-1.313 1.5-1.36v-2.67L22.5 4.03 24 2.67V0z"/><path fill="#d80027" d="M0 2.672h24v2.672H0zm0 5.344h24v2.672H0zm0 5.343h24v2.625H0zm0 5.297h24v2.672H0z"/><path fill="#ff9811" d="M4.5 6v7.5L9 18c2.484 0 4.5-2.016 4.5-4.5l-2.25-2.25L13.5 9V6h-1.312v1.5h-1.266V6H9.656v1.5H8.344V6H7.078v1.5H5.766V6z"/><path fill="#0052b4" d="M9 9h4.5v4.5H9z"/><path fill="#eee" d="M9 13.5V18a4.5 4.5 0 0 1-4.5-4.5z"/></g></g><defs><clipPath id="a"><path fill="#fff" d="M0 0h24v24H0z"/></clipPath></defs></svg>