<svg xmlns="http://www.w3.org/2000/svg" fill="none" viewBox="0 0 24 24"><g clip-path="url(#a)"><mask id="b" width="24" height="24" x="0" y="0" maskUnits="userSpaceOnUse" style="mask-type:luminance"><path fill="#fff" d="M12 24c6.627 0 12-5.373 12-12S18.627 0 12 0 0 5.373 0 12s5.373 12 12 12"/></mask><g mask="url(#b)"><path fill="#ffda44" d="M0 0v2.672l1.5 1.36L0 5.343v2.672l1.5 1.359L0 10.688v2.671l1.5 1.313L0 15.984v2.672l1.5 1.36L0 21.328V24h24v-2.672l-1.5-1.312 1.5-1.36v-2.672l-1.5-1.312 1.5-1.313v-2.671l-1.5-1.313 1.5-1.36v-2.67L22.5 4.03 24 2.67V0z"/><path fill="#d80027" d="M0 2.672h24v2.672H0zm0 5.344h24v2.672H0zm0 5.343h24v2.625H0zm0 5.297h24v2.672H0z"/></g></g><defs><clipPath id="a"><path fill="#fff" d="M0 0h24v24H0z"/></clipPath></defs></svg> 16.697a2.615 2.615 0 0 1-2.611-2.611V9.914h5.222v4.172A2.615 2.615 0 0 1 12 16.696"/><path fill="#ff9811" d="M7.828 8.344H9.39v1.57H7.83zm6.783 0h1.56v1.57h-1.56zm0 3.394h1.56v1.565h-1.56zm-6.783 0H9.39v1.565H7.83zM12 16.697a2.7 2.7 0 0 1-.783-.122v1.613a4.2 4.2 0 0 0 1.566 0v-1.613a2.6 2.6 0 0 1-.783.122m-2.578-2.184-1.247 1.246c.216.492.525.938.91 1.313l1.106-1.111a2.6 2.6 0 0 1-.764-1.453zm6.403 1.246-1.252-1.247a2.6 2.6 0 0 1-.764 1.454l1.107 1.101a4.2 4.2 0 0 0 .909-1.308"/><path fill="#0052b4" d="M11.48 10.781v.872a.52.52 0 1 0 1.04 0v-.872zm0 3.478v.872a.52.52 0 1 0 1.04 0v-.872zm1.565-1.734v.867a.52.52 0 1 0 1.04 0v-.876h-1.04zm-1.565 0v.867a.52.52 0 1 0 1.04 0v-.876h-1.036zm-1.566 0v.867a.52.52 0 0 0 1.04 0v-.876h-1.04z"/></g></g><defs><clipPath id="a"><path fill="#fff" d="M0 0h24v24H0z"/></clipPath></defs></svg>