<svg xmlns="http://www.w3.org/2000/svg" fill="none" viewBox="0 0 24 24"><g clip-path="url(#a)"><mask id="b" width="24" height="24" x="0" y="0" maskUnits="userSpaceOnUse" style="mask-type:luminance"><path fill="#fff" d="M12 24c6.627 0 12-5.373 12-12S18.627 0 12 0 0 5.373 0 12s5.373 12 12 12"/></mask><g mask="url(#b)"><path fill="#eee" d="m0 0 6.586 1.303L12 0h12l-1.233 6.225L24 12v12l-6.502-1.43L12 24H0l1.406-6.558L0 12z"/><path fill="#333" d="m0 0 12 12V0zm12 12h12V0zm0 0v12h12zm0 0H0v12z"/><path fill="#ff9811" d="M7.828 8.344 12 8.869l4.172-.52V5.844l-1.669.835L12 4.172 9.497 6.68l-1.669-.835z"/><path fill="#d80027" d="M12 18.263a4.18 4.18 0 0 1-4.172-4.172V9.914L9.39 8.348h5.222l1.56 1.566v4.172A4.17 4.17 0 0 1 12 18.258z"/><path fill="#eee" d="M12 16.697a2.615 2.615 0 0 1-2.61-2.611V9.914h5.22v4.172a2.615 2.615 0 0 1-2.61 2.61"/><path fill="#ff9811" d="M7.828 8.344H9.39v1.57H7.83zm6.783 0h1.56v1.57h-1.56zm0 3.394h1.56v1.565h-1.56zm-6.783 0H9.39v1.565H7.83zM12 16.697a2.7 2.7 0 0 1-.783-.122v1.613a4.2 4.2 0 0 0 1.566 0v-1.613a2.6 2.6 0 0 1-.783.122m-3.825-.938c.216.492.525.938.91 1.313l1.106-1.111a2.6 2.6 0 0 1-.764-1.453zm7.65 0-1.252-1.247a2.6 2.6 0 0 1-.764 1.454l1.107 1.101a4.2 4.2 0 0 0 .909-1.308"/><path fill="#0052b4" d="M11.48 10.781v.872a.52.52 0 1 0 1.04 0v-.872zm0 3.478v.872a.52.52 0 1 0 1.04 0v-.872zm1.565-.867a.52.52 0 1 0 1.04 0v-.876h-1.04zm-1.565-.867v.867a.52.52 0 1 0 1.04 0v-.876h-1.036zm-1.566.867a.52.52 0 0 0 1.04 0v-.876h-1.04z"/></g></g><defs><clipPath id="a"><path fill="#fff" d="M0 0h24v24H0z"/></clipPath></defs></svg>