<svg xmlns="http://www.w3.org/2000/svg" fill="none" viewBox="0 0 24 24"><g clip-path="url(#a)"><mask id="b" width="24" height="24" x="0" y="0" maskUnits="userSpaceOnUse" style="mask-type:luminance"><path fill="#fff" d="M12 24c6.627 0 12-5.373 12-12S18.627 0 12 0 0 5.373 0 12s5.373 12 12 12"/></mask><g mask="url(#b)"><path fill="#eee" d="M0 2.953 2.953 0H24v21.047L21.047 24H0z"/><path fill="#338af3" d="M0 0v2.953L21.047 24H24v-2.953L2.953 0z"/><path fill="#ff9811" d="m9.89 8.484 2.157.77 2.062-.77v-1.78l-.843.421L12 5.859l-1.266 1.266-.843-.422z"/><path fill="#0052b4" d="M8.719 8.484v4.829a3.281 3.281 0 0 0 6.562 0V8.484z"/></g></g><defs><clipPath id="a"><path fill="#fff" d="M0 0h24v24H0z"/></clipPath></defs></svg>