<svg xmlns="http://www.w3.org/2000/svg" fill="none" viewBox="0 0 24 24"><g clip-path="url(#a)"><mask id="b" width="24" height="24" x="0" y="0" maskUnits="userSpaceOnUse" style="mask-type:luminance"><path fill="#fff" d="M12 24c6.627 0 12-5.373 12-12S18.627 0 12 0 0 5.373 0 12s5.373 12 12 12"/></mask><g mask="url(#b)"><path fill="#ffda44" d="M0 12 12 0h12v2.663l-.69 1.396.69 1.275v2.663l-.74 1.331.74 1.34v2.663l-.863 1.378L24 16v2.667l-.783 1.35.783 1.317V24H0v-2.667l1.134-1.285L0 18.666v-2.668L.984 14.7 0 13.331z"/><path fill="#d80027" d="M11.344 2.662v2.672H24V2.662zm0 5.335v2.672H24V7.997zM0 13.33v2.667h24V13.33zm0 5.335v2.667h24v-2.667z"/><path fill="#4a1f63" d="M0 0h12v12H0z"/><path fill="#eee" d="M9.914 6.262v1.041H9.39v-1.04H8.35v1.04h-.52V5.217H5.737v2.086h-.516v-1.04h-1.05v1.04h-.516v-1.04h-1.05v3.126h8.344V6.262z"/></g></g><defs><clipPath id="a"><path fill="#fff" d="M0 0h24v24H0z"/></clipPath></defs></svg>