<svg xmlns="http://www.w3.org/2000/svg" fill="none" viewBox="0 0 24 24"><g clip-path="url(#a)"><mask id="b" width="24" height="24" x="0" y="0" maskUnits="userSpaceOnUse" style="mask-type:luminance"><path fill="#fff" d="M12 24c6.627 0 12-5.373 12-12S18.627 0 12 0 0 5.373 0 12s5.373 12 12 12"/></mask><g mask="url(#b)"><path fill="#338af3" d="M0 0h24v24H0z"/><path fill="#acabb1" d="M5.738 13.045h12.525v1.566H5.737z"/><path fill="#ffda44" d="M7.828 8.344 12 8.869l4.172-.52V5.844l-1.669.835L12 4.172 9.497 6.68l-1.669-.835z"/><path fill="#eee" d="M6.783 16.172H5.217v-2.869l.52-.783-.52-.782V9.909h1.566zm12 0h-1.566V9.919h1.566v1.828l-.52.797.52.764z"/><path fill="#acabb1" d="M5.217 11.738h13.566v1.565H5.217z"/><path fill="#eee" d="M12 18.263a4.18 4.18 0 0 1-4.172-4.172V8.344h8.344v5.737A4.17 4.17 0 0 1 12 18.253z"/><path fill="#0052b4" d="M12 16.697a2.61 2.61 0 0 1-2.606-2.611V9.914h5.212v4.172A2.61 2.61 0 0 1 12 16.696"/><path fill="#d80027" d="M7.828 8.344h1.566v1.57H7.828zm6.783 0h1.56v1.57h-1.565zm0 3.394h1.56v1.565h-1.565zm-6.783 0H9.39v1.565H7.83zm3.39-3.39h1.565v1.566h-1.566zm.782 8.34q-.409.001-.783-.118v1.617a4.2 4.2 0 0 0 1.566 0v-1.612a2.6 2.6 0 0 1-.783.122zm-2.573-2.18-1.252 1.247c.216.492.525.937.91 1.312l1.106-1.11a2.6 2.6 0 0 1-.764-1.454zm6.398 1.247-1.252-1.247a2.6 2.6 0 0 1-.764 1.453l1.107 1.101a4.2 4.2 0 0 0 .909-1.307"/></g></g><defs><clipPath id="a"><path fill="#fff" d="M0 0h24v24H0z"/></clipPath></defs></svg>