<svg xmlns="http://www.w3.org/2000/svg" fill="none" viewBox="0 0 24 24"><g clip-path="url(#a)"><mask id="b" width="24" height="24" x="0" y="0" maskUnits="userSpaceOnUse" style="mask-type:luminance"><path fill="#fff" d="M12 24c6.627 0 12-5.373 12-12S18.627 0 12 0 0 5.373 0 12s5.373 12 12 12"/></mask><g mask="url(#b)"><path fill="#d80027" d="M0 2.213 2.213 0h8.221L12 1.28 13.566 0h8.23L24 2.217v8.217l-1.134 1.65L24 13.566v8.222L21.788 24h-8.222l-1.5-1.238L10.434 24H2.213L0 21.788v-8.222l1.172-1.52L0 10.435z"/><path fill="#496e2d" d="M0 0v2.213L9.788 12 0 21.788V24h2.213L12 14.213 21.788 24H24v-2.212L14.213 12 24 2.217V0h-2.203L12 9.788 2.213 0z"/><path fill="#eee" d="M10.434 0v10.434H0v3.132h10.434V24h3.132V13.566H24v-3.132H13.566V0z"/></g></g><defs><clipPath id="a"><path fill="#fff" d="M0 0h24v24H0z"/></clipPath></defs></svg>