<svg xmlns="http://www.w3.org/2000/svg" fill="none" viewBox="0 0 24 24"><path fill="#ffda44" d="M0 12c0 1.468.264 2.874.746 4.174L12 17.217l11.254-1.043c.482-1.3.746-2.706.746-4.174 0-1.448-.256-2.836-.726-4.12L12 6.782.726 7.879A12 12 0 0 0 0 12"/><path fill="#d80027" d="M12 24c5.16 0 9.558-3.256 11.254-7.826H.746C2.442 20.744 6.84 24 12 24"/><path fill="#6da544" d="M12 0C6.84 0 2.442 3.257.746 7.826h22.508C21.558 3.256 17.16 0 12 0"/><path fill="#0052b4" d="M12 17.74a5.74 5.74 0 1 0 0-11.48 5.74 5.74 0 0 0 0 11.48"/><path fill="#ffda44" d="m11.999 7.556 1.036 3.188h3.358l-2.718 1.971 1.044 3.198-2.72-1.98-2.717 1.976 1.04-3.194-2.715-1.97h3.356z"/><path fill="#ffda44" d="m16.13 12.794-3.286-1.068 2.031-2.796-.844-.613L12 11.112 9.969 8.317l-.844.613 2.03 2.796-3.286 1.067.323.993 3.286-1.068v3.456h1.044v-3.456l3.286 1.068z"/></svg>