<svg xmlns="http://www.w3.org/2000/svg" fill="none" viewBox="0 0 24 24"><path fill="#0052B4" d="M12 24c6.627 0 12-5.373 12-12S18.627 0 12 0 0 5.373 0 12s5.373 12 12 12"/><path fill="#FFDA44" d="m12 4.696.389 1.195h1.257l-1.017.74.388 1.195L12 7.087l-1.017.74.388-1.197-1.017-.739h1.258zM6.835 6.835l1.12.57.89-.888-.197 1.242 1.12.57-1.242.197-.197 1.242-.57-1.12-1.242.196.889-.889zM4.696 12l1.195-.389v-1.257l.74 1.017 1.195-.388L7.087 12l.74 1.017-1.197-.388-.739 1.017v-1.257zm2.139 5.165.57-1.12-.888-.89 1.242.197.57-1.12.197 1.242 1.242.197-1.12.57.196 1.242-.889-.889zM12 19.304l-.389-1.195h-1.257l1.017-.74-.388-1.195 1.017.739 1.017-.739-.388 1.196 1.017.739h-1.258zm5.165-2.139-1.12-.57-.89.888.197-1.242-1.12-.57 1.242-.197.197-1.242.57 1.12 1.242-.196-.889.889zM19.304 12l-1.195.389v1.257l-.74-1.017-1.195.388.739-1.017-.739-1.017 1.196.388.739-1.017v1.258zm-2.139-5.165-.57 1.12.888.89-1.242-.197-.57 1.12-.197-1.242-1.242-.197 1.12-.57-.196-1.242.889.889z"/></svg>