<svg xmlns="http://www.w3.org/2000/svg" fill="none" viewBox="0 0 24 24"><path fill="#338af3" d="M24 12c0 6.627-5.373 12-12 12S0 18.627 0 12C0 12.003 12 .001 12 0c6.627 0 12 5.373 12 12"/><path fill="#0052b4" d="M12 5.74v4.046L7.826 5.74zM6.261 12h3.526L6.26 7.304l-.522 3.653z"/><path fill="#f0f0f0" d="M11.968 12H12v-.032z"/><path fill="#f0f0f0" d="M12 6.26V0h-.002C5.372.001 0 5.373 0 12h6.26V8.474L9.787 12h2.182l.032-.032V9.786L8.474 6.261z"/><path fill="#d80027" d="M6.071 1.565a12.06 12.06 0 0 0-4.506 4.506V12h3.13V4.696H12v-3.13z"/><path fill="#d80027" d="M12 10.524 7.737 6.261H6.26L12.001 12z"/><path fill="#f3f3f3" d="M13.565 7.826V12c0 2.796 3.653 3.652 3.653 3.652S20.87 14.796 20.87 12V7.826l-3.652-1.043z"/><path fill="#d80027" d="M20.87 7.826V6.261h-7.305v1.565h3.13v3.13h-3.13V12h3.13v3.492c.316.112.523.16.523.16s.206-.048.521-.16V12h3.13v-1.043h-3.13v-3.13z"/></svg>