<svg xmlns="http://www.w3.org/2000/svg" fill="none" viewBox="0 0 24 24"><path fill="#0052b4" d="M24 12c0 6.627-5.373 12-12 12S0 18.627 0 12C0 12.003 12 .001 12 0c6.627 0 12 5.373 12 12"/><path fill="#f0f0f0" d="M11.968 12H12v-.032z"/><path fill="#f0f0f0" d="M12 6.26V0h-.002C5.372.001 0 5.373 0 12h6.26V8.474L9.787 12h2.182l.032-.032V9.786L8.474 6.261z"/><path fill="#d80027" d="M6.071 1.565a12.06 12.06 0 0 0-4.506 4.506V12h3.13V4.696H12v-3.13z"/><path fill="#d80027" d="M12 10.524 7.737 6.261H6.26L12 12z"/><path fill="#ffda44" d="M19.304 14.087v.522H15.13v-.522h-1.565v2.087h1.044v.522h5.217v-.522h1.043v-2.087z"/><path fill="#338af3" d="M13.565 6.26V12c0 2.796 3.652 3.652 3.652 3.652S20.87 14.796 20.87 12V6.26z"/><path fill="#f3f3f3" d="M17.217 10.542c-.913 0-.913.835-1.826.835s-.913-.835-1.826-.835v1.46c.913 0 .913.835 1.826.835s.913-.835 1.826-.835.913.835 1.826.835.913-.835 1.826-.835v-1.46c-.913 0-.913.835-1.826.835s-.913-.835-1.826-.835m0-2.925c-.913 0-.913.835-1.826.835s-.913-.835-1.826-.835v1.461c.913 0 .913.835 1.826.835s.913-.835 1.826-.835.913.835 1.826.835.913-.835 1.826-.835v-1.46c-.913 0-.913.834-1.826.834s-.913-.835-1.826-.835"/></svg>