<svg xmlns="http://www.w3.org/2000/svg" fill="none" viewBox="0 0 24 24"><path fill="#338af3" d="M12 24c6.627 0 12-5.373 12-12S18.627 0 12 0 0 5.373 0 12s5.373 12 12 12"/><path fill="#f0f0f0" d="m12 5.217.518 1.595h1.676l-1.356.985.518 1.594L12 8.406l-1.356.985.518-1.594-1.356-.985h1.676zM5.217 12l1.595-.518V9.806l.985 1.356 1.594-.518L8.406 12l.985 1.356-1.594-.518-.985 1.356v-1.676zM12 18.783l-.518-1.595H9.806l1.356-.985-.518-1.594 1.356.985 1.356-.985-.518 1.594 1.356.985h-1.676zM18.782 12l-1.594.518v1.676l-.985-1.356-1.595.518.986-1.356-.986-1.356 1.595.518.985-1.356v1.676z"/></svg>