<svg xmlns="http://www.w3.org/2000/svg" fill="none" viewBox="0 0 24 24"><g clip-path="url(#a)"><mask id="b" width="24" height="24" x="0" y="0" maskUnits="userSpaceOnUse" style="mask-type:luminance"><path fill="#fff" d="M12 24c6.627 0 12-5.373 12-12S18.627 0 12 0 0 5.373 0 12s5.373 12 12 12"/></mask><g mask="url(#b)"><path fill="#eee" d="M0 0h24v24H0z"/><path fill="#333" d="M16.177 10.163a4.594 4.594 0 0 0-8.794-1.866L6.82 10.35l.516.525-1.04 2.086 1.045.52-.525.52v.53l.525.52v1.046l.52.515 1.566-.515s0 .515.52 1.04c.52.526 1.045 1.566 1.045 1.566s1.566.52 2.606-1.04c1.046-1.566 2.091-2.091 2.091-2.091l-1.008-2.011a4.6 4.6 0 0 0 1.5-3.394z"/><path fill="#acabb1" d="M16.552 11.92c2.123-.356 2.475-4.51 2.475-4.51h-2.92c1.509 3.657-.071 3.9-.071 3.9a380 380 0 0 0-8.138-3.89c-.06.08-.276.282-.539.928a5.2 5.2 0 0 0-.328 1.22 322 322 0 0 0 8.494 2.952c.431.277.956 1.111.66 3.59l2.813-.791s-.956-2.536-2.446-3.399"/></g></g><defs><clipPath id="a"><path fill="#fff" d="M0 0h24v24H0z"/></clipPath></defs></svg>