<svg xmlns="http://www.w3.org/2000/svg" fill="none" viewBox="0 0 24 24"><g clip-path="url(#a)"><mask id="b" width="24" height="24" x="0" y="0" maskUnits="userSpaceOnUse" style="mask-type:luminance"><path fill="#fff" d="M12 24c6.627 0 12-5.373 12-12S18.627 0 12 0 0 5.373 0 12s5.373 12 12 12"/></mask><g mask="url(#b)"><path fill="#eee" d="M0 0h12l12 2.672v2.672l-1.5 1.312 1.5 1.36v2.672L22.5 12l1.5 1.36v2.624l-1.5 1.36 1.5 1.312v2.672l-12 1.36-12-1.36v-2.672l1.5-1.312-1.5-1.36V13.36L1.5 12 0 10.688z"/><path fill="#333" d="M12 0h12v2.672H12zm0 5.344h12v2.672H12zM0 10.688h24v2.671H0zm0 5.296h24v2.672H0zm0 5.344h24V24H0zM.75 3.375l.89.656.891-.656-.89-1.875zM2.19 1.8a.281.281 0 1 0 0-.563.281.281 0 0 0 0 .563m-1.126 0a.281.281 0 1 0 0-.563.281.281 0 0 0 0 .563m.563-.562a.281.281 0 1 0 0-.563.281.281 0 0 0 0 .563M5.11 3.375l.89.656.89-.656L6 1.5zM6.581 1.8a.281.281 0 1 0 0-.563.281.281 0 0 0 0 .563m-1.125 0a.281.281 0 1 0 0-.563.281.281 0 0 0 0 .563m.563-.562a.281.281 0 1 0 0-.563.281.281 0 0 0 0 .563m3.497 2.137.89.656.89-.656-.89-1.875zM10.973 1.8a.281.281 0 1 0 0-.562.281.281 0 0 0 0 .562m-1.125 0a.281.281 0 1 0 0-.562.281.281 0 0 0 0 .562m.562-.562a.281.281 0 1 0 .001-.563.281.281 0 0 0 0 .563M7.313 6.469l.89.656.89-.656-.89-1.875zm1.462-1.585a.281.281 0 1 0 0-.562.281.281 0 0 0 0 .562m-1.125 0a.281.281 0 1 0 0-.562.281.281 0 0 0 0 .562m.563-.562a.281.281 0 1 0 0-.563.281.281 0 0 0 0 .563m-5.26 2.147.89.656.845-.656-.844-1.875zm1.43-1.585a.281.281 0 1 0 0-.562.281.281 0 0 0 0 .562m-1.125 0a.281.281 0 1 0 0-.562.281.281 0 0 0 0 .562m.562-.562a.281.281 0 1 0 0-.563.281.281 0 0 0 0 .563M.75 9.563l.89.656.891-.656-.89-1.876zm1.44-1.594a.281.281 0 1 0 0-.563.281.281 0 0 0 0 .563m-1.126 0a.281.281 0 1 0 0-.563.281.281 0 0 0 0 .563m.563-.563a.281.281 0 1 0 0-.562.281.281 0 0 0 0 .562M5.11 9.563l.89.656.89-.656L6 7.687zm1.471-1.594a.281.281 0 1 0 0-.563.281.281 0 0 0 0 .563m-1.125 0a.281.281 0 1 0 0-.563.281.281 0 0 0 0 .563m.563-.563a.281.281 0 1 0 0-.562.281.281 0 0 0 0 .562m3.497 2.157.89.656.89-.656-.89-1.876zm1.457-1.594a.281.281 0 1 0 0-.563.281.281 0 0 0 0 .563m-1.125 0a.281.281 0 1 0 0-.563.281.281 0 0 0 0 .563m.562-.563a.281.281 0 1 0 .001-.562.281.281 0 0 0 0 .562"/></g></g><defs><clipPath id="a"><path fill="#fff" d="M0 0h24v24H0z"/></clipPath></defs></svg>