<svg xmlns="http://www.w3.org/2000/svg" fill="none" viewBox="0 0 24 24"><g clip-path="url(#a)"><mask id="b" width="24" height="24" x="0" y="0" maskUnits="userSpaceOnUse" style="mask-type:luminance"><path fill="#fff" d="M12 24c6.627 0 12-5.373 12-12S18.627 0 12 0 0 5.373 0 12s5.373 12 12 12"/></mask><g mask="url(#b)"><path fill="#eee" d="M0 0h10.5L12 1.5 13.5 0H24v10.5L22.5 12l1.5 1.5V24H13.5L12 22.5 10.5 24H0V13.5L1.5 12 0 10.5z"/><path fill="#d80027" d="M10.5 0v10.5H0v3h10.5V24h3V13.5H24v-3H13.5V0z"/><path fill="#818085" d="M12 4.875 9.938 8.438H5.859L7.875 12l-2.016 3.563h4.079L12 19.125l2.063-3.562h4.078L16.125 12l2.016-3.562h-4.078z"/><path fill="#eee" d="m12 6.14-1.687 2.907H6.89L8.625 12l-1.734 2.953h3.422L12 17.906l1.688-2.953h3.421L15.375 12l1.734-2.953h-3.422z"/><path fill="#d80027" d="M12.14 9.14c-.234 0-.234.235-.234.235v1.828h-.14V9.656s0-.281-.235-.281c-.281 0-.281.281-.281.281v1.64l-.14.048v-1.172s0-.281-.235-.281c-.281 0-.281.28-.281.28v2.017c0 .468.234.937.562 1.218v.985h1.688v-.797c.422-.235.75-.656.844-1.172 0-.281.093-.516.187-.75l.188-.656s.046-.235-.188-.328-.328.14-.328.14l-.375.89h-.14V9.517s0-.235-.235-.235c-.281 0-.281.235-.281.235v1.687h-.094V9.375s0-.234-.281-.234"/><path fill="#ff9811" d="M11.484 1.781v.516h-.515v1.031h.515v.985a1.45 1.45 0 0 0-1.03-.422 1.547 1.547 0 0 0-1.079 2.672V7.5h5.25v-.937c.281-.329.469-.704.469-1.125a1.547 1.547 0 0 0-2.578-1.125v-.985h.515V2.297h-.515V1.78z"/></g></g><defs><clipPath id="a"><path fill="#fff" d="M0 0h24v24H0z"/></clipPath></defs></svg>