<svg xmlns="http://www.w3.org/2000/svg" fill="none" viewBox="0 0 24 24"><path fill="#f0f0f0" d="M12 24c6.627 0 12-5.373 12-12S18.627 0 12 0 0 5.373 0 12s5.373 12 12 12"/><path fill="#0052b4" d="M19.306 2.48A11.95 11.95 0 0 0 12 0C9.25 0 6.718.925 4.694 2.48L12 9.787zM2.48 4.694A11.95 11.95 0 0 0 0 12c0 2.75.925 5.282 2.48 7.306L9.787 12zM4.694 21.52A11.95 11.95 0 0 0 12 24c2.75 0 5.282-.925 7.306-2.48L12 14.213zm16.826-2.214A11.95 11.95 0 0 0 24 12c0-2.75-.925-5.282-2.48-7.306L14.213 12z"/></svg>