<svg xmlns="http://www.w3.org/2000/svg" fill="none" viewBox="0 0 24 24"><path fill="#F0F0F0" d="M12 24c6.627 0 12-5.373 12-12S18.627 0 12 0 0 5.373 0 12s5.373 12 12 12"/><path fill="#496E2D" d="M24 12c0 6.627-5.373 12-12 12S0 18.627 0 12"/><path fill="#D80027" d="M20.766 8.35a3.13 3.13 0 0 0-2.952-2.09H15.13A3.13 3.13 0 0 0 12 9.392c0 .565.15 1.108.412 1.566-.996-.009-1.919.006-2.499 0V7.889l.123-.123c.554-.553.37-1.476.37-1.476s-.923-.184-1.476.37l-.645.644h-.72a2.87 2.87 0 0 0-2.87 2.87h2.088v2.348c0 .343.069.67.194.968l-.716.597H5.217v-1.043H4.174v2.086H8.87v2.087H7.826v1.044h2.087v-2.087l.957-1.148h2.26l.957 1.148v1.043h-1.044v1.044h4.174v-5.74a1.565 1.565 0 0 1 1.632-1.563 2.09 2.09 0 0 1 1.917-2.608m-5.635 8.867v-2.19h.086l.957 1.147v1.043z"/></svg>