<svg xmlns="http://www.w3.org/2000/svg" fill="none" viewBox="0 0 24 24"><path fill="#FFDA44" d="M12 24c6.627 0 12-5.373 12-12S18.627 0 12 0 0 5.373 0 12s5.373 12 12 12"/><path fill="#A2001D" d="M5.237 2.087A11.94 11.94 0 0 1 12 0c2.509 0 4.838.77 6.764 2.087L12 2.609z"/><path fill="#0052B4" d="m12 12-.766-.766-.203.364z"/><path fill="#496E2D" d="M3.515 3.515c-4.687 4.686-4.687 12.284 0 16.97L12 12zm16.97 0c4.687 4.686 4.687 12.284 0 16.97L12 12z"/><path fill="#A2001D" d="M12 16.174a4.174 4.174 0 1 0 0-8.348 4.174 4.174 0 0 0 0 8.348"/><path fill="#FFDA44" d="m12 7.826.935 2.88h3.028l-2.45 1.78.937 2.88-2.45-1.78-2.45 1.78.936-2.88-2.45-1.78h3.028zM12 0h-.004.008z"/><path fill="#A2001D" d="M12.004 0h-.008a11.96 11.96 0 0 0-8.48 3.514h16.969A11.96 11.96 0 0 0 12.005 0m-8.49 20.486A11.96 11.96 0 0 0 12 24c3.313 0 6.313-1.343 8.485-3.514z"/><path fill="#FFDA44" d="m12 1.304.194.598h.629l-.509.37.195.598L12 2.5l-.508.37.194-.598-.509-.37h.629zm-2.91 0 .194.598h.629l-.509.37.195.598-.509-.37-.508.37.194-.598-.509-.37h.629zm5.82 0 .194.598h.629l-.509.37.194.598-.508-.37-.509.37.195-.598-.51-.37h.63zM12 21.13l.194.598h.629l-.509.37.195.598-.509-.37-.508.37.194-.598-.509-.37h.629zm-2.91 0 .194.598h.629l-.509.37.195.598-.509-.37-.508.37.194-.598-.509-.37h.629zm5.82 0 .194.598h.629l-.509.37.194.598-.508-.37-.509.37.195-.598-.51-.37h.63zM3.656 11.802a1.043 1.043 0 1 1-1.763 1.116c-.558-.882-.235-2.321-.235-2.321s1.44.323 1.998 1.205"/><path fill="#A2001D" d="M3.054 13.323a.522.522 0 1 0 0-1.044.522.522 0 0 0 0 1.044"/></svg>