<svg xmlns="http://www.w3.org/2000/svg" fill="none" viewBox="0 0 24 24"><path fill="#f0f0f0" d="M12 24c6.627 0 12-5.373 12-12S18.627 0 12 0 0 5.373 0 12s5.373 12 12 12"/><path fill="#d80027" d="M23.898 10.435H13.565V.102a12 12 0 0 0-3.13 0v10.333H.102a12 12 0 0 0 0 3.13h10.333v10.333a12 12 0 0 0 3.13 0V13.565h10.333a12 12 0 0 0 0-3.13"/><path fill="#d80027" d="M7.304 5.74V4.173H5.74v1.565H4.174v1.565h1.565V8.87h1.565V7.304H8.87V5.74zm10.956 0V4.173h-1.564v1.565H15.13v1.565h1.566V8.87h1.565V7.304h1.565V5.74zM7.304 16.696V15.13H5.74v1.566H4.174v1.565h1.565v1.565h1.565v-1.565H8.87v-1.565zm10.956 0V15.13h-1.564v1.566H15.13v1.565h1.566v1.565h1.565v-1.565h1.565v-1.565z"/></svg>