<svg xmlns="http://www.w3.org/2000/svg" fill="none" viewBox="0 0 24 24"><path fill="#ffda44" d="M0 12c0 1.468.264 2.874.746 4.174L12 16.696l11.254-.522c.482-1.3.746-2.706.746-4.174s-.264-2.874-.746-4.174L12 7.304.746 7.826A12 12 0 0 0 0 12"/><path fill="#d80027" d="M12 0C6.84 0 2.442 3.257.746 7.826h22.508C21.558 3.256 17.16 0 12 0"/><path fill="#496e2d" d="M23.254 16.174H.746C2.442 20.744 6.84 24 12 24s9.558-3.256 11.254-7.826"/><path fill="#000" d="m12 7.826 1.036 3.189h3.353l-2.713 1.97 1.036 3.189L12 14.204l-2.712 1.97 1.036-3.189-2.713-1.97h3.353z"/></svg>