<svg xmlns="http://www.w3.org/2000/svg" fill="none" viewBox="0 0 24 24"><path fill="#F0F0F0" d="M12 24c6.627 0 12-5.373 12-12S18.627 0 12 0 0 5.373 0 12s5.373 12 12 12"/><path fill="#A2001D" d="M12 0C7.039 0 2.781 3.01.954 7.304h22.092C21.22 3.011 16.961 0 12 0"/><path fill="#496E2D" d="M12 24c4.961 0 9.219-3.01 11.046-7.304H.954C2.78 20.989 7.039 24 12 24"/><path fill="#0052B4" d="M23.587 8.87H.413A12 12 0 0 0 0 12c0 1.083.144 2.132.413 3.13h23.174c.269-.998.413-2.047.413-3.13s-.144-2.132-.413-3.13"/></svg>