<svg xmlns="http://www.w3.org/2000/svg" fill="none" viewBox="0 0 24 24"><path fill="#f0f0f0" d="M12 24c6.627 0 12-5.373 12-12S18.627 0 12 0 0 5.373 0 12s5.373 12 12 12"/><path fill="#6da544" d="M7.304 7.826h15.95C21.558 3.256 17.16 0 12 0a11.96 11.96 0 0 0-8.485 3.515z"/><path fill="#d80027" d="M7.304 16.174h15.95C21.558 20.744 17.16 24 12 24a11.96 11.96 0 0 1-8.485-3.515z"/><path fill="#0052b4" d="M3.515 3.515c-4.687 4.686-4.687 12.284 0 16.97L12 12z"/><path fill="#dedde0" d="M14.087 9.913v2.609c0 1.597 2.087 2.087 2.087 2.087s2.087-.49 2.087-2.087V9.913z"/><path fill="#786145" d="M15.652 12.052h1.044v1.513h-1.044z"/><path fill="#6da544" d="M17.217 11.478a1.043 1.043 0 1 0-2.087 0 .522.522 0 1 0 0 1.044h2.087a.522.522 0 1 0 0-1.044"/></svg>