<svg xmlns="http://www.w3.org/2000/svg" fill="none" viewBox="0 0 24 24"><path fill="#D80027" d="M5.236 21.913A11.94 11.94 0 0 0 12 24c2.509 0 4.837-.77 6.763-2.087L12 20.869zM18.763 2.087A11.94 11.94 0 0 0 12 0C9.49 0 7.162.77 5.236 2.087L12 3.13z"/><path fill="#0052B4" d="M24 12c0-3.97-2.377-7.958-5.236-9.913H5.237A11.99 11.99 0 0 0 0 12c0 4.119 2.075 7.752 5.237 9.913h13.526A11.99 11.99 0 0 0 24 12"/><path fill="#D80027" d="M11.32 19.575c-.163-.14-4.016-3.49-4.016-7.575s3.853-7.434 4.017-7.575L12 3.843l.679.582c.164.14 4.016 3.49 4.016 7.575s-3.852 7.434-4.016 7.575l-.68.582z"/><path fill="#338AF3" d="M15.652 12C15.652 8.348 12 5.217 12 5.217S8.348 8.347 8.348 12c0 1.117.342 2.185.816 3.13h5.672c.474-.945.816-2.013.816-3.13"/><path fill="#0052B4" d="M15.652 12c0 1.117-.342 2.185-.816 3.13L12 15.653l-2.836-.521c-.474-.946-.816-2.014-.816-3.131z"/><path fill="#FFDA44" d="M12 18.783s1.76-1.509 2.836-3.653H9.165C10.24 17.275 12 18.784 12 18.784"/><path fill="#6DA544" d="M9.652 9.913h4.696L12 12.261z"/><path fill="#A2001D" d="M11.217 11.478h1.566v4.696h-1.566z"/></svg>