<svg xmlns="http://www.w3.org/2000/svg" fill="none" viewBox="0 0 24 24"><path fill="#ffda44" d="M12 0a12 12 0 0 0-3.13.413L7.826 12 8.87 23.587A12 12 0 0 0 12 24c6.627 0 12-5.373 12-12S18.627 0 12 0"/><path fill="#6da544" d="M7.826 12 8.87 23.587A12 12 0 0 0 12 24c6.627 0 12-5.373 12-12z"/><path fill="#d80027" d="M0 12c0 4.549 2.53 8.506 6.26 10.54V1.46A12 12 0 0 0 0 12"/><path fill="#d80027" d="M0 12c0 5.544 3.76 10.21 8.87 11.587V.413C3.76 1.79 0 6.456 0 12"/><path fill="#000" d="m4.534 8.87.777 2.39h2.515l-2.034 1.48.777 2.391-2.035-1.478L2.5 15.13l.777-2.391-2.034-1.478h2.514z"/></svg>