<svg xmlns="http://www.w3.org/2000/svg" fill="none" viewBox="0 0 24 24"><path fill="#F0F0F0" d="M12 24c6.627 0 12-5.373 12-12S18.627 0 12 0 0 5.373 0 12s5.373 12 12 12"/><path fill="#6DA544" d="M12 0C9.878 0 7.886.551 6.156 1.517v20.966A11.94 11.94 0 0 0 12 24c6.627 0 12-5.373 12-12S18.627 0 12 0"/><path fill="#F0F0F0" d="M6.192 1.498a12 12 0 0 0-1.907 1.311L13.475 12l-9.19 9.19a12 12 0 0 1 1.907 1.312L24 12z"/><path fill="#FFDA44" d="M5.178 2.127q-.55.38-1.052.818L12 12l-7.874 9.055q.503.438 1.052.818L21.946 12z"/><path fill="#000" d="M4.285 2.81q-.4.336-.77.705L10.957 12l-7.442 8.485q.37.37.77.706L13.475 12z"/><path fill="#D80027" d="M3.515 3.515c-4.687 4.686-4.687 12.284 0 16.97L12 12z"/></svg>