<svg xmlns="http://www.w3.org/2000/svg" fill="none" viewBox="0 0 24 24"><path fill="#d80027" d="M12 24c6.627 0 12-5.373 12-12S18.627 0 12 0 0 5.373 0 12s5.373 12 12 12"/><path fill="#f0f0f0" d="M13.239 9.078c-.273 1.135-.757.918-.995 1.907a2.609 2.609 0 1 1 1.22-5.072c-.476 1.978.019 2.15-.225 3.165m-3.635.841c.995.61.64 1.004 1.507 1.536a2.609 2.609 0 0 1-4.448-2.728c1.734 1.064 2.052.646 2.941 1.192m-.324 3.717c.888-.758 1.153-.298 1.927-.958a2.609 2.609 0 0 1-3.969 3.387c1.548-1.321 1.249-1.752 2.042-2.43m3.435 1.457c-.446-1.078.073-1.188-.316-2.128a2.609 2.609 0 1 1 1.995 4.821c-.778-1.88-1.28-1.729-1.679-2.693m2.447-2.817c-1.163.092-1.107-.436-2.122-.357a2.61 2.61 0 0 1 5.202-.407c-2.029.159-2.04.683-3.08.764"/></svg>