<svg xmlns="http://www.w3.org/2000/svg" fill="none" viewBox="0 0 24 24"><path fill="#f0f0f0" d="M12 24c6.627 0 12-5.373 12-12S18.627 0 12 0 0 5.373 0 12s5.373 12 12 12"/><path fill="#338af3" d="M12 24a12 12 0 0 0 10.81-6.783H1.19A12 12 0 0 0 12 24m0-24A12 12 0 0 0 1.19 6.783h21.62A12 12 0 0 0 12 0M7.385 7.826l.388 1.196h1.258l-1.017.739.388 1.196-1.017-.74-1.017.74.388-1.196-1.017-.74h1.257zm0 5.218.388 1.195h1.258l-1.017.74.388 1.195-1.017-.74-1.017.74.388-1.196-1.017-.739h1.257zm9.23-5.218.389 1.196h1.257l-1.017.739.388 1.196-1.017-.74-1.017.74.388-1.196-1.017-.74h1.258zm0 5.218.389 1.195h1.257l-1.017.74.388 1.195-1.017-.74-1.017.74.388-1.196-1.017-.739h1.258zM12 10.435l.389 1.196h1.257l-1.018.739.39 1.195L12 12.826l-1.017.74.388-1.197-1.017-.738h1.257z"/></svg>