<svg xmlns="http://www.w3.org/2000/svg" fill="none" viewBox="0 0 24 24"><path fill="#a2001d" d="M24 12c0 6.627-5.373 12-12 12S0 18.627 0 12 12 0 12 0s12 5.373 12 12"/><path fill="#0052b4" d="M0 12C0 5.373 5.373 0 12 0s12 5.373 12 12"/><path fill="#f0f0f0" d="M16.174 15.13 12 14.61l-4.174.521V8.87h8.348z"/><path fill="#0052b4" d="M12 14.609a2.087 2.087 0 1 0 0-4.174 2.087 2.087 0 0 0 0 4.174"/><path fill="#a2001d" d="M12 13.565a1.044 1.044 0 1 0 0-2.087 1.044 1.044 0 0 0 0 2.087"/><path fill="#6da544" d="M10.435 9.913h3.13L12 11.478z"/><path fill="#ffda44" d="M11.478 10.957h1.044v3.13h-1.044z"/><path fill="#6da544" d="M13.67 13.774h-3.34L7.826 15.13h8.348z"/></svg>