<svg xmlns="http://www.w3.org/2000/svg" fill="none" viewBox="0 0 24 24"><path fill="#f0f0f0" d="M12 24c6.627 0 12-5.373 12-12S18.627 0 12 0 0 5.373 0 12s5.373 12 12 12"/><path fill="#0052b4" d="M16.518 9.391h-3.012L12 6.783 10.494 9.39H7.48L8.988 12 7.48 14.609h3.013L12 17.217l1.506-2.608h3.012L15.012 12zM13.85 12l-.925 1.603h-1.85L10.15 12l.925-1.603h1.85zM12 8.795l.344.596h-.688zm-2.776 1.602h.689l-.344.597zm0 3.206.345-.597.344.597zM12 15.205l-.344-.596h.688zm2.775-1.602h-.688l.344-.597zm-.688-3.206h.688l-.344.597zm5.383-7.788H4.53a12 12 0 0 0-2.769 3.13H22.24a12 12 0 0 0-2.77-3.13M4.53 21.391h14.94a12 12 0 0 0 2.769-3.13H1.76a12 12 0 0 0 2.77 3.13"/></svg>