<svg xmlns="http://www.w3.org/2000/svg" fill="none" viewBox="0 0 24 24"><path fill="#f0f0f0" d="M12 24c6.627 0 12-5.373 12-12S18.627 0 12 0 0 5.373 0 12s5.373 12 12 12"/><path fill="#ff9811" d="M12 0A12 12 0 0 0 1.19 6.783h21.62A12 12 0 0 0 12 0"/><path fill="#6da544" d="M12 24a12 12 0 0 0 10.81-6.783H1.19A12 12 0 0 0 12 24"/><path fill="#0052b4" d="M12 16.174a4.174 4.174 0 1 0 0-8.348 4.174 4.174 0 0 0 0 8.348"/><path fill="#f0f0f0" d="M12 14.609a2.609 2.609 0 1 0 0-5.218 2.609 2.609 0 0 0 0 5.218"/><path fill="#0052b4" d="m12 8.78.805 1.826 1.983-.216L13.61 12l1.178 1.61-1.983-.216L12 15.219l-.805-1.825-1.983.216L10.39 12l-1.178-1.61 1.983.216z"/></svg>