<svg xmlns="http://www.w3.org/2000/svg" fill="none" viewBox="0 0 24 24"><path fill="#f0f0f0" d="M12 24c6.627 0 12-5.373 12-12S18.627 0 12 0 0 5.373 0 12s5.373 12 12 12"/><path fill="#0052b4" d="M22 13.436c-1 0-1-.914-2-.914s-1 .914-2 .914-1-.914-2-.914-1 .914-2 .914-1-.914-2-.914-1 .914-2 .914-1-.914-2-.914-1 .914-2 .914-1-.914-2-.914-1 .914-2 .914c-.995 0-1-.904-1.984-.914q.042.824.192 1.615c.797.117.867.899 1.792.899 1 0 1-.914 2-.914s1 .914 2 .914 1-.914 2-.914 1 .914 2 .914 1-.914 2-.914 1 .914 2 .914 1-.914 2-.914 1 .914 2 .914 1-.914 2-.914 1 .914 2 .914c.925 0 .995-.782 1.792-.899q.15-.791.192-1.615c-.984.01-.99.914-1.984.914m-2 2.216c-1 0-1 .915-2 .915s-1-.915-2-.915-1 .915-2 .915-1-.915-2-.915-1 .915-2 .915-1-.915-2-.915-1 .915-2 .915-1-.915-2-.915-1 .915-2 .915c-.737 0-.931-.496-1.382-.758.273.817.632 1.594 1.065 2.322q.14.035.317.035c1 0 1-.914 2-.914s1 .915 2 .915 1-.915 2-.915 1 .915 2 .915 1-.915 2-.915 1 .915 2 .915 1-.915 2-.915 1 .915 2 .915 1-.915 2-.915 1 .915 2 .915q.176-.002.317-.036c.433-.728.792-1.505 1.065-2.322-.451.262-.646.758-1.382.758-1 0-1-.915-2-.915m3.72-6.232c-.73.15-.823.886-1.72.886-1 0-1-.915-2-.915s-1 .915-2 .915-1-.915-2-.915-1 .915-2 .915-1-.915-2-.915c-.54 0-.79.267-1.061.513v1.6c.272-.246.52-.513 1.06-.513 1 0 1 .915 2 .915s1-.915 2-.915 1 .915 2 .915 1-.915 2-.915 1 .915 2 .915c.926 0 .996-.782 1.793-.9h.166q-.067-.81-.237-1.587m-.877-2.562a1.2 1.2 0 0 1-.844.318c-1 0-1-.914-2-.914s-1 .914-2 .914-1-.914-2-.914-1 .914-2 .914-1-.914-2-.914c-.54 0-.79.267-1.061.512v1.6c.272-.245.52-.512 1.06-.512 1 0 1 .914 2 .914s1-.914 2-.914 1 .914 2 .914 1-.914 2-.914 1 .914 2 .914c.71 0 .917-.46 1.334-.727a12 12 0 0 0-.489-1.191m-2.759-3.724L20 3.13c-1 0-1 .915-2 .915s-1-.915-2-.915-1 .915-2 .915-1-.915-2-.915c-.54 0-.79.267-1.061.513v1.6c.272-.246.52-.512 1.06-.512 1 0 1 .914 2 .914s1-.914 2-.914 1 .914 2 .914 1-.914 2-.914 1 .914 2 .914q.093 0 .174-.01a12 12 0 0 0-2.088-2.502M15.067.396c-.274.247-.522.518-1.067.518-1 0-1-.914-2-.914-.517 0-.767.245-1.026.48v1.6c.259-.235.509-.48 1.026-.48 1 0 1 .914 2 .914s1-.914 2-.914 1 .914 2 .914c.42 0 .663-.16.878-.348a12 12 0 0 0-3.81-1.77M14 22.827c-1 0-1-.914-2-.914s-1 .914-2 .914-1-.914-2-.914c-.766 0-.946.536-1.437.787 1.355.69 2.858 1.13 4.449 1.26.246-.226.496-.447.988-.447s.742.221.988.446c1.59-.13 3.094-.57 4.449-1.259-.492-.25-.671-.787-1.437-.787-1 0-1 .914-2 .914m4-3.13c-1 0-1-.914-2-.914s-1 .914-2 .914-1-.914-2-.914-1 .914-2 .914-1-.914-2-.914-1 .914-2 .914-1-.914-2-.914c-.72 0-.921.473-1.35.738q.403.501.857.956A1.2 1.2 0 0 1 4 20.383c1 0 1 .914 2 .914s1-.914 2-.914 1 .914 2 .914 1-.914 2-.914 1 .914 2 .914 1-.914 2-.914 1 .914 2 .914 1-.914 2-.914c.199 0 .358.036.493.094q.453-.455.857-.956c-.429-.265-.631-.738-1.35-.738-1 0-1 .914-2 .914"/><path fill="#f0f0f0" d="M11.968 12H12v-.032z"/><path fill="#0052b4" d="M12 6.26v3.526L7.826 5.74zM6.261 12h3.525L6.261 7.304l-.522 3.653z"/><path fill="#f0f0f0" d="M12 6.26V0h-.002C5.372.001 0 5.373 0 12h6.26V8.474L9.787 12h2.182l.032-.032V9.786L8.474 6.261z"/><path fill="#d80027" d="M6.071 1.565a12.06 12.06 0 0 0-4.506 4.506V12h3.13V4.696H12v-3.13z"/><path fill="#d80027" d="M12 10.524 7.737 6.261H6.26L12.001 12z"/><path fill="#6da544" d="M15.652 6.26h4.696L18 8.61z"/><path fill="#a2001d" d="M17.479 8.087h1.043v2.87h-1.043zm0 7.565h1.043v2.87h-1.043z"/><path fill="#ffda44" d="M21.13 14.087a1.565 1.565 0 0 0-2.608-1.166V12h.522v-1.043h-.522v-.522h-1.044v.521h-.521V12h.521v.92a1.565 1.565 0 0 0-2.087 2.333v.92h5.218v-.92a1.56 1.56 0 0 0 .521-1.166"/><path fill="#d80027" d="M19.565 13.565a.5.5 0 0 0-.347.133l-.696.623h-1.044l-.696-.623a.522.522 0 0 0-.695.778l.348.311v.343h3.13v-.343l.348-.311a.522.522 0 0 0-.348-.91"/></svg>