<svg xmlns="http://www.w3.org/2000/svg" fill="none" viewBox="0 0 24 24"><path fill="#f0f0f0" d="M12 24c6.627 0 12-5.373 12-12S18.627 0 12 0 0 5.373 0 12s5.373 12 12 12"/><path fill="#a2001d" d="M12 0C6.84 0 2.442 3.257.746 7.826h22.508C21.558 3.256 17.16 0 12 0"/><path fill="#000" d="M12 24c5.16 0 9.558-3.256 11.254-7.826H.746C2.442 20.744 6.84 24 12 24"/><path fill="#496e2d" d="M9.13 11.217H6.817a1.044 1.044 0 0 1 1.01-.782V8.87a2.61 2.61 0 0 0-2.61 2.608v1.305h3.914a.26.26 0 0 1 .26.26v.522H4.174v1.565h6.783v-2.087a1.83 1.83 0 0 0-1.827-1.826m3.914 2.348V8.87h-1.566v6.26h2.609v-1.565zm5.216 0V8.87h-1.564v4.695h-.522V12h-1.565v3.13h4.695v-1.565z"/></svg>