<svg xmlns="http://www.w3.org/2000/svg" fill="none" viewBox="0 0 24 24"><path fill="#f0f0f0" d="M12 24c6.627 0 12-5.373 12-12S18.627 0 12 0 0 5.373 0 12s5.373 12 12 12"/><path fill="#d80027" d="M15.898 8.87h-1.57q.02.258.02.521c0 1.161-.29 2.286-.796 3.087-.156.247-.418.596-.77.831V8.87h-1.565v4.44c-.35-.235-.613-.584-.769-.83-.506-.802-.796-1.927-.796-3.088q.001-.263.02-.521h-1.57q-.015.257-.015.521c0 3.219 1.719 5.74 3.913 5.74s3.913-2.521 3.913-5.74q0-.264-.015-.521"/><path fill="#6da544" d="M4.956 5.74h1.566v1.043h1.565V5.739h1.565v1.044h1.565V5.739h1.566v1.044h1.565V5.739h1.565v1.044h1.565V5.739h1.565v1.044h3.766A12 12 0 0 0 12 0 12 12 0 0 0 1.19 6.783h3.766z"/><path fill="#d80027" d="M19.043 17.217v1.044h-1.565v-1.044h-1.565v1.044h-1.565v-1.044h-1.565v1.044h-1.566v-1.044H9.652v1.044H8.087v-1.044H6.522v1.044H4.956v-1.044H1.191A12 12 0 0 0 12 24a12 12 0 0 0 10.81-6.783z"/></svg>