<svg xmlns="http://www.w3.org/2000/svg" fill="none" viewBox="0 0 24 24"><path fill="#ffda44" d="M12 24c6.627 0 12-5.373 12-12S18.627 0 12 0 0 5.373 0 12s5.373 12 12 12"/><path fill="#6da544" d="M19.306 2.48A11.95 11.95 0 0 0 12 0C9.25 0 6.718.925 4.694 2.48L12 9.787z"/><path fill="#000" d="M2.48 4.694A11.95 11.95 0 0 0 0 12c0 2.75.925 5.282 2.48 7.306L9.787 12z"/><path fill="#6da544" d="M4.694 21.52A11.95 11.95 0 0 0 12 24c2.75 0 5.282-.925 7.306-2.48L12 14.213z"/><path fill="#000" d="M21.52 19.306A11.95 11.95 0 0 0 24 12c0-2.75-.925-5.282-2.48-7.306L14.213 12z"/></svg>