<svg xmlns="http://www.w3.org/2000/svg" fill="none" viewBox="0 0 24 24"><path fill="#f0f0f0" d="M12 24c6.627 0 12-5.373 12-12S18.627 0 12 0 0 5.373 0 12s5.373 12 12 12"/><path fill="#000" d="M7.304 7.826h15.95C21.558 3.256 17.16 0 12 0a11.96 11.96 0 0 0-8.485 3.515z"/><path fill="#6da544" d="M7.304 16.174h15.95C21.558 20.744 17.16 24 12 24a11.96 11.96 0 0 1-8.485-3.515z"/><path fill="#d80027" d="M3.515 3.515c-4.687 4.686-4.687 12.284 0 16.97L12 12z"/><path fill="#f0f0f0" d="m4.763 9.391.658 1.377 1.488-.343-.667 1.373 1.196.949-1.489.335.004 1.527-1.19-.955-1.191.955.004-1.527-1.49-.335 1.197-.949-.666-1.373 1.487.343z"/></svg>