<svg xmlns="http://www.w3.org/2000/svg" fill="none" viewBox="0 0 24 24"><path fill="#f0f0f0" d="M12 24c6.627 0 12-5.373 12-12S18.627 0 12 0 0 5.373 0 12s5.373 12 12 12"/><path fill="#000" d="M12 0A12 12 0 0 0 1.19 6.783h21.62A12 12 0 0 0 12 0"/><path fill="#496e2d" d="M12 24a12 12 0 0 1-10.81-6.783h21.62A12 12 0 0 1 12 24"/><path fill="#a2001d" d="M23.433 8.348H.567A12 12 0 0 0 0 12c0 1.274.2 2.5.567 3.652h22.866A12 12 0 0 0 24 12c0-1.274-.2-2.5-.567-3.652"/><path fill="#f0f0f0" d="m15.737 5.545-1.421-.656L12 10.133 9.685 4.889l-1.422.656L11.138 12l-2.875 6.455 1.422.656L12 13.867l2.316 5.244 1.42-.656L12.863 12z"/><path fill="#f0f0f0" d="M12.965 6.164c-.55-.601-.965-.947-.965-.947s-.415.346-.965.947v11.672c.55.601.965.947.965.947s.415-.346.965-.947z"/><path fill="#a2001d" d="M9.391 8.402v7.196a12.6 12.6 0 0 0 1.826 2.434V5.968a12.6 12.6 0 0 0-1.826 2.434m5.218 0a12.6 12.6 0 0 0-1.826-2.434v12.064a12.6 12.6 0 0 0 1.826-2.434z"/><path fill="#000" d="M14.609 8.402v7.196c.588-1.043 1.043-2.276 1.043-3.598s-.455-2.555-1.043-3.598m-5.218 0v7.196C8.803 14.555 8.348 13.322 8.348 12s.455-2.555 1.043-3.598"/></svg>