<svg xmlns="http://www.w3.org/2000/svg" fill="none" viewBox="0 0 24 24"><path fill="#D80027" d="M12 24c6.627 0 12-5.373 12-12S18.627 0 12 0 0 5.373 0 12s5.373 12 12 12"/><path fill="#FFDA44" d="m17.869 12-2.398 1.128 1.277 2.322-2.604-.498-.33 2.63L12 15.649l-1.814 1.935-.33-2.63-2.604.497 1.277-2.322L6.131 12l2.398-1.128L7.252 8.55l2.604.498.33-2.63L12 8.351l1.814-1.935.33 2.63 2.604-.497-1.277 2.322z"/><path fill="#D80027" d="M12 15.652a3.652 3.652 0 1 0 0-7.304 3.652 3.652 0 0 0 0 7.304"/><path fill="#FFDA44" d="M10.174 12q-.132 0-.26.013c.002.506.186.969.488 1.329.161-.434.402-.83.705-1.169a2.6 2.6 0 0 0-.933-.173m1.124 1.966a2.08 2.08 0 0 0 1.404 0A2.6 2.6 0 0 0 12 12.748a2.6 2.6 0 0 0-.702 1.218m2.509-3.009a2.086 2.086 0 0 0-3.614 0 3.6 3.6 0 0 1 1.807.49 3.63 3.63 0 0 1 1.807-.49m-.914 1.216c.303.339.544.735.705 1.169.302-.36.485-.823.489-1.329a2.6 2.6 0 0 0-1.194.16"/></svg>