<svg xmlns="http://www.w3.org/2000/svg" fill="none" viewBox="0 0 24 24"><path fill="#d80027" d="M0 12c0 2.079.529 4.034 1.46 5.74L12 18.782l10.54-1.044C23.472 16.034 24 14.08 24 12s-.529-4.034-1.46-5.74L12 5.218 1.46 6.261A11.95 11.95 0 0 0 0 12"/><path fill="#0052b4" d="M1.459 6.26h21.082A12 12 0 0 0 12 0C7.45 0 3.494 2.53 1.459 6.26M12 24c4.548 0 8.506-2.53 10.54-6.26H1.46A12 12 0 0 0 11.999 24"/><path fill="#f0f0f0" d="M16.174 14.348v-1.565h-1.043v-2.087l-1.044-1.044-1.043 1.044V8.609L12 7.565 10.957 8.61v2.087L9.913 9.652 8.87 10.696v2.087H7.826v1.565H6.783v1.565h10.435v-1.565z"/></svg>