<svg xmlns="http://www.w3.org/2000/svg" fill="none" viewBox="0 0 24 24"><path fill="#d80027" d="M0 12C0 5.373 5.373 0 12 0s12 5.373 12 12"/><path fill="#ffda44" d="m16.174 11.16-1.706.802.909 1.652-1.852-.354-.235 1.87L12 13.755l-1.29 1.377-.235-1.871-1.852.354.909-1.652-1.706-.802 1.706-.802-.909-1.652 1.852.354.235-1.87L12 8.564l1.29-1.376.235 1.871 1.852-.354-.909 1.652zM15.13 3.913h-2.347a.783.783 0 0 0-1.565 0H8.87c0 .432.376.783.808.783h-.026c0 .432.35.782.783.782 0 .432.35.783.782.783h1.566c.432 0 .782-.35.782-.783.432 0 .783-.35.783-.782h-.026c.432 0 .809-.35.809-.783"/><path fill="#f0f0f0" d="M24 12c0 6.627-5.373 12-12 12S0 18.627 0 12z"/><path fill="#0052b4" d="M12 24c3.751 0 7.1-1.721 9.3-4.417-.396-.27-.61-.706-1.3-.706-1 0-1 .914-2 .914s-1-.914-2-.914-1 .914-2 .914-1-.914-2-.914-1 .914-2 .914-1-.914-2-.914-1 .914-2 .914-1-.914-2-.914c-.691 0-.905.436-1.3.706A11.98 11.98 0 0 0 12 24m10-10.47c-1 0-1-.914-2-.914s-1 .915-2 .915-1-.915-2-.915-1 .915-2 .915-1-.915-2-.915-1 .915-2 .915-1-.915-2-.915-1 .915-2 .915-1-.915-2-.915-1 .915-2 .915c-.995 0-1-.905-1.984-.915q.042.825.192 1.615c.797.117.867.9 1.792.9 1 0 1-.915 2-.915s1 .914 2 .914 1-.914 2-.914 1 .914 2 .914 1-.914 2-.914 1 .914 2 .914 1-.914 2-.914 1 .914 2 .914 1-.914 2-.914 1 .914 2 .914c.925 0 .995-.782 1.792-.899q.15-.79.192-1.614c-.984.01-.99.913-1.984.913m-2 2.217c-1 0-1 .914-2 .914s-1-.914-2-.914-1 .914-2 .914-1-.914-2-.914-1 .914-2 .914-1-.914-2-.914-1 .914-2 .914-1-.914-2-.914-1 .914-2 .914c-.715 0-.919-.467-1.342-.733a12 12 0 0 0 1.09 2.31q.114.023.252.023c1 0 1-.914 2-.914s1 .914 2 .914 1-.914 2-.914 1 .914 2 .914 1-.914 2-.914 1 .914 2 .914 1-.914 2-.914 1 .914 2 .914 1-.914 2-.914 1 .914 2 .914q.138 0 .252-.022c.442-.724.808-1.498 1.09-2.311-.423.266-.628.733-1.342.733-1 0-1-.914-2-.914"/><path fill="#f0f0f0" d="M23.963 11.052c-.963.023-.976.913-1.963.913-1 0-1-.914-2-.914s-1 .914-2 .914-1-.914-2-.914-1 .914-2 .914-1-.914-2-.914-1 .914-2 .914-1-.914-2-.914-1 .914-2 .914-1-.914-2-.914-1 .914-2 .914c-.987 0-1-.89-1.963-.913a12 12 0 0 0-.02 1.6c.983.01.99.913 1.983.913 1 0 1-.914 2-.914s1 .914 2 .914 1-.914 2-.914 1 .914 2 .914 1-.914 2-.914 1 .914 2 .914 1-.914 2-.914 1 .914 2 .914 1-.914 2-.914 1 .914 2 .914c.994 0 1-.903 1.982-.914a12 12 0 0 0-.02-1.6"/></svg>