<svg xmlns="http://www.w3.org/2000/svg" fill="none" viewBox="0 0 24 24"><path fill="#f0f0f0" d="M12 24c6.627 0 12-5.373 12-12S18.627 0 12 0 0 5.373 0 12s5.373 12 12 12"/><path fill="#d80027" d="M24 11.965H10.99c-2.582 2.583-4.144 4.577-5.739 6.172l6.783.61 10.525-1.043A11.95 11.95 0 0 0 24 12z"/><path fill="#ffda44" d="M5.252 6.226h17.27A12 12 0 0 0 12 0a11.96 11.96 0 0 0-8.467 3.498z"/><path fill="#0052b4" d="M5.774 17.704c-1.079 1.08-1.496 1.983-2.276 2.764A11.96 11.96 0 0 0 12 24c4.563 0 8.53-2.547 10.56-6.296z"/><path fill="#6da544" d="M3.515 3.48c-4.687 4.686-4.687 12.284 0 16.97L12 11.966z"/><path fill="#f0f0f0" d="M3.165 11.965a3.65 3.65 0 0 1 2.87-3.567 3.652 3.652 0 1 0 0 7.134 3.65 3.65 0 0 1-2.87-3.567"/><path fill="#f0f0f0" d="m5.995 8.835.194.598h.628l-.508.37.194.597-.508-.37-.51.37.195-.598-.508-.37H5.8zm0 1.565.194.598h.628l-.508.37.194.597-.508-.37-.51.37.195-.598-.508-.37H5.8zm0 1.565.194.598h.628l-.508.37.194.598-.508-.37-.51.37.195-.598-.508-.37H5.8z"/><path fill="#f0f0f0" d="m5.995 13.53.194.598h.628l-.508.37.194.598-.508-.37-.51.37.195-.598-.508-.37H5.8z"/></svg>