<svg xmlns="http://www.w3.org/2000/svg" fill="none" viewBox="0 0 24 24"><path fill="#FCFCFC" d="M12 24c6.627 0 12-5.373 12-12S18.627 0 12 0 0 5.373 0 12s5.373 12 12 12"/><path fill="#000" d="M16.178 10.164a4.595 4.595 0 0 0-8.794-1.867l-.567 2.054.522.522-1.043 2.087 1.043.522-.522.521v.522l.522.522v1.043l.522.522 1.565-.522s0 .522.522 1.044c.521.521 1.043 1.565 1.043 1.565s1.566.522 2.609-1.043c1.043-1.566 2.087-2.087 2.087-2.087l-1.006-2.012a4.58 4.58 0 0 0 1.497-3.393"/><path fill="#ACABB1" d="M16.553 11.921c2.12-.357 2.473-4.509 2.473-4.509h-2.922c1.513 3.652-.07 3.898-.07 3.898-.215-.16-7.893-3.797-8.136-3.89-.059.08-.275.285-.537.927a5 5 0 0 0-.327 1.219c.123.08 8.277 2.927 8.492 2.951.428.28.954 1.116.66 3.596L19 15.32s-.955-2.539-2.446-3.399"/></svg>