<svg xmlns="http://www.w3.org/2000/svg" fill="none" viewBox="0 0 24 24"><path fill="#0052B4" d="M12 24c6.627 0 12-5.373 12-12S18.627 0 12 0 0 5.373 0 12s5.373 12 12 12"/><path fill="#F0F0F0" d="m5.271 7.304.26.798h.837l-.678.492.26.797-.68-.491-.678.492.259-.797-.678-.492h.838zm2.609-.782.259.797h.838l-.678.493.259.797-.678-.493-.678.493.259-.797-.678-.493h.838zm2.608-.782.26.796h.838l-.678.493.258.797-.678-.492-.678.492.26-.797-.679-.493h.838zm8.241 1.564-.26.798h-.837l.678.492-.26.797.679-.492.678.492-.259-.797.678-.492h-.838zm-2.609-.782-.259.797h-.838l.678.493-.259.797.678-.493.678.493-.259-.797.678-.493h-.838zm-2.608-.782-.26.796h-.838l.678.493-.258.797.678-.492.678.492-.26-.797.679-.493h-.838z"/><path fill="#FFDA44" d="M14.087 12.522 12 9.913l-1.043.522v1.043L9.39 12.522H8.348v1.348a4.17 4.17 0 0 1 2.608 3.87H12v-1.044l1.043-1.044 1.044 1.044 1.043-1.044V14.61l1.044-1.565z"/></svg>