<svg xmlns="http://www.w3.org/2000/svg" fill="none" viewBox="0 0 24 24"><path fill="#f0f0f0" d="M12 24c6.627 0 12-5.373 12-12S18.627 0 12 0 0 5.373 0 12s5.373 12 12 12"/><path fill="#d80027" d="M16.174 12c0 1.043-1.869 3.652-4.174 3.652S7.826 13.044 7.826 12a4.174 4.174 0 1 1 8.348 0"/><path fill="#0052b4" d="M16.174 12a4.174 4.174 0 0 1-8.348 0"/><path fill="#000" d="m16.424 15.69 1.106-1.107.738.738-1.106 1.106zm-1.845 1.844 1.106-1.107.738.738-1.106 1.107zm4.058.369 1.107-1.107.738.738-1.107 1.106zm-1.844 1.844 1.106-1.106.738.737-1.107 1.107zm.737-2.951 1.107-1.106.738.737-1.107 1.107zm-1.844 1.844 1.107-1.106.737.738-1.106 1.106zm2.956-10.327-2.95-2.951.737-.738 2.95 2.95zm-2.952-.738L14.585 6.47l.738-.738 1.106 1.106zm1.845 1.845-1.107-1.107.738-.737 1.107 1.106zm.369-4.058-1.107-1.107.738-.738 1.106 1.107zm1.845 1.845L18.642 6.1l.738-.738 1.107 1.107zM4.254 16.794l2.951 2.95-.738.739-2.95-2.951zm2.951.737 1.106 1.107-.737.737-1.107-1.106zM5.36 15.687l1.107 1.107-.738.738-1.106-1.107zm1.107-1.107 2.951 2.951-.738.738-2.95-2.951zm.738-10.327-2.951 2.95-.738-.737 2.951-2.951zM8.311 5.36l-2.95 2.95-.738-.738 2.95-2.95zm1.108 1.106L6.468 9.417 5.73 8.68l2.951-2.951z"/></svg>