<svg xmlns="http://www.w3.org/2000/svg" fill="none" viewBox="0 0 24 24"><path fill="#F0F0F0" d="M12 24c6.627 0 12-5.373 12-12S18.627 0 12 0 0 5.373 0 12s5.373 12 12 12"/><path fill="#F0F0F0" d="M2.743 4.364h18.514A12 12 0 0 0 18.9 2.182H5.1c-.88.62-1.673 1.354-2.357 2.182M0 12q0 .552.05 1.09h23.9a12 12 0 0 0 0-2.18H.05Q0 11.446 0 12m1.309 5.455h21.383c.353-.692.641-1.422.856-2.182H.452q.324 1.142.857 2.182M5.1 21.818h13.8c.88-.62 1.673-1.354 2.357-2.182H2.743A12 12 0 0 0 5.1 21.818M.452 8.727h23.096a12 12 0 0 0-.856-2.182H1.309a12 12 0 0 0-.857 2.182"/><path fill="#D80027" d="M5.739 2.182H18.9A11.95 11.95 0 0 0 12 0c-1.565 0-4.31.808-6.261 2.182m5.739 4.363h11.213a12 12 0 0 0-1.434-2.181h-9.779zm0 4.365H23.95a12 12 0 0 0-.402-2.183h-12.07zM.452 15.273h23.096a12 12 0 0 0 .402-2.182H.05q.102 1.126.402 2.182m2.291 4.363h18.514a12 12 0 0 0 1.435-2.181H1.309c.399.78.88 1.511 1.434 2.181M12 24c2.569 0 4.948-.808 6.9-2.182H5.1A11.95 11.95 0 0 0 12 24"/><path fill="#0052B4" d="M.452 8.727A12 12 0 0 0 .05 10.91H12V0C6.507 0 1.876 3.69.452 8.727"/><path fill="#F0F0F0" d="m7.143 3.13.777 2.392h2.515L8.4 7l.777 2.391-2.034-1.478L5.11 9.391 5.886 7 3.852 5.522h2.514z"/></svg>