<svg xmlns="http://www.w3.org/2000/svg" fill="none" viewBox="0 0 24 24"><path fill="#f0f0f0" d="M0 12c0 1.87.428 3.64 1.19 5.217L12 17.74l10.81-.522A11.95 11.95 0 0 0 24 12c0-1.87-.428-3.64-1.19-5.217L12 6.26l-10.81.522A11.95 11.95 0 0 0 0 12"/><path fill="#6da544" d="M12 24a12 12 0 0 0 10.81-6.783H1.19A12 12 0 0 0 12 24"/><path fill="#0052b4" d="M12 0A12 12 0 0 0 1.19 6.783h21.62A12 12 0 0 0 12 0"/><path fill="#000" d="M12.783 11.74V8.87h-1.566v2.87l-1.89 1.89a3.128 3.128 0 0 0 5.346 0z"/></svg>