<svg xmlns="http://www.w3.org/2000/svg" fill="none" viewBox="0 0 24 24"><path fill="#000" d="M1.19 6.783A11.95 11.95 0 0 0 0 12c0 1.87.428 3.64 1.19 5.217L12 18.261l10.81-1.044A11.95 11.95 0 0 0 24 12c0-1.87-.428-3.64-1.19-5.217L12 5.739z"/><path fill="#496E2D" d="M1.191 17.217A12 12 0 0 0 12 24a12 12 0 0 0 10.809-6.783z"/><path fill="#D80027" d="M1.191 6.783H22.81A12 12 0 0 0 12 0 12 12 0 0 0 1.191 6.783"/><path fill="#F0F0F0" d="m14.793 9.806.985 1.356 1.594-.517-.986 1.356.984 1.357-1.594-.52-.986 1.356.001-1.676-1.594-.519 1.595-.517z"/><path fill="#F0F0F0" d="M12.106 15.391a3.391 3.391 0 1 1 1.613-6.375 4.174 4.174 0 1 0 0 5.967c-.48.26-1.03.408-1.613.408"/></svg>