<svg xmlns="http://www.w3.org/2000/svg" fill="none" viewBox="0 0 24 24"><path fill="#d80027" d="M12 24c6.627 0 12-5.373 12-12S18.627 0 12 0 0 5.373 0 12s5.373 12 12 12"/><path fill="#ffda44" d="M19.092 9.848h-5.418L12 4.696l-1.674 5.152H4.908l4.383 3.184-1.674 5.153L12 15l4.383 3.185-1.674-5.153zm-8.574 2.786.566-1.743h1.832l.566 1.743L12 13.71zm2.059-2.786h-1.154L12 8.072zm1.793 2.14-.357-1.097h1.867zm-4.383-1.097L9.63 11.99l-1.51-1.1zm-.385 4.562.577-1.776.933.678zm3.286-1.098.933-.678.577 1.776z"/></svg>