<svg xmlns="http://www.w3.org/2000/svg" fill="none" viewBox="0 0 24 24"><path fill="#FFDA44" d="M17.217 1.19A11.95 11.95 0 0 0 12 0c-1.87 0-3.64.428-5.217 1.19L5.739 12l1.044 10.81A11.95 11.95 0 0 0 12 24c1.87 0 3.64-.428 5.217-1.19L18.261 12z"/><path fill="#0052B4" d="M6.783 1.191A12 12 0 0 0 0 12a12 12 0 0 0 6.783 10.809zm10.434 0V22.81A12 12 0 0 0 24 12a12 12 0 0 0-6.783-10.809"/><path fill="#D80027" d="m15.391 13.044.783 1.043V9.913l-.783 1.043h-2.347V8.61l1.043-.783H9.913l1.043.783v2.348H8.61l-.783-1.044v4.174l.783-1.043h2.348v2.347l-1.044.783h4.174l-1.043-.783v-2.347z"/><path fill="#F0F0F0" d="M15.13 11.478h-2.608V8.87h-1.044v2.608H8.87v1.044h2.608v2.608h1.044v-2.608h2.608z"/></svg>