<svg xmlns="http://www.w3.org/2000/svg" fill="none" viewBox="0 0 24 24"><path fill="#FFDA44" d="M12 24c6.627 0 12-5.373 12-12S18.627 0 12 0 0 5.373 0 12s5.373 12 12 12"/><path fill="#A2001D" d="M24 12c0-4.118-2.075-7.752-5.236-9.913H5.237A11.99 11.99 0 0 0 0 12c0 4.119 2.075 7.752 5.237 9.913h13.526A11.99 11.99 0 0 0 24 12"/><path fill="#FFDA44" d="M9.391 8.87h5.218V6.783l-1.044.521L12 5.74l-1.565 1.565-1.044-.521zM16.696 12h-2.608a1.204 1.204 0 1 0-2.104-1.169A1.204 1.204 0 1 0 9.88 12H7.304c0 .798.695 1.445 1.493 1.445H8.75c0 .654.435 1.207 1.032 1.384L8.61 16.002l1.106 1.107 1.57-1.57q.092.034.191.053l-.949 2.142a3.9 3.9 0 0 0 2.945 0l-.948-2.142q.099-.018.19-.053l1.57 1.57 1.107-1.107-1.172-1.172a1.445 1.445 0 0 0 1.032-1.385h-.048c.797 0 1.493-.647 1.493-1.445"/><path fill="#6DA544" d="m12 12.783-1.696.782v1.566L12 16.174l1.696-1.043v-1.566z"/><path fill="#0052B4" d="M10.304 12h3.392v2.087h-3.392z"/></svg>