<svg xmlns="http://www.w3.org/2000/svg" fill="none" viewBox="0 0 24 24"><path fill="#338AF3" d="M12 24c6.627 0 12-5.373 12-12S18.627 0 12 0 0 5.373 0 12s5.373 12 12 12"/><path fill="#818085" d="M5.74 13.044h12.52v1.565H5.74z"/><path fill="#FFDA44" d="M7.826 8.348 12 8.87l4.174-.522V5.843l-1.67.835L12 4.174 9.496 6.678l-1.67-.835z"/><path fill="#F0F0F0" d="M6.783 16.174H5.217v-2.87l.522-.782-.522-.783V9.913h1.566zm12 0h-1.566v-6.26h1.566v1.825l-.522.796.522.77z"/><path fill="#ACABB1" d="M5.217 11.74h13.566v1.564H5.216z"/><path fill="#F0F0F0" d="M12 18.26a4.18 4.18 0 0 1-4.174-4.173v-5.74h8.348v5.74A4.18 4.18 0 0 1 12 18.261"/><path fill="#0052B4" d="M12 16.696a2.61 2.61 0 0 1-2.609-2.609V9.913h5.218v4.174A2.61 2.61 0 0 1 12 16.696"/><path fill="#D80027" d="M7.826 8.348h1.565v1.565H7.826zm6.783 0h1.565v1.565h-1.565zm0 3.392h1.565v1.564h-1.565zm-6.783 0h1.565v1.564H7.826zm3.391-3.392h1.566v1.565h-1.566zM12 16.696a2.6 2.6 0 0 1-.783-.12v1.61a4.2 4.2 0 0 0 1.566 0v-1.61c-.248.077-.51.12-.783.12M9.426 14.51l-1.249 1.25c.217.493.526.936.905 1.308l1.107-1.107a2.6 2.6 0 0 1-.763-1.45m6.397 1.249-1.25-1.25a2.6 2.6 0 0 1-.762 1.452l1.107 1.106a4.2 4.2 0 0 0 .905-1.308"/></svg>