<svg xmlns="http://www.w3.org/2000/svg" fill="none" viewBox="0 0 24 24"><path fill="#0052B4" d="M12 24c6.627 0 12-5.373 12-12 0-2.014-.497-3.912-1.373-5.578l-10.641 5.592 5.592-10.64A11.95 11.95 0 0 0 12 0C5.373 0 0 5.373 0 12c0 3.314 1.343 6.314 3.515 8.485A11.96 11.96 0 0 0 12 24"/><path fill="#F0F0F0" d="M22.614 6.435a12 12 0 0 0-2.143-2.906 12 12 0 0 0-2.906-2.143L3.5 20.5z"/><path fill="#FF9811" d="M3.5 20.5 22.614 6.434a12 12 0 0 0-2.143-2.906z"/><path fill="#F0F0F0" d="m10.42 7.037-1.465.69.78 1.419-1.59-.305-.202 1.608-1.109-1.183-1.108 1.183-.202-1.608-1.591.305.78-1.42-1.465-.689 1.465-.69-.78-1.419 1.591.305.202-1.608 1.108 1.182 1.109-1.182.201 1.608 1.592-.305-.78 1.42z"/></svg>