<svg xmlns="http://www.w3.org/2000/svg" fill="none" viewBox="0 0 24 24"><path fill="#ffda44" d="M12 24c6.627 0 12-5.373 12-12S18.627 0 12 0 0 5.373 0 12s5.373 12 12 12"/><path fill="#d80027" d="M13.825 23.862a11.94 11.94 0 0 0 5.271-2.185L12 12zM10.175.138a11.94 11.94 0 0 0-5.271 2.185L12 12zM4.904 21.677a11.94 11.94 0 0 0 5.27 2.185L12 12zM2.323 4.904a11.94 11.94 0 0 0-2.185 5.271L12 12zM.138 13.825a11.94 11.94 0 0 0 2.185 5.271L12 12zm23.724-3.65a11.94 11.94 0 0 0-2.185-5.271L12 12zm-4.766-7.852A11.94 11.94 0 0 0 13.825.138L12 12zm2.581 16.773a11.94 11.94 0 0 0 2.185-5.271L12 12z"/><path fill="#d80027" d="M12 16.174a4.174 4.174 0 1 0 0-8.348 4.174 4.174 0 0 0 0 8.348"/><path fill="#ffda44" d="M12 15.13a3.13 3.13 0 1 0 0-6.26 3.13 3.13 0 0 0 0 6.26"/></svg>