<svg xmlns="http://www.w3.org/2000/svg" fill="none" viewBox="0 0 24 24"><path fill="#0052b4" d="M12 24c1.468 0 2.874-.264 4.174-.746L16.696 12 16.174.746A12 12 0 0 0 12 0c-1.468 0-2.874.264-4.174.746L7.304 12l.522 11.254c1.3.482 2.706.746 4.174.746"/><path fill="#a2001d" d="M0 12c0 5.16 3.257 9.558 7.826 11.254V.746C3.256 2.442 0 6.84 0 12M16.174.746v22.508C20.744 21.558 24 17.16 24 12S20.743 2.442 16.174.746"/><path fill="#ffda44" d="M5.739 12h1.043v4.174H5.74zm-4.174 0H2.61v4.174H1.565zm2.609 2.609a1.043 1.043 0 1 0 0-2.087 1.043 1.043 0 0 0 0 2.087m0-4.174a.522.522 0 1 0 0-1.044.522.522 0 0 0 0 1.044M3.13 15.13h2.087v1.044H3.13zm0-4.173h2.087V12H3.13zM4.174 6.26l.37 1.138h1.195l-.967.703.37 1.137-.968-.703-.967.703.369-1.137-.967-.703h1.195z"/></svg>