<svg xmlns="http://www.w3.org/2000/svg" fill="none" viewBox="0 0 24 24"><path fill="#496e2d" d="M12 24c6.627 0 12-5.373 12-12S18.627 0 12 0 0 5.373 0 12s5.373 12 12 12"/><path fill="#f0f0f0" d="M14.087 11.5c-.295 0-.574.058-.834.152a2.6 2.6 0 0 0 .238-1.047c0-1.49-1.49-2.608-1.49-2.608s-1.492 1.118-1.492 2.608c0 .377.096.73.238 1.047a2.5 2.5 0 0 0-.834-.152c-1.49 0-2.609 1.49-2.609 1.49s1.118 1.491 2.61 1.491c.873 0 1.619-.512 2.086-.936.468.424 1.213.936 2.087.936 1.49 0 2.609-1.49 2.609-1.49S15.578 11.5 14.087 11.5"/><path fill="#ffda44" d="m12 4.696.308.947h.997l-.806.586.307.948L12 6.59l-.806.586.308-.948-.806-.586h.996zM8.211 6.353l.593.533.69-.398-.324.728.592.534-.793-.084-.324.728-.166-.78-.792-.083.69-.398zM5.437 9.127l.78.166.399-.69.083.792.78.166-.729.324.084.793-.534-.593-.728.325.399-.69zM15.79 6.353l-.593.533-.69-.398.324.728-.593.534.793-.084.324.728.166-.78.793-.083-.69-.398zm2.773 2.774-.78.166-.399-.69-.083.792-.78.166.729.324-.084.793.534-.593.728.325-.399-.69z"/><path fill="#f0f0f0" d="M12 18.655a5.2 5.2 0 0 0 3.151-1.06H8.85a5.2 5.2 0 0 0 3.15 1.06m-4.783-3.13q.25.569.623 1.06h8.32q.372-.491.623-1.06z"/></svg>