<svg xmlns="http://www.w3.org/2000/svg" fill="none" viewBox="0 0 24 24"><path fill="#338af3" d="M12 24c6.627 0 12-5.373 12-12S18.627 0 12 0 0 5.373 0 12s5.373 12 12 12"/><path fill="#f3f3f3" d="M11.622 19.556a.78.78 0 0 1-.696-.512.783.783 0 0 1-1.397-.36.784.784 0 0 1-1.294-.635.782.782 0 0 1-1.14-.881.781.781 0 0 1-.94-1.092.783.783 0 0 1-.701-1.26.783.783 0 0 1-.433-1.375.782.782 0 0 1-.147-1.433.783.783 0 0 1 .143-1.434.783.783 0 0 1 .43-1.377.784.784 0 0 1 .7-1.26.782.782 0 0 1 .937-1.095.782.782 0 0 1 1.137-.884.783.783 0 0 1 1.294-.637.783.783 0 0 1 1.394-.364.783.783 0 0 1 1.44-.074.783.783 0 0 1 1.425.215.783.783 0 0 1 1.353.498.783.783 0 0 1 1.224.761.783.783 0 0 1 1.046.99.783.783 0 0 1 .827 1.182.784.784 0 0 1 .571 1.323.782.782 0 0 1 .293 1.412c.28.118.476.395.477.719V12a.78.78 0 0 1-.476.72.782.782 0 0 1-.29 1.412.783.783 0 0 1-.568 1.325.783.783 0 0 1-.824 1.183.784.784 0 0 1-1.044.993.783.783 0 0 1-1.222.763.78.78 0 0 1-.51.699c-.304.113 0 0 0 0a.78.78 0 0 1-.842-.197.783.783 0 0 1-1.425.218.78.78 0 0 1-.703.44z"/><path fill="#338af3" d="M12 17.217a5.217 5.217 0 1 0 0-10.434 5.217 5.217 0 0 0 0 10.434"/><path fill="#bdbcc1" d="M13.142 10.229a1.04 1.04 0 0 0 .423-.838V8.87c0-.577-.467-1.044-1.043-1.044h-1.044c-.576 0-1.043.467-1.043 1.044v.521c0 .344.167.648.423.838l-.945 9.597s.522.522 2.087.522 2.087-.522 2.087-.522z"/><path fill="#f0f0f0" d="m12 7.826.906 2.79h2.934l-2.373 1.725.906 2.79L12 13.406 9.626 15.13l.907-2.79-2.373-1.724h2.933z"/></svg>