<svg xmlns="http://www.w3.org/2000/svg" fill="none" viewBox="0 0 24 24"><path fill="#f0f0f0" d="M12 24c6.627 0 12-5.373 12-12S18.627 0 12 0 0 5.373 0 12s5.373 12 12 12"/><path fill="#0052b4" d="M23.897 10.435a11.95 11.95 0 0 0-3.412-6.92 11.95 11.95 0 0 0-6.92-3.412v10.332zM10.435.103a11.95 11.95 0 0 0-6.92 3.412 11.95 11.95 0 0 0-3.412 6.92h10.332zM.103 13.565a11.95 11.95 0 0 0 3.412 6.92 11.95 11.95 0 0 0 6.92 3.412V13.565zm13.462 10.332a11.95 11.95 0 0 0 6.92-3.412 11.95 11.95 0 0 0 3.412-6.92H13.565z"/><path fill="#f0f0f0" d="M16.096 7.614c0-.16.13-.289.29-.289h.62a1.78 1.78 0 0 0 1.777-1.777 1.78 1.78 0 0 0-1.777-1.777h-.59a1.22 1.22 0 0 0-.733-.233c-.594 0-1.074.384-1.074.859 0 .47.471.85 1.056.858v.004h1.34a.29.29 0 0 1 0 .578h-.62a1.778 1.778 0 0 0 .001 3.554h2.396V7.904h-2.396a.29.29 0 0 1-.29-.29m-9.391 0c0-.16.13-.289.29-.289h.62A1.78 1.78 0 0 0 9.39 5.548a1.78 1.78 0 0 0-1.777-1.777h-.588a1.23 1.23 0 0 0-.735-.233c-.593 0-1.074.384-1.074.859 0 .47.472.85 1.057.858v.004h1.34a.29.29 0 0 1 0 .578h-.62c-.98 0-1.777.797-1.777 1.777s.797 1.777 1.777 1.777H9.39V7.904H6.994a.29.29 0 0 1-.289-.29m9.391 11.071c0-.16.13-.289.29-.289h.62a1.78 1.78 0 0 0 1.777-1.777 1.78 1.78 0 0 0-1.777-1.777h-.59a1.23 1.23 0 0 0-.733-.233c-.594 0-1.074.384-1.074.859 0 .47.471.85 1.056.858v.004h1.34a.29.29 0 0 1 0 .578h-.62a1.778 1.778 0 0 0 .001 3.554h2.397v-1.487h-2.397a.29.29 0 0 1-.29-.29m-9.391 0c0-.16.13-.289.29-.289h.62A1.78 1.78 0 0 0 9.39 16.62a1.78 1.78 0 0 0-1.777-1.777h-.588a1.23 1.23 0 0 0-.735-.233c-.593 0-1.074.384-1.074.859 0 .47.472.85 1.057.858v.004h1.34a.29.29 0 0 1 0 .578h-.62c-.98 0-1.777.797-1.777 1.777s.797 1.777 1.777 1.777H9.39v-1.487H6.994a.29.29 0 0 1-.289-.29"/></svg>