<svg xmlns="http://www.w3.org/2000/svg" fill="none" viewBox="0 0 24 24"><path fill="#0052B4" d="M24 12c0 6.627-5.373 12-12 12S0 18.627 0 12C0 12.003 12 .001 12 0c6.627 0 12 5.373 12 12"/><path fill="#F0F0F0" d="M11.968 12H12v-.032z"/><path fill="#F0F0F0" d="M12 6.26V0h-.002C5.371.001 0 5.373 0 12h6.26V8.474L9.787 12h2.182l.032-.032V9.786L8.474 6.261z"/><path fill="#D80027" d="M6.071 1.565a12.06 12.06 0 0 0-4.506 4.506V12h3.13V4.696H12v-3.13z"/><path fill="#D80027" d="M12 10.524 7.736 6.261H6.261L12 12z"/><path fill="#338AF3" d="M13.565 6.26V12c0 2.796 3.652 3.652 3.652 3.652S20.87 14.796 20.87 12V6.26z"/><path fill="#A2001D" d="M13.565 12c0 2.796 3.652 3.652 3.652 3.652S20.87 14.796 20.87 12z"/><path fill="#000" d="M18.783 8.87h-1.044V7.826h-1.043V8.87h-1.044v1.043h1.044v3.13h1.043v-3.13h1.044z"/></svg>