<svg xmlns="http://www.w3.org/2000/svg" fill="none" viewBox="0 0 24 24"><path fill="#F0F0F0" d="M12 24c6.627 0 12-5.373 12-12S18.627 0 12 0 0 5.373 0 12s5.373 12 12 12"/><path fill="#D80027" d="M11.478 12H24a12 12 0 0 0-.413-3.13H11.478zm0-6.26h10.76a12 12 0 0 0-2.768-3.131h-7.992zM12 24c2.824 0 5.42-.976 7.47-2.609H4.53A11.95 11.95 0 0 0 12 24M1.761 18.26H22.24a12 12 0 0 0 1.348-3.13H.413a11.9 11.9 0 0 0 1.348 3.13"/><path fill="#0052B4" d="M12 12V0C5.373 0 0 5.373 0 12z"/><path fill="#FFDA44" d="M7.98 10.272a2.967 2.967 0 1 1 1.41-5.578 3.652 3.652 0 1 0 0 5.221c-.42.228-.9.357-1.411.357"/><path fill="#FFDA44" d="m8.816 5.217.527 1.102 1.19-.275L10 7.143l.957.759-1.192.268.004 1.221-.953-.764-.953.764.004-1.22-1.192-.27.957-.758L7.1 6.044l1.19.275z"/></svg>