<svg xmlns="http://www.w3.org/2000/svg" fill="none" viewBox="0 0 24 24"><path fill="#F0F0F0" d="M12 24c6.627 0 12-5.373 12-12S18.627 0 12 0 0 5.373 0 12s5.373 12 12 12"/><path fill="#FFDA44" d="m6.486 16.696-2.97 3.789A11.96 11.96 0 0 0 12 24c4.96 0 9.218-3.01 11.045-7.304z"/><path fill="#496E2D" d="M23.064 7.348C21.247 3.03 16.978 0 12 0a11.96 11.96 0 0 0-8.485 3.515L6.52 7.348z"/><path fill="#000" d="M2.609 8.826v6.304h20.978A12 12 0 0 0 24 12c0-1.099-.148-2.163-.425-3.174z"/><path fill="#A2001D" d="M3.515 3.515c-4.687 4.686-4.687 12.284 0 16.97L12 12z"/><path fill="#FFDA44" d="m4.857 8.87.777 2.39h2.514l-2.034 1.48.777 2.391-2.034-1.478-2.035 1.478.777-2.391-2.034-1.478H4.08z"/><path fill="#F0F0F0" d="M2.583 12h4.548v2.087H2.583z"/><path fill="#000" d="m7.992 9.607-.738-.737-2.397 2.397L2.459 8.87l-.738.737 2.4 2.396-2.4 2.4.738.727 2.398-2.393 2.397 2.393.738-.727-2.4-2.4z"/></svg>