<svg xmlns="http://www.w3.org/2000/svg" fill="none" viewBox="0 0 24 24"><path fill="#F0F0F0" d="M12 24c6.627 0 12-5.373 12-12S18.627 0 12 0 0 5.373 0 12s5.373 12 12 12"/><path fill="#A2001D" d="M3.515 20.485q.756.756 1.604 1.348L21.833 5.119a12 12 0 0 0-2.952-2.952L2.167 18.882c.395.563.844 1.1 1.348 1.603"/><path fill="#0052B4" d="M3.515 3.515C-.271 7.3-.998 12.986 1.333 17.502l16.17-16.169C12.985-.997 7.3-.271 3.514 3.515"/><path fill="#496E2D" d="M20.485 20.485c3.786-3.785 4.513-9.471 2.182-13.987l-16.17 16.17c4.517 2.33 10.202 1.603 13.988-2.183"/><path fill="#FFDA44" d="m9.913 6.783-1.345.632.716 1.302-1.46-.279-.185 1.475-1.017-1.085-1.017 1.085-.185-1.475-1.46.28.716-1.303-1.344-.632 1.344-.633-.716-1.302 1.46.28.185-1.476 1.017 1.085L7.64 3.652l.185 1.475 1.46-.28L8.57 6.15z"/></svg>