<svg xmlns="http://www.w3.org/2000/svg" fill="none" viewBox="0 0 24 24"><path fill="#F0F0F0" d="M12 24c6.627 0 12-5.373 12-12S18.627 0 12 0 0 5.373 0 12s5.373 12 12 12"/><path fill="#338AF3" d="M12 0A12 12 0 0 0 1.19 6.783h21.62A12 12 0 0 0 12 0m0 24a12 12 0 0 0 10.81-6.783H1.19A12 12 0 0 0 12 24"/><path fill="#FFDA44" d="M12 8.348a3.652 3.652 0 1 0 0 7.304 3.652 3.652 0 0 0 0-7.304m0 5.739a2.087 2.087 0 1 1 0-4.174 2.087 2.087 0 0 1 0 4.174"/><path fill="#0052B4" d="M13.808 12.522 12 12l-1.807.522-.603 1.043h4.82z"/><path fill="#338AF3" d="m12 9.391-1.205 2.087L12 12l1.205-.522z"/><path fill="#6DA544" d="M10.193 12.522h3.614l-.602-1.044h-2.41z"/></svg>