<svg xmlns="http://www.w3.org/2000/svg" fill="none" viewBox="0 0 24 24"><path fill="#f0f0f0" d="M12 24c6.627 0 12-5.373 12-12S18.627 0 12 0 0 5.373 0 12s5.373 12 12 12"/><path fill="#d80027" d="M.413 15.13a12 12 0 0 0 4.283 6.39v-6.39zm10.543 8.824Q11.472 24 12 24c5.544 0 10.21-3.76 11.587-8.87h-12.63zM23.587 8.87C22.209 3.76 17.544 0 12 0q-.528 0-1.044.046V8.87zM4.696 2.48A12 12 0 0 0 .413 8.87h4.283z"/><path fill="#0052b4" d="M23.898 10.435H9.391V.285C8.282.531 7.231.93 6.261 1.46v8.976H.1a12 12 0 0 0 0 3.13h6.16v8.976c.97.53 2.021.928 3.13 1.174v-10.15h14.507a12 12 0 0 0 0-3.13"/></svg>