<svg xmlns="http://www.w3.org/2000/svg" fill="none" viewBox="0 0 24 24"><path fill="#F0F0F0" d="M12 24c6.627 0 12-5.373 12-12S18.627 0 12 0 0 5.373 0 12s5.373 12 12 12"/><path fill="#D80027" d="M2.903 4.174a12 12 0 0 0-1.142 1.565H22.24a12 12 0 0 0-1.143-1.565zm0 15.652h18.194q.632-.735 1.142-1.565H1.76q.51.83 1.142 1.565m7.562-10.02.985 1.356 1.595-.517-.987 1.356.985 1.357-1.594-.52-.986 1.356v-1.676L8.87 12l1.594-.517z"/><path fill="#D80027" d="M7.777 15.391A3.391 3.391 0 1 1 9.39 9.016a4.174 4.174 0 1 0 0 5.967c-.48.26-1.029.408-1.613.408"/></svg>