<svg xmlns="http://www.w3.org/2000/svg" fill="none" viewBox="0 0 24 24"><path fill="#f0f0f0" d="M12 24c6.627 0 12-5.373 12-12S18.627 0 12 0 0 5.373 0 12s5.373 12 12 12"/><path fill="#0052b4" d="M23.93 13.304 10.77.062q-.892.092-1.74.309C3.839 1.692 0 12 0 12s16.8 11.242 18.717 9.945q.575-.39 1.1-.841l-7.799-7.8z"/><path fill="#d80027" d="M20.87 12 9.199.33C3.923 1.59 0 6.336 0 12c0 6.627 5.373 12 12 12 2.514 0 4.847-.773 6.775-2.095L8.87 12z"/><path fill="#f0f0f0" d="m11.413 17.718-1.466-.689.78-1.42-1.59.305-.202-1.607-1.109 1.182-1.108-1.183-.202 1.608-1.591-.304.78 1.42-1.466.688 1.466.69-.78 1.42 1.591-.305.202 1.607 1.108-1.182 1.109 1.182.201-1.607 1.592.304-.78-1.42zm-.978-11.063-1.066-.5.568-1.033-1.158.221-.147-1.17-.806.86-.806-.86-.147 1.17-1.157-.221.568 1.032-1.066.501 2.608.522z"/><path fill="#f0f0f0" d="M10.957 6.655a3.13 3.13 0 0 1-6.261 0"/></svg>