<svg xmlns="http://www.w3.org/2000/svg" fill="none" viewBox="0 0 24 24"><path fill="#0052B4" d="M12 24c6.627 0 12-5.373 12-12S18.627 0 12 0 0 5.373 0 12s5.373 12 12 12"/><path fill="#FFDA44" d="M12 24c6.627 0 12-5.373 12-12S18.627 0 12 0 0 5.373 0 12s5.373 12 12 12"/><path fill="#0052B4" d="M12 0C5.724 0 .575 4.818.046 10.957h23.908C23.426 4.817 18.276 0 12 0m0 24c6.276 0 11.426-4.818 11.955-10.956H.044C.576 19.182 5.726 24 12 24"/><path fill="#F0F0F0" d="m9.913 16.174-1.345.632.716 1.303-1.46-.28-.185 1.475-1.017-1.084-1.017 1.084-.185-1.475-1.46.28.716-1.303-1.344-.632 1.344-.633-.716-1.302 1.46.28.185-1.476 1.017 1.085 1.017-1.085.185 1.476 1.46-.28-.715 1.302z"/></svg>