<svg xmlns="http://www.w3.org/2000/svg" fill="none" viewBox="0 0 24 24"><path fill="#FFDA44" d="M24 12c0 6.627-5.373 12-12 12S0 18.627 0 12C0 12.003 12 .001 12 0c6.627 0 12 5.373 12 12"/><path fill="#0052B4" d="M12 5.74v4.046L7.826 5.74zM6.261 12h3.525L6.261 7.304l-.522 3.653z"/><path fill="#F0F0F0" d="M11.968 12H12v-.032z"/><path fill="#F0F0F0" d="M12 6.26V0h-.002C5.371.001 0 5.373 0 12h6.26V8.474L9.787 12h2.182l.032-.032V9.786L8.474 6.261z"/><path fill="#D80027" d="M12 10.524 7.736 6.261H6.261L12 12z"/><path fill="#D80027" d="M6.071 1.565q-.695.396-1.327.878h.492l-1.301.945.497 1.53-1.302-.945-.138.1c-.54.614-1.02 1.283-1.427 1.998V12h3.13V4.696H12v-3.13z"/><path fill="#0052B4" d="M5.126 2.163q-.195.136-.382.28l-.81.945-.804.585-.14.101q-.441.503-.827 1.052a2.217 2.217 0 0 0 2.963-2.963"/><path fill="#FFDA44" d="m2.99 4.074.14-.101 1.302.945-.497-1.53 1.3-.945h-.492a12 12 0 0 0-1.752 1.631m5.303-1.987.26.797h.837l-.678.493.259.797-.678-.493-.678.493.259-.797-.678-.493h.838zM3.13 7.304l.26.797h.838l-.678.493.258.797L3.13 8.9l-.678.492.26-.797-.679-.493h.838z"/></svg>