<svg xmlns="http://www.w3.org/2000/svg" fill="none" viewBox="0 0 24 24"><path fill="#0052B4" d="M24 12c0 6.627-5.373 12-12 12S0 18.627 0 12C0 12.003 12 .001 12 0c6.627 0 12 5.373 12 12"/><path fill="#F0F0F0" d="M11.968 12H12v-.032z"/><path fill="#F0F0F0" d="M12 6.26V0h-.002C5.372.001 0 5.373 0 12h6.26V8.474L9.787 12h2.182l.032-.032V9.786L8.474 6.261z"/><path fill="#D80027" d="M6.071 1.565a12.06 12.06 0 0 0-4.506 4.506V12h3.13V4.696H12v-3.13z"/><path fill="#D80027" d="M12 10.524 7.737 6.261H6.26L12 12zm8.781-1.62.26.797h.837l-.678.493.26.797-.679-.492-.678.492.259-.797-.678-.493h.838zm-2.996 5.739.389 1.196h1.257l-1.018.74.39 1.195-1.018-.74-1.017.74.388-1.196-1.017-.739h1.257zm.113-9.391.324.997h1.047l-.847.615.324.997-.848-.616-.848.616.324-.997-.847-.615h1.047zM15.015 8.87l.389 1.195h1.257l-1.017.74.388 1.195-1.017-.739-1.017.739.389-1.196-1.018-.739h1.258z"/></svg>