<svg xmlns="http://www.w3.org/2000/svg" fill="none" viewBox="0 0 24 24"><path fill="#f0f0f0" d="M12 24c6.627 0 12-5.373 12-12S18.627 0 12 0 0 5.373 0 12s5.373 12 12 12"/><path fill="#d80027" d="M1.459 6.26h21.082A12 12 0 0 0 12 0C7.45 0 3.494 2.53 1.459 6.26M12 24c4.548 0 8.506-2.53 10.54-6.26H1.46A12 12 0 0 0 11.999 24"/><path fill="#ffda44" d="M16.174 12c0 2.305-1.869 3.652-4.174 3.652S7.826 14.305 7.826 12a4.174 4.174 0 1 1 8.348 0"/><path fill="#0052b4" d="M16.174 12a4.174 4.174 0 0 1-8.348 0"/><path fill="#d80027" d="M9.391 10.957h1.044v2.086H9.39zm4.174 0h1.043v2.086h-1.043zm-2.087-1.566h1.043v3.653h-1.043z"/></svg>