<svg xmlns="http://www.w3.org/2000/svg" fill="none" viewBox="0 0 24 24"><path fill="#000" d="M20.485 20.485c-4.686 4.687-12.284 4.687-16.97 0-4.687-4.686-4.687-12.284 0-16.97C8.2-1.172 15.06-.434 19.747 4.253s5.425 11.546.738 16.232"/><path fill="#A2001D" d="M3.515 3.515c4.686-4.687 12.284-4.687 16.97 0 4.687 4.686 4.687 12.284 0 16.97"/><path fill="#F0F0F0" d="m9.17 16.174.195.598h.628l-.508.37.194.597-.508-.37-.51.37.195-.598-.508-.37h.628zm-1.605-5.739.324.996h1.048l-.848.616.324.996-.848-.615-.847.615.324-.996-.848-.616h1.048zm0 7.305.324.996h1.048l-.848.615.324.997-.848-.616-.847.616.323-.997-.847-.615H7.24zm3.063-4.696.324.996H12l-.848.616.324.996-.848-.616-.847.616.323-.996-.847-.616h1.048zm-6.126 0 .324.996h1.047l-.847.616.323.996-.847-.616-.848.616.324-.996-.848-.616h1.048z"/><path fill="#FFDA44" d="M20.088 8.886a3.1 3.1 0 0 0-1.982-.908l2.242-1.743a4.16 4.16 0 0 0-3.257-1.21 3.1 3.1 0 0 0-.801-1.373l-.886 1.771a1.304 1.304 0 1 0-1.77 1.77l-1.771.886c.395.396.87.662 1.372.802a4.16 4.16 0 0 0 1.21 3.257l1.959-2.518a.78.78 0 0 1 .549-.226c.209 0 .405.082.553.23a.78.78 0 0 1 0 1.107l.738.737c.345-.345.535-.803.535-1.291 0-.4-.128-.778-.363-1.092a2.09 2.09 0 0 1 .934 3.49l.739.738a3.1 3.1 0 0 0 .916-2.214 3.1 3.1 0 0 0-.917-2.213"/></svg>