<svg xmlns="http://www.w3.org/2000/svg" fill="none" viewBox="0 0 24 24"><path fill="#f0f0f0" d="M12 24c6.627 0 12-5.373 12-12S18.627 0 12 0 0 5.373 0 12s5.373 12 12 12"/><path fill="#d80027" d="M12 0v12l-8.485 8.485A11.96 11.96 0 0 0 12 24c6.627 0 12-5.373 12-12S12 0 12 0"/><path fill="#0052b4" d="M12 0a11.96 11.96 0 0 0-8.485 3.515L12 12h12c0-6.627-5.373-12-12-12"/><path fill="#ffda44" d="m8.217 12-1.466-.69.78-1.419-1.59.305-.202-1.608L4.63 9.77 3.522 8.588l-.202 1.608-1.591-.305.78 1.42L1.043 12l1.466.69-.78 1.419 1.591-.305.202 1.608 1.108-1.183 1.109 1.183.201-1.608 1.592.305-.78-1.42zM3.2 4.696l.488.681.799-.253-.498.675.488.681-.795-.264-.498.674.006-.838-.795-.265.8-.253zm0 12.414.488.682.799-.253-.498.674.488.682-.795-.265-.498.674.006-.838-.795-.265.8-.253zm6.956-6.207-.487.682-.8-.254.498.675-.487.682.795-.265.498.674-.007-.838.796-.265-.8-.253z"/></svg>