<svg xmlns="http://www.w3.org/2000/svg" fill="none" viewBox="0 0 24 24"><path fill="#f0f0f0" d="M12 24c6.627 0 12-5.373 12-12S18.627 0 12 0 0 5.373 0 12s5.373 12 12 12"/><path fill="#f0f0f0" d="M0 12c0 4.549 2.53 8.506 6.26 10.54V1.46A12 12 0 0 0 0 12"/><path fill="#496e2d" d="M12 0C9.92 0 7.966.529 6.26 1.46v21.08A11.94 11.94 0 0 0 12 24c6.627 0 12-5.373 12-12S18.627 0 12 0"/><path fill="#f0f0f0" d="M17.13 13.985a3.391 3.391 0 1 1-2.425-6.112A4.174 4.174 0 1 0 18.2 12.71a3.4 3.4 0 0 1-1.07 1.275m-.064-6.159.855.922 1.14-.529-.612 1.098.855.922-1.233-.243-.612 1.098-.15-1.248-1.234-.243 1.14-.529z"/></svg>