<svg xmlns="http://www.w3.org/2000/svg" fill="none" viewBox="0 0 24 24"><path fill="#0052b4" d="M24 12c0 6.627-5.373 12-12 12S0 18.627 0 12C0 12.003 12 .001 12 0c6.627 0 12 5.373 12 12"/><path fill="#f0f0f0" d="M11.968 12H12v-.032z"/><path fill="#f0f0f0" d="M12 6.26V0h-.002C5.371.001 0 5.373 0 12h6.26V8.474L9.787 12h2.182l.032-.032V9.786L8.474 6.261z"/><path fill="#d80027" d="M6.071 1.565a12.06 12.06 0 0 0-4.506 4.506V12h3.13V4.696H12v-3.13z"/><path fill="#d80027" d="M12 10.524 7.737 6.261H6.26L12.001 12z"/><path fill="#acabb1" d="m18.783 7.304-1.566.522-1.565-.522L15.13 6l.522-1.304h3.13L18.261 6z"/><path fill="#338af3" d="M13.565 7.304v5.74c0 2.795 3.653 3.652 3.653 3.652s3.652-.857 3.652-3.653V7.304z"/><path fill="#6da544" d="M13.895 14.403c.897 1.724 3.323 2.293 3.323 2.293s2.425-.57 3.323-2.293L17.218 8.87z"/><path fill="#ffda44" d="m20.87 12.986-3.652-5.682-3.653 5.682v.057c0 .518.126.969.33 1.36l3.323-5.169 3.323 5.17c.203-.392.329-.843.329-1.36z"/></svg>