<svg xmlns="http://www.w3.org/2000/svg" fill="none" viewBox="0 0 24 24"><path fill="#F0F0F0" d="M12 24c6.627 0 12-5.373 12-12S18.627 0 12 0 0 5.373 0 12s5.373 12 12 12"/><path fill="#D80027" d="M12 0a11.98 11.98 0 0 0-9.6 4.8h19.2A11.98 11.98 0 0 0 12 0m0 24c3.926 0 7.411-1.885 9.6-4.8H2.4A11.98 11.98 0 0 0 12 24M0 12c0 .822.083 1.625.24 2.4h23.52a12.1 12.1 0 0 0 0-4.8H.24C.083 10.376 0 11.178 0 12"/><path fill="#0052B4" d="M3.515 3.515c-4.687 4.686-4.687 12.284 0 16.97L12 12z"/><path fill="#F0F0F0" d="m4.857 8.87.777 2.39h2.514l-2.034 1.48.777 2.391-2.034-1.478-2.035 1.478.777-2.391-2.034-1.478H4.08z"/></svg>