<svg xmlns="http://www.w3.org/2000/svg" fill="none" viewBox="0 0 24 24"><path fill="#F0F0F0" d="M12 24c6.627 0 12-5.373 12-12S18.627 0 12 0 0 5.373 0 12s5.373 12 12 12"/><path fill="#D80027" d="M12 0A12 12 0 0 0 1.19 6.783h21.62A12 12 0 0 0 12 0"/><path fill="#0052B4" d="M12 24a12 12 0 0 0 10.81-6.783H1.19A12 12 0 0 0 12 24"/><path fill="#6DA544" d="m14.951 8.527-1.106 1.107a2.609 2.609 0 1 1-3.69 0L9.05 8.527a4.174 4.174 0 1 0 5.903 0"/><path fill="#FFDA44" d="m12 9.913.389 1.196h1.257l-1.017.739.388 1.195L12 12.306l-1.017.739.388-1.196-1.017-.74h1.258z"/></svg>