<svg xmlns="http://www.w3.org/2000/svg" fill="none" viewBox="0 0 24 24"><path fill="#f0f0f0" d="M12 24c6.627 0 12-5.373 12-12S18.627 0 12 0 0 5.373 0 12s5.373 12 12 12"/><path fill="#0052b4" d="M12 0C5.373 0 0 5.373 0 12c0 1.468.264 2.874.746 4.174h22.508c.482-1.3.746-2.706.746-4.174 0-6.627-5.373-12-12-12"/><path fill="#d80027" d="M12 0C6.84 0 2.442 3.257.746 7.826h22.508C21.558 3.256 17.16 0 12 0"/><path fill="#d80027" d="M3.103 6.783v5.986c0 3.405 4.449 4.448 4.449 4.448S12 16.174 12 12.77V6.783z"/><path fill="#ffda44" d="M4.943 7.826h5.217V5.74l-1.043.522-1.565-1.565L5.986 6.26l-1.043-.522zm6.014 5.776-3.392-3.391-3.391 3.391L5.28 14.71l2.284-2.284 2.285 2.284z"/><path fill="#f0f0f0" d="M10.957 10.435H9.374A1.043 1.043 0 1 0 7.551 9.42a1.043 1.043 0 1 0-1.822 1.014H4.174c0 .576.502 1.043 1.078 1.043h-.035c0 .577.468 1.044 1.044 1.044 0 .51.366.934.85 1.025l-.822 1.856a3.38 3.38 0 0 0 2.552 0l-.822-1.856c.484-.09.85-.515.85-1.025.577 0 1.044-.467 1.044-1.044h-.035c.577 0 1.079-.467 1.079-1.043"/></svg>