<svg xmlns="http://www.w3.org/2000/svg" fill="none" viewBox="0 0 24 24"><path fill="#6DA544" d="M12 24c6.627 0 12-5.373 12-12S18.627 0 12 0 0 5.373 0 12s5.373 12 12 12"/><path fill="#F0F0F0" d="M6.782 14.348c0 .864.701 1.565 1.566 1.565h4.695c0 .72.584 1.304 1.305 1.304h1.565c.72 0 1.304-.584 1.304-1.304v-1.565zm10.566-7.565v3.652c0 .575-.468 1.043-1.044 1.043v1.566a2.61 2.61 0 0 0 2.609-2.61v-3.65zM6.13 10.435c0 .575-.468 1.043-1.043 1.043v1.566a2.61 2.61 0 0 0 2.609-2.61v-3.65H6.13z"/><path fill="#F0F0F0" d="M15 6.783h1.565v3.652H15zM12.652 8.87a.261.261 0 0 1-.522 0V6.783h-1.565V8.87a.261.261 0 0 1-.521 0V6.783H8.478V8.87a1.83 1.83 0 0 0 1.826 1.826 1.8 1.8 0 0 0 1.044-.33 1.82 1.82 0 0 0 1.274.315 1.044 1.044 0 0 1-1.013.797v1.566a2.61 2.61 0 0 0 2.608-2.61v-3.65h-1.565z"/><path fill="#F0F0F0" d="M8.478 11.478h2.348v1.566H8.478z"/></svg>