<svg xmlns="http://www.w3.org/2000/svg" fill="none" viewBox="0 0 24 24"><path fill="#F0F0F0" d="M12 24c6.627 0 12-5.373 12-12S18.627 0 12 0 0 5.373 0 12s5.373 12 12 12"/><path fill="#D80027" d="M23.898 10.435H13.565V.102a12 12 0 0 0-3.13 0v10.333H.102a12 12 0 0 0 0 3.13h10.333v10.333a12 12 0 0 0 3.13 0V13.565h10.333a12 12 0 0 0 0-3.13"/><path fill="#000" d="M17.74 4.174c-.973 0-1.79.665-2.022 1.565l2.021.522 2.021-.522a2.09 2.09 0 0 0-2.02-1.565"/><path fill="#000" d="m15.652 8.87 2.609.521V8.282a2.09 2.09 0 0 0 1.5-1.5l-2.022-.521H15.13l.522 1.565z"/><path fill="#ACABB1" d="M19.76 5.74h-4.63v2.086h.522V6.783h4.108a2.1 2.1 0 0 0 0-1.044"/><path fill="#000" d="M6.783 4.174c-.973 0-1.79.665-2.022 1.565l2.022.522 2.02-.522a2.09 2.09 0 0 0-2.02-1.565"/><path fill="#000" d="m4.696 8.87 2.608.521V8.282a2.09 2.09 0 0 0 1.5-1.5l-2.021-.521h-2.61l.523 1.565z"/><path fill="#ACABB1" d="M8.804 5.74h-4.63v2.086h.522V6.783h4.108a2.1 2.1 0 0 0 0-1.044"/><path fill="#000" d="M17.74 14.609c-.973 0-1.79.665-2.022 1.565l2.021.522 2.021-.522a2.09 2.09 0 0 0-2.02-1.565m-2.088 4.695 2.609.522v-1.11a2.09 2.09 0 0 0 1.5-1.499l-2.022-.521H15.13l.522 1.565z"/><path fill="#ACABB1" d="M19.76 16.174h-4.63v2.087h.522v-1.044h4.108a2.1 2.1 0 0 0 0-1.043"/><path fill="#000" d="M6.783 14.609c-.973 0-1.79.665-2.022 1.565l2.022.522 2.02-.522a2.09 2.09 0 0 0-2.02-1.565m-2.087 4.695 2.608.522v-1.11a2.09 2.09 0 0 0 1.5-1.499l-2.021-.521h-2.61l.523 1.565z"/><path fill="#ACABB1" d="M8.804 16.174h-4.63v2.087h.522v-1.044h4.108a2.1 2.1 0 0 0 0-1.043"/></svg>