<svg xmlns="http://www.w3.org/2000/svg" fill="none" viewBox="0 0 24 24"><path fill="#f0f0f0" d="M12 24c6.627 0 12-5.373 12-12S18.627 0 12 0 0 5.373 0 12s5.373 12 12 12"/><path fill="#ffda44" d="M20.1 3.147A11.96 11.96 0 0 0 12 0q-.767 0-1.51.094L4.697 6.783.38 15.006a12 12 0 0 0 1.255 3.043L12 12z"/><path fill="#6da544" d="m21.99 18.649-16.789 3.24A11.94 11.94 0 0 0 12 24c4.168 0 7.84-2.125 9.99-5.351"/><path fill="#d80027" d="M20.102 3.149 1.642 18.06a12 12 0 0 0 1.719 2.267L24 12c0-3.504-1.502-6.658-3.898-8.851"/><path fill="#0052b4" d="M0 12c0 1.038.132 2.045.38 3.006L10.49.094C4.577.836 0 5.884 0 12"/></svg>