<svg xmlns="http://www.w3.org/2000/svg" fill="none" viewBox="0 0 24 24"><path fill="#F0F0F0" d="M12 24c6.627 0 12-5.373 12-12S18.627 0 12 0 0 5.373 0 12s5.373 12 12 12"/><path fill="#D80027" d="M0 12C0 5.373 5.373 0 12 0s12 5.373 12 12"/><path fill="#F0F0F0" d="M7.304 6.26a3.65 3.65 0 0 1 2.87-3.566 3.652 3.652 0 1 0 0 7.135 3.65 3.65 0 0 1-2.87-3.568M12 2.87l.259.797h.838l-.678.492.26.797L12 4.464l-.678.492.259-.797-.678-.492h.838z"/><path fill="#F0F0F0" d="m9.967 4.435.259.797h.838l-.678.493.259.797-.678-.493-.679.493.26-.797-.679-.493h.839zm4.066 0 .26.797h.837l-.678.493.26.797-.679-.493-.678.493.26-.797-.679-.493h.838zm-.783 2.348.26.797h.838l-.679.492.26.797-.678-.492-.679.492.26-.797-.679-.492h.838zm-2.5 0 .258.797h.839l-.679.492.26.797-.679-.492-.678.492.26-.797-.679-.492h.838z"/></svg>