<svg xmlns="http://www.w3.org/2000/svg" fill="none" viewBox="0 0 24 24"><path fill="#338AF3" d="M24 12c0 6.627-5.373 12-12 12S0 18.627 0 12c.522 0 12-1.565 12-1.565z"/><path fill="#F0F0F0" d="M0 12C0 5.373 5.373 0 12 0s12 5.373 12 12"/><path fill="#6DA544" d="M16.763 8.28 12 13.044 7.237 8.28a5.7 5.7 0 0 0-.976 3.198v1.565a5.75 5.75 0 0 0 3.878 5.43 1.74 1.74 0 0 0 .19 1.875l1.706-1.367 1.705 1.367a1.74 1.74 0 0 0 .18-1.896 5.75 5.75 0 0 0 3.82-5.409v-1.565a5.7 5.7 0 0 0-.977-3.198"/><path fill="#FFDA44" d="M12 17.217a4.18 4.18 0 0 1-4.174-4.173v-1.566A4.18 4.18 0 0 1 12 7.304a4.18 4.18 0 0 1 4.174 4.174v1.566A4.18 4.18 0 0 1 12 17.217"/><path fill="#338AF3" d="M14.609 13.044v-1.566A2.61 2.61 0 0 0 12 8.87a2.61 2.61 0 0 0-2.609 2.608v1.566l2.609.521z"/><path fill="#6DA544" d="M9.391 13.044A2.61 2.61 0 0 0 12 15.652a2.61 2.61 0 0 0 2.609-2.608z"/><path fill="#FFDA44" d="M15.13 7.304a1.565 1.565 0 0 0-2.608-1.166v-.92h.521V4.173h-.521v-.522h-1.044v.522h-.521v1.043h.521v.921A1.565 1.565 0 0 0 9.391 8.47v.92h5.218v-.92c.32-.287.521-.703.521-1.167"/></svg>