<svg xmlns="http://www.w3.org/2000/svg" fill="none" viewBox="0 0 24 24"><path fill="#ffda44" d="M17.218 1.19A11.95 11.95 0 0 0 12 0c-1.87 0-3.64.428-5.217 1.19L5.739 12l1.044 10.81A11.95 11.95 0 0 0 12 24c1.87 0 3.64-.428 5.218-1.19L18.26 12z"/><path fill="#496e2d" d="m12 7.826 1.036 3.189h3.353l-2.713 1.97 1.036 3.189L12 14.204l-2.712 1.97 1.036-3.189-2.713-1.97h3.353zM6.783 1.191A12 12 0 0 0 0 12a12 12 0 0 0 6.783 10.809z"/><path fill="#d80027" d="M17.217 1.191V22.81A12 12 0 0 0 24 12a12 12 0 0 0-6.783-10.809"/></svg>