<svg xmlns="http://www.w3.org/2000/svg" fill="none" viewBox="0 0 24 24"><path fill="#F0F0F0" d="M12 24c6.627 0 12-5.373 12-12S18.627 0 12 0 0 5.373 0 12s5.373 12 12 12"/><path fill="#A2001D" d="M23.254 7.826H.746A12 12 0 0 0 0 12c0 1.468.264 2.874.746 4.174h22.508c.482-1.3.746-2.706.746-4.174s-.264-2.874-.746-4.174"/><path fill="#6DA544" d="M12.035 24c4.11 0 7.737-2.067 9.9-5.217h-19.8a11.99 11.99 0 0 0 9.9 5.217m0-24c4.11 0 7.737 2.067 9.9 5.217h-19.8A11.99 11.99 0 0 1 12.035 0"/><path fill="#FFDA44" d="m12 7.826 1.036 3.189h3.353l-2.713 1.97 1.037 3.189L12 14.204l-2.712 1.97 1.036-3.189-2.713-1.97h3.353z"/></svg>