<svg xmlns="http://www.w3.org/2000/svg" fill="none" viewBox="0 0 24 24"><path fill="#ffda44" d="M12 24c6.627 0 12-5.373 12-12S18.627 0 12 0 0 5.373 0 12s5.373 12 12 12"/><path fill="#6da544" d="M7.304 7.826h15.95C21.558 3.256 17.16 0 12 0a11.96 11.96 0 0 0-8.485 3.515zm0 8.348h15.95C21.558 20.744 17.16 24 12 24a11.96 11.96 0 0 1-8.485-3.515z"/><path fill="#d80027" d="M3.515 3.515c-4.687 4.686-4.687 12.284 0 16.97L12 12z"/><path fill="#000" d="m15.238 9.913.518 1.594h1.676l-1.356.986.518 1.594-1.356-.985-1.356.985.518-1.594-1.357-.986h1.677zm5.217 0 .518 1.594h1.677l-1.357.986.518 1.594-1.356-.985-1.356.985.518-1.594-1.356-.986h1.676z"/></svg>