<svg xmlns="http://www.w3.org/2000/svg" fill="none" viewBox="0 0 24 24"><path fill="#f0f0f0" d="M12 24c6.627 0 12-5.373 12-12S18.627 0 12 0 0 5.373 0 12s5.373 12 12 12"/><path fill="#0052b4" d="M12 0A12 12 0 0 0 1.19 6.783h21.62A12 12 0 0 0 12 0m0 24a12 12 0 0 0 10.81-6.783H1.19A12 12 0 0 0 12 24"/><path fill="#ffda44" d="M9.59 12.522 12 8.348l2.41 4.174z"/><path fill="#6da544" d="M15.13 13.9 12 15.465 8.87 13.9v-2.087h6.26z"/><path fill="#ffda44" d="m14.951 8.527-1.106 1.107a2.609 2.609 0 1 1-3.69 0L9.05 8.527a4.174 4.174 0 1 0 5.903 0"/></svg>