<svg xmlns="http://www.w3.org/2000/svg" fill="none" viewBox="0 0 24 24"><path fill="#d80027" d="M10.957 13.044s-7.435-9.531-7.442-9.53A11.96 11.96 0 0 1 12 0c6.627 0 12 5.373 12 12z"/><path fill="#0052b4" d="M10.957 12s-7.435 8.487-7.442 8.485A11.96 11.96 0 0 0 12 24c6.627 0 12-5.373 12-12z"/><path fill="#f0f0f0" d="M3.515 3.515c-4.687 4.686-4.687 12.284 0 16.97L12 12z"/><path fill="#ffda44" d="M1.315 12a3.391 3.391 0 1 0 6.76 0zm3.381-1.565a1.043 1.043 0 1 0 0-2.087 1.043 1.043 0 0 0 0 2.087"/><path fill="#d80027" d="M2.348 9.13v3.392c0 1.797 2.348 2.348 2.348 2.348s2.347-.551 2.347-2.348V9.13z"/><path fill="#338af3" d="M4.697 13.778c-.436-.157-1.306-.558-1.306-1.256v-2.348H6v2.348c0 .7-.87 1.1-1.303 1.255"/><path fill="#f3f3f3" d="M5.217 11.478v-.521l-.521-.261-.522.26v.522l-.26.261v1.044h1.564v-1.044z"/></svg>