<svg xmlns="http://www.w3.org/2000/svg" fill="none" viewBox="0 0 24 24"><path fill="#f0f0f0" d="M12 24c6.627 0 12-5.373 12-12S18.627 0 12 0 0 5.373 0 12s5.373 12 12 12"/><path fill="#d80027" d="M12 0C6.84 0 2.442 3.257.746 7.826h22.508C21.558 3.256 17.16 0 12 0"/><path fill="#000" d="M12 24c5.16 0 9.558-3.256 11.254-7.826H.746C2.442 20.744 6.84 24 12 24"/><path fill="#6da544" d="m7.17 9.13.648 1.993h2.095l-1.695 1.232.647 1.993-1.695-1.232-1.695 1.232.647-1.993-1.695-1.232h2.096zm9.66 0 .648 1.993h2.095l-1.695 1.232.647 1.993-1.695-1.232-1.695 1.232.647-1.993-1.695-1.232h2.096z"/></svg>