<svg xmlns="http://www.w3.org/2000/svg" fill="none" viewBox="0 0 24 24"><path fill="#FFDA44" d="M22.81 17.217A11.95 11.95 0 0 0 24 12c0-1.87-.428-3.64-1.19-5.217L12 6.26l-10.81.522A11.95 11.95 0 0 0 0 12c0 1.87.428 3.64 1.19 5.217L12 17.74z"/><path fill="#000" d="M12 0A12 12 0 0 0 1.19 6.783h21.62A12 12 0 0 0 12 0"/><path fill="#0052B4" d="M12 24a12 12 0 0 1-10.81-6.783h21.62A12 12 0 0 1 12 24"/><path fill="#A2001D" d="M23.433 8.348H.567A12 12 0 0 0 0 12c0 1.274.2 2.5.567 3.652h22.866A12 12 0 0 0 24 12c0-1.274-.2-2.5-.567-3.652"/><path fill="#FFDA44" d="M4.174 11.478h15.652v1.044H4.174zM6.26 9.391h11.48v1.044H6.261z"/><path fill="#F0F0F0" d="M17.814 12S15.13 15.13 12 15.13 8.87 12 8.87 12s0-3.13 3.13-3.13S17.814 12 17.814 12"/><path fill="#000" d="M12 15.13C8.87 15.13 6.186 12 6.186 12S8.87 8.87 12 8.87"/><path fill="#F0F0F0" d="M9.913 10.957h1.044v2.086H9.913z"/><path fill="#000" d="M13.044 10.957h1.043v2.086h-1.043z"/><path fill="#0052B4" d="M4.174 13.044a1.043 1.043 0 1 0 0-2.087 1.043 1.043 0 0 0 0 2.086m15.652.001a1.043 1.043 0 1 0 0-2.087 1.043 1.043 0 0 0 0 2.086"/></svg>