<svg xmlns="http://www.w3.org/2000/svg" fill="none" viewBox="0 0 24 24"><path fill="#0052B4" d="M24 12c0 6.627-5.373 12-12 12S0 18.627 0 12C0 12.003 12 .001 12 0c6.627 0 12 5.373 12 12"/><path fill="#F0F0F0" d="M11.968 12H12v-.032z"/><path fill="#F0F0F0" d="M12 6.26V0h-.002C5.371.001 0 5.373 0 12h6.26V8.474L9.787 12h2.182l.032-.032V9.786L8.474 6.261z"/><path fill="#D80027" d="M6.071 1.565a12.06 12.06 0 0 0-4.506 4.506V12h3.13V4.696H12v-3.13z"/><path fill="#D80027" d="M12 10.524 7.736 6.261H6.261L12 12z"/><path fill="#FFDA44" d="M13.565 6.26V12c0 2.796 3.652 3.652 3.652 3.652S20.87 14.796 20.87 12V6.26z"/><path fill="#FF9811" d="M16.696 8.348c0 .576-.468 2.087-1.044 2.087s-1.043-1.51-1.043-2.087c0-.576 1.043-1.044 1.043-1.044s1.044.468 1.044 1.044"/><path fill="#A2001D" d="M19.465 9.484c.168-.41.299-1.011.299-1.31 0-.48-.626-.87-.626-.87s-.626.39-.626.87c0 .299.13.9.299 1.31l-.361.816a1.82 1.82 0 0 0 1.376 0z"/><path fill="#6DA544" d="M16.435 12s-.522 1.043-.522 2.087h2.609C18.522 13.044 18 12 18 12l-.783-.522z"/><path fill="#D80027" d="M18 12v-.26a.783.783 0 1 0-1.565 0V12z"/></svg>