<svg xmlns="http://www.w3.org/2000/svg" fill="none" viewBox="0 0 24 24"><path fill="#f0f0f0" d="M1.19 6.783A11.95 11.95 0 0 0 0 12c0 1.87.428 3.64 1.19 5.217L12 18.261l10.81-1.044A11.95 11.95 0 0 0 24 12c0-1.87-.428-3.64-1.19-5.217L12 5.739z"/><path fill="#6da544" d="M1.191 17.217A12 12 0 0 0 12 24a12 12 0 0 0 10.809-6.783z"/><path fill="#d80027" d="M1.191 6.783H22.81A12 12 0 0 0 12 0 12 12 0 0 0 1.191 6.783"/><path fill="#ffda44" d="M9.913 15.13h4.174v-1.774l-.835.418L12 12.522l-1.252 1.252-.835-.417zm-2.388-2.086.194.597h.629l-.509.37.195.598-.509-.37-.509.37.195-.598-.509-.37h.629zm.602-2.087.195.597h.628l-.508.37.194.598-.509-.37-.508.37.194-.598-.509-.37h.629zM9.85 9.391l.194.598h.628l-.508.37.194.598-.509-.37-.508.37.194-.598-.509-.37h.629zm6.625 3.653-.194.597h-.629l.509.37-.194.598.508-.37.509.37-.195-.598.51-.37h-.63zm-.602-2.087-.194.597h-.629l.509.37-.195.598.509-.37.508.37-.194-.598.509-.37h-.629zm-1.722-1.566-.194.598h-.629l.509.37-.195.598.509-.37.508.37-.194-.598.509-.37h-.629zM12 8.609l.194.597h.629l-.509.37.195.598-.509-.37-.508.37.194-.598-.509-.37h.629z"/></svg>