<svg xmlns="http://www.w3.org/2000/svg" fill="none" viewBox="0 0 24 24"><path fill="#FFDA44" d="M12 24c6.627 0 12-5.373 12-12S18.627 0 12 0 0 5.373 0 12s5.373 12 12 12"/><path fill="#0052B4" d="M19.304 5.74a8 8 0 0 0-.156 1.617 7.86 7.86 0 0 0 4.591 7.139c.17-.806.261-1.64.261-2.496 0-6.627-5.373-12-12-12S0 5.373 0 12s5.373 12 12 12c4.11 0 7.737-2.067 9.9-5.217H6.783v-1.566h16.026q.247-.509.445-1.043H6.783z"/><path fill="#F0F0F0" d="m8.816 6.26.259.798h.838l-.678.493.26.797-.679-.493-.678.493.259-.797-.678-.493h.838zM5.411 12l.324.996h1.048l-.848.616.324.997-.848-.616-.847.616.323-.997-.847-.616h1.047zm0-8.348.324.997h1.048l-.848.615.324.997-.848-.616-.847.616.323-.997-.847-.615h1.047zM2.803 8.348l.323.996h1.048l-.848.616.324.996-.847-.615-.848.616.324-.997-.848-.616H2.48z"/></svg>