<svg xmlns="http://www.w3.org/2000/svg" fill="none" viewBox="0 0 24 24"><path fill="#FFDA44" d="M12 24c6.627 0 12-5.373 12-12S18.627 0 12 0 0 5.373 0 12s5.373 12 12 12"/><path fill="#D80027" d="M12 0a11.95 11.95 0 0 0-7.715 2.81L17.218 12 4.285 21.19A11.95 11.95 0 0 0 12 24c6.628 0 12-5.373 12-12S18.628 0 12 0"/><path fill="#000" d="M3.515 3.515c-4.687 4.686-4.687 12.284 0 16.97L12 12z"/><path fill="#F0F0F0" d="m3.327 9.251 1.826 1.728 2.209-1.203-1.08 2.271 1.827 1.729-2.494-.325-1.08 2.271-.461-2.472-2.493-.325 2.208-1.202z"/></svg>