<svg xmlns="http://www.w3.org/2000/svg" fill="none" viewBox="0 0 24 24"><path fill="#496E2D" d="M12 0c-.896 0-1.769.099-2.609.285L8.87 12l.521 11.715c.84.186 1.713.285 2.609.285 6.627 0 12-5.373 12-12S18.627 0 12 0M3.13 3.917A11.96 11.96 0 0 0 0 12a11.96 11.96 0 0 0 3.13 8.083L3.652 12z"/><path fill="#F0F0F0" d="M17.55 9.052a3.65 3.65 0 0 0-1.495-4.327q.385.048.765.184a3.652 3.652 0 1 1-3.175 6.531 3.65 3.65 0 0 0 3.906-2.388m-3.274-4.778-.513.663-.79-.283.473.692-.513.663.804-.235.472.693.025-.838.805-.234-.789-.283z"/><path fill="#F0F0F0" d="m15.662 6.434-.513.663-.79-.284.473.693-.513.663.804-.235.472.693.026-.838.804-.235-.789-.283zM11.834 5.06l-.513.663-.789-.283.472.693-.513.663.805-.235.472.693.025-.838.805-.235-.79-.283zm-.056 2.475-.513.662-.789-.283.472.693-.513.663.804-.235.472.693.026-.838.804-.235-.789-.283zm2.354.845-.513.662-.789-.283.472.693-.513.663.805-.235.472.693.025-.838.805-.235-.79-.283z"/><path fill="#D80027" d="M3.13 3.917v16.166a12 12 0 0 0 6.261 3.632V.285a12 12 0 0 0-6.26 3.632"/><path fill="#F0F0F0" d="m5.52 6.318-1.049-.78V4.432l1.049-.78h1.482l1.048.78v1.104l-1.048.781z"/><path fill="#FF9811" d="M6.26 3.652h-.74l-1.049.781v.54h1.79zm0 2.666h.742l1.048-.78v-.564H6.26z"/><path fill="#F0F0F0" d="m5.52 20.348-1.049-.781v-1.104l1.049-.781h1.482l1.048.78v1.105l-1.048.78z"/><path fill="#FF9811" d="M6.26 17.682h-.74l-1.049.78v.54h1.79zm0 2.666h.742l1.048-.781v-.563H6.26z"/><path fill="#496E2D" d="m5.52 13.333-1.049-.781v-1.104l1.049-.781h1.482l1.048.78v1.105l-1.048.78zm2.567 1.717H7.63v-.456h-.802l-.567-.567-.567.567H4.89v.457h-.456v.913h.456v.456h.803l.567.568.567-.568h.802v-.456h.457zm0-7.014H7.63v-.457h-.802l-.567-.567-.567.567H4.89v.457h-.456v.913h.456v.457h.803l.567.567.567-.567h.802v-.457h.457z"/><path fill="#D80027" d="M5.739 11.478h1.043v1.044H5.74zm.521-2.464a.522.522 0 1 0 0-1.043.522.522 0 0 0 0 1.043m0 7.016a.522.522 0 1 0 0-1.044.522.522 0 0 0 0 1.043"/></svg>