<svg xmlns="http://www.w3.org/2000/svg" fill="none" viewBox="0 0 24 24"><path fill="#D80027" d="M12 24c6.627 0 12-5.373 12-12S18.627 0 12 0 0 5.373 0 12s5.373 12 12 12"/><path fill="#F0F0F0" d="M12 17.74a5.74 5.74 0 1 0 0-11.48 5.74 5.74 0 0 0 0 11.48"/><path fill="#D80027" d="m12.707 9.806.985 1.356 1.594-.517-.986 1.356.985 1.357-1.594-.52-.987 1.356.002-1.676L11.112 12l1.594-.517z"/><path fill="#D80027" d="M13.304 15.391a3.391 3.391 0 1 1 1.614-6.375 4.174 4.174 0 1 0 0 5.967 3.4 3.4 0 0 1-1.614.408"/></svg>