<svg xmlns="http://www.w3.org/2000/svg" fill="none" viewBox="0 0 24 24"><path fill="#F0F0F0" d="M6.498 1.333a12 12 0 0 0-2.984 2.181c-.9.901-1.627 1.91-2.181 2.984l7.715 8.454 8.454 7.715a12 12 0 0 0 2.983-2.181 12 12 0 0 0 2.182-2.984L14.951 9.05z"/><path fill="#000" d="M20.485 20.486a12 12 0 0 0 1.348-1.604L5.118 2.167a12.1 12.1 0 0 0-2.951 2.951L18.88 21.833q.848-.593 1.604-1.347"/><path fill="#D80027" d="M3.514 20.486c3.786 3.786 9.472 4.512 13.988 2.181L1.332 6.497C-.998 11.015-.27 16.7 3.514 20.487M20.485 3.514C16.7-.272 11.014-.998 6.498 1.332l16.17 16.17c2.33-4.516 1.603-10.202-2.183-13.988"/></svg>