<svg xmlns="http://www.w3.org/2000/svg" fill="none" viewBox="0 0 24 24"><path fill="#338AF3" d="M24 12c0 6.627-5.373 12-12 12S0 18.627 0 12C0 12.003 12 .001 12 0c6.627 0 12 5.373 12 12"/><path fill="#0052B4" d="M5.74 12h4.047L6.26 7.826l-.522 1.565zM12 9.786 7.826 5.74H12z"/><path fill="#F0F0F0" d="M11.968 12H12v-.032z"/><path fill="#F0F0F0" d="M12 6.26V0h-.002C5.372.001 0 5.373 0 12h6.26V8.474L9.787 12h2.182l.032-.032V9.786L8.474 6.261z"/><path fill="#D80027" d="M6.071 1.565a12.06 12.06 0 0 0-4.506 4.506V12h3.13V4.696H12v-3.13z"/><path fill="#D80027" d="M12 10.524 7.737 6.261H6.26L12.001 12z"/><path fill="#FFDA44" d="m13.097 19.826.26.797h.837l-.678.493.26.797-.679-.493-.678.493.26-.797-.679-.493h.838zm6.676-5.217.259.797h.838l-.678.492.259.798-.678-.493-.679.493.26-.798-.679-.492h.838zm1.672-7.826.259.797h.838l-.678.492.259.798-.678-.493-.678.493.259-.798-.678-.492h.838zm.415 5.739.258.797h.839l-.678.493.259.797-.679-.493-.678.493.26-.797-.679-.493h.838zm-7.561 5.429.747.38.593-.592-.131.828.746.38-.828.132-.13.827-.381-.746-.828.13.593-.592zm0-3.131.747.381.593-.592-.131.828.746.38-.828.131-.13.828-.381-.747-.828.131.593-.592zm2.609 2.007.747.38.592-.592-.13.828.746.38-.828.132-.13.828-.381-.747-.828.131.592-.593zm0-6.702.747.38.592-.592-.13.828.746.38-.828.131-.13.828-.381-.746-.828.13.592-.592zm2.528-.08.747.38.593-.592-.131.828.747.38-.828.131-.131.828-.381-.747-.828.131.593-.592z"/></svg>