<svg xmlns="http://www.w3.org/2000/svg" fill="none" viewBox="0 0 24 24"><path fill="#ffda44" d="M20.943 20A11.95 11.95 0 0 0 24 12c0-3.074-1.156-5.877-3.057-8L12 3.13 3.057 4A11.95 11.95 0 0 0 0 12c0 3.074 1.156 5.877 3.057 8l8.943.87z"/><path fill="#000" d="M3.057 4h17.886A11.97 11.97 0 0 0 12 0a11.97 11.97 0 0 0-8.943 4"/><path fill="#d80027" d="m0 12 12 1.043L24 12c0-1.403-.241-2.749-.684-4H.684A12 12 0 0 0 0 12"/><path fill="#000" d="M.684 16h22.632A12 12 0 0 0 24 12H0c0 1.403.241 2.749.684 4"/><path fill="#d80027" d="M20.944 20H3.057c2.197 2.455 5.39 4 8.943 4s6.746-1.545 8.944-4"/><path fill="#f0f0f0" d="M16.004 12a4.004 4.004 0 1 1-8.008 0 4.004 4.004 0 0 1 8.008 0"/><path fill="#000" d="M13.467 12.204 12 11.568s.343-1.139.361-1.217a.78.78 0 0 0-.209-.73l.37-.37a1.3 1.3 0 0 0-1.845 0l.369.37a.78.78 0 0 0-.196.78l-.555.556h1.01s-.418.626-.646 1.141a1.053 1.053 0 0 0 .53 1.378l.304.135.507.476v.522l-.522.521h1.044v-1.043l.476-.476h.985l.014-.03a1.043 1.043 0 0 0-.53-1.377"/></svg>