<svg xmlns="http://www.w3.org/2000/svg" fill="none" viewBox="0 0 24 24"><path fill="#F0F0F0" d="M12 24c6.627 0 12-5.373 12-12S18.627 0 12 0 0 5.373 0 12s5.373 12 12 12"/><path fill="#D80027" d="M12 24c3.043 0 5.82-1.133 7.936-3H4.064c2.115 1.867 4.893 3 7.936 3"/><path fill="#0052B4" d="M.378 15a12 12 0 0 0 1.228 3h20.788c.537-.929.954-1.936 1.228-3L12 14.087zm23.244-6a12 12 0 0 0-1.228-3L12 5.74V0c-.891 0-1.76.097-2.596.282C9.388.285 1.565 6.456 1.565 12c.2.035 10.435 1.043 10.435 1.043V9z"/><path fill="#F0F0F0" d="M12 7.487v-6H8.2L9.404.282C4.46 1.373.66 5.513.078 10.631Q.002 11.305 0 12h6.078V9.608L8.494 12h4.293L8.2 7.487z"/><path fill="#D80027" d="M12.006 12 7.491 7.487H6.078L10.591 12H4.565V6h17.83a12 12 0 0 0-2.459-3H4.566v-.418a12.1 12.1 0 0 0-3 3.49V12H0c0 1.036.131 2.041.378 3h23.244c.247-.959.378-1.964.378-3z"/></svg>