<svg xmlns="http://www.w3.org/2000/svg" fill="none" viewBox="0 0 24 24"><path fill="#f0f0f0" d="M12 24c6.627 0 12-5.373 12-12S18.627 0 12 0 0 5.373 0 12s5.373 12 12 12"/><path fill="#338af3" d="M12 8.87h11.587a12 12 0 0 0-1.348-3.13H12zM4.53 21.391h14.94a12 12 0 0 0 2.769-3.13H1.76a12 12 0 0 0 2.77 3.13M12 0v2.609h7.47A11.95 11.95 0 0 0 12 0"/><path fill="#338af3" d="M12 8.87h11.587a12 12 0 0 0-1.348-3.13H12zM0 12c0 1.083.144 2.132.413 3.13h23.174A12 12 0 0 0 24 12z"/><path fill="#ffda44" d="m10.435 7.023-1.466.69.78 1.419-1.59-.305-.202 1.608-1.109-1.183-1.108 1.183-.202-1.608-1.591.305.78-1.42-1.466-.69 1.466-.688-.78-1.42 1.591.305.202-1.608 1.108 1.182 1.109-1.182.201 1.608 1.592-.305-.78 1.42z"/></svg>