<svg xmlns="http://www.w3.org/2000/svg" fill="none" viewBox="0 0 24 24"><path fill="#f0f0f0" d="M.567 8.348A12 12 0 0 0 0 12c0 1.274.2 2.5.567 3.652L12 16.174l11.433-.522C23.801 14.501 24 13.274 24 12s-.2-2.5-.567-3.652L12 7.826z"/><path fill="#d80027" d="M23.433 8.348 12 7.826.567 8.348Q.402 8.86.284 9.39h23.43a12 12 0 0 0-.282-1.043M.285 14.609q.119.531.282 1.043L12 16.174l11.433-.522q.164-.512.282-1.043z"/><path fill="#6da544" d="M12 24c5.354 0 9.888-3.506 11.433-8.348H.567C2.112 20.494 6.647 24 12 24"/><path fill="#338af3" d="M12 0C6.646 0 2.112 3.507.567 8.348h22.866C21.888 3.506 17.353 0 12 0"/><path fill="#f0f0f0" d="M5.484 4.957a2.35 2.35 0 0 1 1.844-2.294 2.348 2.348 0 1 0 0 4.586 2.35 2.35 0 0 1-1.844-2.292m3.232 1.067.16.489h.514l-.417.302.16.49-.417-.303-.416.302.16-.489-.417-.302h.514zm1.642 0 .159.489h.514l-.416.302.159.49-.416-.303-.416.302.159-.489-.416-.302h.514zm1.642 0 .158.489h.515l-.417.302.16.49-.417-.303-.416.302.16-.489-.417-.302h.514zm1.64 0 .16.489h.514l-.416.302.159.49-.416-.303-.416.302.159-.489-.417-.302h.515zm1.643 0 .159.489h.514l-.416.302.159.49-.416-.303-.416.302.158-.489-.416-.302h.515zm-4.925-1.708.159.49h.514l-.416.302.159.489-.416-.303-.416.303.159-.49-.416-.302h.514zm1.642 0 .158.49h.515l-.417.302.16.489-.417-.303-.416.303.16-.49-.417-.302h.514zm1.64 0 .16.49h.514l-.416.302.159.489-.416-.303-.416.303.159-.49-.417-.302h.515zm1.643 0 .159.49h.514l-.416.302.159.489-.416-.303-.416.303.158-.49-.416-.302h.515zM12 2.609l.158.489h.515l-.417.302.16.49-.417-.303-.416.302.16-.489-.417-.302h.514zm1.64 0 .16.489h.514l-.416.302.159.49-.416-.303-.416.302.159-.489-.417-.302h.515zm1.643 0 .159.489h.514l-.416.302.159.49-.416-.303-.416.302.158-.489-.416-.302h.515z"/></svg>