<svg xmlns="http://www.w3.org/2000/svg" fill="none" viewBox="0 0 24 24"><path fill="#F0F0F0" d="M12 0c6.627 0 12 5.373 12 12s-5.373 12-12 12c0-.522-1.565-12-1.565-12z"/><path fill="#FFDA44" d="M12 24C5.373 24 0 18.627 0 12S5.373 0 12 0"/><path fill="#ACABB1" d="m16.595 10.442 2.255 2.983a1.565 1.565 0 1 0 .833-.629l-3.515-4.65-.832.63-1.25.944 1.26 1.664zm3.247 3.43a.522.522 0 1 1 .63.833.522.522 0 0 1-.63-.833"/><path fill="#FFDA44" d="m20.463 11.384 1.259-1.664-1.249-.944-.832-.63-3.515 4.65a1.566 1.566 0 1 0 .832.63l2.256-2.984zm-4.395 3.219a.522.522 0 1 1-.832-.63.522.522 0 0 1 .832.63"/></svg>