<svg xmlns="http://www.w3.org/2000/svg" fill="none" viewBox="0 0 24 24"><path fill="#FFDA44" d="M17.74 1.46A11.95 11.95 0 0 0 12 0C9.921 0 7.966.529 6.26 1.46L5.218 12l1.044 10.54C7.966 23.472 9.92 24 12 24s4.034-.529 5.74-1.46L18.782 12z"/><path fill="#338AF3" d="M6.26 22.54V1.46A12 12 0 0 0 0 12c0 4.549 2.53 8.506 6.26 10.54"/><path fill="#6DA544" d="M24 12c0-4.548-2.53-8.506-6.26-10.541v21.082A12 12 0 0 0 24 12M9.391 15.13 7.304 12l2.087-3.13L11.478 12zm5.218 0L12.522 12l2.087-3.13L16.696 12zM12 19.304l-2.087-3.13L12 13.044l2.087 3.13z"/></svg>