<svg xmlns="http://www.w3.org/2000/svg" fill="none" viewBox="0 0 24 24"><path fill="#0052B4" d="M22.81 17.217A11.95 11.95 0 0 0 24 12c0-1.87-.428-3.64-1.19-5.217L12 5.739 1.19 6.783A11.95 11.95 0 0 0 0 12c0 1.87.428 3.64 1.19 5.217L12 18.261z"/><path fill="#D80027" d="M12 24a12 12 0 0 0 10.81-6.783H1.19A12 12 0 0 0 12 24"/><path fill="#F0F0F0" d="m20.783 14.356-.634.495.275.755-.667-.45-.634.496.222-.773-.667-.45.804-.028.222-.773.275.756zm-1.623-2.811-.426.682.517.616-.78-.195-.427.682-.056-.802-.78-.195.745-.301-.056-.803.517.617zm-2.487-2.087-.167.787.697.402-.8.084-.168.787-.327-.735-.8.084.598-.538-.327-.735.696.402zm-3.05-1.11.112.796.792.14-.723.353.112.796-.559-.578-.723.352.378-.71-.559-.579.793.14zm-3.246 0 .378.71.792-.14-.559.58.378.71-.723-.353-.559.578.112-.796-.723-.353.792-.14zm-3.05 1.11.598.538.696-.402-.327.735.598.538-.8-.084-.327.735-.167-.787-.8-.084.696-.402zM4.84 11.545l.746.3.517-.615-.056.802.746.302-.78.194-.057.802-.426-.682-.78.195.517-.616zm-1.623 2.811.804.028.275-.756.222.773.804.028-.667.45.222.773-.634-.495-.667.45.275-.756z"/><path fill="#FFDA44" d="M22.81 6.783A12 12 0 0 0 12 0 12 12 0 0 0 1.19 6.783z"/></svg>