<svg xmlns="http://www.w3.org/2000/svg" fill="none" viewBox="0 0 24 24"><path fill="#FCFCFC" d="M12 24c6.627 0 12-5.373 12-12S18.627 0 12 0 0 5.373 0 12s5.373 12 12 12"/><path fill="#FFDA44" d="M14.038 8.383a2.038 2.038 0 0 0-4.076 0H5.478c0 1.109.966 2.007 2.074 2.007h-.067c0 1.108.898 2.007 2.007 2.007 0 .981.704 1.796 1.635 1.97l-.005.012h1.756l-.005-.011a2.006 2.006 0 0 0 1.635-1.971 2.007 2.007 0 0 0 2.007-2.007h-.067c1.108 0 2.074-.898 2.074-2.007z"/><path fill="#FFDA44" d="M11.104 14.171 9.84 17.024a5.7 5.7 0 0 0 2.16.422c.764 0 1.493-.15 2.16-.422l-1.264-2.853z"/><path fill="#F0F0F0" d="M9.391 9.386v3.51c0 1.997 2.609 2.609 2.609 2.609s2.609-.612 2.609-2.609v-3.51z"/><path fill="#338AF3" d="m2.91 12.085 1.41 3.946 1.397-3.946h1.066l-2.036 5.217h-.852l-2.05-5.217zm16.394 5.217v-5.217h1.015v5.217z"/><path fill="#D80027" d="M10.435 10.52v4.253c.358.264.744.446 1.043.562V10.52zm3.13 0v4.253a4.6 4.6 0 0 1-1.043.562V10.52z"/><path fill="#0052B4" d="M9.391 9.386h5.218v1.655H9.39z"/></svg>