<svg xmlns="http://www.w3.org/2000/svg" fill="none" viewBox="0 0 24 24"><path fill="#000" d="M24 12q0-.796-.102-1.565H10.435l-6.92-6.92c-4.687 4.686-4.687 12.284 0 16.97l6.92-6.92h13.463Q24 12.797 24 12"/><path fill="#f0f0f0" d="m23.996 12.273-.001.07zm-.011.327-.004.07zm-.016.262-.008.101zm-.04-2.17.013.12zm.052.638.004.07zm.014.328.001.07zm-.034-.621.008.1z"/><path fill="#d80027" d="m23.898 10.435.015.123C23.202 4.611 18.14 0 12 0a11.96 11.96 0 0 0-8.485 3.515l6.92 6.92z"/><path fill="#6da544" d="M23.898 13.565H10.435l-6.92 6.92A11.96 11.96 0 0 0 12 24c6.14 0 11.201-4.61 11.914-10.558z"/><path fill="#f0f0f0" d="m23.942 13.188-.013.12z"/><path fill="#ffda44" d="M23.989 11.474H9.994L2.805 4.286a6 6 0 0 0-.64.831l6.875 6.879-6.88 6.88c.136.242.433.601.641.835l7.193-7.194H23.99a12 12 0 0 0-.001-1.043"/><path fill="#ffda44" d="M2.915 14.558v-1.005a1.82 1.82 0 0 0 1.82-1.819c0-.71-.578-1.287-1.288-1.287a.88.88 0 0 0-.877.877c0 .309.252.56.561.56a.317.317 0 0 0 .317-.316h1.005c0 .729-.593 1.322-1.322 1.322a1.567 1.567 0 0 1-1.566-1.566c0-1.038.845-1.882 1.882-1.882a2.295 2.295 0 0 1 2.292 2.292 2.827 2.827 0 0 1-2.824 2.824"/></svg>