<svg xmlns="http://www.w3.org/2000/svg" fill="none" viewBox="0 0 24 24"><path fill="#f0f0f0" d="M12 24c6.627 0 12-5.373 12-12S18.627 0 12 0 0 5.373 0 12s5.373 12 12 12"/><path fill="#000" d="M3.515 20.485c-4.687-4.686-4.687-12.284 0-16.97L10.435 12z"/><path fill="#ffda44" d="M10.435 12 1.592 6.024Q1.18 6.74.868 7.513L5.345 12 .868 16.487q.313.773.723 1.488z"/><path fill="#6da544" d="M23.898 10.435H10.435l-6.92-6.92a12 12 0 0 0-1.923 2.51L7.556 12 1.59 17.975c.53.92 1.178 1.764 1.924 2.51l6.92-6.92h13.463a12 12 0 0 0 0-3.13"/><path fill="#0052b4" d="M4.694 21.52A11.95 11.95 0 0 0 12 24c5.544 0 10.21-3.76 11.587-8.87H11.083z"/><path fill="#d80027" d="M23.587 8.87C22.209 3.76 17.544 0 12 0 9.25 0 6.717.925 4.694 2.48l6.389 6.39z"/></svg>