<svg xmlns="http://www.w3.org/2000/svg" fill="none" viewBox="0 0 24 24"><path fill="#F0F0F0" d="M12 24c6.627 0 12-5.373 12-12S18.627 0 12 0 0 5.373 0 12s5.373 12 12 12"/><path fill="#FFDA44" d="M22.852 6.872a12 12 0 0 0-2.447-3.436L12 2.609l-8.405.827-.08.08 3.357 3.356L12 7.03zM3.516 20.484q.066.067.133.132l8.351.775 8.351-.775a12 12 0 0 0 2.476-3.436l-15.523-.484z"/><path fill="#000" d="M23.88 10.308 9.914 9.913 12 12l-2.087 2.087 13.96-.343a12 12 0 0 0 .008-3.436"/><path fill="#6DA544" d="M12 0a11.96 11.96 0 0 0-8.405 3.436h16.81A11.96 11.96 0 0 0 12 0"/><path fill="#D80027" d="M10.308 10.308h13.573a12 12 0 0 0-1.03-3.436H6.873zM6.82 17.18h16.007c.512-1.067.87-2.222 1.046-3.436H10.256z"/><path fill="#6DA544" d="M12 24a11.96 11.96 0 0 0 8.351-3.384H3.65A11.96 11.96 0 0 0 11.999 24"/><path fill="#000" d="M4.285 2.81q-.4.336-.77.705L12 12l-8.485 8.485q.37.37.77.706L13.475 12z"/><path fill="#D80027" d="m4.825 8.87.777 2.39h2.514l-2.034 1.48.777 2.391-2.034-1.478-2.035 1.479.777-2.392-2.034-1.478h2.515z"/><path fill="#FFDA44" d="m6.962 12.196-2.025-.718s-.15-1.403-.159-1.45a.783.783 0 1 0-1.523.353l-.567.571h1.009c0 1.048-.782 1.048-.782 2.092l.434 1.043h2.609l.434-1.043q.065-.151.081-.307c.375-.152.489-.541.489-.541"/></svg>