<svg fill="none" xmlns="http://www.w3.org/2000/svg" viewBox="0 0 24 24">
    <g clip-path="url(#book-globe_svg__a)">
        <path d="M16.5 6h-9v1.5h9V6ZM12 9H7.5v1.5H12V9Z"/>
        <path d="M20.25 11.82V3.75A2.257 2.257 0 0 0 18 1.5H6a2.257 2.257 0 0 0-2.25 2.25v16.125A2.628 2.628 0 0 0 6.375 22.5H16.5c3.308 0 6-2.692 6-6a5.99 5.99 0 0 0-2.25-4.68Zm.683 3.93h-1.456c-.067-1.11-.27-2.19-.622-3.075a4.5 4.5 0 0 1 2.078 3.075Zm-8.865 1.5h1.455c.067 1.11.27 2.19.622 3.075a4.5 4.5 0 0 1-2.077-3.075Zm0-1.5a4.5 4.5 0 0 1 2.077-3.075c-.345.885-.555 1.965-.622 3.075h-1.455ZM16.5 12c.48 0 1.313 1.41 1.47 3.75h-2.932c.157-2.34.99-3.75 1.47-3.75H16.5ZM6 3h12c.413 0 .75.337.75.75v7.193a5.928 5.928 0 0 0-2.25-.443c-3.307 0-6 2.693-6 6 0 .255.023.503.053.75H6.375c-.405 0-.78.098-1.125.262V3.75c0-.413.338-.75.75-.75Zm.375 18a1.123 1.123 0 0 1-1.125-1.125c0-.622.503-1.125 1.125-1.125h4.568c.352.87.907 1.635 1.604 2.25H6.375Zm8.655-3.75h2.932c-.157 2.34-.99 3.75-1.47 3.75s-1.312-1.41-1.47-3.75h.008Zm3.825 3.075c.345-.885.555-1.965.622-3.075h1.456a4.5 4.5 0 0 1-2.078 3.075Z"/>
    </g>
    <defs>
        <clipPath id="book-globe_svg__a">
            <path d="M0 0h24v24H0z"/>
        </clipPath>
    </defs>
</svg>
