<svg xmlns="http://www.w3.org/2000/svg" viewBox="0 0 32 32" xml:space="preserve" enable-background="new 0 0 32 32">
    <path d="M28 15.726V6c0-1.654-1.346-3-3-3H5C3.346 3 2 4.346 2 6v16c0 1.654 1.346 3 3 3h10.082c1.386 2.387 3.964 4 6.918 4 4.411 0 8-3.589 8-8a7.957 7.957 0 0 0-2-5.274zM4 6c0-.551.448-1 1-1h20c.552 0 1 .449 1 1v1H4V6zm10.263 17H5a1 1 0 0 1-1-1V9h22v5.082A7.94 7.94 0 0 0 22 13c-4.411 0-8 3.589-8 8 0 .692.097 1.359.263 2zm1.827-1h1.942c.086 1.481.363 2.917.826 4.102A6.005 6.005 0 0 1 16.09 22zm1.943-2H16.09a6.002 6.002 0 0 1 2.768-4.102c-.462 1.185-.739 2.621-.825 4.102zM22 27c-.639 0-1.751-1.882-1.957-5h3.914c-.206 3.118-1.318 5-1.957 5zm-1.957-7c.206-3.118 1.318-5 1.957-5s1.751 1.882 1.957 5h-3.914zm5.099 6.102c.462-1.185.74-2.621.826-4.102h1.942a6.005 6.005 0 0 1-2.768 4.102zM25.967 20c-.086-1.481-.363-2.917-.826-4.102A6.004 6.004 0 0 1 27.909 20h-1.942z"/>
</svg>
