<svg xmlns="http://www.w3.org/2000/svg" viewBox="0 0 32 32" xml:space="preserve" enable-background="new 0 0 32 32">
    <path d="M27 4H5C3.346 4 2 5.346 2 7v18c0 1.654 1.346 3 3 3h22c1.654 0 3-1.346 3-3V7c0-1.654-1.346-3-3-3zM4 7c0-.551.448-1 1-1h22c.552 0 1 .449 1 1v1H4V7zm24 18a1 1 0 0 1-1 1H5a1 1 0 0 1-1-1V10h24v15z"/>
    <path d="M12.407 22.094 8.685 18l3.722-4.094-1.48-1.345L5.981 18l4.946 5.439zM21.073 23.439 26.019 18l-4.946-5.439-1.48 1.345L23.315 18l-3.722 4.094zM13.74 22.571l2.587-9.659 1.932.518-2.588 9.659z"/>
</svg>
