<svg fill="none" xmlns="http://www.w3.org/2000/svg" viewBox="0 0 25 24">
    <g clip-path="url(#cloud-key_svg__a)">
        <path fill-rule="evenodd" clip-rule="evenodd" d="M22.54 11.25v2.245a3.73 3.73 0 0 1-4.27 3.707L14.472 21H11.29v-3.181l.568-.569H6.19c-2.564 0-4.65-2.052-4.65-4.575 0-2.298 1.73-4.205 3.975-4.527C6.011 5.213 8.615 3 11.717 3c2.291 0 4.394 1.236 5.489 3.188h.032c2.822 0 5.06 2.189 5.28 5.062h.022Zm-19.5 1.425c0 1.696 1.413 3.075 3.15 3.075h7.168l1.73-1.73a3.751 3.751 0 0 1 1.79-3.75 3.717 3.717 0 0 1 3.863.022l.034.024.03.021c-.523-1.557-1.896-2.65-3.567-2.65l-.969.007-.2-.437C15.3 5.582 13.592 4.5 11.717 4.5c-2.537 0-4.636 1.93-4.78 4.393l-.04.707H6.19c-1.737 0-3.15 1.38-3.15 3.075Zm15.175 2.988c.792.21 1.6-.006 2.166-.572a2.254 2.254 0 0 0-.433-3.526 2.238 2.238 0 0 0-2.293-.013c-.886.539-1.29 1.529-1.027 2.522l.11.418-3.948 3.947V19.5h1.06l3.948-3.947.417.11Zm.045-1.633a.75.75 0 1 1 1.058-1.06.75.75 0 0 1-1.058 1.06Z"/>
    </g>
    <defs>
        <clipPath id="cloud-key_svg__a">
            <path transform="translate(.04)" d="M0 0h24v24H0z"/>
        </clipPath>
    </defs>
</svg>
