<svg xmlns="http://www.w3.org/2000/svg" viewBox="0 0 32 32" xml:space="preserve" enable-background="new 0 0 32 32">
    <path d="M28 26h-9.184A2.997 2.997 0 0 0 17 24.184v-2.235c5.046-.504 9-4.773 9-9.949 0-5.514-4.486-10-10-10S6 6.486 6 12c0 5.176 3.954 9.446 9 9.949v2.235A2.997 2.997 0 0 0 13.184 26H4v2h9.184c.414 1.161 1.514 2 2.816 2s2.402-.839 2.816-2H28v-2zM13.29 15.954a20.18 20.18 0 0 1 2.71-.185c.938 0 1.847.068 2.71.185C18.084 18.522 16.917 20 16 20s-2.084-1.478-2.71-4.046zM8 12a7.95 7.95 0 0 1 .671-3.197 12.95 12.95 0 0 0 2.315.818 20.4 20.4 0 0 0 0 4.751c-.853.218-1.638.488-2.321.811A7.941 7.941 0 0 1 8 12zm4.846 0c0-.705.041-1.366.108-1.99.976.14 1.998.221 3.046.221a21.56 21.56 0 0 0 3.046-.22 18.564 18.564 0 0 1 .001 3.971c-.97-.135-1.99-.213-3.047-.213-1.048 0-2.071.08-3.047.218A18.52 18.52 0 0 1 12.846 12zM16 4c.916 0 2.082 1.475 2.708 4.04A19.73 19.73 0 0 1 16 8.231a19.82 19.82 0 0 1-2.709-.188C13.917 5.477 15.083 4 16 4zm8 8a7.95 7.95 0 0 1-.662 3.179 12.83 12.83 0 0 0-2.322-.814 20.344 20.344 0 0 0-.001-4.739c.853-.22 1.628-.499 2.313-.826.429.981.672 2.062.672 3.2zm-4.296 7.084c.4-.787.725-1.715.968-2.743.597.159 1.144.349 1.632.567a8.039 8.039 0 0 1-2.6 2.176zm2.589-12.007c-.484.218-1.028.409-1.624.569-.243-1.023-.567-1.946-.965-2.731a8.062 8.062 0 0 1 2.589 2.162zm-9.997-2.161c-.399.786-.724 1.71-.966 2.736a10.814 10.814 0 0 1-1.625-.572 8.052 8.052 0 0 1 2.591-2.164zm-2.6 11.992a10.863 10.863 0 0 1 1.631-.567c.243 1.028.568 1.955.968 2.743a8.056 8.056 0 0 1-2.599-2.176zM16 28a1 1 0 1 1 0-2 1 1 0 0 1 0 2z"/>
</svg>
