<svg xmlns="http://www.w3.org/2000/svg" viewBox="0 0 32 32" xml:space="preserve" enable-background="new 0 0 32 32">
    <path d="M28 17.184V16c0-2.206-1.794-4-4-4-.382 0-.744.071-1.094.171C22.25 7.008 17.839 3 12.5 3 6.71 3 2 7.71 2 13.5S6.71 24 12.5 24a10.45 10.45 0 0 0 5.5-1.56V26c0 1.654 1.346 3 3 3h6c1.654 0 3-1.346 3-3v-6a2.996 2.996 0 0 0-2-2.816zM26 16v1h-4v-1c0-1.103.897-2 2-2s2 .897 2 2zm-7.997 3.965a8.444 8.444 0 0 1-2.456 1.468c.851-1.795 1.335-4.329 1.434-6.934h3.317c-.189.465-.298.97-.298 1.501v1.184a2.995 2.995 0 0 0-1.997 2.781zM10.02 14.5h4.959c-.187 4.677-1.655 7.5-2.48 7.5s-2.291-2.823-2.479-7.5zM12.5 5c.825 0 2.292 2.823 2.48 7.5h-4.96C10.208 7.823 11.675 5 12.5 5zm8.436 7.5h-3.955c-.098-2.599-.58-5.129-1.428-6.924 2.882 1.115 5.009 3.752 5.383 6.924zM9.448 5.576C8.6 7.371 8.118 9.901 8.019 12.5H4.064c.374-3.172 2.501-5.809 5.384-6.924zM4.064 14.5h3.955c.098 2.599.58 5.129 1.428 6.924-2.882-1.115-5.009-3.752-5.383-6.924zM28 26a1 1 0 0 1-1 1h-6a1 1 0 0 1-1-1v-6a1 1 0 0 1 1-1h6a1 1 0 0 1 1 1v6z"/>
    <circle cx="24" cy="23" r="2"/>
</svg>
