<svg xmlns="http://www.w3.org/2000/svg" viewBox="0 0 32 32" xml:space="preserve" enable-background="new 0 0 32 32">
    <path d="M22 7v2h2.586l-4.787 4.787c-.712-.841-1.68-1.458-2.799-1.686V5.485l1.722 1.722 1.414-1.414L16 1.657l-4.136 4.136 1.414 1.414L15 5.485v6.616c-1.119.228-2.087.845-2.799 1.686L7.414 9H10V7H4v6h2v-2.586l5.215 5.215A4.937 4.937 0 0 0 11 17a5.01 5.01 0 0 0 4 4.899v2.285A2.997 2.997 0 0 0 13.184 26H6v2h7.184c.414 1.161 1.514 2 2.816 2s2.402-.839 2.816-2H26v-2h-7.184A2.997 2.997 0 0 0 17 24.184v-2.285A5.009 5.009 0 0 0 21 17c0-.479-.089-.932-.215-1.371L26 10.414V13h2V7h-6zm-6 21a1 1 0 1 1 0-2 1 1 0 0 1 0 2zm0-8c-1.654 0-3-1.346-3-3s1.346-3 3-3 3 1.346 3 3-1.346 3-3 3z"/>
</svg>
