<svg fill="none" xmlns="http://www.w3.org/2000/svg" viewBox="0 0 24 24">
    <path d="M20.24 13.992V10a2.601 2.601 0 0 0 1.783-1.828c.18-.674.09-1.378-.263-1.985a2.627 2.627 0 0 0-3.58-.959c-.09.053-.165.113-.247.173l-3.416-1.933a2.68 2.68 0 0 0-.255-.652 2.618 2.618 0 0 0-3.573-.958 2.597 2.597 0 0 0-1.213 1.58L6.067 5.393a2.622 2.622 0 0 0-4.09 1.423c-.18.675-.09 1.379.263 1.986.344.599.899 1.01 1.52 1.19v3.993c-.194.06-.382.127-.561.232a2.62 2.62 0 0 0 1.31 4.891c.442 0 .892-.112 1.304-.351a1.97 1.97 0 0 0 .24-.173l3.415 1.933c.06.225.135.442.255.652a2.628 2.628 0 0 0 2.27 1.31c.449 0 .898-.12 1.303-.352a2.597 2.597 0 0 0 1.213-1.58l3.409-1.948a2.633 2.633 0 0 0 1.565.517c.442 0 .892-.112 1.303-.352a2.627 2.627 0 0 0 .96-3.58 2.604 2.604 0 0 0-1.521-1.191h.015Zm-5.978 4.562a2.607 2.607 0 0 0-1.513-1.19v-2.48a2.95 2.95 0 0 0 1.243-.667l2.944 1.768c-.09.457-.067.944.098 1.4l-2.622 1.499c-.045-.113-.082-.217-.15-.322v-.008Zm-4.667.307-2.636-1.49c.15-.42.195-.877.12-1.326l3.198-1.603c.292.202.622.352.974.442v2.48a3.06 3.06 0 0 0-.562.232c-.517.3-.884.749-1.094 1.265Zm-3.775-9.1c.202-.12.382-.27.547-.435l2.817 1.693c-.105.307-.18.629-.18.973 0 .457.112.877.292 1.266l-2.884 1.439a2.623 2.623 0 0 0-1.154-.712V9.993c.195-.06.382-.135.562-.24v.007Zm3.918-4.33c.344.599.899 1.003 1.513 1.19V9.11c-.472.12-.891.352-1.243.666L7.064 8.007a2.547 2.547 0 0 0-.098-1.4l2.622-1.498c.045.112.082.217.15.322Zm4.667-.307 2.636 1.49c-.022.068-.06.135-.075.202a2.716 2.716 0 0 0-.045 1.124l-3.206 1.603a2.915 2.915 0 0 0-.966-.442v-2.48c.187-.06.382-.134.562-.239.517-.3.884-.749 1.094-1.266v.008ZM12 13.49a1.502 1.502 0 0 1-1.498-1.498c0-.825.674-1.499 1.498-1.499s1.498.675 1.498 1.498c0 .824-.674 1.499-1.498 1.499Zm6.18.726c-.21.12-.382.27-.54.435l-2.816-1.693c.105-.307.172-.63.172-.966 0-.457-.112-.884-.292-1.266l2.884-1.439c.322.345.72.585 1.154.712v3.992c-.195.06-.382.128-.562.233v-.008Zm1.31-7.85a1.125 1.125 0 0 1 1.087 1.408 1.092 1.092 0 0 1-.525.682c-.539.307-1.22.127-1.528-.412a1.133 1.133 0 0 1-.112-.854c.075-.292.262-.532.524-.682.173-.105.367-.15.562-.15l-.007.008Zm-8.044-3.22a1.113 1.113 0 0 1 1.116 1.925 1.124 1.124 0 0 1-1.528-.405 1.124 1.124 0 0 1 .404-1.528l.008.007ZM3.543 8.044a1.133 1.133 0 0 1-.112-.854c.075-.292.262-.532.524-.682.172-.105.367-.15.562-.15a1.125 1.125 0 0 1 1.086 1.409 1.092 1.092 0 0 1-.524.681 1.116 1.116 0 0 1-1.528-.412l-.008.008Zm1.528 9.408a1.118 1.118 0 0 1-1.528-.412 1.118 1.118 0 0 1 .412-1.528 1.116 1.116 0 0 1 1.528.412 1.118 1.118 0 0 1-.412 1.528Zm7.49 3.371c-.261.15-.561.187-.846.112a1.092 1.092 0 0 1-.674-.517 1.124 1.124 0 0 1 .405-1.528 1.104 1.104 0 0 1 1.52.412 1.124 1.124 0 0 1-.404 1.528v-.007Zm7.491-3.37a1.118 1.118 0 0 1-1.528-.413 1.118 1.118 0 0 1 .412-1.528 1.116 1.116 0 0 1 1.528.412 1.118 1.118 0 0 1-.412 1.528Z"/>
</svg>
