<svg xmlns="http://www.w3.org/2000/svg" viewBox="0 0 32 32" xml:space="preserve" enable-background="new 0 0 32 32">
    <path d="M30 17v-2H17v-2h2c1.654 0 3-1.346 3-3V7c0-1.654-1.346-3-3-3h-6c-1.654 0-3 1.346-3 3v3c0 1.654 1.346 3 3 3h2v2H2v2h5v2H5c-1.654 0-3 1.346-3 3v3c0 1.654 1.346 3 3 3h6c1.654 0 3-1.346 3-3v-3c0-1.654-1.346-3-3-3H9v-2h14v2h-2c-1.654 0-3 1.346-3 3v3c0 1.654 1.346 3 3 3h6c1.654 0 3-1.346 3-3v-3c0-1.654-1.346-3-3-3h-2v-2h5zm-17-6c-.552 0-1-.449-1-1V7c0-.551.448-1 1-1h6c.552 0 1 .449 1 1v3c0 .551-.448 1-1 1h-6zm-1 11v3a1 1 0 0 1-1 1H5a1 1 0 0 1-1-1v-3a1 1 0 0 1 1-1h6a1 1 0 0 1 1 1zm16 0v3a1 1 0 0 1-1 1h-6a1 1 0 0 1-1-1v-3a1 1 0 0 1 1-1h6a1 1 0 0 1 1 1z"/>
</svg>
