<svg xmlns="http://www.w3.org/2000/svg" viewBox="0 0 32 32" xml:space="preserve" enable-background="new 0 0 32 32">
    <path d="M16 2C8.28 2 2 8.28 2 16s6.28 14 14 14 14-6.28 14-14S23.72 2 16 2zm0 26C9.72 28 4.562 23.15 4.051 17h5.535l-2.293 2.293 1.414 1.414L13.414 16l-4.707-4.707-1.414 1.414L9.586 15H4.051C4.562 8.851 9.72 4 16 4s11.438 4.851 11.949 11h-5.535l2.293-2.293-1.414-1.414L18.586 16l4.707 4.707 1.414-1.414L22.414 17h5.535C27.438 23.15 22.28 28 16 28z"/>
    <path d="M17 22.586V9.414l2.293 2.293 1.414-1.414L16 5.586l-4.707 4.707 1.414 1.414L15 9.414v13.172l-2.293-2.293-1.414 1.414L16 26.414l4.707-4.707-1.414-1.414z"/>
</svg>
