<svg xmlns="http://www.w3.org/2000/svg" viewBox="0 0 32 32" xml:space="preserve" enable-background="new 0 0 32 32">
    <path d="M17 3C9.832 3 4 8.832 4 16v.99l-2.144-2.144L.442 16.26 5 20.818l4.558-4.558-1.414-1.414L6 16.99V16C6 9.935 10.935 5 17 5s11 4.935 11 11-4.935 11-11 11a10.94 10.94 0 0 1-8.671-4.231l-1.576 1.232A12.928 12.928 0 0 0 17 29c7.168 0 13-5.832 13-13S24.168 3 17 3z"/>
    <path d="M17 7c-2.206 0-4 1.794-4 4v1.185a2.998 2.998 0 0 0-2 2.817V21c0 1.653 1.347 3 3.001 3h5.998A3.005 3.005 0 0 0 23 20.999v-5.998a2.998 2.998 0 0 0-2-2.817V11c0-2.206-1.794-4-4-4zm-2 4c0-1.103.897-2 2-2s2 .897 2 2v1h-4v-1zm6 9.999c0 .552-.449 1.001-1.001 1.001h-5.998A1.002 1.002 0 0 1 13 20.999v-5.998c0-.552.449-1.001 1.001-1.001h5.998c.552 0 1.001.449 1.001 1.001v5.998z"/>
    <circle cx="17" cy="18" r="2"/>
</svg>
