<svg xmlns="http://www.w3.org/2000/svg" viewBox="0 0 32 32" xml:space="preserve" enable-background="new 0 0 32 32">
    <path d="M16 2C8.268 2 2 8.268 2 16s6.268 14 14 14 14-6.268 14-14S23.732 2 16 2zm0 26C9.383 28 4 22.617 4 16S9.383 4 16 4s12 5.383 12 12-5.383 12-12 12z"/>
    <path d="M15 8h2v9h-2z"/>
    <path d="m19.998 9.07-1 1.731A6.024 6.024 0 0 1 22 16c0 3.309-2.691 6-6 6s-6-2.691-6-6a6.024 6.024 0 0 1 3.002-5.199l-1-1.731A8.026 8.026 0 0 0 8 16c0 4.411 3.589 8 8 8s8-3.589 8-8a8.026 8.026 0 0 0-4.002-6.93z"/>
</svg>
