<svg xmlns="http://www.w3.org/2000/svg" viewBox="0 0 32 32" xml:space="preserve" enable-background="new 0 0 32 32">
    <path d="M8 15h2v2H8zM12 15h2v2h-2zM8 23h2v2H8zM12 23h2v2h-2z"/>
    <path d="M28 6c0-1.654-1.346-3-3-3H7C5.346 3 4 4.346 4 6v4c0 .771.301 1.468.78 2A2.98 2.98 0 0 0 4 14v4c0 .771.301 1.468.78 2A2.98 2.98 0 0 0 4 22v4c0 1.654 1.346 3 3 3h18c1.654 0 3-1.346 3-3v-4a2.98 2.98 0 0 0-.78-2c.48-.532.78-1.229.78-2v-4a2.98 2.98 0 0 0-.78-2c.48-.532.78-1.229.78-2V6zM6 6c0-.551.448-1 1-1h18c.552 0 1 .449 1 1v4c0 .551-.448 1-1 1H7c-.552 0-1-.449-1-1V6zm20 8v4a1 1 0 0 1-1 1H7a1 1 0 0 1-1-1v-4c0-.551.448-1 1-1h18c.552 0 1 .449 1 1zm0 12a1 1 0 0 1-1 1H7a1 1 0 0 1-1-1v-4a1 1 0 0 1 1-1h18a1 1 0 0 1 1 1v4z"/>
    <path d="M8 7h2v2H8zM12 7h2v2h-2z"/>
</svg>
