<svg fill="none" xmlns="http://www.w3.org/2000/svg" viewBox="0 0 24 24">
    <g clip-path="url(#server-upgrade_svg__a)">
        <path d="M6 10.5H4.5V12H6v-1.5ZM9 10.5H7.5V12H9v-1.5Z"/>
        <path d="M3 12.75v-3c0-.412.337-.75.75-.75h13.5c.413 0 .75.338.75.75v.75h1.5v-.75a2.23 2.23 0 0 0-.585-1.5 2.23 2.23 0 0 0 .585-1.5v-3a2.257 2.257 0 0 0-2.25-2.25H3.75A2.257 2.257 0 0 0 1.5 3.75v3c0 .577.225 1.103.585 1.5a2.23 2.23 0 0 0-.585 1.5v3c0 .578.225 1.102.585 1.5a2.23 2.23 0 0 0-.585 1.5v3A2.257 2.257 0 0 0 3.75 21h7.5v-1.5h-7.5a.752.752 0 0 1-.75-.75v-3c0-.412.337-.75.75-.75h7.5v-1.5h-7.5a.752.752 0 0 1-.75-.75Zm0-9c0-.413.337-.75.75-.75h13.5c.413 0 .75.337.75.75v3c0 .412-.337.75-.75.75H3.75A.752.752 0 0 1 3 6.75v-3Z"/>
        <path d="M6 16.5H4.5V18H6v-1.5ZM9 16.5H7.5V18H9v-1.5ZM6 4.5H4.5V6H6V4.5ZM9 4.5H7.5V6H9V4.5ZM17.25 12A5.256 5.256 0 0 0 12 17.25a5.256 5.256 0 0 0 5.25 5.25 5.256 5.256 0 0 0 5.25-5.25A5.256 5.256 0 0 0 17.25 12Zm0 9c-2.07 0-3.75-1.68-3.75-3.75 0-2.07 1.68-3.75 3.75-3.75 2.07 0 3.75 1.68 3.75 3.75 0 2.07-1.68 3.75-3.75 3.75Z"/>
        <path d="M15.188 17.205h1.29V19.5h1.544v-2.295h1.29L17.25 15l-2.063 2.205Z"/>
    </g>
    <defs>
        <clipPath id="server-upgrade_svg__a">
            <path d="M0 0h24v24H0z"/>
        </clipPath>
    </defs>
</svg>
