<svg xmlns="http://www.w3.org/2000/svg" viewBox="0 0 32 32" xml:space="preserve" enable-background="new 0 0 32 32">
    <path d="M29 10c0-2.14-1.519-3.837-3.508-3.989A4.408 4.408 0 0 0 21.8 4a4.409 4.409 0 0 0-4.27 3.314 3.417 3.417 0 0 0-1.637.989A3.393 3.393 0 0 0 15.07 10H9.236a2.984 2.984 0 0 0-2.684 1.658l-3.025 6.051A5.04 5.04 0 0 0 3 19.944V25c0 1.654 1.346 3 3 3h18c1.654 0 3-1.346 3-3V19.472c0-.463-.109-.927-.316-1.341L24.618 14h.582c2.096 0 3.8-1.794 3.8-4zm-11.633-.345A1.39 1.39 0 0 1 18.4 9.2h.943l.055-.942a2.404 2.404 0 0 1 4.59-.841l.28.61L25.2 8c1.026 0 1.8.86 1.8 2 0 1.103-.808 2-1.8 2h-6.63c-.802 0-1.503-.57-1.564-1.272-.035-.4.094-.781.361-1.073zM25 25a1 1 0 0 1-1 1H6a1 1 0 0 1-1-1v-4a1 1 0 0 1 1-1h18a1 1 0 0 1 1 1v4zm-.598-6.959C24.269 18.023 24.138 18 24 18H6c-.138 0-.27.023-.403.041l2.744-5.488A.997.997 0 0 1 9.236 12h6.089c.564 1.178 1.816 2 3.245 2h3.812l2.02 4.041z"/>
    <path d="M7 22h2v2H7zM11 22h2v2h-2z"/>
</svg>
