<svg fill="none" xmlns="http://www.w3.org/2000/svg" viewBox="0 0 24 24">
    <g clip-path="url(#upload-2_svg__a)">
        <path fill-rule="evenodd" clip-rule="evenodd" d="m12 16.703-4.26-3.93 1.02-1.103 2.49 2.295V3h1.5v10.965l2.49-2.295 1.02 1.103-4.26 3.93Zm3.75-8.453h3A2.257 2.257 0 0 1 21 10.5v8.25A2.257 2.257 0 0 1 18.75 21H5.25A2.257 2.257 0 0 1 3 18.75V10.5a2.257 2.257 0 0 1 2.25-2.25h3v1.5h-3a.752.752 0 0 0-.75.75v8.25c0 .413.338.75.75.75h13.5c.413 0 .75-.337.75-.75V10.5a.752.752 0 0 0-.75-.75h-3v-1.5Z"/>
    </g>
    <defs>
        <clipPath id="upload-2_svg__a">
            <path d="M0 0h24v24H0z"/>
        </clipPath>
    </defs>
</svg>
