<svg xmlns="http://www.w3.org/2000/svg" xml:space="preserve" viewBox="0 0 32 32"><path d="M17 2h-1.981a3.004 3.004 0 0 0-3 2.996l-.017 12a2.98 2.98 0 0 0 .878 2.124c.566.568 1.32.88 2.122.88H17c1.654 0 3-1.346 3-3V5c0-1.654-1.346-3-3-3m1 15a1 1 0 0 1-1 1h-1.998a1 1 0 0 1-.707-.293 1 1 0 0 1-.293-.708l.017-12a1 1 0 0 1 1-.999H17c.552 0 1 .449 1 1zm-1.995 5a4.003 4.003 0 0 0-3.994 3.991c-.004 1.07.41 2.076 1.165 2.834S14.936 30 16.005 30A4 4 0 0 0 20 26.005v-.01A4 4 0 0 0 16.005 22M18 26.005a1.997 1.997 0 0 1-3.408 1.409 2 2 0 0 1-.581-1.427A1.997 1.997 0 0 1 16.005 24c1.1 0 1.995.895 1.995 1.995z"/></svg>