<svg xmlns="http://www.w3.org/2000/svg" viewBox="0 0 32 32" xml:space="preserve" enable-background="new 0 0 32 32">
    <path d="M27 3.544 12 9.313v10.449A4.474 4.474 0 0 0 9.5 19C7.019 19 5 21.019 5 23.5S7.019 28 9.5 28s4.5-2.019 4.5-4.5c0-.171-.032-.334-.051-.5H14V10.687l11-4.231v11.306A4.474 4.474 0 0 0 22.5 17c-2.481 0-4.5 2.019-4.5 4.5s2.019 4.5 4.5 4.5 4.5-2.019 4.5-4.5c0-.171-.032-.334-.051-.5H27V3.544zM9.5 26C8.121 26 7 24.879 7 23.5S8.121 21 9.5 21s2.5 1.121 2.5 2.5S10.879 26 9.5 26zm13-2c-1.379 0-2.5-1.121-2.5-2.5s1.121-2.5 2.5-2.5 2.5 1.121 2.5 2.5-1.121 2.5-2.5 2.5z"/>
</svg>
