<svg xmlns="http://www.w3.org/2000/svg" viewBox="0 0 32 32" xml:space="preserve" enable-background="new 0 0 32 32">
    <path d="M19.877 5a4.012 4.012 0 0 0-3.857-3.015c-1.044.012-2.081.408-2.841 1.165A3.95 3.95 0 0 0 12.123 5H6v22c0 1.654 1.398 3 3.117 3h13.766C24.602 30 26 28.654 26 27V5h-6.123zM13 7l1-.015v-1c0-.536.209-1.04.59-1.418a1.987 1.987 0 0 1 1.409-.582h.011A2.008 2.008 0 0 1 18 6v1h2v2h-8V7h1zm11 20c0 .552-.501 1-1.117 1H9.117C8.501 28 8 27.552 8 27V7h2v4h12V7h2v20z"/>
    <path d="M14 15h8v2h-8zM14 19h8v2h-8zM10 15h2v2h-2zM10 19h2v2h-2z"/>
</svg>
