<svg xmlns="http://www.w3.org/2000/svg" viewBox="0 0 32 32" xml:space="preserve" enable-background="new 0 0 32 32">
    <path d="M7 26.396V7h2v4h11V7h2v11h2V5h-6.033a3.512 3.512 0 0 0-3.446-3.015c-.915.015-1.823.356-2.488 1.017a3.469 3.469 0 0 0-1 1.998H5v21.396A3.607 3.607 0 0 0 8.604 30H19v-2H8.604C7.72 28 7 27.28 7 26.396zM13 7V5.485c0-.402.157-.78.442-1.064a1.49 1.49 0 0 1 1.057-.436h.01A1.504 1.504 0 0 1 16 5.485V7h2v2h-7V7h2z"/>
    <path d="M13 13h7v2h-7zM13 17h7v2h-7zM9 13h2v2H9zM9 17h2v2H9zM28 24h-4v-4h-2v4h-4v2h4v4h2v-4h4z"/>
</svg>
