<svg xmlns="http://www.w3.org/2000/svg" viewBox="0 0 32 32" xml:space="preserve" enable-background="new 0 0 32 32">
    <path d="M5 26.396V7h2v4h11V7h2v6h2V5h-6.033a3.512 3.512 0 0 0-3.446-3.015c-.923.015-1.823.356-2.488 1.017a3.472 3.472 0 0 0-1 1.998H3v21.396A3.607 3.607 0 0 0 6.604 30H17v-2H6.604C5.72 28 5 27.28 5 26.396zM11 7V5.485c0-.402.157-.78.442-1.064a1.49 1.49 0 0 1 1.057-.436h.01A1.504 1.504 0 0 1 14 5.485V7h2v2H9V7h2z"/>
    <path d="M11 13h7v2h-7zM11 17h3v2h-3zM7 13h2v2H7zM7 17h2v2H7zM29.231 17.206c-.034-.009-3.518-.846-5.784-1.979L23 15.003l-.447.224c-2.267 1.133-5.75 1.97-5.784 1.979L16 17.39v.789c0 10.301 6.526 11.725 6.804 11.78l.196.039.196-.039c.278-.056 6.804-1.48 6.804-11.78v-.79l-.769-.183zm-6.23 10.737c-.913-.293-4.727-1.939-4.987-8.992 1.125-.302 3.246-.921 4.986-1.721 1.74.8 3.862 1.419 4.986 1.721-.259 7.067-4.056 8.698-4.985 8.992z"/>
    <path d="m21.116 20.824-1.404 1.424 2.768 2.731 4.141-4.14-1.414-1.414-2.736 2.736z"/>
</svg>
