<svg xmlns="http://www.w3.org/2000/svg" viewBox="0 0 32 32" xml:space="preserve" enable-background="new 0 0 32 32">
    <path d="M5 26.396V7h2v4h11V7h2v7h2V5h-6.033a3.512 3.512 0 0 0-3.446-3.015c-.923.015-1.823.356-2.488 1.017a3.472 3.472 0 0 0-1 1.998H3v21.396A3.607 3.607 0 0 0 6.604 30H17v-2H6.604C5.72 28 5 27.28 5 26.396zM11 7V5.485c0-.402.157-.78.442-1.064a1.49 1.49 0 0 1 1.057-.436h.01A1.504 1.504 0 0 1 14 5.485V7h2v2H9V7h2z"/>
    <path d="M11 13h6v2h-6zM11 17h3v2h-3zM7 13h2v2H7zM7 17h2v2H7zM28.707 28.293l-3.679-3.679A5.46 5.46 0 0 0 26 21.5c0-3.032-2.468-5.5-5.5-5.5S15 18.468 15 21.5s2.468 5.5 5.5 5.5a5.46 5.46 0 0 0 3.114-.972l3.679 3.679 1.414-1.414zM17 21.5c0-1.93 1.57-3.5 3.5-3.5s3.5 1.57 3.5 3.5-1.57 3.5-3.5 3.5-3.5-1.57-3.5-3.5z"/>
</svg>
