<svg xmlns="http://www.w3.org/2000/svg" viewBox="0 0 32 32" xml:space="preserve" enable-background="new 0 0 32 32">
    <path d="M6 26V12h7V5h9v6h2V3H11.245L4 10.6V26c0 1.654 1.346 3 3 3h7v-2H7a1 1 0 0 1-1-1zm1.335-16L11 6.156V10H7.335z"/>
    <path d="M26 18.184V17c0-2.206-1.794-4-4-4s-4 1.794-4 4v1.184A2.996 2.996 0 0 0 16 21v6c0 1.654 1.346 3 3 3h6c1.654 0 3-1.346 3-3v-6a2.996 2.996 0 0 0-2-2.816zM20 17c0-1.103.897-2 2-2s2 .897 2 2v1h-4v-1zm6 10a1 1 0 0 1-1 1h-6a1 1 0 0 1-1-1v-6a1 1 0 0 1 1-1h6a1 1 0 0 1 1 1v6z"/>
    <circle cx="22" cy="24" r="2"/>
    <path d="M8 15h7v2H8zM8 19h5v2H8z"/>
</svg>
