<svg xmlns="http://www.w3.org/2000/svg" viewBox="0 0 32 32" xml:space="preserve" enable-background="new 0 0 32 32">
    <path d="M6 26V12h7V5h9v9h2V3H11.245L4 10.6V26c0 1.654 1.346 3 3 3h7v-2H7a1 1 0 0 1-1-1zm1.335-16L11 6.156V10H7.335z"/>
    <path d="M8 15h7v2H8zM8 19h5v2H8zM22 16c-3.859 0-7 3.141-7 7s3.141 7 7 7 7-3.141 7-7-3.141-7-7-7zm0 2c1.122 0 2.147.385 2.983 1.011l-7.291 6.481A4.927 4.927 0 0 1 17 23c0-2.757 2.243-5 5-5zm0 10a4.955 4.955 0 0 1-2.983-1.011l7.291-6.481c.429.736.692 1.58.692 2.492 0 2.757-2.243 5-5 5z"/>
</svg>
