<svg xmlns="http://www.w3.org/2000/svg" viewBox="0 0 32 32" xml:space="preserve" enable-background="new 0 0 32 32">
    <path d="M6 26V12h7V5h9v8h2V3H11.245L4 10.6V26c0 1.654 1.346 3 3 3h9v-2H7a1 1 0 0 1-1-1zm1.335-16L11 6.156V10H7.335z"/>
    <path d="M8 15h6v2H8zM8 19h4v2H8zM29.231 17.206c-.034-.009-3.518-.846-5.784-1.979L23 15.003l-.447.224c-2.267 1.133-5.75 1.97-5.784 1.979L16 17.39v.789c0 10.301 6.526 11.725 6.804 11.78l.196.039.196-.039c.278-.056 6.804-1.48 6.804-11.78v-.79l-.769-.183zm-6.23 10.737c-.913-.293-4.727-1.939-4.987-8.992 1.125-.302 3.246-.921 4.986-1.721 1.74.8 3.862 1.419 4.986 1.721-.259 7.067-4.056 8.698-4.985 8.992z"/>
    <path d="m21.116 20.824-1.404 1.424 2.768 2.731 4.141-4.14-1.414-1.414-2.736 2.736z"/>
</svg>
