<svg xmlns="http://www.w3.org/2000/svg" viewBox="0 0 32 32" xml:space="preserve" enable-background="new 0 0 32 32">
    <path d="M22 26a1 1 0 0 1-1 1H7a1 1 0 0 1-1-1V12h7V5h9v9h2V3H11.245L4 10.6V26c0 1.654 1.346 3 3 3h14c1.654 0 3-1.346 3-3v-1h-2v1zM7.335 10 11 6.156V10H7.335z"/>
    <path d="M26.663 21.448c-.199.178-.488.266-.865.266a1.29 1.29 0 0 1-.568-.112.873.873 0 0 1-.374-.357 1.88 1.88 0 0 1-.209-.629 5.692 5.692 0 0 1-.065-.927v-.378c0-.362.024-.671.073-.929.048-.257.122-.467.222-.629s.225-.28.374-.355c.15-.075.326-.112.529-.112.218 0 .402.025.552.075.149.05.273.123.369.219s.167.218.213.365c.044.147.071.315.077.505h1.636a2.97 2.97 0 0 0-.248-.978 2.37 2.37 0 0 0-.556-.777 2.543 2.543 0 0 0-.868-.512A3.505 3.505 0 0 0 25.78 16c-.433 0-.827.077-1.179.231a2.55 2.55 0 0 0-.905.661 2.998 2.998 0 0 0-.58 1.045 4.383 4.383 0 0 0-.203 1.382v.369c0 .512.065.972.194 1.382.129.411.317.758.566 1.043.248.286.55.505.907.657.357.154.763.23 1.218.23.42 0 .802-.059 1.141-.175.34-.117.631-.281.874-.491.243-.211.433-.463.571-.758.137-.294.213-.619.228-.974H26.98c-.011.386-.117.668-.317.846zM12.598 16.245A3.375 3.375 0 0 0 11.29 16H9.036v7h2.274c.468 0 .899-.082 1.293-.246a3.014 3.014 0 0 0 1.692-1.745c.16-.41.24-.865.24-1.36v-.294c0-.494-.08-.946-.24-1.358a3.167 3.167 0 0 0-.671-1.063 2.992 2.992 0 0 0-1.026-.689zm.217 3.404c0 .679-.13 1.192-.39 1.536-.259.345-.631.517-1.115.517h-.588v-4.4h.567c.497 0 .876.172 1.135.515.26.343.39.852.39 1.528v.304zM19.865 16.233A3.015 3.015 0 0 0 18.667 16c-.44 0-.843.077-1.208.233a2.709 2.709 0 0 0-.943.67c-.263.29-.467.643-.613 1.058a4.238 4.238 0 0 0-.217 1.403v.276c0 .522.073.989.22 1.405.147.414.352.768.615 1.058.264.289.579.512.946.666.366.154.77.232 1.21.232.434 0 .832-.077 1.196-.232.363-.154.676-.377.94-.666.263-.29.469-.644.615-1.058a4.19 4.19 0 0 0 .22-1.405v-.276c0-.521-.074-.988-.222-1.403a3.096 3.096 0 0 0-.619-1.058 2.648 2.648 0 0 0-.942-.67zm.112 3.407c0 .671-.112 1.185-.337 1.543a1.074 1.074 0 0 1-.963.536c-.437 0-.766-.179-.988-.538-.221-.359-.332-.873-.332-1.54v-.285c0-.677.108-1.191.325-1.543.216-.35.545-.526.985-.526.422 0 .745.176.971.526.226.351.339.865.339 1.543v.284z"/>
</svg>
