<svg xmlns="http://www.w3.org/2000/svg" viewBox="0 0 32 32" xml:space="preserve" enable-background="new 0 0 32 32">
    <path d="M6 26V12h7V5h9v9h2V3H11.245L4 10.6V26c0 1.654 1.346 3 3 3h7v-2H7a1 1 0 0 1-1-1zm1.335-16L11 6.156V10H7.335z"/>
    <path d="M8 15h7v2H8zM8 19h5v2H8zM22.018 16.018c-3.859 0-7 3.141-7 7s3.141 7 7 7 7-3.141 7-7-3.141-7-7-7zm0 12c-2.757 0-5-2.243-5-5s2.243-5 5-5 5 2.243 5 5-2.244 5-5 5z"/>
    <path d="M23.018 20.018h-2v3.414l2.293 2.293 1.414-1.414-1.707-1.707z"/>
</svg>
