<svg xmlns="http://www.w3.org/2000/svg" viewBox="0 0 32 32" xml:space="preserve" enable-background="new 0 0 32 32">
    <path d="M13 12V5h9v10h2V3H11.245L4 10.6V26c0 1.654 1.346 3 3 3h5v-2H7a1 1 0 0 1-1-1V12h7zm-5.665-2L11 6.156V10H7.335z"/>
    <path d="M18 18.246v5.938A2.966 2.966 0 0 0 17 24c-1.654 0-3 1.346-3 3s1.346 3 3 3 3-1.346 3-3v-7.246l5-1.428v4.858A2.966 2.966 0 0 0 24 23c-1.654 0-3 1.346-3 3s1.346 3 3 3 3-1.346 3-3V15.674l-9 2.572zM17 28a1 1 0 1 1 0-2 1 1 0 0 1 0 2zm7-1a1 1 0 1 1 0-2 1 1 0 0 1 0 2z"/>
</svg>
