<svg xmlns="http://www.w3.org/2000/svg" viewBox="0 0 32 32" xml:space="preserve" enable-background="new 0 0 32 32">
    <path d="M22 26a1 1 0 0 1-1 1H7a1 1 0 0 1-1-1V12h7V5h9v9h2V3H11.245L4 10.6V26c0 1.654 1.346 3 3 3h14c1.654 0 3-1.346 3-3v-1h-2v1zM7.335 10 11 6.156V10H7.335z"/>
    <path d="M19.916 16.245A3.378 3.378 0 0 0 18.608 16h-2.254v7h2.274c.468 0 .899-.082 1.293-.246a3.014 3.014 0 0 0 1.692-1.745c.16-.41.24-.865.24-1.36v-.294c0-.494-.08-.946-.24-1.358a3.167 3.167 0 0 0-.671-1.063 3.01 3.01 0 0 0-1.026-.689zm.217 3.404c0 .679-.13 1.192-.39 1.536-.259.345-.631.517-1.115.517h-.588v-4.4h.567c.497 0 .876.172 1.135.515.26.343.39.852.39 1.528v.304zM28 17.302V16h-4.682v7h1.686v-2.789h2.722v-1.298h-2.722v-1.611zM13.268 16.176A3.417 3.417 0 0 0 12.134 16H9.34v7h1.687v-2.376h1.107c.419 0 .798-.054 1.134-.161.337-.107.622-.259.857-.457.233-.197.413-.433.538-.709.125-.275.188-.583.188-.923 0-.343-.063-.66-.188-.949a2.168 2.168 0 0 0-.538-.753 2.522 2.522 0 0 0-.857-.496zm-.187 2.583a.755.755 0 0 1-.181.298.81.81 0 0 1-.313.195 1.328 1.328 0 0 1-.453.069h-1.107v-2.019h1.107c.175 0 .327.03.453.089.127.059.231.138.313.238s.142.213.181.343c.038.131.057.267.057.412 0 .135-.019.26-.057.375z"/>
</svg>
