<svg xmlns="http://www.w3.org/2000/svg" viewBox="0 0 32 32" xml:space="preserve" enable-background="new 0 0 32 32">
    <path d="M5 26V12h7V5h9v9h2V3H10.245L3 10.6V26c0 1.654 1.346 3 3 3h10v-2H6a1 1 0 0 1-1-1zm1.335-16L10 6.156V10H6.335z"/>
    <path d="M7 15h7v2H7zM7 19h5v2H7zM28.725 28.311l-3.679-3.679a5.462 5.462 0 0 0 .972-3.114c0-3.032-2.468-5.5-5.5-5.5s-5.5 2.468-5.5 5.5 2.468 5.5 5.5 5.5a5.46 5.46 0 0 0 3.114-.972l3.679 3.679 1.414-1.414zm-11.707-6.793c0-1.93 1.57-3.5 3.5-3.5s3.5 1.57 3.5 3.5-1.57 3.5-3.5 3.5-3.5-1.571-3.5-3.5z"/>
</svg>
