<svg xmlns="http://www.w3.org/2000/svg" viewBox="0 0 32 32" xml:space="preserve" enable-background="new 0 0 32 32">
    <path d="M22 26a1 1 0 0 1-1 1H7a1 1 0 0 1-1-1V12h7V5h9v9h2V3H11.245L4 10.6V26c0 1.654 1.346 3 3 3h14c1.654 0 3-1.346 3-3v-1h-2v1zM7.335 10 11 6.156V10H7.335z"/>
    <path d="M17.063 16v7h4.625v-1.298h-2.939V16zM27.559 19.701a3.064 3.064 0 0 0-.717-.482 7.193 7.193 0 0 0-.969-.384 7.211 7.211 0 0 1-.522-.189 2.18 2.18 0 0 1-.394-.207.936.936 0 0 1-.248-.234.473.473 0 0 1-.087-.278c0-.093.021-.182.061-.264a.649.649 0 0 1 .18-.221.845.845 0 0 1 .297-.149c.119-.037.257-.054.412-.054a1.2 1.2 0 0 1 .414.065c.117.045.215.104.295.18s.139.169.178.276c.039.108.059.225.059.353h1.637c0-.322-.063-.612-.189-.873a1.94 1.94 0 0 0-.526-.666 2.43 2.43 0 0 0-.806-.426A3.365 3.365 0 0 0 25.61 16c-.378 0-.726.045-1.047.135-.32.091-.596.219-.831.384a1.818 1.818 0 0 0-.547.601c-.132.236-.197.5-.197.794 0 .305.064.573.195.802.129.229.301.43.516.601.215.172.462.321.739.445.278.125.566.237.866.337.255.085.462.164.62.239.158.075.281.15.367.227a.576.576 0 0 1 .175.242c.03.086.045.183.045.288 0 .09-.016.176-.049.258a.54.54 0 0 1-.157.213.8.8 0 0 1-.274.145 1.303 1.303 0 0 1-.4.054 2.18 2.18 0 0 1-.512-.054.932.932 0 0 1-.377-.18.794.794 0 0 1-.234-.329 1.39 1.39 0 0 1-.079-.503h-1.648c0 .269.039.512.115.731a2.01 2.01 0 0 0 .786 1.027 3 3 0 0 0 .59.307c.21.08.43.14.662.179.233.037.466.057.699.057.38 0 .726-.042 1.037-.126.31-.085.575-.208.795-.37.221-.162.39-.363.511-.601.12-.239.179-.511.179-.818 0-.287-.05-.544-.152-.772a1.867 1.867 0 0 0-.444-.612zM11.283 23l1.178-2.37L13.639 23h1.947l-2.009-3.53L15.534 16h-1.929l-1.144 2.327L11.316 16H9.394l1.951 3.47L9.34 23z"/>
</svg>
