<svg xmlns="http://www.w3.org/2000/svg" viewBox="0 0 32 32" xml:space="preserve" enable-background="new 0 0 32 32">
    <path d="M5 26.426V6h16v7h2V4h-3V2h-2v2h-2V2h-2v2h-2V2h-2v2H8V2H6v2H3v22.426A3.579 3.579 0 0 0 6.574 30H11v-2H6.574A1.576 1.576 0 0 1 5 26.426z"/>
    <path d="M8 14h10v2H8zM8 10h10v2H8zM8 18h5v2H8zM28.13 14.887a3.018 3.018 0 0 0-4.26 0l-7.827 7.827c-.434.435-.78.938-1.029 1.493l-2.018 4.491 1.322 1.322 4.491-2.018a5.014 5.014 0 0 0 1.494-1.03l7.827-7.826a3.015 3.015 0 0 0 0-4.259zm-1.414 2.845-7.825 7.825a3.02 3.02 0 0 1-.9.621l-2.092.939.939-2.092c.15-.335.359-.638.62-.899l7.826-7.825c.197-.198.457-.296.716-.296.26 0 .519.099.716.296a1.016 1.016 0 0 1 0 1.431z"/>
</svg>
