<svg xmlns="http://www.w3.org/2000/svg" viewBox="0 0 32 32" xml:space="preserve" enable-background="new 0 0 32 32">
    <path d="M27 5H5a3 3 0 0 0-3 3v17a3 3 0 0 0 3 3h22a3 3 0 0 0 3-3V8a3 3 0 0 0-3-3zM5 7h22c.551 0 1 .449 1 1v9.586l-7-7-9 9-4-4-4 4V8c0-.551.449-1 1-1zm22 19H5c-.551 0-1-.449-1-1v-2.586l4-4 5.293 5.293 1.414-1.414L13.414 21 21 13.414l7 7V25c0 .551-.449 1-1 1z"/>
    <path d="M12 15c1.654 0 3-1.346 3-3s-1.346-3-3-3-3 1.346-3 3 1.346 3 3 3zm0-4a1.001 1.001 0 1 1-1 1c0-.551.448-1 1-1z"/>
</svg>
