<?xml version="1.0" encoding="UTF-8" standalone="no"?>
<!DOCTYPE svg PUBLIC "-//W3C//DTD SVG 1.1//EN" "http://www.w3.org/Graphics/SVG/1.1/DTD/svg11.dtd">
<svg width="100%" height="100%" viewBox="0 0 64 64" version="1.1" xmlns="http://www.w3.org/2000/svg" xmlns:xlink="http://www.w3.org/1999/xlink" xml:space="preserve" style="fill-rule:evenodd;clip-rule:evenodd;stroke-linejoin:round;stroke-miterlimit:2;">
    <path d="M64,8C64,3.585 60.415,0 56,0L8,0C3.585,0 0,3.585 0,8L0,56C0,60.415 3.585,64 8,64L56,64C60.415,64 64,60.415 64,56L64,8Z" style="fill:rgb(12,31,45);"/>
    <g transform="matrix(0.213326,0,0,0.213326,-21.3316,-21.3305)">
        <g transform="matrix(0.6875,0,0,0.6875,78.125,78.1234)">
            <path d="M379.75,250.27C379.75,370.17 356.31,400 249.74,400C143.16,400 120.25,370.16 120.25,250.27C120.25,129.84 143.16,100 249.74,100C356.3,100 379.75,129.84 379.75,250.27ZM184.73,250.27C184.73,325.4 192.72,344.06 249.74,344.06C306.75,344.06 314.74,325.4 314.74,250.27C314.74,174.61 306.74,155.96 249.74,155.96C192.72,155.96 184.73,174.61 184.73,250.27Z" style="fill:rgb(50,184,198);fill-rule:nonzero;"/>
        </g>
        <g transform="matrix(0.6875,0,0,0.6875,78.125,78.1234)">
            <path d="M378.99,282.09C379.48,272.22 379.75,261.73 379.75,250.26C379.75,129.83 356.31,99.99 249.73,99.99C248.62,99.99 227.14,99.99 211.12,101.83C199.86,118.87 192.48,175.66 188.07,196.15C189.07,189.96 192.37,180.89 194.64,176.74C199.62,167.62 206.38,163.3 214.65,160.34C228.6,155.35 244.28,155.94 249.74,155.94C306.76,155.94 314.75,174.59 314.75,250.25" style="fill:url(#_Linear1);fill-rule:nonzero;"/>
        </g>
    </g>
    <defs>
        <linearGradient id="_Linear1" x1="0" y1="0" x2="1" y2="0" gradientUnits="userSpaceOnUse" gradientTransform="matrix(174.06,174.06,-174.06,174.06,210.72,102.25)"><stop offset="0" style="stop-color:rgb(1,141,160);stop-opacity:1"/><stop offset="0.14" style="stop-color:rgb(1,141,160);stop-opacity:1"/><stop offset="0.77" style="stop-color:rgb(50,184,198);stop-opacity:1"/><stop offset="1" style="stop-color:rgb(50,184,198);stop-opacity:1"/></linearGradient>
    </defs>
</svg>
