<svg xmlns="http://www.w3.org/2000/svg" xml:space="preserve" viewBox="0 0 32 32"><path d="M16 20c2.206 0 4-1.794 4-4V6c0-2.206-1.794-4-4-4s-4 1.794-4 4v10c0 2.206 1.794 4 4 4M14 6c0-1.103.897-2 2-2s2 .897 2 2v10c0 1.103-.897 2-2 2s-2-.897-2-2z"/><path d="M16 23a7.03 7.03 0 0 1-6.056-3.501l-1.73 1.002A9.03 9.03 0 0 0 15 24.933V30h2v-5.067a9.03 9.03 0 0 0 6.786-4.432l-1.73-1.002A7.03 7.03 0 0 1 16 23M27.373 2.856l-1.625 1.166A11.9 11.9 0 0 1 28 11a11.9 11.9 0 0 1-2.252 6.978l1.625 1.166A13.9 13.9 0 0 0 30 11c0-2.932-.908-5.748-2.627-8.144M6.252 4.022 4.627 2.856A13.9 13.9 0 0 0 2 11c0 2.933.908 5.749 2.627 8.144l1.625-1.166A11.9 11.9 0 0 1 4 11c0-2.511.778-4.924 2.252-6.978"/><path d="m24.531 5.801-1.707 1.042C23.594 8.103 24 9.541 24 11s-.406 2.897-1.176 4.157l1.707 1.042C25.492 14.625 26 12.828 26 11s-.508-3.625-1.469-5.199M8 11c0-1.459.406-2.897 1.176-4.157L7.469 5.801C6.508 7.375 6 9.172 6 11s.508 3.625 1.469 5.199l1.707-1.042A7.97 7.97 0 0 1 8 11"/></svg>