<svg xmlns="http://www.w3.org/2000/svg" viewBox="0 0 32 32"><path d="m22.66 12.96-.8-1.94h-1.79l-.79 1.94-5.58 13.05h2.38l2.29-5.59h5.19l2.29 5.59H28l-5.34-13.04Zm-3.47 5.45 1.78-4.33 1.77 4.33zm-4.53.47c-1.21-.94-2.27-1.87-3.16-2.77-1.4 1.55-3.18 3.26-5.46 5.08l-1.46-1.76c2.28-1.82 4.01-3.51 5.35-5.01-1.88-2.19-2.73-3.81-2.78-3.93l2.07-1.02s.7 1.32 2.21 3.14c1.62-2.14 2.32-3.73 2.6-4.51H4V5.83h6.4V4h2.31v1.83h6.4V8.1h-2.69c-.13.56-.82 2.89-3.44 6.24.74.76 1.62 1.55 2.61 2.35l-.93 2.18Z"/></svg>