<svg fill="none" xmlns="http://www.w3.org/2000/svg" viewBox="0 0 24 24">
    <g clip-path="url(#chart-pie-search_svg__a)">
        <path d="m21.532 20.468-2.76-2.76a4.099 4.099 0 0 0 .352-4.043c.241-.78.376-1.59.376-2.415C19.5 6.697 15.803 3 11.25 3V1.477l-.81.06c-4.717.36-8.543 4.193-8.902 8.903l-.06.81H3c0 4.553 3.697 8.25 8.25 8.25a8.06 8.06 0 0 0 2.43-.375 4.151 4.151 0 0 0 1.703.367c.862 0 1.672-.27 2.332-.727l2.76 2.76 1.057-1.057ZM9.75 3.142V9.75H3.135c.6-3.338 3.27-6.015 6.615-6.608ZM4.5 11.25h6.75V4.5c3.72 0 6.75 3.03 6.75 6.75 0 .3-.023.6-.067.893a4.12 4.12 0 0 0-2.558-.893 4.132 4.132 0 0 0-4.125 4.125c0 .968.338 1.852.9 2.558-.3.037-.6.067-.908.067-3.72 0-6.75-3.03-6.75-6.75H4.5Zm8.258 4.125a2.628 2.628 0 0 1 2.625-2.625 2.628 2.628 0 0 1 2.625 2.625A2.628 2.628 0 0 1 15.383 18a2.628 2.628 0 0 1-2.625-2.625Z"/>
    </g>
    <defs>
        <clipPath id="chart-pie-search_svg__a">
            <path d="M0 0h24v24H0z"/>
        </clipPath>
    </defs>
</svg>
