<svg xmlns="http://www.w3.org/2000/svg" viewBox="0 0 32 32" xml:space="preserve" enable-background="new 0 0 32 32">
    <path d="M17 4.217V2h-1C11.97 2 8.18 3.57 5.33 6.42l-.7.7 1.567 1.567a12.814 12.814 0 0 0-3.114 8.396C3.083 24.205 8.878 30 16 30s12.917-5.795 12.917-12.917c0-6.785-5.262-12.352-11.917-12.866zm9.866 11.863H17V6.217c5.221.477 9.388 4.642 9.866 9.863zM15 4.04v10.63L7.48 7.15C9.6 5.33 12.21 4.25 15 4.04zm-7.388 6.062 6.978 6.978-6.979 6.979a10.865 10.865 0 0 1-2.528-6.976c0-2.581.894-5.024 2.529-6.981zM16 28a10.87 10.87 0 0 1-6.974-2.526L16 18.49l.41-.41h10.457C26.361 23.633 21.683 28 16 28z"/>
</svg>
