<svg xmlns="http://www.w3.org/2000/svg" viewBox="0 0 32 32" xml:space="preserve" enable-background="new 0 0 32 32">
    <path d="M9 7h2v2H9zM9 11h2v2H9zM9 15h2v2H9zM14 7h2v2h-2zM14 11h2v2h-2zM14 15h2v2h-2z"/>
    <path d="M11 24v-2h2v-2H9v4H7V4h11v10h2V7h5v7h2V5h-7V2H5v22H3v2h10.241v-2H13z"/>
    <path d="M29 24v-2h-2.621a4.437 4.437 0 0 0-.579-1.386l1.857-1.857-1.414-1.414-1.857 1.857A4.437 4.437 0 0 0 23 18.621V16h-2v2.621c-.5.114-.965.313-1.386.579l-1.857-1.857-1.414 1.414 1.857 1.857A4.437 4.437 0 0 0 17.621 22H15v2h2.621c.114.5.313.965.579 1.386l-1.857 1.857 1.414 1.414 1.857-1.857c.421.266.887.465 1.386.579V30h2v-2.621c.5-.114.965-.313 1.386-.579l1.857 1.857 1.414-1.414-1.857-1.857c.266-.421.465-.887.579-1.386H29zm-7 1.5c-1.379 0-2.5-1.121-2.5-2.5s1.121-2.5 2.5-2.5 2.5 1.121 2.5 2.5-1.121 2.5-2.5 2.5z"/>
</svg>
