<svg xmlns="http://www.w3.org/2000/svg" viewBox="0 0 32 32" xml:space="preserve" enable-background="new 0 0 32 32">
    <path d="M25 22V4h-2v20h7v-2zM21 16l-1.52-8.141C19.146 5.515 17.204 4 14.53 4H7v10H3v7.382c-.615.703-1 1.612-1 2.618 0 2.206 1.794 4 4 4 1.859 0 3.411-1.279 3.858-3h4.284c.447 1.721 1.999 3 3.858 3 2.206 0 4-1.794 4-4a3.962 3.962 0 0 0-1-2.618V16zM9 6h5.53c1.288 0 2.745.562 2.978 2.186L18.982 16H12.83a1 1 0 0 1-.713-.297l-.82-.82A2.985 2.985 0 0 0 9.17 14H9V6zM6 26c-1.103 0-2-.897-2-2s.897-2 2-2 2 .897 2 2-.897 2-2 2zm8.142-3H9.858C9.411 21.279 7.859 20 6 20c-.347 0-.678.058-1 .142V16h4.17a1 1 0 0 1 .713.297l.82.82c.569.57 1.324.883 2.127.883H19v2.142A3.939 3.939 0 0 0 18 20c-1.859 0-3.411 1.279-3.858 3zM18 26c-1.103 0-2-.897-2-2s.897-2 2-2 2 .897 2 2-.897 2-2 2z"/>
</svg>
