<svg fill="none" xmlns="http://www.w3.org/2000/svg" viewBox="0 0 24 24">
    <g clip-path="url(#graph-search_svg__a)">
        <path d="M8.25 17.25h-4.5V6.008h4.5V17.25Zm-3-1.5h1.5V7.508h-1.5v8.242ZM19.523 17.707c.457-.667.727-1.47.727-2.332 0-.127-.008-.255-.023-.375V4.508h-4.5v6.765a4.288 4.288 0 0 0-1.5.442V8.258h-4.5v8.992h2.716a4.12 4.12 0 0 0 3.667 2.25c.863 0 1.672-.27 2.332-.727l2.76 2.76 1.058-1.058-2.76-2.76.023-.008Zm-.788-11.7v6.18a4.05 4.05 0 0 0-1.492-.772v-5.4h1.492v-.007Zm-7.492 9.743V9.758h1.5v3.292a4.096 4.096 0 0 0-.736 2.325c0 .127.008.255.023.375h-.788ZM16.124 18a2.628 2.628 0 0 1-2.625-2.625 2.628 2.628 0 0 1 2.625-2.625 2.628 2.628 0 0 1 2.625 2.625A2.628 2.628 0 0 1 16.125 18Z"/>
    </g>
    <defs>
        <clipPath id="graph-search_svg__a">
            <path d="M0 0h24v24H0z"/>
        </clipPath>
    </defs>
</svg>
