<svg xmlns="http://www.w3.org/2000/svg" viewBox="0 0 32 32" xml:space="preserve" enable-background="new 0 0 32 32">
    <path d="M16 6h-6v8h6V6zm-2 6h-2V8h2v4zM18 7h4v2h-4zM18 11h4v2h-4zM16.404 25.494l5.858-5.858 1.414 1.414-5.858 5.858zM18.364 21.227a1.227 1.227 0 1 0-2.453 0 1.227 1.227 0 0 0 2.453 0zM22.864 24.091a1.227 1.227 0 1 0 0 2.453 1.227 1.227 0 0 0 0-2.453z"/>
    <path d="M28.5 22H30v-2.455c0-1.654-1.346-3-3-3h-1V2H6v6H2v16c0 1.654 1.346 3 3 3h5c0 1.654 1.346 3 3 3h14c1.654 0 3-1.346 3-3v-2h-1.5c-.827 0-1.5-.673-1.5-1.5s.673-1.5 1.5-1.5zM4 24V10h2v14a1 1 0 0 1-2 0zm7 1H7.816c.112-.314.184-.648.184-1V4h16v12.545H13c-1.654 0-3 1.346-3 3V22h1.5c.827 0 1.5.673 1.5 1.5s-.673 1.5-1.5 1.5H11zm17 1.965V27a1 1 0 0 1-1 1H13a1 1 0 0 1-1-1v-.035c1.694-.244 3-1.705 3-3.465s-1.306-3.221-3-3.465v-.49a1 1 0 0 1 1-1h14a1 1 0 0 1 1 1v.49c-1.694.244-3 1.705-3 3.465s1.306 3.221 3 3.465z"/>
</svg>
