<svg xmlns="http://www.w3.org/2000/svg" viewBox="0 0 32 32" xml:space="preserve" enable-background="new 0 0 32 32">
    <path d="M27 4H5C3.346 4 2 5.346 2 7v18c0 1.654 1.346 3 3 3h22c1.654 0 3-1.346 3-3V7c0-1.654-1.346-3-3-3zm1 21a1 1 0 0 1-1 1H5a1 1 0 0 1-1-1V7c0-.551.448-1 1-1h22c.552 0 1 .449 1 1v18z"/>
    <path d="M25 17v-3.267C25 12.226 23.748 11 22.21 11H19c0-1.103-.897-2-2-2h-2c-1.103 0-2 .897-2 2H9.79C8.252 11 7 12.226 7 13.733V17c-1.103 0-2 .897-2 2v2c0 1.103.897 2 2 2h2c1.103 0 2-.897 2-2v-2c0-1.103-.897-2-2-2v-3.267c0-.404.354-.733.79-.733H13c0 1.103.897 2 2 2v2c-1.103 0-2 .897-2 2v2c0 1.103.897 2 2 2h2c1.103 0 2-.897 2-2v-2c0-1.103-.897-2-2-2v-2c1.103 0 2-.897 2-2h3.21c.436 0 .79.329.79.733V17c-1.103 0-2 .897-2 2v2c0 1.103.897 2 2 2h2c1.103 0 2-.897 2-2v-2c0-1.103-.897-2-2-2zM9.002 21H7v-2h2l.002 2zm8 0H15v-2h2l.002 2zM15 13v-2h2l.001 2H15zm8 8v-2h2l.002 2H23z"/>
</svg>
