<svg xmlns="http://www.w3.org/2000/svg" viewBox="0 0 32 32" xml:space="preserve" enable-background="new 0 0 32 32">
    <path d="M16 5.932c.172 0 .599.048.86.491l3.467 5.866-2.714-.723-.516 1.933 6.074 1.618 1.465-6.113-1.945-.466-.651 2.718-3.457-5.851c-.546-.923-1.512-1.473-2.583-1.473s-2.037.551-2.583 1.474l-2.769 4.684 1.723 1.018 2.769-4.684a.978.978 0 0 1 .86-.492zM28.078 21.474l-2.841-4.808-1.723 1.018 2.842 4.808a.979.979 0 0 1 .007 1.004.98.98 0 0 1-.868.504h-7.22l2.003-1.958-1.398-1.43-4.495 4.395 4.507 4.383 1.395-1.434L18.274 26h7.221a2.963 2.963 0 0 0 2.605-1.514 2.962 2.962 0 0 0-.022-3.012zM5.637 23.495a.977.977 0 0 1 .008-1.004l3.539-5.988.669 2.732 1.943-.477-1.498-6.105-6.064 1.651.525 1.93 2.693-.734-3.529 5.973a2.964 2.964 0 0 0-.023 3.013A2.962 2.962 0 0 0 6.505 26H12v-2H6.505a.978.978 0 0 1-.868-.505z"/>
</svg>
