<svg fill="none" xmlns="http://www.w3.org/2000/svg" viewBox="0 0 24 24">
    <g clip-path="url(#tag-disabled_svg__a)">
        <path d="M6.067 15.068 3.143 12.54a.744.744 0 0 1-.014-1.065l5.7-4.927c.405-.353.93-.548 1.47-.548h4.837l1.5-1.5h-6.338c-.9 0-1.77.322-2.452.915L2.13 10.357l-.03.023A2.24 2.24 0 0 0 1.41 12c0 .615.248 1.193.72 1.65l2.873 2.482 1.064-1.065ZM20.865 4.5l1.193-1.192L21 2.25 18.75 4.5 17.25 6 7.2 16.05l-1.065 1.065-2.76 2.76 1.058 1.058 2.842-2.843.57.495a3.737 3.737 0 0 0 2.452.915H22.5v-15h-1.635ZM21 18H10.297c-.54 0-1.065-.195-1.47-.547l-.487-.428L19.365 6H21v12Z"/>
        <path d="M6.75 12c0 .645.412 1.193.982 1.402l1.92-1.92A1.498 1.498 0 0 0 8.25 10.5c-.825 0-1.5.675-1.5 1.5Z"/>
    </g>
    <defs>
        <clipPath id="tag-disabled_svg__a">
            <path d="M0 0h24v24H0z"/>
        </clipPath>
    </defs>
</svg>
