<svg xmlns="http://www.w3.org/2000/svg" viewBox="0 0 32 32" xml:space="preserve" enable-background="new 0 0 32 32">
    <path d="M26.6 8H22V6H2v17h3.051c.245 1.692 1.691 3 3.449 3s3.204-1.308 3.449-3h5.101c.245 1.692 1.691 3 3.449 3s3.204-1.308 3.449-3H30V11.4C30 9.525 28.475 8 26.6 8zM8.5 24c-.827 0-1.5-.673-1.5-1.5S7.673 21 8.5 21s1.5.673 1.5 1.5S9.327 24 8.5 24zm8.851-3h-5.702c-.564-1.178-1.758-2-3.149-2s-2.585.822-3.149 2H4V8h16v11.051A3.492 3.492 0 0 0 17.351 21zm3.149 3c-.827 0-1.5-.673-1.5-1.5s.673-1.5 1.5-1.5 1.5.673 1.5 1.5-.673 1.5-1.5 1.5zm3.149-3A3.509 3.509 0 0 0 22 19.351V10h4.6c.772 0 1.4.628 1.4 1.4v.6h-2c-1.654 0-3 1.346-3 3s1.346 3 3 3h2v3h-4.351zM28 16h-2a1.001 1.001 0 0 1 0-2h2v2z"/>
</svg>
