<svg xmlns="http://www.w3.org/2000/svg" xml:space="preserve" viewBox="0 0 32 32"><path d="M12.562 23.17a3.1 3.1 0 0 0 2.199-.909l7.652-7.652L11.161 3.355 9.747 4.77l1.402 1.402-6.238 6.238C4.323 12.997 4 13.778 4 14.608s.323 1.612.911 2.198l5.453 5.454c.607.607 1.403.91 2.198.91m.786-2.323a1.11 1.11 0 0 1-1.569 0l-5.237-5.238h12.044zm-.785-13.261 6.022 6.022H6.541zM6 26h12v2H6zm21.164-5.634L24 16.146l-3.164 4.22a4.2 4.2 0 0 0-.399 4.387c.678 1.383 1.981 2.224 3.506 2.248h.132c1.508-.024 2.812-.865 3.489-2.248.704-1.44.55-3.12-.4-4.387m-1.397 3.507c-.163.333-.657 1.109-1.709 1.127H24v1l-.041-1c-1.068-.018-1.562-.794-1.726-1.127-.292-.597-.392-1.515.202-2.308L24 19.479l1.564 2.087c.594.792.495 1.71.203 2.307"/></svg>