<svg xmlns="http://www.w3.org/2000/svg" width="24" height="24"><g clip-path="url(#a)"><path d="M9.75 13.5v-.75h-1.5v.75a2.257 2.257 0 0 0 2.25 2.25h.75v-1.5h-.75a.75.75 0 0 1-.75-.75m3.75-5.25h-.75v1.5h.75c.412 0 .75.338.75.75v.75h1.5v-.75a2.257 2.257 0 0 0-2.25-2.25"/><path d="M18.75 3H10.5a2.257 2.257 0 0 0-2.25 2.25v3h-3A2.257 2.257 0 0 0 3 10.5v8.25A2.257 2.257 0 0 0 5.25 21h8.25a2.257 2.257 0 0 0 2.25-2.25v-3h3A2.257 2.257 0 0 0 21 13.5V5.25A2.257 2.257 0 0 0 18.75 3m.75 10.5c0 .412-.337.75-.75.75h-3v-1.5h-1.5v1.5h-1.5v1.5h1.5v3c0 .413-.338.75-.75.75H5.25a.75.75 0 0 1-.75-.75V10.5c0-.412.338-.75.75-.75h3v1.5h1.5v-1.5h1.5v-1.5h-1.5v-3c0-.412.338-.75.75-.75h8.25c.413 0 .75.338.75.75z"/></g><defs><clipPath id="a"><path d="M0 0h24v24H0z"/></clipPath></defs></svg>