<svg xmlns="http://www.w3.org/2000/svg" viewBox="0 0 32 32" xml:space="preserve" enable-background="new 0 0 32 32">
    <path d="M2 7v18h28V7H2zm26 16H4V9h24v14z"/>
    <path d="M16 20a4 4 0 1 0 0-8 4 4 0 0 0 0 8zm0-6c1.103 0 2 .897 2 2s-.897 2-2 2-2-.897-2-2 .897-2 2-2zM8 14c0-.551.448-1 1-1h1v-2H9c-1.654 0-3 1.346-3 3v1h2v-1zM9 21h1v-2H9a1 1 0 0 1-1-1v-1H6v1c0 1.654 1.346 3 3 3zM26 18v-1h-2v1a1 1 0 0 1-1 1h-1v2h1c1.654 0 3-1.346 3-3zM24 14v1h2v-1c0-1.654-1.346-3-3-3h-1v2h1c.552 0 1 .449 1 1z"/>
</svg>
