<svg xmlns="http://www.w3.org/2000/svg" viewBox="0 0 32 32" xml:space="preserve" enable-background="new 0 0 32 32">
    <path d="M20.5 2c-3.46 0-7.5.786-7.5 3v14.052A22.332 22.332 0 0 0 11.5 19c-3.46 0-7.5.786-7.5 3v5c0 2.214 4.04 3 7.5 3s7.5-.786 7.5-3v-4.055c.489.034.989.055 1.5.055 3.46 0 7.5-.786 7.5-3V5c0-2.214-4.04-3-7.5-3zM26 9.881c-.335.397-2.256 1.119-5.5 1.119s-5.165-.722-5.5-1.119V7.164c1.488.593 3.582.836 5.5.836s4.012-.243 5.5-.836v2.717zm0 5c-.335.397-2.256 1.119-5.5 1.119s-5.165-.722-5.5-1.119v-2.717c1.488.593 3.582.836 5.5.836s4.012-.243 5.5-.836v2.717zM20.5 4c2.937 0 4.799.593 5.374 1-.575.407-2.438 1-5.374 1s-4.799-.593-5.374-1c.575-.407 2.437-1 5.374-1zm-9 17c2.937 0 4.799.594 5.374 1-.575.406-2.438 1-5.374 1s-4.799-.594-5.374-1c.575-.406 2.437-1 5.374-1zm0 7c-3.206 0-5.131-.707-5.5-1.106v-2.729c1.488.592 3.582.835 5.5.835s4.012-.243 5.5-.836v2.729c-.369.4-2.294 1.107-5.5 1.107zM26 19.894c-.369.399-2.294 1.106-5.5 1.106-.657 0-1.287-.04-1.897-.101-.646-.811-2.015-1.321-3.603-1.607v-2.128c1.488.593 3.582.836 5.5.836s4.012-.243 5.5-.836v2.73z"/>
</svg>
