<svg xmlns="http://www.w3.org/2000/svg" viewBox="0 0 32 32" xml:space="preserve" enable-background="new 0 0 32 32">
    <path d="M20.337 15.534A3.474 3.474 0 0 0 21 13.5a3.495 3.495 0 0 0-2-3.149V8h-2v2h-2V8h-2v2h-3v2h2v8h-2v2h3v2h2v-2h2v2h2v-2.051c1.692-.245 3-1.691 3-3.449a3.492 3.492 0 0 0-1.663-2.966zM14 12h3.5c.827 0 1.5.673 1.5 1.5s-.673 1.5-1.5 1.5H14v-3zm4.5 8H14v-3h4.5c.827 0 1.5.673 1.5 1.5s-.673 1.5-1.5 1.5z"/>
    <path d="M16 2C8.28 2 2 8.28 2 16s6.28 14 14 14 14-6.28 14-14S23.72 2 16 2zm0 26C9.383 28 4 22.617 4 16S9.383 4 16 4s12 5.383 12 12-5.383 12-12 12z"/>
</svg>
