<svg xmlns="http://www.w3.org/2000/svg" viewBox="0 0 32 32" xml:space="preserve" enable-background="new 0 0 32 32">
    <path d="M25.504 11.825a6.677 6.677 0 0 0-.612-.625c.019-.214.03-.431.03-.655 0-1.754-.62-3.468-1.748-4.829A7.526 7.526 0 0 0 17.376 3H7.551L4.87 25.993h5.426l-.349 2.997h7.457l.89-6.58h2.256a6.432 6.432 0 0 0 6.345-5.293A6.45 6.45 0 0 0 27 15.96a6.524 6.524 0 0 0-1.496-4.135zm-9.426 4.266h-4.434l-1.07 7.902H7.116L9.332 5h8.044a5.53 5.53 0 0 1 4.26 1.995 5.58 5.58 0 0 1 1.286 3.551c0 .341-.03.661-.094.989a5.526 5.526 0 0 1-5.45 4.557l-1.298-.003m8.846.674a4.436 4.436 0 0 1-4.376 3.648h-4.004l-.89 6.58h-3.463l.116-.997h.013l1.07-7.902h2.686v-.003l1.298.003c2.247 0 4.36-.99 5.799-2.718a7.548 7.548 0 0 0 1.104-1.815c.46.721.721 1.551.721 2.401 0 .264-.024.527-.074.803z"/>
</svg>
