<svg xmlns="http://www.w3.org/2000/svg" viewBox="0 0 32 32" xml:space="preserve" enable-background="new 0 0 32 32">
    <path d="M26.97 24.76a32.76 32.76 0 0 1-.97-7.88V15c0-1.78-.47-3.45-1.28-4.9l4.19-4.19L27.5 4.5l-3.95 3.95-1.42 1.42L8 24l-2 2-1.5 1.5 1.41 1.41L8.82 26h2.281c.465 2.279 2.484 4 4.899 4s4.434-1.721 4.899-4h6.381l-.31-1.24zM16 28a2.996 2.996 0 0 1-2.816-2h5.632A2.996 2.996 0 0 1 16 28zm0-4h-5.18l12.41-12.41c.49 1.04.77 2.19.77 3.41v1.88c0 2.39.25 4.78.74 7.12H16zM8 16.88V15c0-4.41 3.59-8 8-8 1.74 0 3.36.56 4.67 1.51l1.43-1.43A9.956 9.956 0 0 0 17 5.05V2h-2v3.05c-5.04.5-9 4.78-9 9.95v1.88c0 2.38-.27 4.75-.78 7.08l2.47-2.47c.21-1.53.31-3.07.31-4.61z"/>
</svg>
