<svg xmlns="http://www.w3.org/2000/svg" viewBox="0 0 32 32" xml:space="preserve" enable-background="new 0 0 32 32">
    <path d="m27.281 26-.312-1.242A32.562 32.562 0 0 1 26 16.877V15c0-5.177-3.954-9.446-9-9.949V2h-2v3.051C9.954 5.554 6 9.823 6 15v1.877c0 2.654-.326 5.306-.97 7.881L4.719 26h6.382c.465 2.279 2.484 4 4.899 4s4.434-1.721 4.899-4h6.382zM8 16.877V15c0-4.411 3.589-8 8-8s8 3.589 8 8v1.877c0 2.393.25 4.783.743 7.123H7.257C7.75 21.66 8 19.27 8 16.877zM16 28a2.996 2.996 0 0 1-2.816-2h5.632A2.996 2.996 0 0 1 16 28z"/>
</svg>
