<svg xmlns="http://www.w3.org/2000/svg" viewBox="0 0 32 32" xml:space="preserve" enable-background="new 0 0 32 32">
    <path d="M4 25V11h20v3h2V4h-4V2h-2v2H8V2H6v2H2v21c0 1.654 1.346 3 3 3h10v-2H5a1 1 0 0 1-1-1zM4 6h20v3H4V6z"/>
    <path d="M8 15h2v2H8zM8 20h2v2H8zM13 15h2v2h-2zM30 24v-2h-2.621a4.437 4.437 0 0 0-.579-1.386l1.857-1.857-1.414-1.414-1.857 1.857A4.437 4.437 0 0 0 24 18.621V16h-2v2.621c-.5.114-.965.313-1.386.579l-1.857-1.857-1.414 1.414 1.857 1.857A4.437 4.437 0 0 0 18.621 22H16v2h2.621c.114.5.313.965.579 1.386l-1.857 1.857 1.414 1.414 1.857-1.857c.421.266.887.465 1.386.579V30h2v-2.621c.5-.114.965-.313 1.386-.579l1.857 1.857 1.414-1.414-1.857-1.857c.266-.421.465-.887.579-1.386H30zm-7 1.5c-1.379 0-2.5-1.121-2.5-2.5s1.121-2.5 2.5-2.5 2.5 1.121 2.5 2.5-1.121 2.5-2.5 2.5z"/>
</svg>
