<svg xmlns="http://www.w3.org/2000/svg" viewBox="0 0 32 32" xml:space="preserve" enable-background="new 0 0 32 32">
    <path d="M17 3C9.832 3 4 8.832 4 16v.355L2.015 14.37.601 15.784 5 20.184l4.399-4.399-1.414-1.415L6 16.355V16c0-2.673.961-5.125 2.552-7.034l15.482 15.482A10.953 10.953 0 0 1 17 27a10.94 10.94 0 0 1-8.671-4.231l-1.576 1.232A12.928 12.928 0 0 0 17 29c7.168 0 13-5.832 13-13S24.168 3 17 3zm8.448 20.034L9.966 7.552A10.953 10.953 0 0 1 17 5c6.065 0 11 4.935 11 11 0 2.673-.961 5.125-2.552 7.034z"/>
</svg>
