<svg xmlns="http://www.w3.org/2000/svg" viewBox="0 0 32 32" xml:space="preserve" enable-background="new 0 0 32 32">
    <path d="M4 14.5C4 8.71 8.71 4 14.5 4c4.899 0 9.214 3.469 10.259 8.248l1.953-.427C25.469 6.13 20.333 2 14.5 2 7.607 2 2 7.607 2 14.5c0 6.198 4.622 11.521 10.752 12.379l.277-1.98C7.882 24.177 4 19.707 4 14.5z"/>
    <path d="M13 7v9h7v-2h-5V7zM29.13 14.887a3.018 3.018 0 0 0-4.26 0l-7.827 7.827c-.434.435-.78.938-1.029 1.493l-2.018 4.491 1.322 1.322 4.491-2.018a5.014 5.014 0 0 0 1.494-1.03l7.827-7.826a3.015 3.015 0 0 0 0-4.259zm-1.414 2.845-7.825 7.825a3.02 3.02 0 0 1-.9.621l-2.092.939.939-2.092c.15-.335.359-.638.62-.899l7.826-7.825c.197-.198.457-.296.716-.296.26 0 .519.099.716.296a1.016 1.016 0 0 1 0 1.431z"/>
</svg>
