<svg xmlns="http://www.w3.org/2000/svg" viewBox="0 0 32 32" xml:space="preserve" enable-background="new 0 0 32 32">
    <path d="M12 7v8h6v-2h-4V7zM23 16c-3.859 0-7 3.141-7 7s3.141 7 7 7 7-3.141 7-7-3.141-7-7-7zm0 12c-2.757 0-5-2.243-5-5s2.243-5 5-5 5 2.243 5 5-2.243 5-5 5z"/>
    <path d="m22.302 23.04-1.196-1.18-1.404 1.424 2.61 2.576 3.876-3.878-1.415-1.414zM4 13.5C4 8.262 8.262 4 13.5 4S23 8.262 23 13.5l.002.173c.001.096.003.196-.001.282l1.998.09a6.54 6.54 0 0 0 .002-.398L25 13.5C25 7.159 19.841 2 13.5 2S2 7.159 2 13.5 7.159 25 13.5 25h.5v-2h-.5C8.262 23 4 18.738 4 13.5z"/>
</svg>
