<svg xmlns="http://www.w3.org/2000/svg" viewBox="0 0 32 32" xml:space="preserve" enable-background="new 0 0 32 32">
    <path d="M26.881 5.119a4.004 4.004 0 0 0-5.657 0L7.65 18.693l-.206.3-3.41 7.652 1.32 1.32 7.652-3.41.3-.206L26.88 10.775c.756-.755 1.172-1.76 1.172-2.828s-.415-2.072-1.171-2.828zM10.178 18.994l9.899-9.9 2.829 2.829-9.9 9.899-2.828-2.828zm-1.249 1.58 2.497 2.497-4.504 2.007 2.007-4.504zM25.467 9.362l-1.147 1.147-2.829-2.829 1.147-1.147a2.004 2.004 0 0 1 2.829 0c.378.378.586.88.586 1.415s-.208 1.036-.586 1.414z"/>
</svg>
