<svg xmlns="http://www.w3.org/2000/svg" viewBox="0 0 32 32" xml:space="preserve" enable-background="new 0 0 32 32">
    <path d="M26.88 5.12a4.008 4.008 0 0 0-5.66 0l-6.64 6.64L16 13.18l4.08-4.08.001-.001 2.82 2.82-.001.001L18.82 16l1.42 1.42 6.64-6.64c.76-.76 1.17-1.76 1.17-2.83s-.41-2.08-1.17-2.83zm-1.41 4.24-1.15 1.15-2.83-2.83 1.15-1.15c.78-.78 2.05-.78 2.83 0a2.016 2.016 0 0 1 0 2.83zM17.41 17.41l-2.82-2.82-1.42-1.42L5.5 5.5 4.09 6.91l7.67 7.67-4.11 4.11-.21.3-3.41 7.66 1.32 1.32 7.66-3.41.3-.21 4.11-4.11 7.67 7.67 1.41-1.41-7.67-7.67-1.42-1.42zm-8.481 3.163 2.498 2.498L6.92 25.08l2.009-4.507zm4.073 1.245-2.82-2.82L13.18 16 16 18.82l-2.998 2.998z"/>
</svg>
