<svg xmlns="http://www.w3.org/2000/svg" viewBox="0 0 32 32" xml:space="preserve" enable-background="new 0 0 32 32">
    <path d="m23.293 23.707 1.414-1.414 3 3-1.414 1.415zM4.293 6.707l1.414-1.414 3 3-1.414 1.415zM4.293 25.293l3-3 1.414 1.414-3 3zM23.293 8.293l3-3 1.414 1.414-3 3zM15 25.997h2V30h-2zM15 2h2v4.002h-2zM16 24c2.575 0 5.15-.909 7.42-2.728L30 16l-6.58-5.272C21.15 8.909 18.575 8 16 8s-5.15.909-7.42 2.728L2 16l6.58 5.272C10.85 23.091 13.425 24 16 24zm6-8c0 3.308-2.692 6-6 6s-6-2.692-6-6 2.692-6 6-6 6 2.692 6 6zm1.561 2.596c.28-.815.439-1.686.439-2.596s-.159-1.781-.439-2.596L26.801 16l-3.24 2.596zM8.439 13.404C8.159 14.219 8 15.09 8 16s.159 1.781.439 2.596L5.199 16l3.24-2.596z"/>
    <path d="M16 19.5a3.5 3.5 0 1 0 0-7 3.5 3.5 0 0 0 0 7zm0-5c.827 0 1.5.673 1.5 1.5s-.673 1.5-1.5 1.5-1.5-.673-1.5-1.5.673-1.5 1.5-1.5z"/>
</svg>
