<svg xmlns="http://www.w3.org/2000/svg" viewBox="0 0 32 32" xml:space="preserve" enable-background="new 0 0 32 32">
    <path d="M26.144 5.856A6.3 6.3 0 0 0 21.662 4a6.293 6.293 0 0 0-4.481 1.856l-4.404 4.404 1.414 1.414 4.404-4.404A4.308 4.308 0 0 1 21.662 6c1.158 0 2.248.451 3.067 1.271S26 9.179 26 10.338s-.451 2.248-1.271 3.068l-4.403 4.404 1.414 1.414 4.403-4.404C27.341 13.623 28 12.031 28 10.338s-.659-3.285-1.856-4.482zM13.405 24.729A4.305 4.305 0 0 1 10.338 26c-1.158 0-2.248-.451-3.067-1.271S6 22.82 6 21.662c0-1.159.451-2.248 1.271-3.067l4.403-4.404-1.414-1.414-4.403 4.404A6.29 6.29 0 0 0 4 21.662c0 1.692.659 3.284 1.856 4.481S8.646 28 10.338 28a6.293 6.293 0 0 0 4.481-1.856l4.404-4.403-1.414-1.414-4.404 4.402z"/>
    <path d="m10.889 19.696 9.436-9.436 1.414 1.414-9.436 9.437z"/>
</svg>
