<svg xmlns="http://www.w3.org/2000/svg" viewBox="0 0 32.04 32.04">
    <path d="M29.95 4.82c0-.76-.29-1.47-.81-2.01-.53-.55-1.24-.85-1.99-.85h-14.4c-1.54.01-2.79 1.29-2.8 2.86v2.14h1.99V4.82c0-.47.37-.85.81-.85h14.4v-.01c.21 0 .4.08.55.24.16.16.25.38.25.62v22.29c.01.47-.35.86-.79.86H12.75c-.44 0-.8-.38-.8-.85v-2.15H9.94v2.15c.01 1.57 1.27 2.84 2.81 2.84h14.41c1.54 0 2.8-1.28 2.8-2.86V4.82Z"/>
    <path d="m14.16 21.11 1.41 1.41 6.54-6.54-6.54-6.54-1.41 1.42 4.12 4.12H2.2v2h16.08l-4.12 4.13z"/>
</svg>
