<svg xmlns="http://www.w3.org/2000/svg" viewBox="0 0 32 32" xml:space="preserve" enable-background="new 0 0 32 32">
    <path d="M17 2h-1.981a3.004 3.004 0 0 0-3 2.996l-.017 12a2.981 2.981 0 0 0 .878 2.124c.566.568 1.32.88 2.122.88H17c1.654 0 3-1.346 3-3V5c0-1.654-1.346-3-3-3zm1 15a1 1 0 0 1-1 1h-1.998a.99.99 0 0 1-.707-.293.996.996 0 0 1-.293-.708l.017-12a1 1 0 0 1 1-.999H17c.552 0 1 .449 1 1v12zM16.005 22a4.003 4.003 0 0 0-3.994 3.991c-.004 1.07.41 2.076 1.165 2.834S14.936 30 16.005 30A4 4 0 0 0 20 26.005v-.01A4 4 0 0 0 16.005 22zM18 26.005a1.997 1.997 0 0 1-3.408 1.409 1.993 1.993 0 0 1-.581-1.427A1.997 1.997 0 0 1 16.005 24c1.1 0 1.995.895 1.995 1.995v.01z"/>
</svg>
