<svg xmlns="http://www.w3.org/2000/svg" viewBox="0 0 32 32" xml:space="preserve" enable-background="new 0 0 32 32">
    <path d="m28.725 28.311-3.679-3.679a5.462 5.462 0 0 0 .972-3.114c0-3.032-2.468-5.5-5.5-5.5s-5.5 2.468-5.5 5.5 2.468 5.5 5.5 5.5a5.46 5.46 0 0 0 3.114-.972l3.679 3.679 1.414-1.414zm-11.707-6.793c0-1.93 1.57-3.5 3.5-3.5s3.5 1.57 3.5 3.5-1.57 3.5-3.5 3.5-3.5-1.571-3.5-3.5zM18.101 13.857l1.4-1.429a4.997 4.997 0 0 0-5.384-1.061 5.007 5.007 0 0 0-2.749 6.516 4.977 4.977 0 0 0 1.061 1.617l1.428-1.4a3.004 3.004 0 0 1 1.013-4.88 3.004 3.004 0 0 1 3.231.637z"/>
    <path d="m11.072 22.342-2.851 2.851-1.414-1.414 2.851-2.851-.426-.676a7.964 7.964 0 0 1-1.027-2.474L8.028 17H4v-2h4.028l.177-.778c.2-.876.546-1.709 1.027-2.474l.426-.676-2.85-2.85 1.414-1.414 2.851 2.851.676-.425a7.936 7.936 0 0 1 2.474-1.027L15 8.029V4h2v4.029l.778.177a7.936 7.936 0 0 1 2.474 1.027l.676.425 2.851-2.851 1.414 1.414-2.851 2.851.426.676a7.964 7.964 0 0 1 1.027 2.474l.005-.001c.07.307.124.621.157.933l1.988-.209a9.98 9.98 0 0 0-.202-1.212l-.011.002-.001-.002.01-.002a9.955 9.955 0 0 0-.367-1.193c-.052-.142-.1-.286-.158-.424l-.025.011c-.105-.249-.203-.502-.329-.742l3.159-3.16-4.242-4.242L20.62 7.14A9.786 9.786 0 0 0 19 6.466V2h-6v4.466c-.558.176-1.1.4-1.619.672L8.222 3.979 3.979 8.222l3.159 3.16A9.894 9.894 0 0 0 6.466 13H2v6h4.466c.176.559.4 1.1.673 1.619L3.98 23.778l4.242 4.242 3.159-3.159c.376.196.764.368 1.16.515l.693-1.875a7.935 7.935 0 0 1-1.487-.734l-.675-.425z"/>
</svg>
