<svg xmlns="http://www.w3.org/2000/svg" viewBox="0 0 32 32" xml:space="preserve" enable-background="new 0 0 32 32">
    <path d="M23 18c-1.595 0-2.999.761-3.915 1.924l-5.273-2.637c.11-.413.188-.839.188-1.287s-.078-.874-.188-1.288l5.273-2.637C20.001 13.239 21.405 14 23 14a5 5 0 1 0-5-5c0 .448.078.874.188 1.288l-5.273 2.637C11.999 11.761 10.595 11 9 11a5 5 0 0 0 0 10c1.595 0 2.999-.761 3.915-1.924l5.273 2.637c-.11.413-.188.839-.188 1.287a5 5 0 1 0 5-5zm0-12c1.654 0 3 1.346 3 3s-1.346 3-3 3-3-1.346-3-3 1.346-3 3-3zM9 19c-1.654 0-3-1.346-3-3s1.346-3 3-3 3 1.346 3 3-1.346 3-3 3zm14 7c-1.654 0-3-1.346-3-3s1.346-3 3-3 3 1.346 3 3-1.346 3-3 3z"/>
</svg>
