<svg xmlns="http://www.w3.org/2000/svg" viewBox="0 0 32 32" xml:space="preserve" enable-background="new 0 0 32 32">
    <path d="M9 21.528c2.241-5.253 7.189-6.52 13-6.528v5l8-8-8-8v5c-7.13.033-12.858 5.038-13 12.528zM22.009 11 24 10.991V8.828L27.172 12 24 15.172V12.997L21.997 13c-2.463.004-5.415.206-8.123 1.26 1.957-2.039 4.793-3.245 8.135-3.26z"/>
    <path d="M28 25a1 1 0 0 1-1 1H5a1 1 0 0 1-1-1V11c0-.551.448-1 1-1h8V8H5c-1.654 0-3 1.346-3 3v14c0 1.654 1.346 3 3 3h22c1.654 0 3-1.346 3-3v-8h-2v8z"/>
</svg>
