<svg xmlns="http://www.w3.org/2000/svg" viewBox="0 0 32 32" xml:space="preserve" enable-background="new 0 0 32 32">
    <path d="M14.899 10C14.434 7.721 12.414 6 10 6s-4.434 1.721-4.899 4H2v2h3.101c.465 2.279 2.484 4 4.899 4s4.434-1.721 4.899-4H30v-2H14.899zM10 14c-1.654 0-3-1.346-3-3s1.346-3 3-3 3 1.346 3 3-1.346 3-3 3zM22 16a5.01 5.01 0 0 0-4.899 4H2v2h15.101c.465 2.279 2.484 4 4.899 4s4.434-1.721 4.899-4H30v-2h-3.101A5.01 5.01 0 0 0 22 16zm0 8c-1.654 0-3-1.346-3-3s1.346-3 3-3 3 1.346 3 3-1.346 3-3 3z"/>
</svg>
