<svg xmlns="http://www.w3.org/2000/svg" viewBox="0 0 32 32" xml:space="preserve" enable-background="new 0 0 32 32">
    <path d="M17 4h-2v11H4v2h11v11h2V17h11v-2H17z"/>
    <path d="M25 4h-3c-1.654 0-3 1.346-3 3v3c0 1.654 1.346 3 3 3h3c1.654 0 3-1.346 3-3V7c0-1.654-1.346-3-3-3zm1 6c0 .551-.448 1-1 1h-3c-.552 0-1-.449-1-1V7c0-.551.448-1 1-1h3c.552 0 1 .449 1 1v3zM7 13h3c1.654 0 3-1.346 3-3V7c0-1.654-1.346-3-3-3H7C5.346 4 4 5.346 4 7v3c0 1.654 1.346 3 3 3zM6 7c0-.551.448-1 1-1h3c.552 0 1 .449 1 1v3c0 .551-.448 1-1 1H7c-.552 0-1-.449-1-1V7zM10 19H7c-1.654 0-3 1.346-3 3v3c0 1.654 1.346 3 3 3h3c1.654 0 3-1.346 3-3v-3c0-1.654-1.346-3-3-3zm1 6a1 1 0 0 1-1 1H7a1 1 0 0 1-1-1v-3a1 1 0 0 1 1-1h3a1 1 0 0 1 1 1v3zM25 19h-3c-1.654 0-3 1.346-3 3v3c0 1.654 1.346 3 3 3h3c1.654 0 3-1.346 3-3v-3c0-1.654-1.346-3-3-3zm1 6a1 1 0 0 1-1 1h-3a1 1 0 0 1-1-1v-3a1 1 0 0 1 1-1h3a1 1 0 0 1 1 1v3z"/>
</svg>
