<svg xmlns="http://www.w3.org/2000/svg" viewBox="0 0 32 32" xml:space="preserve" enable-background="new 0 0 32 32">
    <path d="M22.53 6.65C21.43 6.23 20.24 6 19 6v2c.67 0 1.32.08 1.94.24l1.59-1.59zM25.98 8.84l1.93-1.93L26.5 5.5l-2.09 2.09-1.46 1.46L17 15l-2 2-3.2 3.2-1.41 1.41L5.5 26.5l1.41 1.41 4.88-4.88L17 28.31V17.82l4.738-4.728A3.993 3.993 0 0 1 23 16c0 2.206-1.794 4-4 4v2c3.309 0 6-2.691 6-6a5.985 5.985 0 0 0-1.855-4.325l1.415-1.415A7.933 7.933 0 0 1 27 16c0 4.41-3.59 8-8 8v2c5.51 0 10-4.49 10-10a10 10 0 0 0-3.02-7.16zM15 23.44l-1.8-1.82 1.8-1.8v3.62zM8.18 21l2-2H6c-.55 0-1-.45-1-1v-4c0-.55.45-1 1-1h4.57L15 8.51v5.67l2-2V3.64L9.73 11H6c-1.65 0-3 1.35-3 3v4c0 1.65 1.35 3 3 3h2.18z"/>
</svg>
